<svg width="1357" height="259" viewBox="0 0 1357 259" fill="none" xmlns="http://www.w3.org/2000/svg">
<g opacity="0.15">
<path d="M79.4348 160.497V182.359C73.2808 177.663 65.7503 175.315 56.8433 175.315C49.2318 175.315 43.3207 176.853 39.1101 179.93C34.8995 182.845 32.7942 187.056 32.7942 192.562C32.7942 203.25 40.7296 208.595 56.6003 208.595H88.6658V162.197C88.6658 142.601 79.1109 132.804 60.0012 132.804H21.134V112.398H61.2158C76.9246 112.398 88.9897 116.285 97.4109 124.059C105.832 131.832 110.043 143.006 110.043 157.582V229H55.8716C42.1061 229 31.1747 225.923 23.0774 219.769C14.9801 213.615 10.9314 204.627 10.9314 192.805C10.9314 180.983 15.223 171.995 23.8062 165.841C32.3893 159.687 43.1588 156.61 56.1145 156.61C63.4021 156.61 71.1755 157.905 79.4348 160.497ZM205.493 112.398V132.804H162.496C157.8 132.804 153.751 133.694 150.35 135.476C146.949 137.257 145.249 139.767 145.249 143.006C145.249 144.95 145.654 146.731 146.464 148.351C147.273 149.808 148.164 151.023 149.136 151.994C150.269 152.966 151.889 154.019 153.994 155.152C156.261 156.124 157.962 156.853 159.095 157.339C160.391 157.663 165.573 159.282 174.642 162.197C183.711 165.112 190.432 167.541 194.805 169.485C199.177 171.428 202.497 174.1 204.764 177.501C207.194 180.74 208.732 183.979 209.38 187.218C210.028 190.295 210.352 193.372 210.352 196.449C210.352 218.15 195.452 229 165.654 229H123.629V208.595H165.654C180.877 208.595 188.489 204.546 188.489 196.449C188.489 192.562 186.222 189.323 181.687 186.732C177.314 184.141 171.889 181.955 165.411 180.173C159.095 178.392 152.699 176.367 146.221 174.1C139.905 171.671 134.48 167.865 129.945 162.683C125.573 157.339 123.386 150.78 123.386 143.006C123.386 133.128 127.192 125.597 134.803 120.415C142.415 115.071 151.646 112.398 162.496 112.398H205.493ZM287.388 160.497V182.359C281.234 177.663 273.703 175.315 264.796 175.315C257.184 175.315 251.273 176.853 247.063 179.93C242.852 182.845 240.747 187.056 240.747 192.562C240.747 203.25 248.682 208.595 264.553 208.595H296.618V162.197C296.618 142.601 287.064 132.804 267.954 132.804H229.087V112.398H269.169C284.877 112.398 296.942 116.285 305.364 124.059C313.785 131.832 317.995 143.006 317.995 157.582V229H263.824C250.059 229 239.127 225.923 231.03 219.769C222.933 213.615 218.884 204.627 218.884 192.805C218.884 180.983 223.176 171.995 231.759 165.841C240.342 159.687 251.111 156.61 264.067 156.61C271.355 156.61 279.128 157.905 287.388 160.497ZM333.768 112.398H375.793C393.769 112.398 406.644 115.071 414.418 120.415C421.381 125.111 425.754 130.779 427.535 137.419C429.479 143.897 430.45 152.48 430.45 163.169V229H409.073V163.412C409.073 160.497 408.992 158.067 408.83 156.124C408.668 154.019 408.102 151.428 407.13 148.351C406.158 145.112 404.782 142.521 403 140.577C401.219 138.472 398.628 136.69 395.227 135.233C391.826 133.613 387.696 132.804 382.838 132.804H355.145V229H333.768V112.398ZM514.607 112.398H538.17L508.777 163.169C528.696 168.513 538.656 184.627 538.656 211.51V229H517.279V211.267C517.279 200.416 514.04 192.076 507.562 186.246C501.246 180.254 492.177 177.258 480.355 177.258C476.63 177.258 472.825 177.501 468.938 177.987V229H447.561V58.9561H468.938V158.796C475.74 157.824 482.541 157.824 489.343 158.796L514.607 112.398ZM616.99 160.497V182.359C610.836 177.663 603.305 175.315 594.398 175.315C586.787 175.315 580.876 176.853 576.665 179.93C572.455 182.845 570.349 187.056 570.349 192.562C570.349 203.25 578.285 208.595 594.156 208.595H626.221V162.197C626.221 142.601 616.666 132.804 597.556 132.804H558.689V112.398H598.771C614.48 112.398 626.545 116.285 634.966 124.059C643.387 131.832 647.598 143.006 647.598 157.582V229H593.427C579.661 229 568.73 225.923 560.633 219.769C552.535 213.615 548.487 204.627 548.487 192.805C548.487 180.983 552.778 171.995 561.361 165.841C569.944 159.687 580.714 156.61 593.67 156.61C600.957 156.61 608.731 157.905 616.99 160.497Z" fill="url(#paint0_linear_12670_3302)"/>
<path d="M698.953 202.557C697.969 208.317 697.801 205.513 697.671 224.173L697.671 229.456L697.671 245.408C697.671 247.01 698.97 248.31 700.572 248.31L842.462 248.309C845.451 248.309 845.84 243.977 842.899 243.444L723.613 224.399C722.256 224.182 721.23 223.042 721.201 221.668C721.093 216.585 721.506 212.877 722.473 207.113C727.154 179.332 745.435 156.165 773.611 156.236C794.291 156.287 810.609 165.344 818.368 182.619C819.193 184.456 817.776 186.446 815.763 186.426L777.206 186.056C776.066 186.045 775.691 187.58 776.707 188.096C776.768 188.126 776.831 188.151 776.897 188.17L840.524 206.508C842.402 207.049 844.267 205.616 844.228 203.662L844.19 201.697C843.137 190.556 844.24 200.462 842.899 189.96C841.343 177.771 830.367 159.793 816.774 149.202C815.072 147.875 815.141 145.175 816.925 143.96C834.446 132.03 846.245 112.224 850.332 88.4108C851.316 82.6507 851.484 85.4617 851.614 66.8012C851.535 57.2439 851.663 50.617 851.63 41.5664C851.624 39.9721 850.328 38.6857 848.734 38.6857L705.762 38.6858C703.005 38.6858 702.635 42.6772 705.346 43.1837L825.045 66.3374C826.285 66.5773 827.234 67.5913 827.353 68.8488C827.807 73.6401 827.785 78.0776 826.812 83.8586C822.131 111.64 803.85 134.806 775.674 134.736C754.443 134.683 738.736 125.376 731.319 107.212C730.757 105.836 731.409 104.28 732.752 103.643L769.257 86.3359C770.767 85.7737 770.367 83.5362 768.756 83.5322L708.145 83.3812C706.583 83.3773 705.3 84.6085 705.262 86.1701C705.181 89.4445 705.111 94.7822 705.401 97.6326C705.444 98.0574 705.757 101.491 705.838 102.375C705.85 102.513 705.873 102.651 705.906 102.786C709.926 119.387 719.257 132.182 732.461 141.836C734.203 143.109 734.142 145.799 732.358 147.013C714.837 158.943 703.04 178.743 698.953 202.557Z" fill="url(#paint1_linear_12670_3302)"/>
<path d="M986.487 112.398V132.804H943.49C938.794 132.804 934.745 133.694 931.344 135.476C927.943 137.257 926.243 139.767 926.243 143.006C926.243 144.95 926.648 146.731 927.458 148.351C928.267 149.808 929.158 151.023 930.13 151.994C931.263 152.966 932.883 154.019 934.988 155.152C937.255 156.124 938.956 156.853 940.089 157.339C941.385 157.663 946.567 159.282 955.636 162.197C964.705 165.112 971.426 167.541 975.799 169.485C980.171 171.428 983.491 174.1 985.758 177.501C988.187 180.74 989.726 183.979 990.374 187.218C991.022 190.295 991.345 193.372 991.345 196.449C991.345 218.15 976.446 229 946.648 229H904.623V208.595H946.648C961.871 208.595 969.483 204.546 969.483 196.449C969.483 192.562 967.215 189.323 962.681 186.732C958.308 184.141 952.883 181.955 946.405 180.173C940.089 178.392 933.692 176.367 927.215 174.1C920.899 171.671 915.473 167.865 910.939 162.683C906.566 157.339 904.38 150.78 904.38 143.006C904.38 133.128 908.186 125.597 915.797 120.415C923.409 115.071 932.64 112.398 943.49 112.398H986.487ZM1060.61 109.969C1088.14 111.103 1101.9 122.52 1101.9 144.221C1101.9 171.266 1084.17 184.789 1048.7 184.789H1038.75V166.084H1050.41C1061.26 166.084 1068.79 164.464 1073 161.225C1077.21 157.824 1079.31 152.237 1079.31 144.464C1079.31 139.444 1077.45 135.719 1073.73 133.29C1070 130.698 1065.22 129.403 1059.39 129.403C1047.9 129.403 1038.83 133.452 1032.19 141.549C1025.71 149.646 1022.47 159.363 1022.47 170.699C1022.47 182.683 1025.95 192.4 1032.92 199.85C1040.04 207.299 1049.27 211.024 1060.61 211.024C1070.81 211.024 1079.15 208.514 1085.63 203.493L1100.2 217.826C1089.03 226.895 1075.83 231.429 1060.61 231.429C1042.15 231.429 1027.41 226.004 1016.4 215.154C1005.38 204.303 999.878 190.295 999.878 173.128C999.878 154.019 1005.3 138.553 1016.15 126.731C1027 114.909 1041.82 109.321 1060.61 109.969ZM1115.24 112.398H1157.26C1175.24 112.398 1188.11 115.071 1195.89 120.415C1202.85 125.111 1207.22 130.779 1209 137.419C1210.95 143.897 1211.92 152.48 1211.92 163.169V229H1190.54V163.412C1190.54 160.497 1190.46 158.067 1190.3 156.124C1190.14 154.019 1189.57 151.428 1188.6 148.351C1187.63 145.112 1186.25 142.521 1184.47 140.577C1182.69 138.472 1180.1 136.69 1176.7 135.233C1173.29 133.613 1169.16 132.804 1164.31 132.804H1136.61V229H1115.24V112.398ZM1320.12 58.9561H1341.99V229H1284.9C1267.25 229 1252.92 223.413 1241.9 212.239C1230.89 200.902 1225.39 186.651 1225.39 169.485C1225.39 152.642 1231.05 138.553 1242.39 127.217C1253.89 115.718 1267.49 109.969 1283.2 109.969C1293.24 109.969 1302.63 112.398 1311.38 117.257V139.12C1303.28 133.29 1293.89 130.375 1283.2 130.375C1273.48 130.375 1265.22 134.018 1258.42 141.306C1251.78 148.432 1248.46 157.824 1248.46 169.485C1248.46 181.307 1251.62 190.781 1257.94 197.906C1264.41 205.032 1273.4 208.595 1284.9 208.595H1320.12V58.9561Z" fill="url(#paint2_linear_12670_3302)"/>
</g>
<defs>
<linearGradient id="paint0_linear_12670_3302" x1="330" y1="0" x2="330" y2="287" gradientUnits="userSpaceOnUse">
<stop stop-color="white" stop-opacity="0"/>
<stop offset="1" stop-color="#084B27"/>
</linearGradient>
<linearGradient id="paint1_linear_12670_3302" x1="775.247" y1="248.503" x2="775.77" y2="38.4967" gradientUnits="userSpaceOnUse">
<stop stop-color="#084B27"/>
<stop offset="1" stop-color="white" stop-opacity="0"/>
</linearGradient>
<linearGradient id="paint2_linear_12670_3302" x1="1123.96" y1="0" x2="1123.96" y2="287" gradientUnits="userSpaceOnUse">
<stop stop-color="white" stop-opacity="0"/>
<stop offset="1" stop-color="#084B27"/>
</linearGradient>
</defs>
</svg>
