<svg width="532" height="633" viewBox="0 0 532 633" fill="none" xmlns="http://www.w3.org/2000/svg">
<g opacity="0.1">
<path d="M49.6176 494.156C46.6511 511.525 46.1442 503.069 45.7503 559.34L45.7503 575.268L45.7503 631.746C45.7503 631.954 45.9188 632.123 46.1266 632.123L560.445 632.12C560.903 632.12 560.963 631.455 560.512 631.373L483.689 617.45L117.256 558.946C117.08 558.918 116.948 558.767 116.94 558.589C116.06 539.505 117.212 527.743 120.542 507.893C134.657 424.119 189.783 354.261 274.749 354.473C341.396 354.639 393.019 385.821 414.169 445.123C414.256 445.369 414.074 445.631 413.812 445.628L273.311 444.278C272.913 444.275 272.782 444.81 273.137 444.99L284.329 450.671C284.35 450.681 284.373 450.69 284.395 450.697L487.441 509.215C487.684 509.285 487.926 509.099 487.921 508.846L487.58 491.562C484.405 457.968 487.731 487.838 483.689 456.169C478.581 416.17 439.84 355.503 393.893 325.36C393.659 325.207 393.671 324.862 393.912 324.72C453.056 289.857 492.906 226.826 506.102 149.947C509.069 132.577 509.575 141.054 509.969 84.7825C509.705 53.1181 510.197 32.1206 509.972 0.377057C509.971 0.170327 509.802 4.64917e-05 509.596 1.95975e-05L0.375998 0.000421451C-0.0814006 0.000441526 -0.142743 0.662644 0.306878 0.74665L68.8947 13.5637L435.858 84.5462C436.019 84.5773 436.141 84.71 436.16 84.8727C438.14 101.773 438.518 116.37 435.177 136.219C421.063 219.993 365.936 289.851 280.97 289.639C214.253 289.473 165.623 259.001 144.527 199.58C144.463 199.399 144.545 199.195 144.72 199.112L261.621 143.69L282.222 136.019C282.615 135.873 282.511 135.291 282.092 135.29L69.2578 134.76C69.0552 134.759 68.8888 134.915 68.8814 135.118C68.7571 138.544 67.8286 165.622 69.0617 177.755C69.207 179.195 70.3824 192.097 70.4337 192.66C70.4353 192.678 70.4375 192.688 70.4417 192.705C83.5766 247.616 115.932 288.756 161.812 318.76C162.046 318.913 162.039 319.261 161.798 319.403C102.653 354.265 62.8135 417.276 49.6176 494.156Z" fill="white"/>
<path d="M49.6176 494.156C46.6511 511.525 46.1442 503.069 45.7503 559.34L45.7503 575.268L45.7503 631.746C45.7503 631.954 45.9188 632.123 46.1266 632.123L560.445 632.12C560.903 632.12 560.963 631.455 560.512 631.373L483.689 617.45L117.256 558.946C117.08 558.918 116.948 558.767 116.94 558.589C116.06 539.505 117.212 527.743 120.542 507.893C134.657 424.119 189.783 354.261 274.749 354.473C341.396 354.639 393.019 385.821 414.169 445.123C414.256 445.369 414.074 445.631 413.812 445.628L273.311 444.278C272.913 444.275 272.782 444.81 273.137 444.99L284.329 450.671C284.35 450.681 284.373 450.69 284.395 450.697L487.441 509.215C487.684 509.285 487.926 509.099 487.921 508.846L487.58 491.562C484.405 457.968 487.731 487.838 483.689 456.169C478.581 416.17 439.84 355.503 393.893 325.36C393.659 325.207 393.671 324.862 393.912 324.72C453.056 289.857 492.906 226.826 506.102 149.947C509.069 132.577 509.575 141.054 509.969 84.7825C509.705 53.1181 510.197 32.1206 509.972 0.377057C509.971 0.170327 509.802 4.64917e-05 509.596 1.95975e-05L0.375998 0.000421451C-0.0814006 0.000441526 -0.142743 0.662644 0.306878 0.74665L68.8947 13.5637L435.858 84.5462C436.019 84.5773 436.141 84.71 436.16 84.8727C438.14 101.773 438.518 116.37 435.177 136.219C421.063 219.993 365.936 289.851 280.97 289.639C214.253 289.473 165.623 259.001 144.527 199.58C144.463 199.399 144.545 199.195 144.72 199.112L261.621 143.69L282.222 136.019C282.615 135.873 282.511 135.291 282.092 135.29L69.2578 134.76C69.0552 134.759 68.8888 134.915 68.8814 135.118C68.7571 138.544 67.8286 165.622 69.0617 177.755C69.207 179.195 70.3824 192.097 70.4337 192.66C70.4353 192.678 70.4375 192.688 70.4417 192.705C83.5766 247.616 115.932 288.756 161.812 318.76C162.046 318.913 162.039 319.261 161.798 319.403C102.653 354.265 62.8135 417.276 49.6176 494.156Z" fill="#1B814B"/>
</g>
</svg>
