<svg width="407" height="633" viewBox="0 0 407 633" fill="none" xmlns="http://www.w3.org/2000/svg">
<g opacity="0.1">
<path d="M-105.121 494.155C-108.088 511.525 -108.595 503.069 -108.988 559.34L-108.988 575.268L-108.988 631.746C-108.988 631.954 -108.82 632.123 -108.612 632.123L405.706 632.12C406.164 632.12 406.224 631.455 405.773 631.373L328.95 617.45L-37.4823 558.946C-37.6584 558.918 -37.7907 558.767 -37.7989 558.589C-38.6783 539.505 -37.5269 527.743 -34.1963 507.893C-20.082 424.119 35.0447 354.261 120.01 354.473C186.657 354.639 238.281 385.821 259.43 445.123C259.518 445.369 259.335 445.631 259.074 445.628L118.572 444.278C118.174 444.275 118.043 444.81 118.398 444.99L129.59 450.67C129.612 450.681 129.634 450.69 129.657 450.697L332.702 509.215C332.945 509.285 333.187 509.099 333.182 508.846L332.841 491.562C329.666 457.968 332.992 487.838 328.95 456.169C323.842 416.17 285.101 355.503 239.155 325.36C238.92 325.207 238.932 324.862 239.173 324.72C298.317 289.857 338.167 226.826 351.363 149.946C354.33 132.577 354.837 141.053 355.23 84.7824C354.967 53.1181 355.458 32.1205 355.233 0.376996C355.232 0.170266 355.064 -1.45434e-05 354.857 -4.14472e-05L-154.363 0.000421603C-154.82 0.000380491 -154.882 0.662644 -154.432 0.74665L-85.844 13.5636L281.119 84.5462C281.28 84.5773 281.402 84.7099 281.421 84.8726C283.401 101.773 283.779 116.37 280.438 136.219C266.324 219.993 211.197 289.851 126.232 289.639C59.5143 289.473 10.8846 259.001 -10.2116 199.58C-10.2761 199.399 -10.1934 199.195 -10.0192 199.112L106.882 143.69L127.484 136.019C127.876 135.873 127.772 135.291 127.353 135.29L-85.481 134.76C-85.6836 134.759 -85.85 134.915 -85.8573 135.118C-85.9816 138.544 -86.9102 165.622 -85.6771 177.755C-85.5317 179.195 -84.3564 192.097 -84.3051 192.66C-84.3035 192.678 -84.3012 192.688 -84.297 192.705C-71.1622 247.616 -38.807 288.756 7.07329 318.76C7.3075 318.913 7.30019 319.26 7.05911 319.403C-52.0854 354.265 -91.9253 417.276 -105.121 494.155Z" fill="white"/>
<path d="M-105.121 494.155C-108.088 511.525 -108.595 503.069 -108.988 559.34L-108.988 575.268L-108.988 631.746C-108.988 631.954 -108.82 632.123 -108.612 632.123L405.706 632.12C406.164 632.12 406.224 631.455 405.773 631.373L328.95 617.45L-37.4823 558.946C-37.6584 558.918 -37.7907 558.767 -37.7989 558.589C-38.6783 539.505 -37.5269 527.743 -34.1963 507.893C-20.082 424.119 35.0447 354.261 120.01 354.473C186.657 354.639 238.281 385.821 259.43 445.123C259.518 445.369 259.335 445.631 259.074 445.628L118.572 444.278C118.174 444.275 118.043 444.81 118.398 444.99L129.59 450.67C129.612 450.681 129.634 450.69 129.657 450.697L332.702 509.215C332.945 509.285 333.187 509.099 333.182 508.846L332.841 491.562C329.666 457.968 332.992 487.838 328.95 456.169C323.842 416.17 285.101 355.503 239.155 325.36C238.92 325.207 238.932 324.862 239.173 324.72C298.317 289.857 338.167 226.826 351.363 149.946C354.33 132.577 354.837 141.053 355.23 84.7824C354.967 53.1181 355.458 32.1205 355.233 0.376996C355.232 0.170266 355.064 -1.45434e-05 354.857 -4.14472e-05L-154.363 0.000421603C-154.82 0.000380491 -154.882 0.662644 -154.432 0.74665L-85.844 13.5636L281.119 84.5462C281.28 84.5773 281.402 84.7099 281.421 84.8726C283.401 101.773 283.779 116.37 280.438 136.219C266.324 219.993 211.197 289.851 126.232 289.639C59.5143 289.473 10.8846 259.001 -10.2116 199.58C-10.2761 199.399 -10.1934 199.195 -10.0192 199.112L106.882 143.69L127.484 136.019C127.876 135.873 127.772 135.291 127.353 135.29L-85.481 134.76C-85.6836 134.759 -85.85 134.915 -85.8573 135.118C-85.9816 138.544 -86.9102 165.622 -85.6771 177.755C-85.5317 179.195 -84.3564 192.097 -84.3051 192.66C-84.3035 192.678 -84.3012 192.688 -84.297 192.705C-71.1622 247.616 -38.807 288.756 7.07329 318.76C7.3075 318.913 7.30019 319.26 7.05911 319.403C-52.0854 354.265 -91.9253 417.276 -105.121 494.155Z" fill="#1B814B"/>
</g>
</svg>
