<svg width="177" height="37" viewBox="0 0 177 37" fill="none" xmlns="http://www.w3.org/2000/svg">
<path d="M10.3023 21.1154V23.9509C9.50417 23.3418 8.5275 23.0373 7.3723 23.0373C6.38512 23.0373 5.61849 23.2368 5.07239 23.6359C4.5263 24.0139 4.25325 24.56 4.25325 25.2742C4.25325 26.6604 5.28243 27.3535 7.34079 27.3535H11.4995V21.336C11.4995 18.7945 10.2603 17.5238 7.78187 17.5238H2.74098V14.8773H7.9394C9.97676 14.8773 11.5415 15.3814 12.6337 16.3896C13.7259 17.3978 14.272 18.847 14.272 20.7374V30H7.24628C5.46096 30 4.04321 29.6009 2.99303 28.8028C1.94284 28.0046 1.41775 26.8389 1.41775 25.3057C1.41775 23.7724 1.97435 22.6067 3.08754 21.8086C4.20074 21.0104 5.59749 20.6113 7.27778 20.6113C8.22295 20.6113 9.23113 20.7794 10.3023 21.1154ZM26.6515 14.8773V17.5238H21.075C20.4659 17.5238 19.9408 17.6393 19.4997 17.8704C19.0586 18.1014 18.8381 18.427 18.8381 18.847C18.8381 19.0991 18.8906 19.3301 18.9956 19.5402C19.1006 19.7292 19.2162 19.8867 19.3422 20.0127C19.4892 20.1388 19.6993 20.2753 19.9723 20.4223C20.2664 20.5483 20.4869 20.6429 20.6339 20.7059C20.8019 20.7479 21.4741 20.9579 22.6503 21.336C23.8265 21.714 24.6981 22.0291 25.2652 22.2811C25.8323 22.5332 26.2629 22.8797 26.557 23.3208C26.872 23.7409 27.0716 24.161 27.1556 24.581C27.2396 24.9801 27.2816 25.3792 27.2816 25.7783C27.2816 28.5928 25.3493 30 21.4846 30H16.0341V27.3535H21.4846C23.4589 27.3535 24.4461 26.8284 24.4461 25.7783C24.4461 25.2742 24.152 24.8541 23.5639 24.518C22.9968 24.182 22.2932 23.8984 21.4531 23.6674C20.6339 23.4363 19.8043 23.1738 18.9641 22.8797C18.145 22.5647 17.4414 22.0711 16.8533 21.399C16.2862 20.7059 16.0026 19.8552 16.0026 18.847C16.0026 17.5658 16.4962 16.5891 17.4834 15.917C18.4705 15.2239 19.6677 14.8773 21.075 14.8773H26.6515ZM37.2728 21.1154V23.9509C36.4746 23.3418 35.498 23.0373 34.3428 23.0373C33.3556 23.0373 32.589 23.2368 32.0429 23.6359C31.4968 24.0139 31.2237 24.56 31.2237 25.2742C31.2237 26.6604 32.2529 27.3535 34.3113 27.3535H38.47V21.336C38.47 18.7945 37.2308 17.5238 34.7523 17.5238H29.7115V14.8773H34.9099C36.9472 14.8773 38.512 15.3814 39.6042 16.3896C40.6964 17.3978 41.2425 18.847 41.2425 20.7374V30H34.2167C32.4314 30 31.0137 29.6009 29.9635 28.8028C28.9133 28.0046 28.3882 26.8389 28.3882 25.3057C28.3882 23.7724 28.9448 22.6067 30.058 21.8086C31.1712 21.0104 32.568 20.6113 34.2483 20.6113C35.1934 20.6113 36.2016 20.7794 37.2728 21.1154ZM43.2881 14.8773H48.7386C51.07 14.8773 52.7398 15.2239 53.748 15.917C54.6511 16.5261 55.2182 17.2613 55.4493 18.1224C55.7013 18.9626 55.8273 20.0758 55.8273 21.462V30H53.0549V21.4935C53.0549 21.1154 53.0443 20.8004 53.0233 20.5483C53.0023 20.2753 52.9288 19.9392 52.8028 19.5402C52.6768 19.1201 52.4983 18.784 52.2672 18.532C52.0362 18.2589 51.7001 18.0279 51.259 17.8389C50.818 17.6288 50.2824 17.5238 49.6523 17.5238H46.0606V30H43.2881V14.8773ZM66.742 14.8773H69.7981L65.9859 21.462C68.5694 22.1551 69.8611 24.245 69.8611 27.7316V30H67.0886V27.7001C67.0886 26.2928 66.6685 25.2112 65.8284 24.455C65.0092 23.6779 63.833 23.2893 62.2998 23.2893C61.8167 23.2893 61.3231 23.3208 60.819 23.3838V30H58.0465V7.94611H60.819V20.8949C61.7012 20.7689 62.5833 20.7689 63.4655 20.8949L66.742 14.8773ZM80.0206 21.1154V23.9509C79.2225 23.3418 78.2458 23.0373 77.0906 23.0373C76.1035 23.0373 75.3368 23.2368 74.7907 23.6359C74.2446 24.0139 73.9716 24.56 73.9716 25.2742C73.9716 26.6604 75.0008 27.3535 77.0591 27.3535H81.2179V21.336C81.2179 18.7945 79.9786 17.5238 77.5002 17.5238H72.4593V14.8773H77.6577C79.6951 14.8773 81.2599 15.3814 82.3521 16.3896C83.4442 17.3978 83.9903 18.847 83.9903 20.7374V30H76.9646C75.1793 30 73.7615 29.6009 72.7114 28.8028C71.6612 28.0046 71.1361 26.8389 71.1361 25.3057C71.1361 23.7724 71.6927 22.6067 72.8059 21.8086C73.9191 21.0104 75.3158 20.6113 76.9961 20.6113C77.9413 20.6113 78.9495 20.7794 80.0206 21.1154Z" fill="#19443B"/>
<path d="M91.0523 26.1594C90.9248 26.9065 90.903 26.5428 90.886 28.963L90.886 29.648L90.886 31.717C90.886 31.9248 91.0545 32.0933 91.2623 32.0933L109.665 32.0932C110.052 32.0932 110.103 31.5314 109.722 31.4623L94.2507 28.9922C94.0746 28.9641 93.9416 28.8163 93.9378 28.6381C93.9238 27.9788 93.9773 27.4979 94.1028 26.7503C94.7098 23.1472 97.0808 20.1427 100.735 20.1518C103.417 20.1585 105.534 21.3331 106.54 23.5735C106.647 23.8118 106.463 24.0699 106.202 24.0674L101.201 24.0193C101.054 24.0179 101.005 24.217 101.137 24.2839C101.145 24.2879 101.153 24.2911 101.161 24.2935L109.413 26.6718C109.657 26.742 109.899 26.5562 109.894 26.3028L109.889 26.0479C109.752 24.603 109.895 25.8877 109.722 24.5257C109.52 22.9448 108.096 20.6131 106.333 19.2395C106.112 19.0675 106.121 18.7173 106.353 18.5597C108.625 17.0124 110.155 14.4437 110.685 11.3552C110.813 10.6082 110.835 10.9727 110.852 8.55255C110.841 7.31302 110.858 6.45354 110.854 5.27973C110.853 5.07295 110.685 4.90611 110.478 4.90611L91.9355 4.90612C91.5779 4.90612 91.5299 5.42379 91.8814 5.48947L107.406 8.4924C107.567 8.52351 107.69 8.65503 107.705 8.81812C107.764 9.43952 107.761 10.0151 107.635 10.7648C107.028 14.3679 104.657 17.3724 101.003 17.3633C98.2492 17.3565 96.212 16.1494 95.2501 13.7936C95.1772 13.6151 95.2618 13.4133 95.436 13.3307L100.17 11.0861C100.366 11.0132 100.314 10.723 100.105 10.7225L92.2445 10.7029C92.0419 10.7024 91.8755 10.8621 91.8705 11.0646C91.8601 11.4893 91.8511 12.1816 91.8886 12.5512C91.8942 12.6063 91.9348 13.0516 91.9453 13.1663C91.9469 13.1842 91.9498 13.202 91.9541 13.2196C92.4755 15.3727 93.6857 17.0322 95.3982 18.2842C95.6241 18.4494 95.6162 18.7982 95.3848 18.9557C93.1124 20.5029 91.5825 23.0709 91.0523 26.1594Z" fill="white"/>
<path d="M91.0523 26.1594C90.9248 26.9065 90.903 26.5428 90.886 28.963L90.886 29.648L90.886 31.717C90.886 31.9248 91.0545 32.0933 91.2623 32.0933L109.665 32.0932C110.052 32.0932 110.103 31.5314 109.722 31.4623L94.2507 28.9922C94.0746 28.9641 93.9416 28.8163 93.9378 28.6381C93.9238 27.9788 93.9773 27.4979 94.1028 26.7503C94.7098 23.1472 97.0808 20.1427 100.735 20.1518C103.417 20.1585 105.534 21.3331 106.54 23.5735C106.647 23.8118 106.463 24.0699 106.202 24.0674L101.201 24.0193C101.054 24.0179 101.005 24.217 101.137 24.2839C101.145 24.2879 101.153 24.2911 101.161 24.2935L109.413 26.6718C109.657 26.742 109.899 26.5562 109.894 26.3028L109.889 26.0479C109.752 24.603 109.895 25.8877 109.722 24.5257C109.52 22.9448 108.096 20.6131 106.333 19.2395C106.112 19.0675 106.121 18.7173 106.353 18.5597C108.625 17.0124 110.155 14.4437 110.685 11.3552C110.813 10.6082 110.835 10.9727 110.852 8.55255C110.841 7.31302 110.858 6.45354 110.854 5.27973C110.853 5.07295 110.685 4.90611 110.478 4.90611L91.9355 4.90612C91.5779 4.90612 91.5299 5.42379 91.8814 5.48947L107.406 8.4924C107.567 8.52351 107.69 8.65503 107.705 8.81812C107.764 9.43952 107.761 10.0151 107.635 10.7648C107.028 14.3679 104.657 17.3724 101.003 17.3633C98.2492 17.3565 96.212 16.1494 95.2501 13.7936C95.1772 13.6151 95.2618 13.4133 95.436 13.3307L100.17 11.0861C100.366 11.0132 100.314 10.723 100.105 10.7225L92.2445 10.7029C92.0419 10.7024 91.8755 10.8621 91.8705 11.0646C91.8601 11.4893 91.8511 12.1816 91.8886 12.5512C91.8942 12.6063 91.9348 13.0516 91.9453 13.1663C91.9469 13.1842 91.9498 13.202 91.9541 13.2196C92.4755 15.3727 93.6857 17.0322 95.3982 18.2842C95.6241 18.4494 95.6162 18.7982 95.3848 18.9557C93.1124 20.5029 91.5825 23.0709 91.0523 26.1594Z" fill="url(#paint0_linear_12670_3283)"/>
<path d="M128.344 14.8773V17.5238H122.767C122.158 17.5238 121.633 17.6393 121.192 17.8704C120.751 18.1014 120.53 18.427 120.53 18.847C120.53 19.0991 120.583 19.3301 120.688 19.5402C120.793 19.7292 120.908 19.8867 121.034 20.0127C121.181 20.1388 121.391 20.2753 121.664 20.4223C121.958 20.5483 122.179 20.6429 122.326 20.7059C122.494 20.7479 123.166 20.9579 124.342 21.336C125.519 21.714 126.39 22.0291 126.957 22.2811C127.524 22.5332 127.955 22.8797 128.249 23.3208C128.564 23.7409 128.764 24.161 128.848 24.581C128.932 24.9801 128.974 25.3792 128.974 25.7783C128.974 28.5928 127.041 30 123.177 30H117.726V27.3535H123.177C125.151 27.3535 126.138 26.8284 126.138 25.7783C126.138 25.2742 125.844 24.8541 125.256 24.518C124.689 24.182 123.985 23.8984 123.145 23.6674C122.326 23.4363 121.496 23.1738 120.656 22.8797C119.837 22.5647 119.133 22.0711 118.545 21.399C117.978 20.7059 117.695 19.8552 117.695 18.847C117.695 17.5658 118.188 16.5891 119.175 15.917C120.163 15.2239 121.36 14.8773 122.767 14.8773H128.344ZM137.957 14.5623C141.527 14.7093 143.313 16.1901 143.313 19.0046C143.313 22.5122 141.013 24.266 136.413 24.266H135.121V21.8401H136.633C138.041 21.8401 139.017 21.63 139.564 21.21C140.11 20.7689 140.383 20.0442 140.383 19.0361C140.383 18.385 140.141 17.9019 139.658 17.5868C139.175 17.2508 138.555 17.0827 137.799 17.0827C136.308 17.0827 135.132 17.6078 134.271 18.658C133.43 19.7082 133.01 20.9684 133.01 22.4387C133.01 23.9929 133.462 25.2532 134.365 26.2193C135.289 27.1855 136.486 27.6686 137.957 27.6686C139.28 27.6686 140.362 27.343 141.202 26.6919L143.092 28.5507C141.643 29.727 139.931 30.3151 137.957 30.3151C135.562 30.3151 133.651 29.6114 132.223 28.2042C130.794 26.7969 130.08 24.9801 130.08 22.7537C130.08 20.2753 130.784 18.2694 132.191 16.7362C133.598 15.2029 135.52 14.4783 137.957 14.5623ZM145.042 14.8773H150.492C152.824 14.8773 154.493 15.2239 155.502 15.917C156.405 16.5261 156.972 17.2613 157.203 18.1224C157.455 18.9626 157.581 20.0758 157.581 21.462V30H154.809V21.4935C154.809 21.1154 154.798 20.8004 154.777 20.5483C154.756 20.2753 154.682 19.9392 154.556 19.5402C154.43 19.1201 154.252 18.784 154.021 18.532C153.79 18.2589 153.454 18.0279 153.013 17.8389C152.572 17.6288 152.036 17.5238 151.406 17.5238H147.814V30H145.042V14.8773ZM171.615 7.94611H174.45V30H167.046C164.757 30 162.898 29.2754 161.47 27.8261C160.042 26.3559 159.328 24.5075 159.328 22.2811C159.328 20.0968 160.063 18.2694 161.533 16.7992C163.024 15.3079 164.789 14.5623 166.826 14.5623C168.128 14.5623 169.346 14.8773 170.481 15.5074V18.3429C169.43 17.5868 168.212 17.2087 166.826 17.2087C165.566 17.2087 164.494 17.6813 163.612 18.6265C162.751 19.5507 162.321 20.7689 162.321 22.2811C162.321 23.8144 162.73 25.0431 163.549 25.9673C164.389 26.8915 165.555 27.3535 167.046 27.3535H171.615V7.94611Z" fill="#19443B"/>
<defs>
<linearGradient id="paint0_linear_12670_3283" x1="101.015" y1="4.8816" x2="121.137" y2="16.1091" gradientUnits="userSpaceOnUse">
<stop stop-color="#1B814B"/>
<stop offset="1" stop-color="#09324A"/>
</linearGradient>
</defs>
</svg>
