<svg width="33" height="40" viewBox="0 0 33 40" fill="none" xmlns="http://www.w3.org/2000/svg">
<path d="M27.5237 21.0294C27.5437 19.5137 27.9561 18.0275 28.7224 16.7092C29.4888 15.3909 30.5843 14.2833 31.907 13.4894C31.0667 12.3178 29.9582 11.3536 28.6696 10.6735C27.3809 9.99331 25.9475 9.61587 24.4832 9.57114C21.3598 9.25105 18.3317 11.3959 16.74 11.3959C15.1176 11.3959 12.667 9.60292 10.028 9.65592C8.32113 9.70976 6.6576 10.1944 5.19955 11.0625C3.74151 11.9306 2.53866 13.1527 1.70821 14.6096C-1.88903 20.6902 0.79419 29.6266 4.24011 34.5418C5.96419 36.9486 7.97912 39.637 10.6157 39.5417C13.1957 39.4372 14.1592 37.9355 17.2735 37.9355C20.3589 37.9355 21.2629 39.5417 23.9529 39.481C26.7214 39.4372 28.4656 37.0636 30.1293 34.634C31.368 32.9191 32.3212 31.0237 32.9536 29.0181C31.3452 28.354 29.9726 27.2423 29.007 25.8216C28.0414 24.401 27.5255 22.7343 27.5237 21.0294Z" fill="black"/>
<path d="M22.443 6.33884C23.9525 4.56972 24.6962 2.2958 24.5161 0C22.21 0.236474 20.0797 1.31254 18.5499 3.01378C17.8019 3.84488 17.229 4.81177 16.8639 5.85916C16.4989 6.90655 16.3489 8.01391 16.4225 9.11794C17.576 9.12953 18.7171 8.88544 19.76 8.40405C20.8028 7.92267 21.7202 7.21654 22.443 6.33884Z" fill="black"/>
</svg>
