<svg width="32" height="32" viewBox="0 0 32 32" fill="none" xmlns="http://www.w3.org/2000/svg">
<path d="M15.9998 28.0001C13.3998 28.0001 11.1943 27.0945 9.38317 25.2834C7.57206 23.4723 6.6665 21.2668 6.6665 18.6668C6.6665 16.5779 7.28317 14.7056 8.5165 13.0501C9.74984 11.3945 11.3665 10.2779 13.3665 9.70009C12.6332 9.52231 11.9943 9.20564 11.4498 8.75009C10.9054 8.29453 10.4665 7.74453 10.1332 7.10009C9.79984 6.45564 9.5665 5.75564 9.43317 5.00009C9.29984 4.24453 9.27762 3.47786 9.3665 2.70009C10.2776 2.58898 11.1443 2.64453 11.9665 2.86675C12.7887 3.08898 13.5332 3.44453 14.1998 3.93342C14.8665 4.42231 15.4165 5.0112 15.8498 5.70009C16.2832 6.38898 16.5443 7.16675 16.6332 8.03342C16.9221 7.34453 17.2721 6.69453 17.6832 6.08342C18.0943 5.47231 18.5554 4.9112 19.0665 4.40009C19.3109 4.15564 19.6221 4.03342 19.9998 4.03342C20.3776 4.03342 20.6887 4.15564 20.9332 4.40009C21.1776 4.64453 21.2998 4.95564 21.2998 5.33342C21.2998 5.7112 21.1776 6.02231 20.9332 6.26675C20.4443 6.75564 20.0109 7.29453 19.6332 7.88342C19.2554 8.47231 18.9776 9.10009 18.7998 9.76675C20.7554 10.389 22.3332 11.5168 23.5332 13.1501C24.7332 14.7834 25.3332 16.6223 25.3332 18.6668C25.3332 21.2668 24.4276 23.4723 22.6165 25.2834C20.8054 27.0945 18.5998 28.0001 15.9998 28.0001Z" fill="#B2D7C5"/>
</svg>
