<svg width="17" height="17" viewBox="0 0 17 17" fill="none" xmlns="http://www.w3.org/2000/svg">
<path d="M11.3337 5.6665C12.4608 5.6665 13.5418 6.11427 14.3389 6.9113C15.1359 7.70833 15.5837 8.78933 15.5837 9.9165V14.8748H12.7503V9.9165C12.7503 9.54078 12.6011 9.18045 12.3354 8.91477C12.0697 8.64909 11.7094 8.49984 11.3337 8.49984C10.9579 8.49984 10.5976 8.64909 10.3319 8.91477C10.0662 9.18045 9.91699 9.54078 9.91699 9.9165V14.8748H7.08366V9.9165C7.08366 8.78933 7.53143 7.70833 8.32845 6.9113C9.12548 6.11427 10.2065 5.6665 11.3337 5.6665Z" stroke="#084B27" stroke-width="1.41667" stroke-linecap="round" stroke-linejoin="round"/>
<path d="M4.25033 6.37484H1.41699V14.8748H4.25033V6.37484Z" stroke="#084B27" stroke-width="1.41667" stroke-linecap="round" stroke-linejoin="round"/>
<path d="M2.83366 4.24984C3.61606 4.24984 4.25033 3.61557 4.25033 2.83317C4.25033 2.05077 3.61606 1.4165 2.83366 1.4165C2.05126 1.4165 1.41699 2.05077 1.41699 2.83317C1.41699 3.61557 2.05126 4.24984 2.83366 4.24984Z" stroke="#084B27" stroke-width="1.41667" stroke-linecap="round" stroke-linejoin="round"/>
</svg>
