<svg width="32" height="32" viewBox="0 0 32 32" fill="none" xmlns="http://www.w3.org/2000/svg">
<path d="M16 8.00008C15.2667 8.00008 14.6389 7.73897 14.1167 7.21675C13.5944 6.69453 13.3333 6.06675 13.3333 5.33341C13.3333 4.60008 13.5944 3.9723 14.1167 3.45008C14.6389 2.92786 15.2667 2.66675 16 2.66675C16.7333 2.66675 17.3611 2.92786 17.8833 3.45008C18.4056 3.9723 18.6667 4.60008 18.6667 5.33341C18.6667 6.06675 18.4056 6.69453 17.8833 7.21675C17.3611 7.73897 16.7333 8.00008 16 8.00008ZM12 28.0001V12.0001H5.33333C4.95556 12.0001 4.63889 11.8723 4.38333 11.6167C4.12778 11.3612 4 11.0445 4 10.6667C4 10.289 4.12778 9.9723 4.38333 9.71675C4.63889 9.46119 4.95556 9.33342 5.33333 9.33342H26.6667C27.0444 9.33342 27.3611 9.46119 27.6167 9.71675C27.8722 9.9723 28 10.289 28 10.6667C28 11.0445 27.8722 11.3612 27.6167 11.6167C27.3611 11.8723 27.0444 12.0001 26.6667 12.0001H20V28.0001C20 28.3779 19.8722 28.6945 19.6167 28.9501C19.3611 29.2056 19.0444 29.3334 18.6667 29.3334C18.2889 29.3334 17.9722 29.2056 17.7167 28.9501C17.4611 28.6945 17.3333 28.3779 17.3333 28.0001V21.3334H14.6667V28.0001C14.6667 28.3779 14.5389 28.6945 14.2833 28.9501C14.0278 29.2056 13.7111 29.3334 13.3333 29.3334C12.9556 29.3334 12.6389 29.2056 12.3833 28.9501C12.1278 28.6945 12 28.3779 12 28.0001Z" fill="#B2D7C5"/>
</svg>
