<svg width="35" height="40" viewBox="0 0 35 40" fill="none" xmlns="http://www.w3.org/2000/svg">
<path d="M16.155 18.8853L0.147461 36.2588C0.148964 36.2619 0.148964 36.2665 0.150468 36.2696C0.642106 38.1561 2.32601 39.5444 4.32564 39.5444C5.12549 39.5444 5.87573 39.323 6.51922 38.9356L6.57034 38.9048L24.5881 28.2732L16.155 18.8853Z" fill="#EA4335"/>
<path d="M32.3489 15.9266L32.3338 15.9158L24.5548 11.3049L15.791 19.2798L24.5864 28.271L32.3233 23.7062C33.6794 22.9559 34.6011 21.4938 34.6011 19.8087C34.6011 18.1328 33.693 16.6784 32.3489 15.9266Z" fill="#FBBC04"/>
<path d="M0.147341 3.28441C0.0511184 3.64725 0 4.02855 0 4.42215V35.1226C0 35.5162 0.0511184 35.8975 0.148845 36.2588L16.7052 19.3296L0.147341 3.28441Z" fill="#4285F4"/>
<path d="M16.2738 19.772L24.558 11.302L6.56131 0.631859C5.9073 0.230576 5.14353 -4.57764e-05 4.32714 -4.57764e-05C2.32751 -4.57764e-05 0.640602 1.39137 0.148964 3.2794C0.148964 3.28094 0.147461 3.28248 0.147461 3.28402L16.2738 19.772Z" fill="#34A853"/>
</svg>
