<svg width="32" height="32" viewBox="0 0 32 32" fill="none" xmlns="http://www.w3.org/2000/svg">
<path d="M15.9998 29.3334C14.1776 29.3334 12.4554 28.9834 10.8332 28.2834C9.21095 27.5834 7.79428 26.6279 6.58317 25.4167C5.37206 24.2056 4.4165 22.789 3.7165 21.1667C3.0165 19.5445 2.6665 17.8223 2.6665 16.0001C2.6665 14.1556 3.0165 12.4279 3.7165 10.8167C4.4165 9.20564 5.37206 7.79453 6.58317 6.58342C7.79428 5.3723 9.21095 4.41675 10.8332 3.71675C12.4554 3.01675 14.1776 2.66675 15.9998 2.66675C16.3776 2.66675 16.6943 2.79453 16.9498 3.05008C17.2054 3.30564 17.3332 3.6223 17.3332 4.00008C17.3332 4.37786 17.2054 4.69453 16.9498 4.95008C16.6943 5.20564 16.3776 5.33341 15.9998 5.33341C13.0443 5.33341 10.5276 6.3723 8.44984 8.45008C6.37206 10.5279 5.33317 13.0445 5.33317 16.0001C5.33317 18.9556 6.37206 21.4723 8.44984 23.5501C10.5276 25.6279 13.0443 26.6667 15.9998 26.6667C18.9554 26.6667 21.4721 25.6279 23.5498 23.5501C25.6276 21.4723 26.6665 18.9556 26.6665 16.0001C26.6665 15.6223 26.7943 15.3056 27.0498 15.0501C27.3054 14.7945 27.6221 14.6667 27.9998 14.6667C28.3776 14.6667 28.6943 14.7945 28.9498 15.0501C29.2054 15.3056 29.3332 15.6223 29.3332 16.0001C29.3332 17.8223 28.9832 19.5445 28.2832 21.1667C27.5832 22.789 26.6276 24.2056 25.4165 25.4167C24.2054 26.6279 22.7943 27.5834 21.1832 28.2834C19.5721 28.9834 17.8443 29.3334 15.9998 29.3334Z" fill="#B2D7C5"/>
</svg>
