<svg width="18" height="14" viewBox="0 0 18 14" fill="none" xmlns="http://www.w3.org/2000/svg">
<path d="M1.23741 6.02697C6.06923 4.05126 9.29121 2.74875 10.9033 2.11944C15.5063 0.322639 16.4627 0.0105163 17.0861 9.9919e-05C17.2232 -0.00205699 17.5298 0.0298337 17.7284 0.181063C17.8961 0.308757 17.9422 0.481255 17.9643 0.602323C17.9864 0.723392 18.0139 0.999189 17.992 1.21469C17.7426 3.67437 16.6633 9.64338 16.1142 12.3983C15.8818 13.564 15.4244 13.9548 14.9815 13.9931C14.0189 14.0762 13.288 13.3961 12.3558 12.8226C10.897 11.9251 10.0729 11.3664 8.65691 10.4907C7.02048 9.47862 8.08131 8.92236 9.0139 8.01329C9.25797 7.77538 13.4988 4.15516 13.5809 3.82675C13.5912 3.78568 13.6007 3.63258 13.5038 3.55173C13.4069 3.47089 13.2639 3.49853 13.1606 3.52052C13.0143 3.55169 10.6839 4.9973 6.16938 7.85735C5.5079 8.28364 4.90875 8.49135 4.37193 8.48046C3.78013 8.46846 2.64175 8.16643 1.79548 7.90825C0.757494 7.59159 -0.0674757 7.42417 0.00436067 6.88638C0.0417775 6.60627 0.452793 6.3198 1.23741 6.02697Z" fill="#084B27"/>
</svg>
