<svg width="32" height="32" viewBox="0 0 32 32" fill="none" xmlns="http://www.w3.org/2000/svg">
<path d="M9.40016 11.2666L5.60016 15.0666C5.35572 15.311 5.05016 15.4388 4.6835 15.4499C4.31683 15.461 4.00016 15.3333 3.7335 15.0666C3.48905 14.8221 3.36127 14.5166 3.35016 14.1499C3.33905 13.7833 3.45572 13.4666 3.70016 13.1999L4.66683 12.1999L3.7335 11.2666C3.46683 10.9999 3.3335 10.6888 3.3335 10.3333C3.3335 9.9777 3.46683 9.66659 3.7335 9.39992L5.60016 7.53325L4.6335 6.53325C4.38905 6.28881 4.26683 5.98325 4.26683 5.61659C4.26683 5.24992 4.40016 4.93325 4.66683 4.66659C4.91127 4.42214 5.21683 4.29436 5.5835 4.28325C5.95016 4.27214 6.26683 4.38881 6.5335 4.63325L7.5335 5.59992L9.40016 3.73325C9.66683 3.46659 9.97794 3.33325 10.3335 3.33325C10.6891 3.33325 11.0002 3.46659 11.2668 3.73325L12.2002 4.66659L13.2002 3.69992C13.4446 3.45547 13.7502 3.33325 14.1168 3.33325C14.4835 3.33325 14.8002 3.46659 15.0668 3.73325C15.3113 3.9777 15.4335 4.28881 15.4335 4.66659C15.4335 5.04436 15.3113 5.35547 15.0668 5.59992L11.2668 9.39992L22.6002 20.7333L26.4002 16.9333C26.6446 16.6888 26.9502 16.561 27.3168 16.5499C27.6835 16.5388 28.0002 16.6666 28.2668 16.9333C28.5113 17.1777 28.6391 17.4833 28.6502 17.8499C28.6613 18.2166 28.5446 18.5333 28.3002 18.7999L27.3335 19.7999L28.2668 20.7333C28.5335 20.9999 28.6668 21.311 28.6668 21.6666C28.6668 22.0221 28.5335 22.3333 28.2668 22.5999L26.4002 24.4666L27.3668 25.4666C27.6113 25.711 27.7335 26.0166 27.7335 26.3833C27.7335 26.7499 27.6002 27.0666 27.3335 27.3333C27.0891 27.5777 26.7835 27.7055 26.4168 27.7166C26.0502 27.7277 25.7335 27.611 25.4668 27.3666L24.4668 26.3999L22.6002 28.2666C22.3335 28.5333 22.0224 28.6666 21.6668 28.6666C21.3113 28.6666 21.0002 28.5333 20.7335 28.2666L19.8002 27.3333L18.8002 28.2999C18.5557 28.5444 18.2502 28.6666 17.8835 28.6666C17.5168 28.6666 17.2002 28.5333 16.9335 28.2666C16.6891 28.0221 16.5668 27.711 16.5668 27.3333C16.5668 26.9555 16.6891 26.6444 16.9335 26.3999L20.7335 22.5999L9.40016 11.2666Z" fill="#B2D7C5"/>
</svg>
