<svg width="72" height="44" viewBox="0 0 72 44" fill="none" xmlns="http://www.w3.org/2000/svg">
<path d="M13.4296 0.67459C15.3278 -0.0841662 17.4556 -0.0858082 19.4537 0.107518C24.5783 0.603183 27.7364 4.42898 32.0742 6.72345C32.6249 6.99699 34.2699 7.59077 34.4977 7.7209L34.5446 7.72776C36.6971 8.21902 36.8968 8.28416 39.1484 8.26774C39.7741 8.12978 40.9633 7.98354 41.599 7.9437C42.082 7.86669 43.0051 7.83655 43.4824 7.94183C45.206 8.20783 46.2569 8.74968 47.6866 9.76817C47.7679 9.72691 48.064 9.473 48.1974 9.39525C49.0992 8.87086 49.5422 8.73931 50.5439 8.6779C52.2889 9.13357 52.9352 9.64983 54.1823 10.9901C55.8232 12.7541 57.885 14.2664 57.2657 17.0772C56.8191 19.1073 55.1526 19.956 54.0353 21.3299C54.2886 21.9676 54.4834 22.7194 54.7159 23.3836C54.9571 24.0697 55.2517 24.6498 55.5207 25.3088C56.1556 26.3747 56.8213 27.3187 57.9021 27.9497C59.7085 28.9938 61.8659 28.5355 63.8435 28.9453C64.3272 29.0455 65.7269 29.5592 65.9217 29.5656L66.1913 29.7477C66.5673 29.8595 66.9012 30.0967 67.2372 30.3097C67.8836 30.6859 68.2859 30.9758 68.8659 31.4749C70.85 33.205 72.5943 36.2692 70.6274 38.8026C69.7235 39.9668 68.3623 40.5354 67.0289 40.9898C66.8619 41.0629 66.6943 41.1442 66.5216 41.1949C65.8182 41.3673 65.1112 41.48 64.3949 41.577L62.3909 41.8657C61.7959 41.9456 60.9933 42.012 60.3905 41.9941L60.0238 42.0187C58.6369 41.8926 57.3906 42.0605 55.8111 41.859C55.2061 41.7986 54.646 41.7501 54.046 41.6367C51.2537 41.4942 48.5577 41.3054 45.7468 41.2375L44.0375 41.2233L42.7148 41.2136C41.2558 41.2337 39.7962 41.2449 38.3365 41.2472C37.1544 41.3225 35.9865 41.3531 34.8113 41.424C33.672 42.5126 32.8923 43.1715 31.2405 43.0961C30.5378 43.064 29.7801 42.8521 29.2331 42.3962C29.082 42.2701 28.8064 42.0657 28.6269 42.0172C27.408 42.2425 25.1227 42.3574 23.8273 42.3851C22.7194 42.4231 21.6103 42.3716 20.5099 42.2321C18.308 42.047 15.4138 40.6562 13.5944 39.3452C11.9081 38.1302 10.1408 35.5177 9.81352 33.3821C9.42071 32.0808 9.18392 30.6146 9.07448 29.255C8.80895 26.7781 8.9502 24.0171 8.21474 21.5668C7.89655 20.6114 7.31747 19.7492 6.88842 18.8518C4.8725 14.6354 4.14831 9.89337 6.71748 5.70205C7.30677 4.7772 8.24805 3.61956 9.12214 2.97847L9.40851 2.7244C9.48841 2.69538 10.4629 1.9752 10.6621 1.86126C11.5565 1.3497 12.4562 0.974764 13.4296 0.67459Z" fill="#0B6534"/>
<path d="M13.4299 0.67459C15.3281 -0.0841661 17.4559 -0.0858081 19.454 0.107518C24.5786 0.603183 27.7367 4.42897 32.0745 6.72345C32.6252 6.99698 34.2702 7.59077 34.498 7.72089L34.5449 7.72776C36.6974 8.21902 36.8971 8.28416 39.1487 8.26774C39.596 10.2268 39.9456 12.1293 40.3472 14.0939C40.5099 14.8893 40.7146 16.0718 40.9964 16.7837C39.7886 18.0491 38.2826 19.7264 37.0512 20.9053C36.9827 21.0136 36.3057 21.7134 36.1516 21.8744C35.2677 22.8 34.3929 23.6516 33.5564 24.6307C31.4049 22.178 28.9812 19.8906 26.7764 17.485C25.1989 15.7638 24.3066 15.0358 21.9531 15.4346C21.8805 14.8376 20.9077 13.3926 20.5541 12.6784C20.1082 12.7157 19.5668 12.8096 19.1192 12.8843C17.0341 13.2321 14.9583 13.2483 12.8572 13.3321C11.4415 13.1797 10.3939 13.1554 9.34602 12.0635C8.51474 11.0188 9.14276 10.3491 10.2235 10.1204C9.7364 9.31414 7.3667 6.42081 6.71777 5.70205C7.30706 4.7772 8.24835 3.61955 9.12243 2.97847L9.4088 2.7244C9.4887 2.69538 10.4632 1.9752 10.6624 1.86126C11.5568 1.3497 12.4565 0.974764 13.4299 0.67459Z" fill="#FFF4E2"/>
<path d="M9.4088 2.7245C9.4887 2.69547 10.4632 1.97529 10.6624 1.86135C11.5568 1.34979 12.4565 0.974857 13.4299 0.674683C13.7318 1.73167 15.9347 4.88735 16.5396 6.09872C17.0964 6.06119 17.4273 6.06021 17.9723 6.22817C18.7951 6.48179 19.5739 7.11273 20.3467 7.43544C21.7375 8.01631 23.4493 8.38662 24.7535 9.14396C25.7635 9.73051 26.3545 10.5612 27.5 11.0437C28.5624 11.4911 29.8655 11.2778 30.7849 11.6756C31.1132 11.8384 31.6178 12.0533 31.4644 12.4905C29.8373 13.9801 23.1614 12.0361 20.5541 12.6785C20.1082 12.7158 19.5668 12.8097 19.1192 12.8844C17.0341 13.2322 14.9583 13.2484 12.8572 13.3322C11.4415 13.1798 10.3939 13.1555 9.34602 12.0636C8.51474 11.0189 9.14276 10.3492 10.2235 10.1205C9.7364 9.31423 7.3667 6.4209 6.71777 5.70214C7.30706 4.77729 8.24835 3.61965 9.12243 2.97856L9.4088 2.7245Z" fill="#FFFEFE"/>
<path d="M9.4088 2.7245C9.4887 2.69547 10.4632 1.97529 10.6624 1.86135C11.5568 1.34979 12.4565 0.974857 13.4299 0.674683C13.7318 1.73167 15.9347 4.88735 16.5396 6.09872C14.0713 6.7836 13.9178 9.48144 11.9495 10.5857C11.2509 10.2492 10.9925 10.2004 10.2235 10.1205C9.7364 9.31423 7.3667 6.4209 6.71777 5.70214C7.30706 4.77729 8.24835 3.61965 9.12243 2.97856L9.4088 2.7245Z" fill="#FFF4E2"/>
<path d="M9.40844 2.72443C9.76594 3.01848 11.5799 5.41935 11.8182 5.82862L11.7853 5.99568C11.2815 6.24027 9.4745 3.46236 9.12207 2.97849L9.40844 2.72443Z" fill="#FFFEFE"/>
<path d="M8.05778 4.03094C8.62624 4.21793 10.7992 7.20102 11.2984 7.87225C11.4637 8.09446 11.4067 8.19712 11.3627 8.42142C10.8075 8.25958 8.68581 5.17471 8.15866 4.58443C7.97603 4.37999 8.02304 4.26956 8.05778 4.03094Z" fill="#FFFEFE"/>
<path d="M30.7846 11.6756C31.1129 11.8384 31.6175 12.0532 31.4641 12.4905C29.8369 13.9801 23.1611 12.0361 20.5538 12.6785C20.1079 12.7158 19.5665 12.8097 19.1189 12.8844C17.0337 13.2321 14.958 13.2484 12.8569 13.3321C11.4412 13.1798 10.3936 13.1555 9.3457 12.0635C13.4356 13.1413 17.5122 12.0169 21.6367 11.7912C23.9469 11.6647 28.9689 13.1409 30.7846 11.6756Z" fill="#FEF2DC"/>
<path d="M32.0754 6.72351C32.626 6.99705 34.271 7.59083 34.4989 7.72096L34.5458 7.72782C36.6982 8.21908 36.898 8.28422 39.1495 8.26781C39.5969 10.2269 39.9464 12.1294 40.3481 14.0939C40.5108 14.8893 40.7155 16.0719 40.9973 16.7838C39.7895 18.0492 38.2835 19.7264 37.0521 20.9054C37.0285 20.8897 37.0022 20.8778 36.9807 20.8584C36.6825 20.5831 32.481 8.7005 32.1301 7.45466C32.0604 7.20716 32.0581 6.97884 32.0754 6.72351Z" fill="#FFF4E2"/>
<path d="M34.3603 9.09386C34.3147 8.84069 34.2406 8.59931 34.309 8.36249C34.4875 8.40763 34.5791 8.60648 34.7174 8.79256L36.8652 15.6182C37.1334 16.4744 37.8297 18.5127 37.9103 19.3253L37.8261 19.4534L37.8468 19.4827L37.9125 19.4358L37.8547 19.5096C37.3638 19.0055 36.9964 17.5891 36.7781 16.8578C36.0033 14.2614 35.1166 11.6949 34.3603 9.09386Z" fill="#FEF2DC"/>
<path d="M34.4982 7.72081L34.5451 7.72767C34.675 8.14648 34.6179 8.39323 34.7167 8.79242C34.5785 8.60633 34.4869 8.40749 34.3083 8.36234C34.2399 8.59917 34.3141 8.84055 34.3596 9.09372C34.1805 8.7187 33.93 8.23237 34.0183 7.83288C34.2076 7.66313 34.1704 7.72081 34.4982 7.72081Z" fill="#FFE8C1"/>
<path d="M31.2246 14.7104C31.8263 14.663 32.3541 15.1266 32.4134 15.7546C32.4728 16.3825 32.0419 16.9452 31.443 17.0219C31.043 17.0731 30.6478 16.8937 30.4104 16.553C30.173 16.2124 30.1307 15.7641 30.2998 15.3814C30.4688 14.9988 30.8228 14.742 31.2246 14.7104Z" fill="#0F0F0F"/>
<path d="M31.2049 15.2238C31.4321 15.1885 31.6598 15.2841 31.8004 15.4741C31.941 15.664 31.9727 15.9186 31.8832 16.1397C31.7936 16.361 31.5968 16.5144 31.3686 16.541C31.0244 16.5811 30.7131 16.3255 30.6684 15.9664C30.6239 15.6074 30.8624 15.2771 31.2049 15.2238Z" fill="#FFF4E2"/>
<path d="M23.148 7.2594C24.1889 7.36431 27.6387 8.68133 27.4579 10.0884C26.9221 9.94716 26.187 8.80422 25.4872 8.51121C24.7166 8.1885 23.835 8.06054 23.1534 7.60002C23.089 7.55644 23.1393 7.33961 23.148 7.2594Z" fill="#FFFEFE"/>
<path d="M16.703 0.460449C16.7955 0.475372 16.9491 0.560283 16.9884 0.64109C17.3754 1.43581 19.4369 4.77825 19.3696 5.43702C19.1697 5.35569 19.0461 5.30637 18.9509 5.10506C18.6039 4.37175 16.5874 1.10094 16.703 0.460449Z" fill="#FFF4E2"/>
<path d="M47.2824 28.3124L51.5487 23.8377C52.1936 23.1618 53.3608 21.879 54.0343 21.3299C54.2875 21.9676 54.4823 22.7194 54.7149 23.3836C54.956 24.0697 55.2506 24.6498 55.5196 25.3087C56.1545 26.3747 56.8202 27.3187 57.901 27.9497C59.7074 28.9938 61.8648 28.5355 63.8424 28.9453C64.3261 29.0455 65.7258 29.5591 65.9206 29.5656L66.1902 29.7477C66.5662 29.8595 66.9001 30.0967 67.2361 30.3097C67.8825 30.6858 68.2849 30.9758 68.8649 31.4749C70.8489 33.205 72.5932 36.2692 70.6263 38.8025C69.7224 39.9668 68.3612 40.5353 67.0278 40.9897C66.8609 41.0628 66.6932 41.1442 66.5206 41.1949C65.8171 41.3673 65.1101 41.4799 64.3939 41.5769L62.3899 41.8657C61.7949 41.9455 60.9923 42.0119 60.3894 41.994L60.0227 42.0187C58.6358 41.8926 57.3895 42.0604 55.81 41.859C55.205 41.7985 54.6449 41.75 54.045 41.6366C51.2526 41.4941 48.5566 41.3053 45.7457 41.2374L44.0364 41.2233L42.7137 41.2136C42.7273 40.9323 42.7087 40.842 42.6609 40.5622C42.5767 39.9705 41.3896 37.8392 41.1756 36.77C40.5956 36.8411 39.7016 37.0582 39.2422 36.7269C39.5939 36.3309 40.0163 35.9159 40.3887 35.5339C41.0707 34.7517 42.0138 33.8154 42.7444 33.0513L47.2824 28.3124Z" fill="#FFFEFE"/>
<path d="M57.9026 27.9498C59.709 28.9939 61.8664 28.5356 63.844 28.9453C64.3277 29.0456 65.7274 29.5592 65.9221 29.5656L66.1918 29.7478C66.5678 29.8595 66.9017 30.0967 67.2377 30.3098C67.8841 30.6859 68.2864 30.9758 68.8664 31.4749C70.8505 33.205 72.5948 36.2692 70.6279 38.8026C69.724 39.9668 68.3628 40.5354 67.0294 40.9898C66.8624 41.0629 66.6948 41.1442 66.5221 41.195C65.8187 41.3673 65.1117 41.48 64.3954 41.577L62.3914 41.8658C61.7964 41.9456 60.9938 42.012 60.391 41.9941L60.0243 42.0187C58.6374 41.8926 57.3911 42.0605 55.8115 41.859C55.2066 41.7986 54.6465 41.7501 54.0465 41.6367L54.1172 41.5852C54.3269 41.0174 54.3711 39.1189 54.4047 38.4068C53.6948 38.4286 51.088 38.7678 50.6514 38.3592C50.9424 38.0767 53.4929 38.1431 54.339 37.9491L54.4261 37.9285C55.1088 37.8349 55.7616 37.7483 56.4394 37.6165C56.4515 37.058 56.5107 36.7928 56.6213 36.2389C57.481 35.9323 59.3951 35.2832 58.3428 34.0626C57.9946 33.717 57.3903 33.641 56.8653 33.3969C57.4353 32.6979 57.1906 28.8566 57.9026 27.9498Z" fill="#FFF4E2"/>
<path d="M68.8666 31.475C70.8507 33.2051 72.595 36.2693 70.6281 38.8027C69.7242 39.9669 68.363 40.5354 67.0296 40.9898C66.5352 40.1773 65.9245 39.696 65.1426 39.2236C65.3416 38.5031 68.3815 32.1394 68.8666 31.475Z" fill="#FFF4E2"/>
<path d="M67.2381 30.3096C67.8845 30.6858 68.2869 30.9757 68.8669 31.4748C68.3818 32.1393 65.3419 38.503 65.1428 39.2234C64.4743 38.9859 64.0777 38.9881 63.3828 38.9727C63.442 38.9349 63.5119 38.9105 63.5612 38.8593C63.8922 38.5173 66.7523 31.3571 67.2381 30.3096Z" fill="#FFF4E2"/>
<path d="M67.5536 32.073C67.7541 32.1802 67.6842 32.1018 67.7755 32.3112C67.7198 32.8159 65.8735 36.4702 65.5218 36.8686L65.3456 36.7489C65.1722 36.2866 67.1762 32.6099 67.5536 32.073Z" fill="#FEF2DC"/>
<path d="M63.3815 38.9728C64.0764 38.9881 64.473 38.986 65.1415 39.2235C65.9234 39.6959 66.5341 40.1772 67.0285 40.9898C66.8616 41.0629 66.6939 41.1442 66.5213 41.1949C65.8178 41.3673 65.1108 41.48 64.3946 41.577L62.3906 41.8657C61.7956 41.9456 60.993 42.012 60.3901 41.9941L60.0234 42.0187C60.4023 40.1981 61.655 39.1945 63.3815 38.9728Z" fill="#0F0F0F"/>
<path d="M63.0225 39.5305C63.6852 39.339 64.1268 39.4587 64.7768 39.6751L64.7504 39.7601C64.587 40.2772 64.0184 41.1718 64.1168 41.5098L64.3936 41.577L62.3896 41.8657C62.4503 41.1092 63.2094 40.019 63.0225 39.5305Z" fill="#FEE5B6"/>
<path d="M60.3906 41.9941C60.4791 41.8076 60.5704 41.6218 60.6646 41.4383C61.2746 40.2541 61.8439 39.899 63.0239 39.5305C63.2108 40.0191 62.4517 41.1092 62.3911 41.8658C61.7961 41.9456 60.9935 42.0121 60.3906 41.9941Z" fill="#FFF4E2"/>
<path d="M64.7777 39.6751C65.5668 39.9773 66.1546 40.3653 66.5213 41.195C65.8179 41.3674 65.1109 41.48 64.3946 41.577L64.1178 41.5099C64.0194 41.1719 64.588 40.2773 64.7513 39.7602L64.7777 39.6751Z" fill="#FFF4E2"/>
<path d="M54.405 38.4068C54.6255 38.3243 56.0095 38.1863 56.292 38.1872C56.0915 39.4049 55.931 40.6294 55.8119 41.8591C55.2069 41.7986 54.6469 41.7501 54.0469 41.6367L54.1175 41.5852C54.3273 41.0174 54.3715 39.1189 54.405 38.4068Z" fill="#FFF4E2"/>
<path d="M56.4394 37.6164C59.1347 37.5456 59.5278 35.5188 59.9587 35.3745C60.0457 35.5383 60.04 35.624 59.9858 35.8179C59.5028 37.5553 57.6443 37.7223 56.2917 38.187C56.0092 38.1862 54.6251 38.3241 54.4047 38.4066C53.6948 38.4285 51.088 38.7677 50.6514 38.359C50.9424 38.0765 53.4929 38.143 54.339 37.949L54.4261 37.9284C55.1088 37.8348 55.7616 37.7482 56.4394 37.6164Z" fill="#FEF2DC"/>
<path d="M65.9211 29.5657L66.1907 29.7478C66.1294 30.3091 64.4921 35.0708 64.0462 35.163C63.9149 34.7074 65.6393 29.826 65.9211 29.5657Z" fill="#FFFEFE"/>
<path d="M47.2822 28.3124L51.5485 23.8377C52.1934 23.1618 53.3606 21.879 54.034 21.3299C54.2873 21.9676 54.4821 22.7194 54.7146 23.3836C54.9558 24.0697 55.2504 24.6498 55.5194 25.3087C56.1543 26.3747 56.82 27.3187 57.9008 27.9497C57.1888 28.8566 57.4335 32.6978 56.8635 33.3968C56.1001 32.7469 56.0024 31.8447 54.8966 30.7893C54.5984 30.6603 53.7779 30.2551 53.5033 30.2231C52.1192 30.0908 50.5411 31.3557 49.1828 31.17C48.2461 31.042 47.8109 29.0722 47.2822 28.3124Z" fill="#FFF4E2"/>
<path d="M55.5203 25.3087C56.1552 26.3747 56.8208 27.3187 57.9017 27.9497C57.1897 28.8566 57.4344 32.6978 56.8644 33.3968C56.101 32.7469 56.0033 31.8447 54.8975 30.7893L55.018 30.3446C55.6537 30.8524 56.3757 31.8174 56.7944 32.0031L56.8608 31.91C56.7096 30.9984 55.7215 30.1699 55.003 29.7516C55.0644 28.7181 55.1129 27.6415 55.2413 26.6169C55.297 26.1687 55.4397 25.8468 55.5096 25.3843L55.5203 25.3087Z" fill="#FFF4E2"/>
<path d="M55.0182 30.3445C53.7105 29.4645 52.8808 30.0792 52.4199 29.8774L52.4449 29.6441C52.9122 28.9205 54.4039 29.5023 55.0032 29.7515C55.7216 30.1697 56.7097 30.9983 56.861 31.9099L56.7946 32.003C56.3758 31.8173 55.6539 30.8522 55.0182 30.3445Z" fill="#FFFEFE"/>
<path d="M44.8544 36.4633C46.7586 36.4513 48.5607 36.785 50.4548 36.9181C51.8602 37.0169 53.1137 36.8586 54.5077 36.7672C54.4799 37.149 54.445 37.5479 54.4257 37.9285L54.3387 37.9491C53.4925 38.1431 50.9421 38.0767 50.651 38.3591C51.0876 38.7678 53.6944 38.4286 54.4043 38.4068C54.3708 39.1189 54.3265 41.0174 54.1168 41.5852L54.0462 41.6367C51.2538 41.4942 48.5578 41.3054 45.7469 41.2375L44.0376 41.2233L42.7149 41.2136C42.7284 40.9323 42.7099 40.842 42.6621 40.5622C42.5779 39.9705 41.3908 37.8392 41.1768 36.7701C41.2602 36.77 41.445 36.7593 41.5121 36.7856C41.8474 36.6897 42.1948 36.6487 42.5415 36.6641C42.996 36.5061 44.3465 36.4663 44.8544 36.4633Z" fill="#FFF4E2"/>
<path d="M42.5415 36.6641C42.996 36.5061 44.3465 36.4663 44.8544 36.4633C45.0756 37.6946 45.6756 40.1556 45.7469 41.2375L44.0376 41.2234L42.7149 41.2137C42.7284 40.9324 42.7099 40.8421 42.6621 40.5623C42.5779 39.9706 41.3908 37.8393 41.1768 36.7701C41.2602 36.7701 41.445 36.7593 41.5121 36.7857C41.8474 36.6898 42.1948 36.6487 42.5415 36.6641Z" fill="#FFF4E2"/>
<path d="M41.5121 36.7855C41.8474 36.6896 42.1948 36.6486 42.5415 36.664C42.8383 37.5853 43.947 40.5121 44.0376 41.2232L42.7149 41.2135C42.7284 40.9322 42.7099 40.8419 42.6621 40.5621C42.5779 39.9704 41.3908 37.8392 41.1768 36.77C41.2602 36.7699 41.445 36.7592 41.5121 36.7855Z" fill="#FFF4E2"/>
<path d="M41.1768 36.77C41.2602 36.7699 41.445 36.7592 41.5121 36.7855C41.8103 37.3201 42.961 40.0592 43.0901 40.6062L43.0423 40.7032C42.8248 40.7039 42.8797 40.6927 42.6621 40.5621C42.5779 39.9704 41.3908 37.8391 41.1768 36.77Z" fill="#FEE5B6"/>
<path d="M58.3412 34.0626C59.3935 35.2831 57.4794 35.9322 56.6197 36.2388C56.5091 36.7927 56.4499 37.058 56.4378 37.6165C55.76 37.7482 55.1073 37.8349 54.4245 37.9284C54.4438 37.5479 54.4787 37.149 54.5066 36.7672C53.1125 36.8586 51.859 37.0169 50.4536 36.9181C48.5595 36.785 46.7574 36.4512 44.8532 36.4632C44.3453 36.4662 42.9948 36.506 42.5403 36.664C42.1936 36.6486 41.8462 36.6897 41.5109 36.7855C41.4438 36.7592 41.259 36.77 41.1756 36.77C40.5956 36.8411 39.7016 37.0582 39.2422 36.7269C39.5939 36.3309 40.0163 35.9159 40.3887 35.5339C40.4657 35.5687 40.5848 35.6253 40.6726 35.6143C43.1945 35.2989 45.6801 35.1645 48.1999 35.5833C49.2065 35.7507 50.6355 35.9449 51.6357 35.8891C53.3865 35.7915 57.1227 35.3882 58.3412 34.0626Z" fill="#FEF2DC"/>
<path d="M54.5068 36.7673C55.2139 36.6021 55.918 36.426 56.62 36.2389C56.5094 36.7928 56.4502 37.0581 56.4381 37.6166C55.7603 37.7483 55.1075 37.835 54.4248 37.9285C54.4441 37.548 54.479 37.1491 54.5068 36.7673Z" fill="#FFF4E2"/>
<path d="M9.07448 29.2549C8.80895 26.7781 8.9502 24.017 8.21474 21.5667C7.89655 20.6113 7.31747 19.7491 6.88842 18.8517C4.8725 14.6353 4.14831 9.89329 6.71748 5.70197C7.36641 6.42073 9.73611 9.31406 10.2232 10.1203C9.14247 10.349 8.51445 11.0187 9.34573 12.0634C10.3936 13.1554 11.4412 13.1796 12.8569 13.332C14.958 13.2483 17.0338 13.232 19.1189 12.8842C19.5666 12.8095 20.1079 12.7157 20.5538 12.6784C20.9074 13.3926 21.8802 14.8375 21.9528 15.4345C20.2376 16.0635 18.8518 17.9876 17.4998 19.3369L16.5818 20.3375L16.3666 20.6215L16.263 20.6395C15.1161 21.8646 13.9665 22.8151 14.008 24.7053C14.0397 26.153 14.333 26.8889 15.3051 27.9271C16.4602 29.1609 17.6432 30.374 18.8148 31.594L26.8619 40.0122C27.1083 40.2696 28.7356 41.8642 28.6269 42.0171C27.408 42.2425 25.1227 42.3574 23.8273 42.385C22.7194 42.423 21.6103 42.3715 20.5099 42.232C18.308 42.047 15.4138 40.6562 13.5944 39.3451C11.9081 38.1301 10.1408 35.5177 9.81352 33.382C9.42071 32.0807 9.18392 30.6145 9.07448 29.2549Z" fill="#FFF4E2"/>
<path d="M9.07422 29.255C10.4613 30.2017 11.4314 31.1436 12.6604 32.2857C13.021 32.6206 15.2035 34.7037 15.5271 34.7953C15.7923 35.2302 16.0787 35.7353 16.4801 36.0408L16.6364 36.0684C16.6767 36.032 16.7484 35.9736 16.7782 35.9332C16.9029 36.2627 17.026 36.2398 17.3521 36.3065L17.4013 36.395C17.3324 36.6254 17.3534 36.6563 17.4054 36.9025L17.7265 37.3096C18.37 37.323 19.4787 38.5242 19.9866 39.0012L22.6411 41.4949C23.0488 41.8807 23.2951 42.2582 23.8271 42.3851C22.7191 42.4231 21.61 42.3717 20.5096 42.2321C18.3077 42.0471 15.4135 40.6563 13.5942 39.3452C11.9079 38.1302 10.1405 35.5178 9.81325 33.3822C9.42044 32.0808 9.18366 30.6146 9.07422 29.255Z" fill="#FFF4E2"/>
<path d="M9.81543 33.3822L9.90753 33.2203C10.9675 33.4892 13.2396 35.8433 14.2847 36.5557C14.569 36.7495 15.0944 37.2017 15.1486 37.5648L15.1714 37.8293L15.2825 37.9236C15.5094 37.8682 15.5039 37.8686 15.7057 37.7446C16.5466 38.3999 20.2035 41.3883 20.643 42.0972C20.5864 42.2225 20.6309 42.1785 20.5118 42.2322C18.3099 42.0472 15.4157 40.6564 13.5963 39.3453C11.91 38.1303 10.1427 35.5179 9.81543 33.3822Z" fill="#FFF4E2"/>
<path d="M15.1475 37.5647C15.5817 37.204 15.9292 36.8683 16.498 36.7869L16.538 36.8018C16.5274 37.2906 16.0493 37.4748 15.7046 37.7445C15.5027 37.8686 15.5082 37.8681 15.2814 37.9235L15.1702 37.8292L15.1475 37.5647Z" fill="#0F0F0F"/>
<path d="M17.7274 37.3096C17.8618 37.54 18.197 38.0777 18.1643 38.3319C17.7434 38.3811 17.1897 37.6569 17.1309 37.2195C17.2105 36.9653 17.1476 37.0544 17.4062 36.9025L17.7274 37.3096Z" fill="#0F0F0F"/>
<path d="M13.7049 14.4517C11.7181 14.4992 10.4103 14.3457 8.56316 13.2773C8.34135 13.1489 8.28956 12.987 8.24512 12.7611C8.38538 12.5415 8.54326 12.6554 8.74972 12.7943C9.81471 13.5109 11.8707 14.2681 13.1609 13.889L12.8562 13.3321C14.9573 13.2484 17.033 13.2321 19.1182 12.8843C19.5658 12.8097 20.1072 12.7158 20.5531 12.6785C20.9067 13.3927 21.8794 14.8376 21.9521 15.4347C20.2369 16.0636 18.8511 17.9878 17.4991 19.337C17.2085 18.8677 16.5443 18.0786 16.1784 17.6107L13.7049 14.4517Z" fill="#FFF4E2"/>
<path d="M13.7049 14.4517C11.7181 14.4992 10.4103 14.3457 8.56316 13.2773C8.34135 13.1489 8.28956 12.987 8.24512 12.7611C8.38538 12.5415 8.54326 12.6554 8.74972 12.7943C9.81471 13.5109 11.8707 14.2681 13.1609 13.889C14.1429 13.8988 18.4898 13.344 18.9633 14.1291C18.7862 14.5548 17.8058 14.0592 17.4255 14.0753C16.5506 14.1122 14.4814 14.172 13.7049 14.4517Z" fill="#FEF5DE"/>
<path d="M18.7384 35.4847C19.4393 36.1712 23.5927 40.495 23.7977 41.0129L23.7855 41.174C23.7144 41.2054 23.5919 41.28 23.5129 41.2002C21.9357 39.6168 20.3879 37.9282 18.8547 36.2898C18.7255 36.1517 18.6124 35.9259 18.5534 35.7939L18.54 35.7647L18.7384 35.4847Z" fill="#FFFEFE"/>
<path d="M18.0847 35.4031C17.623 35.0014 15.3538 32.6027 15.0596 32.1169C15.0459 31.886 15.0135 31.9826 15.145 31.8126C15.4511 31.9092 18.1942 34.7826 18.5011 35.2356L18.0847 35.4031Z" fill="#FFFEFE"/>
<path d="M16.2631 20.6397C16.2597 20.6005 16.2372 20.3352 16.2376 20.3357C15.5313 19.5246 14.7872 18.7108 14.0878 17.8971C13.8061 17.5694 13.6831 17.4399 13.7058 17.0577L13.8203 17.011C14.3819 17.2404 16.0476 19.7495 16.5819 20.3377L16.3667 20.6216L16.2631 20.6397Z" fill="#FEE5B6"/>
<path d="M15.5273 34.7954C15.7954 34.6057 15.6854 34.6231 15.9516 34.6689C16.3585 34.9652 16.5485 35.4679 16.7785 35.9333C16.7486 35.9737 16.6769 36.0321 16.6366 36.0685L16.4803 36.0409C16.0789 35.7354 15.7925 35.2303 15.5273 34.7954Z" fill="#0F0F0F"/>
<path d="M18.5016 35.2357L18.648 35.2353C18.7706 35.3885 18.749 35.3054 18.7385 35.4848L18.5401 35.7648C18.1875 35.998 17.7967 36.3002 17.4018 36.395L17.3525 36.3065C17.3926 35.9391 17.7802 35.6995 18.0852 35.4032L18.5016 35.2357Z" fill="#0F0F0F"/>
<path d="M10.9807 25.3608C11.3779 25.4423 11.9589 26.0868 12.1605 26.4642C12.2285 26.5916 12.1431 26.7326 12.0972 26.8595C11.6803 26.7384 11.1308 26.1127 10.912 25.7179C10.8508 25.6074 10.9357 25.4842 10.9807 25.3608Z" fill="#0F0F0F"/>
<path d="M41.5988 7.94371C42.0818 7.86671 43.005 7.83656 43.4823 7.94184C45.2059 8.20785 46.2568 8.7497 47.6865 9.76819C47.7678 9.72692 48.0639 9.47301 48.1973 9.39526C49.099 8.87087 49.5421 8.73932 50.5437 8.67792C50.7898 9.05562 50.5423 10.0566 50.4981 10.564C50.2605 13.307 48.4391 12.9479 47.0851 14.8153C45.502 16.9997 44.795 23.7095 40.9432 23.3347C39.4044 23.185 39.4693 20.7427 37.0508 20.9053C38.2821 19.7264 39.7882 18.0491 40.996 16.7837C40.7142 16.0719 40.5095 14.8893 40.3468 14.0939C39.9451 12.1294 39.5956 10.2268 39.1482 8.26776C39.7739 8.1298 40.9632 7.98356 41.5988 7.94371Z" fill="#00764C"/>
<path d="M41.601 7.94371C42.084 7.86671 43.0071 7.83656 43.4844 7.94184C45.208 8.20784 46.2589 8.7497 47.6886 9.76818C45.4984 12.1157 43.2233 14.4681 40.9982 16.7837C40.7164 16.0718 40.5116 14.8893 40.3489 14.0939C39.9473 12.1294 39.5977 10.2268 39.1504 8.26776C39.7761 8.1298 40.9653 7.98356 41.601 7.94371Z" fill="#FFF4E2"/>
<path d="M42.6758 9.92471C42.6779 9.61185 42.6772 9.42464 42.7222 9.1091L42.8263 9.03717L42.969 9.15297C43.0446 9.79622 43.5704 13.0693 43.31 13.4333C42.8028 13.3871 42.7642 10.5096 42.6758 9.92471Z" fill="#FFF4E2"/>
<path d="M41.5986 7.94371C42.0816 7.86671 43.0048 7.83656 43.4821 7.94184C43.1532 7.9643 43.0911 7.90916 42.8678 8.09749C42.7929 8.48758 42.9613 8.74783 42.9698 9.15299L42.8271 9.03719L42.723 9.10911C42.678 9.42466 42.6788 9.61187 42.6766 9.92473C42.5646 9.50853 42.5111 8.45348 42.4783 7.98251C42.1851 7.96691 41.8918 7.95401 41.5986 7.94371Z" fill="#FFD5CD"/>
<path d="M44.3175 16.0765C44.3796 16.1439 44.3653 16.1577 44.3939 16.2641C44.2162 16.6968 41.9076 19.079 41.5238 19.2923L41.4082 19.1035C41.4974 18.6799 43.7967 16.4351 44.3175 16.0765Z" fill="#0B6534"/>
<path d="M45.3569 13.2321L45.5225 13.2805C45.8264 13.6714 44.9367 14.2799 44.6407 14.5423C44.5501 14.5223 44.5173 14.4971 44.4316 14.4555C44.4381 14.0512 45.0509 13.543 45.3569 13.2321Z" fill="#0B6534"/>
<path d="M16.2619 20.6396L16.3656 20.6216C16.3159 20.9735 16.2581 21.3323 16.1745 21.6766C15.4965 24.4673 17.6522 26.0621 19.3769 27.8661L24.1925 32.9002L28.7063 37.6166C30.1366 39.1141 31.4487 41.0495 33.6697 40.895C34.3173 40.851 34.9598 40.6734 35.5895 40.5138C35.3348 40.807 35.0504 41.1219 34.8102 41.4241C33.6709 42.5127 32.8912 43.1715 31.2395 43.0962C30.5368 43.0641 29.7791 42.8522 29.232 42.3963C29.081 42.2702 28.8053 42.0658 28.6258 42.0173C28.7345 41.8643 27.1073 40.2698 26.8609 40.0124L18.8138 31.5941C17.6421 30.3741 16.4591 29.1611 15.304 27.9273C14.332 26.889 14.0387 26.1531 14.0069 24.7055C13.9655 22.8153 15.115 21.8647 16.2619 20.6396Z" fill="#0E3B23"/>
<path d="M27.4688 38.0682C28.1213 38.0156 29.8639 39.8631 29.8461 40.5443C29.4072 40.5063 27.6126 38.5371 27.4688 38.0682Z" fill="#00764C"/>
<path d="M38.7029 37.2661L39.2416 36.727C39.701 37.0583 40.5949 36.8412 41.1749 36.7701C41.389 37.8393 42.5761 39.9706 42.6603 40.5623C42.7081 40.8421 42.7266 40.9323 42.7131 41.2136C41.2541 41.2338 39.7945 41.245 38.3348 41.2472C37.1527 41.3226 35.9848 41.3532 34.8096 41.4241C35.0497 41.1219 35.3342 40.807 35.5888 40.5138L36.5662 39.5235C37.2825 38.7755 37.9952 38.023 38.7029 37.2661Z" fill="#FFF4E2"/>
<path d="M36.5662 39.5235C36.843 39.9057 37.3282 40.7645 37.5329 41.2077L38.3348 41.2472C37.1527 41.3226 35.9848 41.3532 34.8096 41.4241C35.0497 41.1219 35.3342 40.807 35.5888 40.5138L36.5662 39.5235Z" fill="#FEE5B6"/>
<path d="M33.6712 40.8951C33.5218 40.819 33.5787 40.8757 33.5029 40.7115C33.6938 38.5651 34.1168 38.8348 35.7566 38.1458C36.1083 37.9981 36.7482 37.1234 37.2233 36.9441C37.8155 36.7207 38.1986 37.027 38.7051 37.2661C37.9974 38.023 37.2847 38.7755 36.5684 39.5235L35.591 40.5138C34.9613 40.6735 34.3189 40.851 33.6712 40.8951Z" fill="#00764C"/>
<path d="M45.6384 23.9111C46.3397 23.9267 46.7813 24.7929 46.523 25.0867C45.5706 26.1722 42.7747 29.5493 41.6582 30.118C41.1752 29.9641 40.7258 29.7162 40.7236 29.1358C41.0176 28.5295 45.0391 24.3636 45.6384 23.9111Z" fill="#FFFEFE"/>
<path d="M20.6528 23.9089C21.4175 24.1463 23.6172 26.0629 22.1102 26.9067C21.3227 26.8591 20.4798 25.9258 20.0957 25.2243C19.7703 24.63 20.1057 24.162 20.6528 23.9089Z" fill="#FFFEFE"/>
<path d="M20.9775 22.092C21.0251 22.0979 21.1922 22.1183 21.226 22.1468C21.8966 22.7133 25.6573 26.5465 25.8709 27.0547C25.8004 27.0605 25.6542 27.0677 25.6068 27.0273C24.8916 26.4183 21.1659 22.5709 20.9775 22.092Z" fill="#0E3B23"/>
<path d="M52.1462 20.4664L52.2582 20.5115L52.2868 20.6423C52.0321 21.1851 49.6371 23.5731 49.0992 24.015C48.98 23.9697 49.0364 24.0047 48.9551 23.8645C49.0956 23.3857 51.6839 20.7929 52.1462 20.4664Z" fill="#00764C"/>
<path d="M27.124 20.006C27.682 20.0132 29.4578 21.899 29.5131 22.4332C29.0015 22.4453 27.3074 20.5006 27.124 20.006Z" fill="#00764C"/>
<path d="M24.2383 27.7026C24.6321 27.8205 25.718 28.9785 26.0002 29.3629C26.2203 29.6626 26.2565 29.645 26.2208 29.9651C25.7316 29.8443 24.2299 28.288 24.2383 27.7026Z" fill="#00764C"/>
<path d="M52.4683 18.4442L52.6652 18.5541L52.6987 18.6916C52.514 19.176 51.5373 20.0268 51.1392 20.4044L50.9416 20.2697L50.9209 20.1227C51.1784 19.5831 52.0188 18.8629 52.4683 18.4442Z" fill="#0E3B23"/>
<path d="M50.1198 16.1091C50.6113 16.2061 51.2448 17.2235 51.2028 17.6857C50.6713 17.6478 50.0085 16.6986 50.1198 16.1091Z" fill="#FFFEFE"/>
<path d="M49.1144 15.9922C49.2692 15.9958 49.25 16.0043 49.4034 16.0519L49.4454 16.1936C49.2707 16.5983 48.7206 16.8887 48.3596 17.1113C48.197 17.1035 48.2084 17.1004 48.07 17.0069L48.0664 16.8563C48.3011 16.4836 48.7513 16.2151 49.1144 15.9922Z" fill="#FFFEFE"/>
<path d="M48.5885 13.8018C49.0265 13.8423 49.1999 14.1302 49.4232 14.5187C49.6294 14.8787 49.695 14.9677 49.6001 15.3636C49.1649 15.212 48.5664 14.3164 48.5885 13.8018Z" fill="#FFFEFE"/>
<path d="M51.4206 14.4247L51.6254 14.4777L51.6625 14.6261C51.4306 15.0726 50.9483 15.3305 50.5338 15.5755C50.4404 15.5371 50.3962 15.4964 50.3105 15.4374L50.3127 15.2768C50.5788 14.874 51.0147 14.6506 51.4206 14.4247Z" fill="#FFFEFE"/>
<path d="M30.873 34.9573C31.3908 35.0533 32.119 35.9419 32.3443 36.4082C31.7941 36.3665 30.9601 35.5113 30.873 34.9573Z" fill="#00764C"/>
<path d="M31.3115 37.2798C31.7573 37.3504 32.3879 37.9195 32.469 38.4093C31.9978 38.391 31.3297 37.7225 31.3115 37.2798Z" fill="#0E3B23"/>
<path d="M17.8936 23.6139C18.3875 23.7601 18.7014 24.0241 18.8029 24.5691C18.3286 24.5928 17.9543 24.0734 17.8936 23.6139Z" fill="#00764C"/>
<path d="M36.5317 24.4824L36.7608 24.5224L36.8 24.6504C36.6616 24.9213 36.4411 25.0772 36.2121 25.2782C36.0616 25.3194 36.1372 25.3203 35.9796 25.2564C35.9739 24.978 36.3427 24.6634 36.5317 24.4824Z" fill="#00764C"/>
<path d="M2.19841 17.0396C4.29544 17.5933 5.43984 18.7836 6.53251 20.6941C7.70909 22.7511 7.99674 24.4568 6.8569 26.5586C6.12229 27.584 5.28203 28.2733 4.04524 28.5052C2.39467 28.6481 1.57409 27.7932 1.04281 26.2568C0.413074 24.8473 -0.00035648 21.9069 2.30646e-07 20.3362C0.0322469 19.5156 0.26147 18.324 0.82864 17.719L1.17829 17.4248C1.53707 17.1925 1.79048 17.1481 2.19841 17.0396Z" fill="#FFF4E2"/>
<path d="M2.30646e-07 20.3362C0.495329 20.9156 1.40558 21.4795 2.01791 22.2244L1.95841 22.3001C1.45153 22.9395 1.15931 22.916 0.476136 23.2711C0.439823 23.3578 0.408935 23.4316 0.383466 23.4925L0.398659 23.6481C0.96483 23.791 2.00864 22.9619 2.41151 22.5561C2.55484 22.7159 2.94921 23.1374 3.04488 23.3031C3.3869 23.1273 3.79626 23.1825 4.08441 23.4433C4.37256 23.7041 4.48357 24.1199 4.36621 24.4991C5.11752 24.9699 5.56554 25.7914 6.85691 26.5587C6.1223 27.5841 5.28203 28.2734 4.04524 28.5053C2.39467 28.6482 1.5741 27.7933 1.04281 26.2568C0.413074 24.8474 -0.00035648 21.907 2.30646e-07 20.3362Z" fill="#FFF4E2"/>
<path d="M3.04296 23.3033C3.38498 23.1274 3.79434 23.1826 4.08249 23.4434C4.37064 23.7042 4.48165 24.1201 4.36429 24.4992C4.23152 24.9284 3.83871 25.2099 3.40816 25.1845C2.97761 25.1591 2.61755 24.8332 2.53172 24.3912C2.44597 23.9492 2.65593 23.5022 3.04296 23.3033Z" fill="#FFFEFE"/>
<path d="M3.24966 23.7278C3.49208 23.6074 3.78201 23.712 3.90223 23.9629C4.02237 24.2139 3.92862 24.5193 3.69127 24.6502C3.53318 24.7375 3.34234 24.7284 3.19245 24.6267C3.04256 24.5248 2.95702 24.3462 2.96886 24.1597C2.9807 23.9731 3.08814 23.8079 3.24966 23.7278Z" fill="#FFE8C1"/>
<path d="M1.04297 26.2568C1.6777 25.9684 3.65751 27.943 4.0454 28.5053C2.39483 28.6481 1.57425 27.7933 1.04297 26.2568Z" fill="#FFF4E2"/>
<path d="M0 20.3362C0.0322466 19.5156 0.26147 18.324 0.82864 17.719C1.01748 17.9698 1.28523 18.169 1.54527 18.3354C2.69366 19.0706 3.01135 21.1884 2.01791 22.2244C1.40558 21.4794 0.495328 20.9156 0 20.3362Z" fill="#FFF4E2"/>
<path d="M0.82701 17.7189L1.17666 17.4248C2.06765 18.0447 2.78663 18.795 3.01457 19.9283C3.23216 21.0097 2.82759 21.6481 2.40988 22.556C2.00701 22.9618 0.963199 23.7909 0.397028 23.648L0.381836 23.4924C0.407305 23.4315 0.438193 23.3577 0.474506 23.271C1.15768 22.9158 1.4499 22.9393 1.95678 22.3L2.01628 22.2243C3.00972 21.1884 2.69203 19.0706 1.54364 18.3353C1.2836 18.1689 1.01585 17.9697 0.82701 17.7189Z" fill="#FFFEFE"/>
<path d="M57.7829 26.5985L57.7408 26.5533L57.678 26.4866C56.344 25.0626 55.9209 22.9119 58.6647 23.3447C59.7777 23.5833 60.7408 23.8583 61.9443 24.3298C62.7769 24.6272 67.1302 26.3088 65.1618 27.6242C64.7295 27.9134 62.687 27.5995 62.1005 27.5588C61.4849 27.516 60.5467 27.5257 59.936 27.4302C59.4966 27.3581 59.0649 27.2413 58.6476 27.0815C58.2795 26.9384 58.1047 26.8279 57.7829 26.5985Z" fill="#FFF4E2"/>
<path d="M57.7829 26.5985L57.7408 26.5533L57.678 26.4866C56.344 25.0626 55.9209 22.9119 58.6647 23.3447L58.4378 23.4387C58.2324 23.9398 58.1603 25.0626 58.0455 25.6393C57.9713 26.0115 57.8849 26.2426 57.7829 26.5985Z" fill="#FEE5B6"/>
<path d="M7.45036 35.684C8.35854 35.9729 11.7533 40.0294 12.6583 40.8897C12.7892 41.0143 12.7902 41.1688 12.8072 41.3397C12.6238 41.3322 12.4987 41.3419 12.3506 41.2009C11.002 39.9145 9.74679 38.5106 8.43766 37.1774C8.08109 36.8143 7.40563 36.2289 7.45036 35.684Z" fill="#FFF4E2"/>
<path d="M6.64844 37.4598C7.34238 37.5528 9.21554 39.9027 9.82138 40.4713C10.1004 40.7332 10.1628 40.8802 10.0831 41.2428C9.94865 41.1988 9.74047 41.0839 9.64766 40.9764C9.03683 40.2721 6.71379 38.306 6.64844 37.4598Z" fill="#FFF4E2"/>
<path d="M30.4951 3.66418C30.9903 3.72059 32.293 5.09462 32.4143 5.57432C31.7619 5.6114 30.5345 4.30386 30.4951 3.66418Z" fill="#FFF4E2"/>
</svg>
