<?xml version="1.0" encoding="UTF-8"?>
<svg version="1.1" xmlns="http://www.w3.org/2000/svg" width="512" height="512">
<path d="M0 0 C1.01790619 0.00215515 2.03581238 0.0043103 3.08456421 0.00653076 C17.69363523 0.05620146 32.02575853 0.30709809 46.375 3.3125 C47.34985352 3.51117676 48.32470703 3.70985352 49.32910156 3.91455078 C97.7109774 14.03517194 141.69928269 35.9516877 177.375 70.3125 C178.3640332 71.26068604 178.3640332 71.26068604 179.37304688 72.22802734 C188.86130305 81.37247479 197.6012044 90.66984009 205.375 101.3125 C206.23306152 102.46355017 207.09113451 103.61459177 207.94921875 104.765625 C213.98736829 112.95680614 219.34595521 121.47054105 224.375 130.3125 C224.73948242 130.94430176 225.10396484 131.57610352 225.47949219 132.22705078 C247.08534998 169.97532572 256.85198095 212.74189997 256.6875 255.9375 C256.68534485 256.95540619 256.6831897 257.97331238 256.68096924 259.02206421 C256.63129854 273.63113523 256.38040191 287.96325853 253.375 302.3125 C253.07698486 303.77478027 253.07698486 303.77478027 252.77294922 305.26660156 C242.65232806 353.6484774 220.7358123 397.63678269 186.375 433.3125 C185.74287598 433.97185547 185.11075195 434.63121094 184.45947266 435.31054688 C175.31502521 444.79880305 166.01765991 453.5387044 155.375 461.3125 C154.22394983 462.17056152 153.07290823 463.02863451 151.921875 463.88671875 C143.73224019 469.92427396 135.22961724 475.30707302 126.375 480.3125 C125.66778809 480.7146875 124.96057617 481.116875 124.23193359 481.53125 C101.09654164 494.5566741 75.92537591 503.30551461 49.9375 508.625 C49.21860596 508.77235596 48.49971191 508.91971191 47.7590332 509.0715332 C33.08339502 511.86090125 18.55831162 512.66142619 3.64770508 512.62817383 C0.70811513 512.6250221 -2.2304558 512.64854926 -5.16992188 512.67382812 C-18.54306192 512.71848737 -31.43916711 511.51301542 -44.625 509.3125 C-46.33055054 509.03031616 -46.33055054 509.03031616 -48.07055664 508.74243164 C-91.33802759 500.97044532 -132.38793216 480.98345309 -165.625 452.3125 C-166.37007813 451.67828125 -167.11515625 451.0440625 -167.8828125 450.390625 C-181.38779833 438.57948485 -194.05918743 425.82889772 -204.625 411.3125 C-205.48149066 410.16255169 -206.33826433 409.01281411 -207.1953125 407.86328125 C-213.23534209 399.67315742 -218.61867614 391.16870382 -223.625 382.3125 C-224.0271875 381.60528809 -224.429375 380.89807617 -224.84375 380.16943359 C-237.8691741 357.03404164 -246.61801461 331.86287591 -251.9375 305.875 C-252.08485596 305.15610596 -252.23221191 304.43721191 -252.3840332 303.6965332 C-255.35789088 288.05024391 -255.99800362 272.57681954 -255.9375 256.6875 C-255.93534485 255.66959381 -255.9331897 254.65168762 -255.93096924 253.60293579 C-255.88129854 238.99386477 -255.63040191 224.66174147 -252.625 210.3125 C-252.42632324 209.33764648 -252.22764648 208.36279297 -252.02294922 207.35839844 C-241.90232806 158.9765226 -219.9858123 114.98821731 -185.625 79.3125 C-184.99287598 78.65314453 -184.36075195 77.99378906 -183.70947266 77.31445312 C-174.56502521 67.82619695 -165.26765991 59.0862956 -154.625 51.3125 C-153.47394983 50.45443848 -152.32290823 49.59636549 -151.171875 48.73828125 C-142.98224019 42.70072604 -134.47961724 37.31792698 -125.625 32.3125 C-124.91778809 31.9103125 -124.21057617 31.508125 -123.48193359 31.09375 C-100.34654164 18.0683259 -75.17537591 9.31948539 -49.1875 4 C-48.46860596 3.85264404 -47.74971191 3.70528809 -47.0090332 3.5534668 C-31.36274391 0.57960912 -15.88931954 -0.06050362 0 0 Z " fill="#EFEFEF" transform="translate(255.625,-0.3125)"/>
<path d="M0 0 C0 152.46 0 304.92 0 462 C-5.29652956 460.23449015 -9.5642994 458.25618063 -14.375 455.5625 C-15.16229492 455.12220459 -15.94958984 454.68190918 -16.76074219 454.22827148 C-34.70731606 444.02219242 -51.14505866 431.30743065 -66 417 C-66.65935547 416.36787598 -67.31871094 415.73575195 -67.99804688 415.08447266 C-77.48630305 405.94002521 -86.2262044 396.64265991 -94 386 C-94.85806152 384.84894983 -95.71613451 383.69790823 -96.57421875 382.546875 C-102.61177396 374.35724019 -107.99457302 365.85461724 -113 357 C-113.4021875 356.29278809 -113.804375 355.58557617 -114.21875 354.85693359 C-127.2441741 331.72154164 -135.99301461 306.55037591 -141.3125 280.5625 C-141.45985596 279.84360596 -141.60721191 279.12471191 -141.7590332 278.3840332 C-144.73289088 262.73774391 -145.37300362 247.26431954 -145.3125 231.375 C-145.31034485 230.35709381 -145.3081897 229.33918762 -145.30596924 228.29043579 C-145.25629854 213.68136477 -145.00540191 199.34924147 -142 185 C-141.80132324 184.02514648 -141.60264648 183.05029297 -141.39794922 182.04589844 C-131.27732806 133.6640226 -109.3608123 89.67571731 -75 54 C-74.36787598 53.34064453 -73.73575195 52.68128906 -73.08447266 52.00195312 C-63.94002521 42.51369695 -54.64265991 33.7737956 -44 26 C-42.84894983 25.14193848 -41.69790823 24.28386549 -40.546875 23.42578125 C-8.76238963 0 -8.76238963 0 0 0 Z " fill="#D80128" transform="translate(145,25)"/>
<path d="M0 0 C5.29652956 1.76550985 9.5642994 3.74381937 14.375 6.4375 C15.16229492 6.87779541 15.94958984 7.31809082 16.76074219 7.77172852 C34.70731606 17.97780758 51.14505866 30.69256935 66 45 C66.65935547 45.63212402 67.31871094 46.26424805 67.99804688 46.91552734 C77.48630305 56.05997479 86.2262044 65.35734009 94 76 C94.85806152 77.15105017 95.71613451 78.30209177 96.57421875 79.453125 C102.61236829 87.64430614 107.97095521 96.15804105 113 105 C113.36448242 105.63180176 113.72896484 106.26360352 114.10449219 106.91455078 C135.71034998 144.66282572 145.47698095 187.42939997 145.3125 230.625 C145.30926727 232.15185928 145.30926727 232.15185928 145.30596924 233.70956421 C145.25629854 248.31863523 145.00540191 262.65075853 142 277 C141.70198486 278.46228027 141.70198486 278.46228027 141.39794922 279.95410156 C131.27732806 328.3359774 109.3608123 372.32428269 75 408 C74.05181396 408.9890332 74.05181396 408.9890332 73.08447266 409.99804688 C63.94002521 419.48630305 54.64265991 428.2262044 44 436 C42.84894983 436.85806152 41.69790823 437.71613451 40.546875 438.57421875 C8.76238963 462 8.76238963 462 0 462 C0 309.54 0 157.08 0 0 Z " fill="#D80127" transform="translate(367,25)"/>
<path d="M0 0 C4.09023815 1.36341272 5.40511809 4.13234403 7.66796875 7.58984375 C8.10764481 8.2495668 8.54732086 8.90928986 9.00032043 9.58900452 C9.92781393 10.98443567 10.85135938 12.38249781 11.77124023 13.78295898 C13.18356854 15.93151911 14.60923185 18.0707347 16.03710938 20.20898438 C16.93569911 21.56457203 17.83351234 22.92067481 18.73046875 24.27734375 C19.37256538 25.24147438 19.37256538 25.24147438 20.02763367 26.2250824 C23 30.76842039 23 30.76842039 23 33 C30.26 33 37.52 33 45 33 C38.22603865 47.45111754 31.18491478 61.7490957 24 76 C24.78260696 75.6053656 24.78260696 75.6053656 25.58102417 75.20275879 C30.99643483 72.47298328 36.4146196 69.74877631 41.83447266 67.02783203 C43.85863252 66.01071364 45.88207309 64.9921625 47.90478516 63.97216797 C50.80705262 62.50894738 53.71184145 61.0508462 56.6171875 59.59375 C57.52556366 59.13440063 58.43393982 58.67505127 59.36984253 58.20178223 C60.21056305 57.78134644 61.05128357 57.36091064 61.91748047 56.92773438 C62.65916473 56.55467163 63.400849 56.18160889 64.16500854 55.79724121 C66 55 66 55 68 55 C68.33 62.26 68.66 69.52 69 77 C75.6 80.3 82.2 83.6 89 87 C89 87.66 89 88.32 89 89 C68.21 99.395 68.21 99.395 47 110 C48.7901553 115.37046589 50.98996598 120.08937007 53.609375 125.05273438 C55.08497109 127.9140268 56 129.73064098 56 133 C41.48 133 26.96 133 12 133 C12 143.89 12 154.78 12 166 C4.74 166 -2.52 166 -10 166 C-10 155.11 -10 144.22 -10 133 C-24.52 133 -39.04 133 -54 133 C-53.2536403 129.26820149 -52.80769594 127.25003982 -51.15234375 124.08203125 C-50.79462891 123.38529297 -50.43691406 122.68855469 -50.06835938 121.97070312 C-49.69517578 121.25849609 -49.32199219 120.54628906 -48.9375 119.8125 C-46.15440496 115.13219749 -46.15440496 115.13219749 -45 110 C-58.86 103.07 -72.72 96.14 -87 89 C-87 88.34 -87 87.68 -87 87 C-77.1 82.05 -77.1 82.05 -67 77 C-66.67 69.74 -66.34 62.48 -66 55 C-62.28723321 56.23758893 -59.22618949 57.26198516 -55.83056641 58.97119141 C-54.69006332 59.54155624 -54.69006332 59.54155624 -53.52651978 60.1234436 C-52.32616592 60.73136246 -52.32616592 60.73136246 -51.1015625 61.3515625 C-50.26660248 61.77045746 -49.43164246 62.18935242 -48.57138062 62.62094116 C-45.92067567 63.95186436 -43.27281647 65.28834106 -40.625 66.625 C-38.82179996 67.5316188 -37.01841646 68.4378728 -35.21484375 69.34375 C-30.80776041 71.55828184 -26.40321971 73.77779658 -22 76 C-22.2630896 75.47604141 -22.5261792 74.95208282 -22.79724121 74.4122467 C-25.52460953 68.97956078 -28.2492069 63.54549191 -30.97216797 58.1105957 C-31.99000551 56.07996264 -33.00855931 54.04968844 -34.02783203 52.01977539 C-35.48917171 49.10916736 -36.94796651 46.19729645 -38.40625 43.28515625 C-38.86559937 42.3716188 -39.32494873 41.45808136 -39.79821777 40.51686096 C-40.21865356 39.67606491 -40.63908936 38.83526886 -41.07226562 37.96899414 C-41.44532837 37.22508926 -41.81839111 36.48118439 -42.20275879 35.71473694 C-43 34 -43 34 -43 33 C-35.74 33 -28.48 33 -21 33 C-20.01 30.525 -20.01 30.525 -19 28 C-17.58867207 25.75330717 -16.15470447 23.56710597 -14.6484375 21.38671875 C-14.02009506 20.46509697 -14.02009506 20.46509697 -13.37905884 19.52485657 C-12.04884436 17.57596907 -10.71204683 15.6317047 -9.375 13.6875 C-8.46831052 12.36162855 -7.56205578 11.0354597 -6.65625 9.70898438 C-4.44251733 6.46919211 -2.22287202 3.23352768 0 0 Z " fill="#D80128" transform="translate(255,179)"/>
<path d="M0 0 C1.98 0.99 1.98 0.99 4 2 C3.01 2.495 3.01 2.495 2 3 C2 154.47 2 305.94 2 462 C1.34 462 0.68 462 0 462 C0 309.54 0 157.08 0 0 Z " fill="#DF4863" transform="translate(367,25)"/>
</svg>
