<svg width="63" height="63" viewBox="0 0 63 63" fill="none" xmlns="http://www.w3.org/2000/svg">
<g clip-path="url(#clip0_12589_5242)">
<path fill-rule="evenodd" clip-rule="evenodd" d="M-1.0459 -9.41553H31.3879H63.8217V31.3836H-1.0459V-9.41553Z" fill="black"/>
<path fill-rule="evenodd" clip-rule="evenodd" d="M-1.0459 31.3823H63.8217V72.1814H-1.0459V31.3823Z" fill="#007A3D"/>
<path fill-rule="evenodd" clip-rule="evenodd" d="M-1.0459 21.3564H63.8217V41.4114H-1.0459V21.3564Z" fill="white"/>
<path fill-rule="evenodd" clip-rule="evenodd" d="M-1.0459 7.32324L31.3831 31.3835L-1.0459 55.4437V7.32324Z" fill="#C4111B"/>
<path d="M47.5961 37.8015C51.1792 37.8015 54.0838 34.9281 54.0838 31.3835C54.0838 27.839 51.1792 24.9656 47.5961 24.9656C44.013 24.9656 41.1084 27.839 41.1084 31.3835C41.1084 34.9281 44.013 37.8015 47.5961 37.8015Z" fill="#C4111B"/>
<path d="M50.0356 37.8015C53.6186 37.8015 56.5233 34.9281 56.5233 31.3835C56.5233 27.839 53.6186 24.9656 50.0356 24.9656C46.4525 24.9656 43.5479 27.839 43.5479 31.3835C43.5479 34.9281 46.4525 37.8015 50.0356 37.8015Z" fill="white"/>
<path fill-rule="evenodd" clip-rule="evenodd" d="M45.8546 35.2675L48.627 33.3167L51.3707 35.2958L50.3418 32.0915L53.1045 30.1218L49.7034 30.1029L48.6555 26.8987L47.5885 30.0936L44.1875 30.0747L46.9216 32.0727L45.8642 35.2769L45.8546 35.2675Z" fill="#C4111B"/>
</g>
<defs>
<clipPath id="clip0_12589_5242">
<rect width="62.7706" height="62.7706" rx="31.3853" fill="white"/>
</clipPath>
</defs>
</svg>
