<svg width="97" height="97" viewBox="0 0 97 97" fill="none" xmlns="http://www.w3.org/2000/svg">
<g clip-path="url(#clip0_12883_3077)">
<mask id="mask0_12883_3077" style="mask-type:luminance" maskUnits="userSpaceOnUse" x="-17" y="-1" width="130" height="98">
<path d="M112.147 -0.000732422H-16.0234V96.127H112.147V-0.000732422Z" fill="white"/>
</mask>
<g mask="url(#mask0_12883_3077)">
<path d="M-16.0234 -0.000732422H112.147V96.127H-16.0234V-0.000732422Z" fill="#003399"/>
<path d="M48.0584 15.2947L46.6343 20.0417L49.0078 20.5164L48.0584 15.2947Z" fill="#FFCC00"/>
<path d="M48.0583 15.2947L49.4824 20.0417L47.1089 20.5164L48.0583 15.2947Z" fill="#FFCC00"/>
<path d="M52.5755 18.5767L47.6206 18.6891L47.9026 21.0931L52.5755 18.5767Z" fill="#FFCC00"/>
<path d="M52.5785 18.5776L48.5038 21.399L47.3188 19.2883L52.5785 18.5776Z" fill="#FFCC00"/>
<path d="M50.8526 23.8861L49.2145 19.2085L47.0151 20.2196L50.8526 23.8861Z" fill="#FFCC00"/>
<path d="M50.8545 23.889L46.9121 20.8856L48.5532 19.1064L50.8545 23.889Z" fill="#FFCC00"/>
<path d="M43.542 18.5767L48.4969 18.6891L48.2149 21.0931L43.542 18.5767Z" fill="#FFCC00"/>
<path d="M43.5386 18.5776L47.6133 21.399L48.7982 19.2883L43.5386 18.5776Z" fill="#FFCC00"/>
<path d="M45.2642 23.8861L46.9022 19.2085L49.1014 20.2196L45.2642 23.8861Z" fill="#FFCC00"/>
<path d="M45.2642 23.889L49.2065 20.8856L47.5655 19.1064L45.2642 23.889Z" fill="#FFCC00"/>
<path d="M48.0584 72.2583L46.6343 77.0052L49.0078 77.48L48.0584 72.2583Z" fill="#FFCC00"/>
<path d="M48.0583 72.2583L49.4824 77.0052L47.1089 77.48L48.0583 72.2583Z" fill="#FFCC00"/>
<path d="M52.5755 75.5396L47.6206 75.652L47.9026 78.056L52.5755 75.5396Z" fill="#FFCC00"/>
<path d="M52.5785 75.541L48.5038 78.3624L47.3188 76.2517L52.5785 75.541Z" fill="#FFCC00"/>
<path d="M50.8526 80.849L49.2145 76.1714L47.0151 77.1825L50.8526 80.849Z" fill="#FFCC00"/>
<path d="M50.8545 80.8519L46.9121 77.8485L48.5532 76.0693L50.8545 80.8519Z" fill="#FFCC00"/>
<path d="M43.542 75.5396L48.4969 75.652L48.2149 78.056L43.542 75.5396Z" fill="#FFCC00"/>
<path d="M43.5386 75.541L47.6133 78.3624L48.7982 76.2517L43.5386 75.541Z" fill="#FFCC00"/>
<path d="M45.2642 80.849L46.9022 76.1714L49.1014 77.1825L45.2642 80.849Z" fill="#FFCC00"/>
<path d="M45.2642 80.8519L49.2065 77.8485L47.5655 76.0693L45.2642 80.8519Z" fill="#FFCC00"/>
<path d="M19.5779 43.782L18.1538 48.5291L20.5274 49.0038L19.5779 43.782Z" fill="#FFCC00"/>
<path d="M19.5769 43.782L21.001 48.5291L18.6274 49.0038L19.5769 43.782Z" fill="#FFCC00"/>
<path d="M24.0939 47.0647L19.1392 47.1773L19.4211 49.5813L24.0939 47.0647Z" fill="#FFCC00"/>
<path d="M24.0969 47.0654L20.0223 49.8868L18.8374 47.7761L24.0969 47.0654Z" fill="#FFCC00"/>
<path d="M22.3706 52.3735L20.7324 47.696L18.5332 48.7071L22.3706 52.3735Z" fill="#FFCC00"/>
<path d="M22.3725 52.3763L18.4302 49.3729L20.0714 47.5938L22.3725 52.3763Z" fill="#FFCC00"/>
<path d="M15.0601 47.0647L20.0148 47.1773L19.7328 49.5813L15.0601 47.0647Z" fill="#FFCC00"/>
<path d="M15.0566 47.0654L19.1312 49.8868L20.3161 47.7761L15.0566 47.0654Z" fill="#FFCC00"/>
<path d="M16.7827 52.3735L18.4209 47.696L20.6201 48.7071L16.7827 52.3735Z" fill="#FFCC00"/>
<path d="M16.7827 52.3763L20.7251 49.3729L19.0839 47.5938L16.7827 52.3763Z" fill="#FFCC00"/>
<path d="M31.3838 27.9131L35.3261 24.9098L33.6849 23.1306L31.3838 27.9131Z" fill="#FFCC00"/>
<path d="M31.3838 27.9096L33.022 23.2322L35.2212 24.2431L31.3838 27.9096Z" fill="#FFCC00"/>
<path d="M29.6514 22.6079L33.7259 25.4293L34.9108 23.3186L29.6514 22.6079Z" fill="#FFCC00"/>
<path d="M29.6543 22.6077L34.609 22.7201L34.3271 25.1243L29.6543 22.6077Z" fill="#FFCC00"/>
<path d="M34.1653 19.3252L32.7412 24.0723L35.1148 24.547L34.1653 19.3252Z" fill="#FFCC00"/>
<path d="M34.1652 19.3252L35.5892 24.0723L33.2158 24.547L34.1652 19.3252Z" fill="#FFCC00"/>
<path d="M36.9609 27.9131L33.0186 24.9098L34.6598 23.1306L36.9609 27.9131Z" fill="#FFCC00"/>
<path d="M36.9588 27.9096L35.3208 23.2322L33.1216 24.2431L36.9588 27.9096Z" fill="#FFCC00"/>
<path d="M38.6849 22.6079L34.6102 25.4293L33.4253 23.3186L38.6849 22.6079Z" fill="#FFCC00"/>
<path d="M38.6815 22.6077L33.7266 22.7201L34.0087 25.1243L38.6815 22.6077Z" fill="#FFCC00"/>
<path d="M26.4014 38.4801L24.7632 33.8025L22.564 34.8136L26.4014 38.4801Z" fill="#FFCC00"/>
<path d="M26.4033 38.4832L22.4609 35.4798L24.1022 33.7007L26.4033 38.4832Z" fill="#FFCC00"/>
<path d="M20.8193 38.4771L24.7617 35.4737L23.1205 33.6946L20.8193 38.4771Z" fill="#FFCC00"/>
<path d="M20.8193 38.4737L22.4574 33.7961L24.6566 34.8072L20.8193 38.4737Z" fill="#FFCC00"/>
<path d="M19.0938 33.1716L23.1684 35.993L24.3534 33.8823L19.0938 33.1716Z" fill="#FFCC00"/>
<path d="M19.0967 33.1716L24.0516 33.2841L23.7694 35.6881L19.0967 33.1716Z" fill="#FFCC00"/>
<path d="M28.1271 33.1716L24.0526 35.993L22.8677 33.8823L28.1271 33.1716Z" fill="#FFCC00"/>
<path d="M28.1242 33.1716L23.1694 33.2841L23.4514 35.6881L28.1242 33.1716Z" fill="#FFCC00"/>
<path d="M23.6135 29.8889L25.0376 34.636L22.6641 35.1107L23.6135 29.8889Z" fill="#FFCC00"/>
<path d="M23.6141 29.8889L22.1899 34.636L24.5633 35.1107L23.6141 29.8889Z" fill="#FFCC00"/>
<path d="M28.1242 61.7219L23.1694 61.8344L23.4514 64.2384L28.1242 61.7219Z" fill="#FFCC00"/>
<path d="M28.1271 61.7227L24.0526 64.544L22.8677 62.4334L28.1271 61.7227Z" fill="#FFCC00"/>
<path d="M26.4014 67.0306L24.7632 62.353L22.564 63.3641L26.4014 67.0306Z" fill="#FFCC00"/>
<path d="M26.4033 67.0335L22.4609 64.0301L24.1022 62.251L26.4033 67.0335Z" fill="#FFCC00"/>
<path d="M20.8193 67.0274L24.7617 64.024L23.1205 62.2449L20.8193 67.0274Z" fill="#FFCC00"/>
<path d="M20.8193 67.024L22.4574 62.3464L24.6566 63.3575L20.8193 67.024Z" fill="#FFCC00"/>
<path d="M23.6135 58.4399L25.0376 63.1869L22.6641 63.6616L23.6135 58.4399Z" fill="#FFCC00"/>
<path d="M23.6141 58.4399L22.1899 63.1869L24.5633 63.6616L23.6141 58.4399Z" fill="#FFCC00"/>
<path d="M19.103 61.7219L24.0579 61.8344L23.776 64.2384L19.103 61.7219Z" fill="#FFCC00"/>
<path d="M19.0996 61.7227L23.1743 64.544L24.3592 62.4334L19.0996 61.7227Z" fill="#FFCC00"/>
<path d="M38.4318 71.2783L33.4771 71.3908L33.759 73.7949L38.4318 71.2783Z" fill="#FFCC00"/>
<path d="M38.4343 71.2786L34.3597 74.0998L33.1748 71.9891L38.4343 71.2786Z" fill="#FFCC00"/>
<path d="M36.7085 76.5868L35.0703 71.9094L32.8711 72.9204L36.7085 76.5868Z" fill="#FFCC00"/>
<path d="M36.7104 76.5899L32.7681 73.5865L34.4093 71.8074L36.7104 76.5899Z" fill="#FFCC00"/>
<path d="M31.1265 76.5838L35.0688 73.5804L33.4276 71.8013L31.1265 76.5838Z" fill="#FFCC00"/>
<path d="M31.1265 76.5803L32.7645 71.9028L34.9637 72.9138L31.1265 76.5803Z" fill="#FFCC00"/>
<path d="M33.9216 67.9956L35.3457 72.7427L32.9722 73.2174L33.9216 67.9956Z" fill="#FFCC00"/>
<path d="M33.9215 67.9956L32.4976 72.7427L34.871 73.2174L33.9215 67.9956Z" fill="#FFCC00"/>
<path d="M29.4106 71.2783L34.3655 71.3908L34.0834 73.7949L29.4106 71.2783Z" fill="#FFCC00"/>
<path d="M29.4077 71.2786L33.4824 74.0998L34.6673 71.9891L29.4077 71.2786Z" fill="#FFCC00"/>
<path d="M76.5466 43.782L77.9707 48.5291L75.5972 49.0038L76.5466 43.782Z" fill="#FFCC00"/>
<path d="M76.5467 43.782L75.1226 48.5291L77.4961 49.0038L76.5467 43.782Z" fill="#FFCC00"/>
<path d="M72.0293 47.0647L76.984 47.1773L76.7021 49.5813L72.0293 47.0647Z" fill="#FFCC00"/>
<path d="M72.0264 47.0654L76.1009 49.8868L77.2858 47.7761L72.0264 47.0654Z" fill="#FFCC00"/>
<path d="M73.752 52.3735L75.3901 47.696L77.5894 48.7071L73.752 52.3735Z" fill="#FFCC00"/>
<path d="M73.752 52.3763L77.6943 49.3729L76.0531 47.5938L73.752 52.3763Z" fill="#FFCC00"/>
<path d="M81.0631 47.0647L76.1084 47.1773L76.3904 49.5813L81.0631 47.0647Z" fill="#FFCC00"/>
<path d="M81.0661 47.0654L76.9916 49.8868L75.8066 47.7761L81.0661 47.0654Z" fill="#FFCC00"/>
<path d="M79.3404 52.3735L77.7022 47.696L75.5029 48.7071L79.3404 52.3735Z" fill="#FFCC00"/>
<path d="M79.3423 52.3763L75.3999 49.3729L77.0411 47.5938L79.3423 52.3763Z" fill="#FFCC00"/>
<path d="M64.7417 27.9131L60.7993 24.9098L62.4405 23.1306L64.7417 27.9131Z" fill="#FFCC00"/>
<path d="M64.7398 27.9096L63.1016 23.2322L60.9023 24.2431L64.7398 27.9096Z" fill="#FFCC00"/>
<path d="M66.4714 22.6079L62.3969 25.4293L61.2119 23.3186L66.4714 22.6079Z" fill="#FFCC00"/>
<path d="M66.4689 22.6077L61.5142 22.7201L61.7961 25.1243L66.4689 22.6077Z" fill="#FFCC00"/>
<path d="M61.9582 19.3252L63.3823 24.0723L61.0088 24.547L61.9582 19.3252Z" fill="#FFCC00"/>
<path d="M61.9591 19.3252L60.5352 24.0723L62.9086 24.547L61.9591 19.3252Z" fill="#FFCC00"/>
<path d="M59.1641 27.9131L63.1064 24.9098L61.4652 23.1306L59.1641 27.9131Z" fill="#FFCC00"/>
<path d="M59.1641 27.9096L60.8021 23.2322L63.0013 24.2431L59.1641 27.9096Z" fill="#FFCC00"/>
<path d="M57.439 22.6079L61.5137 25.4293L62.6986 23.3186L57.439 22.6079Z" fill="#FFCC00"/>
<path d="M57.4414 22.6077L62.3963 22.7201L62.1142 25.1243L57.4414 22.6077Z" fill="#FFCC00"/>
<path d="M69.7222 38.4801L71.3603 33.8025L73.5596 34.8136L69.7222 38.4801Z" fill="#FFCC00"/>
<path d="M69.7222 38.4832L73.6645 35.4798L72.0233 33.7007L69.7222 38.4832Z" fill="#FFCC00"/>
<path d="M75.3056 38.4771L71.3633 35.4737L73.0045 33.6946L75.3056 38.4771Z" fill="#FFCC00"/>
<path d="M75.3036 38.4737L73.6656 33.7961L71.4663 34.8072L75.3036 38.4737Z" fill="#FFCC00"/>
<path d="M77.0296 33.1716L72.9549 35.993L71.77 33.8823L77.0296 33.1716Z" fill="#FFCC00"/>
<path d="M77.0267 33.1716L72.0718 33.2841L72.3539 35.6881L77.0267 33.1716Z" fill="#FFCC00"/>
<path d="M67.9966 33.1716L72.0711 35.993L73.256 33.8823L67.9966 33.1716Z" fill="#FFCC00"/>
<path d="M67.999 33.1716L72.9538 33.2841L72.6718 35.6881L67.999 33.1716Z" fill="#FFCC00"/>
<path d="M72.5101 29.8889L71.0859 34.636L73.4595 35.1107L72.5101 29.8889Z" fill="#FFCC00"/>
<path d="M72.5093 29.8889L73.9335 34.636L71.5601 35.1107L72.5093 29.8889Z" fill="#FFCC00"/>
<path d="M67.999 61.7219L72.9538 61.8344L72.6718 64.2384L67.999 61.7219Z" fill="#FFCC00"/>
<path d="M67.9966 61.7227L72.0711 64.544L73.256 62.4334L67.9966 61.7227Z" fill="#FFCC00"/>
<path d="M69.7222 67.0306L71.3603 62.353L73.5596 63.3641L69.7222 67.0306Z" fill="#FFCC00"/>
<path d="M69.7222 67.0335L73.6645 64.0301L72.0233 62.251L69.7222 67.0335Z" fill="#FFCC00"/>
<path d="M75.3056 67.0274L71.3633 64.024L73.0045 62.2449L75.3056 67.0274Z" fill="#FFCC00"/>
<path d="M75.3036 67.024L73.6656 62.3464L71.4663 63.3575L75.3036 67.024Z" fill="#FFCC00"/>
<path d="M72.5101 58.4399L71.0859 63.1869L73.4595 63.6616L72.5101 58.4399Z" fill="#FFCC00"/>
<path d="M72.5093 58.4399L73.9335 63.1869L71.5601 63.6616L72.5093 58.4399Z" fill="#FFCC00"/>
<path d="M77.0203 61.7219L72.0654 61.8344L72.3474 64.2384L77.0203 61.7219Z" fill="#FFCC00"/>
<path d="M77.0233 61.7227L72.9486 64.544L71.7637 62.4334L77.0233 61.7227Z" fill="#FFCC00"/>
<path d="M57.6919 71.2783L62.6466 71.3908L62.3647 73.7949L57.6919 71.2783Z" fill="#FFCC00"/>
<path d="M57.689 71.2786L61.7635 74.0998L62.9484 71.9891L57.689 71.2786Z" fill="#FFCC00"/>
<path d="M59.4146 76.5868L61.0527 71.9094L63.252 72.9204L59.4146 76.5868Z" fill="#FFCC00"/>
<path d="M59.4146 76.5899L63.3569 73.5865L61.7157 71.8074L59.4146 76.5899Z" fill="#FFCC00"/>
<path d="M64.998 76.5838L61.0557 73.5804L62.6969 71.8013L64.998 76.5838Z" fill="#FFCC00"/>
<path d="M64.9964 76.5803L63.3584 71.9028L61.1592 72.9138L64.9964 76.5803Z" fill="#FFCC00"/>
<path d="M62.2029 67.9956L60.7788 72.7427L63.1524 73.2174L62.2029 67.9956Z" fill="#FFCC00"/>
<path d="M62.2019 67.9956L63.6258 72.7427L61.2524 73.2174L62.2019 67.9956Z" fill="#FFCC00"/>
<path d="M66.7132 71.2783L61.7583 71.3908L62.0404 73.7949L66.7132 71.2783Z" fill="#FFCC00"/>
<path d="M66.7162 71.2786L62.6415 74.0998L61.4565 71.9891L66.7162 71.2786Z" fill="#FFCC00"/>
</g>
</g>
<defs>
<clipPath id="clip0_12883_3077">
<rect width="128.17" height="96.1277" fill="white" transform="translate(-16.022)"/>
</clipPath>
</defs>
</svg>
