<?xml version="1.0" encoding="UTF-8"?>
<svg version="1.1" xmlns="http://www.w3.org/2000/svg" width="512" height="512">
<path d="M0 0 C1.52268997 0.00031723 1.52268997 0.00031723 3.07614136 0.00064087 C19.30228792 0.03433058 34.8349224 0.98575471 50.75 4.375 C51.67377441 4.56223633 52.59754883 4.74947266 53.54931641 4.94238281 C73.46641643 9.03537338 92.41076102 15.64526724 110.75 24.375 C111.42337402 24.69049805 112.09674805 25.00599609 112.79052734 25.33105469 C128.4396354 32.69578977 143.22437968 41.57772369 156.75 52.375 C158.14798828 53.48488281 158.14798828 53.48488281 159.57421875 54.6171875 C174.98662963 67.04169725 189.63250233 80.67630878 201.75 96.375 C202.54664063 97.36628906 203.34328125 98.35757813 204.1640625 99.37890625 C218.52148936 117.37388317 230.2132511 138.01808061 238.75 159.375 C239.0397168 160.09204102 239.32943359 160.80908203 239.62792969 161.54785156 C249.98582615 187.47083126 256.807055 216.05766681 256.953125 244.0703125 C256.96013931 244.97231384 256.96715363 245.87431519 256.97438049 246.8036499 C256.99180639 249.70248451 256.99823374 252.60111492 257 255.5 C257.00101212 256.98430511 257.00101212 256.98430511 257.00204468 258.49859619 C256.98632676 272.98581306 256.63379776 287.13020035 253.75 301.375 C253.56775879 302.2928125 253.38551758 303.210625 253.19775391 304.15625 C251.88622443 310.6076164 250.38864963 316.99929877 248.75 323.375 C248.55680176 324.12974609 248.36360352 324.88449219 248.16455078 325.66210938 C243.52381271 343.39364605 236.35183144 360.22335968 227.75 376.375 C227.36585938 377.10460937 226.98171875 377.83421875 226.5859375 378.5859375 C221.02270464 389.1022422 214.96262951 398.91576895 207.75 408.375 C207.31574707 408.9520166 206.88149414 409.5290332 206.43408203 410.12353516 C199.71042743 419.03354437 192.486608 427.33420961 184.75 435.375 C184.19940918 435.95282227 183.64881836 436.53064453 183.08154297 437.12597656 C175.3978175 445.15846376 167.44049405 452.41656891 158.52099609 459.05273438 C156.74651866 460.37759925 154.99190255 461.72581787 153.23828125 463.078125 C131.48779784 479.66702399 106.87526438 492.26232568 80.75 500.375 C79.95062012 500.62588379 79.15124023 500.87676758 78.32763672 501.13525391 C65.31087991 505.17012453 52.20921816 508.23655329 38.75 510.375 C37.698125 510.55305176 36.64625 510.73110352 35.5625 510.91455078 C24.21543806 512.65869396 12.95962837 512.77202721 1.5 512.75 C0.48487335 512.74978851 -0.5302533 512.74957703 -1.57614136 512.74935913 C-17.80228792 512.71566942 -33.3349224 511.76424529 -49.25 508.375 C-50.17377441 508.18776367 -51.09754883 508.00052734 -52.04931641 507.80761719 C-71.96641643 503.71462662 -90.91076102 497.10473276 -109.25 488.375 C-110.26006104 487.90175293 -110.26006104 487.90175293 -111.29052734 487.41894531 C-126.9396354 480.05421023 -141.72437968 471.17227631 -155.25 460.375 C-156.18199219 459.63507813 -157.11398438 458.89515625 -158.07421875 458.1328125 C-173.48662963 445.70830275 -188.13250233 432.07369122 -200.25 416.375 C-201.04664063 415.38371094 -201.84328125 414.39242188 -202.6640625 413.37109375 C-217.02148936 395.37611683 -228.7132511 374.73191939 -237.25 353.375 C-237.5397168 352.65795898 -237.82943359 351.94091797 -238.12792969 351.20214844 C-248.48582615 325.27916874 -255.307055 296.69233319 -255.453125 268.6796875 C-255.46013931 267.77768616 -255.46715363 266.87568481 -255.47438049 265.9463501 C-255.49180639 263.04751549 -255.49823374 260.14888508 -255.5 257.25 C-255.50067474 256.26046326 -255.50134949 255.27092651 -255.50204468 254.25140381 C-255.48632676 239.76418694 -255.13379776 225.61979965 -252.25 211.375 C-251.97663818 209.99828125 -251.97663818 209.99828125 -251.69775391 208.59375 C-250.38622443 202.1423836 -248.88864963 195.75070123 -247.25 189.375 C-247.05680176 188.62025391 -246.86360352 187.86550781 -246.66455078 187.08789062 C-242.02278625 169.35243201 -234.84215001 152.53494124 -226.25 136.375 C-225.68974121 135.30451416 -225.68974121 135.30451416 -225.11816406 134.21240234 C-216.32987307 117.48830654 -205.75358756 102.51528244 -193.25 88.375 C-192.53714844 87.55128906 -191.82429688 86.72757812 -191.08984375 85.87890625 C-180.70325583 74.05566878 -169.65678823 63.05906886 -157.00488281 53.68115234 C-155.23583594 52.36445774 -153.48843858 51.02251565 -151.7421875 49.67578125 C-129.04367147 32.35868572 -103.46396072 19.86621073 -76.25 11.375 C-75.50089355 11.14087402 -74.75178711 10.90674805 -73.97998047 10.66552734 C-61.93694214 6.97232892 -49.67958169 4.38689778 -37.25 2.375 C-36.19377441 2.19549805 -35.13754883 2.01599609 -34.04931641 1.83105469 C-22.70758479 0.0885707 -11.45407199 -0.02201653 0 0 Z " fill="#F2F3F4" transform="translate(255.25,-0.375)"/>
<path d="M0 0 C0 159.72 0 319.44 0 484 C-3.461435 483.307713 -5.94428021 482.74417533 -9.08203125 481.43359375 C-9.84080566 481.11729004 -10.59958008 480.80098633 -11.38134766 480.47509766 C-12.18362793 480.13269043 -12.9859082 479.7902832 -13.8125 479.4375 C-14.65345215 479.07962402 -15.4944043 478.72174805 -16.36083984 478.35302734 C-55.29060575 461.58701045 -90.97238708 435.71978849 -117 402 C-117.79664063 401.00871094 -118.59328125 400.01742188 -119.4140625 398.99609375 C-133.77148936 381.00111683 -145.4632511 360.35691939 -154 339 C-154.2897168 338.28295898 -154.57943359 337.56591797 -154.87792969 336.82714844 C-165.23582615 310.90416874 -172.057055 282.31733319 -172.203125 254.3046875 C-172.21013931 253.40268616 -172.21715363 252.50068481 -172.22438049 251.5713501 C-172.24180639 248.67251549 -172.24823374 245.77388508 -172.25 242.875 C-172.25067474 241.88546326 -172.25134949 240.89592651 -172.25204468 239.87640381 C-172.23632676 225.38918694 -171.88379776 211.24479965 -169 197 C-168.72663818 195.62328125 -168.72663818 195.62328125 -168.44775391 194.21875 C-167.13622443 187.7673836 -165.63864963 181.37570123 -164 175 C-163.80680176 174.24525391 -163.61360352 173.49050781 -163.41455078 172.71289062 C-158.77278625 154.97743201 -151.59215001 138.15994124 -143 122 C-142.43974121 120.92951416 -142.43974121 120.92951416 -141.86816406 119.83740234 C-133.07987307 103.11330654 -122.50358756 88.14028244 -110 74 C-109.28714844 73.17628906 -108.57429688 72.35257812 -107.83984375 71.50390625 C-97.45325583 59.68066878 -86.40678823 48.68406886 -73.75488281 39.30615234 C-71.98583594 37.98945774 -70.23843858 36.64751565 -68.4921875 35.30078125 C-51.54848322 22.37413242 -22.02328078 0 0 0 Z " fill="#3757A6" transform="translate(172,14)"/>
<path d="M0 0 C5.68905138 1.89635046 11.11697769 3.76820232 16.5625 6.1875 C17.24521973 6.49010742 17.92793945 6.79271484 18.63134766 7.10449219 C37.28113046 15.45692757 54.98744842 25.21744809 71 38 C72.39798828 39.10988281 72.39798828 39.10988281 73.82421875 40.2421875 C89.23662963 52.66669725 103.88250233 66.30130878 116 82 C116.79664063 82.99128906 117.59328125 83.98257813 118.4140625 85.00390625 C132.77148936 102.99888317 144.4632511 123.64308061 153 145 C153.2897168 145.71704102 153.57943359 146.43408203 153.87792969 147.17285156 C164.23582615 173.09583126 171.057055 201.68266681 171.203125 229.6953125 C171.21013931 230.59731384 171.21715363 231.49931519 171.22438049 232.4286499 C171.24180639 235.32748451 171.24823374 238.22611492 171.25 241.125 C171.25067474 242.11453674 171.25134949 243.10407349 171.25204468 244.12359619 C171.23632676 258.61081306 170.88379776 272.75520035 168 287 C167.81775879 287.9178125 167.63551758 288.835625 167.44775391 289.78125 C166.13622443 296.2326164 164.63864963 302.62429877 163 309 C162.80680176 309.75474609 162.61360352 310.50949219 162.41455078 311.28710938 C157.77381271 329.01864605 150.60183144 345.84835968 142 362 C141.61585938 362.72960937 141.23171875 363.45921875 140.8359375 364.2109375 C135.27270464 374.7272422 129.21262951 384.54076895 122 394 C121.34862061 394.8655249 121.34862061 394.8655249 120.68408203 395.74853516 C113.96042743 404.65854437 106.736608 412.95920961 99 421 C98.44940918 421.57782227 97.89881836 422.15564453 97.33154297 422.75097656 C89.6478175 430.78346376 81.69049405 438.04156891 72.77099609 444.67773438 C70.99651866 446.00259925 69.24190255 447.35081787 67.48828125 448.703125 C21.20889317 484 21.20889317 484 0 484 C0 324.28 0 164.56 0 0 Z " fill="#E61E25" transform="translate(341,14)"/>
<path d="M0 0 C0.33 0 0.66 0 1 0 C1.00142502 1.04775101 1.00285004 2.09550201 1.00431824 3.17500305 C1.02111221 13.13212156 1.06425911 23.08883787 1.13209057 33.04574299 C1.16613267 38.16263301 1.19143467 43.27923169 1.19555664 48.39624023 C1.19988904 53.35027951 1.22875334 58.30366409 1.27343178 63.25749779 C1.28625097 65.13132069 1.290771 67.00522257 1.28615379 68.87908363 C1.2628334 81.23712037 2.80574277 92.05892963 6.39374447 103.88729572 C8.15698578 110.03191176 9.28665239 116.35282087 10.5 122.625 C10.64585541 123.37480133 10.79171082 124.12460266 10.94198608 124.89712524 C14.6449798 144.13171001 17.08111612 163.51287321 19 183 C19.06896484 183.69879272 19.13792969 184.39758545 19.20898438 185.11755371 C25.34618147 248.67861331 24.64760231 322.61754341 5.0007019 384.12863159 C1.65985516 395.02908674 1.39566588 405.37590035 1.390625 416.71484375 C1.37560916 418.66640064 1.35887501 420.61794498 1.34051514 422.56947327 C1.2972111 427.65413057 1.27692538 432.73861659 1.26177979 437.82342529 C1.24207408 443.03277564 1.20012015 448.24194453 1.16015625 453.45117188 C1.08525537 463.63405809 1.03472235 473.81690293 1 484 C0.67 484 0.34 484 0 484 C0 324.28 0 164.56 0 0 Z " fill="#EE5251" transform="translate(341,14)"/>
<path d="M0 0 C0.33 0 0.66 0 1 0 C1 26.73 1 53.46 1 81 C-14.32559385 86.74709769 -29.8846716 90.29135017 -46 93 C-46.71349609 93.12004395 -47.42699219 93.24008789 -48.16210938 93.36376953 C-57.18609797 94.83488137 -65.87213094 95.25316124 -75 95 C-71.74312741 93.26561725 -68.41060131 92.04897471 -64.9375 90.8125 C-42.0514793 82.03184553 -27.78390868 63.13825916 -17 42 C-16.48010498 40.98099609 -16.48010498 40.98099609 -15.94970703 39.94140625 C-9.47598271 27.07301672 -4.49224999 13.67301332 0 0 Z " fill="#E4E4E4" transform="translate(340,417)"/>
<path d="M0 0 C24.54726601 -1.63345948 51.93645796 4.65786777 75 13 C76.73141493 14.73141493 76.11977579 16.95750044 76.12442017 19.26478577 C76.11902725 20.39550758 76.11902725 20.39550758 76.11352539 21.54907227 C76.11367142 22.33925751 76.11381744 23.12944275 76.1139679 23.943573 C76.11326857 26.56787822 76.10547527 29.19211336 76.09765625 31.81640625 C76.09579214 33.63101665 76.0943682 35.44562756 76.09336853 37.26023865 C76.08954279 42.0459023 76.07971204 46.8315358 76.06866455 51.6171875 C76.05845163 56.49674064 76.05387117 61.37629864 76.04882812 66.25585938 C76.03808982 75.83725286 76.02101273 85.41862393 76 95 C73.77722249 91.66583374 72.68493235 88.32534502 71.4375 84.5625 C64.57304213 64.55812719 55.52340685 44.38666889 42 28 C41.16726563 26.9790625 40.33453125 25.958125 39.4765625 24.90625 C30.4714202 14.26396113 19.90902784 7.55314061 6.7421875 2.97265625 C4.37165661 2.13182692 2.21523096 1.18180982 0 0 Z " fill="#E4E4E4" transform="translate(265,0)"/>
</svg>
