<svg width="63" height="63" viewBox="0 0 63 63" fill="none" xmlns="http://www.w3.org/2000/svg">
<g clip-path="url(#clip0_12589_5240)">
<path d="M0 31.9084H62.7706V64.863H0V31.9084Z" fill="#00AB39"/>
<path d="M0 -1.04614H62.7706V31.9084H0V-1.04614Z" fill="white"/>
<path d="M41.0869 15.3147C37.202 17.4054 33.5296 19.869 30.1217 22.6707C28.4543 24.132 28.9251 25.2894 28.8564 26.5938C28.9153 27.4765 28.6701 28.3004 28.1307 28.7908L24.4233 29.5362L24.0702 28.5162C24.1781 27.9865 24.6096 27.7315 25.5316 28.0552C25.6002 27.3883 25.051 27.1136 24.4233 26.8782C24.1977 26.7017 23.9329 26.584 23.9623 25.9955C23.8642 24.6715 25.9827 26.0936 26.0023 26.0936C26.022 26.0936 25.9239 24.7499 24.9529 24.4851C24.4233 24.2988 24.1977 23.7397 24.4037 23.3278C24.8254 22.4745 25.6296 23.3866 26.2377 23.4259C26.2181 22.8668 26.0612 22.4745 25.5806 22.0331C25.3256 21.8664 24.6979 21.7487 24.6783 21.4839C24.6685 21.1308 25.2668 20.9739 26.1004 21.072C25.9239 20.5718 25.3648 20.2481 24.5998 20.0127L24.1486 19.2183C23.9329 18.826 23.8348 18.8063 24.335 18.0609C24.7764 17.7667 25.3746 17.3548 25.8258 17.0703L25.3354 17.0115C25.3943 16.4721 25.4041 16.2857 25.5316 15.3932C25.0412 16.0503 24.4527 15.9326 23.9035 16.1974C23.9035 16.1974 22.3734 16.4721 21.8732 17.1292L18.0089 16.933C17.185 17.0409 16.4887 17.2763 16.3514 18.0708C14.4781 18.2669 12.5165 18.1002 11.0845 19.8852C12.0653 19.846 12.9088 19.6106 14.0073 19.7479C14.0073 19.7479 14.939 19.7675 15.1254 20.7581C15.145 20.7973 15.449 20.7973 15.449 20.7973L15.8021 21.072L15.9394 20.6993L16.2533 20.915L16.3514 20.5031L16.6652 20.7189L16.6848 20.2285L17.0968 20.5227V19.8656C17.0968 19.8656 18.6268 19.8656 19.0976 20.8464C19.1172 20.8562 14.8115 21.631 10.653 21.2681L11.8495 20.6797C10.3391 20.3658 8.90717 20.0912 7.57326 19.0417C8.07349 20.9445 10.6824 23.1709 11.2218 23.1611L10.7118 22.2391L15.2235 22.4353C15.3902 22.9355 15.3215 23.4945 15.7139 23.9359C15.7139 23.9359 15.4687 24.7597 16.0277 25.0932C16.0473 25.1324 16.6848 23.4259 16.6848 23.4259C16.6848 23.4259 16.881 23.8868 17.0771 24.1909C17.3714 22.7197 18.9799 22.4745 18.9799 22.4745L19.3134 23.2591C18.8131 23.3376 18.1854 24.3576 18.5287 24.9265C18.1854 24.9265 17.5872 25.9171 17.7735 26.4565C17.4891 26.7409 16.7927 27.1136 16.9595 28.3004C16.4102 28.4181 16.0767 29.4283 16.2533 30.5072C15.3902 31.3016 15.606 32.763 16.371 33.3613C16.0571 33.6555 15.861 33.8615 15.861 34.2146C15.5569 34.1067 15.2725 34.1949 15.145 34.3911C14.7723 34.0086 14.2427 33.6849 13.87 34.038C13.7719 33.5869 13.1834 33.0965 12.5459 33.1553C12.5721 32.8729 12.498 32.5903 12.3366 32.3571C12.1751 32.124 11.9367 31.9551 11.6632 31.8803C11.6632 31.8803 11.5161 29.6637 10.8491 28.9379C10.7805 28.5456 10.8884 28.271 11.4376 27.9375C11.9967 27.6433 12.1144 27.4177 12.0653 26.5742C12.2909 26.0152 12.4576 25.4463 11.7711 25.0638C11.7907 25.7307 11.5945 26.0446 11.3199 26.3388C10.9963 26.2996 10.8884 26.6723 10.6726 26.8292C10.3685 26.4271 11.3101 25.7896 10.6137 24.8774C10.5745 24.8382 10.1233 23.7005 9.01505 23.7201C9.53487 24.0241 9.76045 24.544 9.76045 25.0834C9.35166 25.9873 9.28881 27.0099 9.58391 27.9571C9.12294 27.2706 8.85813 25.9563 8.47562 25.7307C8.14215 25.6621 7.98522 24.8774 6.68074 25.103C7.23979 25.2501 7.42614 25.6817 7.56345 26.0642C7.22998 26.2407 7.39672 26.7115 7.65172 27.0352C7.60268 27.7904 8.05388 28.2317 8.73062 28.5064L8.39716 31.6155C8.13234 31.586 7.71057 32.6355 7.55364 32.6649C7.28883 32.8316 6.82786 33.273 7.35749 33.4005C7.20056 33.9596 7.05344 34.3028 6.20996 34.4205C6.20996 34.4205 7.09267 34.9502 7.83807 34.0478C8.62274 34.0282 8.36773 33.0867 8.75024 32.6747C8.75024 32.6453 8.97582 32.508 9.28967 31.6743C9.42699 32.4197 10.192 34.6951 11.9084 35.8231C13.409 37.4316 14.6546 38.9518 14.635 41.0899C15.2112 40.4562 15.6251 39.6922 15.8414 38.8635C16.8199 38.5699 17.8423 38.4504 18.8622 38.5104C18.6856 38.8929 18.4797 39.2558 18.7347 39.4912C18.0089 39.7462 17.852 40.2758 18.1462 40.7957C17.3812 41.3155 17.3322 41.649 17.3223 42.512C15.9002 44.3265 15.0273 44.2677 13.6248 43.7871C13.1736 43.5223 12.4478 43.1398 12.1242 43.3457C11.5259 42.9338 10.653 42.8749 10.5059 43.7969C10.9668 43.4144 11.2316 43.4928 11.5945 43.8557C11.5259 44.0421 11.467 44.2186 11.7318 44.3265L11.3788 44.7188C10.7314 44.6207 9.84873 44.6207 9.62314 45.5721C9.95661 45.2877 10.702 45.2288 11.2905 45.4936L11.6338 45.6113L11.673 46.0625C11.673 46.0625 10.7903 45.9252 10.5549 47.367C11.3788 46.4842 11.9672 46.7098 11.9672 46.7098C12.2909 47.1806 13.4678 47.112 14.3211 46.3371C15.5079 45.6702 15.861 46.6314 16.626 46.0037C17.2635 45.5329 18.0187 45.8467 18.5385 46.396C19.1368 46.6216 19.7645 46.8079 20.2549 46.396C20.2549 46.396 20.863 46.0135 21.4613 46.6314C21.4613 45.9448 20.9709 45.5623 20.304 45.5525L20.1078 45.3563C19.4703 45.219 18.7641 45.2779 18.2051 44.964C18.4219 43.9738 18.8993 43.0596 19.588 42.3159C20.5001 41.3351 21.1769 40.8839 22.3342 39.3833C22.2851 40.2366 22.9325 41.1782 23.2757 42.0315C23.2757 42.0315 23.9623 40.9428 24.0604 40.0405C24.0898 40.0405 24.9333 39.6089 25.2864 39.2264C26.0514 39.707 27.2872 38.8537 28.0914 38.1475C28.5818 38.3437 28.9643 38.3241 29.5332 38.1475C29.0722 39.0891 29.798 39.962 30.9553 40.3249C31.0534 41.1488 31.8969 41.3253 33.1621 41.3253C33.221 41.8157 33.9762 41.8843 33.9762 41.8843C33.4858 42.1001 33.2504 42.3257 33.2602 42.8259C32.7698 42.8259 32.4069 42.9534 32.2794 43.5125C31.6027 43.5321 30.9161 43.5811 30.3374 43.9048C29.7195 43.8165 28.9643 43.5615 28.4837 43.0613C28.2385 42.8553 28.1699 42.5513 27.7383 42.4336C27.4637 42.1099 27.1303 42.1786 27.0224 42.4924C26.7379 42.2669 25.6689 42.1688 25.4825 43.179C25.9925 42.8161 26.4339 42.6788 26.7576 43.1299C26.581 43.434 27.1695 43.6203 27.6795 43.738C28.0424 43.7577 28.6799 44.0911 28.8761 44.6404C28.601 44.72 28.3118 44.7384 28.0288 44.6943C27.7459 44.6503 27.476 44.5448 27.2381 44.3854C27.0617 44.2382 26.8428 44.1512 26.6135 44.1371C26.3841 44.123 26.1563 44.1825 25.9631 44.3069C25.5316 44.0323 24.5213 44.5521 24.4821 45.376C24.9039 44.9836 25.2962 44.7875 25.6885 45.0425C25.4923 45.0817 25.561 45.1013 25.5904 45.219L26.5712 45.7879C26.0808 45.9154 25.6296 46.1115 25.8454 47.0139C25.8454 47.0139 26.2377 46.2292 27.1204 46.5235C27.1401 46.4941 27.2479 46.7981 27.503 46.5921C27.8855 46.1606 28.7584 45.9644 29.5332 45.886C30.1511 45.8173 30.769 45.631 31.2986 45.984C31.789 45.7388 32.3186 45.5721 32.8679 45.9644C33.5152 46.1606 33.986 46.9256 34.8 46.5823C35.212 46.2881 35.7122 46.2881 36.2222 46.857C36.2222 46.1312 35.6827 45.886 34.9177 45.729L34.3881 45.4152C33.8977 45.3367 33.4073 45.425 32.9071 45.1896C34.0798 44.9083 35.1845 44.3956 36.1564 43.6815C37.1282 42.9673 37.9475 42.0662 38.5663 41.0311L39.7923 41.4626C40.0865 41.4822 40.1061 41.5803 40.7044 41.7568C40.724 40.8839 40.3415 39.9816 38.7624 39.8933L36.7028 39.1087C36.2516 38.6379 36.0554 37.6473 36.6145 37.0687C37.1637 36.5783 37.2618 36.6371 37.6247 36.0388C38.0661 35.9996 38.478 36.4508 38.8801 36.4508C39.0763 37.0294 40.1944 37.5296 40.9006 37.3629C41.3419 37.7552 42.1756 37.971 43.1073 37.6571C43.3728 37.9048 43.7074 38.0657 44.0666 38.1183C44.4259 38.1708 44.7926 38.1126 45.118 37.9514C45.3337 38.1671 45.7849 38.3437 46.2949 38.226C46.3439 38.226 46.5695 38.7949 47.1286 39.0008C46.8834 39.2362 47.0305 40.2758 47.2953 40.6584C47.1056 41.0464 47.074 41.493 47.207 41.904C46.6382 42.2669 46.5205 42.5415 46.7755 43.1594C46.0301 44.3657 45.1376 44.5031 44.2941 44.1402L43.382 43.5517L42.4208 42.6101C42.254 42.4532 41.9108 42.414 41.8421 42.7474C41.8421 42.7474 40.6063 42.4728 40.4984 43.5223C41.0182 43.0221 41.744 43.4634 41.744 43.483C41.744 43.5026 41.5675 43.6203 41.7048 43.8165C41.7342 43.7871 42.6169 44.1402 43.3918 44.4736C43.8135 44.6404 43.9116 44.6894 44.0979 44.7875C43.8637 44.6801 43.6283 44.5755 43.3918 44.4736C43.0514 44.3167 42.6863 44.2204 42.3129 44.1892C41.8813 44.15 41.4106 44.0911 41.1948 44.4246C40.724 44.6207 39.9786 44.7875 40.0178 45.6702C40.3317 45.1406 40.7731 45.17 41.3321 45.219L41.2929 45.3367C41.901 45.6113 41.7833 45.2583 42.3521 45.2092C42.8628 45.2015 43.371 45.2845 43.8527 45.4544C43.4114 45.5819 42.8033 45.5231 42.5189 45.8467C42.46 45.9448 42.2737 45.9056 42.3619 46.1606C42.3619 46.1606 41.4792 46.141 41.2536 47.3375C42.1363 46.7785 42.8131 46.7981 42.8229 46.7981L43.1073 46.857L44.1862 46.141C44.2156 46.141 45.2258 45.6898 45.6868 46.1998C46.0987 46.396 46.5303 46.4156 46.9618 46.1606C47.7857 45.7977 48.5605 45.7683 49.3157 46.2783L50.0121 46.6902L50.3063 46.4941C50.3063 46.4941 51.091 46.2783 51.6598 46.9746C51.4244 45.7683 50.5613 45.729 50.5613 45.729L50.3652 45.5525L49.149 45.0719C48.9627 44.6306 48.5213 44.2873 48.9627 43.7577C49.4236 41.492 49.9631 39.7953 49.0803 37.5002C49.9042 37.8533 50.5221 38.9518 51.5519 38.5693C51.5519 37.6473 48.1584 35.8917 45.5691 34.4892C49.8257 34.2636 54.9259 31.1349 52.9643 27.1529L53.8862 24.2693C54.3276 25.1521 55.2103 25.819 56.0047 26.1034C55.3476 24.8578 54.9749 21.0425 55.3476 18.414C53.6125 20.4968 51.7417 22.4627 49.7473 24.2988C50.7281 24.5342 51.601 24.3674 52.5523 24.2497L51.7481 25.9171C49.1392 24.3772 46.0791 25.5248 46.0595 27.5648C46.1478 29.9383 49.0803 30.2816 50.7771 29.4479C50.4436 31.6155 45.4612 30.821 45.4612 30.821C43.6958 30.2129 42.0187 30.311 40.165 30.3306C40.5475 29.1439 42.6856 28.0846 44.3235 28.5554C42.0383 25.9857 44.6472 22.7982 47.7955 21.8272C44.3627 20.6895 47.3149 18.0707 49.8846 16.1974C49.8846 16.1974 42.4992 19.3065 41.8225 19.2967C39.7236 19.1398 40.2925 16.6486 41.0967 15.3147H41.0869ZM17.901 18.2963C18.0776 18.2963 18.2737 18.3159 18.4404 18.3552C18.7739 18.4434 19.176 18.4827 19.176 18.5906C19.0191 18.8456 18.6366 19.1496 18.2639 19.1398C17.8912 19.1202 17.6754 18.8946 17.5577 18.3356C17.597 18.3159 17.7343 18.2963 17.901 18.2963ZM48.9921 27.0646C49.4825 27.0646 50.0611 27.2608 50.6202 27.8688C50.3554 28.6535 47.9917 29.0458 47.8347 27.8885C47.7857 27.5354 48.2859 27.0744 48.9921 27.0646Z" fill="#D21034"/>
<path d="M43.3918 44.4736C42.6169 44.1402 41.7342 43.7871 41.7048 43.8165C41.5675 43.6203 41.744 43.5026 41.744 43.483C41.744 43.4634 41.0182 43.0221 40.4984 43.5223C40.6063 42.4728 41.8421 42.7474 41.8421 42.7474C41.9108 42.414 42.254 42.4532 42.4208 42.6101L43.382 43.5517L44.2941 44.1402C45.1376 44.5031 46.0301 44.3657 46.7755 43.1594C46.5205 42.5415 46.6382 42.2669 47.207 41.904C47.074 41.493 47.1056 41.0464 47.2953 40.6584C47.0305 40.2758 46.8834 39.2362 47.1286 39.0008C46.5695 38.7949 46.3439 38.226 46.2949 38.226C45.7849 38.3437 45.3337 38.1671 45.118 37.9514C44.7926 38.1126 44.4259 38.1708 44.0666 38.1183C43.7074 38.0657 43.3728 37.9048 43.1073 37.6571C42.1756 37.971 41.3419 37.7552 40.9006 37.3629C40.1944 37.5296 39.0763 37.0294 38.8801 36.4508C38.478 36.4508 38.0661 35.9996 37.6247 36.0388C37.2618 36.6371 37.1637 36.5783 36.6145 37.0687C36.0554 37.6473 36.2516 38.6379 36.7028 39.1087L38.7624 39.8933C40.3415 39.9816 40.724 40.8839 40.7044 41.7568C40.1061 41.5803 40.0865 41.4822 39.7923 41.4626L38.5663 41.0311C37.9475 42.0662 37.1282 42.9673 36.1564 43.6815C35.1845 44.3956 34.0798 44.9083 32.9071 45.1896C33.4073 45.425 33.8977 45.3367 34.3881 45.4152L34.9177 45.729C35.6827 45.886 36.2222 46.1312 36.2222 46.857C35.7122 46.2881 35.212 46.2881 34.8 46.5823C33.986 46.9256 33.5152 46.1606 32.8679 45.9644C32.3186 45.5721 31.789 45.7388 31.2986 45.984C30.769 45.631 30.1511 45.8173 29.5332 45.886C28.7584 45.9644 27.8855 46.1606 27.503 46.5921C27.2479 46.7981 27.1401 46.4941 27.1204 46.5235C26.2377 46.2292 25.8454 47.0139 25.8454 47.0139C25.6296 46.1115 26.0808 45.9154 26.5712 45.7879L25.5904 45.219C25.561 45.1013 25.4923 45.0817 25.6885 45.0425C25.2962 44.7875 24.9039 44.9836 24.4821 45.376C24.5213 44.5521 25.5316 44.0323 25.9631 44.3069C26.1563 44.1825 26.3841 44.123 26.6135 44.1371C26.8428 44.1512 27.0617 44.2382 27.2381 44.3854C27.476 44.5448 27.7459 44.6503 28.0288 44.6943C28.3118 44.7384 28.601 44.72 28.8761 44.6404C28.6799 44.0911 28.0424 43.7577 27.6795 43.738C27.1695 43.6203 26.581 43.434 26.7576 43.1299C26.4339 42.6788 25.9925 42.8161 25.4825 43.179C25.6689 42.1688 26.7379 42.2669 27.0224 42.4924C27.1303 42.1786 27.4637 42.1099 27.7383 42.4336C28.1699 42.5513 28.2385 42.8553 28.4837 43.0613C28.9643 43.5615 29.7195 43.8165 30.3374 43.9048C30.9161 43.5811 31.6027 43.5321 32.2794 43.5125C32.4069 42.9534 32.7698 42.8259 33.2602 42.8259C33.2504 42.3257 33.4858 42.1001 33.9762 41.8843C33.9762 41.8843 33.221 41.8157 33.1621 41.3253C31.8969 41.3253 31.0534 41.1487 30.9553 40.3249C29.798 39.962 29.0722 39.0891 29.5332 38.1475C28.9643 38.3241 28.5818 38.3437 28.0914 38.1475C27.2872 38.8537 26.0514 39.707 25.2864 39.2264C24.9333 39.6089 24.0898 40.0405 24.0604 40.0405C23.9623 40.9428 23.2757 42.0315 23.2757 42.0315C22.9325 41.1782 22.2851 40.2366 22.3342 39.3833C21.1769 40.8839 20.5001 41.3351 19.588 42.3159C18.8993 43.0596 18.4219 43.9738 18.2051 44.964C18.7641 45.2779 19.4703 45.219 20.1078 45.3563L20.304 45.5525C20.9709 45.5623 21.4613 45.9448 21.4613 46.6314C20.863 46.0135 20.2549 46.396 20.2549 46.396C19.7645 46.8079 19.1368 46.6216 18.5385 46.396C18.0187 45.8467 17.2635 45.5329 16.626 46.0037C15.861 46.6314 15.5079 45.6702 14.3211 46.3371C13.4678 47.112 12.2909 47.1806 11.9672 46.7098C11.9672 46.7098 11.3788 46.4842 10.5549 47.367C10.7903 45.9252 11.673 46.0625 11.673 46.0625L11.6338 45.6113L11.2905 45.4936C10.702 45.2288 9.95661 45.2877 9.62314 45.5721C9.84872 44.6207 10.7314 44.6207 11.3788 44.7188L11.7318 44.3265C11.467 44.2186 11.5259 44.0421 11.5945 43.8557C11.2316 43.4928 10.9668 43.4144 10.5059 43.7969C10.653 42.8749 11.5259 42.9338 12.1242 43.3457C12.4478 43.1398 13.1736 43.5223 13.6248 43.7871C15.0273 44.2677 15.9002 44.3265 17.3223 42.512C17.3322 41.649 17.3812 41.3155 18.1462 40.7957C17.852 40.2758 18.0089 39.7462 18.7347 39.4912C18.4797 39.2558 18.6856 38.8929 18.8622 38.5104C17.8423 38.4504 16.8199 38.5699 15.8414 38.8635C15.6251 39.6922 15.2112 40.4562 14.635 41.0899C14.6546 38.9518 13.409 37.4316 11.9084 35.8231C10.192 34.6951 9.42698 32.4197 9.28967 31.6743C8.97582 32.508 8.75024 32.6453 8.75024 32.6747C8.36773 33.0867 8.62274 34.0282 7.83807 34.0478C7.09267 34.9502 6.20996 34.4205 6.20996 34.4205C7.05344 34.3028 7.20056 33.9596 7.35749 33.4005C6.82786 33.273 7.28883 32.8316 7.55364 32.6649C7.71057 32.6355 8.13234 31.586 8.39716 31.6155L8.73062 28.5064C8.05388 28.2317 7.60268 27.7904 7.65172 27.0352C7.39672 26.7115 7.22998 26.2407 7.56345 26.0642C7.42614 25.6817 7.23979 25.2501 6.68074 25.103C7.98522 24.8774 8.14215 25.6621 8.47562 25.7307C8.85813 25.9563 9.12294 27.2706 9.58391 27.9571C9.28881 27.0099 9.35166 25.9873 9.76045 25.0834C9.76045 24.544 9.53487 24.0241 9.01505 23.7201C10.1233 23.7005 10.5745 24.8382 10.6137 24.8774C11.3101 25.7896 10.3685 26.4271 10.6726 26.8292C10.8884 26.6723 10.9963 26.2996 11.3199 26.3388C11.5945 26.0446 11.7907 25.7307 11.7711 25.0638C12.4576 25.4463 12.2909 26.0152 12.0653 26.5742C12.1144 27.4177 11.9967 27.6433 11.4376 27.9375C10.8884 28.271 10.7805 28.5456 10.8491 28.9379C11.5161 29.6637 11.6632 31.8803 11.6632 31.8803C11.9367 31.9551 12.1751 32.124 12.3366 32.3571C12.498 32.5903 12.5721 32.8729 12.5459 33.1553C13.1834 33.0965 13.7719 33.5869 13.87 34.038C14.2427 33.6849 14.7723 34.0086 15.145 34.3911C15.2725 34.1949 15.5569 34.1067 15.861 34.2146C15.861 33.8615 16.0571 33.6555 16.371 33.3613C15.606 32.763 15.3902 31.3016 16.2533 30.5072C16.0767 29.4283 16.4102 28.4181 16.9595 28.3004C16.7927 27.1136 17.4891 26.7409 17.7735 26.4565C17.5872 25.9171 18.1854 24.9265 18.5287 24.9265C18.1854 24.3576 18.8131 23.3376 19.3134 23.2591L18.9799 22.4745C18.9799 22.4745 17.3714 22.7197 17.0771 24.1909C16.881 23.8868 16.6848 23.4259 16.6848 23.4259C16.6848 23.4259 16.0473 25.1324 16.0277 25.0932C15.4687 24.7597 15.7139 23.9359 15.7139 23.9359C15.3215 23.4945 15.3902 22.9355 15.2235 22.4353L10.7118 22.2391L11.2218 23.1611C10.6824 23.1709 8.07349 20.9445 7.57326 19.0417C8.90717 20.0912 10.3391 20.3658 11.8495 20.6797L10.653 21.2681C14.8115 21.631 19.1172 20.8562 19.0976 20.8464C18.6268 19.8656 17.0968 19.8656 17.0968 19.8656V20.5227L16.6848 20.2285L16.6652 20.7189L16.3514 20.5031L16.2533 20.915L15.9394 20.6993L15.8021 21.072L15.449 20.7973C15.449 20.7973 15.145 20.7973 15.1254 20.7581C14.939 19.7675 14.0073 19.7479 14.0073 19.7479C12.9088 19.6106 12.0653 19.846 11.0845 19.8852C12.5165 18.1002 14.4781 18.2669 16.3514 18.0708C16.4887 17.2763 17.185 17.0409 18.0089 16.933L21.8732 17.1292C22.3734 16.4721 23.9035 16.1974 23.9035 16.1974C24.4527 15.9326 25.0412 16.0503 25.5316 15.3932C25.4041 16.2857 25.3943 16.4721 25.3354 17.0115L25.8258 17.0703C25.3746 17.3548 24.7764 17.7667 24.335 18.0609C23.8348 18.8063 23.9329 18.826 24.1486 19.2183L24.5998 20.0127C25.3648 20.2481 25.9239 20.5718 26.1004 21.072C25.2668 20.9739 24.6685 21.1308 24.6783 21.4839C24.6979 21.7487 25.3256 21.8664 25.5806 22.0331C26.0612 22.4745 26.2181 22.8668 26.2377 23.4259C25.6296 23.3866 24.8254 22.4745 24.4037 23.3278C24.1977 23.7397 24.4233 24.2988 24.9529 24.4851C25.9239 24.7499 26.022 26.0936 26.0023 26.0936C25.9827 26.0936 23.8642 24.6715 23.9623 25.9955C23.9329 26.584 24.1977 26.7017 24.4233 26.8782C25.051 27.1136 25.6002 27.3883 25.5316 28.0552C24.6096 27.7315 24.1781 27.9865 24.0702 28.5162L24.4233 29.5362L28.1307 28.7908C28.6701 28.3004 28.9153 27.4765 28.8564 26.5938C28.9251 25.2894 28.4543 24.132 30.1217 22.6707C33.5296 19.869 37.202 17.4054 41.0869 15.3147H41.0967C40.2925 16.6486 39.7236 19.1398 41.8225 19.2967C42.4992 19.3065 49.8846 16.1974 49.8846 16.1974C47.3149 18.0707 44.3627 20.6895 47.7955 21.8272C44.6472 22.7982 42.0383 25.9857 44.3235 28.5554C42.6856 28.0846 40.5475 29.1439 40.165 30.3306C42.0187 30.311 43.6958 30.2129 45.4612 30.821C45.4612 30.821 50.4436 31.6155 50.7771 29.4479C49.0803 30.2816 46.1478 29.9383 46.0595 27.5648C46.0791 25.5248 49.1392 24.3772 51.7481 25.9171L52.5523 24.2497C51.601 24.3674 50.7281 24.5342 49.7473 24.2988C51.7417 22.4627 53.6125 20.4968 55.3476 18.414C54.9749 21.0425 55.3476 24.8578 56.0047 26.1034C55.2103 25.819 54.3276 25.1521 53.8862 24.2693L52.9643 27.1529C54.9259 31.1349 49.8257 34.2636 45.5691 34.4892C48.1584 35.8917 51.5519 37.6473 51.5519 38.5693C50.5221 38.9518 49.9042 37.8533 49.0803 37.5002C49.9631 39.7953 49.4236 41.492 48.9627 43.7577C48.5213 44.2873 48.9626 44.6306 49.149 45.0719L50.3652 45.5525L50.5613 45.729C50.5613 45.729 51.4244 45.7683 51.6598 46.9746C51.091 46.2783 50.3063 46.4941 50.3063 46.4941L50.0121 46.6902L49.3157 46.2783C48.5605 45.7683 47.7857 45.7977 46.9618 46.1606C46.5303 46.4156 46.0987 46.396 45.6868 46.1998C45.2258 45.6898 44.2156 46.141 44.1862 46.141L43.1073 46.857L42.8229 46.7981C42.8131 46.7981 42.1363 46.7785 41.2536 47.3375C41.4792 46.141 42.3619 46.1606 42.3619 46.1606C42.2737 45.9056 42.46 45.9448 42.5189 45.8467C42.8033 45.5231 43.4114 45.5819 43.8527 45.4544C43.371 45.2845 42.8628 45.2015 42.3521 45.2092C41.7833 45.2583 41.901 45.6113 41.2929 45.3367L41.3321 45.219C40.7731 45.17 40.3317 45.1406 40.0178 45.6702C39.9786 44.7875 40.724 44.6207 41.1948 44.4246C41.4106 44.0911 41.8813 44.15 42.3129 44.1892C42.6863 44.2204 43.0514 44.3167 43.3918 44.4736ZM43.3918 44.4736C43.8135 44.6404 43.9116 44.6894 44.0979 44.7875C43.8637 44.6801 43.6283 44.5755 43.3918 44.4736ZM17.901 18.2963C18.0776 18.2963 18.2737 18.3159 18.4404 18.3552C18.7739 18.4435 19.176 18.4827 19.176 18.5906C19.0191 18.8456 18.6366 19.1496 18.2639 19.1398C17.8912 19.1202 17.6754 18.8946 17.5577 18.3356C17.597 18.3159 17.7343 18.2963 17.901 18.2963ZM48.9921 27.0646C49.4825 27.0646 50.0611 27.2608 50.6202 27.8688C50.3554 28.6535 47.9917 29.0458 47.8347 27.8885C47.7857 27.5354 48.2859 27.0744 48.9921 27.0646Z" stroke="black" stroke-width="0.183081"/>
<path d="M20.343 25.1606L20.7059 25.6804M20.6863 25.6902C20.6863 25.6902 20.6863 26.3964 20.8334 26.4062M20.5097 26.7887L20.8824 27.4066M19.8526 27.5635C19.8722 27.5635 20.3136 28.0735 20.3136 28.0735M20.6961 27.6812C20.6961 27.7008 21.108 28.4756 21.1374 28.4756M20.1566 28.2206C20.1566 28.2206 20.294 29.1622 20.4215 29.1328M19.5387 29.9468L19.9507 30.5843M20.3136 29.2799C20.3136 29.2799 20.5392 30.1724 20.7157 30.0939M20.902 28.7404C20.9119 28.7601 21.3238 29.3387 21.4317 29.2603M21.3336 29.4858L21.7259 30.2705M20.6863 30.0939L21.0099 31.0159M19.9311 30.5647C19.9311 30.5647 20.2253 31.5553 20.4901 31.3984M19.8232 31.8888C19.8232 31.8888 19.8428 32.4086 20.0978 32.438M20.2743 31.624C20.2743 31.6436 20.5391 31.9967 20.5391 31.9967M21.0295 31.0061L21.2355 31.3493M21.7161 30.3686L22.0398 30.7707M20.2057 25.7C20.2155 26.1414 20.9118 25.5431 21.1865 25.1704M19.9114 27.23C19.9114 27.23 20.6667 26.6906 21.2551 25.8765M19.6564 28.5149C20.1959 28.3677 21.1865 27.1712 21.3826 26.5337M19.5486 29.7016C19.6957 29.7703 21.5396 28.4266 21.5886 27.4556M19.4995 30.7314C19.4995 30.7216 21.1865 30.2999 21.8828 28.4462M19.421 32.134C19.421 32.134 22.1182 30.5157 22.2653 29.3289M40.4492 34.8508C40.4492 34.8508 40.2727 36.2435 38.8799 36.4593M40.8906 37.342C40.9004 37.3224 42.2244 35.8708 41.8811 35.4294M43.9506 35.9394C43.9506 35.9394 43.931 36.9497 43.1071 37.646M45.5983 36.2337C45.5983 36.2337 45.6278 37.4499 45.108 37.9403M47.1088 36.9595C47.1088 36.9595 46.5203 38.107 46.3143 38.2247M47.0891 38.9897C47.0891 38.9897 47.8542 39.1859 48.0994 38.6759M47.2853 40.6472C47.2853 40.6472 47.9915 40.7747 48.3249 40.098M47.2068 41.9321C47.2068 41.9321 47.7855 42.4225 48.1778 41.7752M38.9584 32.5165C38.9584 32.5165 38.8897 34.9979 42.3715 35.4981C46.2653 36.577 48.1092 36.0081 48.3348 40.3726C48.1876 42.04 47.9817 43.9035 46.7655 43.1875M35.251 34.8017C35.251 34.8017 35.8101 35.7923 36.477 35.7237C37.3597 35.4687 37.6834 36.0081 37.6834 36.0081M32.8775 35.7923C32.8775 35.7923 34.3487 36.5083 35.5943 35.351M33.0442 34.7625C33.1717 36.4789 31.0728 37.4597 30.2392 37.2929M33.1423 41.3142C33.1521 41.3142 34.28 40.6472 34.0544 40.1765M30.9061 40.3236C30.9355 40.2843 32.799 40.1078 33.1423 39.4409M30.043 37.5774C30.043 37.5774 32.6813 37.597 32.8579 38.0776M33.5444 36.0179C33.5444 36.0179 30.9748 40.4217 35.7218 40.4217M30.8178 35.9591C30.8178 35.9591 30.2686 37.597 29.484 38.156M28.0912 35.3902C28.0912 35.3902 29.0426 37.2341 28.0912 38.1462M25.6 35.91C25.6098 35.9394 25.9041 38.5287 25.2568 39.2643M24.3544 35.9885C24.3544 35.9885 24.4525 37.6362 23.9621 38.2247C23.4717 38.8132 24.0798 40.0293 24.0798 40.0293M18.146 40.814C18.146 40.814 18.4991 41.4319 18.9797 41.2161M18.7345 39.4703C18.7345 39.4703 19.5191 39.8136 19.7839 39.6861M19.5878 36.7045C19.5878 36.7045 18.4305 37.0281 18.8718 38.4012C19.5387 38.9407 20.1861 38.8524 20.1861 38.8524M17.3025 42.5206C17.2927 42.5206 17.4399 43.5994 18.1853 42.7854C18.7051 41.6869 20.343 38.6072 20.7255 37.5479M21.4905 37.0477C21.4905 37.0477 20.6961 36.4298 20.7255 37.2929C20.7059 37.8324 20.9707 37.9599 20.9707 37.9599C21.0001 38.3522 21.3434 38.9014 21.618 38.4012C21.7357 37.9108 21.5396 37.6951 21.5396 37.6951M22.0005 36.8124C21.2846 36.7731 20.8922 38.3522 22.2751 37.3616M22.7459 36.2827C22.7459 36.2827 22.5694 36.5279 22.285 36.2631C22.1378 36.0081 21.618 37.4401 22.5302 37.4891C22.6969 37.0674 23.1971 36.9497 23.1971 36.9497M23.6286 35.5962C23.6286 35.5962 23.2167 35.7923 23.0696 35.7629C22.5792 35.8708 22.6773 37.0183 23.2952 36.9497C23.5109 36.7045 23.7365 36.3612 23.7365 36.3612M19.7839 34.1054C19.7643 34.1054 18.1656 36.626 20.6765 37.2929M40.0961 30.3293C40.0961 30.3293 39.1153 31.1532 40.0275 32.4871C36.987 32.438 35.3687 33.8406 35.2412 34.7821C31.3769 34.5075 32.0831 35.6452 30.8276 36.0179C29.1505 34.6154 26.6887 35.4 26.8456 36.8025C25.7275 35.2235 24.0013 35.9885 23.7856 36.3808C23.5796 36.7731 23.6581 34.4388 23.6581 34.4388C23.6581 34.4388 22.5302 34.9488 21.7553 35.8708V33.919C20.8138 34.1152 19.9016 34.1152 18.9307 34.0956M16.3904 33.3796C16.3904 33.3796 17.7929 34.1642 19.5289 33.105M16.2825 30.5647C16.2825 30.5647 17.3614 31.5455 19.421 31.2317M16.9691 28.3187C16.9691 28.3187 17.2045 29.1131 19.5486 29.1622M17.7537 26.4748C17.7537 26.4748 18.6364 27.5537 19.833 27.387M18.5089 24.935C18.5089 24.935 18.8522 25.5235 20.1566 25.6215M19.2739 23.2186C19.2739 23.2186 19.9605 23.964 20.7451 23.8365M23.3442 17.1279C23.3442 17.1279 23.6483 16.8337 24.1583 16.9808M23.1284 18.7266C23.1284 18.7266 22.1869 18.6972 22.2457 18.3343C22.3242 17.9027 23.2461 17.5987 23.2461 17.5987C23.2461 17.5987 24.4721 16.814 24.6585 16.5394M19.1072 20.8549L20.3038 23.1401L20.8726 22.277L21.1669 22.8655L21.6573 22.0122L22.5007 22.5517L22.1869 21.5022L22.893 21.4532C22.893 21.4532 22.6969 20.953 22.0692 20.8451C22.2359 20.7176 22.8244 20.3253 22.8244 20.3253C22.8244 20.3253 22.4909 19.9329 21.9613 19.9231C22.1378 19.7368 22.3732 19.2856 22.3536 19.2856L21.8338 19.1679C21.8338 19.1679 23.0304 19.5602 23.9523 19.011M21.6769 17.1671C21.6867 17.1769 21.6082 17.6379 21.3532 17.9027M17.0672 18.4225C17.0672 18.4225 17.8027 18.2264 18.352 18.3343C18.9012 18.452 19.6368 18.6481 19.6368 18.6481C19.6368 18.6481 20.5195 18.5304 20.804 18.3245M15.2331 18.9129C15.2331 18.9129 15.135 19.266 15.0958 19.5014C15.0958 19.6681 14.5563 19.8937 14.5563 19.8937M15.5665 18.1871C15.5665 18.1871 16.0373 18.7756 16.0569 19.1189C16.0667 19.4524 15.7039 19.7074 15.7039 19.7074M10.692 22.1986L10.2016 21.4139L10.643 21.257M19.5191 33.1246C19.1268 32.6146 19.8134 24.8663 21.2551 22.8459C20.7549 26.4944 22.4321 30.2214 22.8538 30.2018M15.1056 20.6882C15.1056 20.6882 15.7725 20.9334 17.1358 19.8447M18.9895 22.4732L19.9703 22.483M49.4234 16.4021C49.4234 16.4021 33.0737 24.0327 32.8383 24.4446C35.5943 23.6011 47.3049 21.6493 47.5893 21.8161C46.9028 21.9828 32.6911 25.2488 32.0242 26.0335C35.5747 25.9158 42.9993 27.1712 44.1664 28.3874C41.636 27.8185 34.0937 26.7102 31.779 27.2006C33.466 27.6027 39.9392 31.7907 39.9392 32.4576C38.9584 31.5259 31.1807 28.3187 30.8767 28.6326C32.6617 29.7016 35.1824 33.6738 35.1824 34.6448C34.6625 33.8209 30.1607 28.9856 29.8959 29.2995C30.3765 29.9566 31.318 35.6648 30.8375 35.9296C30.8375 35.2431 29.0916 30.2411 28.9445 30.1037C28.5914 30.2018 26.365 36.1846 26.8064 36.7535C26.5122 34.7527 26.8554 30.5745 27.3949 30.7413C26.4141 30.8884 23.305 34.9979 23.6384 35.6452C23.7365 34.6154 23.8738 33.9386 25.6393 30.5353C23.6777 30.653 19.6368 33.1932 18.9503 34.1054C19.4995 32.4871 22.9225 29.7507 24.4231 29.5545M31.4848 23.6011C33.211 22.6399 38.5465 20.6882 42.1165 19.2464M28.1305 28.7601C28.1305 28.7601 29.3074 28.7404 30.4844 25.5431C31.6417 21.1687 40.8513 16.2942 41.0377 15.3821M12.5555 33.1638C12.5555 33.1638 12.2809 33.7523 11.9474 33.9092M13.8796 34.0465C13.8796 34.0465 13.5167 34.7527 13.4284 35.0862M15.1448 34.3996C15.1448 34.3996 15.439 35.3608 15.1938 35.8119M11.6238 31.879C10.7018 32.3988 12.1534 35.7041 16.5375 36.0179M15.8314 34.2329C15.8314 34.2329 15.7137 34.8213 16.5375 35.9983C16.3021 37.3126 17.5379 38.3424 18.0283 38.5091M15.4783 22.4045L15.6156 22.0515L15.7627 22.4438L16.0079 22.434L16.1648 22.0416L16.3021 22.434H16.5375L16.6846 22.0024L16.9102 22.4143H17.1064L17.2535 21.924L17.5477 22.277L17.6654 22.2378L17.7635 21.7278L18.0676 22.0809L18.1656 22.0318L18.3029 21.5414L18.5481 21.9043L18.6756 21.8651L18.7933 21.4434L19.0287 21.8357M15.2037 22.4438L17.0475 22.4143C17.636 22.4143 18.5972 21.6003 19.6662 21.8553M11.3393 26.3669C11.3393 26.3669 11.6434 27.0339 12.0651 26.6612M10.6332 26.8083C10.6332 26.8083 10.0447 28.3972 10.7509 28.7699M9.78969 25.0625C9.78969 25.0625 9.78969 25.4352 10.5743 24.8663M7.38672 33.3698C7.38672 33.3698 8.00465 33.5659 7.90657 34.0269M7.6123 26.1021C7.6123 26.1021 8.00465 26.2885 8.37735 25.7098M11.7317 44.3154C12.3299 44.2762 12.4672 44.5508 13.0067 44.5508C13.654 44.5704 14.2719 44.3154 15.0663 44.0898M20.2743 45.561C20.2547 45.561 19.9801 46.1299 20.2253 46.4143M11.6434 45.61C11.6434 45.61 12.6046 44.8254 13.1146 45.306C13.5952 45.4727 13.86 45.4433 13.86 45.4433M12.1436 43.3542C12.1436 43.3542 12.379 43.9623 11.5943 43.874M11.359 44.7568C11.359 44.7568 11.8592 45.0706 11.2903 45.4923M11.663 46.0612C11.663 46.0612 12.3495 46.1593 11.9474 46.7183M33.2698 42.805C33.9662 43.364 33.6817 43.6975 35.8787 42.2263M32.2694 43.5013C32.2694 43.5013 33.2992 44.6194 34.0544 43.266M30.298 43.9035L28.8955 44.6391M26.3847 45.6689C26.3847 45.6689 27.2379 44.9431 27.6303 45.3256C28.0324 45.7179 29.7193 44.9921 29.7193 44.9921M27.0222 42.5009C27.0222 42.5009 27.3164 43.0894 26.7476 43.1581M25.9139 44.3252C25.9139 44.3252 26.2081 44.8744 25.6393 45.0118M26.571 45.8062C26.571 45.8062 27.4537 45.8552 27.1399 46.5222M34.8293 45.6885C34.8293 45.6885 34.3389 46.1004 34.7018 46.5712M41.8615 42.7461C41.8615 42.7461 42.4206 43.0208 41.7536 43.4817M41.1946 44.4527C41.1946 44.4527 41.6163 44.8941 41.3319 45.257M42.3715 46.1397C42.3715 46.1397 42.9502 46.3064 42.8816 46.787M50.5121 45.7081C50.5121 45.7081 50.0217 46.071 50.2865 46.532M41.8811 31.5455C43.0385 31.4082 44.7058 33.9975 45.5591 34.4977M50.6494 27.8872C50.6494 27.8872 51.2379 28.407 50.7181 29.6526M51.7381 25.906C51.9048 26.0335 52.5325 26.3767 52.9543 27.1614M53.3564 22.0416L52.5423 24.2484M54.2685 21.9338C54.2685 21.9338 54.1116 23.8953 53.8762 24.2877M33.9367 41.8732C33.9367 41.8732 35.8002 42.0694 35.8983 42.2067C36.1141 41.9811 37.7814 40.6178 35.7316 40.4315C35.6371 40.8381 35.4089 41.2012 35.0834 41.4626C34.7579 41.7241 34.3542 41.8687 33.9367 41.8732ZM50.6102 27.8675C50.3454 28.6522 47.9817 29.0445 47.8247 27.8872C47.7365 27.2987 49.2175 26.3865 50.6102 27.8675Z" stroke="black" stroke-width="0.183081" stroke-linejoin="round"/>
<path d="M17.8809 18.3062L18.793 18.4729C18.793 18.4729 18.1555 19.336 17.8809 18.3062Z" fill="black" stroke="black" stroke-width="0.183081" stroke-linejoin="round"/>
</g>
<defs>
<clipPath id="clip0_12589_5240">
<rect width="62.7706" height="62.7706" rx="31.3853" fill="white"/>
</clipPath>
</defs>
</svg>
