<svg width="63" height="63" viewBox="0 0 63 63" fill="none" xmlns="http://www.w3.org/2000/svg">
<g clip-path="url(#clip0_12589_5217)">
<g clip-path="url(#clip1_12589_5217)">
<mask id="mask0_12589_5217" style="mask-type:luminance" maskUnits="userSpaceOnUse" x="-11" y="0" width="85" height="63">
<path d="M73.2322 0H-10.4619V62.7706H73.2322V0Z" fill="white"/>
</mask>
<g mask="url(#mask0_12589_5217)">
<path d="M-10.4619 0H73.2322V62.7706H-10.4619V0Z" fill="#000066"/>
<path d="M51.1334 45.1156C51.1334 45.1156 50.7934 46.0048 50.6103 46.0048C50.4011 46.0048 49.6949 45.6125 49.6949 45.6125C49.6949 45.6125 49.1849 46.4494 48.9103 46.4887C48.6487 46.541 47.9426 46.371 47.9426 46.371C47.9426 46.371 47.2626 46.371 47.2364 46.2794C47.2103 46.1748 47.2626 45.9787 47.2626 45.9787C47.2626 45.9787 46.2818 46.7633 46.0725 46.711C45.8502 46.6718 45.1179 45.7433 45.1179 45.7433L44.9871 46.2271L43.6009 46.1748L42.3848 45.3902C42.3848 45.3902 41.7047 46.5148 41.6786 46.4887C41.6524 46.4756 40.4886 46.7633 40.4886 46.7633L40.4101 46.541L39.6255 46.0833C39.6255 46.0833 40.2401 45.2333 40.2401 45.2071C40.2401 45.181 39.9524 45.0763 39.9524 45.0763L39.5078 45.4425L38.6055 46.031L37.7031 45.6125L38.0954 44.8802L38.1477 44.3571L38.8539 43.2717L47.511 34.863L51.7742 42.7355L51.1334 45.1156Z" fill="#6A4C2D" stroke="black" stroke-width="0.130772"/>
<path d="M57.2776 45.6116L59.5399 45.5331L58.5722 45.0623L67.1639 44.7354L65.9477 44.2777L64.8754 42.813L60.4292 42.4861C60.4292 42.4861 60.0892 42.2246 59.553 42.3553C59.5268 42.0153 59.1084 41.5707 59.1084 41.5707L56.3621 41.3484L54.6621 42.5253L55.8129 45.4808L57.2776 45.6116Z" fill="white" stroke="black" stroke-width="0.130772"/>
<path d="M48.5166 20.3995L48.752 19.6149C48.752 19.6149 49.1443 18.961 49.1443 18.6471C49.1443 18.3594 49.4451 18.0064 49.4451 18.0064C49.4451 18.0064 50.3474 17.7448 50.5436 18.3071C51.5113 16.8294 52.6621 18.2287 52.6621 18.2287L52.9759 17.8625L53.6298 17.0779C53.6298 17.0779 54.5452 17.9279 54.5452 18.0717C54.5713 18.2287 54.7152 18.1241 54.7152 18.1241L55.7091 18.0456C55.6765 18.2419 55.6942 18.4431 55.7605 18.6306C55.8269 18.8182 55.9396 18.9858 56.0883 19.1179C56.4414 19.3272 56.7552 20.5564 56.7552 20.5564L48.5166 20.3995Z" fill="url(#paint0_linear_12589_5217)" stroke="black" stroke-width="0.130772"/>
<path d="M57.2762 29.5685C57.4592 29.4639 57.9954 29.2939 57.93 28.4962C57.8646 27.7115 57.1846 27.6069 56.7923 27.6331C56.4 27.6592 56.0731 27.9992 56.0731 27.9992L54.7915 27.1885C54.7915 27.1885 55.4323 23.1738 56.0992 22.9253C56.7531 22.4676 56.8577 22.2714 56.8577 22.1668C56.8577 22.0491 56.6223 21.7876 56.6223 21.7876L52.4768 21.3037L48.5537 21.7614C48.5537 21.7614 48.266 22.2322 48.2921 22.4153C48.3444 22.5984 48.3575 22.7945 49.0506 23.3307C49.8352 23.9322 50.3583 27.3585 50.3583 27.3585C50.3583 27.3585 49.2729 27.9077 49.1944 27.8292C49.1291 27.7638 48.8021 27.6985 48.6321 27.7246C48.4621 27.7508 47.8867 28.0515 47.8867 28.7969C47.8867 29.5554 48.4621 29.987 48.4621 29.987C48.4621 29.987 52.2022 29.5554 52.7645 30.5885C53.3007 29.3462 56.8577 29.7777 57.2892 29.5685H57.2762Z" fill="#656263" stroke="black" stroke-width="0.130772"/>
<path d="M61.3187 25.3955C61.3187 25.3955 61.3579 24.964 61.6718 24.7547C61.9856 24.5455 64.0518 24.4409 64.5488 24.7547C65.0457 25.0686 65.2288 26.5986 65.2288 26.5986C65.2288 26.5986 65.5426 27.1348 65.5688 27.5402C65.5819 27.9325 65.6342 28.194 65.6342 28.194C65.6342 28.194 67.2819 30.3518 67.3081 32.3003C67.4911 33.6211 67.4519 37.165 66.9288 38.5119C66.9323 39.4868 66.6845 40.4461 66.2096 41.2974C66.2096 41.2974 66.3796 41.5851 66.3534 41.8989C66.3273 42.1997 66.1703 42.5005 66.1703 42.5005L68.5896 43.6905L67.7004 43.3636L68.5896 44.109L67.5827 43.6382L68.1711 44.2398C68.1581 44.2136 66.7065 43.5728 66.7065 43.5728L67.3604 44.1874L66.2488 43.6644C66.2488 43.6644 66.9027 44.3836 66.9027 44.3444C66.5864 44.1907 66.2636 44.051 65.9349 43.9259L65.9873 44.279C65.9873 44.279 65.2288 44.2398 65.2288 43.6774C64.9987 43.5456 64.7912 43.3779 64.6141 43.1805L62.888 42.8928L60.9395 37.0604L61.3972 27.2263L61.5279 26.7294L61.3187 25.3955Z" fill="black" stroke="black" stroke-width="0.130772" stroke-linejoin="round"/>
<path d="M60.0214 56.8606C60.0214 56.8606 59.0145 54.7682 58.5175 54.729C58.0729 53.8659 60.0868 46.8827 63.9707 46.4773C66.1023 46.6473 64.1407 48.9358 62.7415 48.2296C62.9568 48.7719 63.2521 49.2787 63.6176 49.7335C63.6176 49.7335 60.8322 50.9366 60.0083 56.8606H60.0214ZM46.6434 57.1614C46.6434 57.1614 47.4673 54.7682 47.9642 54.7421C48.4742 54.7159 46.6434 46.7781 42.6549 46.7258C40.5102 46.8958 42.4849 49.1974 43.8972 48.4912C43.6776 49.034 43.3779 49.541 43.008 49.9951C43.008 49.9951 45.8196 51.1982 46.6434 57.1614Z" fill="#FFBB00" stroke="black" stroke-width="0.130772"/>
<path d="M50.2939 42.2409C50.2939 42.2148 49.3001 42.5417 49.9409 43.614C49.9801 43.1956 50.4247 42.9602 50.4247 42.9602C50.4247 42.9602 49.7578 43.7448 50.4639 44.4118C50.5555 43.784 50.9609 43.5879 50.9609 43.5879C50.9609 43.5879 50.4509 45.0525 50.9609 45.3533C51.0263 44.7648 51.3924 44.5033 51.3924 44.5033C51.3924 44.5033 50.9478 45.811 51.3532 46.1118C51.3924 45.6149 51.7324 45.3925 51.7324 45.3925C51.7324 45.3925 51.5363 46.7656 52.0594 46.8572C52.0594 46.3733 52.4517 45.9026 52.4517 45.9026C52.4517 45.9026 52.2817 47.0141 53.1055 47.0664C53.1055 46.648 53.2625 46.1641 53.2625 46.1641C53.2625 46.1641 53.6417 47.341 54.1779 47.158V46.151C54.1779 46.151 54.531 47.2757 55.1848 47.0664C55.0933 46.7526 55.2241 46.3733 55.2241 46.3733C55.2241 46.3733 55.5641 47.0795 56.1918 46.8441C56.2964 46.6349 56.1656 46.2164 56.1656 46.2164C56.1656 46.2164 57.081 47.158 57.3426 46.5956C57.6303 46.0333 56.6233 45.8372 56.6233 45.8372H57.3033C57.3033 45.8372 57.081 45.2618 56.1656 45.131C56.4795 45.0002 56.8064 45.1048 56.8064 45.1048C56.8064 45.1048 56.6102 44.3856 55.6687 44.3071C56.0348 44.1764 56.4533 44.2679 56.4533 44.2679C56.4533 44.2679 56.3225 43.5879 55.2764 43.3917C55.4464 43.2086 55.891 43.261 55.891 43.261C55.891 43.261 55.4725 42.6202 55.0017 42.6594C54.531 42.6986 50.2939 42.2279 50.2939 42.2409Z" fill="#00713D" stroke="black" stroke-width="0.130772"/>
<path d="M54.4798 45.7048C54.4798 45.7048 54.8721 45.8879 54.8459 46.0448M54.7021 45.404C54.7021 45.404 55.1859 45.744 55.1729 45.9925M55.1336 45.234C55.1336 45.234 55.5129 45.4694 55.526 45.8486M55.7744 45.3778C55.7744 45.3778 55.9575 45.7963 55.9052 45.8748M56.1537 45.6002C56.1798 45.9271 56.1275 45.9663 56.1275 45.9663M51.4197 43.547C51.4197 43.547 51.8774 43.8347 51.8382 44.2401M51.3936 43.887C51.3936 43.887 51.6028 44.0963 51.5636 44.227M51.9559 43.547C51.9559 43.547 52.2566 43.9655 52.152 44.2532M52.4659 43.8217C52.4659 43.8217 52.5967 44.0832 52.4659 44.214M52.7013 43.9393C52.7013 43.9393 52.8582 44.2009 52.7144 44.2924M52.5182 44.8024C52.5182 44.8024 52.9367 44.894 53.002 45.2078M52.7667 44.5147C52.7667 44.5147 53.2113 44.5409 53.2636 45.0117M53.3551 44.3447C53.3551 44.3447 53.6559 44.8678 53.6036 45.0248M53.9175 44.3971C53.9175 44.3971 54.0352 44.8809 53.9436 45.0509M54.2836 44.5932V45.1555M53.7344 43.8217C53.7344 43.8217 53.9959 43.9263 53.9959 44.2009M53.9828 43.5732C53.9828 43.5732 54.3359 43.7693 54.3098 44.1617M54.4013 43.4163C54.4013 43.4163 54.7021 43.7693 54.5975 44.1747M54.9244 43.4947C54.9244 43.4947 54.8198 43.9524 54.8721 44.1355M55.2644 43.8086C55.2644 43.8086 55.0682 43.9524 55.1729 44.1486M53.5121 45.5609C53.5121 45.5609 53.5774 45.9009 53.5121 45.9532M53.0805 45.3517C53.0805 45.3517 53.2897 45.744 53.2113 45.9271M52.6097 45.3386C52.6097 45.3386 52.8582 45.6263 52.8451 45.8617M52.2174 45.3909C52.2174 45.3909 52.4528 45.6132 52.4267 45.744M52.0213 45.7309C52.0213 45.7309 52.2436 45.9663 52.2305 46.0055" stroke="#3EC26D" stroke-width="0.130772" stroke-linecap="round"/>
<path d="M47.249 29.9843L50.4268 29.9189C50.4268 29.9189 52.5191 29.9189 52.7414 30.5989C53.1338 29.6966 54.9646 29.7489 54.9646 29.7489L58.2339 29.6443L58.2993 37.5691C57.6454 40.6553 55.4223 42.8261 52.9768 43.7546C51.6052 43.2879 50.3829 42.4638 49.4358 41.3673C48.4888 40.2708 47.8513 38.9417 47.589 37.5168L47.249 29.9843Z" fill="white" stroke="black" stroke-width="0.130772"/>
<path d="M48.3822 29.9468L52.9985 42.2656L57.1832 29.6853C55.8755 29.7638 53.1031 29.4761 52.75 30.6661C52.2269 29.6068 49.2976 30.0253 48.3691 29.9468H48.3822Z" fill="#006B00" stroke="black" stroke-width="0.130772"/>
<path d="M51.5238 36.6161C51.7069 36.7076 51.6939 33.2814 51.9292 33.1768L52.1123 32.4575C51.9162 32.1045 51.0138 32.1175 50.6738 32.4314L50.8961 33.0591C51.3538 33.7914 51.2623 36.6946 51.5238 36.6161Z" fill="#FFC900" stroke="#006B00" stroke-width="0.065386" stroke-linecap="round"/>
<path d="M50.2815 10.0677C50.2815 10.0677 50.6085 9.68842 50.6215 9.60996C50.6477 9.51841 52.1123 9.45303 52.9754 7.81838C53.4724 6.96836 52.9754 7.46529 52.9754 7.46529L52.9624 7.0599C52.9624 7.0599 53.5639 6.4845 53.3547 6.17065C53.1193 5.8568 53.1977 6.56297 52.8316 6.56297C52.4785 6.54989 52.6747 5.77833 52.6747 5.77833C52.6747 5.77833 52.6485 5.69987 52.5439 5.64756C52.4 5.67372 52.4393 5.93526 52.3085 5.96141C52.1777 6.00065 52.047 5.34679 52.047 5.34679C52.047 5.34679 51.8246 5.04601 51.6416 5.97449C51.7462 6.98144 52.3739 6.78528 52.3739 7.43914C52.3739 8.093 51.8116 8.58993 51.6546 8.61609C51.4846 8.61609 51.55 8.05377 51.55 8.05377C51.55 8.05377 51.4585 7.79222 51.4062 7.79222C51.3408 7.79222 51.7331 7.72684 51.6677 6.99451C51.5369 6.10526 51.4323 7.20375 51.1969 7.15144C50.9485 7.11221 51.1315 6.34065 51.2231 6.23604C51.3146 6.15757 51.1185 5.79141 50.5954 6.73297C50.5561 7.20375 50.4908 6.61527 50.3861 6.65451C50.2161 7.02067 50.2423 7.28221 50.4908 7.62222C50.87 7.9753 51.1054 8.31531 51.0923 8.48532C51.0792 8.6684 50.8831 9.07379 50.6085 9.07379C50.3469 9.07379 50.6215 8.57686 50.6085 8.41993C50.6085 8.24993 50.1508 7.66145 50.1508 7.66145C50.1508 7.66145 49.8369 7.15144 49.8761 7.13836C49.9023 7.12529 49.8369 7.04682 49.6931 7.56991C49.5492 8.093 49.3661 7.2299 49.3661 7.2299C49.3661 7.2299 49.1569 7.87069 49.6015 8.24993C49.2615 8.21069 49.2354 8.34147 49.2354 8.34147C49.2354 8.52455 49.6931 8.60301 49.7584 8.90379C49.8107 9.21764 49.2746 9.40072 49.2746 9.40072C49.2746 9.40072 49.4969 9.7015 50.1246 9.09994C50.1377 9.49226 49.8892 9.7538 49.8892 9.7538C50.0984 9.84534 50.2554 9.83227 50.2815 10.0807V10.0677Z" fill="#CDAD56" stroke="black" stroke-width="0.130772" stroke-linejoin="round"/>
<path d="M48.2531 10.0695C48.2531 10.0695 47.9654 9.65102 47.9523 9.57256C47.9523 9.49409 46.5923 9.67718 45.9515 8.02945C45.533 7.24482 45.9515 7.70252 45.9515 7.70252L45.9776 7.32328C45.9776 7.32328 45.533 6.78711 45.7161 6.49941C45.9123 6.21172 45.8469 6.86558 46.0823 6.86558C46.383 6.8525 46.213 6.15941 46.213 6.15941C46.213 6.15941 46.2392 6.08094 46.3438 6.04171C46.4615 6.05479 46.5138 6.46018 46.6184 6.48634C46.7361 6.51249 46.9715 6.01556 47.05 5.91094C47.1546 5.89786 47.1415 5.49247 47.3115 6.34249C47.22 7.24482 46.4746 7.06173 46.4746 7.65021C46.4746 8.25176 46.9454 8.70946 47.0892 8.72254C47.22 8.74869 47.1807 8.22561 47.1807 8.22561C47.1807 8.22561 47.2592 7.99022 47.3115 7.99022C47.3507 7.99022 46.8669 8.08176 46.9192 7.40174C47.0238 6.77404 47.2723 7.44097 47.4815 7.40174C47.6777 7.36251 47.4554 6.74788 47.5077 6.64326C47.5207 6.53865 47.8215 6.13325 47.9392 7.03558C47.9784 7.46713 48.2008 6.6825 48.2923 6.70865C48.4492 7.04866 48.2269 7.49328 48.0177 7.80714C47.7038 8.12099 47.56 8.461 47.5731 8.61792C47.5731 8.78793 47.6515 8.98408 47.8869 8.98408C48.1092 8.98408 47.9523 8.69638 47.9654 8.55254C47.9784 8.40869 48.3577 7.92483 48.3577 7.92483C48.4361 7.79406 48.3708 7.58482 48.4492 7.48021C48.58 7.48021 48.6323 7.3102 48.75 7.78098C48.8808 8.25176 49.0246 7.46713 49.0246 7.46713C49.0246 7.46713 49.2077 8.0556 48.8285 8.40869C49.1162 8.36946 49.1423 8.48715 49.1423 8.48715C49.1423 8.64408 49.0115 8.70946 48.9592 9.01024C48.9461 9.08845 48.9522 9.16872 48.9773 9.24397C49.0023 9.31923 49.0455 9.38715 49.1031 9.44179C49.1031 9.44179 48.92 9.72948 48.3838 9.18024C48.3825 9.39487 48.4566 9.60316 48.5931 9.76872C48.41 9.86026 48.2792 9.84718 48.2531 10.0695Z" fill="#CDAD56" stroke="black" stroke-width="0.117695" stroke-linejoin="round"/>
<path d="M56.4034 31.7775C56.1419 31.5422 56.1026 31.7514 55.9588 31.6991C55.8934 31.6729 55.8411 31.6075 55.7888 31.5552C55.7365 31.5029 55.6711 31.4768 55.6057 31.4506L55.5272 31.6729C55.5011 31.7514 55.6057 31.8691 55.6057 31.9868C55.5795 32.1568 55.5142 32.2876 55.3049 32.3399C55.3703 32.2222 55.3965 32.2222 55.3834 32.0783C55.3834 32.0129 55.1741 31.8822 55.2003 31.8168C55.2265 31.6991 55.2918 31.5814 55.2526 31.4637C55.1611 31.5291 55.0564 31.4898 54.9649 31.5291C54.8995 31.5683 54.8864 31.6991 54.7949 31.7514C54.6903 31.8037 54.468 31.7775 54.2718 31.6729C54.3895 31.5814 54.481 31.6468 54.5987 31.5422C54.6511 31.516 54.6511 31.3198 54.7164 31.2806L54.9649 31.1498C54.9126 31.0845 54.9126 30.9929 54.8603 30.9406C54.808 30.8752 54.5857 30.8883 54.5334 30.836C54.4287 30.7052 54.4418 30.5614 54.3503 30.4437C54.6118 30.5352 54.5726 30.666 54.638 30.6529C54.7687 30.5875 54.8995 30.5875 54.9649 30.6137C55.0303 30.6398 55.148 30.8098 55.2265 30.836L55.3049 30.5875C55.3311 30.5091 55.2003 30.3914 55.2134 30.3129C55.2657 30.169 55.3965 30.0383 55.4488 29.8813L55.5011 30.2867C55.5142 30.3652 55.658 30.4044 55.658 30.4698C55.6711 30.5483 55.5926 30.7052 55.5926 30.7837C55.6711 30.7706 55.7888 30.7837 55.8542 30.7575C55.9457 30.7444 55.9849 30.5614 56.0634 30.5483C56.2203 30.5221 56.3249 30.5352 56.4949 30.5483C56.3642 30.666 56.2857 30.6529 56.2203 30.7575C56.1549 30.7968 56.2334 30.9406 56.0765 31.0452C56.0111 31.0844 55.8411 31.0452 55.7888 31.0845L55.9457 31.2545C55.998 31.3198 56.2203 31.346 56.2726 31.4114C56.3772 31.516 56.4296 31.6729 56.4034 31.7906V31.7775ZM49.3025 31.9083C49.564 31.6598 49.6033 31.8822 49.7471 31.8168C49.8125 31.7906 49.8648 31.7383 49.9171 31.686C49.9694 31.6206 50.0348 31.6075 50.1002 31.5683L50.1786 31.8037C50.2048 31.8691 50.1002 31.9999 50.1002 32.1045C50.1263 32.2745 50.1917 32.4052 50.401 32.4706C50.3356 32.3399 50.3094 32.3399 50.3225 32.2091C50.3225 32.1306 50.5317 31.9999 50.5056 31.9345C50.4794 31.8299 50.414 31.6991 50.4533 31.5945C50.5448 31.6468 50.6494 31.6206 50.741 31.6468C50.8064 31.686 50.8194 31.8168 50.911 31.8691C51.0156 31.9214 51.2379 31.8952 51.4341 31.7906C51.3164 31.6991 51.2248 31.7645 51.1071 31.6729C51.0548 31.6337 51.0548 31.4375 50.9894 31.4114C50.9371 31.3591 50.7933 31.3068 50.741 31.2675C50.7933 31.2021 50.7933 31.1106 50.8456 31.0583C50.8979 30.9929 51.1202 31.006 51.1725 30.9537C51.2771 30.8229 51.2641 30.6791 51.3556 30.5614C51.0941 30.6529 51.1333 30.7837 51.0679 30.7706C50.9371 30.7183 50.8064 30.7052 50.741 30.7314C50.6756 30.7575 50.5579 30.9275 50.4794 30.9537L50.401 30.7052C50.3748 30.6398 50.5187 30.5091 50.4925 30.4437C50.4402 30.2867 50.3094 30.156 50.2571 29.999L50.2048 30.4175C50.1917 30.4829 50.0479 30.5221 50.0479 30.5875C50.0348 30.666 50.1133 30.836 50.1133 30.9014C50.0348 30.8883 49.9171 30.9014 49.8517 30.8752C49.7602 30.8752 49.7209 30.6921 49.6425 30.666C49.4856 30.6398 49.3809 30.6529 49.2109 30.6791C49.3417 30.7837 49.4202 30.7837 49.4986 30.8752C49.5509 30.9275 49.4725 31.0714 49.6294 31.1629C49.6948 31.2021 49.8648 31.1629 49.9171 31.2021L49.7602 31.3852C49.7079 31.4375 49.4856 31.4637 49.4332 31.516C49.3286 31.6468 49.2763 31.7775 49.3025 31.9083Z" fill="#FFC900"/>
<path d="M56.1538 32.5876C55.9054 32.7838 54.2839 33.1892 54.2708 34.5884C54.2577 36.0008 54.5584 36.3146 54.2576 36.3539C53.6692 36.3539 53.5907 34.7846 53.6038 34.0915C53.6169 33.3984 53.6431 33.503 53.6431 33.503C53.6431 33.503 54.0354 33.6076 54.0093 33.9477C53.97 34.2877 54.4015 33.1107 54.2576 32.7969C54.5192 33.0584 54.8724 32.9538 54.8724 32.9276C54.8724 32.9276 54.6761 32.7053 54.5846 32.5353C54.5061 32.3915 54.8854 32.6399 54.8854 32.6399C54.8854 32.6399 54.9115 32.3784 54.5715 32.3784C54.1399 32.3784 54.6369 32.2476 54.6369 32.2476C54.6369 32.2476 54.8985 32.4699 55.0554 32.2215C54.9274 32.0941 54.7765 31.9921 54.6108 31.9207C54.6108 31.9207 54.3753 31.4761 54.0615 31.3976C53.6953 31.3061 53.7347 31.5545 53.3162 31.5153C53.2377 31.6722 53.2376 31.6984 53.4076 31.7507C53.1199 31.9468 53.2768 32.3261 53.2768 32.3261C53.2768 32.3261 53.7216 32.143 53.7085 32.4569C53.6954 32.7838 53.4468 32.7184 53.2768 32.5222C53.1199 32.4438 53.0676 32.6138 53.0676 32.6138L53.3031 32.8753C53.3031 32.8753 52.8584 32.8492 52.7407 33.1499C52.9891 33.1369 53.133 33.2023 53.133 33.2023C53.133 33.2023 52.6099 33.4376 52.5576 33.5553C52.5053 33.6861 52.4923 33.4246 52.4662 33.4246L51.9691 33.2415L51.7992 34.013C51.7992 34.013 52.1392 34.34 52.3223 34.2354C52.5054 34.1307 52.8454 33.8038 53.0416 33.8953C52.4531 34.34 51.8646 34.9808 51.5508 35.0723C51.4723 34.9938 51.1845 34.7192 51.0668 34.8631C50.9491 34.9938 51.0406 35.1769 51.1976 35.1638C51.3283 35.1377 50.7007 35.2946 50.8315 35.5692C50.9623 35.8308 50.9622 35.8177 51.0668 35.7523C51.1976 35.6738 50.9754 35.6608 51.4069 35.53C51.8385 35.3992 51.8253 35.2815 51.8253 35.2815C51.8253 35.2815 51.7337 35.4777 51.4983 35.5431C51.276 35.5823 51.093 35.5823 51.1322 35.6608C51.1845 35.7262 51.2891 35.8569 51.263 35.9223C51.2237 36.0008 51.7338 35.5562 51.8777 35.9092C52.2177 35.8831 52.453 35.4646 52.283 35.2161C52.3091 35.4777 52.4661 35.5692 52.3745 35.7C52.2699 35.8177 53.1593 35.2815 52.7277 34.9677C52.8323 35.2292 52.8585 35.4385 52.8585 35.4385C52.8585 35.4385 53.0546 35.4385 53.1069 35.36C53.1593 35.2815 53.0022 35.5562 53.0676 35.6085C53.133 35.6608 53.4599 35.9615 53.3292 36.1708C53.2376 36.04 53.2246 35.8569 53.12 35.87C53.0154 35.8831 52.5968 36.1969 52.3484 36.21C52.0999 36.2231 52.6492 37.1254 52.6492 37.1254C52.6492 37.1254 52.2699 37.0862 52.2176 37.1254C52.1653 37.1516 51.9169 36.7985 51.8777 37.0077C51.7862 37.2693 51.956 37.1646 51.956 37.1646C51.956 37.1646 51.7338 37.06 51.6161 37.1908C51.4985 37.3216 51.3938 37.4393 51.4723 37.4916C51.5508 37.5439 51.9168 37.5439 51.9691 37.5308C52.0214 37.5047 51.5507 37.557 51.5245 37.6093C51.4853 37.6616 51.4199 37.8708 51.5245 37.9362C51.616 38.0016 51.8776 37.897 51.8907 37.8447C51.9037 37.7924 51.9168 38.0408 51.9168 38.0408C51.9168 38.0408 52.3484 38.0801 52.3484 37.6354C52.3484 37.1908 52.3877 37.9493 52.3877 37.9493C52.3877 37.9493 52.8191 38.0277 52.8322 37.5831C52.8584 37.1385 52.8845 37.8839 52.8845 37.8839C52.8845 37.8839 53.1723 37.7924 53.1723 37.727C53.1723 37.6485 53.1592 38.6031 52.9499 38.8778C52.6361 38.6685 52.4268 39.0085 52.4268 39.0085C52.4268 39.0085 52.453 39.5316 52.4268 39.6624C52.3876 39.7932 52.6362 39.5839 52.6492 39.5316C52.6754 39.4793 52.9762 39.3355 52.9893 39.3093L53.0939 39.087C53.0939 39.087 53.0154 39.3485 52.9108 39.3747C52.78 39.4139 52.6754 39.5316 52.7277 39.6362C52.7669 39.7539 52.9499 39.8193 53.0153 39.9239C53.0938 40.0286 53.3162 39.3093 53.3162 39.3093L53.3422 39.4662C53.3422 39.4662 53.643 39.3878 53.6692 39.2439C53.7084 39.1132 53.3554 38.9824 53.6431 38.747C53.9177 38.5247 53.6431 38.9693 53.6431 38.9693C53.6431 38.9693 53.7345 39.3093 53.7999 39.3093C53.8784 39.3093 54.0354 38.6554 53.8785 38.4985C53.7085 38.3416 54.1269 38.6947 54.1269 38.6947C54.1269 38.6947 54.3624 38.0408 54.1008 37.9493L53.7345 37.8185C53.7345 37.8185 53.8653 37.6485 53.7999 37.6354C53.7345 37.6093 54.1531 38.0277 54.2185 37.91C54.2839 37.8054 54.3885 37.4916 53.9047 37.3085C53.4208 37.1385 53.8916 36.6416 53.8916 36.6416C53.8916 36.6416 54.1924 36.9946 54.4147 36.7985C54.6239 36.6023 54.3884 36.6023 54.3884 36.6023C54.3884 36.6023 55.003 36.21 55.0292 36.0139C54.8984 36.0008 54.7023 36.0269 54.7023 36.0269C54.7023 36.0269 55.0553 35.8046 54.9638 35.4254C54.833 35.6215 54.65 35.6215 54.65 35.6215C54.65 35.6215 54.9507 35.3208 54.9115 35.0331C54.7284 35.1769 54.7416 35.2946 54.6239 35.2554C54.5062 35.2161 54.3099 34.0915 54.7676 34.0261C55.2384 33.9477 54.9901 34.5754 55.0031 34.5754C55.0293 34.5754 55.7093 34.2877 55.0031 33.83C55.1731 33.7777 55.5262 34.0915 55.5262 34.0915C55.5262 34.0915 55.3693 33.3069 54.6108 33.7907C54.807 33.5946 54.9247 33.4769 55.0685 33.503C55.2255 33.5423 55.7615 33.49 55.7615 33.333C55.6307 33.2284 55.3431 33.3853 55.1862 33.333C55.0424 33.2807 56.2584 33.1892 56.1538 32.5876Z" fill="#FFC900" stroke="#006B00" stroke-width="0.065386" stroke-linecap="round" stroke-linejoin="round"/>
<path d="M50.8701 33.0457C50.8701 33.0457 51.5371 32.6665 51.864 33.1373M52.1386 33.8435C52.1255 33.8435 51.9032 34.0788 51.8509 34.0788M52.5832 34.5889C52.5832 34.5889 53.2109 34.6412 53.6033 33.9873" stroke="#006B00" stroke-width="0.065386" stroke-linecap="round"/>
<path d="M53.2472 34.3931C53.2472 34.3931 53.2995 34.7462 53.4041 34.7462C53.4957 34.7462 53.2341 34.8377 53.1426 34.7723C53.2472 34.9292 53.3126 35.2169 53.1426 35.3215" stroke="#006B00" stroke-width="0.065386" stroke-linecap="round"/>
<path d="M52.9399 38.8801C52.9399 38.8801 52.7307 39.1286 52.4561 39.1417L52.9399 38.8801Z" fill="#E80000"/>
<path d="M52.9399 38.8801C52.9399 38.8801 52.7307 39.1286 52.4561 39.1417" stroke="#006B00" stroke-width="0.065386" stroke-linecap="round"/>
<path d="M53.1868 37.7408C53.1868 37.7408 53.056 37.0216 53.1344 36.8516C53.1868 36.6162 53.396 36.5247 53.5791 36.2239" stroke="#006B00" stroke-width="0.065386" stroke-linecap="round"/>
<path d="M53.1211 37.2177C53.1211 37.2177 52.9511 37.6493 52.2188 37.5054M53.3172 36.1585C53.3172 36.1585 53.3695 36.7208 52.7026 36.5115M52.5064 33.6084C52.5064 33.6084 52.2449 33.8438 52.3364 34.1838" stroke="#006B00" stroke-width="0.065386" stroke-linecap="round"/>
<path d="M53.502 32.9676C53.502 32.9676 53.855 32.8368 53.9204 32.7584C54.0133 32.6684 54.0887 32.5619 54.1427 32.4445C54.1689 32.3399 53.9073 32.183 54.0381 31.9476C54.1297 31.8299 54.2474 31.8168 54.4304 31.9476C54.6397 32.0783 54.2604 31.5553 54.0643 31.5291C53.855 31.516 53.7243 31.6729 53.672 31.6337C53.6197 31.6076 53.685 31.7776 53.6066 31.7776C53.5281 31.7776 53.7766 31.9214 53.7635 32.013C53.7373 32.1045 54.025 32.4053 54.012 32.4707C53.9858 32.5491 53.5935 32.9545 53.502 32.9676Z" fill="#006B00"/>
<path d="M53.7471 31.8043C53.904 31.7651 53.9302 31.8043 53.904 31.9351C53.8458 31.9042 53.7963 31.8592 53.7601 31.8043H53.7471Z" fill="#FFC900" stroke="#FFC900" stroke-width="0.065386" stroke-linecap="round" stroke-linejoin="round"/>
<path d="M52.6972 39.7157C52.6972 39.7157 52.6318 40.095 52.7626 40.1211C52.7626 39.9904 52.8018 39.8857 52.8279 39.8465L52.6972 39.7157ZM52.3702 39.258C52.2395 39.245 52.0433 39.3626 52.1087 39.4934C52.2002 39.4019 52.2918 39.4934 52.3702 39.4019V39.2711V39.258ZM52.3702 38.9965C52.3702 38.9965 52.1741 38.9703 52.1479 39.1142C52.2787 39.088 52.331 39.075 52.3702 39.1142V38.9965Z" fill="#E80000" stroke="#006B00" stroke-width="0.065386" stroke-linejoin="round"/>
<path d="M51.5404 36.9039C51.5404 36.9039 51.6712 36.9432 51.6973 37.0739C51.7889 37.0216 51.8281 36.7339 51.5404 36.9039ZM51.2396 37.2178C51.2396 37.2178 51.5012 37.0609 51.5143 37.2178C51.4619 37.257 51.4489 37.2962 51.4096 37.3093C51.3704 37.3093 51.305 37.2047 51.2396 37.2178ZM51.2266 37.7278C51.2266 37.7278 51.3835 37.597 51.4358 37.6755C51.5012 37.7801 51.3835 37.767 51.3835 37.767L51.2266 37.7278ZM51.0042 34.8639C51.0042 34.8639 50.8081 34.7854 50.7296 34.9293C50.8604 34.9554 50.8996 34.9947 50.965 35.047C50.9389 34.9816 50.9127 34.89 51.0042 34.8639ZM50.625 35.9493C50.625 35.9493 50.625 35.7008 50.7558 35.6093C50.8081 35.6485 50.8212 35.7008 50.8604 35.7662C50.7819 35.7924 50.6773 35.7924 50.625 35.9493ZM51.135 35.7793C51.135 35.7793 50.9258 35.8839 51.0042 36.0016C51.0696 35.9101 51.1481 35.9362 51.1481 35.9362V35.7793H51.135Z" fill="#E80000" stroke="#006B00" stroke-width="0.0784632" stroke-linejoin="round"/>
<path d="M50.8331 33.4507C50.7546 33.5422 50.9247 33.7384 51.1077 33.7122C51.16 33.503 50.8854 33.3853 50.8462 33.4507H50.8331Z" fill="#FFC900" stroke="#006B00" stroke-width="0.0784632" stroke-linejoin="round"/>
<path d="M51.0254 33.293C51.0254 33.293 51.0646 33.463 51.2215 33.4238C51.2015 33.3307 51.1563 33.2447 51.0908 33.1753C51.0908 33.2145 51.1039 33.2799 51.0254 33.293ZM51.13 33.7768C51.13 33.7768 51.2216 33.8815 51.3916 33.6853C51.3131 33.6984 51.1823 33.633 51.1823 33.633C51.1823 33.633 51.1823 33.7638 51.13 33.7768Z" fill="#E80000" stroke="#006B00" stroke-width="0.0784632" stroke-linejoin="round"/>
<path d="M50.8164 33.0608C50.7511 33.1524 50.8557 33.2831 51.0388 33.257C51.078 33.0347 50.8688 32.9954 50.8164 33.0608Z" fill="#FFC900" stroke="#006B00" stroke-width="0.0784632" stroke-linejoin="round"/>
<path d="M50.8949 32.2108C50.8949 32.2108 51.6142 32.0016 51.9934 32.3155C52.3857 32.6162 52.3857 32.3416 52.3857 32.3416C52.3857 32.3416 52.935 32.5508 53.0919 32.4985C53.2488 32.4593 52.9742 32.5247 53.1965 32.3808C53.4188 32.2501 52.7519 32.4201 52.6996 32.1324C52.595 31.9624 52.6996 31.7401 52.4773 31.8185C52.3203 31.6093 52.5819 31.4654 52.5165 31.2431C52.3596 31.3739 52.268 31.2039 52.1373 31.5047C51.8365 31.4393 52.098 31.0077 51.758 30.9685C51.758 31.2693 51.5096 31.2824 51.4965 31.4654C51.3526 31.5701 50.7118 31.9493 50.8949 32.2108Z" fill="url(#paint1_linear_12589_5217)"/>
<path d="M42.6329 55.579C43.1037 55.4482 45.6276 56.1282 46.5953 57.1744C46.3861 55.3043 45.876 53.892 45.876 53.892C45.876 53.892 44.3722 53.4605 44.176 53.6697C43.5899 54.2399 43.0721 54.8762 42.6329 55.5659V55.579ZM41.8613 46.9872C41.6913 47.0134 41.5083 47.1311 41.3382 47.4319C41.129 47.9288 40.9852 49.1973 40.6844 49.4981C40.3967 49.7858 40.1221 49.8119 40.1221 50.0865C40.1221 50.3481 40.1613 50.9627 40.9459 51.1981C41.7436 51.2373 43.0121 49.9296 43.0121 49.9296C43.0121 49.9296 43.666 49.2234 43.9275 48.465C42.3975 48.9881 41.3121 47.5757 41.8613 46.9872ZM64.0403 55.2782C62.5814 55.3732 61.1899 55.927 60.0648 56.8605C60.274 55.0166 60.7841 53.5912 60.7841 53.5912C60.9541 53.552 62.2618 53.1728 62.4579 53.382C62.7587 53.6958 63.7264 54.6505 64.0403 55.2782ZM64.7595 46.7388C64.9295 46.7649 64.9949 47.0003 65.1518 47.288C65.348 47.798 65.5442 48.5173 65.8449 48.805C66.1457 49.1057 66.4073 49.5373 66.4073 49.7988C66.4073 50.0604 66.3419 50.4265 65.5572 50.6619C64.7726 50.6881 63.6218 49.6681 63.6218 49.6681C63.6218 49.6681 62.9679 48.975 62.7064 48.2034C64.2364 48.7265 65.2172 47.3796 64.7595 46.7388Z" fill="#C01500" stroke="black" stroke-width="0.130772"/>
<path d="M40.9857 53.9416C40.9857 53.9416 42.5681 55.0401 42.6073 55.537C46.8836 49.1946 57.7899 47.2199 64.0147 55.0924C64.8386 54.007 65.6886 53.6539 65.6886 53.6539C59.15 45.1014 46.112 46.1607 40.9727 53.9416H40.9857Z" fill="#FFBB00" stroke="black" stroke-width="0.130772"/>
<path d="M57.1975 29.6862L57.8252 29.6731L56.7136 31.0854L58.0475 32.6416L55.419 35.9502L57.9036 38.9318C57.6501 39.5863 57.3069 40.2025 56.8836 40.7626L55.4582 39.1933L58.0606 35.9632L55.9421 33.557L57.1975 29.6862ZM48.2919 29.9739H47.638L48.8804 31.3339L47.5596 32.9816L50.3058 35.9632L48.0304 39.0102C48.2919 39.6641 48.6842 40.4226 49.1158 40.9718L50.4627 39.2587L47.6903 36.1725L49.7173 33.5963L48.2919 29.9739Z" fill="#1E5AA6" stroke="black" stroke-width="0.130772"/>
<path d="M51.3921 37.9746L50.3982 39.2823L53.9029 43.3362C54.5306 43.0224 55.0144 42.6693 55.5375 42.2377L53.7067 40.1323L54.4521 37.9484L55.5244 39.1777L52.1898 43.4409C51.6274 43.2055 51.0128 42.8393 50.4505 42.3685L52.2159 40.1323L51.3921 37.9746ZM50.3066 35.9476L50.9343 36.7453L50.529 35.6599L50.3066 35.9476ZM54.8706 36.6538L55.3937 35.9738L55.1975 35.7122L54.8706 36.6538Z" fill="#1E5AA6" stroke="black" stroke-width="0.130772"/>
<path d="M62.2471 25.5006C62.2471 25.5006 62.8748 24.9775 63.3063 24.9775" stroke="#FFF700" stroke-width="0.130772" stroke-linecap="round"/>
<path d="M62.3369 25.4351C62.35 25.422 66.0116 24.912 66.1293 24.7812M62.35 25.4613L66.4562 25.1082M62.3369 25.4743C62.3369 25.4743 66.6916 25.2782 66.9532 25.5005" stroke="#FFF700" stroke-width="0.130772" stroke-linecap="round"/>
<path d="M62.323 25.4597C62.323 25.4597 66.5862 25.4989 66.6647 25.5905M62.3361 25.4597L66.4424 25.7997M62.2969 25.4989C62.2969 25.4989 66.4816 25.8651 66.8739 26.3882" stroke="#FFF700" stroke-width="0.130772" stroke-linecap="round"/>
<path d="M67.1005 27.1372C67.1005 27.1241 65.6882 25.4502 62.2881 25.4764" stroke="#FFF700" stroke-width="0.130772" stroke-linecap="round"/>
<path d="M62.2969 25.5005C62.2969 25.5005 64.6508 25.6705 65.3962 26.4944" stroke="#FFF700" stroke-width="0.130772" stroke-linecap="round"/>
<path d="M62.3369 25.475C62.3369 25.475 63.867 25.1873 65.4624 27.1096" stroke="#FFF700" stroke-width="0.130772" stroke-linecap="round"/>
<path d="M61.387 27.2251C61.387 27.2251 63.4924 27.3036 63.4924 27.5128C63.4924 27.722 61.9231 28.1143 61.897 28.9774C61.8839 29.8536 63.1001 29.919 63.1916 31.0175C63.2701 32.116 62.237 32.2729 62.0147 32.5737C61.8185 32.7044 61.3216 34.2737 61.387 35.1891C61.4523 36.0914 61.7139 39.1777 62.1977 39.8054C62.5639 40.0931 63.1131 41.0216 63.7278 40.7208C64.3293 40.4462 63.9109 39.3869 63.8585 39.0992C63.7932 38.8115 64.0939 38.3276 64.0939 37.8961C64.0939 37.4515 63.8716 37.1115 63.8978 37.0068C63.9109 36.9022 65.5717 37.3992 65.467 39.0338C65.3624 40.6685 64.6955 40.1715 64.6955 40.1715C64.6955 40.1715 64.9047 42.1854 64.3947 42.447C63.4531 42.9439 62.7731 42.3423 62.7731 42.3423L62.8647 42.7608L62.1454 42.3947C62.1454 42.3947 61.23 41.0869 61.0339 40.4985C60.7661 39.2746 60.6389 38.0243 60.6546 36.7715C60.7462 36.2091 60.7985 32.9398 60.7592 32.7698C60.72 32.6129 60.55 29.8798 60.6546 29.4613C60.7592 29.0428 61.4 27.2251 61.387 27.2251Z" fill="url(#paint2_linear_12589_5217)" stroke="black" stroke-width="0.130772"/>
<path d="M59.1059 26.676C59.1059 26.676 60.5705 25.2506 61.4205 25.4206C61.8521 25.4206 61.4467 25.7344 61.4467 25.7344C61.4467 25.7344 62.1921 25.7867 62.2967 26.1267C62.3098 26.2575 61.9436 26.3098 61.9436 26.3098C61.9436 26.3098 62.2444 26.3752 62.2705 26.6368C62.2967 26.9114 59.132 26.7021 59.0928 26.6891L59.1059 26.676Z" fill="#FF7000" stroke="black" stroke-width="0.130772"/>
<path d="M59.1904 26.6259C59.1904 26.6259 60.7597 26.4167 61.4266 25.7498" stroke="black" stroke-width="0.130772"/>
<path d="M60.7842 26.1942C60.7842 26.1942 61.9481 26.1419 61.9481 26.3249" stroke="black" stroke-width="0.130772"/>
<path d="M64.6409 34.9161C64.6409 34.9161 64.7717 35.6745 64.4055 36.1976C64.2224 36.4069 63.6601 36.76 63.6601 37.0084C63.6601 37.2569 63.8694 37.5838 63.8301 37.8715C63.7909 38.1592 63.477 38.46 63.4901 38.7085C63.4901 38.9569 63.8432 40.2777 63.804 40.3039M62.8101 32.4314C62.8101 32.4314 62.0255 32.6929 61.8555 33.4776" stroke="white" stroke-width="0.130772" stroke-linecap="round"/>
<path d="M62.4844 26.1917C62.4844 26.1917 62.7459 26.9371 63.6221 26.231C63.0598 25.4594 62.4844 26.2048 62.4844 26.1917Z" fill="#C75B00" stroke="black" stroke-width="0.130772"/>
<path d="M55.3703 24.456C55.3703 24.456 57.018 26.2475 58.0773 26.2214C58.2734 26.7445 57.5934 27.2414 57.3319 27.4637C56.7826 27.2937 56.2857 27.503 55.0303 25.9468C55.1087 24.9529 55.3834 24.5083 55.3703 24.456ZM57.5934 20.2974C57.8157 19.6436 58.2473 19.1205 58.6134 19.0551C58.5088 18.5581 59.385 16.3219 61.922 15.4719C62.0789 16.6096 60.8366 17.7474 60.8366 17.7474C60.8366 17.7474 64.5897 17.0935 65.3482 16.1519C65.2697 16.5704 64.5113 19.2382 60.5096 19.212C62.0266 20.6505 60.0258 21.8013 59.1757 21.4482C60.745 20.2451 58.718 19.5259 57.6065 20.2974H57.5934Z" fill="white" stroke="black" stroke-width="0.130772"/>
<path d="M58.8721 19.3686C59.6305 18.8847 59.9052 18.8847 60.5329 18.9763L60.0752 19.0547C60.0752 19.0547 60.0359 19.1201 60.3106 19.3686C59.9967 19.2901 59.7352 19.1071 58.8721 19.3686Z" fill="#CCCCCD" stroke="#CCCCCC" stroke-width="0.130772"/>
<path d="M58.5859 19.0536C58.5859 19.0536 60.0767 18.269 60.9137 17.7197" stroke="black" stroke-width="0.130772"/>
<path d="M57.3086 27.463C57.3086 27.463 59.3617 28.0253 59.5971 25.0829C59.1525 23.8014 58.5379 21.029 59.4794 20.2444C58.6163 19.6428 57.6486 20.2705 57.6486 20.2705C57.5963 20.4013 56.8248 21.5129 57.8709 23.4483C55.3863 22.7944 56.3932 25.1483 56.3932 25.1483C56.4978 24.756 57.8186 24.416 58.1456 26.2991C58.2763 26.7699 57.2563 27.4761 57.3086 27.4761V27.463Z" fill="#0000FF" stroke="black" stroke-width="0.130772"/>
<path d="M59.6159 25.1082C59.6159 25.1082 61.7868 23.9313 61.7345 21.1851C59.8775 21.2374 59.2236 23.6174 59.2236 23.6174L59.6159 25.1082Z" fill="#0000FF" stroke="black" stroke-width="0.130772"/>
<path d="M49.8645 24.9653C49.8645 24.9653 48.256 26.3646 47.3406 25.92C46.6737 26.3123 45.876 25.6061 45.876 25.6061C45.876 25.6061 46.7914 29.0454 50.1391 26.5608C50.1066 26.0213 50.019 25.4867 49.8776 24.9653H49.8645Z" fill="white" stroke="black" stroke-width="0.130772"/>
<path d="M47.3247 25.8537C47.4554 25.1344 48.0178 24.7814 48.4755 25.4614C49.077 25.5921 49.6786 23.1075 47.5339 23.5259C48.1355 20.2959 46.3308 19.0928 46.3308 19.0928C46.3308 19.0928 45.69 22.6759 45.9908 23.3298C46.2785 23.9836 45.5592 22.1136 43.2446 21.5774C43.2053 24.2844 45.8339 25.5398 45.8339 25.5398C45.8339 25.5398 46.5662 26.2199 47.3247 25.8537Z" fill="#0000FF" stroke="black" stroke-width="0.130772"/>
<path d="M47.5359 23.5006C47.5359 23.5006 46.529 24.3637 46.7513 25.5276M46.0059 23.396C46.0059 23.396 45.7705 24.2199 46.2674 25.4099" stroke="black" stroke-width="0.130772"/>
<path d="M45.8516 25.6853C45.8516 25.6853 46.3223 24.9268 47.3293 25.8945" stroke="black" stroke-width="0.130772"/>
<path d="M46.0483 20.4413C46.0483 20.4152 44.5183 20.4413 45.4206 21.9975C44.7537 22.2068 43.2367 21.2129 44.2829 19.9052C40.8436 19.8136 39.4443 18.1659 39.4443 16.649C40.4513 17.6951 42.8706 17.2767 43.7206 17.9174C42.6744 16.9497 42.8836 15.6028 42.8836 15.6028C42.8836 15.6028 45.8129 16.479 46.336 19.0813C46.166 19.5913 46.0876 20.4806 46.0483 20.4413Z" fill="white" stroke="black" stroke-width="0.130772"/>
<path d="M43.6777 17.8503C44.2531 18.4257 45.7047 18.5957 46.437 19.2365" stroke="black" stroke-width="0.130772"/>
<path d="M44.3564 19.5506C44.3564 19.5506 45.5595 19.3936 45.9126 19.8121C45.4419 19.8121 45.2849 19.6944 44.6049 19.9429C44.788 19.8513 44.7357 19.6813 44.8403 19.6813C44.9449 19.6813 44.4088 19.5506 44.3564 19.5506Z" fill="#CCCCCD" stroke="#CCCCCC" stroke-width="0.0915404"/>
<path d="M50.3437 10.1352C50.3437 10.1352 51.0107 9.54671 51.7299 10.0698C51.403 11.0375 50.2391 10.6714 50.2391 10.6714C50.2391 10.6714 50.2783 11.1552 50.1606 11.3906C50.396 11.5737 50.5791 12.1491 50.5791 12.1491C50.5791 12.1491 51.7822 11.8614 52.0438 12.3845C52.5015 12.3191 52.8284 12.3845 52.8284 12.3845C52.8284 12.3845 53.77 12.1491 54.0969 12.1491C54.4238 12.1491 55.47 12.4107 55.5746 12.6199C55.6661 12.803 56.0192 14.1107 56.2546 14.0845C56.49 14.0715 55.6923 14.3984 55.47 14.0715C55.2608 13.7445 55.3261 14.503 55.3261 14.503C55.3261 14.503 55.98 15.1961 56.0585 15.353C56.1369 15.51 55.6531 16.7654 56.0192 17.6415C55.6923 17.6677 55.6661 18.0077 55.6661 18.0077C55.6531 18.4 55.1692 18.4916 55.1692 18.4916L55.0384 17.9685L54.7246 18.1646L54.8554 17.7592C54.8554 17.7592 55.3 16.6738 55.3392 16.3207C55.3784 15.9677 54.9338 15.353 54.5807 15.353C54.2277 15.353 53.9792 16.4646 53.9792 16.4646C53.9792 16.4646 53.8092 17.2885 53.8615 17.38L53.6261 17.1054C53.6261 17.1054 53.4823 17.6023 53.3646 17.7592C53.2338 17.9162 52.9853 17.9685 52.9853 17.9685C52.9853 17.9685 52.8153 17.4715 52.8807 17.2754C52.933 17.0792 53.8223 16.3207 53.7438 15.7846C53.6653 15.2353 53.7438 15.3661 53.7307 15.353C53.7046 15.3269 53.2599 14.9476 53.2469 14.7253C53.2207 14.5161 52.6584 14.9999 51.9261 14.8561C51.7038 15.2484 51.6645 16.2292 51.6645 16.2292C51.6645 16.2292 51.5991 17.4061 51.743 17.5369C51.8999 17.6808 51.3507 17.9685 51.3507 17.9685L50.9714 18.4916L50.8407 18.1908L50.566 18.3869L50.723 17.9946C50.7099 17.6938 51.1022 16.8961 51.1022 16.2161C51.1022 15.5361 51.1414 14.8038 51.1414 14.8038C51.1414 14.8038 50.4353 14.7646 50.4483 15.51C50.4614 16.2423 50.2783 16.2946 50.3176 16.4907C50.3568 16.7131 50.5399 17.3146 50.4876 17.4846C50.4353 17.6677 50.1999 17.72 50.1999 17.72L50.1345 17.8115C50.1345 17.8115 49.4152 18.1516 49.4414 18.2823L49.4152 17.89L49.376 17.3277C49.376 17.3277 49.8076 17.0661 49.8076 16.3861C49.8076 15.7061 49.716 15.6015 49.7291 15.4446C49.7422 15.2876 49.8468 14.7253 49.8206 14.6599C49.8076 14.6076 49.4283 14.8299 49.2975 14.8299C49.1799 14.8299 49.5199 14.4245 49.5591 14.1238C49.5983 13.8361 49.1668 14.3984 48.8137 14.0715C48.9837 13.7184 49.2191 13.6007 49.2583 13.3391C49.2975 13.0645 48.9968 13.5615 48.7222 13.3653C48.7483 13.1037 49.0099 12.8814 49.0099 12.8814C49.0099 12.8814 48.7875 12.8553 48.696 12.8814C48.526 12.8291 48.8922 12.5545 48.9183 12.1622C48.9314 11.7699 48.696 11.626 48.696 11.5999C48.696 11.5868 48.3037 11.2599 48.2514 11.116C48.1991 10.9852 48.1991 10.8283 48.1991 10.8283C48.1991 10.8283 47.5452 11.2991 46.7998 10.3052C47.4929 9.71671 48.2383 10.1483 48.2383 10.1483C48.2383 10.1483 48.4345 9.599 49.3237 9.63824C50.213 9.67747 50.396 10.1875 50.3568 10.1352H50.3437Z" fill="#923F00" stroke="black" stroke-width="0.130772"/>
<path d="M55.2414 20.1633C55.2545 20.1633 56.8891 20.2156 56.9022 21.0918C56.9283 21.968 56.4053 21.7457 56.3791 21.7457L55.2021 21.5887L55.2414 20.1633Z" fill="#0000FF" stroke="black" stroke-width="0.130772"/>
<path d="M53.6572 19.9304C53.6572 19.9304 55.6973 19.9174 55.5796 20.8066C55.4619 21.6959 54.9519 21.5128 54.9519 21.5128L53.958 21.4343L53.6572 19.9304Z" fill="#FFFEFF" stroke="black" stroke-width="0.130772"/>
<path d="M52.5014 19.8364L53.6783 19.928C53.6783 19.928 54.3976 20.0195 54.3583 20.7126C54.3322 21.3795 53.6391 21.3926 53.6391 21.3926L52.4883 21.3272L52.5014 19.8364Z" fill="#0000FF" stroke="black" stroke-width="0.130772"/>
<path d="M49.7491 20.1633C49.7229 20.1633 48.1013 20.2156 48.0752 21.0918C48.0752 21.968 48.5852 21.7457 48.5983 21.7457L49.7883 21.5887L49.7491 20.1633Z" fill="white" stroke="black" stroke-width="0.130772"/>
<path d="M51.3267 19.9304C51.3267 19.9304 49.2866 19.9174 49.4043 20.8066C49.5089 21.6959 50.032 21.5128 50.032 21.5128L51.0128 21.4343L51.3267 19.9304Z" fill="#0000FF" stroke="black" stroke-width="0.130772"/>
<path d="M52.4791 19.8364L51.3022 19.928C51.3022 19.928 50.5829 20.0195 50.6091 20.7126C50.6483 21.3795 51.3414 21.3926 51.3414 21.3926L52.4922 21.3272L52.4791 19.8364Z" fill="white" stroke="black" stroke-width="0.130772"/>
<path d="M55.6285 29.6459C55.6285 29.6459 56.4785 28.4035 56.8446 28.5343C57.1585 28.6389 56.91 29.6066 56.7662 29.6982L55.6285 29.6459ZM49.8222 29.8682C49.5476 29.502 49.1683 28.4689 48.8022 28.7566C48.4883 28.8612 48.7237 29.8289 48.8806 29.9205L49.8222 29.8682Z" fill="#5E0043" stroke="black" stroke-width="0.130772"/>
<path d="M50.3711 27.3977C50.3711 27.3977 52.0319 28.4177 52.5681 28.4438C53.1173 28.47 54.8304 27.123 54.8304 27.123" stroke="black" stroke-width="0.130772"/>
<path d="M50.543 23.4082L50.8568 23.0159L52.4392 23.8005L54.0607 23.0813L54.3746 23.4213L52.5699 24.6898L50.543 23.4082Z" fill="#5E0043" stroke="black" stroke-width="0.130772"/>
<path d="M49.2778 23.382C49.8943 24.093 50.3534 24.9264 50.6248 25.8274C50.8078 26.8605 50.5201 24.402 50.5201 24.402C50.5201 24.402 51.7886 25.0297 51.8279 25.422C51.8671 25.8143 52.4294 25.3959 52.4556 25.3305L48.7939 22.9504L49.2778 23.382ZM55.5549 23.3166C55.5549 23.3166 54.221 25.0689 54.3779 26.9782C54.1033 26.0628 54.3256 24.5589 54.3256 24.5589L54.0379 24.742C54.0379 24.742 53.7241 26.0367 53.3448 26.2328C53.2794 26.0759 53.2925 26.0236 53.2925 26.0236C53.2925 26.0236 52.8871 26.5467 52.8086 26.599C52.7302 26.6513 52.8348 28.3906 52.8348 28.3906C52.8348 28.3906 52.9656 29.646 53.1225 29.6329C52.9887 29.7014 52.8578 29.7756 52.7302 29.8552L52.5602 26.5074L52.9394 26.1282C52.9394 26.1282 53.4364 25.5136 53.4756 24.9251C53.2664 25.1082 53.0179 25.1605 53.0179 25.1605C53.0179 25.1605 52.9525 26.0105 52.7563 26.1282C52.5471 26.259 52.5471 26.4682 52.5471 26.4682L52.4948 25.3566L55.5549 23.3166Z" fill="#474747" stroke="#474747" stroke-width="0.130772" stroke-linejoin="round"/>
<path d="M52.4883 25.3452L52.7498 30.6415" stroke="black" stroke-width="0.130772" stroke-linecap="round"/>
<path d="M49.2354 27.8789C49.2354 27.8789 49.85 28.232 50.0723 29.3174C52.06 29.1735 52.6877 29.8666 52.6877 29.8666C52.6877 29.8666 54.3093 29.082 55.0678 29.2389C55.3293 28.6766 56.0878 27.9704 56.0878 27.9704" stroke="black" stroke-width="0.130772"/>
<path d="M48.4093 22.6883L52.4894 25.356L56.1772 22.8844C56.1772 22.8844 56.9356 22.4659 56.8702 22.1652C56.8049 21.8513 56.5433 21.969 56.4125 22.0344C56.2818 22.0736 52.5548 24.7152 52.5548 24.7152L48.6055 22.2044C48.6055 22.2044 48.3178 22.1129 48.2654 22.309C48.2131 22.4921 48.3701 22.5967 48.4093 22.6883Z" fill="#B4B6B9" stroke="black" stroke-width="0.130772"/>
<path d="M55.7059 21.9949C55.7059 21.9949 54.6597 21.5503 54.6597 21.9295C54.6597 22.3218 54.6989 22.3611 54.8689 22.6095C55.0389 22.8449 54.7382 23.0019 54.7382 23.0019L54.6336 22.7403C54.5812 22.5703 54.0189 22.4526 53.9797 22.2434C53.9143 22.0472 54.0843 21.7334 53.7574 21.6941C53.4174 21.6549 53.0904 21.8249 53.0251 22.2172C52.8923 22.6584 52.7217 23.0871 52.515 23.4988L52.5804 21.4587C53.3128 21.511 54.6728 21.668 55.732 21.7987C55.4182 21.7464 55.8628 21.8118 55.8367 21.9295C55.8105 22.008 55.7059 22.0211 55.7059 21.9949ZM52.0181 21.4849C51.5552 21.5022 51.0972 21.5859 50.6581 21.7334C50.4227 21.8641 51.0504 22.0864 50.9589 22.2565C50.8804 22.4526 50.8673 22.8318 50.5665 22.7534C50.2788 22.6749 49.285 22.178 49.2588 22.008C49.2196 21.8511 49.0234 21.838 49.0234 21.838C49.0234 21.838 51.8743 21.4457 52.0181 21.4849Z" fill="#474747" stroke="#474747" stroke-width="0.130772" stroke-linejoin="round"/>
<path d="M52.4655 21.2513V23.7491M50.5432 18.2959L49.3662 20.2052" stroke="black" stroke-width="0.130772"/>
<path d="M52.6523 18.2427C52.6523 18.2427 53.1493 18.9227 53.097 19.1188C53.2931 19.2758 53.5285 19.9035 53.5285 19.9035" fill="url(#paint3_linear_12589_5217)"/>
<path d="M52.6523 18.2427C52.6523 18.2427 53.1493 18.9227 53.097 19.1188C53.2931 19.2758 53.5285 19.9035 53.5285 19.9035" stroke="black" stroke-width="0.130772"/>
<path d="M54.573 18.1365C54.573 18.1365 53.5007 19.6534 53.5268 19.7711" stroke="black" stroke-width="0.130772"/>
<path d="M49.0515 10.9065C49.0254 10.9849 48.8946 11.0242 48.7507 10.9849C48.6069 10.9326 48.5023 10.828 48.5284 10.7495C48.5546 10.658 48.6984 10.6188 48.8423 10.6711C48.9731 10.7103 49.0777 10.8149 49.0515 10.9065ZM49.4961 10.8803C49.5223 10.9588 49.6531 10.998 49.7969 10.9457C49.9408 10.9065 50.0454 10.8018 50.0192 10.7103C49.9931 10.6318 49.8492 10.5926 49.7054 10.6449C49.5746 10.6841 49.47 10.7888 49.4961 10.8803Z" fill="black"/>
<path d="M62.117 42.3701C62.117 42.3701 61.6985 42.4355 61.7247 42.4747C61.7247 42.514 60.5477 42.5532 60.5346 42.514C60.5085 42.4747 60.3516 42.7101 60.3516 42.7101L60.5477 42.5924C60.5477 42.5924 60.8354 42.8932 60.9139 42.867C61.0054 42.854 60.8746 42.9978 60.9139 43.0109C60.927 43.0371 61.0185 42.9586 61.0185 42.9586L62.9539 42.9324L62.117 42.3701ZM62.8232 42.9586L61.2539 43.0109C61.2539 43.0109 60.8485 43.3771 60.8223 43.4555C60.7962 43.5471 61.0839 43.5732 61.0839 43.5732L61.1624 43.874L61.3716 43.7955C61.3716 43.7955 62.7185 43.9917 63.9478 43.7171C64.5755 43.5078 64.6932 43.2463 64.2486 43.0763C63.817 42.9194 62.8362 42.9717 62.8232 42.9586Z" fill="#FF7000" stroke="black" stroke-width="0.130772" stroke-linejoin="round"/>
<path d="M57.4087 46.2158L60.2465 46.085L59.7234 45.6404L67.4389 45.3265L67.1774 44.7119L58.5333 45.065L59.5795 45.5489L57.2256 45.6142L57.3041 45.8627L56.6895 45.8366C56.6895 45.8366 57.3825 46.0981 57.3956 46.2289L57.4087 46.2158Z" fill="url(#paint4_linear_12589_5217)" stroke="black" stroke-width="0.130772"/>
<path d="M60.5996 30.4557C60.3773 30.338 59.3704 30.1942 58.2588 30.9265L58.3111 33.4896C58.3111 33.4896 59.9458 32.6135 60.7304 32.8096C60.6912 32.025 60.6912 31.005 60.5996 30.4557Z" fill="url(#paint5_linear_12589_5217)" stroke="black" stroke-width="0.130772"/>
<path d="M44.8174 38.2385L38.0957 44.9079M47.8251 38.2778L42.3589 45.4702M47.5767 36.4077L40.2927 45.2348M40.0704 45.1171L40.7765 44.2802M48.9629 40.8409L46.1382 44.7379M46.0205 45.2479L46.0859 46.7387M50.2575 42.2009L47.2497 45.9672M49.7213 45.6664L50.9375 43.6656M50.1921 43.2863L48.7275 44.9341M49.7475 41.7171L48.7536 42.9332M48.4528 39.9386C48.4528 39.9386 45.4059 44.3979 45.4582 44.7771M48.139 39.3632C48.0605 39.4024 45.5105 42.7894 45.5105 42.7894M45.3666 43.8617L44.8958 44.424M44.3074 45.2741L43.6012 46.2025" stroke="black" stroke-width="0.130772"/>
<path d="M44.4904 27.959C44.4904 27.959 44.2812 28.6129 44.4904 28.9398C44.6997 29.2667 45.9943 31.8822 45.9943 31.8822C45.9943 31.8822 46.8836 30.7967 47.2105 30.7706C47.5243 30.7314 47.3805 33.5953 47.3805 33.5953C47.3805 33.5953 46.8574 34.0922 46.5305 34.066C46.2035 34.0399 47.3151 35.1907 47.289 36.1584C47.2628 37.1392 45.8243 41.9778 45.2881 42.0562C44.7651 42.1478 45.5235 41.18 45.4974 40.9054C45.4581 40.6439 45.3143 40.827 45.1966 40.5262C45.0789 40.2385 45.3797 39.7939 45.3274 39.4931C45.262 39.2054 44.9874 39.2577 44.9612 39.0485C44.9351 38.8392 45.1443 38.7869 45.1051 38.5515C45.0789 38.3161 44.752 38.3684 44.7912 38.1592C44.8174 37.9631 44.8435 38.0546 44.8174 37.6623C44.7912 37.283 44.7258 37.9238 44.3989 37.9631C44.072 37.9892 43.8104 38.7346 43.8104 38.7346C43.8104 38.7346 43.1566 39.65 42.5158 39.2315C42.9081 40.0554 42.6073 40.4085 42.4504 40.4346C42.3196 40.4739 42.5812 41.0885 42.215 41.1147C41.8619 41.1408 42.4765 42.5008 42.0842 42.6185C42.5158 42.8278 42.1627 43.0893 42.1627 43.0893C42.1627 43.0893 41.1427 43.1809 41.365 44.5147C38.3572 43.4424 36.8795 41.6247 36.9187 39.7546C36.9449 37.8977 37.5334 36.2238 38.9719 35.6092C39.3903 34.066 40.0965 32.4183 40.0965 32.4183C40.0965 32.4183 39.9788 31.7383 40.0703 31.2937C40.1668 30.9674 40.3368 30.6676 40.5673 30.4175C40.5673 30.4175 40.515 29.3452 40.5411 28.8221C40.5673 28.299 40.7765 28.0505 40.8027 27.7628C40.8288 27.4621 40.7111 25.9582 41.0119 25.6966C41.2996 25.4351 41.8619 25.4612 42.1627 25.2782C42.4504 25.1082 42.8427 24.7812 43.2219 24.8074C43.6143 24.8335 43.9281 25.1082 43.9281 25.1082C43.9281 25.1082 45.3666 25.1082 45.4581 25.6574C45.5497 26.2197 45.1704 26.442 45.1704 26.442C45.1704 26.442 45.3797 27.2267 44.4904 27.959Z" fill="#8A9396" stroke="#2B2B2B" stroke-width="0.130772"/>
<path d="M43.2076 25.9202C43.2469 26.0117 43.1423 26.1556 42.9723 26.2471C42.7892 26.3387 42.6192 26.3517 42.5799 26.2733C42.5276 26.1817 42.6322 26.0379 42.8023 25.9463C42.9853 25.8417 43.1553 25.8417 43.1946 25.9202H43.2076Z" fill="#CECFCF" stroke="#2B2B2B" stroke-width="0.130772"/>
<path d="M42.9606 26.0751C42.9606 26.1274 42.9083 26.1666 42.856 26.1666C42.7906 26.1666 42.7383 26.1274 42.7383 26.0751C42.7383 26.0097 42.7906 25.9705 42.856 25.9705C42.9083 25.9705 42.9606 26.0097 42.9606 26.0751Z" fill="black"/>
<path d="M45.1162 27.0445C45.1162 27.0445 45.4693 28.6399 45.0508 29.7515M45.2339 26.3514C45.2339 26.3514 45.927 27.2668 45.8354 28.4176M45.2992 26.1553C45.3123 26.1553 45.8877 26.6391 45.8616 26.9791M45.43 25.946C45.43 25.946 45.8223 26.2076 45.9008 26.4822" stroke="#2B2B2B" stroke-width="0.065386"/>
<path d="M45.2439 25.7866C45.2439 25.7866 43.8708 28.0097 44.0539 29.409" stroke="black" stroke-width="0.130772"/>
<path d="M45.3364 25.709C45.3364 25.709 43.5056 26.7944 43.1787 30.3383" stroke="#2B2B2B" stroke-width="0.065386"/>
<path d="M45.1454 26.3628L44.4131 26.912" stroke="black" stroke-width="0.130772"/>
<path d="M42.501 30.5345C42.501 30.5345 43.521 26.3236 45.3126 25.709" stroke="#2B2B2B" stroke-width="0.065386"/>
<path d="M46.0146 31.9625C46.0146 31.9625 46.9823 30.7464 47.2046 30.7856C47.4269 30.8379 47.3615 33.6103 47.3615 33.6103C47.3615 33.6103 46.6423 34.1464 46.4854 34.1334C46.3284 34.1072 47.2961 35.4411 47.27 35.9249C47.2569 36.4219 47.2308 36.4219 47.2308 36.4219C47.2308 36.4219 47.2308 36.1342 47.0084 35.6634C46.7731 35.1795 46.9169 34.6434 45.4392 33.4403C45.0861 32.7079 46.1715 33.898 46.3938 33.7149C46.6161 33.5449 46.0015 31.9887 46.0015 31.9625H46.0146Z" fill="#2B2B2B" stroke="#2B2B2B" stroke-width="0.130772"/>
<path d="M44.2955 25.1082C44.2955 25.1082 43.8901 25.2128 43.8377 25.3697C43.7724 25.5528 43.537 25.7097 43.4062 25.6574C43.2754 25.6051 43.04 25.3959 43.04 25.3959" stroke="#2B2B2B" stroke-width="0.130772"/>
<path d="M41.9816 26.5344C41.9816 26.5344 41.367 27.136 41.6677 27.2144C41.9685 27.2929 42.2824 26.7306 42.2824 26.7306C42.2824 26.7306 42.2824 27.6852 42.5439 27.5283C42.8054 27.3844 43.5508 26.8483 43.5508 26.8483C43.5508 26.8483 43.8124 26.8221 43.8778 26.8483C43.9301 26.8614 44.5709 27.4237 45.0024 27.2144C44.754 27.8421 44.4793 27.9206 44.4793 27.9206C44.4793 27.9206 44.0347 28.496 43.4593 28.3652C42.8839 28.2345 42.7401 27.9991 42.7401 27.9991C42.7401 27.9991 42.2562 28.0252 42.1124 27.8029L41.9031 27.4629C41.9031 27.4629 41.6416 27.7244 41.55 27.5937C41.4846 27.4629 41.55 26.7175 41.9816 26.5344Z" fill="#2B2B2B" stroke="#2B2B2B" stroke-width="0.130772" stroke-linejoin="round"/>
<path d="M45.4416 25.6841C45.4416 25.6841 44.317 25.3441 43.9247 25.9065C43.5324 26.4557 43.6239 26.7696 43.8331 26.8219" stroke="#2B2B2B" stroke-width="0.130772"/>
<path d="M45.6167 25.646C45.6167 25.7768 45.5252 25.8945 45.4075 25.8945C45.2767 25.8945 45.1982 25.7768 45.1982 25.646C45.1982 25.5153 45.2898 25.4106 45.4075 25.4106C45.5252 25.4106 45.6167 25.5153 45.6167 25.646Z" fill="black"/>
<path d="M42.3303 28.5352C42.3303 28.5352 42.788 29.2414 43.3372 29.4375C43.8865 29.6337 42.9449 29.7906 42.4088 29.4375C42.0164 28.8883 42.1211 28.496 42.1211 28.496C42.1211 28.496 42.2257 28.3913 42.3303 28.5352ZM46.2665 32.7068C46.2665 32.7068 44.9719 30.9153 44.6057 30.8106C44.2265 30.7191 44.8934 30.6406 45.2857 31.0199C45.6781 31.4122 45.1811 30.4052 45.1811 30.4052L46.2665 32.7068Z" fill="#2B2B2B" stroke="#2B2B2B" stroke-width="0.130772"/>
<path d="M42.1995 43.1023C42.6965 42.9715 44.8673 44.3446 45.338 44.6846C45.835 45.0377 46.855 44.8154 46.855 44.8154C46.855 44.8154 46.3842 45.1031 46.0965 45.1685C45.7958 45.2338 46.9596 45.2338 46.9596 45.2338C46.9596 45.2338 44.2003 46.0054 41.3887 44.5277C41.1272 43.3769 41.9903 43.1153 42.1995 43.1023Z" fill="#2B2B2B" stroke="#2B2B2B" stroke-width="0.130772" stroke-linejoin="round"/>
<path d="M45.3808 33.1498C45.3808 33.1498 45.0016 33.0844 44.8185 32.8751C44.6354 32.6528 44.3739 32.1297 44.0993 31.9074C43.8247 31.6982 42.4515 30.9397 41.9546 30.992C41.4577 31.0443 41.3008 30.9397 41.2354 30.8743C41.1831 30.8089 40.9738 30.9005 41.0131 31.162C41.0523 31.4236 40.6207 31.9859 40.7777 32.2474C41.0634 32.7437 41.401 33.2084 41.7846 33.6336C41.9154 33.6728 41.8369 34.2613 41.8369 34.2613C41.8369 34.2613 42.4646 34.9021 42.6216 34.9283C42.7785 34.9675 42.9485 35.0852 42.9223 35.2421C42.9093 35.386 42.2292 36.2098 42.2292 36.2098C42.2292 36.2098 41.51 36.6021 41.4969 36.7983C41.4969 37.0206 41.68 37.4522 42.2554 37.596C42.9871 37.7134 43.7351 37.6777 44.4524 37.4914C44.5308 37.3606 44.6616 36.576 44.6093 36.4844C44.557 36.406 44.1777 36.1706 43.9816 36.1967C43.7854 36.236 43.6023 36.3929 43.6285 36.4321C43.6416 36.4714 43.3539 36.6152 43.3539 36.4714C43.3539 36.3406 43.9293 35.6867 43.9816 35.7521C44.0339 35.8044 44.8447 35.8829 45.0016 36.2883C45.1455 36.6937 45.1455 36.9945 45.577 36.9421C45.9955 36.9029 46.597 36.5106 46.6493 35.6998C46.6695 35.4283 46.6242 35.156 46.5173 34.9057C46.4104 34.6553 46.2449 34.4344 46.0347 34.2613C45.9039 34.1698 45.4593 33.9082 45.4201 33.7775C45.3939 33.6467 45.2893 33.2544 45.3678 33.1498H45.3808Z" fill="#2B2B2B" stroke="#2B2B2B" stroke-width="0.130772"/>
<path d="M37.6986 36.7481C37.6986 36.7481 39.0717 36.395 39.4248 36.4081C39.7778 36.4081 41.1248 37.0358 41.5171 37.415C41.9094 37.8073 42.6941 38.6966 43.2172 38.6181C43.7402 38.5397 43.8972 38.435 43.8972 38.435L43.6879 38.8274C43.6879 38.8274 43.2695 38.945 43.0472 38.8927C42.8379 38.8404 42.4194 38.6966 42.001 38.2912C41.5956 37.8989 40.3009 36.7873 39.2155 36.8658C38.1301 36.9442 37.5024 38.0166 37.5024 38.0166C37.5024 38.0166 37.5024 37.4935 37.5547 37.3758C37.594 37.2712 37.3193 37.6373 37.3193 37.6373L37.6986 36.7481Z" fill="#2B2B2B" stroke="#2B2B2B" stroke-width="0.130772"/>
<path d="M42.7622 37.8192C42.7622 37.8192 43.1022 37.9107 43.6776 37.9107C44.2399 37.9107 44.5407 37.6622 44.5407 37.6622L44.5015 37.4399L44.593 37.1392C44.593 37.1392 45.0246 37.5707 45.0246 37.6622C45.0246 37.7538 44.8415 37.793 44.8415 37.793L44.7761 37.5707L44.6322 37.7669C44.6322 37.7669 43.8084 38.4207 43.3507 38.3161C42.906 38.2246 42.4876 37.9238 42.6053 37.8584C42.723 37.793 42.7753 37.8192 42.7622 37.8192ZM40.7614 38.97C40.7614 38.97 40.2645 38.97 40.0421 39.0746C39.8198 39.1792 39.7414 39.31 39.5844 39.2969C39.4406 39.2707 39.3229 39.0877 39.3621 39.0092C39.4275 38.8784 39.7283 38.7215 40.2775 38.7607C40.8399 38.813 40.7614 38.97 40.7614 38.97ZM42.5007 40.3169C42.5007 40.2908 42.4614 39.5977 42.1868 39.31C42.0911 39.2087 41.9715 39.1329 41.8391 39.0895C41.7066 39.0461 41.5654 39.0365 41.4283 39.0615C41.2714 39.1007 41.9776 39.4146 42.056 39.6108C42.1214 39.82 42.3568 40.3954 42.2914 40.5262C42.226 40.6569 42.1214 40.1338 41.6768 39.9769C41.2452 39.82 40.6437 39.9115 40.7614 40.1077C40.8922 40.2908 41.376 40.1077 41.6245 40.5392C41.7854 40.8135 41.9295 41.0975 42.056 41.3893L42.1476 41.0885L42.3568 41.0362L42.396 40.4608L42.5007 40.3169Z" fill="#2B2B2B" stroke="#2B2B2B" stroke-width="0.130772"/>
<path d="M42.1469 42.5928L41.6892 41.6774C41.6892 41.6774 41.5584 41.1151 41.1661 40.9582C40.7738 40.7882 40.2768 40.8274 40.2768 41.0105C40.2637 41.2066 41.0876 41.4551 41.1399 41.5597C41.1922 41.6643 41.1661 41.8474 41.1007 41.8605C41.0222 41.8605 40.6561 41.7297 40.473 41.769C40.2899 41.8082 40.1853 42.0567 39.9107 41.9782C39.636 41.9128 39.4007 41.0366 39.5183 40.932C39.6099 40.8536 39.3091 41.102 39.2437 40.8666C39.1783 40.6443 39.3353 39.9251 39.2306 39.8335C39.126 39.742 38.6029 39.4412 38.6029 39.3758C38.5899 39.3104 38.6291 35.845 41.5192 38.722C40.2768 37.2442 39.793 37.4143 39.5576 37.4012C39.4007 37.4012 38.2629 37.4927 37.9883 38.9312C37.7006 40.3697 37.3606 39.4674 37.3606 39.4674C37.3606 39.4674 37.3083 40.0951 37.6091 40.2651C37.9099 40.4482 37.4652 40.9582 37.4652 40.9582C37.4652 40.9582 36.916 39.6505 37.0075 39.062C36.8898 39.5197 36.9029 40.6705 37.5829 41.9128C38.5549 43.0143 39.7738 43.8702 41.1399 44.4106C42.1861 42.8021 42.1469 42.6059 42.1469 42.5797V42.5928Z" fill="#2B2B2B" stroke="#2B2B2B" stroke-width="0.130772" stroke-linejoin="round"/>
<path d="M40.2481 42.6043C40.2481 42.6043 40.8235 42.6697 40.9804 42.9705C41.1504 43.2713 41.2158 43.729 41.2158 43.729C41.3204 43.5328 41.3466 43.3759 41.5558 43.232C41.752 43.0882 41.8958 43.062 41.8827 42.9705C41.8827 42.8528 41.255 42.212 40.9542 42.1728C40.6404 42.1335 40.1042 42.5128 40.1042 42.5128C40.1042 42.5128 39.9996 42.6436 40.235 42.6043H40.2481Z" fill="#8A9396" stroke="#2B2B2B" stroke-width="0.130772" stroke-linejoin="round"/>
<path d="M41.585 44.1233C41.585 44.1233 43.1019 44.8164 45.5866 44.8556" stroke="#8A9396" stroke-width="0.130772" stroke-linecap="round"/>
<path d="M46.6448 37.0862C46.6448 37.0862 46.514 38.3547 45.5332 40.8786" stroke="#2B2B2B" stroke-width="0.130772" stroke-linecap="round"/>
<path d="M46.4485 37.8708C46.4485 37.8708 46.1477 38.7863 45.3369 39.4663" stroke="#2B2B2B" stroke-width="0.130772"/>
<path d="M42.0186 53.655L42.2801 53.3673L42.3586 53.4327L42.3455 53.4588L42.3193 53.4981V53.5242L42.3455 53.5504L42.6855 53.8511L42.7116 53.8773H42.7378L42.7509 53.8511C42.7857 53.8163 42.8075 53.7815 42.8163 53.7465C42.8336 53.7117 42.838 53.6769 42.8293 53.6419C42.8293 53.5984 42.8119 53.5548 42.777 53.5111L42.8817 53.4588L43.0386 53.7204L42.6201 54.1911L42.5416 54.1258L42.5678 54.0865L42.5809 54.0604V54.0342L42.5547 54.0081L42.2147 53.7073L42.1755 53.6811H42.1624L42.1232 53.7073L42.097 53.7334L42.0186 53.655ZM42.594 53.0142L43.0778 52.5434L43.3132 52.6611L43.274 52.7527L43.1432 52.7265L43.0647 52.7527C43.0386 52.7614 43.0124 52.7832 42.9863 52.818L42.8947 52.8965L43.0255 53.0404L43.0647 53.0142C43.0909 52.9968 43.104 52.9794 43.104 52.9619V52.9357L43.0778 52.8965L43.0517 52.8704L43.1301 52.7919L43.3655 53.0404L43.287 53.1057L43.2609 53.0927L43.2217 53.0534H43.1955L43.1432 53.0927L43.117 53.1188L43.2478 53.2496L43.274 53.2757H43.287L43.3132 53.2496L43.3655 53.2104L43.444 53.1057C43.4613 53.0709 43.4657 53.0273 43.457 52.975C43.457 52.9401 43.444 52.9009 43.4178 52.8573L43.5224 52.805L43.6532 53.1057L43.1563 53.5896L43.0778 53.5111H43.104L43.1301 53.4588V53.4327L43.104 53.3934L42.7901 53.0796L42.7509 53.0534H42.7247L42.6986 53.0665L42.6724 53.0927L42.594 53.0142ZM43.6009 52.0465C43.7055 51.9593 43.8101 51.9201 43.9147 51.9288C44.0281 51.9376 44.124 51.9898 44.2024 52.0857C44.2548 52.1467 44.2896 52.2121 44.3071 52.2819C44.3244 52.3603 44.3201 52.4301 44.294 52.4911C44.2678 52.5609 44.2198 52.6263 44.1501 52.6873C44.0629 52.7657 43.9671 52.805 43.8624 52.805C43.7404 52.805 43.6357 52.7527 43.5486 52.648C43.4613 52.5609 43.4265 52.4606 43.444 52.3473C43.4527 52.234 43.505 52.1337 43.6009 52.0465ZM43.6924 52.138C43.6488 52.1817 43.627 52.234 43.627 52.295C43.627 52.3647 43.6575 52.4345 43.7186 52.5042C43.7796 52.574 43.845 52.6176 43.9147 52.635C43.9671 52.635 44.015 52.6176 44.0586 52.5827C44.1109 52.5478 44.1371 52.5042 44.1371 52.4519C44.1371 52.3734 44.1021 52.2993 44.0324 52.2296C43.9975 52.186 43.954 52.1511 43.9017 52.125C43.8667 52.1076 43.8275 52.0988 43.784 52.0988C43.749 52.0988 43.7186 52.1119 43.6924 52.138ZM44.4901 51.3272L44.5555 51.288L44.5686 51.3011L44.9478 51.0395V51.0134L45.0002 50.9742L45.2486 51.1442L45.1832 51.2357L45.0917 51.1965C45.0568 51.1791 45.0219 51.1747 44.9871 51.1834L44.9348 51.1965L44.9217 51.2095V51.2357L45.1963 51.628L45.2225 51.6673H45.2617L45.3271 51.628L45.3794 51.7196L45.0655 51.955L45.0002 51.8634L45.0132 51.8503L45.0525 51.8111V51.7849L45.0394 51.7457L44.7648 51.3534L44.7386 51.3272L44.7255 51.3403C44.7081 51.3491 44.695 51.3665 44.6863 51.3926C44.6688 51.4188 44.6601 51.4493 44.6601 51.4842L44.6732 51.5888L44.5686 51.6149L44.4901 51.3272ZM45.2225 50.8695L45.7979 50.5034L46.0202 50.6734L45.9417 50.7649L45.8371 50.7126H45.7456C45.7194 50.7126 45.6889 50.7257 45.654 50.7518L45.5494 50.8172L45.654 50.9872L45.6802 50.9611L45.7325 50.9349V50.8957L45.7194 50.8434L45.7063 50.8172L45.7979 50.7649L45.9679 51.0657L45.8763 51.118L45.8633 51.0788L45.824 51.0395H45.7979L45.7456 51.0657L45.7063 51.0788L45.8109 51.2488L45.824 51.2749H45.8371L45.8763 51.2619L45.9286 51.2226L46.0333 51.1442L46.0725 51.0265V50.8957L46.1771 50.8695L46.2425 51.1834L45.6409 51.5496L45.5886 51.458L45.6017 51.4449L45.6409 51.4057C45.6496 51.4057 45.6496 51.397 45.6409 51.3796V51.3403L45.4056 50.9611L45.3663 50.9218H45.3532L45.314 50.9349L45.2879 50.948L45.2225 50.8565V50.8695ZM46.0333 50.3726L46.491 50.1372L46.5825 50.098C46.6173 50.0806 46.6566 50.0762 46.7002 50.0849C46.735 50.0849 46.7656 50.0937 46.7917 50.1111L46.8571 50.1895C46.892 50.2505 46.8964 50.3072 46.8702 50.3595C46.8527 50.4118 46.8179 50.4555 46.7656 50.4903L47.001 50.5949H47.014L47.0533 50.608H47.0925L47.1187 50.5949L47.1579 50.5818L47.1971 50.6734L46.9748 50.8042L46.5825 50.608L46.5171 50.6342L46.5956 50.778L46.6217 50.8303H46.6871L46.7133 50.8042L46.7656 50.9088L46.4125 51.0919L46.3602 50.9872L46.3994 50.9742L46.4256 50.948L46.4386 50.9218L46.4256 50.8826L46.2163 50.4772L46.1902 50.4511C46.1902 50.4424 46.1814 50.4424 46.164 50.4511H46.1248L46.0986 50.4641L46.0463 50.3726H46.0333ZM46.3733 50.3465L46.4648 50.5295L46.5694 50.4772C46.6129 50.4599 46.6435 50.438 46.661 50.4118L46.6871 50.3595V50.2941L46.6348 50.2549H46.5825L46.491 50.2811L46.3602 50.3465H46.3733ZM46.9487 49.9018L47.4194 49.6926L47.511 49.6664H47.6287C47.6635 49.6664 47.6941 49.6752 47.7202 49.6926L47.7856 49.7841C47.8118 49.8364 47.8118 49.8887 47.7856 49.9411C47.7594 49.9934 47.7202 50.037 47.6679 50.0718L47.9033 50.1895L47.9556 50.2026H48.021L48.0471 50.1764L48.0995 50.2811L47.8641 50.3857L47.4717 50.1764L47.4194 50.2026L47.4848 50.3465L47.511 50.3988H47.5633L47.6025 50.3857L47.6418 50.4772L47.2887 50.6472L47.2364 50.5426L47.2756 50.5295L47.3017 50.5034L47.3148 50.4772L47.3017 50.438L47.1187 50.0195C47.1187 50.0022 47.1099 49.9891 47.0925 49.9803H47.0271L47.001 50.0064L46.9617 49.9018H46.9487ZM47.2887 49.9018L47.3671 50.098L47.4848 50.0457L47.5764 49.9934C47.5937 49.9759 47.6025 49.9541 47.6025 49.928V49.8757L47.5633 49.8234H47.4979L47.4064 49.8495L47.2756 49.9018H47.2887ZM48.1779 49.3918L48.3479 49.3264L48.7925 49.8364L48.8449 49.8757H48.9102L48.9364 49.9803L48.5833 50.1111L48.5441 50.0064L48.5702 49.9934C48.5876 49.9934 48.6007 49.9847 48.6095 49.9672V49.9411L48.5833 49.9149L48.531 49.8495L48.3087 49.928V50.0588L48.3479 50.0718L48.4002 50.0588L48.4395 50.1634L48.1387 50.268L48.0995 50.1634C48.1168 50.1634 48.1299 50.1547 48.1387 50.1372L48.1518 50.1241V50.0718L48.1779 49.3918ZM48.3087 49.8103L48.4525 49.758L48.3087 49.5749V49.8103ZM48.8056 49.1695L49.1587 49.0649L49.4333 49.4964V48.9733L49.7995 48.8818L49.8256 48.9864L49.7864 48.9995C49.7689 48.9995 49.7559 49.0083 49.7472 49.0257V49.078L49.878 49.5226L49.891 49.5487L49.9172 49.5618H49.9956L50.0218 49.6534L49.6426 49.7711L49.6164 49.6534H49.6426C49.6687 49.6534 49.6818 49.6447 49.6818 49.6272L49.6949 49.6141V49.5749L49.5641 49.091L49.551 49.7972L49.4464 49.8234L49.0802 49.248L49.211 49.7318L49.2241 49.7449L49.2502 49.758H49.2895L49.3287 49.7449L49.3549 49.8495L49.041 49.9411L49.0018 49.8364H49.041L49.0802 49.8103V49.7449L48.9495 49.3134V49.2741L48.9233 49.261H48.8449L48.8056 49.1695ZM50.4272 48.738L50.8457 48.6595H50.9764C51.02 48.6595 51.0549 48.6682 51.0811 48.6856C51.1159 48.7031 51.142 48.7249 51.1595 48.751L51.1988 48.8426C51.2074 48.9124 51.19 48.9733 51.1464 49.0257C51.1028 49.0868 51.0374 49.1259 50.9503 49.1434L50.8195 49.1695L50.8457 49.3134V49.3526H50.9503L50.9634 49.4572L50.571 49.5357V49.431H50.5841L50.6364 49.4049V49.3395L50.558 48.908V48.8557L50.5318 48.8426H50.4534L50.4272 48.738ZM50.741 48.8164L50.7934 49.0387H50.8587L50.9503 48.9995L50.9895 48.9472V48.8818C50.9895 48.847 50.972 48.8208 50.9372 48.8033C50.9111 48.7947 50.8761 48.7947 50.8326 48.8033H50.741V48.8164ZM51.2903 48.581L51.7872 48.5156H51.8918L51.9965 48.5418C52.0313 48.5593 52.0575 48.581 52.0749 48.6072C52.1011 48.6333 52.1142 48.6639 52.1142 48.6987C52.1228 48.7598 52.1098 48.8121 52.0749 48.8557C52.0313 48.8993 51.9834 48.9341 51.9311 48.9603L52.1142 49.1303L52.1534 49.1564L52.1795 49.1695H52.258V49.2741L52.0095 49.3134L51.7088 48.9995H51.6434L51.6695 49.1564V49.2087L51.6957 49.2349H51.7742V49.3395L51.3818 49.3918V49.2741H51.408L51.4472 49.261L51.4734 49.2349V49.1957L51.408 48.738V48.6987H51.3034L51.2903 48.581ZM51.6041 48.6726L51.6303 48.8818H51.7611L51.8526 48.8426L51.9049 48.8033V48.738L51.8918 48.6856L51.8395 48.6595H51.7349L51.6041 48.6726ZM52.7549 48.4241C52.8769 48.4154 52.9815 48.446 53.0688 48.5156C53.1559 48.5941 53.1996 48.6943 53.1996 48.8164C53.1996 48.9036 53.1865 48.9777 53.1603 49.0387C53.1254 49.0998 53.0819 49.1521 53.0296 49.1957C52.9598 49.2306 52.8813 49.2524 52.7942 49.261C52.6721 49.261 52.5719 49.2349 52.4934 49.1826C52.3975 49.1041 52.3452 48.9995 52.3365 48.8687C52.3365 48.7467 52.3713 48.642 52.4411 48.5549C52.5195 48.4677 52.6242 48.4241 52.7549 48.4241ZM52.7549 48.5549C52.6938 48.5549 52.6503 48.581 52.6242 48.6333C52.5719 48.6856 52.55 48.7598 52.5588 48.8557C52.5588 48.9429 52.5849 49.0126 52.6372 49.0649C52.6721 49.1085 52.72 49.1303 52.7811 49.1303C52.8421 49.1303 52.89 49.1041 52.9249 49.0518C52.9685 48.9995 52.9859 48.9254 52.9773 48.8295C52.9773 48.7685 52.9642 48.7162 52.938 48.6726C52.9206 48.6291 52.8944 48.5985 52.8596 48.581C52.8246 48.5549 52.7898 48.5462 52.7549 48.5549ZM53.3565 48.411H53.8011L53.9319 48.4241L54.0234 48.4764L54.0757 48.5549L54.1019 48.6595C54.1019 48.7293 54.0757 48.786 54.0234 48.8295C53.9711 48.8731 53.8969 48.8949 53.8011 48.8949H53.6703V49.091L53.7227 49.1041H53.7619V49.2218H53.3696V49.1041H53.435L53.448 49.091V49.0387L53.4611 48.5941V48.5418L53.448 48.5287H53.3696V48.3979L53.3565 48.411ZM53.6573 48.5418V48.7772H53.7357L53.8273 48.7641L53.8665 48.7249C53.8839 48.7075 53.8927 48.6856 53.8927 48.6595C53.8927 48.616 53.8796 48.5854 53.8534 48.568C53.8273 48.5506 53.7923 48.5418 53.7488 48.5418H53.6573ZM54.2457 48.411L54.7427 48.4503L54.8473 48.4633L54.9519 48.5156C54.9781 48.5331 54.9998 48.5593 55.0173 48.5941L55.0304 48.6987C55.0304 48.7598 55.0042 48.8033 54.9519 48.8295C54.9083 48.8731 54.856 48.8993 54.795 48.908L54.9519 49.1041V49.1172L54.9781 49.1564H55.0042L55.0435 49.1695H55.0827V49.2872L54.8211 49.2741L54.5727 48.908H54.5073V49.1172H54.5857V49.248L54.1934 49.2087V49.1041H54.2719L54.298 49.078V49.0387L54.3242 48.581V48.5418L54.285 48.5156H54.2327V48.3979L54.2457 48.411ZM54.5334 48.568L54.5204 48.7772H54.6381C54.6816 48.786 54.7165 48.786 54.7427 48.7772C54.7688 48.7772 54.7862 48.7685 54.795 48.751C54.8123 48.7336 54.8211 48.7118 54.8211 48.6856V48.6333L54.7688 48.5941L54.6642 48.581H54.5334V48.568ZM55.2396 48.4895L55.6319 48.5418V48.6595H55.5927C55.5665 48.6508 55.5491 48.6508 55.5404 48.6595L55.5142 48.7118L55.4619 49.1564V49.2087H55.475L55.5142 49.2349H55.5535L55.5404 49.3526L55.1481 49.3003L55.1611 49.1826H55.1873C55.2135 49.1914 55.2308 49.1914 55.2396 49.1826H55.2527L55.2658 49.1434L55.3181 48.6856V48.6203H55.2658L55.2265 48.6072L55.2396 48.4895ZM56.0896 48.6072L56.2727 48.6464L56.4035 49.3003C56.4035 49.3352 56.4122 49.357 56.4296 49.3657L56.4819 49.3918L56.4558 49.4964L56.0766 49.431L56.1027 49.3264H56.1681L56.1812 49.3134V49.1826L55.9196 49.1434L55.8804 49.2218V49.248C55.8716 49.2568 55.8716 49.2654 55.8804 49.2741H55.8935L55.9458 49.3003L55.9327 49.4049L55.6188 49.3526L55.6319 49.248H55.6842L55.7104 49.2349L55.7365 49.1957L56.0896 48.6072ZM55.985 49.0387L56.155 49.0649L56.1158 48.8295L55.985 49.0387ZM56.7566 48.7249L57.1097 48.8164L57.1358 49.3395L57.3973 48.8949L57.7504 48.9864L57.7243 49.091H57.685C57.6676 49.0737 57.6545 49.0737 57.6458 49.091C57.6283 49.091 57.6197 49.1041 57.6197 49.1303L57.502 49.5749V49.6272L57.5412 49.6403L57.5804 49.6534L57.5543 49.7711L57.175 49.6664L57.2012 49.5618H57.2404L57.2797 49.5749H57.3058V49.5226L57.4366 49.0387L57.0835 49.6534L56.9789 49.6141L56.9396 48.9472L56.822 49.418V49.4441L56.835 49.4703H56.8743L56.9135 49.4834L56.8873 49.6011L56.5604 49.5226L56.5866 49.4049H56.6258L56.665 49.418H56.6781L56.7043 49.3657L56.8089 48.921V48.8687L56.7696 48.8557L56.7304 48.8426L56.7566 48.7249ZM58.3912 49.1826L58.7835 49.3264L58.9143 49.3918L58.9797 49.4703L59.0058 49.5618L58.9928 49.6664C58.9666 49.7274 58.923 49.7711 58.862 49.7972C58.7922 49.8234 58.7138 49.8234 58.6266 49.7972L58.4958 49.7449L58.4435 49.8757V49.9411L58.4828 49.9672H58.522L58.4828 50.0849L58.1035 49.9541L58.1427 49.8364H58.1689L58.2212 49.8626H58.2343L58.2604 49.8103L58.4174 49.3918V49.3264L58.3781 49.3003H58.352L58.3912 49.1826ZM58.6135 49.4049L58.5351 49.6272L58.6005 49.6534L58.692 49.6664L58.7574 49.6534L58.7966 49.588C58.8053 49.5531 58.8009 49.5226 58.7835 49.4964C58.7661 49.4703 58.7399 49.4529 58.7051 49.4441L58.6135 49.4049ZM59.2151 49.4834L59.6728 49.6926L59.7643 49.7449C59.7992 49.7624 59.8253 49.7885 59.8428 49.8234L59.882 49.9149L59.8559 50.0195C59.8297 50.0806 59.7905 50.1198 59.7382 50.1372H59.5682L59.6336 50.3857L59.6597 50.4249L59.6728 50.4511L59.712 50.4772H59.7382L59.6989 50.5949L59.4636 50.4903L59.3589 50.0588L59.2935 50.0326L59.2282 50.1764V50.2549L59.2543 50.268L59.2935 50.2941L59.2412 50.3857L58.8881 50.2288L58.9274 50.1241L58.9666 50.1372L59.0058 50.1503H59.032L59.0451 50.1111L59.2282 49.6926L59.2412 49.6534V49.6272L59.2151 49.6141H59.1889L59.1628 49.6011L59.2151 49.4834ZM59.4374 49.7318L59.3459 49.928L59.4636 49.9672C59.4984 49.9934 59.5289 50.0064 59.5551 50.0064L59.6205 49.9934C59.6378 49.9847 59.6509 49.9672 59.6597 49.9411C59.6684 49.9237 59.6684 49.9062 59.6597 49.8887L59.6466 49.8364L59.5551 49.7841L59.4243 49.7318H59.4374ZM60.549 50.1111C60.6623 50.1722 60.7363 50.2549 60.7713 50.3595C60.8061 50.4641 60.793 50.5732 60.732 50.6865C60.6971 50.7562 60.6492 50.8086 60.5882 50.8434C60.5271 50.887 60.4574 50.9088 60.379 50.9088C60.3092 50.9088 60.2351 50.887 60.1566 50.8434C60.052 50.7911 59.9778 50.717 59.9343 50.6211C59.8907 50.5078 59.9038 50.3945 59.9736 50.2811C60.0259 50.1678 60.1086 50.0936 60.222 50.0588C60.3266 50.0326 60.4356 50.0501 60.549 50.1111ZM60.4966 50.2288C60.4443 50.1939 60.3876 50.1895 60.3266 50.2157C60.2655 50.2418 60.2132 50.2985 60.1697 50.3857C60.1261 50.4641 60.1086 50.5383 60.1174 50.608C60.1261 50.6603 60.1609 50.7039 60.222 50.7388C60.2743 50.7649 60.3266 50.7649 60.379 50.7388C60.4399 50.7126 60.4922 50.6603 60.5359 50.5818C60.5707 50.5209 60.5882 50.4685 60.5882 50.4249C60.5882 50.3726 60.5794 50.3291 60.562 50.2941L60.4966 50.2288ZM61.1505 50.4249L61.2159 50.4641V50.4903L61.6082 50.7388L61.6213 50.7257L61.6867 50.7649L61.6213 51.0526L61.5167 51.0265V50.9218C61.5167 50.887 61.5079 50.8565 61.4905 50.8303L61.4513 50.778H61.4251L61.412 50.8042L61.1636 51.1965L61.1374 51.2488V51.2619L61.1505 51.2749L61.2028 51.3142L61.1505 51.4057L60.8105 51.1965L60.8759 51.1049L60.889 51.118L60.9413 51.1442H60.9543L60.9936 51.0919L61.2551 50.6995V50.6603H61.242C61.2246 50.6429 61.1984 50.6342 61.1636 50.6342L61.0851 50.6472L60.9936 50.6995L60.9151 50.6211L61.1505 50.4249ZM61.8828 50.9218L62.4321 51.3142L62.3536 51.5757L62.249 51.5496V51.4188L62.2228 51.3403C62.2054 51.3142 62.1792 51.2924 62.1444 51.2749L62.0528 51.1965L61.9221 51.3665L61.9613 51.3926L62.0136 51.4188H62.0528L62.079 51.3665L62.1051 51.3403L62.1836 51.4057L61.9874 51.6803L61.909 51.628L61.9221 51.6019L61.9482 51.5496V51.5234L61.8959 51.4711L61.8567 51.458L61.7521 51.6019L61.739 51.6411L61.7651 51.6803L61.8174 51.7196L61.9482 51.7719C61.9831 51.7807 62.0179 51.7807 62.0528 51.7719C62.0964 51.7632 62.14 51.7414 62.1836 51.7065L62.2359 51.798L61.9744 51.9811L61.412 51.5888L61.4774 51.4842L61.4905 51.4972L61.5428 51.5234H61.569L61.5951 51.4842L61.8567 51.118L61.8828 51.0788V51.0657L61.8436 51.0265L61.8174 51.0134L61.8828 50.9218ZM62.7852 52.0726L63.0859 52.3342L63.0205 52.4127L62.9944 52.3996L62.9682 52.3734H62.9421L62.9029 52.4127L62.7459 52.6088L62.6544 52.5303L62.6675 52.465L62.5367 52.4388L62.4452 52.3734C62.3841 52.3211 62.3405 52.2645 62.3144 52.2034C62.2969 52.1337 62.2969 52.064 62.3144 51.9942C62.3144 51.9245 62.3405 51.8547 62.3928 51.7849C62.4451 51.724 62.5061 51.6803 62.5759 51.6542C62.6456 51.628 62.7154 51.6237 62.7852 51.6411C62.8548 51.6499 62.9202 51.676 62.9813 51.7196L63.0467 51.798L63.099 51.8896L63.1382 51.8765L63.2036 51.9288L63.0859 52.1903L62.9813 52.138V51.9942L62.9682 51.9026L62.9159 51.8373L62.8113 51.798L62.6936 51.8242C62.6587 51.8416 62.6194 51.8765 62.5759 51.9288L62.4975 52.0596V52.2034C62.5061 52.2384 62.5279 52.2688 62.5628 52.295L62.6282 52.3342H62.6936L62.7459 52.308L62.759 52.2819L62.7852 52.2426V52.2296L62.7459 52.1903L62.7198 52.1642L62.7852 52.0726ZM63.6613 52.3342L63.7921 52.465L63.5436 53.0927C63.5262 53.1188 63.5218 53.1407 63.5306 53.1581L63.5567 53.1973L63.4782 53.2888L63.2167 53.0273L63.2821 52.9357L63.2952 52.9619L63.3344 52.975H63.3606L63.3867 52.9357L63.4129 52.8704L63.2298 52.7003L63.1513 52.7396L63.1252 52.7527V52.7919L63.1644 52.8311L63.0859 52.9096L62.8636 52.7003L62.9421 52.6219L62.9682 52.648H62.9944L63.0467 52.635L63.6613 52.3342ZM63.3475 52.635L63.4652 52.7527L63.5567 52.5303L63.3475 52.635ZM64.1975 52.818L64.2498 52.8704L64.2367 52.8965L64.5506 53.2234H64.5767L64.629 53.2627L64.4983 53.5242L64.3937 53.485L64.4198 53.3804V53.2888C64.4198 53.2627 64.411 53.2409 64.3937 53.2234H64.3675L64.3413 53.2365L64.0144 53.5634L63.9752 53.6027V53.6288L64.0144 53.6811L63.9359 53.7596L63.6744 53.4719L63.7529 53.3934V53.4196L63.8052 53.4458H63.8313L63.8706 53.4196L64.2106 53.0927L64.2236 53.0665V53.0534L64.1583 53.0142H64.0667L63.9621 53.0404L63.9229 52.9357L64.1844 52.805L64.1975 52.818Z" fill="black"/>
<path d="M-10.4619 0H31.3851V31.3853H-10.4619V0Z" fill="#012169"/>
<path d="M-5.55796 0L10.3962 11.8349L26.285 0H31.3851V4.05393L15.6925 15.758L31.3851 27.3967V31.3853H26.1543L10.4616 19.6812L-5.16565 31.3853H-10.4619V27.4621L5.16535 15.8234L-10.4619 4.18471V0H-5.55796Z" fill="white"/>
<path d="M17.2618 18.3735L31.3851 28.7699V31.3853L13.6655 18.3735H17.2618ZM5.23073 19.6812L5.62305 21.9697L-6.93107 31.3853H-10.4619L5.23073 19.6812ZM31.3851 0V0.196158L15.104 12.4887L15.2348 9.61175L28.1158 0H31.3851ZM-10.4619 0L5.16535 11.5079H1.24218L-10.4619 2.74621V0Z" fill="#C8102E"/>
<path d="M5.29612 0V31.3853H15.7579V0H5.29612ZM-10.4619 10.4618V20.9235H31.3851V10.4618H-10.4619Z" fill="white"/>
<path d="M-10.4619 12.6195V18.8966H31.3851V12.6195H-10.4619ZM7.38847 0V31.3853H13.6655V0H7.38847Z" fill="#C8102E"/>
</g>
</g>
</g>
<defs>
<linearGradient id="paint0_linear_12589_5217" x1="57.1155" y1="19.5371" x2="57.1616" y2="16.535" gradientUnits="userSpaceOnUse">
<stop stop-color="#474747"/>
<stop offset="1" stop-color="#FF5500"/>
</linearGradient>
<linearGradient id="paint1_linear_12589_5217" x1="56.0929" y1="30.8083" x2="56.0982" y2="32.5043" gradientUnits="userSpaceOnUse">
<stop stop-color="#B50000"/>
<stop offset="1" stop-color="#FFC500"/>
</linearGradient>
<linearGradient id="paint2_linear_12589_5217" x1="63.5427" y1="31.8414" x2="66.3129" y2="31.805" gradientUnits="userSpaceOnUse">
<stop stop-color="#D5DFFF"/>
<stop offset="1" stop-color="white"/>
</linearGradient>
<linearGradient id="paint3_linear_12589_5217" x1="56.5911" y1="18.9685" x2="57.5887" y2="18.9685" gradientUnits="userSpaceOnUse">
<stop stop-color="#474747"/>
<stop offset="1" stop-color="#FF5500"/>
</linearGradient>
<linearGradient id="paint4_linear_12589_5217" x1="71.0213" y1="45.7744" x2="70.5358" y2="42.7571" gradientUnits="userSpaceOnUse">
<stop stop-color="#D5DFFF"/>
<stop offset="1" stop-color="white"/>
</linearGradient>
<linearGradient id="paint5_linear_12589_5217" x1="64.2114" y1="32.8756" x2="62.9734" y2="30.8791" gradientUnits="userSpaceOnUse">
<stop stop-color="#D5DFFF"/>
<stop offset="1" stop-color="white"/>
</linearGradient>
<clipPath id="clip0_12589_5217">
<rect width="62.7706" height="62.7706" rx="31.3853" fill="white"/>
</clipPath>
<clipPath id="clip1_12589_5217">
<rect width="83.6941" height="62.7706" fill="white" transform="translate(-10.4619)"/>
</clipPath>
</defs>
</svg>
