<svg width="63" height="63" viewBox="0 0 63 63" fill="none" xmlns="http://www.w3.org/2000/svg">
<g clip-path="url(#clip0_12589_5218)">
<path fill-rule="evenodd" clip-rule="evenodd" d="M0 -1.04614H62.7706V62.7706H0V-1.04614Z" fill="white"/>
<path fill-rule="evenodd" clip-rule="evenodd" d="M6.87793 21.6245L13.4082 11.8328L15.0401 12.9211L8.50987 22.7128L6.87793 21.6245ZM9.32589 23.257L15.8561 13.4653L17.488 14.5537L10.9578 24.3453L9.32589 23.257ZM11.7738 24.8896L18.304 15.0979L19.9359 16.1863L13.4057 25.9779L11.7738 24.8896Z" fill="black"/>
<path fill-rule="evenodd" clip-rule="evenodd" d="M42.7812 45.568L49.3115 35.7764L50.9435 36.8647L44.4132 46.6564L42.7812 45.568ZM45.2292 47.2006L51.7594 37.4089L53.3914 38.4972L46.8612 48.289L45.2292 47.2006ZM47.6771 48.8331L54.2074 39.0415L55.8393 40.1298L49.3091 49.9215L47.6771 48.8331Z" fill="black"/>
<path d="M45.2266 40.1277L53.3863 45.5696" stroke="white" stroke-width="1.30772"/>
<path fill-rule="evenodd" clip-rule="evenodd" d="M21.5654 24.3462C23.2973 21.7493 25.99 19.9468 29.0509 19.3352C32.1118 18.7235 35.2904 19.3529 37.8874 21.0848C40.4842 22.8167 42.2868 25.5094 42.8984 28.5703C43.51 31.6312 42.8807 34.8098 41.1488 37.4067L21.5654 24.3462Z" fill="#CD2E3A"/>
<path fill-rule="evenodd" clip-rule="evenodd" d="M21.5667 24.3472C19.8348 26.9441 19.2054 30.1226 19.8171 33.1835C20.4287 36.2445 22.2313 38.9371 24.8282 40.6691C27.4251 42.401 30.6036 43.0304 33.6646 42.4187C36.7256 41.807 39.4182 40.0045 41.1501 37.4076C42.016 36.1091 42.3308 34.5198 42.0249 32.9894C41.7191 31.4589 40.8178 30.1126 39.5193 29.2466C38.2209 28.3807 36.6317 28.066 35.1012 28.3719C33.5706 28.6776 32.2244 29.5789 31.3584 30.8773L21.5667 24.3472Z" fill="#0047A0"/>
<path d="M31.3545 30.8753C33.1577 28.1714 32.4276 24.5177 29.7237 22.7144C27.0199 20.9111 23.3661 21.6412 21.5627 24.3451C19.7595 27.049 20.4896 30.7028 23.1935 32.506C25.8974 34.3093 29.5512 33.5792 31.3545 30.8753Z" fill="#CD2E3A"/>
<path fill-rule="evenodd" clip-rule="evenodd" d="M13.4365 49.9264L6.90625 40.1348L8.53818 39.0463L15.0684 48.8381L13.4365 49.9264ZM15.8844 48.2939L9.3542 38.5022L10.9861 37.4138L17.5163 47.2055L15.8844 48.2939ZM18.3324 46.6613L11.8021 36.8696L13.4341 35.7812L19.9642 45.5729L18.3324 46.6613Z" fill="black"/>
<path fill-rule="evenodd" clip-rule="evenodd" d="M49.3398 25.9828L42.8096 16.1911L44.4415 15.1028L50.9718 24.8944L49.3398 25.9828ZM51.7877 24.3503L45.2575 14.5586L46.8895 13.4702L53.4197 23.2619L51.7877 24.3503ZM54.2357 22.7177L47.7054 12.926L49.3374 11.8376L55.8677 21.6293L54.2357 22.7177Z" fill="black"/>
<path d="M12.2109 43.6708L14.6588 42.0382M45.2578 21.6312L48.1138 19.7266M50.5616 18.094L53.0095 16.4614" stroke="white" stroke-width="1.30772"/>
</g>
<defs>
<clipPath id="clip0_12589_5218">
<rect width="62.7706" height="62.7706" rx="31.3853" fill="white"/>
</clipPath>
</defs>
</svg>
