<svg width="63" height="63" viewBox="0 0 63 63" fill="none" xmlns="http://www.w3.org/2000/svg">
<g clip-path="url(#clip0_12589_5221)">
<path d="M-3.13867 -2.85327H65.909V65.6237H-3.13867V-2.85327Z" fill="#FFB700"/>
<path d="M-2.56055 31.384L6.93347 9.06909H18.7291V53.6989H6.93347L-2.56055 31.384Z" fill="#FF5B00"/>
<path d="M-4.8623 9.06909H6.9333V53.6989H-4.8623V9.06909Z" fill="#005641"/>
<path d="M21.6016 9.06909H63.3214V53.6989H21.6016V9.06909Z" fill="#8D2029"/>
<path d="M59.3623 49.0232C59.3623 49.0232 59.7507 49.7869 60.1822 50.1112C60.8296 50.5715 62.1242 50.5297 62.696 51.0842C63.3541 51.7223 62.6421 52.5697 62.6421 52.6534L62.6852 53.0928C62.6852 53.0928 62.2321 53.0928 62.0379 53.1242C61.7574 53.1661 61.6495 53.3962 61.1101 53.3648C59.7831 53.2811 59.837 52.1094 59.7615 51.1155C59.6968 50.7389 59.5457 50.2368 59.4486 49.8601C59.3731 49.5463 59.3623 49.0232 59.3623 49.0232Z" fill="#FFB700" stroke="black" stroke-width="0.143849"/>
<path d="M25.5591 49.0232C25.5591 49.0232 25.1707 49.7869 24.7392 50.1112C24.0919 50.5715 22.7972 50.5297 22.2254 51.0842C21.5673 51.7223 22.2794 52.5697 22.2794 52.6534L22.2362 53.0928C22.2362 53.0928 22.6893 53.0928 22.8835 53.1242C23.164 53.1661 23.2719 53.3962 23.8114 53.3648C25.1384 53.2811 25.0844 52.1094 25.1599 51.1155C25.2247 50.7389 25.3757 50.2368 25.4728 49.8601C25.5483 49.5463 25.5591 49.0232 25.5591 49.0232Z" fill="#FFB700" stroke="black" stroke-width="0.143849"/>
<path d="M59.3623 13.7474C59.3623 13.7474 59.7507 12.9837 60.1822 12.6594C60.8296 12.1991 62.1242 12.2409 62.696 11.6864C63.3541 11.0483 62.6421 10.2009 62.6421 10.1172L62.6852 9.67777C62.6852 9.67777 62.2321 9.67777 62.0379 9.64638C61.7574 9.60454 61.6495 9.37438 61.1101 9.40576C59.7831 9.48946 59.837 10.6612 59.7615 11.655C59.6968 12.0317 59.5457 12.5338 59.4486 12.9105C59.3731 13.2243 59.3623 13.7474 59.3623 13.7474Z" fill="#FFB700" stroke="black" stroke-width="0.143849"/>
<path d="M25.5728 13.7474C25.5728 13.7474 25.1844 12.9837 24.7529 12.6594C24.1055 12.1991 22.8109 12.2409 22.2391 11.6864C21.581 11.0483 22.293 10.2009 22.293 10.1172L22.2499 9.67777C22.2499 9.67777 22.703 9.67777 22.8972 9.64638C23.1777 9.60454 23.2856 9.37438 23.825 9.40576C25.152 9.48946 25.0981 10.6612 25.1736 11.655C25.2384 12.0317 25.3894 12.5338 25.4865 12.9105C25.562 13.2243 25.5728 13.7474 25.5728 13.7474Z" fill="#FFB700" stroke="black" stroke-width="0.143849"/>
<path d="M36.0776 41.8269L36.3257 41.6804L36.4336 41.8269C36.5738 42.0152 36.973 42.0047 37.232 41.8269L37.4369 41.6699L37.6096 41.8164C37.8253 42.0152 38.2353 42.0152 38.505 41.8164C38.6884 41.6909 38.7208 41.6804 38.8287 41.785C38.9042 41.8478 39.12 41.9106 39.3034 41.9419C39.6486 41.9838 39.6486 41.9838 39.8428 41.6909C40.0154 41.4502 40.037 41.3561 40.0047 41.1155C39.9745 40.9317 39.953 40.7466 39.9399 40.561C39.9183 40.289 39.9291 40.289 40.3283 40.1425C40.5265 40.0835 40.721 40.0137 40.9109 39.9333C41.0727 39.8391 41.5259 39.3265 41.5259 39.2219C41.5259 39.201 41.3532 39.1591 41.1375 39.1382C40.2744 39.0336 40.1341 38.5942 40.6951 37.7782C41.5906 36.4181 42.1408 35.1104 42.1408 34.2839C42.1408 33.9073 42.1732 33.7818 42.2163 33.8655C42.4213 34.1898 42.0545 35.5812 41.5151 36.5855L41.2993 36.9831L41.5043 36.9412C41.6122 36.9098 42.3026 36.6274 43.0147 36.3135C44.9782 35.4557 45.6471 35.2883 46.9202 35.3406C47.9883 35.3824 48.4306 35.5812 49.1858 36.3449C49.585 36.7634 49.9734 37.0458 50.6747 37.4748C52.1635 38.3745 52.2282 38.4582 52.3038 39.5253C52.3793 40.6028 52.3361 40.6656 51.4946 40.8435C50.7718 41.0004 50.3186 41.3247 50.2 41.785C50.1352 42.0152 50.2755 42.0256 50.6315 41.7955L50.9012 41.6281L51.0199 41.7955C51.1817 42.0152 51.5054 42.0152 51.7751 41.7955L51.9909 41.6386L52.2067 41.7955C52.5303 42.057 52.9619 41.9943 53.0913 41.6699C53.1129 41.6176 53.1776 41.6281 53.3071 41.7432C53.5553 41.9524 54.1702 42.0361 54.2349 41.8687C54.2565 41.8059 54.2134 41.6595 54.1271 41.5339C53.771 41.0108 53.6524 40.7702 53.6524 40.4878C53.6524 40.0902 53.7602 39.8914 54.2349 39.5776C54.7959 39.18 54.9686 38.6779 54.537 38.6779C54.2781 38.6779 54.0084 38.4477 53.8358 38.0816C53.4905 37.3283 53.566 36.4914 54.0839 35.0895C54.481 34.2646 54.6801 33.3633 54.6665 32.4531C54.6665 31.679 54.6449 31.5534 54.4723 31.1245C54.3373 30.8262 54.171 30.5422 53.976 30.2771L53.6739 29.89L54.0515 29.5761C55.2167 28.645 54.9794 27.1176 53.5768 26.5318C53.1453 26.3435 53.0374 26.333 52.2822 26.333C51.8506 26.333 51.1494 26.3958 50.7718 26.469C50.265 26.5468 49.753 26.5887 49.2398 26.5945C48.5061 26.5945 48.3767 26.5736 48.0962 26.4272C47.8049 26.2807 47.7509 26.2075 47.697 25.8518C47.6918 25.8182 47.6783 25.7864 47.6576 25.759C47.637 25.7317 47.6097 25.7096 47.5783 25.6948C47.4704 25.6634 47.0173 26.0505 46.9526 26.2179C46.9094 26.3121 46.8878 26.3016 46.7907 26.1865C46.6993 26.0725 46.6265 25.9454 46.575 25.8099C46.4671 25.4647 46.6073 25.2136 47.0281 25.0148L47.3518 24.8683L47.1576 24.7533C46.7692 24.5126 46.1003 24.68 45.8629 25.0671C45.7874 25.1717 45.7119 25.2764 45.6903 25.2764C45.6687 25.2764 45.5393 25.1717 45.4098 25.0357C44.9027 24.5545 45.0753 23.8431 45.755 23.6339C46.1111 23.5188 46.4347 23.6025 46.4994 23.8431C46.6073 24.1883 46.9094 23.728 46.8555 23.2991C46.8231 23.0166 46.8231 23.0062 47.0281 23.0062C47.3086 23.0062 47.8912 23.3619 48.0854 23.6339C48.3012 23.9582 48.2796 24.4708 48.0422 24.8474L47.8588 25.1404L48.107 25.0985C48.4522 25.0253 48.7974 24.816 48.9701 24.5545C49.061 24.3879 49.1122 24.2036 49.1196 24.0153C49.1271 23.8269 49.0907 23.6393 49.0132 23.4665C48.8514 23.184 48.873 23.1422 49.1103 23.2363C49.4987 23.3932 49.7145 23.5711 49.8655 23.8745C50.0166 24.1465 50.0273 24.2093 49.9518 24.5022C49.9002 24.6805 49.8201 24.8499 49.7145 25.0044C49.585 25.1717 49.5742 25.2031 49.6821 25.2031C49.8763 25.2031 50.2647 25.0253 50.405 24.8893C50.4805 24.8056 50.5884 24.6277 50.6423 24.4708L50.7502 24.2093L50.8581 24.4185C51.0199 24.701 51.3436 24.9625 51.732 25.1299C52.1527 25.2973 52.3253 25.3077 52.1096 25.1508C51.9585 25.0462 51.678 24.2616 51.7751 24.1883C52.2408 24.4411 52.666 24.7583 53.0374 25.1299C53.6524 25.6634 54.0407 25.8413 54.6018 25.8413C55.3246 25.8413 55.7454 25.2345 55.4217 24.6591C55.2383 24.3243 54.8175 24.272 54.5586 24.5545C54.4507 24.6905 54.4183 24.7951 54.4507 24.9416C54.4939 25.109 54.4831 25.1299 54.3213 25.1299C54.1055 25.1299 53.6955 24.8683 52.9619 24.272C51.9407 23.4198 50.7669 22.7567 49.4987 22.3157C48.6396 22.1231 47.7525 22.0771 46.8771 22.1797C46.1866 22.3052 45.3666 22.6923 44.9135 23.1003C44.1259 23.8326 44.1151 24.8056 44.8811 25.6948L45.0969 25.9459L44.9567 26.1761C44.8512 26.3409 44.7989 26.5326 44.8067 26.7264C44.8143 26.9204 44.8816 27.1076 44.9998 27.2641C45.1077 27.4106 45.2156 27.5256 45.248 27.5256C45.2695 27.5256 45.2911 27.4315 45.3019 27.3164C45.3235 27.0339 45.4529 26.8456 45.6687 26.7724C45.8629 26.6992 45.9924 26.741 46.8771 27.0862C47.8157 27.4419 49.3585 27.4629 50.9983 27.149C51.7091 26.9898 52.4488 26.9969 53.1561 27.1699C53.9329 27.4838 54.1055 28.2893 53.5445 28.8961C53.2963 29.1681 53.0698 29.2728 52.2822 29.482C51.5965 29.6573 50.8837 29.7105 50.1784 29.6389C49.0132 29.6285 48.5925 29.6494 48.1285 29.7435C47.5999 29.8481 47.287 29.8586 45.7766 29.8272L44.018 29.7854L44.2122 29.9318C44.3162 30.0214 44.4282 30.1019 44.5467 30.1725C44.6869 30.2457 44.6762 30.2562 44.482 30.3294C44.3741 30.3712 44.1151 30.4026 43.9102 30.4026H43.5541L43.511 30.6956C43.482 30.8336 43.482 30.9759 43.511 31.114C43.5541 31.2186 43.5326 31.2396 43.4247 31.1977C43.3491 31.1663 43.1442 31.114 42.9608 31.0826C42.7757 31.0441 42.5951 30.9881 42.4213 30.9152C42.2163 30.8106 42.1948 30.8106 42.1192 30.9466C42.0545 31.0513 41.4503 31.4906 41.364 31.4906C41.3251 31.2192 41.2451 30.9548 41.1267 30.706C41.0188 30.4863 40.9217 30.2352 40.8893 30.162C40.857 30.0469 40.8354 30.0365 40.7814 30.1306C40.7491 30.1829 40.7059 30.3399 40.6736 30.4654C40.6358 30.6348 40.5702 30.7972 40.4794 30.9466L40.3175 31.1768L40.2096 30.978C40.1018 30.7688 39.9291 30.5386 39.8644 30.5386C39.8428 30.5386 39.8105 30.6014 39.7889 30.6956C39.7349 30.8629 39.3142 31.3546 39.2063 31.3546C39.1739 31.3546 39.1416 31.2186 39.1416 31.0408C39.1416 30.8839 39.1092 30.7374 39.066 30.7374C39.0229 30.7374 38.9905 30.7897 38.9905 30.842C38.9905 30.9676 38.6345 31.3651 38.505 31.3651C38.4619 31.3651 38.3756 31.407 38.3216 31.4697C38.1922 31.6057 38.0843 31.5848 38.1382 31.4279C38.1534 31.2939 38.1386 31.1583 38.0951 31.0303L37.9872 30.6956C37.9656 30.6432 37.8361 30.6642 37.5556 30.7479C37.1241 30.8839 36.973 30.8525 37.1996 30.6851C37.2859 30.6223 37.4154 30.4026 37.4801 30.2038C37.5556 29.9946 37.6635 29.8168 37.7174 29.7958C37.793 29.7749 37.793 29.7958 37.6959 29.9214C37.6335 30.0009 37.5926 30.0945 37.5772 30.1934C37.5772 30.2457 37.5233 30.3817 37.4693 30.4968C37.4046 30.6014 37.3614 30.706 37.3722 30.7165C37.383 30.7269 37.5556 30.6642 37.7498 30.5805L38.0951 30.4131V30.5595C38.0951 30.6432 38.1382 30.8525 38.1922 31.0303L38.2893 31.3442L38.5266 31.2396C38.764 31.1349 38.9905 30.7583 38.9905 30.4549C38.9905 30.3085 39.0768 30.3294 39.12 30.4863C39.12 30.5282 39.1847 30.706 39.2279 30.8734L39.3358 31.1663L39.4976 30.978C39.5947 30.8734 39.7026 30.6642 39.7457 30.5282C39.832 30.2771 39.9615 30.162 39.9615 30.3503C39.9615 30.4759 40.3283 30.9571 40.393 30.9152C40.4362 30.8943 40.5009 30.7165 40.5549 30.5177C40.6628 30.0992 40.8246 29.8272 40.9325 29.89C40.9756 29.9109 40.9864 29.9528 40.9648 29.9946C40.9433 30.0155 41.0296 30.2875 41.159 30.5805C41.2529 30.8 41.3464 31.0197 41.4395 31.2396C41.4827 31.3442 41.5259 31.3442 41.7956 31.1036C41.9574 30.9571 42.1192 30.8002 42.13 30.7479C42.1624 30.6642 42.1948 30.6746 42.3458 30.7688C42.6639 30.9317 43.0124 31.0312 43.3707 31.0617C43.3923 31.0408 43.4139 30.8525 43.4139 30.6432L43.4247 30.2562L43.6404 30.298C43.7483 30.3294 43.9965 30.3294 44.1799 30.298L44.5035 30.2562L44.2122 30.0469C44.0504 29.9423 43.8886 29.8063 43.8454 29.7435C43.8131 29.6808 43.662 29.618 43.5002 29.6075C43.0579 29.5657 42.2703 29.1472 42.2703 28.938C42.2703 28.8961 42.3782 28.9694 42.5076 29.0844C42.8097 29.346 43.2197 29.5029 43.5865 29.5029H43.8454L43.6836 29.2937C43.5683 29.1314 43.4944 28.945 43.4678 28.7497C43.4462 28.4358 43.4139 28.394 43.0794 28.1743C42.8855 28.0409 42.7049 27.8904 42.54 27.7244L42.3566 27.5256L42.2595 27.7663C42.2055 27.9023 42.1516 28.0069 42.1192 28.0069C42.0977 28.0069 41.9898 27.9232 41.9035 27.829C41.8428 27.7608 41.7697 27.7041 41.6877 27.6616C41.6553 27.6616 41.5798 27.7872 41.4935 27.9441L41.3425 28.2266L41.2346 28.0696C41.1386 27.9413 41.0303 27.8222 40.9109 27.7139C40.7814 27.6093 40.7275 27.5256 40.7707 27.5256C40.8138 27.5256 40.9541 27.6303 41.0943 27.7663L41.3317 28.0069L41.4395 27.829C41.5019 27.7057 41.5209 27.5661 41.4935 27.4315C41.4503 27.2432 41.4611 27.2327 41.5259 27.3582C41.6189 27.4763 41.7277 27.5819 41.8495 27.6721L42.0869 27.8604L42.2487 27.5779C42.4105 27.285 42.4105 27.285 42.4753 27.4629C42.5832 27.6826 43.2844 28.2475 43.8778 28.5718C43.9857 28.6241 43.9425 28.4567 43.7699 28.0487C43.7181 27.9146 43.689 27.7733 43.6836 27.6303C43.6836 27.4419 43.6297 27.3582 43.3815 27.1699C43.2273 27.0743 43.0982 26.945 43.0045 26.7924C42.9109 26.6399 42.8553 26.4682 42.8421 26.2911C42.8097 26.1133 42.745 25.925 42.691 25.8622C42.6263 25.7576 42.6047 25.8204 42.6263 26.1342C42.6479 26.3539 42.6155 26.6259 42.5616 26.741L42.4753 26.9502L42.4105 26.7724C42.3674 26.6782 42.1948 26.5108 42.0329 26.4062C41.8711 26.3016 41.7524 26.197 41.774 26.1761C41.7956 26.1551 41.9682 26.2493 42.1516 26.3853C42.4429 26.605 42.4968 26.6259 42.54 26.5318C42.5832 26.4272 42.54 25.9459 42.4537 25.6111C42.4105 25.4437 42.4105 25.4437 42.6263 25.653C42.7773 25.7994 42.8637 25.9878 42.9392 26.3016C43.0255 26.6992 43.0686 26.7724 43.4462 27.0967C43.6728 27.2955 43.8778 27.4419 43.8886 27.4315C43.9102 27.4106 43.9317 26.9084 43.9533 26.3016C43.9965 25.1404 43.9533 24.8579 43.662 24.5022L43.511 24.3139L43.7483 24.0733C44.0142 23.8266 44.1919 23.5041 44.2554 23.1526L44.2986 22.8702L44.0396 23.1108C43.8239 23.3095 43.716 23.3514 43.4678 23.3514C43.2197 23.3514 43.1226 23.3095 42.9608 23.1422C42.7087 22.9068 42.4014 22.7345 42.0653 22.64C41.9358 22.5981 41.8927 22.6191 41.8927 22.7028C41.8927 22.7655 41.8279 22.9329 41.7416 23.0898L41.5906 23.3619L41.2669 23.048C41.0619 22.8702 40.8354 22.7132 40.652 22.6714C40.2096 22.5668 40.1881 22.5668 40.1881 22.8911C40.1881 23.3828 39.9723 23.4769 39.5839 23.1526C39.2818 22.9015 39.0445 22.8388 38.4727 22.912L38.0411 22.9538L38.1166 23.1422C38.1814 23.2991 38.1706 23.3723 38.0303 23.5502C37.8038 23.8431 37.5125 23.9686 37.0593 23.9686C36.8436 23.9686 36.5846 24.0105 36.4767 24.0628C36.3689 24.1151 36.0884 24.1674 35.8618 24.1883C35.646 24.2093 35.3979 24.2511 35.3224 24.272C35.2145 24.3139 35.2145 24.272 35.2468 24.0419C35.3008 23.6862 35.0311 23.4142 34.6319 23.4142C34.1032 23.4142 33.8659 23.8745 34.0709 24.4813C34.1129 24.6122 34.1489 24.7448 34.1788 24.8788C34.3205 25.1404 34.5107 25.3744 34.7398 25.5693C35.0203 25.8413 35.2792 26.1238 35.3224 26.197C35.4093 26.306 35.5198 26.3953 35.646 26.4585L35.8834 26.5841L35.851 26.333C35.8186 26.061 35.8726 26.0191 36.0236 26.2179C36.0776 26.2807 36.2178 26.3958 36.3257 26.4585C36.5091 26.5632 36.5415 26.5632 36.5415 26.4795C36.5415 26.4167 36.5738 26.2807 36.617 26.1761L36.6925 25.9878L36.8328 26.2493C36.9083 26.3958 37.1564 26.7201 37.383 26.9816C37.8253 27.4733 38.1058 28.0278 37.9656 28.1533C37.9009 28.2057 37.7498 28.2057 37.4262 28.1429C37.1888 28.101 36.8867 28.0696 36.7573 28.0906C36.5091 28.122 36.4875 28.0906 36.6494 27.9023C36.8112 27.693 36.7788 27.6616 36.4552 27.6616C36.0776 27.6616 35.139 27.4838 34.7721 27.3478C34.4269 27.2118 34.3406 27.2432 34.2327 27.5675L34.0493 28.1533L33.9414 28.4672L34.3298 28.4358C34.53 28.4155 34.7284 28.3805 34.9232 28.3312C34.9996 28.3065 35.0801 28.2958 35.1605 28.2998C35.1821 28.3103 35.1282 28.4358 35.0526 28.5823L34.9016 28.8334L35.139 28.7915C35.2684 28.7601 35.4626 28.6974 35.5705 28.645C35.7647 28.5614 35.7863 28.5614 35.9373 28.802C36.1207 29.0844 36.261 29.074 36.2933 28.7706C36.3257 28.4567 36.4336 28.4986 36.6386 28.9171C36.8328 29.3146 37.027 29.4611 37.0701 29.2309C37.0809 29.1472 37.178 29.0217 37.2967 28.938C37.534 28.781 37.7067 28.8334 37.8038 29.074C37.9116 29.3355 37.6743 29.5971 37.0054 29.9946C36.386 30.3262 35.853 30.7909 35.4472 31.353C35.0414 31.9151 34.7736 32.5598 34.6643 33.2378C34.4593 34.4722 35.0958 35.7486 36.3473 36.6797C36.9515 37.1191 37.9116 37.5794 37.8469 37.412C37.588 36.6483 37.5988 35.215 37.8577 34.9744C37.9009 34.9326 37.8901 35.079 37.8253 35.2987C37.6096 36.1252 37.7174 36.7738 38.2569 38.3013C38.7316 39.6822 38.6669 40.2785 37.9764 40.6656C37.7606 40.7912 37.6204 40.8121 37.027 40.8016C36.3797 40.8016 36.3041 40.8016 36.0991 40.969C35.8514 41.2145 35.6891 41.5291 35.6352 41.8687C35.6352 42.0047 35.7863 41.9838 36.0668 41.8269H36.0776Z" fill="#FFB700" stroke="black" stroke-width="0.732323"/>
<path d="M46.5454 41.7931L46.8152 41.6257L46.9986 41.7931C47.2359 42.0128 47.5272 42.0023 47.7538 41.7826C47.8617 41.678 47.948 41.6152 47.9588 41.6257L48.0559 41.7931C48.1098 41.8872 48.2285 41.9291 48.4443 41.95C48.6924 41.9604 48.7679 41.95 48.8758 41.8035L48.9837 41.6257L49.2534 41.7931C49.987 42.2534 50.3754 41.7721 50.041 40.8201C49.8792 40.3389 49.9762 40.0669 50.5049 39.4601C50.7315 39.1985 50.9149 38.9161 50.9149 38.8324C50.9149 38.7173 50.8717 38.6964 50.5696 38.7068C50.2891 38.7068 50.2028 38.6755 50.0518 38.5185C49.8036 38.257 49.8252 37.9536 50.0949 37.6188L50.3107 37.3573L49.9223 37.1062C49.6123 36.8841 49.3234 36.6356 49.0592 36.3634C48.8238 36.0939 48.5358 35.872 48.2118 35.7105C47.8879 35.5489 47.5343 35.4509 47.1712 35.4218L46.6641 35.3695V35.7462C46.6641 36.2169 46.9015 36.6773 47.5272 37.4514C48.2393 38.3302 48.2824 38.4662 48.3148 39.617L48.3472 40.59L48.1314 40.7783C47.948 40.9457 47.8725 40.977 47.2683 41.0084C46.6965 41.0398 46.567 41.0712 46.4052 41.2177C46.2158 41.3517 46.085 41.5494 46.0384 41.7721C46.006 41.9291 46.0168 41.9604 46.1355 41.9604C46.211 41.9604 46.3944 41.8872 46.5454 41.7931ZM31.2039 39.2822C31.2692 39.1893 31.3065 39.0807 31.3118 38.9684C31.3118 38.8638 31.3765 38.8219 31.657 38.7801L31.9915 38.7382L31.7757 38.5604C31.506 38.3511 31.4736 38.1942 31.711 38.1942C31.9483 38.1942 32.3367 37.9641 32.4015 37.7862C32.4338 37.7025 32.4015 37.5979 32.3583 37.5456C32.2288 37.3991 31.9807 37.42 31.9376 37.5874C31.8836 37.7548 31.8081 37.7548 31.6139 37.5874C31.3442 37.3259 31.3334 36.7923 31.6139 36.4785C31.7326 36.332 31.7326 36.332 31.5707 36.1751C31.3981 36.0077 31.2687 35.6938 31.355 35.6102C31.3765 35.5892 31.5168 35.6102 31.657 35.6625C31.8728 35.7252 31.9483 35.7252 32.0347 35.6625C32.2828 35.4637 32.0131 35.2126 31.6031 35.2754C31.4305 35.2963 31.3658 35.2754 31.3442 35.1917C31.3226 35.1289 31.1823 35.0452 31.0205 35.0034C30.7292 34.9301 30.7292 34.9301 30.7292 35.1289C30.7292 35.3381 30.5998 35.38 30.3624 35.244C30.1682 35.1394 29.9848 35.2231 29.9848 35.4218C29.9848 35.6102 30.1682 35.6938 30.5242 35.6729C30.7832 35.6625 30.794 35.8508 30.5458 36.1228L30.3624 36.332L30.5027 36.5308C30.7184 36.8237 30.6969 37.3154 30.4703 37.5665L30.2869 37.7548L30.1682 37.5979C29.9956 37.3887 29.769 37.3991 29.7043 37.6293C29.6719 37.7757 29.7043 37.8385 29.8985 38.0059C30.028 38.1105 30.2221 38.1942 30.3192 38.1942C30.5674 38.1942 30.5566 38.393 30.2977 38.5813L30.0819 38.7382L30.4056 38.7801C30.5782 38.8115 30.7292 38.8533 30.7292 38.8847C30.7292 39.0207 30.945 39.4287 31.0097 39.4287C31.0529 39.4287 31.1392 39.3555 31.2039 39.2718V39.2822Z" fill="#FFB700" stroke="black" stroke-width="0.732323"/>
<path d="M35.3245 37.5464C35.6158 37.4418 36.2415 36.9187 36.2415 36.8037C36.2415 36.7618 36.0689 36.5735 35.8531 36.3852C35.4216 36.0086 34.9361 35.3495 34.8066 34.9728C34.7419 34.7636 34.429 34.4288 33.5444 33.5919L32.3684 32.4934L32.0339 32.5771C31.8397 32.6189 31.6132 32.6608 31.5269 32.6608C31.365 32.6608 31.365 32.6608 31.5808 32.8282L31.7966 32.9956L32.1203 32.8282C32.4116 32.6608 32.4223 32.6608 32.4547 32.7968C32.4763 32.87 32.4331 33.006 32.3468 33.1002C32.2713 33.1943 32.2281 33.3094 32.2389 33.3408C32.2713 33.3722 32.1958 33.4454 32.0771 33.5082C31.8613 33.6128 31.6995 33.9581 31.8721 33.9581C32.0339 33.9581 32.3792 33.5396 32.336 33.4036C32.3145 33.3304 32.336 33.2571 32.3576 33.2362C32.4979 33.163 32.4871 33.4873 32.3576 33.6547C32.2713 33.7384 32.2281 33.843 32.2497 33.8848C32.2713 33.9162 32.1958 33.9894 32.0771 34.0522C31.8613 34.1568 31.6995 34.5021 31.8721 34.5021C32.0447 34.5021 32.3792 34.1045 32.3468 33.9581C32.3252 33.8848 32.3252 33.8011 32.3576 33.7802C32.4547 33.7384 32.4979 33.9894 32.4223 34.115C32.4025 34.1503 32.3921 34.1899 32.3921 34.2301C32.3921 34.2703 32.4025 34.3098 32.4223 34.3451C32.4979 34.4811 32.4223 34.7322 32.2821 34.8159C32.2281 34.8473 32.2605 34.9205 32.4116 35.0252C32.6273 35.1716 32.6273 35.1925 32.6273 35.8621C32.6273 36.427 32.6489 36.5735 32.7568 36.6677C32.8647 36.7723 32.8863 36.7723 32.8863 36.6677C32.8863 36.563 33.102 36.4166 33.2639 36.4166C33.3178 36.4166 33.6307 36.6781 33.9651 36.992C34.2996 37.3058 34.6556 37.5883 34.7527 37.5987L34.9901 37.6406C35.0224 37.6406 35.1735 37.6092 35.3245 37.536V37.5464ZM31.7319 34.8159C31.7319 34.6381 31.3435 34.4393 30.8796 34.3975C30.502 34.3451 30.502 34.3556 30.502 34.5335C30.502 34.6799 30.5559 34.7427 30.8256 34.8473C31.2356 35.0252 31.7319 35.0042 31.7319 34.8159Z" fill="#FFB700" stroke="black" stroke-width="0.732323"/>
<path d="M32.1531 34.7949C32.3473 34.6275 32.4336 34.4392 32.3149 34.4392C32.1855 34.4392 31.8402 34.7321 31.8402 34.8576C31.8402 35.025 31.905 35.0146 32.1639 34.7949H32.1531ZM31.7539 34.2613C31.7647 34.1567 31.7 34.0939 31.5058 33.9998C31.0742 33.8219 30.578 33.7278 30.4593 33.8219C30.2327 33.9998 30.3838 34.2299 30.7398 34.2718C30.8908 34.2822 31.085 34.3241 31.1821 34.3659C31.4626 34.4705 31.7216 34.4182 31.7539 34.2613ZM31.7539 33.7068C31.7755 33.5708 31.6784 33.5185 30.8908 33.2465C30.2974 33.0373 30.0385 33.1419 30.2327 33.4871C30.2974 33.6022 30.4053 33.6545 30.6535 33.6964C30.8369 33.7173 31.085 33.7696 31.2037 33.8114C31.5274 33.9161 31.7216 33.8742 31.7431 33.7068H31.7539ZM32.1423 33.1942C32.261 33.0791 32.3581 32.9431 32.3581 32.8804C32.3581 32.7234 31.8942 33.0164 31.8294 33.2256C31.7647 33.4662 31.8834 33.4558 32.1531 33.1942H32.1423ZM31.7539 33.1628C31.7755 32.9954 31.495 32.849 30.934 32.7339C30.5132 32.6397 30.3298 32.692 30.3622 32.8804C30.3838 32.985 30.524 33.0582 30.9016 33.1733C31.5381 33.3616 31.7216 33.3616 31.7539 33.1628ZM32.2934 32.3887C33.027 32.0748 33.0809 31.2902 32.4012 31.0809C32.1207 30.9972 31.9481 31.0495 31.8402 31.2274C31.7539 31.3739 31.8079 31.6249 31.9158 31.6249C31.9589 31.6249 31.9913 31.6773 31.9913 31.7296C31.9913 32.012 30.8908 32.1271 30.4377 31.9074C30.2759 31.8342 30.2219 31.6249 30.3406 31.6249C30.4485 31.6249 30.5132 31.4157 30.4593 31.2797C30.3945 31.0705 30.1788 31.0077 29.8875 31.0914C29.2078 31.2588 29.2294 32.033 29.9198 32.3468C30.6838 32.6186 31.5198 32.6334 32.2934 32.3887Z" fill="#FFB700" stroke="black" stroke-width="0.732323"/>
<path d="M31.8531 31.7821C31.8963 31.7403 31.8747 31.6775 31.81 31.6356C31.6589 31.5206 31.6697 31.3427 31.8316 31.1439C31.961 30.9975 31.9718 30.7673 32.015 28.518C32.0905 24.6367 32.3926 21.7179 32.781 21.0065C32.9428 20.7345 32.9212 20.7345 32.5113 21.0065C31.9734 21.3699 31.5392 21.8593 31.249 22.4293C30.5801 23.6324 30.3535 25.254 30.3535 28.7273C30.3535 30.6941 30.3643 30.9556 30.483 31.1335C30.5909 31.3218 30.5909 31.3846 30.5261 31.5729C30.4722 31.688 30.4506 31.8135 30.4722 31.8344C30.6232 31.9704 31.7021 31.939 31.8531 31.7821ZM37.9056 28.0786C37.938 28.0473 37.884 27.8694 37.7977 27.702C37.6683 27.43 37.6143 27.3882 37.4309 27.3882C36.5682 27.3154 35.7269 27.0885 34.9495 26.7186C34.3993 26.478 34.1943 26.4257 34.1403 26.4885C33.9677 26.6454 34.2482 27.0115 34.6798 27.2103C35.3148 27.4323 35.98 27.5627 36.6541 27.5974C36.9454 27.5974 36.9562 27.5974 36.7836 27.838L36.6757 28.0054H36.9994L37.5388 28.0682C37.8624 28.1414 37.8624 28.1414 37.9056 28.0786Z" fill="#FFB700" stroke="black" stroke-width="0.732323"/>
<path d="M41.3136 29.825C41.3136 29.7204 41.0007 29.4588 40.6986 29.281C40.4505 29.145 40.4073 29.1345 40.4073 29.2496C40.4073 29.417 40.2563 29.8459 40.1916 29.8459C40.1592 29.8459 40.1053 29.7622 40.0837 29.6681C40.0513 29.5634 39.9326 29.3542 39.814 29.2182L39.5982 28.9567L39.4472 29.1973C39.2961 29.4274 39.0264 29.6471 38.9077 29.6471C38.8861 29.6471 38.8754 29.5216 38.9077 29.3856C38.9185 29.2182 38.9077 29.0927 38.8538 29.0717C38.8106 29.0403 38.7675 29.0508 38.7675 29.0927C38.7675 29.1764 38.4006 29.5739 38.3359 29.5739C38.2928 29.5739 38.2496 29.4693 38.228 29.3228L38.1417 28.8207C38.1201 28.6951 38.1741 28.7788 38.2496 29.0299L38.4222 29.4588L38.5948 29.1973C38.673 29.0892 38.7314 28.9689 38.7675 28.8416C38.7675 28.7893 38.7998 28.7683 38.843 28.7893C38.8861 28.8102 38.9401 28.988 38.9617 29.1764L39.0156 29.5321L39.2098 29.3228C39.3114 29.2179 39.4051 29.106 39.4903 28.988C39.5658 28.8625 39.5766 28.8625 39.7384 28.988C39.8248 29.0717 39.965 29.2496 40.0513 29.396C40.1376 29.5425 40.2131 29.6471 40.2239 29.6367L40.2887 29.3019L40.3318 28.988C40.3426 28.9357 40.9144 29.3019 41.1302 29.4797C41.2597 29.5948 41.3891 29.6785 41.4107 29.6576C41.4323 29.6367 41.4539 29.4693 41.4539 29.2705C41.4539 28.9776 41.4215 28.8939 41.2381 28.737C41.0223 28.5486 41.0223 28.5486 40.936 28.6846C40.8281 28.8625 40.7094 28.8625 40.7094 28.6846C40.7094 28.5591 40.2995 28.0674 40.2024 28.0674C40.17 28.0674 40.0837 28.172 40.0082 28.308C39.9326 28.444 39.8463 28.5486 39.8248 28.5486C39.7169 28.5486 39.1451 27.9209 39.1451 27.8163C39.1451 27.7326 39.1882 27.7536 39.2853 27.9C39.3817 28.0374 39.4939 28.1638 39.6198 28.2766C39.8355 28.465 39.9219 28.4231 40.0082 28.0569C40.0405 27.9523 40.0837 27.8686 40.116 27.8686C40.2024 27.8686 40.6986 28.3813 40.7634 28.5486L40.8389 28.716L40.8928 28.5277C40.9576 28.2976 41.0331 28.2976 41.141 28.5068C41.1841 28.5905 41.3999 28.7788 41.6157 28.9043L42.0149 29.1554L42.0904 28.9043C42.1335 28.7683 42.1983 28.6951 42.2198 28.737C42.263 28.7893 42.1551 29.2077 42.0796 29.2914C42.0796 29.3019 41.9393 29.2287 41.7991 29.1345L41.5294 28.9462V29.281C41.5294 29.4588 41.5078 29.6785 41.4862 29.7622C41.4323 29.9296 41.3028 29.9714 41.3028 29.825H41.3136ZM39.3177 27.1677C38.843 26.7911 38.7783 26.7074 38.7783 26.5191L38.789 26.3308L38.8214 26.5086C38.843 26.6132 38.9724 26.7806 39.1235 26.9061L39.404 27.1154L39.5658 26.9271C39.6629 26.8225 39.7384 26.6969 39.7384 26.6551C39.7384 26.5295 39.76 26.54 40.0837 26.812C40.3642 27.0526 40.375 27.0526 40.4073 26.8957C40.4397 26.812 40.4289 26.6446 40.4073 26.5295C40.2995 26.2157 40.321 26.1738 40.4613 26.3621L40.7202 26.6551C40.8281 26.7701 40.8389 26.7701 40.882 26.6237C40.9144 26.5295 40.936 26.3726 40.936 26.268V26.0692L41.1841 26.3517C41.4323 26.6237 41.4538 26.6341 41.5186 26.4981C41.5725 26.4249 41.6049 26.2471 41.6049 26.1111C41.6049 25.9227 41.6265 25.8809 41.6696 25.9437C41.7559 26.0692 41.702 26.3831 41.5509 26.6551L41.4431 26.8643L41.3028 26.6446C41.1194 26.3726 41.0547 26.3726 40.9468 26.6655C40.8389 26.948 40.7634 26.9689 40.6555 26.7492C40.5908 26.6132 40.5692 26.6341 40.526 26.9271L40.4721 27.2409L40.1484 27.0003L39.8248 26.7597L39.6629 26.9166C39.5874 27.0108 39.5227 27.1258 39.5227 27.1677C39.5227 27.2723 39.4364 27.2723 39.3177 27.1677ZM43.5253 25.7449C43.3634 25.5984 43.2448 25.452 43.2663 25.431C43.2987 25.3997 43.3203 25.3892 43.3311 25.4101C43.4355 25.5181 43.5435 25.6227 43.6547 25.724C44.0216 26.1006 43.946 26.1111 43.5361 25.7449H43.5253ZM37.9152 25.18C37.7641 24.9707 37.7749 24.8452 37.9691 24.615C38.0986 24.4581 38.1633 24.4372 38.4006 24.4686C38.5625 24.479 38.8969 24.615 39.1451 24.7615C39.5037 24.9693 39.9141 25.0778 40.3318 25.0753L40.1484 24.7824C39.9111 24.4372 39.9111 24.3953 40.1916 24.6046C40.4721 24.8243 40.8065 24.887 41.5617 24.8661L41.9286 24.8556L41.7128 24.6464C41.4215 24.3639 41.5078 24.3326 41.8422 24.615C42.1443 24.8766 42.1335 24.8975 41.4754 24.9603C41.201 24.9871 40.9239 24.9695 40.6555 24.908C40.2887 24.8033 40.2671 24.8138 40.3426 24.9289C40.3858 25.0021 40.4505 25.0544 40.4829 25.0544C40.526 25.0544 40.5584 25.0963 40.5584 25.1381C40.5584 25.2741 39.76 25.1486 39.3716 24.9707C38.5085 24.5418 38.4006 24.4999 38.1849 24.5627C38.1274 24.5842 38.0749 24.6165 38.0305 24.6578C37.986 24.6991 37.9505 24.7486 37.9259 24.8033C37.7857 25.1486 38.2928 25.4206 38.4977 25.1172C38.5625 25.023 38.5517 24.9707 38.4438 24.8556C38.2928 24.7092 38.3143 24.6883 38.5085 24.751C38.6488 24.8033 38.6596 25.1277 38.5301 25.2532C38.3899 25.3892 38.0446 25.3578 37.9152 25.18Z" fill="black" stroke="black" stroke-width="0.732323"/>
<path d="M41.3587 24.3321C41.2508 24.2275 41.3371 24.2066 41.8226 24.1961C42.4268 24.1856 42.7936 24.0915 43.2251 23.8195C43.5704 23.6102 43.6675 23.6521 43.333 23.8718C43.0417 24.081 42.5778 24.2275 42.1139 24.2693L41.5637 24.3426C41.4774 24.3635 41.3803 24.353 41.3479 24.3321H41.3587Z" fill="black" stroke="black" stroke-width="0.732323"/>
<path d="M36.0776 41.8269L36.3257 41.6804L36.4336 41.8269C36.5738 42.0152 36.973 42.0047 37.232 41.8269L37.4369 41.6699L37.6096 41.8164C37.8253 42.0152 38.2353 42.0152 38.505 41.8164C38.6884 41.6909 38.7208 41.6804 38.8287 41.785C38.9042 41.8478 39.12 41.9106 39.3034 41.9419C39.6486 41.9838 39.6486 41.9838 39.8428 41.6909C40.0154 41.4502 40.037 41.3561 40.0047 41.1155C39.9745 40.9317 39.953 40.7466 39.9399 40.561C39.9183 40.289 39.9291 40.289 40.3283 40.1425C40.5265 40.0835 40.721 40.0137 40.9109 39.9333C41.0727 39.8391 41.5259 39.3265 41.5259 39.2219C41.5259 39.201 41.3532 39.1591 41.1375 39.1382C40.2744 39.0336 40.1341 38.5942 40.6951 37.7782C41.5906 36.4181 42.1408 35.1104 42.1408 34.2839C42.1408 33.9073 42.1732 33.7818 42.2163 33.8655C42.4213 34.1898 42.0545 35.5812 41.5151 36.5855L41.2993 36.9831L41.5043 36.9412C41.6122 36.9098 42.3026 36.6274 43.0147 36.3135C44.9782 35.4557 45.6471 35.2883 46.9202 35.3406C47.9883 35.3824 48.4306 35.5812 49.1858 36.3449C49.585 36.7634 49.9734 37.0458 50.6747 37.4748C52.1635 38.3745 52.2282 38.4582 52.3038 39.5253C52.3793 40.6028 52.3361 40.6656 51.4946 40.8435C50.7718 41.0004 50.3186 41.3247 50.2 41.785C50.1352 42.0152 50.2755 42.0256 50.6315 41.7955L50.9012 41.6281L51.0199 41.7955C51.1817 42.0152 51.5054 42.0152 51.7751 41.7955L51.9909 41.6386L52.2067 41.7955C52.5303 42.057 52.9619 41.9943 53.0913 41.6699C53.1129 41.6176 53.1776 41.6281 53.3071 41.7432C53.5553 41.9524 54.1702 42.0361 54.2349 41.8687C54.2565 41.8059 54.2134 41.6595 54.1271 41.5339C53.771 41.0108 53.6524 40.7702 53.6524 40.4878C53.6524 40.0902 53.7602 39.8914 54.2349 39.5776C54.7959 39.18 54.9686 38.6779 54.537 38.6779C54.2781 38.6779 54.0084 38.4477 53.8358 38.0816C53.4905 37.3283 53.566 36.4914 54.0839 35.0895C54.481 34.2646 54.6801 33.3633 54.6665 32.4531C54.6665 31.679 54.6449 31.5534 54.4723 31.1245C54.3373 30.8262 54.171 30.5422 53.976 30.2771L53.6739 29.89L54.0515 29.5761C55.2167 28.645 54.9794 27.1176 53.5768 26.5318C53.1453 26.3435 53.0374 26.333 52.2822 26.333C51.8506 26.333 51.1494 26.3958 50.7718 26.469C50.265 26.5468 49.753 26.5887 49.2398 26.5945C48.5061 26.5945 48.3767 26.5736 48.0962 26.4272C47.8049 26.2807 47.7509 26.2075 47.697 25.8518C47.6918 25.8182 47.6783 25.7864 47.6576 25.759C47.637 25.7317 47.6097 25.7096 47.5783 25.6948C47.4704 25.6634 47.0173 26.0505 46.9526 26.2179C46.9094 26.3121 46.8878 26.3016 46.7907 26.1865C46.6993 26.0725 46.6265 25.9454 46.575 25.8099C46.4671 25.4647 46.6073 25.2136 47.0281 25.0148L47.3518 24.8683L47.1576 24.7533C46.7692 24.5126 46.1003 24.68 45.8629 25.0671C45.7874 25.1717 45.7119 25.2764 45.6903 25.2764C45.6687 25.2764 45.5393 25.1717 45.4098 25.0357C44.9027 24.5545 45.0753 23.8431 45.755 23.6339C46.1111 23.5188 46.4347 23.6025 46.4994 23.8431C46.6073 24.1883 46.9094 23.728 46.8555 23.2991C46.8231 23.0166 46.8231 23.0062 47.0281 23.0062C47.3086 23.0062 47.8912 23.3619 48.0854 23.6339C48.3012 23.9582 48.2796 24.4708 48.0422 24.8474L47.8588 25.1404L48.107 25.0985C48.4522 25.0253 48.7974 24.816 48.9701 24.5545C49.061 24.3879 49.1122 24.2036 49.1196 24.0153C49.1271 23.8269 49.0907 23.6393 49.0132 23.4665C48.8514 23.184 48.873 23.1422 49.1103 23.2363C49.4987 23.3932 49.7145 23.5711 49.8655 23.8745C50.0166 24.1465 50.0273 24.2093 49.9518 24.5022C49.9002 24.6805 49.8201 24.8499 49.7145 25.0044C49.585 25.1717 49.5742 25.2031 49.6821 25.2031C49.8763 25.2031 50.2647 25.0253 50.405 24.8893C50.4805 24.8056 50.5884 24.6277 50.6423 24.4708L50.7502 24.2093L50.8581 24.4185C51.0199 24.701 51.3436 24.9625 51.732 25.1299C52.1527 25.2973 52.3253 25.3077 52.1096 25.1508C51.9585 25.0462 51.678 24.2616 51.7751 24.1883C52.2408 24.4411 52.666 24.7583 53.0374 25.1299C53.6524 25.6634 54.0407 25.8413 54.6018 25.8413C55.3246 25.8413 55.7454 25.2345 55.4217 24.6591C55.2383 24.3243 54.8175 24.272 54.5586 24.5545C54.4507 24.6905 54.4183 24.7951 54.4507 24.9416C54.4939 25.109 54.4831 25.1299 54.3213 25.1299C54.1055 25.1299 53.6955 24.8683 52.9619 24.272C51.9407 23.4198 50.7669 22.7567 49.4987 22.3157C48.6396 22.1231 47.7525 22.0771 46.8771 22.1797C46.1866 22.3052 45.3666 22.6923 44.9135 23.1003C44.1259 23.8326 44.1151 24.8056 44.8811 25.6948L45.0969 25.9459L44.9567 26.1761C44.8512 26.3409 44.7989 26.5326 44.8067 26.7264C44.8143 26.9204 44.8816 27.1076 44.9998 27.2641C45.1077 27.4106 45.2156 27.5256 45.248 27.5256C45.2695 27.5256 45.2911 27.4315 45.3019 27.3164C45.3235 27.0339 45.4529 26.8456 45.6687 26.7724C45.8629 26.6992 45.9924 26.741 46.8771 27.0862C47.8157 27.4419 49.3585 27.4629 50.9983 27.149C51.7091 26.9898 52.4488 26.9969 53.1561 27.1699C53.9329 27.4838 54.1055 28.2893 53.5445 28.8961C53.2963 29.1681 53.0698 29.2728 52.2822 29.482C51.5965 29.6573 50.8837 29.7105 50.1784 29.6389C49.0132 29.6285 48.5925 29.6494 48.1285 29.7435C47.5999 29.8481 47.287 29.8586 45.7766 29.8272L44.018 29.7854L44.2122 29.9318C44.3162 30.0214 44.4282 30.1019 44.5467 30.1725C44.6869 30.2457 44.6762 30.2562 44.482 30.3294C44.3741 30.3712 44.1151 30.4026 43.9102 30.4026H43.5541L43.511 30.6956C43.482 30.8336 43.482 30.9759 43.511 31.114C43.5541 31.2186 43.5326 31.2396 43.4247 31.1977C43.3491 31.1663 43.1442 31.114 42.9608 31.0826C42.7757 31.0441 42.5951 30.9881 42.4213 30.9152C42.2163 30.8106 42.1948 30.8106 42.1192 30.9466C42.0545 31.0513 41.4503 31.4906 41.364 31.4906C41.3251 31.2192 41.2451 30.9548 41.1267 30.706C41.0188 30.4863 40.9217 30.2352 40.8893 30.162C40.857 30.0469 40.8354 30.0365 40.7814 30.1306C40.7491 30.1829 40.7059 30.3399 40.6736 30.4654C40.6358 30.6348 40.5702 30.7972 40.4794 30.9466L40.3175 31.1768L40.2096 30.978C40.1018 30.7688 39.9291 30.5386 39.8644 30.5386C39.8428 30.5386 39.8105 30.6014 39.7889 30.6956C39.7349 30.8629 39.3142 31.3546 39.2063 31.3546C39.1739 31.3546 39.1416 31.2186 39.1416 31.0408C39.1416 30.8839 39.1092 30.7374 39.066 30.7374C39.0229 30.7374 38.9905 30.7897 38.9905 30.842C38.9905 30.9676 38.6345 31.3651 38.505 31.3651C38.4619 31.3651 38.3756 31.407 38.3216 31.4697C38.1922 31.6057 38.0843 31.5848 38.1382 31.4279C38.1534 31.2939 38.1386 31.1583 38.0951 31.0303L37.9872 30.6956C37.9656 30.6432 37.8361 30.6642 37.5556 30.7479C37.1241 30.8839 36.973 30.8525 37.1996 30.6851C37.2859 30.6223 37.4154 30.4026 37.4801 30.2038C37.5556 29.9946 37.6635 29.8168 37.7174 29.7958C37.793 29.7749 37.793 29.7958 37.6959 29.9214C37.6335 30.0009 37.5926 30.0945 37.5772 30.1934C37.5772 30.2457 37.5233 30.3817 37.4693 30.4968C37.4046 30.6014 37.3614 30.706 37.3722 30.7165C37.383 30.7269 37.5556 30.6642 37.7498 30.5805L38.0951 30.4131V30.5595C38.0951 30.6432 38.1382 30.8525 38.1922 31.0303L38.2893 31.3442L38.5266 31.2396C38.764 31.1349 38.9905 30.7583 38.9905 30.4549C38.9905 30.3085 39.0768 30.3294 39.12 30.4863C39.12 30.5282 39.1847 30.706 39.2279 30.8734L39.3358 31.1663L39.4976 30.978C39.5947 30.8734 39.7026 30.6642 39.7457 30.5282C39.832 30.2771 39.9615 30.162 39.9615 30.3503C39.9615 30.4759 40.3283 30.9571 40.393 30.9152C40.4362 30.8943 40.5009 30.7165 40.5549 30.5177C40.6628 30.0992 40.8246 29.8272 40.9325 29.89C40.9756 29.9109 40.9864 29.9528 40.9648 29.9946C40.9433 30.0155 41.0296 30.2875 41.159 30.5805C41.2529 30.8 41.3464 31.0197 41.4395 31.2396C41.4827 31.3442 41.5259 31.3442 41.7956 31.1036C41.9574 30.9571 42.1192 30.8002 42.13 30.7479C42.1624 30.6642 42.1948 30.6746 42.3458 30.7688C42.6639 30.9317 43.0124 31.0312 43.3707 31.0617C43.3923 31.0408 43.4139 30.8525 43.4139 30.6432L43.4247 30.2562L43.6404 30.298C43.7483 30.3294 43.9965 30.3294 44.1799 30.298L44.5035 30.2562L44.2122 30.0469C44.0504 29.9423 43.8886 29.8063 43.8454 29.7435C43.8131 29.6808 43.662 29.618 43.5002 29.6075C43.0579 29.5657 42.2703 29.1472 42.2703 28.938C42.2703 28.8961 42.3782 28.9694 42.5076 29.0844C42.8097 29.346 43.2197 29.5029 43.5865 29.5029H43.8454L43.6836 29.2937C43.5683 29.1314 43.4944 28.945 43.4678 28.7497C43.4462 28.4358 43.4139 28.394 43.0794 28.1743C42.8855 28.0409 42.7049 27.8904 42.54 27.7244L42.3566 27.5256L42.2595 27.7663C42.2055 27.9023 42.1516 28.0069 42.1192 28.0069C42.0977 28.0069 41.9898 27.9232 41.9035 27.829C41.8428 27.7608 41.7697 27.7041 41.6877 27.6616C41.6553 27.6616 41.5798 27.7872 41.4935 27.9441L41.3425 28.2266L41.2346 28.0696C41.1386 27.9413 41.0303 27.8222 40.9109 27.7139C40.7814 27.6093 40.7275 27.5256 40.7707 27.5256C40.8138 27.5256 40.9541 27.6303 41.0943 27.7663L41.3317 28.0069L41.4395 27.829C41.5019 27.7057 41.5209 27.5661 41.4935 27.4315C41.4503 27.2432 41.4611 27.2327 41.5259 27.3582C41.6189 27.4763 41.7277 27.5819 41.8495 27.6721L42.0869 27.8604L42.2487 27.5779C42.4105 27.285 42.4105 27.285 42.4753 27.4629C42.5832 27.6826 43.2844 28.2475 43.8778 28.5718C43.9857 28.6241 43.9425 28.4567 43.7699 28.0487C43.7181 27.9146 43.689 27.7733 43.6836 27.6303C43.6836 27.4419 43.6297 27.3582 43.3815 27.1699C43.2273 27.0743 43.0982 26.945 43.0045 26.7924C42.9109 26.6399 42.8553 26.4682 42.8421 26.2911C42.8097 26.1133 42.745 25.925 42.691 25.8622C42.6263 25.7576 42.6047 25.8204 42.6263 26.1342C42.6479 26.3539 42.6155 26.6259 42.5616 26.741L42.4753 26.9502L42.4105 26.7724C42.3674 26.6782 42.1948 26.5108 42.0329 26.4062C41.8711 26.3016 41.7524 26.197 41.774 26.1761C41.7956 26.1551 41.9682 26.2493 42.1516 26.3853C42.4429 26.605 42.4968 26.6259 42.54 26.5318C42.5832 26.4272 42.54 25.9459 42.4537 25.6111C42.4105 25.4437 42.4105 25.4437 42.6263 25.653C42.7773 25.7994 42.8637 25.9878 42.9392 26.3016C43.0255 26.6992 43.0686 26.7724 43.4462 27.0967C43.6728 27.2955 43.8778 27.4419 43.8886 27.4315C43.9102 27.4106 43.9317 26.9084 43.9533 26.3016C43.9965 25.1404 43.9533 24.8579 43.662 24.5022L43.511 24.3139L43.7483 24.0733C44.0142 23.8266 44.1919 23.5041 44.2554 23.1526L44.2986 22.8702L44.0396 23.1108C43.8239 23.3095 43.716 23.3514 43.4678 23.3514C43.2197 23.3514 43.1226 23.3095 42.9608 23.1422C42.7087 22.9068 42.4014 22.7345 42.0653 22.64C41.9358 22.5981 41.8927 22.6191 41.8927 22.7028C41.8927 22.7655 41.8279 22.9329 41.7416 23.0898L41.5906 23.3619L41.2669 23.048C41.0619 22.8702 40.8354 22.7132 40.652 22.6714C40.2096 22.5668 40.1881 22.5668 40.1881 22.8911C40.1881 23.3828 39.9723 23.4769 39.5839 23.1526C39.2818 22.9015 39.0445 22.8388 38.4727 22.912L38.0411 22.9538L38.1166 23.1422C38.1814 23.2991 38.1706 23.3723 38.0303 23.5502C37.8038 23.8431 37.5125 23.9686 37.0593 23.9686C36.8436 23.9686 36.5846 24.0105 36.4767 24.0628C36.3689 24.1151 36.0884 24.1674 35.8618 24.1883C35.646 24.2093 35.3979 24.2511 35.3224 24.272C35.2145 24.3139 35.2145 24.272 35.2468 24.0419C35.3008 23.6862 35.0311 23.4142 34.6319 23.4142C34.1032 23.4142 33.8659 23.8745 34.0709 24.4813C34.1129 24.6122 34.1489 24.7448 34.1788 24.8788C34.3205 25.1404 34.5107 25.3744 34.7398 25.5693C35.0203 25.8413 35.2792 26.1238 35.3224 26.197C35.4093 26.306 35.5198 26.3953 35.646 26.4585L35.8834 26.5841L35.851 26.333C35.8186 26.061 35.8726 26.0191 36.0236 26.2179C36.0776 26.2807 36.2178 26.3958 36.3257 26.4585C36.5091 26.5632 36.5415 26.5632 36.5415 26.4795C36.5415 26.4167 36.5738 26.2807 36.617 26.1761L36.6925 25.9878L36.8328 26.2493C36.9083 26.3958 37.1564 26.7201 37.383 26.9816C37.8253 27.4733 38.1058 28.0278 37.9656 28.1533C37.9009 28.2057 37.7498 28.2057 37.4262 28.1429C37.1888 28.101 36.8867 28.0696 36.7573 28.0906C36.5091 28.122 36.4875 28.0906 36.6494 27.9023C36.8112 27.693 36.7788 27.6616 36.4552 27.6616C36.0776 27.6616 35.139 27.4838 34.7721 27.3478C34.4269 27.2118 34.3406 27.2432 34.2327 27.5675L34.0493 28.1533L33.9414 28.4672L34.3298 28.4358C34.53 28.4155 34.7284 28.3805 34.9232 28.3312C34.9996 28.3065 35.0801 28.2958 35.1605 28.2998C35.1821 28.3103 35.1282 28.4358 35.0526 28.5823L34.9016 28.8334L35.139 28.7915C35.2684 28.7601 35.4626 28.6974 35.5705 28.645C35.7647 28.5614 35.7863 28.5614 35.9373 28.802C36.1207 29.0844 36.261 29.074 36.2933 28.7706C36.3257 28.4567 36.4336 28.4986 36.6386 28.9171C36.8328 29.3146 37.027 29.4611 37.0701 29.2309C37.0809 29.1472 37.178 29.0217 37.2967 28.938C37.534 28.781 37.7067 28.8334 37.8038 29.074C37.9116 29.3355 37.6743 29.5971 37.0054 29.9946C36.386 30.3262 35.853 30.7909 35.4472 31.353C35.0414 31.9151 34.7736 32.5598 34.6643 33.2378C34.4593 34.4722 35.0958 35.7486 36.3473 36.6797C36.9515 37.1191 37.9116 37.5794 37.8469 37.412C37.588 36.6483 37.5988 35.215 37.8577 34.9744C37.9009 34.9326 37.8901 35.079 37.8253 35.2987C37.6096 36.1252 37.7174 36.7738 38.2569 38.3013C38.7316 39.6822 38.6669 40.2785 37.9764 40.6656C37.7606 40.7912 37.6204 40.8121 37.027 40.8016C36.3797 40.8016 36.3041 40.8016 36.0991 40.969C35.8514 41.2145 35.6891 41.5291 35.6352 41.8687C35.6352 42.0047 35.7863 41.9838 36.0668 41.8269H36.0776Z" fill="#FFB700"/>
<path d="M46.5454 41.7931L46.8152 41.6257L46.9986 41.7931C47.2359 42.0128 47.5272 42.0023 47.7538 41.7826C47.8617 41.678 47.948 41.6152 47.9588 41.6257L48.0559 41.7931C48.1098 41.8872 48.2285 41.9291 48.4443 41.95C48.6924 41.9604 48.7679 41.95 48.8758 41.8035L48.9837 41.6257L49.2534 41.7931C49.987 42.2534 50.3754 41.7721 50.041 40.8201C49.8792 40.3389 49.9762 40.0669 50.5049 39.4601C50.7315 39.1985 50.9149 38.9161 50.9149 38.8324C50.9149 38.7173 50.8717 38.6964 50.5696 38.7068C50.2891 38.7068 50.2028 38.6755 50.0518 38.5185C49.8036 38.257 49.8252 37.9536 50.0949 37.6188L50.3107 37.3573L49.9223 37.1062C49.6123 36.8841 49.3234 36.6356 49.0592 36.3634C48.8238 36.0939 48.5358 35.872 48.2118 35.7105C47.8879 35.5489 47.5343 35.4509 47.1712 35.4218L46.6641 35.3695V35.7462C46.6641 36.2169 46.9015 36.6773 47.5272 37.4514C48.2393 38.3302 48.2824 38.4662 48.3148 39.617L48.3472 40.59L48.1314 40.7783C47.948 40.9457 47.8725 40.977 47.2683 41.0084C46.6965 41.0398 46.567 41.0712 46.4052 41.2177C46.2158 41.3517 46.085 41.5494 46.0384 41.7721C46.006 41.9291 46.0168 41.9604 46.1355 41.9604C46.211 41.9604 46.3944 41.8872 46.5454 41.7931ZM31.2039 39.2822C31.2692 39.1893 31.3065 39.0807 31.3118 38.9684C31.3118 38.8638 31.3765 38.8219 31.657 38.7801L31.9915 38.7382L31.7757 38.5604C31.506 38.3511 31.4736 38.1942 31.711 38.1942C31.9483 38.1942 32.3367 37.9641 32.4015 37.7862C32.4338 37.7025 32.4015 37.5979 32.3583 37.5456C32.2288 37.3991 31.9807 37.42 31.9376 37.5874C31.8836 37.7548 31.8081 37.7548 31.6139 37.5874C31.3442 37.3259 31.3334 36.7923 31.6139 36.4785C31.7326 36.332 31.7326 36.332 31.5707 36.1751C31.3981 36.0077 31.2687 35.6938 31.355 35.6102C31.3765 35.5892 31.5168 35.6102 31.657 35.6625C31.8728 35.7252 31.9483 35.7252 32.0347 35.6625C32.2828 35.4637 32.0131 35.2126 31.6031 35.2754C31.4305 35.2963 31.3658 35.2754 31.3442 35.1917C31.3226 35.1289 31.1823 35.0452 31.0205 35.0034C30.7292 34.9301 30.7292 34.9301 30.7292 35.1289C30.7292 35.3381 30.5998 35.38 30.3624 35.244C30.1682 35.1394 29.9848 35.2231 29.9848 35.4218C29.9848 35.6102 30.1682 35.6938 30.5242 35.6729C30.7832 35.6625 30.794 35.8508 30.5458 36.1228L30.3624 36.332L30.5027 36.5308C30.7184 36.8237 30.6969 37.3154 30.4703 37.5665L30.2869 37.7548L30.1682 37.5979C29.9956 37.3887 29.769 37.3991 29.7043 37.6293C29.6719 37.7757 29.7043 37.8385 29.8985 38.0059C30.028 38.1105 30.2221 38.1942 30.3192 38.1942C30.5674 38.1942 30.5566 38.393 30.2977 38.5813L30.0819 38.7382L30.4056 38.7801C30.5782 38.8115 30.7292 38.8533 30.7292 38.8847C30.7292 39.0207 30.945 39.4287 31.0097 39.4287C31.0529 39.4287 31.1392 39.3555 31.2039 39.2718V39.2822Z" fill="#FFB700"/>
<path d="M35.3245 37.5464C35.6158 37.4418 36.2415 36.9187 36.2415 36.8037C36.2415 36.7618 36.0689 36.5735 35.8531 36.3852C35.4216 36.0086 34.9361 35.3495 34.8066 34.9728C34.7419 34.7636 34.429 34.4288 33.5444 33.5919L32.3684 32.4934L32.0339 32.5771C31.8397 32.6189 31.6132 32.6608 31.5269 32.6608C31.365 32.6608 31.365 32.6608 31.5808 32.8282L31.7966 32.9956L32.1203 32.8282C32.4116 32.6608 32.4223 32.6608 32.4547 32.7968C32.4763 32.87 32.4331 33.006 32.3468 33.1002C32.2713 33.1943 32.2281 33.3094 32.2389 33.3408C32.2713 33.3722 32.1958 33.4454 32.0771 33.5082C31.8613 33.6128 31.6995 33.9581 31.8721 33.9581C32.0339 33.9581 32.3792 33.5396 32.336 33.4036C32.3145 33.3304 32.336 33.2571 32.3576 33.2362C32.4979 33.163 32.4871 33.4873 32.3576 33.6547C32.2713 33.7384 32.2281 33.843 32.2497 33.8848C32.2713 33.9162 32.1958 33.9894 32.0771 34.0522C31.8613 34.1568 31.6995 34.5021 31.8721 34.5021C32.0447 34.5021 32.3792 34.1045 32.3468 33.9581C32.3252 33.8848 32.3252 33.8011 32.3576 33.7802C32.4547 33.7384 32.4979 33.9894 32.4223 34.115C32.4025 34.1503 32.3921 34.1899 32.3921 34.2301C32.3921 34.2703 32.4025 34.3098 32.4223 34.3451C32.4979 34.4811 32.4223 34.7322 32.2821 34.8159C32.2281 34.8473 32.2605 34.9205 32.4116 35.0252C32.6273 35.1716 32.6273 35.1925 32.6273 35.8621C32.6273 36.427 32.6489 36.5735 32.7568 36.6677C32.8647 36.7723 32.8863 36.7723 32.8863 36.6677C32.8863 36.563 33.102 36.4166 33.2639 36.4166C33.3178 36.4166 33.6307 36.6781 33.9651 36.992C34.2996 37.3058 34.6556 37.5883 34.7527 37.5987L34.9901 37.6406C35.0224 37.6406 35.1735 37.6092 35.3245 37.536V37.5464ZM31.7319 34.8159C31.7319 34.6381 31.3435 34.4393 30.8796 34.3975C30.502 34.3451 30.502 34.3556 30.502 34.5335C30.502 34.6799 30.5559 34.7427 30.8256 34.8473C31.2356 35.0252 31.7319 35.0042 31.7319 34.8159Z" fill="#FFB700"/>
<path d="M32.1531 34.7949C32.3473 34.6275 32.4336 34.4392 32.3149 34.4392C32.1855 34.4392 31.8402 34.7321 31.8402 34.8576C31.8402 35.025 31.905 35.0146 32.1639 34.7949H32.1531ZM31.7539 34.2613C31.7647 34.1567 31.7 34.0939 31.5058 33.9998C31.0742 33.8219 30.578 33.7278 30.4593 33.8219C30.2327 33.9998 30.3838 34.2299 30.7398 34.2718C30.8908 34.2822 31.085 34.3241 31.1821 34.3659C31.4626 34.4705 31.7216 34.4182 31.7539 34.2613ZM31.7539 33.7068C31.7755 33.5708 31.6784 33.5185 30.8908 33.2465C30.2974 33.0373 30.0385 33.1419 30.2327 33.4871C30.2974 33.6022 30.4053 33.6545 30.6535 33.6964C30.8369 33.7173 31.085 33.7696 31.2037 33.8114C31.5274 33.9161 31.7216 33.8742 31.7431 33.7068H31.7539ZM32.1423 33.1942C32.261 33.0791 32.3581 32.9431 32.3581 32.8804C32.3581 32.7234 31.8942 33.0164 31.8294 33.2256C31.7647 33.4662 31.8834 33.4558 32.1531 33.1942H32.1423ZM31.7539 33.1628C31.7755 32.9954 31.495 32.849 30.934 32.7339C30.5132 32.6397 30.3298 32.692 30.3622 32.8804C30.3838 32.985 30.524 33.0582 30.9016 33.1733C31.5381 33.3616 31.7216 33.3616 31.7539 33.1628ZM32.2934 32.3887C33.027 32.0748 33.0809 31.2902 32.4012 31.0809C32.1207 30.9972 31.9481 31.0495 31.8402 31.2274C31.7539 31.3739 31.8079 31.6249 31.9158 31.6249C31.9589 31.6249 31.9913 31.6773 31.9913 31.7296C31.9913 32.012 30.8908 32.1271 30.4377 31.9074C30.2759 31.8342 30.2219 31.6249 30.3406 31.6249C30.4485 31.6249 30.5132 31.4157 30.4593 31.2797C30.3945 31.0705 30.1788 31.0077 29.8875 31.0914C29.2078 31.2588 29.2294 32.033 29.9198 32.3468C30.6838 32.6186 31.5198 32.6334 32.2934 32.3887Z" fill="#FFB700"/>
<path d="M31.8531 31.7821C31.8963 31.7403 31.8747 31.6775 31.81 31.6356C31.6589 31.5206 31.6697 31.3427 31.8316 31.1439C31.961 30.9975 31.9718 30.7673 32.015 28.518C32.0905 24.6367 32.3926 21.7179 32.781 21.0065C32.9428 20.7345 32.9212 20.7345 32.5113 21.0065C31.9734 21.3699 31.5392 21.8593 31.249 22.4293C30.5801 23.6324 30.3535 25.254 30.3535 28.7273C30.3535 30.6941 30.3643 30.9556 30.483 31.1335C30.5909 31.3218 30.5909 31.3846 30.5261 31.5729C30.4722 31.688 30.4506 31.8135 30.4722 31.8344C30.6232 31.9704 31.7021 31.939 31.8531 31.7821ZM37.9056 28.0786C37.938 28.0473 37.884 27.8694 37.7977 27.702C37.6683 27.43 37.6143 27.3882 37.4309 27.3882C36.5682 27.3154 35.7269 27.0885 34.9495 26.7186C34.3993 26.478 34.1943 26.4257 34.1403 26.4885C33.9677 26.6454 34.2482 27.0115 34.6798 27.2103C35.3148 27.4323 35.98 27.5627 36.6541 27.5974C36.9454 27.5974 36.9562 27.5974 36.7836 27.838L36.6757 28.0054H36.9994L37.5388 28.0682C37.8624 28.1414 37.8624 28.1414 37.9056 28.0786Z" fill="#FFB700"/>
<path d="M41.3136 29.825C41.3136 29.7204 41.0007 29.4588 40.6986 29.281C40.4505 29.145 40.4073 29.1345 40.4073 29.2496C40.4073 29.417 40.2563 29.8459 40.1916 29.8459C40.1592 29.8459 40.1053 29.7622 40.0837 29.6681C40.0513 29.5634 39.9326 29.3542 39.814 29.2182L39.5982 28.9567L39.4472 29.1973C39.2961 29.4274 39.0264 29.6471 38.9077 29.6471C38.8861 29.6471 38.8754 29.5216 38.9077 29.3856C38.9185 29.2182 38.9077 29.0927 38.8538 29.0717C38.8106 29.0403 38.7675 29.0508 38.7675 29.0927C38.7675 29.1764 38.4006 29.5739 38.3359 29.5739C38.2928 29.5739 38.2496 29.4693 38.228 29.3228L38.1417 28.8207C38.1201 28.6951 38.1741 28.7788 38.2496 29.0299L38.4222 29.4588L38.5948 29.1973C38.673 29.0892 38.7314 28.9689 38.7675 28.8416C38.7675 28.7893 38.7998 28.7683 38.843 28.7893C38.8861 28.8102 38.9401 28.988 38.9617 29.1764L39.0156 29.5321L39.2098 29.3228C39.3114 29.2179 39.4051 29.106 39.4903 28.988C39.5658 28.8625 39.5766 28.8625 39.7384 28.988C39.8248 29.0717 39.965 29.2496 40.0513 29.396C40.1376 29.5425 40.2131 29.6471 40.2239 29.6367L40.2887 29.3019L40.3318 28.988C40.3426 28.9357 40.9144 29.3019 41.1302 29.4797C41.2597 29.5948 41.3891 29.6785 41.4107 29.6576C41.4323 29.6367 41.4539 29.4693 41.4539 29.2705C41.4539 28.9776 41.4215 28.8939 41.2381 28.737C41.0223 28.5486 41.0223 28.5486 40.936 28.6846C40.8281 28.8625 40.7094 28.8625 40.7094 28.6846C40.7094 28.5591 40.2995 28.0674 40.2024 28.0674C40.17 28.0674 40.0837 28.172 40.0082 28.308C39.9326 28.444 39.8463 28.5486 39.8248 28.5486C39.7169 28.5486 39.1451 27.9209 39.1451 27.8163C39.1451 27.7326 39.1882 27.7536 39.2853 27.9C39.3817 28.0374 39.4939 28.1638 39.6198 28.2766C39.8355 28.465 39.9219 28.4231 40.0082 28.0569C40.0405 27.9523 40.0837 27.8686 40.116 27.8686C40.2024 27.8686 40.6986 28.3813 40.7634 28.5486L40.8389 28.716L40.8928 28.5277C40.9576 28.2976 41.0331 28.2976 41.141 28.5068C41.1841 28.5905 41.3999 28.7788 41.6157 28.9043L42.0149 29.1554L42.0904 28.9043C42.1335 28.7683 42.1983 28.6951 42.2198 28.737C42.263 28.7893 42.1551 29.2077 42.0796 29.2914C42.0796 29.3019 41.9393 29.2287 41.7991 29.1345L41.5294 28.9462V29.281C41.5294 29.4588 41.5078 29.6785 41.4862 29.7622C41.4323 29.9296 41.3028 29.9714 41.3028 29.825H41.3136ZM39.3177 27.1677C38.843 26.7911 38.7783 26.7074 38.7783 26.5191L38.789 26.3308L38.8214 26.5086C38.843 26.6132 38.9724 26.7806 39.1235 26.9061L39.404 27.1154L39.5658 26.9271C39.6629 26.8225 39.7384 26.6969 39.7384 26.6551C39.7384 26.5295 39.76 26.54 40.0837 26.812C40.3642 27.0526 40.375 27.0526 40.4073 26.8957C40.4397 26.812 40.4289 26.6446 40.4073 26.5295C40.2995 26.2157 40.321 26.1738 40.4613 26.3621L40.7202 26.6551C40.8281 26.7701 40.8389 26.7701 40.882 26.6237C40.9144 26.5295 40.936 26.3726 40.936 26.268V26.0692L41.1841 26.3517C41.4323 26.6237 41.4538 26.6341 41.5186 26.4981C41.5725 26.4249 41.6049 26.2471 41.6049 26.1111C41.6049 25.9227 41.6265 25.8809 41.6696 25.9437C41.7559 26.0692 41.702 26.3831 41.5509 26.6551L41.4431 26.8643L41.3028 26.6446C41.1194 26.3726 41.0547 26.3726 40.9468 26.6655C40.8389 26.948 40.7634 26.9689 40.6555 26.7492C40.5908 26.6132 40.5692 26.6341 40.526 26.9271L40.4721 27.2409L40.1484 27.0003L39.8248 26.7597L39.6629 26.9166C39.5874 27.0108 39.5227 27.1258 39.5227 27.1677C39.5227 27.2723 39.4364 27.2723 39.3177 27.1677ZM43.5253 25.7449C43.3634 25.5984 43.2448 25.452 43.2663 25.431C43.2987 25.3997 43.3203 25.3892 43.3311 25.4101C43.4355 25.5181 43.5435 25.6227 43.6547 25.724C44.0216 26.1006 43.946 26.1111 43.5361 25.7449H43.5253ZM37.9152 25.18C37.7641 24.9707 37.7749 24.8452 37.9691 24.615C38.0986 24.4581 38.1633 24.4372 38.4006 24.4686C38.5625 24.479 38.8969 24.615 39.1451 24.7615C39.5037 24.9693 39.9141 25.0778 40.3318 25.0753L40.1484 24.7824C39.9111 24.4372 39.9111 24.3953 40.1916 24.6046C40.4721 24.8243 40.8065 24.887 41.5617 24.8661L41.9286 24.8556L41.7128 24.6464C41.4215 24.3639 41.5078 24.3326 41.8422 24.615C42.1443 24.8766 42.1335 24.8975 41.4754 24.9603C41.201 24.9871 40.9239 24.9695 40.6555 24.908C40.2887 24.8033 40.2671 24.8138 40.3426 24.9289C40.3858 25.0021 40.4505 25.0544 40.4829 25.0544C40.526 25.0544 40.5584 25.0963 40.5584 25.1381C40.5584 25.2741 39.76 25.1486 39.3716 24.9707C38.5085 24.5418 38.4006 24.4999 38.1849 24.5627C38.1274 24.5842 38.0749 24.6165 38.0305 24.6578C37.986 24.6991 37.9505 24.7486 37.9259 24.8033C37.7857 25.1486 38.2928 25.4206 38.4977 25.1172C38.5625 25.023 38.5517 24.9707 38.4438 24.8556C38.2928 24.7092 38.3143 24.6883 38.5085 24.751C38.6488 24.8033 38.6596 25.1277 38.5301 25.2532C38.3899 25.3892 38.0446 25.3578 37.9152 25.18Z" fill="black"/>
<path d="M41.3587 24.3321C41.2508 24.2275 41.3371 24.2066 41.8226 24.1961C42.4268 24.1856 42.7936 24.0915 43.2251 23.8195C43.5704 23.6102 43.6675 23.6521 43.333 23.8718C43.0417 24.081 42.5778 24.2275 42.1139 24.2693L41.5637 24.3426C41.4774 24.3635 41.3803 24.353 41.3479 24.3321H41.3587Z" fill="black"/>
</g>
<defs>
<clipPath id="clip0_12589_5221">
<rect width="62.7706" height="62.7706" rx="31.3853" fill="white"/>
</clipPath>
</defs>
</svg>
