<svg width="63" height="63" viewBox="0 0 63 63" fill="none" xmlns="http://www.w3.org/2000/svg">
<g clip-path="url(#clip0_12589_5213)">
<g clip-path="url(#clip1_12589_5213)">
<mask id="mask0_12589_5213" style="mask-type:luminance" maskUnits="userSpaceOnUse" x="-11" y="0" width="85" height="63">
<path d="M73.2322 0H-10.4619V62.7706H73.2322V0Z" fill="white"/>
</mask>
<g mask="url(#mask0_12589_5213)">
<mask id="mask1_12589_5213" style="mask-type:luminance" maskUnits="userSpaceOnUse" x="-11" y="0" width="85" height="63">
<path d="M-10.4619 0H73.224V62.7706H-10.4619V0Z" fill="white"/>
</mask>
<g mask="url(#mask1_12589_5213)">
<path fill-rule="evenodd" clip-rule="evenodd" d="M-15.6924 0H78.4635V62.7706H-15.6924V0Z" fill="#165D31"/>
<path fill-rule="evenodd" clip-rule="evenodd" d="M8.03093 17.7874C7.9328 19.2586 7.78571 21.8332 9.04844 22.1029C10.5565 22.25 9.72281 19.5529 10.2745 19.0624C10.3726 18.8173 10.5565 18.8173 10.5687 19.1237V21.4163C10.5687 22.152 11.0591 22.3726 11.4269 22.5197C11.8192 22.4952 12.0889 22.5197 12.236 22.8876L12.4322 26.8475C12.4322 26.8475 13.3394 27.1172 13.3885 24.6285C13.4252 23.1573 13.0942 21.9436 13.2904 21.6615C13.2904 21.3796 13.6582 21.3674 13.9034 21.5022C14.2957 21.7719 14.4673 22.1152 15.0804 21.9925C16.0121 21.7228 16.5761 21.2692 16.5883 20.5581C16.5699 19.8594 16.4245 19.1698 16.1592 18.523C16.2083 18.4004 15.9876 18.0694 16.0366 17.9468C16.196 18.2166 16.4535 18.192 16.5026 17.9468C16.3431 17.4319 16.0979 16.9293 15.7056 16.7209C15.3746 16.4266 14.8842 16.4756 14.7248 17.0886C14.6268 17.7874 14.97 18.6089 15.4727 19.2954C15.583 19.5529 15.7302 19.9942 15.6689 20.3866C15.3991 20.5459 15.1293 20.4723 14.8965 20.2394C14.8965 20.2394 14.1609 19.6877 14.1609 19.5529C14.3571 18.3024 14.1976 18.1553 14.0873 17.7997C14.0137 17.3216 13.7808 17.1621 13.5969 16.8435C13.413 16.6473 13.1678 16.6473 13.0453 16.8435C12.7142 17.4074 12.8736 18.6211 13.1066 19.1728C13.2781 19.6755 13.5356 19.9942 13.413 19.9942C13.315 20.2762 13.1066 20.2026 12.9471 19.8716C12.7677 19.175 12.6812 18.4577 12.6897 17.7384C12.6284 17.1745 12.5548 15.973 12.1747 15.6542C11.9541 15.36 11.6231 15.5071 11.5005 15.7768C11.4681 16.3245 11.4804 16.8739 11.5373 17.4196C11.7824 18.3268 11.8683 19.1361 11.9908 20.0556C12.0276 21.2938 11.2798 20.595 11.3165 19.9697C11.4775 19.1837 11.4649 18.3719 11.2798 17.5913C11.1572 17.2725 11.0224 17.199 10.7158 17.248C10.4829 17.248 9.88214 17.8978 9.71057 19.0012C9.71057 19.0012 9.56337 19.5651 9.50206 20.0678C9.41628 20.6317 9.04844 21.0486 8.77873 19.9942C8.5581 19.2219 8.411 17.3461 8.04317 17.7874H8.03093Z" fill="white"/>
<path fill-rule="evenodd" clip-rule="evenodd" d="M12.138 23.8088L8.21484 25.6968C8.25156 24.8018 10.0661 23.1958 11.3165 23.1836C12.1134 23.1958 11.9173 23.49 12.1257 23.8088H12.138Z" fill="white"/>
<path fill-rule="evenodd" clip-rule="evenodd" d="M11.4377 25.0332C9.37794 30.3663 16.2803 31.1141 17.0527 25.2539C17.1262 25.0087 17.4204 24.7758 17.4695 25.1681C17.3102 30.4766 12.1242 30.8321 11.2415 29.1648C11.0338 28.5911 10.93 27.985 10.935 27.3748C10.8124 26.3327 10.2607 26.7374 10.1749 27.7671C10.089 28.3434 10.1136 28.5028 10.1136 29.0545C10.3833 33.2473 17.0649 31.4452 18.1561 27.9879C18.7322 26.0753 18.058 24.6654 18.3645 24.6654C19.0265 25.3765 19.9582 24.7635 20.1666 24.5183C20.2525 24.3957 20.4732 24.3098 20.6203 24.4693C21.1352 24.837 22.0424 24.6654 22.2386 24.0157C22.349 23.3659 22.4347 22.7039 22.4592 22.0296C22.0302 22.1521 21.7237 22.238 21.6869 22.4219L21.601 22.9858C21.5643 23.1697 21.2087 23.1697 21.1842 22.9367C21.0248 22.2012 20.3628 22.1154 19.9582 23.2433C19.7008 23.4639 19.2104 23.513 19.1614 23.182C19.2227 22.4219 18.9161 22.3238 18.3032 22.6793L17.7147 18.2413C17.9599 18.2413 18.2051 18.4251 18.438 18.1309C18.1928 17.334 17.6412 15.7157 17.3346 15.5931C17.1998 15.4214 17.0772 15.5318 16.881 15.5809C16.5622 15.6789 16.2681 15.9487 16.3661 16.4881C16.7339 18.7929 16.9791 20.5461 17.3591 22.8632C17.4204 23.1207 17.1998 23.4762 16.9055 23.4394C16.4151 23.1084 16.2925 22.4341 15.4344 22.4586C14.8214 22.4586 14.1348 23.1329 14.049 23.7704C13.9386 24.2854 13.9019 24.837 14.049 25.2784C14.478 25.7933 14.993 25.7443 15.4466 25.634C15.8144 25.4745 16.121 25.1068 16.2558 25.1926C16.3416 25.303 16.2681 26.5289 14.5026 27.4607C13.436 27.9511 12.5778 28.0492 12.1242 27.1787C11.8422 26.627 12.1487 24.5551 11.4377 25.0332Z" fill="white"/>
<path fill-rule="evenodd" clip-rule="evenodd" d="M20.2321 19.6144C20.6367 19.4673 22.5983 17.2116 22.5983 17.2116L22.3041 16.9663C22.1937 16.8805 22.206 16.7824 22.3041 16.6966C22.7944 16.4023 22.6351 15.7894 22.3899 15.4951C22.2234 15.414 22.0404 15.3728 21.8552 15.375C21.67 15.3771 21.4879 15.4224 21.3233 15.5074C20.9801 15.8385 20.9065 16.3656 21.1762 16.6844C21.4337 16.8069 21.6911 17.0767 21.5195 17.2238C20.7104 18.082 18.5158 19.5655 18.7733 19.6144C18.8223 19.688 20.1832 19.688 20.2199 19.6144H20.2321ZM8.34005 27.5834C7.60449 28.7603 7.54318 30.5135 7.94774 31.0407C8.16848 31.2859 8.52397 31.3962 8.78144 31.3104C9.2473 31.1142 9.4557 30.1702 9.34543 29.8392C9.18599 29.594 9.06338 29.5572 8.90405 29.7533C8.58528 30.4155 8.45042 29.9618 8.4137 29.594C8.37855 28.9711 8.4114 28.3462 8.51173 27.7304C8.59752 27.2156 8.51173 27.3627 8.34005 27.5834ZM39.8602 25.7077C39.1492 24.1629 38.1561 22.6427 37.8497 22.0664C36.8942 20.5561 35.8799 19.0838 34.8092 17.6528C34.0491 16.7456 36.0596 18.0329 34.5639 16.2184L33.4729 15.2989C33.2276 15.1274 32.6392 14.8086 32.5411 15.3235C32.4921 15.7894 32.5166 16.0346 32.5901 16.4146C32.6514 16.6598 33.0192 17.0889 33.2032 17.3341C35.7166 20.6632 37.9241 24.2126 39.799 27.9389C40.1177 27.7795 40.0441 25.965 39.8602 25.7077Z" fill="white"/>
<path fill-rule="evenodd" clip-rule="evenodd" d="M36.7323 30.8344C36.5852 30.9937 37.0757 31.6681 37.7131 31.6681C38.7675 31.5455 39.6993 30.957 40.5575 29.3877C40.9061 28.8657 41.1287 28.2697 41.2072 27.6468C41.311 24.6706 41.0725 21.6924 40.4961 18.7706C40.4593 18.5255 40.4961 18.2312 40.5206 18.1577C40.5943 18.0719 40.8272 18.1577 40.9498 17.9493C41.1337 17.7653 40.4593 16.2328 40.0916 15.6567C39.969 15.387 39.9077 15.2153 39.687 15.6812C39.4207 16.1952 39.2939 16.7701 39.3192 17.3486C39.8219 20.8426 39.9812 23.8953 40.3 27.3893C40.3368 27.7326 40.2877 28.223 40.0548 28.4192C39.1297 29.4492 37.9976 30.2722 36.7323 30.8344ZM51.0151 30.8222C50.255 31.2634 50.255 31.7661 50.868 31.7784C51.9224 31.6557 53.1729 31.57 54.0311 30.2704C54.3342 29.6583 54.5094 28.9909 54.546 28.3088C54.7003 25.3785 54.5069 22.4401 53.9697 19.5553C53.9453 19.3101 53.8349 18.7339 53.8717 18.6604C53.9453 18.4887 54.2885 18.6726 54.4111 18.4764C54.5827 18.2925 53.5161 16.9194 53.136 16.3309C53.0134 16.0612 52.9645 15.8896 52.7315 16.3554C52.4846 16.8742 52.4074 17.4577 52.5109 18.0228C53.0747 21.8234 53.4916 24.6676 53.5774 28.0269C53.5284 28.3456 53.5161 28.5172 53.369 28.9219C53.038 29.3387 52.6702 29.8781 52.3269 30.1355C51.9837 30.3808 51.2481 30.626 51.0151 30.8222Z" fill="white"/>
<path fill-rule="evenodd" clip-rule="evenodd" d="M51.5786 27.4239C51.5786 26.5289 51.5908 25.7688 51.5663 25.0945C51.5584 24.5234 51.4332 23.9601 51.1985 23.4394C50.9779 22.9367 51.1127 22.5322 51.0023 21.9927C50.9042 21.4533 50.9288 20.6441 50.7817 20.0189C50.7326 19.7737 50.61 18.9768 50.6469 18.8909C50.7081 18.7194 50.941 18.8909 51.0636 18.6948C51.2352 18.511 50.4506 16.4881 50.0583 15.9118C49.9234 15.6544 49.6537 15.7402 49.3473 16.1571C49.0408 16.439 49.1511 17.0643 49.2736 17.665C50.0216 21.6249 50.5978 25.2171 50.4752 28.9809C50.4261 29.2997 51.5786 28.0246 51.5786 27.4239ZM45.9758 22.5199C45.4977 22.4954 44.5046 21.576 44.2104 21.0487C44.1622 20.9199 44.1417 20.7823 44.1501 20.6451C44.1586 20.5078 44.1958 20.3738 44.2594 20.2518C44.4433 20.1292 44.713 20.0067 44.9214 20.1292C44.9214 20.1292 45.1298 20.4235 45.0931 20.4602C45.3382 20.5828 45.4608 20.5215 45.4854 20.4112C45.4977 20.2273 45.4118 20.117 45.4118 19.9208C45.5222 19.3569 46.1475 19.271 46.3926 19.6266C46.5642 19.8472 46.6378 20.3009 46.65 20.6074C46.65 20.7667 46.4049 20.5828 46.2455 20.6074C46.1106 20.6564 46.0739 20.828 46.0616 20.9751C46.0371 21.3798 45.988 22.0295 45.9758 22.5077V22.5199ZM37.1731 28.4047C37.2958 27.2032 37.1242 25.0577 37.1119 24.3466C37.0463 22.5179 36.895 20.6933 36.6583 18.8787C36.5111 17.8489 37.0751 18.9891 37.0016 18.3884C36.8177 17.3707 36.2537 16.672 35.5794 15.7524C35.371 15.446 35.371 15.3847 35.04 15.8261C34.6722 16.6474 34.9909 17.2236 35.0891 17.8734C35.5672 19.9821 35.8491 21.9192 35.984 23.844C36.1252 25.8435 36.1415 27.8498 36.033 29.8513C36.4009 29.8636 36.9647 29.2751 37.1731 28.4047Z" fill="white"/>
<path fill-rule="evenodd" clip-rule="evenodd" d="M53.2086 26.4829C52.3627 25.0607 51.0999 23.5405 50.7566 22.9643C49.6198 21.3768 48.4257 19.831 47.1767 18.3301C46.1346 17.2267 47.6672 18.1462 46.9805 17.288C46.4044 16.6627 46.245 16.4543 45.7423 16.0742C45.4972 15.9149 45.35 15.6084 45.2519 16.1356C45.2128 16.5922 45.2047 17.051 45.2274 17.5087C45.2274 17.7171 45.4481 18.1216 45.6443 18.3668C48.1821 21.4931 50.965 24.6807 53.1963 28.6897C53.5151 28.5303 53.4048 26.7281 53.1963 26.4829H53.2086Z" fill="white"/>
<path fill-rule="evenodd" clip-rule="evenodd" d="M15.0336 23.8704C14.9723 23.9807 14.8374 24.1156 14.8865 24.2504C14.9723 24.3731 15.0582 24.4099 15.2053 24.4099C15.3401 24.4099 15.5363 24.4466 15.5731 24.3731C15.6467 24.2873 15.6956 24.1278 15.6467 23.9685C15.4995 23.6007 15.1071 23.7479 15.0336 23.8704Z" fill="#165D31"/>
<path fill-rule="evenodd" clip-rule="evenodd" d="M43.4251 44.4432C44.5529 44.4923 45.2886 44.5045 46.2816 44.6149L47.4586 44.4923C48.7582 44.3697 48.8071 46.3435 48.8071 46.3435C48.8071 47.5082 48.3536 47.5695 47.7774 47.6921C47.4464 47.7412 47.2869 47.4959 47.103 47.2507C46.8258 47.3396 46.5304 47.3565 46.2448 47.2998C45.7667 47.2752 45.3009 47.2752 44.835 47.2385C44.3445 47.2017 44.0748 47.2998 43.5721 47.2507C43.4741 47.4102 43.327 47.6308 43.0327 47.5695C42.7875 47.5327 42.4811 46.8339 42.5669 46.2822C42.7508 45.8899 42.6895 46.0247 42.6895 45.8531C38.0797 45.7305 33.4332 45.5221 28.9216 45.5834C25.3908 45.5957 21.909 45.7428 18.415 45.8899C16.5514 45.8654 15.1292 45.5711 14.1484 44.1367C14.2466 44.1367 18.9053 44.3941 20.2662 44.3083C22.7794 44.2839 25.0843 44.0755 27.6466 44.0018C32.6977 44.0877 37.712 44.0877 42.763 44.4432C42.2726 44.1122 42.2726 43.3398 43.0083 43.1436C43.0696 43.0947 43.1063 43.5237 43.2167 43.5115C43.8174 43.4747 43.5477 44.2839 43.4251 44.4432ZM23.1227 16.5888C22.3626 18.7711 23.564 21.1739 24.3977 20.9411C25.0107 21.1862 25.3785 20.0338 25.6237 18.7833C25.8077 18.4277 25.9303 18.391 26.0161 18.5749C25.9915 20.2422 26.1387 20.6223 26.5677 21.125C27.524 21.8605 28.3209 21.223 28.3822 21.1617L29.1178 20.4139C29.2894 20.23 29.5101 20.23 29.7431 20.3771C29.9759 20.5855 29.9392 20.9411 30.4296 21.1862C30.8465 21.3579 31.7169 21.2352 31.9253 20.8797C32.195 20.4015 32.2686 20.2422 32.3911 20.0705C32.5873 19.8131 32.9183 19.9234 32.9183 20.0092C32.8816 20.1564 32.6854 20.2913 32.8203 20.561C33.0655 20.7327 33.1145 20.6223 33.2494 20.5855C33.7398 20.3403 34.1076 19.2859 34.1076 19.2859C34.1198 18.8936 33.8991 18.9182 33.752 19.0162L33.3719 19.2737C33.1268 19.3105 32.6732 19.4698 32.4402 19.1143C32.2073 18.6974 32.2073 18.0967 32.0357 17.6677C32.0357 17.6431 31.7169 16.9933 32.0112 16.9566C32.1583 16.9811 32.4648 17.0669 32.5138 16.8095C32.6609 16.552 32.195 15.8287 31.864 15.4609C31.582 15.1543 31.1897 15.1176 30.8096 15.4364C30.5399 15.6815 30.5768 15.9512 30.5277 16.2087C30.4811 16.3932 30.4791 16.5861 30.5217 16.7715C30.5644 16.957 30.6505 17.1296 30.7729 17.2754C31.0426 17.7903 31.5207 18.4645 31.3614 19.4208C31.3614 19.4208 31.0793 19.8621 30.589 19.8008C30.3806 19.7641 30.0496 19.6782 29.8779 18.3542C29.7431 17.3734 29.9024 15.9758 29.4856 15.326C29.3262 14.9215 29.2159 14.5414 28.8481 15.2156C28.75 15.4853 28.3209 15.8899 28.6274 16.7114C28.9174 17.4515 29.0022 18.2564 28.8726 19.0408C28.6887 19.3105 28.6519 19.3963 28.419 19.6537C28.1002 20.0216 27.7447 19.9234 27.4749 19.7886C27.2297 19.6293 27.0336 19.5434 26.9111 18.9917C26.9355 18.1335 26.9846 16.7236 26.8252 16.4294C26.5923 15.9636 26.2122 16.1351 26.0528 16.2822C25.3235 17.0925 24.8352 18.0903 24.6429 19.1634C24.4222 19.8744 24.1893 19.666 24.0299 19.384C23.6376 19.0162 23.6009 16.1106 23.1227 16.5888Z" fill="white"/>
<path fill-rule="evenodd" clip-rule="evenodd" d="M25.4297 21.3452C25.7852 21.1 25.6258 20.9284 26.1407 21.4434C26.8054 22.6193 27.1912 23.9321 27.2686 25.2806C27.2442 25.5994 27.4648 25.7956 27.5752 25.722C27.6241 24.9865 29.4264 23.9566 31.0814 23.8095C31.3266 23.7482 31.204 23.2701 31.2409 23.0249C31.1427 22.1054 31.7558 21.2717 32.614 21.2104C33.7909 21.3821 34.1832 22.0073 34.2077 22.9513C34.0729 24.7903 32.1603 25.0967 31.0937 25.2439C30.9343 25.3052 30.8608 25.3788 31.0937 25.4646L35.5808 25.489L35.8138 25.6116C35.8383 25.7343 35.7401 25.6362 35.5686 25.9304C35.3217 26.3641 35.1673 26.8441 35.115 27.3404C33.7786 27.7817 32.3932 27.9533 30.9956 28.1372C30.5052 28.3824 30.2601 28.7135 30.3581 29.0812C30.5298 29.4858 31.6086 29.9026 31.6086 29.9149C31.817 30.0375 32.05 30.344 31.5473 30.9692C29.3651 30.8712 27.6609 29.9395 27.0725 28.6276C26.9008 28.4927 26.7046 28.6276 26.582 28.7992C25.7238 29.9026 24.8903 30.8834 23.4313 31.4228C22.5731 31.6436 21.6781 31.288 21.2613 30.7241C20.9793 30.393 20.9916 30.0375 20.8934 29.964C20.4153 30.1723 16.3696 31.8887 16.8845 31.0796C17.8653 30.0375 19.5816 29.2529 21.0774 28.223C21.1877 27.8675 21.3839 26.6906 21.9724 26.3105C22.0091 26.3105 21.8866 26.9971 21.8988 27.2913C21.8988 27.5365 21.8742 27.6223 21.9233 27.561C22.0337 27.4997 23.8482 26.0653 24.0075 25.624C24.1792 25.3788 24.0443 24.7412 24.0443 24.7167C23.701 23.834 23.2229 23.7604 23.0512 23.3191C22.8918 22.7428 22.9654 22.0808 23.2964 21.8846C23.5907 21.6272 23.9339 21.6518 24.265 21.946C24.6328 22.277 24.9515 22.9267 25.0496 23.4049C24.9883 23.5888 24.5591 23.2823 24.4366 23.3681C24.6725 23.6393 24.8295 23.9701 24.8903 24.3244C25.1354 25.3297 25.0618 25.722 24.8166 26.3718C24.0075 28.0759 22.9776 28.5786 22.0704 29.216C22.0459 29.216 22.0337 29.6452 22.3647 29.8782C22.4873 30.0007 22.9654 30.062 23.5171 29.8782C24.6958 29.2236 25.6488 28.2278 26.251 27.0216C26.3552 26.1038 26.2548 25.1742 25.9568 24.2998C25.6012 23.4785 25.1844 22.3138 25.1844 22.2893C25.1722 21.7744 25.2089 21.6027 25.4297 21.3452ZM13.6847 16.613C14.1996 16.8581 15.1804 16.7478 15.1313 15.9141L15.1068 15.534C15.0087 15.2888 14.7145 15.3501 14.6532 15.5953C14.6287 15.6811 14.69 15.8161 14.6164 15.8528C14.5674 15.9019 14.408 15.8773 14.408 15.6444C14.408 15.5709 14.3589 15.4973 14.3222 15.4483C14.2977 15.4238 14.2731 15.4238 14.2118 15.4238C14.1383 15.4238 14.1383 15.436 14.1016 15.4973C14.0892 15.5586 14.0647 15.6199 14.0647 15.6935C14.0647 15.7793 14.0157 15.8037 13.9666 15.8161C13.8931 15.8161 13.9054 15.8161 13.8441 15.7915C13.8195 15.7548 13.7828 15.7424 13.7828 15.6689L13.746 15.4727C13.7215 15.436 13.6724 15.4114 13.6233 15.3992C13.3414 15.3992 13.3169 15.7302 13.3414 15.8528C13.3169 15.8773 13.3046 16.4535 13.6847 16.613Z" fill="white"/>
<path fill-rule="evenodd" clip-rule="evenodd" d="M28.8197 23.0118C29.3346 23.257 30.5729 23.1221 30.2665 22.3252L30.2419 21.9329C30.1316 21.6877 29.8496 21.749 29.7883 22.0065C29.7638 22.0801 29.8251 22.2149 29.7393 22.2516C29.7025 22.3007 29.5308 22.2762 29.5431 22.0555C29.5431 21.9819 29.4941 21.8961 29.4572 21.8471C29.4205 21.8348 29.4082 21.8226 29.3346 21.8226C29.2733 21.8226 29.2733 21.8471 29.2366 21.9084C29.212 21.9697 29.1998 22.031 29.1998 22.1045C29.1875 22.1781 29.1508 22.2027 29.0895 22.2271C29.0282 22.2271 29.0405 22.2271 28.9914 22.1903C28.9547 22.1536 28.9178 22.1414 28.9178 22.0801L28.881 21.8839C28.8565 21.8471 28.8075 21.8226 28.7585 21.8103C28.4765 21.8103 28.452 22.129 28.4642 22.2516C28.452 22.2762 28.4397 22.8647 28.8321 23.0118H28.8197ZM37.6468 20.3636C38.1618 20.6088 39.1303 20.4984 39.0936 19.6771L39.069 19.2848C38.9587 19.0395 38.6767 19.1009 38.6154 19.3461C38.5909 19.4319 38.6522 19.5667 38.5664 19.6158C38.5296 19.6526 38.3579 19.628 38.3703 19.3951C38.3703 19.3215 38.3212 19.2479 38.2844 19.199C38.2476 19.1744 38.2353 19.1744 38.1618 19.1744C38.1004 19.1744 38.1004 19.199 38.0637 19.2603L38.0269 19.4441C38.0147 19.53 37.9779 19.5667 37.9166 19.5667C37.8553 19.5667 37.8676 19.5667 37.8185 19.5422C37.7818 19.5054 37.745 19.4932 37.745 19.4319C37.745 19.3706 37.7327 19.2725 37.7081 19.2235C37.6836 19.1866 37.6346 19.1744 37.5856 19.1622C37.3036 19.1622 37.2791 19.4809 37.2913 19.6035C37.2791 19.628 37.2669 20.2043 37.6592 20.3636H37.6468ZM42.2198 27.0207C41.3249 28.0383 41.7172 29.7179 41.9256 30.0857C42.2198 30.6742 42.4528 31.0543 43.029 31.3484C43.5562 31.7285 43.9729 31.4956 44.1937 31.2259C44.7209 30.6742 44.7331 29.2644 44.9783 28.9945C45.1499 28.4797 45.5913 28.5655 45.7997 28.7984C45.9947 29.0752 46.256 29.2987 46.5598 29.4482C47.0502 29.8773 47.6386 29.9631 48.2271 29.5708C48.6194 29.3379 48.8769 29.0559 49.1099 28.4797C49.3551 27.7931 49.2325 24.6055 49.1712 22.7175L48.6563 20.0816C48.6563 20.0572 48.595 18.8312 48.5337 18.5492C48.5337 18.4266 48.4968 18.3898 48.6194 18.402C48.7543 18.5246 48.7666 18.5246 48.8647 18.5614C48.9873 18.5859 49.1099 18.353 49.024 18.1569L47.7981 15.8765C47.7 15.7784 47.5651 15.6804 47.4058 15.901C47.3117 15.9862 47.2368 16.0903 47.1862 16.2065C47.1354 16.3228 47.11 16.4485 47.1115 16.5753C47.1483 17.1148 47.2341 17.6664 47.2709 18.2059L47.7613 20.9766C47.9207 22.9382 47.9574 24.5566 48.1169 26.5304C48.0923 27.364 47.8348 28.0874 47.5897 28.1977C47.5897 28.1977 47.2218 28.4061 46.9766 28.1732C46.7927 28.0996 46.0694 26.9594 46.0694 26.9594C45.7017 26.6284 45.4564 26.7143 45.199 26.9594C44.4634 27.6705 44.1446 28.9701 43.6419 29.8773C43.5193 30.0857 43.1516 30.2451 42.7593 29.8651C41.7539 28.4797 42.3424 26.5181 42.2198 27.0207ZM37.8798 15.5333C38.3457 15.7171 38.6644 16.6612 38.5664 17.127C38.4683 17.6787 38.2231 18.2917 38.0515 18.2182C37.8553 18.1446 38.1741 17.6542 37.9902 17.1393C37.892 16.796 37.2545 16.1831 37.3282 16.0114C37.2055 15.6313 37.5979 15.4596 37.8798 15.5209V15.5333Z" fill="white"/>
<path fill-rule="evenodd" clip-rule="evenodd" d="M43.72 27.5862C43.8058 26.4584 43.6463 25.7718 43.6218 25.1097C43.5973 24.4477 42.874 19.3967 42.7268 18.9062C42.543 17.95 43.4257 18.7836 43.3276 18.2197C43.0211 17.5331 42.2732 16.5156 42.0403 15.9149C41.8932 15.6697 41.9545 15.4244 41.6358 15.8536C41.3613 16.6059 41.2647 17.4116 41.3537 18.2075C42.1139 22.1674 42.8863 25.453 42.7637 29.2168C43.1315 29.2168 43.536 28.3954 43.72 27.5862ZM51.6152 17.1286C52.0444 17.337 52.2896 18.5139 52.2405 18.8449C52.1548 19.458 51.934 20.12 51.7747 20.0342C51.5908 19.9606 51.8114 19.127 51.7256 18.8695C51.6275 18.5017 51.0514 17.8396 51.1127 17.6435C50.9901 17.2267 51.3578 17.055 51.6152 17.1286ZM20.2668 25.453C20.6713 25.6124 20.9166 26.4706 20.8797 26.7158C20.7817 27.1694 20.5733 27.6598 20.4139 27.5862C20.2545 27.5372 20.4507 26.9242 20.3772 26.7281C20.3403 26.2744 19.7763 26.0292 19.7887 25.8331C19.6905 25.4653 20.0338 25.404 20.279 25.453H20.2668Z" fill="white"/>
<path fill-rule="evenodd" clip-rule="evenodd" d="M30.0207 26.7512C30.5356 26.7757 30.7931 27.1925 30.315 27.3642C29.8245 27.5235 29.3709 27.6584 29.3586 28.345C29.5426 29.3258 29.1134 28.9824 28.8682 28.8598C28.574 28.6392 27.7403 28.1243 27.6177 27.0209C27.6055 26.7634 27.8139 26.5305 28.1449 26.5305C28.6353 26.6654 29.3709 26.6776 30.0207 26.7512Z" fill="#165D31"/>
<path fill-rule="evenodd" clip-rule="evenodd" d="M9.4901 15.2495C10.0786 15.4211 10.1153 16.3038 10.0786 16.5613C9.99269 17.0272 9.78429 17.5297 9.63719 17.4685C9.46552 17.4072 9.63719 16.7697 9.55141 16.5735C9.46552 16.3038 8.96293 15.7889 9.0119 15.6418C8.90163 15.3353 9.25712 15.1882 9.4901 15.2495ZM21.2473 19.3688C20.7814 19.6139 20.6098 20.3496 20.8918 20.7909C21.1615 21.1587 21.5784 21.0239 21.6273 21.0239C22.0809 21.0729 22.3506 20.1779 22.3506 20.1779C22.3506 20.1779 22.363 19.9327 21.8358 20.4109C21.6028 20.4476 21.5906 20.3619 21.5293 20.2392C21.4731 20.0058 21.4947 19.7605 21.5906 19.5404C21.6764 19.3198 21.5047 19.2216 21.2473 19.3688ZM24.6801 14.9061C24.4348 15.0656 23.9812 15.5437 23.969 16.0831C23.9567 16.3896 23.8954 16.3896 24.0916 16.5735C24.2509 16.7942 24.3859 16.7819 24.6801 16.6226C24.7534 16.5764 24.8163 16.5155 24.8648 16.4438C24.9134 16.3721 24.9465 16.291 24.962 16.2057C25.0356 15.8625 24.5943 16.3774 24.5452 15.9851C24.4471 15.6172 24.7291 15.4701 24.9988 15.1269C24.9988 14.8817 24.9988 14.7223 24.6678 14.9061H24.6801ZM27.4263 15.3966C27.3182 15.843 27.2525 16.2986 27.2301 16.7575C27.1566 17.1007 27.598 17.2478 27.7818 16.8064C28.0761 16.0096 28.0761 15.6663 28.1005 15.3353C28.0147 14.8081 27.6593 14.8204 27.4263 15.3966ZM44.8353 24.2604C44.8843 24.1991 47.2873 22.495 47.2873 22.495C47.5325 22.4092 47.4712 23.3778 47.3608 23.3655C46.6157 24.0837 45.7585 24.6759 44.823 25.1187C44.7004 25.2045 44.5902 24.4689 44.823 24.2604H44.8353ZM47.0053 24.2359C47.4344 24.4443 47.6061 25.6826 47.557 26.0136C47.557 26.6756 47.1525 27.1906 46.9808 27.117C46.8091 27.0312 47.0053 26.2957 46.9195 26.0382C46.8214 25.6704 46.4658 24.9961 46.5272 24.7999C46.4045 24.383 46.7479 24.1624 47.0176 24.2359H47.0053ZM32.7838 29.5567C32.9827 29.3247 33.2139 29.1223 33.4704 28.956C33.7156 28.8334 33.9363 29.0541 33.924 29.0419C33.9608 29.287 33.7769 29.4954 33.8382 29.8142C33.8873 29.9368 33.924 30.0839 34.157 30.0349C34.537 29.7284 34.8925 29.7039 35.2604 29.6915C35.5669 29.7039 35.5791 30.2065 35.383 30.2065C34.6841 30.3537 34.3776 30.5498 33.875 30.7336C33.6298 30.8808 33.4336 30.6969 33.4336 30.6847C33.4336 30.6723 33.2988 30.5498 33.3846 30.2311C33.4091 29.9858 33.311 29.8387 33.0904 29.8632C32.9432 29.9614 32.7961 30.0103 32.7225 29.8265C32.6857 29.7039 32.6735 29.6304 32.7838 29.5567ZM49.5308 30.2188C49.629 30.3413 49.7025 30.4639 49.5186 30.6847L49.065 31.077C48.9914 31.1996 48.9424 31.4203 49.1876 31.4816C49.629 31.6042 50.6587 30.9298 50.6587 30.9176C50.8304 30.795 50.7813 30.5498 50.7568 30.5498C50.6587 30.4395 50.4381 30.513 50.291 30.4885C50.2174 30.4885 49.9845 30.4639 50.0948 30.2433C50.1772 30.1349 50.2433 30.0151 50.291 29.8877C50.3523 29.7406 50.291 29.6426 50.0458 29.5567C49.7883 29.5077 49.6779 29.5322 49.396 29.5567C49.2489 29.5813 49.1998 29.6548 49.163 29.8387C49.1753 30.1207 49.3469 30.1085 49.5308 30.2065V30.2188Z" fill="white"/>
<path fill-rule="evenodd" clip-rule="evenodd" d="M32.8696 23.2554C32.8083 23.3781 32.5877 23.3781 32.3791 23.2554C32.1708 23.1328 32.0481 22.9367 32.1217 22.8264C32.1953 22.716 32.4037 22.716 32.6121 22.8264C32.8205 22.9367 32.9309 23.1452 32.8696 23.2554ZM21.9583 16.6842C21.8357 16.7209 21.6641 16.6107 21.5905 16.439C21.5169 16.2673 21.5537 16.1202 21.6763 16.0835C21.799 16.0467 21.9583 16.1693 22.0441 16.3286C22.13 16.488 22.0809 16.6596 21.9461 16.6964L21.9583 16.6842ZM43.5479 45.9731C44.7004 46.0221 45.7792 45.9731 46.9194 46.0344C47.1278 46.2183 46.9807 46.6473 46.8459 46.6228L45.8896 46.586C45.8773 46.2183 44.9456 46.2795 44.9701 46.5983C44.4674 46.6596 44.0138 46.586 43.4989 46.5615C43.3518 46.3776 43.3763 46.0466 43.5479 45.9731Z" fill="#165D31"/>
</g>
</g>
</g>
</g>
<defs>
<clipPath id="clip0_12589_5213">
<rect width="62.7706" height="62.7706" rx="31.3853" fill="white"/>
</clipPath>
<clipPath id="clip1_12589_5213">
<rect width="83.6941" height="62.7706" fill="white" transform="translate(-10.4619)"/>
</clipPath>
</defs>
</svg>
