<svg width="63" height="63" viewBox="0 0 63 63" fill="none" xmlns="http://www.w3.org/2000/svg">
<g clip-path="url(#clip0_12589_5211)">
<g clip-path="url(#clip1_12589_5211)">
<mask id="mask0_12589_5211" style="mask-type:luminance" maskUnits="userSpaceOnUse" x="-11" y="0" width="85" height="63">
<path d="M73.2322 0H-10.4619V62.7706H73.2322V0Z" fill="white"/>
</mask>
<g mask="url(#mask0_12589_5211)">
<path fill-rule="evenodd" clip-rule="evenodd" d="M-10.4619 31.3853H73.2322V62.7705H-10.4619V31.3853Z" fill="#19B6EF"/>
<path fill-rule="evenodd" clip-rule="evenodd" d="M-10.4619 0H73.2322V31.3853H-10.4619V0Z" fill="white"/>
<path fill-rule="evenodd" clip-rule="evenodd" d="M30.9966 44.3569C37.8752 39.2307 45.2508 28.7689 36.6067 23.2503C34.9983 22.9365 33.2067 23.028 32.3305 23.7211C31.8728 23.4596 31.5066 23.4857 31.0489 23.9696C30.722 23.5773 30.3951 23.3942 29.7412 23.5903C29.1153 23.254 28.4285 23.046 27.721 22.9786C27.0137 22.9113 26.3 22.9858 25.6219 23.198C18.0502 27.6966 22.6795 38.446 30.9966 44.3439V44.3569Z" fill="#FFDD00" stroke="#7D6C00" stroke-width="0.313853"/>
<path fill-rule="evenodd" clip-rule="evenodd" d="M43.6738 32.7069C43.6738 32.7069 44.4584 31.6608 44.4846 31.6608C45.2561 31.2161 45.3346 30.6277 45.3346 30.6277C46.1061 30.3923 45.8577 29.7515 45.9231 29.673C46.0437 29.5548 46.1257 29.4029 46.1583 29.2372C46.1911 29.0715 46.1729 28.8997 46.1061 28.7445C46.1061 28.6399 46.3677 27.646 46.0015 27.5153C46.0146 26.4691 45.3738 26.5606 44.8507 27.2537C44.3015 27.4107 44.1838 27.8684 44.3799 28.3653C43.6607 28.3653 43.6345 29.4115 43.8438 29.9869C42.8891 29.9607 43.4122 31.033 43.3861 31.0854C43.0722 31.2423 43.6345 32.7592 43.6869 32.7069H43.6738ZM37.6583 41.6256L38.129 41.9133C38.2337 42.2794 38.5737 42.5148 38.8221 42.4494C38.9529 43.0118 39.5545 42.9333 39.9991 42.6064C40.3522 43.1295 40.7837 43.1295 41.3853 42.9595C41.9084 43.3518 42.6014 43.1818 43.0591 42.7764C43.543 43.1687 43.8699 42.881 44.1184 42.4494C44.5107 42.5541 44.7984 42.4887 44.9423 42.1094C45.6877 42.0441 45.3215 41.3379 44.7069 41.0371C45.1907 40.6186 45.74 39.7294 44.9684 39.5986C44.733 39.4286 44.2753 39.4678 43.9353 39.6248C43.8438 39.2325 43.3076 39.1409 42.7061 39.5725C42.5099 39.1409 41.7907 39.3501 41.4637 39.6509C41.0322 39.2848 40.5222 39.2848 39.7768 39.7032L37.6583 41.6256ZM37.6583 40.4879C37.7367 39.9909 37.3967 39.1017 37.9198 39.0232C37.8283 38.1994 37.959 37.2839 38.9006 37.3624C39.0575 36.5909 39.0314 35.8716 39.9206 35.767C39.9206 35.767 40.6399 33.2692 41.3853 34.9954C41.673 35.5054 41.6207 36.3293 41.0322 36.1724C41.1499 36.787 40.9406 37.3363 40.2606 37.3101C40.5614 37.7547 40.4699 38.3432 40.1299 38.6178L37.6452 40.4879H37.6583ZM41.9868 37.3624L42.7714 37.2055C43.5561 36.6824 43.883 36.4601 44.2753 37.0486C44.9423 36.9178 45.5831 36.9701 45.5569 37.4932C46.3415 37.5586 46.3415 38.0555 46.25 38.4609C46.3808 39.154 46.0669 40.0694 45.5961 38.9578C44.0399 38.0163 43.1638 38.147 40.7183 38.6963L41.9868 37.3624ZM42.3922 36.5909C42.4184 36.5647 44.6807 35.9762 44.4453 35.2831C45.0861 35.1785 45.2169 34.5377 45.23 34.5377C46.5769 34.1193 46.4985 33.3477 46.4985 33.3477C46.8777 32.9423 47.5446 32.5238 47.4008 31.8046C47.44 30.9807 47.5185 30.4707 46.4069 31.0069C45.5831 30.9284 45.2953 31.3992 45.06 32.1185C44.6676 31.6608 44.0399 32.3931 43.9615 33.0469C43.9615 33.0469 42.9545 34.0408 42.9545 34.067L42.1045 35.6362L42.3922 36.5909Z" fill="#4FD46B" stroke="#3A9D4F" stroke-width="0.313853" stroke-linejoin="round"/>
<path fill-rule="evenodd" clip-rule="evenodd" d="M42.4309 34.8358C41.8948 34.4304 41.594 33.9335 41.6855 33.4497C41.3324 32.9658 41.084 32.6781 41.424 32.2466L41.1624 31.2658C40.4563 31.0042 40.757 30.4157 40.9401 30.2065C40.6132 29.7488 40.6001 29.265 40.914 28.8465C40.914 27.9965 41.5155 28.3234 41.9994 28.8465C41.9994 28.8465 42.8363 29.435 42.2217 29.958C42.8363 30.1804 43.0063 30.7034 42.6663 30.9258C43.2025 31.1611 43.2809 31.645 42.9932 31.9719C43.5294 32.3904 43.3332 32.9396 43.4902 33.4235L42.4309 34.8358Z" fill="#4FD46B" stroke="#3A9D4F" stroke-width="0.313853" stroke-linejoin="round"/>
<path fill-rule="evenodd" clip-rule="evenodd" d="M43.3898 30.8606C43.3636 30.8475 42.4875 29.7229 42.7359 29.6444C42.6705 29.3044 42.409 28.9251 42.5659 28.5851C42.1344 28.1405 42.1214 27.6305 42.4614 27.2251C42.1737 26.8328 42.3044 26.2966 42.6967 25.9435C42.5659 25.2897 43.0368 25.1328 43.4422 25.0151C43.743 23.9689 44.2267 24.2304 44.5144 25.0412C44.9329 25.4074 44.8675 25.9566 44.7237 26.3751C45.2206 26.702 44.9198 27.1205 44.6975 27.2905L43.3898 30.8736V30.8606Z" fill="#4FD46B" stroke="#3A9D4F" stroke-width="0.313853" stroke-linejoin="round"/>
<path fill-rule="evenodd" clip-rule="evenodd" d="M43.2518 25.2512L42.5064 24.5058C42.7026 24.1134 42.8595 23.4203 42.2972 23.0934C41.9833 22.348 40.4402 21.4065 40.1918 23.198C39.9564 22.6619 39.4594 22.1257 39.1063 22.7534C38.2956 22.0603 37.864 22.2696 38.2825 23.1457C38.2825 23.1457 37.9032 23.7342 38.884 24.1919C38.9625 24.2704 38.5702 25.2512 39.7471 25.2773C39.5248 25.6173 39.8779 26.0881 40.3487 26.0619C40.0218 26.4673 40.5841 26.912 40.9372 26.742C40.7933 27.1997 40.8064 27.422 41.4472 27.4874L42.1664 28.3112L42.7549 29.1089L43.2518 25.2512Z" fill="#4FD46B" stroke="#3A9D4F" stroke-width="0.313853" stroke-linejoin="round"/>
<path d="M43.7169 32.2346C43.7561 32.1953 45.1553 28.9914 45.3384 28.0237M43.8607 26.546C43.8607 26.546 44.0961 29.1614 43.4553 31.0707M39.5714 23.9175C39.5714 23.9175 42.4353 26.6637 42.7099 27.8014M41.5722 23.6167C41.5722 23.6167 41.7553 25.8791 42.553 28.1022M46.6069 31.8161C46.6069 31.8161 43.7561 34.2354 42.3699 36.3539M43.913 40.2771C43.913 40.2771 40.1468 40.8001 38.499 40.8394M42.6838 41.8856C42.6838 41.8856 38.0021 41.7809 37.6621 41.4409M40.3429 35.8177C40.3429 35.87 37.9629 39.7801 37.8844 41.0486" stroke="#3A9D4F" stroke-width="0.287699" stroke-linecap="round"/>
<path fill-rule="evenodd" clip-rule="evenodd" d="M30.9823 43.6003C26.0392 38.9448 20.9783 30.2092 26.013 25.7891C26.9022 26.2861 27.9615 25.8414 29.4131 25.266C29.8577 25.7499 30.42 25.8676 30.9823 25.5014C31.2135 25.615 31.4756 25.6498 31.7284 25.6001C31.9811 25.5505 32.2105 25.4194 32.3816 25.2268C33.8201 26.0507 35.6378 26.4822 36.0694 25.6584C41.0126 30.3661 35.9909 39.154 30.9693 43.6134L30.9823 43.6003Z" fill="#65C7FF" stroke="#7D6C00" stroke-width="0.313853"/>
<path fill-rule="evenodd" clip-rule="evenodd" d="M30.9916 43.4678C28.7364 41.2867 26.8661 38.74 25.46 35.9353C25.7215 35.713 25.8392 35.6476 25.97 35.2815C26.7284 35.3861 27.1338 35.4123 28.1277 35.2292C28.3369 35.9876 28.3762 36.6154 28.847 37.2431L29.8539 35.2815C30.562 35.4608 31.3036 35.4608 32.0116 35.2815C32.4301 35.8307 32.2732 36.6807 33.0186 37.3215C33.4632 36.0138 33.8948 35.9353 34.3394 35.2292C34.9932 35.4646 35.4117 35.3599 35.9479 35.1899C36.2094 35.5169 36.0787 35.5038 36.6017 35.9746C35.2174 38.7981 33.3194 41.3392 31.0047 43.4678H30.9916Z" fill="#8FC753"/>
<path fill-rule="evenodd" clip-rule="evenodd" d="M25.1887 21.4874C25.1996 21.5512 25.1967 21.6168 25.1798 21.6794C25.1628 21.742 25.1325 21.8001 25.0907 21.8497C25.049 21.8993 24.9969 21.9392 24.9382 21.9665C24.8794 21.9939 24.8154 22.008 24.7505 22.008C24.6858 22.008 24.6216 21.9939 24.5629 21.9665C24.5041 21.9392 24.452 21.8993 24.4103 21.8497C24.3686 21.8001 24.3382 21.742 24.3213 21.6794C24.3044 21.6168 24.3014 21.5512 24.3125 21.4874C24.3125 21.3695 24.3592 21.2564 24.4426 21.173C24.526 21.0897 24.6391 21.0428 24.7571 21.0428C24.875 21.0428 24.9881 21.0897 25.0715 21.173C25.1549 21.2564 25.2017 21.3695 25.2017 21.4874H25.1887ZM24.731 20.4805C24.7472 20.546 24.7483 20.6144 24.7342 20.6804C24.7201 20.7464 24.6912 20.8084 24.6496 20.8615C24.608 20.9146 24.5549 20.9576 24.4942 20.9872C24.4335 21.0168 24.3669 21.0321 24.2994 21.0321C24.2318 21.0321 24.1653 21.0168 24.1046 20.9872C24.0439 20.9576 23.9908 20.9146 23.9491 20.8615C23.9076 20.8084 23.8786 20.7464 23.8645 20.6804C23.8505 20.6144 23.8515 20.546 23.8679 20.4805C23.8857 20.3772 23.9395 20.2837 24.0197 20.2162C24.0998 20.1488 24.2012 20.1118 24.3059 20.1118C24.4106 20.1118 24.512 20.1488 24.5922 20.2162C24.6724 20.2837 24.7261 20.3772 24.744 20.4805H24.731ZM24.2079 19.552C24.2189 19.6158 24.2159 19.6814 24.199 19.744C24.182 19.8065 24.1517 19.8647 24.1099 19.9143C24.0682 19.9639 24.0161 20.0037 23.9574 20.031C23.8986 20.0585 23.8346 20.0726 23.7697 20.0726C23.705 20.0726 23.6408 20.0585 23.5822 20.031C23.5234 20.0037 23.4713 19.9639 23.4295 19.9143C23.3878 19.8647 23.3574 19.8065 23.3405 19.744C23.3236 19.6814 23.3206 19.6158 23.3317 19.552C23.3496 19.4487 23.4034 19.3552 23.4835 19.2877C23.5636 19.2204 23.665 19.1833 23.7697 19.1833C23.8745 19.1833 23.9758 19.2204 24.0561 19.2877C24.1362 19.3552 24.19 19.4487 24.2079 19.552ZM23.8417 18.6366C23.8527 18.7004 23.8498 18.766 23.8328 18.8286C23.8159 18.8911 23.7855 18.9493 23.7438 18.9989C23.702 19.0485 23.6499 19.0883 23.5913 19.1156C23.5325 19.143 23.4684 19.1572 23.4036 19.1572C23.3388 19.1572 23.2747 19.143 23.216 19.1156C23.1572 19.0883 23.1051 19.0485 23.0634 18.9989C23.0216 18.9493 22.9913 18.8911 22.9743 18.8286C22.9575 18.766 22.9544 18.7004 22.9655 18.6366C22.9834 18.5333 23.0372 18.4398 23.1173 18.3723C23.1975 18.305 23.2988 18.2679 23.4036 18.2679C23.5083 18.2679 23.6097 18.305 23.6899 18.3723C23.77 18.4398 23.8238 18.5333 23.8417 18.6366ZM23.9071 17.6427C23.9181 17.7065 23.9152 17.7721 23.8982 17.8347C23.8813 17.8973 23.8509 17.9554 23.8092 18.005C23.7674 18.0546 23.7153 18.0945 23.6566 18.1218C23.5978 18.1492 23.5338 18.1633 23.469 18.1633C23.4042 18.1633 23.3401 18.1492 23.2814 18.1218C23.2226 18.0945 23.1705 18.0546 23.1287 18.005C23.087 17.9554 23.0567 17.8973 23.0397 17.8347C23.0229 17.7721 23.0198 17.7065 23.0309 17.6427C23.0488 17.5395 23.1026 17.4459 23.1827 17.3785C23.2629 17.3111 23.3642 17.2741 23.469 17.2741C23.5737 17.2741 23.6751 17.3111 23.7553 17.3785C23.8354 17.4459 23.8892 17.5395 23.9071 17.6427ZM26.2087 16.0081C26.2197 16.0719 26.2167 16.1375 26.1998 16.2001C26.1828 16.2626 26.1525 16.3208 26.1108 16.3704C26.069 16.42 26.0169 16.4598 25.9582 16.4871C25.8994 16.5145 25.8354 16.5287 25.7705 16.5287C25.7058 16.5287 25.6417 16.5145 25.583 16.4871C25.5242 16.4598 25.4721 16.42 25.4303 16.3704C25.3886 16.3208 25.3582 16.2626 25.3413 16.2001C25.3245 16.1375 25.3214 16.0719 25.3325 16.0081C25.3504 15.9048 25.4042 15.8113 25.4843 15.7438C25.5644 15.6764 25.6658 15.6394 25.7705 15.6394C25.8753 15.6394 25.9766 15.6764 26.0569 15.7438C26.137 15.8113 26.1908 15.9048 26.2087 16.0081Z" fill="white" stroke="black" stroke-width="0.143849"/>
<path fill-rule="evenodd" clip-rule="evenodd" d="M25.3432 16.1619C25.3543 16.2257 25.3513 16.2912 25.3343 16.3538C25.3175 16.4164 25.287 16.4745 25.2453 16.5241C25.2035 16.5736 25.1516 16.6135 25.0928 16.6409C25.034 16.6682 24.9699 16.6824 24.9052 16.6824C24.8403 16.6824 24.7763 16.6682 24.7175 16.6409C24.6587 16.6135 24.6067 16.5736 24.565 16.5241C24.5232 16.4745 24.4928 16.4164 24.4759 16.3538C24.459 16.2912 24.456 16.2257 24.467 16.1619C24.4849 16.0586 24.5387 15.9651 24.6188 15.8976C24.699 15.8301 24.8004 15.7932 24.9052 15.7932C25.0099 15.7932 25.1113 15.8301 25.1914 15.8976C25.2715 15.9651 25.3253 16.0586 25.3432 16.1619ZM24.3886 16.7242C24.3997 16.788 24.3966 16.8535 24.3797 16.9162C24.3628 16.9787 24.3324 17.0368 24.2907 17.0864C24.2489 17.136 24.1969 17.1758 24.1381 17.2032C24.0793 17.2305 24.0153 17.2448 23.9504 17.2448C23.8857 17.2448 23.8217 17.2305 23.7629 17.2032C23.7041 17.1758 23.6521 17.136 23.6103 17.0864C23.5686 17.0368 23.5381 16.9787 23.5213 16.9162C23.5043 16.8535 23.5013 16.788 23.5124 16.7242C23.5303 16.6209 23.5841 16.5274 23.6642 16.4599C23.7443 16.3924 23.8457 16.3555 23.9504 16.3555C24.0553 16.3555 24.1566 16.3924 24.2368 16.4599C24.3169 16.5274 24.3707 16.6209 24.3886 16.7242ZM27.3179 16.018C27.3341 16.0835 27.3352 16.1518 27.3211 16.2178C27.3071 16.2839 27.2781 16.3458 27.2365 16.3989C27.1949 16.4522 27.1418 16.4952 27.0811 16.5247C27.0204 16.5543 26.9538 16.5697 26.8863 16.5697C26.8188 16.5697 26.7522 16.5543 26.6915 16.5247C26.6308 16.4952 26.5777 16.4522 26.5362 16.3989C26.4945 16.3458 26.4656 16.2839 26.4515 16.2178C26.4374 16.1518 26.4386 16.0835 26.4548 16.018C26.4786 15.9216 26.5342 15.836 26.6123 15.7748C26.6906 15.7137 26.787 15.6804 26.8863 15.6804C26.9856 15.6804 27.0821 15.7137 27.1603 15.7748C27.2385 15.836 27.2939 15.9216 27.3179 16.018ZM28.5471 16.1226C28.5582 16.1865 28.5552 16.2519 28.5382 16.3145C28.5214 16.3772 28.4909 16.4352 28.4492 16.4848C28.4075 16.5344 28.3555 16.5743 28.2967 16.6017C28.2379 16.629 28.1739 16.6432 28.1091 16.6432C28.0442 16.6432 27.9802 16.629 27.9214 16.6017C27.8626 16.5743 27.8106 16.5344 27.7689 16.4848C27.7271 16.4352 27.6967 16.3772 27.6798 16.3145C27.6629 16.2519 27.6599 16.1865 27.671 16.1226C27.6888 16.0194 27.7426 15.9259 27.8228 15.8584C27.9029 15.7909 28.0043 15.754 28.1091 15.754C28.2138 15.754 28.3152 15.7909 28.3953 15.8584C28.4755 15.9259 28.5292 16.0194 28.5471 16.1226ZM29.6195 16.0573C29.6357 16.1227 29.6368 16.1911 29.6227 16.2571C29.6087 16.3231 29.5797 16.385 29.5381 16.4382C29.4965 16.4914 29.4434 16.5344 29.3827 16.5639C29.322 16.5935 29.2554 16.6089 29.1879 16.6089C29.1204 16.6089 29.0538 16.5935 28.9931 16.5639C28.9324 16.5344 28.8793 16.4914 28.8378 16.4382C28.7961 16.385 28.7671 16.3231 28.7531 16.2571C28.739 16.1911 28.7401 16.1227 28.7564 16.0573C28.7743 15.954 28.828 15.8605 28.9082 15.793C28.9883 15.7255 29.0897 15.6886 29.1945 15.6886C29.2992 15.6886 29.4006 15.7255 29.4807 15.793C29.5609 15.8605 29.6146 15.954 29.6325 16.0573H29.6195Z" fill="white" stroke="black" stroke-width="0.143849"/>
<path fill-rule="evenodd" clip-rule="evenodd" d="M32.1546 15.3666C32.1546 15.6648 32.0361 15.9509 31.8252 16.1618C31.6143 16.3727 31.3282 16.4912 31.0299 16.4912C30.7316 16.4912 30.4456 16.3727 30.2347 16.1618C30.0238 15.9509 29.9053 15.6648 29.9053 15.3666C29.9053 15.0683 30.0238 14.7822 30.2347 14.5713C30.4456 14.3604 30.7316 14.2419 31.0299 14.2419C31.3282 14.2419 31.6143 14.3604 31.8252 14.5713C32.0361 14.7822 32.1546 15.0683 32.1546 15.3666Z" fill="#FFDD00" stroke="#7D6C00" stroke-width="0.143849"/>
<path fill-rule="evenodd" clip-rule="evenodd" d="M33.3453 16.0449C33.3453 16.1628 33.2985 16.2759 33.2152 16.3593C33.1318 16.4427 33.0187 16.4896 32.9007 16.4896C32.7828 16.4896 32.6697 16.4427 32.5863 16.3593C32.5029 16.2759 32.4561 16.1628 32.4561 16.0449C32.4739 15.9417 32.5277 15.8482 32.6079 15.7807C32.6881 15.7132 32.7895 15.6763 32.8942 15.6763C32.9989 15.6763 33.1003 15.7132 33.1804 15.7807C33.2606 15.8482 33.3143 15.9417 33.3322 16.0449H33.3453ZM34.4699 16.1365C34.4863 16.202 34.4873 16.2703 34.4733 16.3363C34.4592 16.4023 34.4302 16.4642 34.3887 16.5174C34.347 16.5706 34.2939 16.6136 34.2332 16.6431C34.1725 16.6728 34.106 16.6881 34.0384 16.6881C33.9709 16.6881 33.9043 16.6728 33.8436 16.6431C33.7829 16.6136 33.7298 16.5706 33.6882 16.5174C33.6466 16.4642 33.6177 16.4023 33.6036 16.3363C33.5895 16.2703 33.5906 16.202 33.6069 16.1365C33.6247 16.0332 33.6785 15.9397 33.7587 15.8722C33.8389 15.8047 33.9403 15.7678 34.045 15.7678C34.1497 15.7678 34.2511 15.8047 34.3312 15.8722C34.4114 15.9397 34.4651 16.0332 34.483 16.1365H34.4699ZM35.5815 16.0842C35.5926 16.148 35.5896 16.2135 35.5727 16.276C35.5558 16.3387 35.5254 16.3968 35.4837 16.4464C35.4419 16.4959 35.3898 16.5358 35.3311 16.5632C35.2724 16.5905 35.2082 16.6048 35.1435 16.6048C35.0786 16.6048 35.0146 16.5905 34.9558 16.5632C34.8971 16.5358 34.845 16.4959 34.8033 16.4464C34.7615 16.3968 34.7312 16.3387 34.7142 16.276C34.6973 16.2135 34.6942 16.148 34.7053 16.0842C34.7232 15.9809 34.777 15.8874 34.8571 15.8199C34.9374 15.7524 35.0388 15.7155 35.1435 15.7155C35.2482 15.7155 35.3496 15.7524 35.4297 15.8199C35.5098 15.8874 35.5636 15.9809 35.5815 16.0842ZM36.51 16.0449C36.5211 16.1088 36.518 16.1742 36.5012 16.2368C36.4843 16.2995 36.4539 16.3575 36.4122 16.4071C36.3704 16.4567 36.3183 16.4966 36.2595 16.524C36.2008 16.5513 36.1367 16.5655 36.072 16.5655C36.0071 16.5655 35.9431 16.5513 35.8843 16.524C35.8256 16.4966 35.7735 16.4567 35.7317 16.4071C35.69 16.3575 35.6597 16.2995 35.6427 16.2368C35.6258 16.1742 35.6227 16.1088 35.6338 16.0449C35.6517 15.9417 35.7055 15.8482 35.7856 15.7807C35.8659 15.7132 35.9672 15.6763 36.072 15.6763C36.1767 15.6763 36.2781 15.7132 36.3582 15.7807C36.4383 15.8482 36.4921 15.9417 36.51 16.0449ZM37.6739 16.1757C37.6849 16.2395 37.6819 16.305 37.6651 16.3676C37.6481 16.4302 37.6178 16.4883 37.576 16.5379C37.5343 16.5875 37.4822 16.6273 37.4234 16.6548C37.3647 16.6821 37.3006 16.6963 37.2358 16.6963C37.171 16.6963 37.1069 16.6821 37.0481 16.6548C36.9895 16.6273 36.9374 16.5875 36.8956 16.5379C36.8539 16.4883 36.8235 16.4302 36.8066 16.3676C36.7896 16.305 36.7866 16.2395 36.7977 16.1757C36.8156 16.0725 36.8694 15.9789 36.9495 15.9115C37.0297 15.844 37.1311 15.807 37.2358 15.807C37.3405 15.807 37.4419 15.844 37.5221 15.9115C37.6022 15.9789 37.656 16.0725 37.6739 16.1757ZM38.5893 16.7511C38.6004 16.8149 38.5973 16.8804 38.5805 16.943C38.5635 17.0056 38.5332 17.0637 38.4914 17.1133C38.4497 17.1629 38.3976 17.2027 38.3388 17.2302C38.2801 17.2575 38.216 17.2717 38.1512 17.2717C38.0864 17.2717 38.0223 17.2575 37.9635 17.2302C37.9049 17.2027 37.8528 17.1629 37.811 17.1133C37.7693 17.0637 37.7389 17.0056 37.722 16.943C37.705 16.8804 37.702 16.8149 37.7131 16.7511C37.731 16.6479 37.7848 16.5543 37.8649 16.4868C37.9451 16.4194 38.0465 16.3824 38.1512 16.3824C38.256 16.3824 38.3573 16.4194 38.4375 16.4868C38.5176 16.5543 38.5714 16.6479 38.5893 16.7511Z" fill="white" stroke="black" stroke-width="0.143849"/>
<path fill-rule="evenodd" clip-rule="evenodd" d="M24.7646 19.8399L25.8893 21.9976H36.2464L37.4495 19.9183C36.7434 19.4345 36.2726 19.0683 35.2656 19.2906C34.7033 18.4798 34.0887 18.336 33.1733 18.4144C32.8987 18.1398 32.6502 17.9698 32.1794 17.8914L30.0086 17.9567C29.4332 18.0091 28.9886 18.4537 28.9624 18.4537C28.047 18.336 27.197 18.3621 26.9747 19.2645C26.1247 19.0552 25.5362 19.2906 24.7646 19.8399Z" fill="#E40000" stroke="#AC0000" stroke-width="0.313853"/>
<path fill-rule="evenodd" clip-rule="evenodd" d="M38.9734 17.6919C38.9845 17.7557 38.9814 17.8212 38.9646 17.8839C38.9477 17.9464 38.9173 18.0045 38.8756 18.0541C38.8338 18.1037 38.7817 18.1437 38.7229 18.171C38.6641 18.1983 38.6001 18.2125 38.5354 18.2125C38.4705 18.2125 38.4065 18.1983 38.3477 18.171C38.289 18.1437 38.2369 18.1037 38.1951 18.0541C38.1534 18.0045 38.1231 17.9464 38.1061 17.8839C38.0892 17.8212 38.0861 17.7557 38.0972 17.6919C38.1151 17.5887 38.1689 17.4951 38.249 17.4277C38.3292 17.3602 38.4305 17.3232 38.5354 17.3232C38.6401 17.3232 38.7415 17.3602 38.8216 17.4277C38.9017 17.4951 38.9555 17.5887 38.9734 17.6919ZM39.0519 18.7381C39.0629 18.8019 39.0599 18.8674 39.0431 18.9301C39.0261 18.9926 38.9958 19.0507 38.954 19.1003C38.9123 19.1499 38.8602 19.1898 38.8014 19.2171C38.7426 19.2444 38.6786 19.2587 38.6138 19.2587C38.549 19.2587 38.4849 19.2444 38.4261 19.2171C38.3674 19.1898 38.3153 19.1499 38.2736 19.1003C38.2319 19.0507 38.2015 18.9926 38.1846 18.9301C38.1676 18.8674 38.1646 18.8019 38.1757 18.7381C38.1936 18.6348 38.2473 18.5413 38.3275 18.4738C38.4076 18.4063 38.509 18.3694 38.6138 18.3694C38.7185 18.3694 38.8199 18.4063 38.9001 18.4738C38.9802 18.5413 39.034 18.6348 39.0519 18.7381ZM38.7249 19.6797C38.736 19.7435 38.733 19.809 38.7161 19.8716C38.6992 19.9342 38.6689 19.9922 38.6271 20.0418C38.5854 20.0914 38.5333 20.1314 38.4745 20.1587C38.4157 20.186 38.3517 20.2002 38.2869 20.2002C38.222 20.2002 38.158 20.186 38.0992 20.1587C38.0405 20.1314 37.9884 20.0914 37.9467 20.0418C37.9049 19.9922 37.8746 19.9342 37.8576 19.8716C37.8407 19.809 37.8377 19.7435 37.8488 19.6797C37.8666 19.5764 37.9204 19.4829 38.0006 19.4154C38.0807 19.3479 38.1821 19.311 38.2869 19.311C38.3916 19.311 38.493 19.3479 38.5731 19.4154C38.6533 19.4829 38.707 19.5764 38.7249 19.6797ZM38.3326 20.4643C38.3326 20.5822 38.2857 20.6953 38.2024 20.7787C38.119 20.862 38.0059 20.9089 37.888 20.9089C37.7701 20.9089 37.657 20.862 37.5736 20.7787C37.4902 20.6953 37.4434 20.5822 37.4434 20.4643C37.4612 20.361 37.515 20.2675 37.5952 20.2C37.6753 20.1325 37.7767 20.0956 37.8815 20.0956C37.9862 20.0956 38.0876 20.1325 38.1677 20.2C38.2479 20.2675 38.3016 20.361 38.3195 20.4643H38.3326ZM37.8488 21.4451C37.8598 21.5089 37.8568 21.5744 37.84 21.637C37.823 21.6996 37.7926 21.7577 37.7509 21.8073C37.7092 21.8568 37.6571 21.8968 37.5983 21.9241C37.5395 21.9514 37.4755 21.9657 37.4107 21.9657C37.3459 21.9657 37.2818 21.9514 37.223 21.9241C37.1643 21.8968 37.1122 21.8568 37.0705 21.8073C37.0288 21.7577 36.9984 21.6996 36.9815 21.637C36.9645 21.5744 36.9615 21.5089 36.9726 21.4451C36.9905 21.3418 37.0442 21.2483 37.1244 21.1808C37.2045 21.1133 37.3059 21.0764 37.4107 21.0764C37.5154 21.0764 37.6168 21.1133 37.697 21.1808C37.7771 21.2483 37.8309 21.3418 37.8488 21.4451ZM31.7286 20.1897C31.7286 20.363 31.6598 20.5294 31.5372 20.652C31.4146 20.7746 31.2482 20.8435 31.0748 20.8435C30.9014 20.8435 30.7351 20.7746 30.6125 20.652C30.4898 20.5294 30.4209 20.363 30.4209 20.1897C30.4209 20.0162 30.4898 19.8499 30.6125 19.7273C30.7351 19.6046 30.9014 19.5358 31.0748 19.5358C31.2482 19.5358 31.4146 19.6046 31.5372 19.7273C31.6598 19.8499 31.7286 20.0162 31.7286 20.1897Z" fill="white" stroke="black" stroke-width="0.143849"/>
<path fill-rule="evenodd" clip-rule="evenodd" d="M31.8593 18.7004C31.8593 18.9085 31.7767 19.1081 31.6296 19.2552C31.4824 19.4024 31.2828 19.485 31.0747 19.485C30.8666 19.485 30.667 19.4024 30.5199 19.2552C30.3727 19.1081 30.29 18.9085 30.29 18.7004C30.29 18.4923 30.3727 18.2927 30.5199 18.1456C30.667 17.9984 30.8666 17.9158 31.0747 17.9158C31.2828 17.9158 31.4824 17.9984 31.6296 18.1456C31.7767 18.2927 31.8593 18.4923 31.8593 18.7004Z" fill="white" stroke="black" stroke-width="0.143849"/>
<path fill-rule="evenodd" clip-rule="evenodd" d="M31.7346 17.2611C31.7346 17.4484 31.6602 17.628 31.5278 17.7604C31.3953 17.8929 31.2157 17.9673 31.0284 17.9673C30.8412 17.9673 30.6615 17.8929 30.5291 17.7604C30.3966 17.628 30.3223 17.4484 30.3223 17.2611C30.3223 17.0738 30.3966 16.8942 30.5291 16.7618C30.6615 16.6293 30.8412 16.5549 31.0284 16.5549C31.2157 16.5549 31.3953 16.6293 31.5278 16.7618C31.6602 16.8942 31.7346 17.0738 31.7346 17.2611Z" fill="white" stroke="black" stroke-width="0.143849"/>
<path fill-rule="evenodd" clip-rule="evenodd" d="M30.793 14.2525V13.7032L30.3223 13.6901L30.3484 13.2717H30.7407V12.9055H31.3292V13.2324H31.7869L31.7738 13.6771H31.3031V14.2655H30.78L30.793 14.2525Z" fill="#FFDD00" stroke="#7D6C00" stroke-width="0.143849"/>
<path d="M25.839 21.9967C24.9105 20.4274 23.5374 18.2828 24.4005 17.3543C25.5644 16.0335 28.3106 17.2235 30.0629 16.465C30.1937 17.9558 29.7752 20.4405 30.4421 20.9505L29.8144 21.4998C29.4221 21.0159 28.716 20.349 27.8267 21.5259C27.3036 21.0813 26.7413 21.1598 26.4667 21.7482C26.2051 21.7875 26.2182 21.8921 25.839 21.9967ZM36.3007 21.9313C37.2423 20.3621 38.6023 18.2305 37.7523 17.302C36.5754 15.9812 33.8291 17.1712 32.0899 16.3997C31.9591 17.9035 32.3776 20.3882 31.6976 20.8982L32.3253 21.4475C32.9399 20.5974 33.6853 20.5713 34.3261 21.4736C34.8361 21.029 35.3592 21.0813 35.6861 21.6959C35.9477 21.7352 35.9215 21.8267 36.3138 21.9313H36.3007Z" stroke="#FFDD00" stroke-width="0.431548"/>
<path fill-rule="evenodd" clip-rule="evenodd" d="M25.7992 23.159C29.2488 22.8447 32.7198 22.8447 36.1694 23.159L36.5748 21.9821C32.9524 21.3282 30.4547 21.2497 25.7207 21.9036L25.7992 23.159Z" fill="#FFDD00" stroke="#7D6C00" stroke-width="0.313853"/>
<path fill-rule="evenodd" clip-rule="evenodd" d="M30.617 43.0746L30.6954 42.5253C31.0747 42.63 31.3493 42.5907 31.6632 42.473L31.977 41.9892L31.7416 41.7146C31.5324 41.7538 31.3493 41.9499 31.2185 42.1199C31.0093 42.133 30.8262 42.0284 30.617 41.9892L30.4208 41.1522C30.2247 40.9168 29.8062 40.9299 29.8977 41.3484L29.937 41.6753C30.0154 41.8715 30.0547 42.1461 30.1854 42.2899V42.63L30.617 43.0746ZM30.7739 40.6814C30.5124 40.8122 30.1724 40.5768 29.8193 40.433C29.4923 40.4199 29.2439 40.6945 28.8516 40.603C28.93 40.3938 29.1 40.3545 29.2177 40.2368C29.1262 39.7007 29.4139 39.5176 29.4923 39.5176C29.5708 39.5176 29.8977 39.596 29.8977 39.596L30.2116 39.6353C30.4078 39.9884 30.6693 40.2891 30.7739 40.6814Z" fill="#C76E2E"/>
<path fill-rule="evenodd" clip-rule="evenodd" d="M28.8706 47.8643C29.786 46.3735 36.22 43.3657 42.2617 36.8533C36.1154 42.7772 32.2707 44.2288 27.249 47.8381L28.8706 47.8774V47.8643Z" fill="#FFE100" stroke="#E9BF00" stroke-width="0.313853"/>
<path fill-rule="evenodd" clip-rule="evenodd" d="M37.713 40.9598C37.713 41.0847 37.6635 41.2044 37.5752 41.2927C37.4869 41.381 37.3672 41.4306 37.2423 41.4306C37.1175 41.4306 36.9977 41.381 36.9094 41.2927C36.8211 41.2044 36.7715 41.0847 36.7715 40.9598C36.7715 40.835 36.8211 40.7152 36.9094 40.6269C36.9977 40.5386 37.1175 40.489 37.2423 40.489C37.3672 40.489 37.4869 40.5386 37.5752 40.6269C37.6635 40.7152 37.713 40.835 37.713 40.9598ZM42.2116 36.3959C42.2116 36.5364 42.1558 36.6711 42.0566 36.7704C41.9572 36.8697 41.8225 36.9255 41.682 36.9255C41.5415 36.9255 41.4069 36.8697 41.3075 36.7704C41.2082 36.6711 41.1523 36.5364 41.1523 36.3959C41.1523 36.2571 41.2075 36.1241 41.3056 36.026C41.4037 35.9279 41.5367 35.8728 41.6754 35.8728C41.8142 35.8728 41.9472 35.9279 42.0454 36.026C42.1435 36.1241 42.1985 36.2571 42.1985 36.3959H42.2116ZM43.7024 32.525C43.7138 32.5925 43.7104 32.6616 43.6923 32.7277C43.6742 32.7937 43.6418 32.855 43.5977 32.9072C43.5535 32.9595 43.4984 33.0014 43.4364 33.0303C43.3742 33.0591 43.3066 33.074 43.2382 33.074C43.1698 33.074 43.1021 33.0591 43.0401 33.0303C42.9779 33.0014 42.9229 32.9595 42.8787 32.9072C42.8345 32.855 42.8023 32.7937 42.7842 32.7277C42.7661 32.6616 42.7626 32.5925 42.7739 32.525C42.7924 32.4153 42.8492 32.3157 42.9342 32.2438C43.0191 32.1719 43.1269 32.1325 43.2382 32.1325C43.3495 32.1325 43.4572 32.1719 43.5422 32.2438C43.6272 32.3157 43.684 32.4153 43.7024 32.525ZM42.2378 27.5034C42.2492 27.5708 42.2457 27.64 42.2276 27.706C42.2095 27.772 42.1772 27.8333 42.133 27.8855C42.0888 27.9378 42.0338 27.9798 41.9717 28.0087C41.9096 28.0374 41.842 28.0524 41.7736 28.0524C41.7051 28.0524 41.6375 28.0374 41.5754 28.0087C41.5133 27.9798 41.4583 27.9378 41.4141 27.8855C41.3699 27.8333 41.3376 27.772 41.3195 27.706C41.3014 27.64 41.298 27.5708 41.3093 27.5034C41.3278 27.3936 41.3846 27.294 41.4695 27.2222C41.5545 27.1503 41.6623 27.1108 41.7736 27.1108C41.8849 27.1108 41.9925 27.1503 42.0776 27.2222C42.1625 27.294 42.2193 27.3936 42.2378 27.5034Z" fill="#9D4916" stroke="#68300E" stroke-width="0.143849"/>
<path fill-rule="evenodd" clip-rule="evenodd" d="M26.0399 35.2552V33.2675L25.8438 33.1105V32.6398L26.2099 32.6005L26.2753 30.3774L26.0399 30.2466L26.0138 29.8805C26.0138 29.8805 26.2753 29.9851 26.2753 29.9197L26.3407 29.4751C26.3407 29.4751 26.1707 29.4489 26.1707 29.3835C26.1707 29.3182 26.3799 29.1482 26.3799 29.1482C26.3799 29.1482 26.2753 29.0435 26.2491 28.9781L26.1445 28.612L26.2491 28.2327L26.1838 28.0366L26.0138 27.7358L26.2491 27.5004L26.1838 27.1343C26.2279 26.9979 26.2942 26.8699 26.3799 26.755C26.4191 26.7289 26.6807 26.3627 26.6807 26.3627L27.2561 26.2319L27.923 26.3235L28.2892 26.5589L28.3546 27.1604C28.3546 27.1604 28.2892 27.5266 28.263 27.5266L27.9623 27.6574C27.9623 27.6574 27.6223 27.6966 27.583 27.6574C27.5438 27.6181 27.6876 28.0758 27.6876 28.0758V28.4681L27.6615 28.9781C27.6615 28.9781 27.6615 29.2135 27.6223 29.2397C27.583 29.2658 27.5176 29.3705 27.5176 29.3705L27.4915 29.8936L28.0146 30.0243L27.9884 30.3251L27.6223 30.3513L27.6876 32.4044L28.2238 32.4959V33.0713L27.9884 33.2021L27.923 35.2552H26.0399ZM34.2001 35.2944V33.3067L34.0039 33.1367V32.6659L34.3701 32.6398L34.4355 30.4166L34.2001 30.2859L34.1739 29.9197C34.1739 29.9197 34.4355 30.0112 34.4355 29.9459L34.5009 29.5143C34.5009 29.5143 34.3309 29.4751 34.3309 29.4097C34.3309 29.3443 34.5401 29.1743 34.5401 29.1743C34.5401 29.1743 34.4355 29.0828 34.4093 29.0043L34.3047 28.6381L34.4093 28.272L34.3309 28.0758L34.1739 27.775L34.4093 27.5397L34.3309 27.1604C34.3803 27.0279 34.4511 26.9042 34.5401 26.7943L34.8409 26.4019L35.4163 26.2581L36.0832 26.3627L36.4494 26.5981L36.5148 27.1996C36.5148 27.1996 36.4494 27.5658 36.4232 27.5658L36.1224 27.6966C36.1224 27.6966 35.7824 27.7358 35.7432 27.6966C35.704 27.6573 35.8478 28.102 35.8478 28.102V28.5074L35.8086 29.0174C35.8086 29.0174 35.8086 29.2397 35.7824 29.2789L35.6778 29.4097L35.6517 29.9197L36.1747 30.0505L36.1486 30.3513L35.7824 30.3905L35.8478 32.4305L36.384 32.5351V33.1105L36.1486 33.2413L36.0832 35.2944H34.2001ZM30.0677 35.3598V33.3721L29.8715 33.2152V32.7313L30.2377 32.7052L30.3031 30.482L30.0677 30.3513L30.0415 29.9851C30.0415 29.9851 30.3031 30.0897 30.3031 30.0243L30.3685 29.5797C30.3685 29.5797 30.2115 29.5535 30.2115 29.4882C30.2115 29.4228 30.4077 29.2397 30.4077 29.2397C30.4077 29.2397 30.3031 29.1482 30.2769 29.0828L30.1723 28.7035L30.2769 28.3374L30.2115 28.1412L30.0415 27.8404L30.2769 27.605L30.2115 27.2258C30.2547 27.0931 30.3212 26.9691 30.4077 26.8596C30.4469 26.8335 30.7085 26.4673 30.7085 26.4673L31.2839 26.3366L31.9508 26.4281L32.317 26.6635L32.3954 27.265C32.3954 27.265 32.317 27.6312 32.2908 27.6312L31.99 27.762C31.99 27.762 31.65 27.8012 31.6239 27.762C31.5977 27.7227 31.7154 28.1674 31.7154 28.1674V28.5728L31.6893 29.0828C31.6893 29.0828 31.6893 29.3182 31.65 29.3443L31.5454 29.4751L31.5193 29.9851L32.0423 30.1159L32.0162 30.4166L31.65 30.4559L31.7154 32.509L32.2516 32.6005V33.1759L32.0162 33.3067L31.9508 35.3598H30.0808H30.0677Z" fill="white" stroke="#A9A9A9" stroke-width="0.143849"/>
<path fill-rule="evenodd" clip-rule="evenodd" d="M26.5433 35.2415V33.6722H27.4064V35.3069L26.5303 35.2415H26.5433ZM30.6496 35.3723L30.6888 33.7769H31.4735V35.333L30.6496 35.3592V35.3723ZM34.7035 35.333L34.6512 33.8292L35.5012 33.803V35.3723L34.7166 35.333H34.7035ZM26.7526 30.6252H27.2495V31.423H26.7526V30.6252ZM30.715 30.6514H31.4081V31.436H30.715V30.6514ZM34.7689 30.7168H35.3705V31.4622H34.782L34.7689 30.7168Z" fill="black"/>
<path d="M27.0205 27.0698C27.5436 27.6714 27.5828 27.6714 27.5828 27.6714M31.0091 27.0698C31.1137 27.266 31.2706 27.6975 31.4798 27.7368M35.3115 27.1614C35.3115 27.1614 35.4815 27.6321 35.7038 27.6975" stroke="#A8A8A8" stroke-width="0.143849"/>
<path fill-rule="evenodd" clip-rule="evenodd" d="M26.4432 25.3703C28.0125 24.8603 26.0771 23.8533 25.7501 25.3703C25.2532 25.4618 25.1878 25.828 24.0893 25.6711C21.4216 29.9865 23.3962 36.9829 31.1641 44.2146C17.2499 32.3667 22.8993 23.6049 26.7571 23.9449C28.8494 24.0756 27.8033 26.6911 26.4432 25.3834V25.3703Z" fill="#B97700"/>
<path d="M26.8896 23.1484C26.8896 23.1484 28.1581 23.5015 28.1581 24.0377M28.1581 23.0569C28.1581 23.0569 29.0474 23.4492 29.2435 23.7892M35.1414 23.2007C35.1414 23.2007 34.0167 23.3577 33.7683 23.6977M33.4283 23.3054C33.4283 23.3054 32.7744 23.8415 32.8398 23.9984M33.2844 25.6592C33.1798 25.62 32.7352 25.0185 32.8398 24.2861M28.9428 25.2669C28.9428 25.2669 29.2435 24.9269 29.2435 24.2861M31.009 24.0377L31.0613 25.4762M32.2905 25.2669C32.2905 25.1754 32.6829 24.2338 32.2382 23.7892M29.5836 23.593C29.5836 23.593 29.2435 24.5346 29.492 25.3192M32.1075 24.43C32.1075 24.43 31.5582 24.5869 31.3228 24.8223M29.7797 24.5738C29.7797 24.5346 30.3813 24.4431 30.5643 24.7831" stroke="#7D6C00" stroke-width="0.313853"/>
<path fill-rule="evenodd" clip-rule="evenodd" d="M28.85 39.4791C28.8761 39.4791 29.3469 39.3876 29.3469 39.1653C29.5823 39.0083 29.4123 38.5768 29.4123 38.5768L28.9677 38.4983L28.3661 37.8183C28.34 37.6091 28.4054 37.4129 28.2746 37.1906C27.8561 37.2952 27.6207 37.6483 27.49 38.0406C27.5815 38.1714 27.5946 38.3022 27.7907 38.4199C27.9869 38.446 28.1177 38.3283 28.3007 38.3676C28.3923 38.5376 28.3661 38.6814 28.4054 38.8383C28.6538 39.0083 28.7061 39.2568 28.85 39.4791ZM28.3138 36.576V35.7652L27.7384 35.739C27.66 35.8698 27.5292 35.9221 27.4507 36.0267L27.0453 36.236C27.2153 36.4321 27.4246 36.5498 27.5423 36.6545C27.843 36.7329 28.0784 36.7329 28.3138 36.576ZM26.5092 37.766L26.1953 37.2429C26.3988 37.1867 26.6152 37.2006 26.8099 37.2822C26.8099 37.2822 26.9407 37.6091 26.8492 37.7268C26.7969 37.8445 26.4961 37.7922 26.5092 37.766ZM31.2823 38.3022C31.3716 38.2641 31.4504 38.205 31.5119 38.1298C31.5734 38.0547 31.6158 37.9657 31.6354 37.8706L31.047 37.2037L30.5239 37.1906C30.3931 37.0598 30.21 37.0337 30.0531 37.0337C30.0531 37.0337 30.21 37.2952 30.4192 37.3345C30.5762 37.6745 31.23 38.3022 31.2823 38.3022ZM31.8447 38.3806C31.8447 38.3676 32.3678 38.1976 32.6293 38.2106C32.6162 38.0014 33.0216 37.5175 33.0216 37.5175L33.7539 38.4722C33.6232 38.5768 33.3878 38.5506 33.2047 38.5768C33.2047 38.5768 32.8516 38.9168 32.8124 38.9299C32.7731 38.943 32.1324 39.0999 31.8185 38.9037C31.6877 38.6422 31.8577 38.3414 31.8447 38.3806ZM32.2631 36.7068C32.3548 36.3818 32.3548 36.0378 32.2631 35.7129H31.4262L30.877 35.9744C30.877 35.9744 31.047 36.5237 31.2693 36.4714C31.3608 36.746 31.6485 36.6806 31.7924 36.7852L32.2631 36.7068ZM35.5194 35.8698C35.3886 36.2229 35.3363 36.5891 35.4932 36.916C35.6501 36.9552 35.8332 37.0468 35.964 37.0206L36.6309 35.8175C36.1732 35.6737 35.794 35.6867 35.5063 35.8698H35.5194Z" fill="#C76E2E"/>
<path fill-rule="evenodd" clip-rule="evenodd" d="M35.714 25.2642C34.1448 24.7542 36.0802 23.7342 36.4071 25.2642C36.9171 25.3427 36.9825 25.7219 38.081 25.565C40.7357 29.8805 38.761 36.8768 30.9932 44.1085C44.9204 32.2605 39.258 23.4988 35.4002 23.8257C33.3078 23.9565 34.354 26.572 35.714 25.2642Z" fill="#B97700"/>
<path fill-rule="evenodd" clip-rule="evenodd" d="M35.8749 37.2292C35.8488 37.2292 35.4826 37.4908 35.4826 37.4908L34.9334 37.7131L34.358 37.7262L34.2272 37.3338L34.6718 36.9415C34.3057 36.8761 33.9264 37.0331 33.6257 37.3077C33.6257 37.3077 33.6257 37.7392 33.8872 37.9616C34.031 38.1446 34.4757 38.4846 34.4757 38.4846C34.5962 38.5115 34.7208 38.5138 34.8421 38.4914C34.9635 38.4689 35.0791 38.4222 35.1818 38.3539L35.8749 37.2292ZM32.841 41.1655C33.0241 41.2178 34.3187 39.5047 34.3187 39.5047C34.2017 39.197 33.9729 38.9449 33.678 38.7985C33.678 38.7985 33.0503 39.5439 33.0372 39.7924C32.9326 40.0147 32.6449 40.8778 32.7756 40.9955C32.7626 41.0216 32.7103 41.3747 32.841 41.1655Z" fill="#C76E2E"/>
<path fill-rule="evenodd" clip-rule="evenodd" d="M24.3742 41.5078C22.4388 39.8208 19.8233 38.8923 16.1748 40.1608C17.1556 40.5793 18.2148 40.7231 19.1172 41.1939L24.3742 41.5078Z" fill="#006800" stroke="#004100" stroke-width="0.313853" stroke-linejoin="round"/>
<path d="M18.749 40.3186C22.5806 40.3971 23.6922 41.3517 23.496 41.1948" stroke="#00A400" stroke-width="0.287699" stroke-linecap="round"/>
<path fill-rule="evenodd" clip-rule="evenodd" d="M24.4562 41.7146C23.3054 41.9239 21.7361 43.0223 21.2653 42.9831C20.023 42.8393 18.846 42.3293 17.6429 41.9369C17.146 41.78 16.636 41.9369 16.126 41.9369C20.4153 39.91 21.8799 40.1846 24.4562 41.7016V41.7146Z" fill="#006800" stroke="#004100" stroke-width="0.287699" stroke-linejoin="round"/>
<path fill-rule="evenodd" clip-rule="evenodd" d="M21.628 38.7085C21.628 38.7085 20.1895 38.9178 19.5487 38.957C18.921 38.9178 17.9795 38.3293 16.9595 37.257C16.4364 36.6554 15.2071 36.7339 15.2071 36.7339C17.901 36.1585 20.0064 36.7077 21.6149 38.7216L21.628 38.7085ZM19.6664 35.9362C17.7179 35.8054 15.2856 34.0661 14.7363 31.9869C14.7363 32.013 15.4556 32.4446 15.3379 32.5492C18.5287 33.36 18.738 34.0138 19.6664 35.9362ZM22.9357 39.2709C23.2104 37.5054 23.2888 36.3416 22.465 35.2954C21.7719 34.5108 21.6019 34.0269 21.1049 32.9023C20.9611 35.23 20.4511 37.1524 22.9357 39.2709ZM19.8757 34.3931C21.3142 32.2876 21.5757 30.6922 21.3403 28.1814C21.3011 28.3776 20.8172 29.6199 20.7911 29.6199C18.6333 30.9668 19.588 33.0853 19.8757 34.3931Z" fill="#006800" stroke="#004100" stroke-width="0.313853" stroke-linejoin="round"/>
<path fill-rule="evenodd" clip-rule="evenodd" d="M18.5989 24.1929C20.0374 26.2983 19.8282 28.286 19.5928 30.7969C19.5536 30.6007 19.0697 29.3584 19.0435 29.3584C16.8858 28.0114 18.3243 25.5006 18.5989 24.1929Z" fill="#006800" stroke="#004100" stroke-width="0.313853" stroke-linejoin="round"/>
<path fill-rule="evenodd" clip-rule="evenodd" d="M19.7871 27.4622C23.2918 25.6837 21.9448 23.4475 22.5856 21.7083C20.1533 23.526 19.8394 25.4483 19.8002 27.4622H19.7871Z" fill="#006800" stroke="#004100" stroke-width="0.313853" stroke-linejoin="round"/>
<path d="M20.2677 27.0174C20.7123 25.7751 21.5754 23.6697 21.6669 23.6697M19.2215 29.6067C19.143 28.7306 18.6984 26.3767 18.6592 26.1413" stroke="#00A400" stroke-width="0.287699" stroke-linecap="round"/>
<path fill-rule="evenodd" clip-rule="evenodd" d="M19.3936 33.543C17.432 33.4122 15.3397 30.7575 14.7773 28.6913C14.7773 28.7175 15.4966 29.136 15.3789 29.2406C18.1774 30.496 18.4651 31.6206 19.3936 33.543ZM18.8182 31.7122C17.3797 29.6067 17.1182 28.0113 17.3405 25.5005C17.3797 25.6967 17.8636 26.939 17.9028 26.939C20.0475 28.2859 19.0928 30.4044 18.8182 31.7122ZM20.1128 28.0113C23.7352 26.4028 22.6237 24.7159 23.696 22.9504C21.2636 24.7551 20.1521 26.0105 20.1128 28.0113Z" fill="#006800" stroke="#004100" stroke-width="0.313853" stroke-linejoin="round"/>
<path d="M20.2695 27.6435C21.0918 26.8702 21.7655 25.9527 22.2573 24.9365" stroke="#00A400" stroke-width="0.287699" stroke-linecap="round"/>
<path fill-rule="evenodd" clip-rule="evenodd" d="M33.1587 47.9173L34.911 47.9434C29.0655 42.451 17.8453 40.0709 19.4014 29.9753C17.7929 40.921 28.5686 41.941 33.1587 47.9173Z" fill="#FFE100" stroke="#E9BF00" stroke-width="0.313853"/>
<path fill-rule="evenodd" clip-rule="evenodd" d="M20.3202 27.816C20.3202 27.9651 20.2609 28.1082 20.1555 28.2136C20.05 28.3191 19.907 28.3783 19.7578 28.3783C19.6088 28.3783 19.4657 28.3191 19.3603 28.2136C19.2548 28.1082 19.1955 27.9651 19.1955 27.816C19.1955 27.6668 19.2548 27.5238 19.3603 27.4183C19.4657 27.3129 19.6088 27.2537 19.7578 27.2537C19.907 27.2537 20.05 27.3129 20.1555 27.4183C20.2609 27.5238 20.3202 27.6668 20.3202 27.816ZM19.9802 30.9022C19.9802 31.0426 19.9244 31.1773 19.8251 31.2767C19.7257 31.376 19.5911 31.4318 19.4506 31.4318C19.3101 31.4318 19.1754 31.376 19.076 31.2767C18.9768 31.1773 18.9209 31.0426 18.9209 30.9022C18.9209 30.7635 18.976 30.6304 19.0742 30.5323C19.1723 30.4342 19.3053 30.3791 19.444 30.3791C19.5827 30.3791 19.7158 30.4342 19.8139 30.5323C19.912 30.6304 19.9671 30.7635 19.9671 30.9022H19.9802ZM20.4771 35.3092C20.4771 35.3711 20.465 35.4323 20.4413 35.4894C20.4177 35.5465 20.3829 35.5984 20.3392 35.6421C20.2955 35.6858 20.2436 35.7205 20.1865 35.7441C20.1293 35.7678 20.0681 35.78 20.0063 35.78C19.9445 35.78 19.8833 35.7678 19.8262 35.7441C19.769 35.7205 19.7171 35.6858 19.6734 35.6421C19.6298 35.5984 19.5951 35.5465 19.5714 35.4894C19.5478 35.4323 19.5355 35.3711 19.5355 35.3092C19.5355 35.1843 19.5851 35.0646 19.6734 34.9763C19.7617 34.888 19.8815 34.8384 20.0063 34.8384C20.1312 34.8384 20.2509 34.888 20.3392 34.9763C20.4275 35.0646 20.4771 35.1843 20.4771 35.3092ZM24.5703 40.1739C24.5703 40.2987 24.5207 40.4185 24.4324 40.5068C24.3441 40.5951 24.2244 40.6447 24.0995 40.6447C23.9747 40.6447 23.8549 40.5951 23.7666 40.5068C23.6783 40.4185 23.6287 40.2987 23.6287 40.1739C23.6287 40.049 23.6783 39.9293 23.7666 39.841C23.8549 39.7527 23.9747 39.7032 24.0995 39.7032C24.2244 39.7032 24.3441 39.7527 24.4324 39.841C24.5207 39.9293 24.5703 40.049 24.5703 40.1739ZM25.1587 41.5732C25.1587 41.698 25.1091 41.8178 25.0208 41.9061C24.9325 41.9944 24.8129 42.044 24.6879 42.044C24.5631 42.044 24.4434 41.9944 24.3551 41.9061C24.2668 41.8178 24.2172 41.698 24.2172 41.5732C24.2172 41.4483 24.2668 41.3286 24.3551 41.2403C24.4434 41.152 24.5631 41.1024 24.6879 41.1024C24.8129 41.1024 24.9325 41.152 25.0208 41.2403C25.1091 41.3286 25.1587 41.4483 25.1587 41.5732Z" fill="#9D4916" stroke="#68300E" stroke-width="0.143849"/>
<path fill-rule="evenodd" clip-rule="evenodd" d="M27.2249 45.6377C26.9566 45.4404 26.7409 45.1798 26.5972 44.8793L24.7664 44.6831L24.7402 45.7293L27.2249 45.6377Z" fill="white" stroke="black" stroke-width="0.143849"/>
<path fill-rule="evenodd" clip-rule="evenodd" d="M13.7689 44.4101C14.8412 44.6063 16.4497 44.3055 16.9728 44.9986C17.6005 45.7047 14.9981 46.8163 15.3643 47.4309C16.1751 48.2809 16.9989 47.9279 17.9012 47.4571C18.1236 46.9994 18.2936 46.1755 18.3982 45.927C18.0712 45.1816 17.182 44.8024 17.4174 43.6647C18.8951 43.1154 21.759 43.1547 22.0729 43.377C22.3083 43.8478 22.086 44.057 22.1383 44.4362C21.8898 44.9201 21.2621 45.7178 21.2621 46.1494C22.8314 46.6986 23.2237 46.0709 24.636 46.0971C26.2837 46.1232 27.2776 46.5678 27.6438 45.914C27.3822 45.3386 25.8783 45.8094 25.316 45.4432C25.0283 45.3517 24.8452 45.1163 24.5968 44.8678C24.3483 44.6193 23.6552 44.6063 23.5506 43.9655C23.8383 42.6316 25.7737 42.8408 26.0745 42.6316L31.0961 42.9847C32.0116 42.9585 32.5346 44.5932 31.2923 45.077C30.063 45.574 26.4407 44.3578 24.8583 45.1947C24.7799 44.8547 23.6421 44.3316 23.5637 44.3186C23.0798 44.4493 22.1383 44.4101 22.1383 44.4101C21.9159 44.8286 21.6413 45.1424 21.419 45.574C20.3728 45.1163 19.392 45.927 18.2543 45.6917L16.4758 45.8878L15.3512 45.7832L13.625 46.2801L14.8543 45.1947L13.7689 44.4101Z" fill="white" stroke="black" stroke-width="0.143849" stroke-linejoin="round"/>
<path fill-rule="evenodd" clip-rule="evenodd" d="M13.6915 44.2017C13.6915 44.3265 13.6419 44.4463 13.5536 44.5346C13.4653 44.6229 13.3455 44.6725 13.2207 44.6725C13.0959 44.6725 12.9761 44.6229 12.8878 44.5346C12.7995 44.4463 12.7499 44.3265 12.7499 44.2017C12.7499 44.0768 12.7995 43.9571 12.8878 43.8688C12.9761 43.7805 13.0959 43.731 13.2207 43.731C13.3455 43.731 13.4653 43.7805 13.5536 43.8688C13.6419 43.9571 13.6915 44.0768 13.6915 44.2017ZM13.5607 46.5556C13.5607 46.6804 13.5111 46.8002 13.4228 46.8885C13.3345 46.9768 13.2147 47.0264 13.0899 47.0264C12.9651 47.0264 12.8453 46.9768 12.757 46.8885C12.6687 46.8002 12.6191 46.6804 12.6191 46.5556C12.6191 46.429 12.6695 46.3076 12.7589 46.2181C12.8485 46.1286 12.9698 46.0783 13.0964 46.0783C13.2231 46.0783 13.3445 46.1286 13.434 46.2181C13.5235 46.3076 13.5738 46.429 13.5738 46.5556H13.5607Z" fill="white" stroke="black" stroke-width="0.143849"/>
<path fill-rule="evenodd" clip-rule="evenodd" d="M34.8262 45.6508C35.1269 45.3762 35.3231 45.1931 35.4408 44.8923L37.2716 44.6831L37.3108 45.7293L34.8262 45.6508Z" fill="white" stroke="black" stroke-width="0.143849"/>
<path fill-rule="evenodd" clip-rule="evenodd" d="M48.2712 44.4095C47.212 44.6056 45.6035 44.3179 45.0804 44.9979C44.4396 45.7172 47.042 46.8287 46.6758 47.4303C45.865 48.2934 45.0412 47.9403 44.1388 47.4695C43.9296 47.0118 43.7596 46.188 43.6419 45.9395C43.9819 45.181 44.8581 44.8149 44.6358 43.6771C43.145 43.1148 40.2811 43.1541 39.9803 43.3764C39.7318 43.8602 39.9541 44.0695 39.9018 44.4487C40.1634 44.9195 40.7911 45.7303 40.7911 46.1487C39.2218 46.7111 38.8164 46.0703 37.4172 46.1095C35.7694 46.1357 34.7625 46.5672 34.4094 45.9133C34.6579 45.351 36.1617 45.8087 36.7371 45.4556C37.0248 45.351 37.2079 45.1287 37.4564 44.8672C37.7049 44.6056 38.398 44.6056 38.5026 43.9779C38.2149 42.644 36.2794 42.8402 35.9656 42.644L30.9439 42.9841C30.0285 42.9579 29.5185 44.5925 30.7478 45.0895C31.977 45.5864 35.6125 44.3572 37.1818 45.1941C37.2733 44.8541 38.398 44.3441 38.4895 44.3179C38.9603 44.4618 39.9018 44.4095 39.9018 44.4095C40.1372 44.841 40.3988 45.1549 40.6342 45.5864C41.6803 45.1156 42.6611 45.9395 43.7988 45.691L45.5643 45.8872L46.702 45.7957L48.4282 46.2795L47.1989 45.2072L48.2712 44.4225V44.4095Z" fill="white" stroke="black" stroke-width="0.143849" stroke-linejoin="round"/>
<path fill-rule="evenodd" clip-rule="evenodd" d="M48.3525 44.2002C48.3525 44.3268 48.4028 44.4482 48.4923 44.5377C48.5818 44.6272 48.7032 44.6775 48.8298 44.6775C48.9564 44.6775 49.0779 44.6272 49.1673 44.5377C49.2569 44.4482 49.3071 44.3268 49.3071 44.2002C49.3071 44.0736 49.2569 43.9522 49.1673 43.8627C49.0779 43.7731 48.9564 43.7229 48.8298 43.7229C48.7032 43.7229 48.5818 43.7731 48.4923 43.8627C48.4028 43.9522 48.3525 44.0736 48.3525 44.2002ZM48.4833 46.5541C48.4833 46.679 48.5329 46.7987 48.6212 46.887C48.7094 46.9753 48.8292 47.0248 48.954 47.0248C49.0789 47.0248 49.1987 46.9753 49.2869 46.887C49.3752 46.7987 49.4248 46.679 49.4248 46.5541C49.4248 46.4293 49.3752 46.3095 49.2869 46.2212C49.1987 46.1329 49.0789 46.0833 48.954 46.0833C48.8292 46.0833 48.7094 46.1329 48.6212 46.2212C48.5329 46.3095 48.4833 46.4293 48.4833 46.5541Z" fill="white" stroke="black" stroke-width="0.143849"/>
<path fill-rule="evenodd" clip-rule="evenodd" d="M30.9949 43.0616C30.5764 42.9832 30.4195 43.0093 30.1318 42.9832L29.4648 45.0494C30.511 45.1409 31.4657 45.1409 31.4657 45.1409C30.8379 45.0101 30.9818 43.0747 30.9949 43.0616Z" fill="white"/>
<path d="M26.5957 44.4886V43.0894H26.8311V44.2663H27.485V44.4886H26.5957Z" fill="black"/>
<path d="M27.6826 44.554V43.1548H27.9311V44.554H27.6826Z" fill="black"/>
<path d="M28.7685 44.6602H28.3369V43.2871L28.7554 43.261C28.9036 43.261 29.0126 43.2914 29.0823 43.3525C29.1696 43.4222 29.2131 43.5137 29.2131 43.6271C29.2131 43.7318 29.1565 43.8189 29.0431 43.8887C29.2175 43.9497 29.3046 44.0761 29.3046 44.2679C29.3046 44.3987 29.2523 44.4989 29.1477 44.5687C29.0606 44.6384 28.9385 44.6733 28.7815 44.6733L28.7685 44.6602ZM28.5985 43.4702V43.7972H28.7292C28.8775 43.7972 28.9515 43.7361 28.9515 43.6141C28.9515 43.5181 28.8775 43.4702 28.7292 43.4702H28.5985ZM28.5985 43.9933V44.451H28.7292C28.8338 44.451 28.908 44.4335 28.9515 44.3987C29.0126 44.3725 29.0431 44.3158 29.0431 44.2287C29.0431 44.1414 29.0213 44.0849 28.9777 44.0587C28.9342 44.0151 28.8513 43.9933 28.7292 43.9933H28.5985Z" fill="black"/>
<path d="M29.893 43.547V43.9001H30.3376V44.1224H29.893V44.5278H30.5469V44.7501H29.6445V43.3508H30.5207V43.5731L29.893 43.547Z" fill="black"/>
<path d="M31.6714 44.7762L31.3052 44.1878H31.1221V44.7762H30.8867V43.377H31.0436L31.2529 43.3508C31.619 43.3508 31.8021 43.4903 31.8021 43.7693C31.8021 43.8564 31.7804 43.9306 31.7367 43.9916C31.6757 44.0614 31.6104 44.1093 31.5406 44.1355L31.9721 44.7762H31.6714ZM31.1221 43.5993V43.9655H31.2398L31.449 43.9393C31.5101 43.9131 31.5406 43.8564 31.5406 43.7693C31.5406 43.6995 31.5188 43.6472 31.4752 43.6124C31.4142 43.5862 31.3271 43.5731 31.2136 43.5731H31.1221V43.5993Z" fill="black"/>
<path d="M32.6798 43.5479V44.7248H32.4183V43.5479H31.9736V43.3386H33.1375V43.5479H32.6798Z" fill="black"/>
<path d="M34.0884 44.5303L33.9838 44.2556H33.4999L33.4084 44.5303H33.1338L33.6961 43.1179H33.8007L34.3761 44.5303H34.0884ZM33.7353 43.5495L33.5915 44.0726H33.9184L33.7353 43.5495Z" fill="black"/>
<path d="M34.5723 44.4241L34.6507 44.2018C34.7553 44.2628 34.8512 44.2933 34.9384 44.2933C35.0866 44.2933 35.1607 44.241 35.1607 44.1364L35.1084 44.0056L34.8992 43.8618L34.6769 43.731L34.5853 43.6002L34.5723 43.4433C34.5723 43.33 34.6071 43.2341 34.6769 43.1556C34.764 43.1033 34.8643 43.0771 34.9777 43.0771C35.1433 43.0771 35.2696 43.1033 35.3569 43.1556L35.2654 43.3779C35.1781 43.3081 35.0823 43.2733 34.9777 43.2733C34.9253 43.2733 34.8817 43.2864 34.8469 43.3125C34.8207 43.3387 34.8077 43.3823 34.8077 43.4433C34.8077 43.5131 34.8948 43.5914 35.0692 43.6787C35.1738 43.7222 35.2479 43.7658 35.2915 43.8095L35.37 43.9402L35.3961 44.1233C35.3961 44.2366 35.3525 44.3282 35.2654 44.3979C35.1781 44.4676 35.0604 44.5069 34.9123 44.5156C34.7727 44.5156 34.6594 44.4764 34.5723 44.3979V44.4241Z" fill="black"/>
<path d="M19.7839 41.6647C21.1047 41.8217 22.9355 41.704 23.7333 41.6647M17.7831 37.1662C18.9078 38.0423 21.327 38.5654 21.2878 38.5654M22.6871 38.8008C22.3209 36.97 21.9286 36.5254 21.6017 35.3746M15.9131 33.3084C17.7831 34.1453 18.0708 34.6946 19.2609 35.5315M19.9409 33.7007C20.0978 31.4384 20.4116 30.8368 20.974 30.3137M15.9131 30.0522C16.5931 30.7976 18.8162 33.1515 18.8162 33.1515M17.9008 27.9729C18.7378 28.5614 18.7378 30.7191 18.7378 30.7191" stroke="#00A400" stroke-width="0.287699" stroke-linecap="round"/>
</g>
</g>
</g>
<defs>
<clipPath id="clip0_12589_5211">
<rect width="62.7706" height="62.7706" rx="31.3853" fill="white"/>
</clipPath>
<clipPath id="clip1_12589_5211">
<rect width="83.6941" height="62.7706" fill="white" transform="translate(-10.4619)"/>
</clipPath>
</defs>
</svg>
