<svg width="63" height="63" viewBox="0 0 63 63" fill="none" xmlns="http://www.w3.org/2000/svg">
<g clip-path="url(#clip0_12589_5212)">
<path d="M0 -3.13843H62.7706V64.863H0V-3.13843Z" fill="#12AD2B"/>
<path d="M0 20.7693H62.7706V40.9638H0V20.7693Z" fill="#FFCE00"/>
<path d="M0 7.32324V54.4012L23.539 30.8622" fill="#D21034"/>
<path d="M34.4874 24.1377L32.4092 30.534L35.6073 31.5731" fill="black"/>
<path d="M34.487 24.1377L36.5653 30.534L33.3672 31.5731" fill="black"/>
<path d="M40.8807 28.7842H34.1553V32.1469" fill="black"/>
<path d="M40.8805 28.7842L35.4395 32.7373L33.4629 30.0168" fill="black"/>
<path d="M38.4405 36.3026L36.3621 29.9062L33.1641 30.9454" fill="black"/>
<path d="M38.441 36.3026L33 32.3495L34.9766 29.6289" fill="black"/>
<path d="M30.5332 36.3057L35.9742 32.3526L33.9977 29.6321" fill="black"/>
<path d="M30.5332 36.3057L32.6115 29.9094L35.8096 30.9486" fill="black"/>
<path d="M28.0879 28.7874L33.5289 32.7405L35.5055 30.0199" fill="black"/>
<path d="M28.0879 28.7874H34.8134V32.1501" fill="black"/>
<path d="M51.8283 24.1377L49.75 30.534L52.9482 31.5731" fill="black"/>
<path d="M51.8289 24.1377L53.9071 30.534L50.709 31.5731" fill="black"/>
<path d="M58.2225 28.7842H51.4971V32.1469" fill="black"/>
<path d="M58.2223 28.7842L52.7813 32.7373L50.8047 30.0168" fill="black"/>
<path d="M55.7824 36.3026L53.704 29.9062L50.5059 30.9454" fill="black"/>
<path d="M55.7828 36.3026L50.3418 32.3495L52.3184 29.6289" fill="black"/>
<path d="M47.875 36.3057L53.316 32.3526L51.3395 29.6321" fill="black"/>
<path d="M47.875 36.3057L49.9533 29.9094L53.1515 30.9486" fill="black"/>
<path d="M45.4287 28.7874L50.8697 32.7405L52.8463 30.0199" fill="black"/>
<path d="M45.4287 28.7874H52.1542V32.1501" fill="black"/>
</g>
<defs>
<clipPath id="clip0_12589_5212">
<rect width="62.7706" height="62.7706" rx="31.3853" fill="white"/>
</clipPath>
</defs>
</svg>
