<svg width="63" height="63" viewBox="0 0 63 63" fill="none" xmlns="http://www.w3.org/2000/svg">
<g clip-path="url(#clip0_12589_5229)">
<g clip-path="url(#clip1_12589_5229)">
<mask id="mask0_12589_5229" style="mask-type:luminance" maskUnits="userSpaceOnUse" x="-11" y="0" width="85" height="63">
<path d="M73.2322 0H-10.4619V62.7706H73.2322V0Z" fill="white"/>
</mask>
<g mask="url(#mask0_12589_5229)">
<path d="M73.2322 62.7706V0H-10.4619V62.7706H73.2322Z" fill="#000066"/>
<path d="M64.6638 26.1135C64.6638 34.4437 63.33 43.4408 52.502 47.7301C41.7003 43.4408 40.3795 34.4437 40.3271 26.1135H64.6638Z" fill="#8FC5FF" stroke="white" stroke-width="0.56232"/>
<path d="M52.4946 47.691C56.6109 46.2498 60.0423 43.3264 62.1194 39.4916H61.0994C60.7986 39.4393 50.7161 38.4715 49.4999 37.9615C48.4668 37.5954 44.4783 38.3146 42.6475 38.9816C44.6698 43.0588 48.2098 46.1809 52.5077 47.6779L52.4946 47.691Z" fill="#366CC9" stroke="black" stroke-width="0.56232"/>
<path d="M44.933 42.5801H45.5476C45.6914 42.5801 45.6914 42.5801 45.7437 42.4232C45.7961 42.2663 45.953 42.3186 46.0576 42.3709C46.1491 42.4232 46.3584 42.3709 46.4499 42.2663C46.5676 42.1617 46.5676 42.1617 46.6722 42.2663C46.7638 42.3709 46.8161 42.3186 46.9338 42.2663C46.973 42.2663 47.1822 42.1617 47.2345 42.0047C47.2738 41.8609 47.4307 41.8086 47.4961 41.9132C47.5353 42.0178 47.6269 42.0178 47.7446 42.0178C47.8361 42.0178 47.8361 42.0571 47.8361 42.214C47.8361 42.3186 47.8361 42.3709 48.0976 42.1617C48.3069 42.3709 48.3592 42.2663 48.3592 42.0571C48.3592 41.8609 48.3592 41.037 48.2546 40.9847C48.15 40.9324 48.0976 40.5793 48.0453 40.3309C48.0453 39.8078 48.0453 39.8078 47.5353 39.5462C47.5353 39.4155 47.4307 39.3501 47.0122 39.3501C47.0776 39.2978 47.0122 39.1539 46.9207 39.0885C46.8161 39.0493 46.8161 38.997 46.9207 38.7878C47.0253 38.7878 47.2345 38.7878 47.2738 38.6308C47.3784 38.5393 47.6923 38.5393 47.8884 38.6308C48.0976 38.7354 48.3069 38.7354 48.66 38.6308L49.2746 38.3301C49.5361 38.1731 49.5754 38.1208 49.5754 37.9247C49.5754 37.4016 49.4315 36.9046 49.3138 36.6431C49.1831 36.3815 49.1831 36.12 48.9607 35.6754C48.7646 35.2569 48.7646 35.1523 48.5684 34.9038C48.4507 34.7992 48.3984 34.7469 48.3984 34.6031C48.3833 34.4011 48.2893 34.2132 48.1369 34.08C47.7446 33.7269 47.6399 32.5499 47.4307 31.6868C47.3261 31.1637 47.4307 29.9868 47.2345 29.7906C46.8684 29.5291 46.7115 29.5814 46.4499 29.4899C46.2538 29.2283 46.2014 28.7706 46.0053 28.3129C45.7437 28.3652 45.5868 28.6137 45.443 28.7052C45.286 28.8229 45.2337 28.8229 45.2337 29.0714C45.2337 29.2806 45.0768 29.5945 44.8807 29.9868C44.6714 30.4053 44.2137 30.2483 43.8476 30.8107C43.1414 29.9476 43.1414 29.686 43.0891 29.4376C43.0891 29.176 42.9321 29.1237 42.5268 28.7706V27.986C42.1606 27.7244 41.9644 27.7898 41.8075 27.986C41.6506 28.1429 41.546 28.3914 41.2975 28.5091C41.1929 28.7052 40.7744 29.1106 40.4736 29.686C40.7875 34.2761 41.8075 38.8793 44.9199 42.5671L44.933 42.5801Z" fill="#5D3100" stroke="black" stroke-width="0.0523088"/>
<path d="M64.6638 26.114C64.6638 22.9363 64.5069 19.8631 64.5592 17.2215C60.7124 15.7257 56.6161 14.9756 52.4889 15.0115C49.782 15.0115 44.4595 15.4169 40.4318 17.2085C40.5233 19.8631 40.3271 22.9363 40.3271 26.101L64.6638 26.114Z" fill="#FFFF00" stroke="white" stroke-width="0.56232"/>
<path d="M40.9971 29.7359C41.1278 29.9451 41.3763 30.2982 41.3894 30.5205C41.494 30.3113 41.5725 30.2328 41.5855 30.1151C41.5855 29.9844 41.7555 29.762 41.6902 29.6313C41.6379 29.5005 41.5986 29.409 41.7425 29.5005C41.8863 29.592 41.8602 29.762 41.834 29.9974C41.7425 30.6513 41.4809 30.7821 41.4417 31.2136C41.8209 32.129 41.5332 32.469 41.9648 33.3844C42.0302 33.4106 42.2002 33.3452 42.2525 33.3583C42.4879 33.2014 42.6448 33.2406 42.9717 33.319C43.2856 33.3844 43.4556 33.6067 43.4556 33.816C43.4556 34.0252 43.4556 34.0644 43.534 34.1821C43.5994 34.2868 43.7171 34.4829 43.7041 34.6268C43.6648 34.7575 43.7171 34.836 43.7694 34.8883C43.8087 34.9537 43.7433 35.1237 43.7171 35.2022C43.6779 35.2806 43.691 35.4245 43.8479 35.6206C44.0048 35.8168 44.371 36.6537 44.371 37.1376C44.371 37.6476 44.4102 37.8699 44.6064 37.9615C44.8025 38.053 44.8679 38.1315 44.8418 38.3407C44.8156 38.5369 44.9333 39.6484 44.9595 39.8315C44.9725 40.0015 45.051 39.9623 45.1425 40.0538C45.221 40.1453 45.2733 40.25 45.5349 40.25C45.8095 40.25 46.0579 40.2238 46.2149 40.25C46.4764 40.5769 46.6072 41.0346 46.6726 41.3092C46.738 41.5969 46.7249 41.9631 46.8033 41.9631C46.908 41.9631 46.9995 41.9631 46.9734 41.6362C46.9472 41.2961 46.921 41.2438 46.8033 41.0608C46.6726 40.8908 46.6072 40.7992 46.6726 40.7077C46.738 40.6031 46.751 40.4461 46.738 40.3023C46.7118 40.1715 46.6595 39.9623 46.8949 40.2238L47.248 40.6554C47.3134 40.7338 47.3395 40.9169 47.3264 41.0869C47.3134 41.2438 47.3264 41.3092 47.4441 41.2177C47.5357 41.1392 47.6403 41.2831 47.5749 41.4531C47.5357 41.6231 47.6141 41.7277 47.7711 41.7931C47.928 41.8454 47.9934 41.8846 48.0326 42.0023C48.0718 42.1069 48.2026 42.1723 48.2026 41.9239C48.1897 41.6175 48.1369 41.3142 48.0457 41.0215C47.9803 40.8646 47.928 40.5246 47.9149 40.3154C47.8888 40.1192 47.8626 40.0669 47.7711 40.0407C47.6795 40.0015 47.588 39.91 47.5749 39.8315C47.5749 39.74 47.4834 39.7007 47.4311 39.7007C47.3657 39.7007 47.3134 39.6615 47.2741 39.5961C47.248 39.5176 47.2087 39.5176 47.1434 39.5176C47.078 39.5046 46.9734 39.5438 46.9341 39.4392C46.908 39.3346 46.8557 39.1776 46.7903 39.0992C46.7249 39.0207 46.6726 38.9815 46.6595 38.6807C46.6595 38.3799 46.6595 38.3407 46.5549 38.2361C46.4503 38.1315 46.2933 37.8438 46.228 37.7391C46.1756 37.6084 46.0972 37.4907 46.0972 37.7391C46.0972 38.0007 46.0972 38.1315 46.2672 38.223C46.4241 38.3145 46.4633 38.3145 46.398 38.4584C46.3195 38.5892 46.398 38.6807 46.4241 38.7722C46.4633 38.8638 46.5026 38.9553 46.4241 39.0338C46.3456 39.1384 46.2672 39.1123 46.2803 38.9684C46.2809 38.8165 46.2402 38.6673 46.1626 38.5369C46.1103 38.4061 46.0449 38.3276 45.9664 38.4061C45.8879 38.4584 45.8226 38.3799 45.8749 38.3276C45.9403 38.2753 45.9141 38.2361 45.8749 38.1968C45.8487 38.1707 45.8226 38.1184 45.8879 38.0399C45.9533 37.9615 45.9533 37.9222 45.9141 37.7391C45.8749 37.5561 45.5872 36.6145 45.4564 36.4053C45.3256 36.183 45.3387 36.0391 45.4956 36.2353C45.6656 36.4445 45.8226 36.6276 45.8487 36.8107C45.8487 36.9937 45.8879 37.0984 45.9403 37.1507C46.0056 37.2161 46.0318 37.203 46.071 37.0461C46.071 36.9022 46.2018 36.9545 46.0187 36.6799C45.8226 36.4053 45.4826 35.9345 45.3387 35.0845C45.2079 34.2475 45.1556 33.7114 45.0248 33.4891C44.8941 33.2537 44.8548 33.2014 44.8418 32.9921C44.8287 32.7829 44.8418 32.5606 44.7502 32.4036C44.6587 32.2467 44.5933 32.2206 44.5802 32.456C44.5671 32.6913 44.5802 33.2406 44.6587 33.319C44.7372 33.4106 44.6848 33.6591 44.6587 33.7767C44.6325 33.9075 44.4364 34.0514 44.881 34.3129C45.051 34.4306 45.0118 34.5745 45.0118 34.6529C44.9725 34.7575 44.9464 34.7445 44.8548 34.6006C44.7633 34.4568 44.6718 34.326 44.5802 34.2606C44.4887 34.1952 44.4625 34.1298 44.4887 33.9337C44.5148 33.7375 44.5279 33.6067 44.4887 33.5414C44.4364 33.4891 44.4102 33.5283 44.371 33.646C44.3448 33.7506 44.3318 34.0383 44.2533 34.1168C44.1879 34.1952 44.1879 34.1429 44.1487 33.9729C44.0964 33.8029 44.1618 33.5283 44.2533 33.2275C44.3448 32.9398 44.4102 32.5998 44.3318 32.2075C44.2533 31.8152 44.2794 31.6844 43.9917 31.3575C43.6779 31.0175 43.3248 30.7036 43.194 30.2982C43.0371 29.8797 43.011 29.5136 42.841 29.3305C42.6938 29.1421 42.5172 28.9788 42.3179 28.8466V28.232C42.3179 28.0751 42.2525 27.9966 42.0825 28.0228C41.9125 28.0489 41.7948 28.1928 41.6902 28.3889C41.5855 28.5982 41.5071 28.5066 41.3502 28.8466C41.1932 29.1867 41.0101 29.3697 41.0101 29.7359H40.9971Z" fill="#CF6200"/>
<path d="M41.9559 33.622C42.0867 33.7005 42.1783 33.7397 42.3483 33.6612C42.4921 33.5828 42.6752 33.3474 42.9106 33.5828C43.1095 33.832 43.2198 34.1402 43.2244 34.4589C43.2244 34.7597 43.2244 35.309 43.5644 35.6097C43.9045 35.9105 44.0745 36.2374 44.0875 36.6298C44.1148 37.0267 44.176 37.4204 44.2706 37.8067C44.3229 37.9636 44.4014 38.1467 44.5191 38.2644C44.6106 38.369 44.7022 38.6698 44.7152 38.9837C44.7283 39.3106 44.676 39.5198 44.7152 39.6898C44.7675 39.8468 44.7152 39.9775 44.6106 39.9121C44.4798 39.8468 44.4537 39.7814 44.3752 39.6506C44.2968 39.5198 44.2445 39.5329 44.3098 39.7421C44.3752 39.9514 44.5714 40.1345 44.7414 40.1345C44.9114 40.1345 44.9637 40.1475 45.0814 40.2652C45.186 40.3698 45.1991 40.4222 45.3822 40.4222C45.5653 40.4222 45.5914 40.4222 45.7745 40.4745C45.9445 40.5137 45.9445 40.5006 46.036 40.4745C46.1276 40.4352 46.2191 40.5268 46.2845 40.6968C46.3368 40.8668 46.5068 41.3506 46.5068 41.4814C46.5068 41.6122 46.5068 41.743 46.5984 41.8737C46.6899 42.0176 46.6637 42.1353 46.5591 42.0699C46.4676 41.9914 46.4545 42.0045 46.3891 42.0306C46.3107 42.0568 46.2583 42.0045 46.1407 41.926C46.036 41.8737 46.1014 41.8868 45.9968 41.7299C45.8922 41.5599 45.8268 41.5076 45.8268 41.6383C45.8268 41.7691 45.8006 41.8999 45.7222 41.8214C45.6437 41.756 45.6045 41.756 45.5391 41.8214C45.4737 41.8999 45.4476 41.9522 45.3691 41.8214C45.2906 41.6906 45.1991 41.6906 45.1076 41.6514C45.0422 41.6383 45.0422 41.6383 45.0029 41.5206C44.9637 41.3899 44.8329 41.3637 44.7414 41.3637C44.6237 41.3637 44.5714 41.3114 44.5583 41.2329C44.5583 41.1545 44.4798 41.1022 44.4275 41.0629C44.3622 41.0237 44.4014 40.9322 44.3883 40.8406C44.3883 40.7491 44.2968 40.7752 44.2445 40.7622C44.1791 40.736 44.1529 40.7491 44.1529 40.6052C44.1529 40.4745 44.0875 40.4352 44.0614 40.3437C44.0091 40.2391 44.0614 40.1475 44.0875 40.056C44.1006 39.9252 44.0875 39.8729 44.0091 39.7945C43.9306 39.6898 44.0091 39.5983 43.7868 39.4021C43.5644 39.2321 43.4598 39.3891 43.3944 38.9575C43.3569 38.4489 43.2513 37.9474 43.0806 37.4667C42.9498 37.3359 42.8844 37.2052 42.7537 37.1659C42.6229 37.1267 42.5706 37.1659 42.5575 36.9044C42.5444 36.6428 42.466 36.329 42.296 36.1721L41.9952 35.8844C41.9167 35.8321 41.8775 35.7013 41.9952 35.492C42.1129 35.2567 42.0606 34.9428 42.0475 34.799C42.0344 34.6682 41.9952 34.459 42.0213 34.302C42.0475 34.1451 42.0213 33.9489 41.9952 33.8443C41.9559 33.7528 41.9036 33.7135 41.969 33.622H41.9559ZM45.1599 29.8558C44.9862 30.0858 44.779 30.2886 44.5452 30.4573C44.2968 30.6404 43.9829 30.7712 44.1529 31.072C44.336 31.3727 44.4799 31.412 44.506 31.6343C44.5452 31.8697 44.6106 32.0658 44.7675 32.1181C44.9637 32.1704 45.0291 32.1443 45.0291 32.5104C45.0291 32.8635 45.0291 33.0335 45.186 33.1643C45.3429 33.2951 45.3168 33.452 45.3953 33.7789C45.4737 34.1189 45.4737 34.8513 45.683 35.3482C45.8791 35.8321 46.376 36.7867 46.3107 36.9698C46.2583 37.1659 46.206 37.3098 46.4022 37.5452C46.6245 37.7675 46.7553 38.1075 46.7945 38.3036C46.7945 38.4998 46.8337 38.5652 47.0561 38.4998C47.2011 38.4634 47.3327 38.3863 47.4353 38.2775C47.5007 38.186 47.6445 38.199 47.8407 38.3036C48.0369 38.4213 48.3376 38.5129 48.5207 38.4213C48.6907 38.3036 48.7823 38.1467 48.9392 38.1467C49.1876 37.9636 49.2792 37.5975 49.3315 37.4929C49.3838 37.3882 49.3446 37.3882 49.24 37.2836C49.1353 37.179 49.1876 36.9959 49.1746 36.8259C49.1484 36.6428 49.083 36.3682 48.8738 35.9759C48.6646 35.5836 48.5207 35.1128 48.3899 34.9951C48.2592 34.8643 48.1807 34.5636 48.1676 34.4197C48.1545 34.2889 47.9845 34.1582 47.8799 34.0536C47.7622 33.9359 47.6707 33.792 47.5399 33.1643C47.4091 32.5497 47.3307 32.1181 47.3307 31.9874C47.3307 31.8827 47.3045 31.8827 47.1999 31.8304C47.0953 31.7912 47.043 31.6212 47.0953 31.5427C47.1084 31.4512 47.043 31.3597 47.0037 31.255C46.9776 31.1504 47.0037 30.9543 47.0822 30.8366C47.1476 30.7319 47.1345 30.4442 47.0691 30.1827C47.0037 29.9473 46.9253 29.7381 46.6376 29.6858C46.363 29.6596 46.2976 29.5812 46.206 29.3458C46.0753 29.1234 45.9707 28.7181 45.9445 28.6265C45.9183 28.535 45.853 28.5219 45.6437 28.705C45.4345 28.875 45.356 28.9273 45.356 29.2673C45.356 29.4896 45.4083 29.555 45.4737 29.6727C45.5391 29.8035 45.5653 29.8427 45.6045 30.1696C45.6568 30.4966 45.9576 31.0327 45.5783 31.3466C45.186 31.6343 45.2383 31.7127 45.2514 31.922C45.2776 32.1443 45.1468 32.2751 45.0814 31.9874C45.0029 31.6735 45.0814 31.5035 45.2906 31.3597C45.4999 31.2289 45.696 31.0327 45.5522 30.8366C45.4266 30.5647 45.3513 30.2723 45.3299 29.9735C45.3168 29.7642 45.2906 29.6858 45.1599 29.8558Z" fill="#CF6200"/>
<path d="M42.0073 34.3689L42.0465 34.8005C42.0465 34.9443 42.0988 35.2582 41.9811 35.4805C41.8765 35.7028 41.9026 35.8205 41.9811 35.8859H41.9942C42.2165 35.8205 42.2557 35.5851 42.1903 35.4674C42.1622 35.4048 42.1499 35.3363 42.1545 35.2679C42.159 35.1996 42.1803 35.1333 42.2165 35.0751C42.2819 34.9443 42.2819 34.8789 42.2165 34.7874C42.1511 34.6958 42.1511 34.6958 42.2165 34.4474C42.295 34.2251 42.125 34.2251 42.0073 34.3689ZM44.2827 37.8082C44.2435 37.6513 44.0865 37.0236 44.0865 36.6313C44.0735 36.239 43.8904 35.912 43.5635 35.6112C43.3019 35.3759 43.2496 34.9966 43.2234 34.6958C43.0273 34.5781 42.9619 34.6305 42.975 34.8528C42.975 35.0882 43.2365 35.1928 43.1973 35.5459C43.1581 35.8859 43.1581 35.8074 43.3281 35.9774C43.4719 36.1343 43.5504 36.3174 43.4588 36.3697C43.3673 36.4351 43.3673 36.5659 43.485 36.6051C43.6158 36.6574 43.6158 36.7882 43.6027 36.919C43.5896 37.0367 43.7204 37.0628 43.7727 37.1413C43.8511 37.2328 43.8511 37.4551 43.7727 37.5728C43.7204 37.7036 43.7073 37.8998 43.825 37.7951C43.9558 37.6774 44.0081 37.7951 44.0996 37.9521C44.1781 38.0828 44.2565 38.0436 44.3612 38.0175C44.3235 37.951 44.2928 37.8809 44.2696 37.8082H44.2827ZM45.9827 40.8944C45.9304 41.0514 45.8389 41.0121 45.7604 40.9337C45.682 40.8552 45.5904 40.8552 45.6297 40.6983C45.6558 40.5544 45.6296 40.5283 45.5381 40.4498L45.4989 40.4106H45.3943C45.1981 40.4106 45.185 40.3714 45.0673 40.2537C45.0463 40.2351 45.0245 40.2177 45.0019 40.2013V40.306C45.0019 40.4498 45.0019 40.4106 44.8712 40.4629C44.7404 40.5021 44.7404 40.319 44.7142 40.2013C44.7122 40.1748 44.7079 40.1485 44.7012 40.1229C44.6071 40.1019 44.5208 40.0553 44.4515 39.9885C44.3824 39.9215 44.3329 39.8368 44.3089 39.7436C44.2435 39.5344 44.3089 39.5213 44.3873 39.6521C44.4658 39.7829 44.4789 39.8221 44.5966 39.9137C44.7012 39.979 44.7535 39.8483 44.7012 39.6913C44.6941 39.6348 44.6941 39.5777 44.7012 39.5213C44.6815 39.4675 44.6448 39.4215 44.5966 39.3906C44.3612 39.299 44.4396 39.2859 44.4396 39.1029C44.4658 38.9329 44.4265 38.9329 44.2827 39.0244C44.1519 39.1159 44.1519 39.0244 44.1519 38.7367C44.1519 38.4752 43.9688 38.4752 43.9296 38.6582C43.8904 38.8544 43.8119 38.7236 43.7465 38.4621C43.6811 38.2005 43.5504 38.1221 43.5504 38.3836C43.5504 38.6059 43.4719 38.6452 43.3411 38.5405L43.3934 38.9459C43.4588 39.3775 43.5635 39.2075 43.7858 39.4036C43.995 39.5867 43.9296 39.6913 44.0081 39.7829C44.0865 39.8744 44.0996 39.9398 44.0865 40.0444C44.0473 40.149 44.0081 40.2406 44.0473 40.3321C44.0865 40.4367 44.1519 40.4629 44.1519 40.6067C44.1519 40.7375 44.1781 40.7244 44.2435 40.7637H44.3481L44.4396 40.6329C44.6096 40.476 44.8319 40.6329 44.9235 40.8552C45.0019 41.0514 45.0935 41.1037 45.2243 40.9337C45.355 40.7767 45.3027 40.8029 45.4335 40.9467C45.5643 41.1037 45.6166 41.0775 45.6166 41.0775C45.6166 41.0775 45.7473 41.0252 45.852 41.1037C45.9435 41.1821 45.9827 41.1691 46.1658 40.9206C46.3358 40.659 46.0874 40.7375 46.0089 40.8944H45.9827ZM46.4797 33.5974C46.532 33.205 46.4927 32.8258 46.6497 32.682C46.8197 32.5512 47.0028 32.2504 47.0028 32.865C46.9766 33.4666 46.9504 33.4274 46.8328 33.5712C46.702 33.7151 46.5974 33.7543 46.702 33.9766C46.8458 34.1989 46.8589 34.2381 46.8458 34.5781C46.8328 34.9312 46.8328 35.0882 46.9635 35.2582C47.1074 35.4412 47.1466 35.4412 47.1858 35.6505C47.2268 35.8744 47.3366 36.08 47.4997 36.239C47.6566 36.3959 47.8397 36.7882 47.8528 37.0759C47.8789 37.3636 48.1143 37.429 48.3497 37.6382C48.5851 37.8344 48.2974 37.9651 48.1274 37.8736C47.9443 37.7951 48.0097 37.8736 47.9051 38.0044C47.8005 38.1351 47.7743 38.1482 47.6828 37.9259C47.5912 37.7167 47.2905 37.5728 47.1466 37.5205C47.0028 37.4682 46.8851 37.2328 46.7543 36.9974C46.7018 36.9047 46.6283 36.8258 46.5397 36.7666C46.4511 36.7076 46.3499 36.6702 46.2443 36.6574C46.2966 36.8013 46.3227 36.919 46.3097 36.9713C46.2574 37.1674 46.205 37.3113 46.4012 37.5467C46.6235 37.769 46.7543 38.109 46.7935 38.3052C46.7935 38.5013 46.8328 38.5667 47.0551 38.5013C47.1972 38.4581 47.3272 38.3819 47.4343 38.279C47.4997 38.1875 47.6435 38.1875 47.8397 38.3052C48.0359 38.4098 48.3366 38.5144 48.5197 38.4098C48.6897 38.2921 48.7813 38.1482 48.9382 38.1482C49.1866 37.9651 49.2782 37.5859 49.3305 37.4944C49.3828 37.3636 49.3436 37.3636 49.239 37.2721C49.1343 37.1674 49.1867 36.9844 49.1605 36.8144C49.1605 36.6313 49.082 36.3697 48.8728 35.9774C48.6505 35.5851 48.5197 35.1143 48.3889 34.9966C48.2582 34.8658 48.1666 34.5651 48.1666 34.4212C48.1405 34.2905 47.9835 34.1597 47.8789 34.042C47.7612 33.9374 47.6566 33.7804 47.5389 33.1658C47.4474 32.682 47.3558 32.3027 47.3428 32.1196C47.212 32.3158 47.1205 32.3812 47.0812 32.2243C47.0158 32.0673 46.9635 31.9889 46.8851 32.0935C46.8197 32.1981 46.7935 31.9889 46.7935 31.8973C46.7935 31.8058 46.7935 31.8058 46.6758 31.8058C46.5712 31.8058 46.6758 31.675 46.6366 31.3873C46.5974 31.1258 46.5451 31.0996 46.5189 31.4135C46.4797 31.7273 46.2966 31.9366 46.375 31.9889C46.4404 32.0673 46.4012 32.2112 46.3358 32.4204C46.2786 32.5721 46.2786 32.7395 46.3358 32.8912C46.3881 33.022 46.3097 33.3097 46.2835 33.532C46.2443 33.7543 46.4274 33.9897 46.4797 33.6104V33.5974ZM43.2365 30.4327C43.1057 30.4327 43.0142 30.5634 43.0927 30.9558C43.145 31.2173 42.9619 31.165 42.8834 31.0342C42.8181 30.9035 42.7527 30.6419 42.6219 30.4196C42.478 30.1973 42.5434 30.5634 42.5304 30.7858C42.5042 31.0081 42.648 31.0081 42.7657 31.1781C42.8965 31.3612 42.7919 31.4265 42.6611 31.4265C42.5304 31.4265 42.5696 31.7142 42.6088 31.8973C42.648 32.0935 42.5696 32.1327 42.478 31.9758C42.3473 31.8058 42.4388 31.5835 42.4519 31.2696C42.478 30.9688 42.4911 31.0342 42.295 30.9688C42.0988 30.8904 42.125 30.8511 42.2165 30.6811C42.2819 30.4981 42.3473 30.4196 42.2557 30.3281C42.1773 30.2365 42.1903 30.1842 42.3342 30.1711C42.465 30.145 42.4127 30.0404 42.5434 30.0142C42.6742 29.975 42.7265 30.0142 42.7396 29.7919C42.7527 29.5957 42.8181 29.4911 42.9619 29.5434C43.0534 29.8442 43.1581 30.3019 43.2365 30.4327ZM45.0281 32.525C45.0281 32.8912 45.0281 33.0481 45.185 33.1789C45.342 33.3097 45.3158 33.4666 45.3943 33.7935C45.4727 34.1335 45.4727 34.8658 45.682 35.3628L45.9173 35.8859C46.0279 35.7925 46.1171 35.6766 46.1789 35.5459C46.2181 35.4412 46.0612 35.1797 45.9435 34.9835C45.8127 34.7482 45.9566 34.6828 46.0743 34.4081C46.205 34.1597 46.0743 34.1466 45.865 34.0681C45.682 34.0028 45.682 33.8066 45.5773 33.532C45.4727 33.2443 45.4858 33.1266 45.5512 32.9566C45.6166 32.7996 45.5773 32.682 45.4335 32.6427C45.2896 32.6035 45.3289 32.512 45.3812 32.3289C45.4335 32.1589 45.4727 32.1196 45.2504 32.1589C45.0935 32.2112 45.0543 32.2504 45.0019 32.2896L45.0281 32.525Z" fill="#00B800"/>
<path d="M47.0661 33.254C47.0399 33.4632 47.0399 33.5809 46.9876 33.6463C46.9353 33.7117 46.9745 33.8163 47.0268 33.934C47.0922 34.0386 47.1053 34.1694 47.0661 34.3786C47.0137 34.5748 47.0922 34.7186 47.1968 34.7709C47.3014 34.8232 47.3538 34.7709 47.3276 35.0325C47.3165 35.1449 47.3307 35.2585 47.3692 35.3649C47.4076 35.4712 47.4695 35.5677 47.5499 35.6471C47.6807 35.7517 47.7722 35.9217 47.7461 36.0394C47.7461 36.144 47.8376 36.2356 47.9684 36.301C48.0992 36.3533 48.073 36.3663 48.073 36.4317C48.073 36.4971 48.1253 36.5102 48.2561 36.5494C48.3869 36.5887 48.5176 36.6671 48.6746 36.8633C48.8315 37.0725 49.0669 37.1641 49.0276 36.9548C48.9884 36.7587 49.0276 36.5887 48.8184 36.4971C48.5961 36.3925 48.4392 35.8825 48.3607 35.5294C48.2642 35.1821 48.0847 34.8634 47.8376 34.6009C47.7984 34.3394 47.8376 34.2217 47.6807 34.104C47.6133 34.0566 47.5581 33.994 47.5195 33.9213C47.4809 33.8486 47.4599 33.7678 47.4584 33.6855C47.4584 33.5809 47.3799 33.424 47.3014 33.3717C47.2361 33.3324 47.1968 33.254 47.1968 33.1363C47.1968 33.0317 47.0922 33.0447 47.0661 33.267V33.254Z" fill="#5D3100"/>
<path d="M46.1211 42.7607C46.558 42.6938 46.9843 42.5708 47.3896 42.3945C47.6119 42.5384 47.9781 42.7345 48.135 42.7345C47.8342 42.7999 47.625 42.7738 47.5596 42.7084C47.5988 42.7999 47.6904 42.9569 47.7688 42.9699C47.468 42.9699 47.1411 42.8915 47.0365 42.7868C46.775 42.8915 46.3565 42.9176 46.1211 42.7607ZM46.6834 43.153C46.8011 43.1922 47.3634 43.2838 47.4419 43.2838C47.2588 43.4407 47.4157 43.5976 47.7165 43.5715C47.5857 43.5976 47.4027 43.6499 47.5204 43.6761C47.9197 43.6712 48.3144 43.5914 48.6842 43.4407C48.4227 43.7676 47.1934 44.0684 46.6834 43.153ZM47.2065 43.9507C47.4362 43.8938 47.6778 43.9075 47.8996 43.99C47.7165 44.0684 47.3111 44.0684 47.1934 43.9638L47.2065 43.9507Z" fill="#00D860"/>
<path d="M47.7689 43.9534C48.0305 43.9142 48.8151 44.0842 49.0767 43.9272C48.9851 44.1757 48.5143 44.2149 48.3313 44.1496C48.1613 44.1103 48.0043 44.0449 47.8866 44.0449C47.9651 44.0057 47.8605 44.0057 47.7559 43.9534H47.7689Z" fill="black"/>
<path d="M48.042 44.3326C48.4392 44.3436 48.8359 44.295 49.2189 44.1887C49.4413 44.2672 49.9251 44.398 50.0297 44.3849C49.8074 44.5157 49.3759 44.4372 49.2451 44.3849C49.0529 44.4645 48.8456 44.501 48.6377 44.492C48.4299 44.483 48.2265 44.4285 48.042 44.3326Z" fill="#00D860"/>
<path d="M48.3891 44.4502C48.6899 44.5155 48.9515 44.4763 49.2392 44.3848C49.3307 44.4109 49.5399 44.4632 49.7492 44.4632C49.8799 44.5286 50.0499 44.6332 50.233 44.6594C49.9034 44.7044 49.5679 44.6731 49.2522 44.5678C48.8935 44.5577 48.5368 44.6245 48.2061 44.764C48.2124 44.7019 48.2336 44.6421 48.2678 44.5898C48.3019 44.5375 48.3479 44.4941 48.4022 44.4632L48.3891 44.4502Z" fill="#00D860"/>
<path d="M48.0474 42.9705C48.2697 43.0359 49.1197 42.9967 49.5251 42.8005C49.7082 42.709 49.8128 42.8528 49.6166 42.9052C48.9366 43.1667 48.3743 43.2452 47.982 43.0359C47.8251 42.9575 47.7989 42.879 48.0474 42.9575V42.9705Z" fill="black"/>
<path d="M52.1285 41.8225C51.0954 42.3064 50.4284 42.4502 49.003 42.0056C48.8722 41.9794 48.7807 42.0056 48.9246 42.0971C49.2813 42.2513 49.6541 42.3654 50.0361 42.4371C50.2192 42.4502 50.1538 42.5287 50.0361 42.5679C49.9315 42.5941 49.9053 42.6725 50.0492 42.6202C50.193 42.5548 51.0692 42.5287 51.4223 42.7118C51.5661 42.8033 51.6054 42.7771 51.5923 42.7118C51.5792 42.6594 51.6577 42.6202 51.7754 42.6071C51.88 42.5941 51.9585 42.5548 51.8669 42.5287C51.7754 42.4894 51.7623 42.4633 51.8277 42.4371C51.8931 42.3979 51.9062 42.3587 51.8015 42.3456C51.71 42.3194 51.6315 42.2933 51.7231 42.2541C51.8311 42.2067 51.9458 42.1758 52.0631 42.1625C52.0892 42.0971 52.05 41.901 52.1285 41.8225Z" fill="#00D860"/>
<path d="M50.4297 41.937C51.2407 41.949 52.0291 41.6707 52.6528 41.1523C52.862 41.2831 53.1367 41.4139 53.2936 41.44C53.4374 41.4662 53.5551 41.597 53.3328 41.597C53.1105 41.597 52.8097 41.5054 52.6528 41.44C51.986 41.8486 51.2106 42.0446 50.4297 42.0024C50.2858 42.0024 50.2466 41.937 50.4297 41.9501V41.937Z" fill="black"/>
<path d="M48.6834 38.7495C48.8926 38.8934 49.2457 39.1288 49.7034 39.0895C49.9245 39.2665 50.1776 39.3997 50.4488 39.4818C50.1349 39.5865 49.7949 39.7041 49.7165 39.7957C49.5857 39.6649 49.3895 39.6911 49.3503 39.6126C49.2195 39.7434 49.2326 39.7826 49.3241 39.848C49.6209 39.9362 49.9301 39.9759 50.2396 39.9657C50.3965 39.9134 50.4619 40.0572 50.318 40.0965C49.9649 40.2272 49.2718 40.0965 49.0365 39.7172C48.7749 39.338 48.5788 39.1941 47.9249 39.5472C47.8595 39.3511 47.8595 39.3249 47.7287 39.3249C47.598 39.3249 47.3626 39.1549 47.5456 39.1549C47.7287 39.1549 48.2518 39.0764 48.6834 38.7626V38.7495Z" fill="#00D860"/>
<path d="M48.8534 39.6231C48.7227 39.6362 48.4219 39.8062 48.3173 39.8193C48.1996 39.8455 48.0034 40.0024 48.1996 40.0024C48.4219 40.0024 48.6834 39.7801 48.8273 39.7801C48.9711 39.7801 48.9842 39.5839 48.8534 39.6101V39.6231ZM49.5073 40.277C49.4157 40.3032 49.0757 40.3816 48.9842 40.3816C48.8927 40.3816 48.788 40.3816 48.8011 40.4601C48.8142 40.5255 48.8404 40.5778 48.6834 40.5516C48.5527 40.5255 48.435 40.5909 48.4088 40.6301C48.3696 40.6693 48.3434 40.7086 48.4873 40.7216C48.618 40.7216 48.6965 40.7609 48.8665 40.6693C49.0234 40.5909 49.1673 40.4993 49.3373 40.4862C49.5073 40.4862 49.6773 40.2509 49.4942 40.2901L49.5073 40.277Z" fill="#00D860"/>
<path d="M49.0269 40.682C49.1707 40.7997 49.89 41.022 50.1384 41.022C50.4 41.0089 50.3607 41.1135 50.1646 41.1527C49.9423 41.1856 49.7155 41.1712 49.4991 41.1103C49.2828 41.0495 49.0817 40.9436 48.9092 40.7997C48.7522 40.6689 48.9092 40.6166 49.0138 40.682H49.0269Z" fill="black"/>
<path d="M52.4101 41.0637C51.9754 41.1863 51.5173 41.1997 51.0762 41.103C50.8539 41.0245 50.6446 41.0245 50.8146 41.1814C50.9454 41.3253 51.4423 41.4168 51.73 41.3514C50.7362 41.5738 50.4746 41.5607 50.2392 41.5214C49.9355 41.4845 49.6291 41.4758 49.3238 41.4953C49.1779 41.5188 49.0283 41.5007 48.8923 41.443C48.8008 41.3776 48.7746 41.2991 49.0361 41.3253C49.2977 41.3384 49.3369 41.2991 49.1146 41.2599C48.8792 41.2207 48.5784 41.3122 48.8792 41.5214C49.1931 41.7045 49.8469 41.4953 50.2785 41.6261C50.6556 41.7242 51.051 41.7304 51.4309 41.6438C51.811 41.5574 52.1647 41.3808 52.4624 41.1291C52.5016 41.103 52.5801 40.9984 52.4101 41.0507V41.0637ZM49.7162 40.2399C49.7423 40.3183 49.7423 40.3706 49.7162 40.423C49.69 40.4753 49.7031 40.5407 49.7815 40.4753C49.86 40.4099 49.9123 40.3183 50.0169 40.3706C50.1085 40.4099 50.3177 40.4099 50.4092 40.3968C50.5139 40.3968 50.54 40.3576 50.4092 40.3053C50.2894 40.2538 50.1604 40.2271 50.03 40.2268C49.9515 40.2399 49.8469 40.2268 49.7815 40.1876C49.7162 40.1483 49.7031 40.1876 49.7162 40.2399Z" fill="#00D860"/>
<path d="M51.132 40.4992C51.0274 40.4992 50.8181 40.4207 50.7266 40.3684C50.622 40.3292 50.465 40.3292 50.5697 40.4992C50.6874 40.6561 51.1712 40.7215 51.3543 40.6561C51.5243 40.5776 51.4589 40.4992 51.6158 40.6038C51.7989 40.7084 51.9689 40.7738 52.0997 40.7738C52.2305 40.7738 52.2697 40.7738 52.1389 40.6953C52.0081 40.6169 51.9297 40.6038 51.9035 40.5384C51.8774 40.473 51.8774 40.4207 52.0212 40.473C52.152 40.5122 52.2828 40.5776 52.3874 40.5253C52.492 40.473 52.6751 40.3553 52.8451 40.3553L52.8712 40.2507C52.6359 40.2507 52.4789 40.3161 52.4135 40.3292C52.3612 40.3553 52.2305 40.3815 52.0997 40.3553C51.9689 40.3292 51.812 40.3161 51.7728 40.2899C51.7205 40.2507 51.7335 40.2245 51.8381 40.2115C51.9428 40.1853 51.9689 40.1199 51.8381 40.133C51.7074 40.1592 51.2889 40.1592 51.0797 40.0938C50.8835 40.0284 50.792 40.0153 50.7135 40.0545C50.622 40.0807 50.635 40.1853 50.7527 40.1853C50.8835 40.1853 51.1712 40.2245 51.2758 40.3161C51.3543 40.4076 51.3543 40.4076 51.2497 40.3684C51.132 40.3161 50.9227 40.3422 51.132 40.4992Z" fill="#00D860"/>
<path d="M52.8713 40.2533L52.832 40.3579C53.0805 40.3579 53.669 40.4102 53.8782 40.5279C54.0613 40.3841 54.0221 40.3318 54.1398 40.371C54.2705 40.4102 54.4536 40.4364 54.5321 40.4102C54.5915 40.3762 54.6619 40.3668 54.7282 40.3841C54.8067 40.3841 54.9898 40.3579 55.0813 40.3056C55.1859 40.2402 55.3952 40.1748 55.5129 40.1748C55.6175 40.1748 55.7744 40.1356 55.5521 40.0964C55.3429 40.0572 55.0028 40.1356 54.8982 40.1748C54.7675 40.2141 54.4405 40.2402 54.2444 40.2402C54.0482 40.2402 53.7736 40.3318 53.5513 40.2795C53.3159 40.2272 53.002 40.2533 52.8582 40.2533H52.8713Z" fill="#00D860"/>
<path d="M55.9594 40.1469C55.567 40.4346 55.0701 40.5 54.5078 40.5393C54.3378 40.5393 54.3901 40.5916 54.5339 40.6046C55.1355 40.67 55.8155 40.4477 56.0509 40.2123C56.1163 40.1339 56.1032 40.0292 55.9594 40.1339V40.1469Z" fill="black"/>
<path d="M53.2402 40.828C53.5639 40.8765 53.8831 40.9509 54.1949 41.0503C54.3518 41.0241 54.391 40.998 54.3649 40.9326C54.3256 40.8803 54.3126 40.828 54.5872 40.8541H55.568C55.6726 40.8149 55.8688 40.658 55.9603 40.658C55.7249 40.658 54.718 40.7103 54.6003 40.6972C54.4695 40.6972 54.4041 40.6972 54.3256 40.7495C54.2472 40.7887 54.2079 40.8149 54.1033 40.7626C53.9726 40.7233 53.8287 40.671 53.711 40.7495C53.6326 40.8018 53.4102 40.7495 53.2402 40.828Z" fill="#00D860"/>
<path d="M55.5677 40.8517C55.6593 40.8125 55.8685 40.6556 55.9601 40.6425C56.1431 40.6294 56.3262 40.6948 56.4178 40.721C56.5093 40.7471 56.614 40.721 56.5486 40.6425C56.4963 40.5771 56.5486 40.4333 56.8102 40.4725C57.0979 40.4986 57.2285 40.551 57.5032 40.5248C57.7778 40.4986 57.8825 40.6948 58.3794 40.4986C58.3533 40.6948 58.4447 40.7079 58.5363 40.6686C58.6278 40.6425 58.7324 40.6425 58.8894 40.7602C59.0594 40.891 60.0271 40.891 60.2494 40.8517C60.4848 40.8125 60.5894 40.9302 60.4194 40.9825C60.2494 41.0348 60.2102 41.1133 60.2494 41.1787C60.2886 41.231 60.3278 41.2964 60.1186 41.2702C59.8963 41.244 59.8571 41.3094 59.7655 41.3748C59.6609 41.4533 59.6348 41.5056 59.334 41.4402C59.0463 41.3879 58.9809 41.4271 58.824 41.4402C58.667 41.4664 58.6278 41.4794 58.4578 41.4271C58.2271 41.3441 57.9771 41.3304 57.7386 41.3879C57.5293 41.4664 57.3855 41.5187 57.1893 41.4664C56.9932 41.4271 56.9932 41.4402 57.1109 41.3356C57.2155 41.2048 57.2416 41.2048 57.477 41.1917C57.7124 41.1656 57.8694 41.1002 57.7256 41.0087C57.5556 40.9171 57.5163 40.9302 57.2939 41.0217C57.0847 41.1264 56.9801 41.2048 56.7316 41.074C56.4962 40.9433 56.3916 40.9563 56.2085 41.0087C56.0516 41.0479 55.7901 40.9433 55.5677 40.8517ZM56.3655 41.244C56.0516 41.2964 55.9731 41.1002 55.6593 41.1264C55.5547 41.1525 55.3716 41.2833 55.6201 41.2571C55.8685 41.244 56.1431 41.3748 56.3785 41.3617C56.6139 41.3487 56.5093 41.231 56.3785 41.244H56.3655ZM56.0254 41.4664C56.1693 41.4141 56.4962 41.5317 56.6532 41.5056C56.797 41.4794 56.9147 41.5579 56.7578 41.6233C56.6008 41.6756 56.2739 41.5317 56.1039 41.571C55.9601 41.6233 55.7901 41.5579 56.0124 41.4664H56.0254ZM52.8346 42.3425C53.0569 42.3425 53.8546 42.3033 54.1685 41.6494C54.1946 41.5971 54.2077 41.571 54.2993 41.6494C54.3908 41.7148 54.77 41.9241 55.4501 41.9894C55.6462 41.9894 55.8424 42.0941 55.4631 42.081C55.0708 42.0548 54.4693 41.9502 54.2731 41.8194C53.92 42.3556 53.3054 42.421 52.8346 42.4079C52.56 42.4079 52.6254 42.3295 52.8346 42.3425Z" fill="#00D860"/>
<path d="M54.546 41.4302C54.4414 41.574 54.0753 41.8225 53.9183 41.8486C53.7483 41.8486 53.2383 41.8225 53.1206 41.7702C52.9898 41.731 52.846 41.7309 53.016 41.8617C53.2561 41.9917 53.5282 42.0507 53.8006 42.0317C54.0099 41.9925 54.206 41.9271 54.3499 42.0317C54.4806 42.1102 54.7422 42.2671 54.8991 42.241C55.056 42.2017 55.3568 42.2017 55.4614 42.241C55.5661 42.2933 55.7361 42.4502 55.4745 42.3717C55.213 42.2802 55.0037 42.3456 54.886 42.2933C55.0168 42.4764 55.3176 42.7771 55.5661 42.7771C55.6314 42.7771 55.6838 42.8948 55.5661 42.9471C55.6707 42.9994 55.9584 43.0648 56.1284 42.9079C56.0761 42.9733 56.1022 42.9994 56.1676 43.0256C56.233 43.0517 56.3115 43.1041 56.1938 43.1302C56.063 43.1564 55.8014 43.1694 55.723 43.1302C55.9845 43.3002 56.6384 43.5748 57.3315 43.431C57.4622 43.4179 57.5407 43.3525 57.3315 43.3656C56.8738 43.3656 56.8476 43.3656 56.7692 43.3264C56.6907 43.2741 56.7169 43.2348 56.8476 43.1956C57.0319 43.1481 57.2201 43.1174 57.4099 43.1041C57.5407 43.1041 57.6846 43.0648 57.4099 43.0648C57.1484 43.0648 56.8084 43.0648 56.6645 43.0125C56.5338 42.9733 56.4422 42.8948 56.5861 42.8033C56.7169 42.7117 56.8607 42.7379 56.9261 42.6725C56.4945 42.6725 55.9584 42.411 56.2461 42.2017C56.3115 42.1625 56.2984 42.1494 56.1938 42.1363C55.9915 42.0965 55.7943 42.0352 55.6053 41.9533C55.4745 41.8879 55.553 41.8094 55.6707 41.7833C55.4091 41.8225 54.886 41.6917 54.546 41.4433V41.4302ZM58.443 41.4302C58.2076 41.6002 57.7499 41.6917 57.5538 41.6917C57.3707 41.6917 57.3315 41.744 57.4884 41.7571C57.6453 41.7702 57.8153 41.8094 57.8807 41.7833C57.9461 41.7571 57.9984 41.7571 58.09 41.8094C58.2512 41.8632 58.4256 41.8632 58.5869 41.8094C58.7831 41.7571 59.0708 41.7309 59.2015 41.7309C59.3323 41.744 59.4631 41.744 59.2015 41.6786C58.9661 41.6133 58.5477 41.6525 58.443 41.6786C58.3515 41.7048 58.0769 41.6786 58.2207 41.6525C58.3646 41.6133 58.4823 41.5217 58.5607 41.4694L58.443 41.4302ZM58.3123 41.9533C58.0798 42.1264 57.8034 42.2306 57.5146 42.254C57.7761 42.3587 58.0115 42.6464 58.1946 42.6202C58.103 42.6856 57.9984 42.751 57.8938 42.7771C58.1372 42.8182 58.3874 42.7719 58.6 42.6464C58.9923 42.751 59.5154 42.6725 59.6854 42.5156C59.4238 42.5156 59.1231 42.4371 58.9792 42.3063C59.11 42.3063 59.2277 42.241 59.28 42.1625C58.9792 42.2148 58.4954 42.071 58.3253 41.9271L58.3123 41.9533Z" fill="#00D860"/>
<path d="M57.8896 42.7624C57.9942 42.7624 58.1119 42.6839 58.1904 42.6316C57.6832 42.6679 57.1771 42.5494 56.7388 42.2916C56.4511 42.0431 56.4511 42.2393 56.6473 42.4093C56.8127 42.5651 57.0127 42.6797 57.231 42.7433C57.4492 42.8069 57.6794 42.818 57.9027 42.7754L57.8896 42.7624ZM58.5958 43.3771C58.4781 43.4425 57.9027 43.4948 57.7196 43.4425C57.5235 43.4032 57.4581 43.4163 57.4842 43.5079C57.5235 43.5863 57.5627 43.6385 57.4058 43.6124C57.229 43.6045 57.0521 43.6267 56.8827 43.6778C56.7519 43.7039 56.6211 43.8086 56.8565 43.7694C57.105 43.7432 57.3142 43.6908 57.5104 43.7301C57.6804 43.7693 58.3081 43.7824 58.4258 43.7301C58.5566 43.6778 58.4781 43.6908 58.4258 43.6908C58.3604 43.6908 58.3343 43.6516 58.4258 43.5993C58.5173 43.5601 58.5696 43.4686 58.5958 43.3771ZM53.0641 42.6185C52.6551 42.7609 52.2353 42.8702 51.8087 42.9454C51.5472 43.0631 51.338 43.1285 51.2072 43.1285C51.2987 43.207 51.6649 43.2855 51.7957 43.2463C51.7172 43.3379 51.5341 43.4162 51.4687 43.4685C51.691 43.4293 51.9264 43.4948 52.0441 43.5079C51.7755 43.6512 51.4714 43.7147 51.168 43.6908C51.2464 43.7693 51.338 43.8608 51.4556 43.8608C51.2217 43.9287 50.9746 43.9377 50.7364 43.887C50.8149 44.0178 50.8672 44.0962 50.9718 44.1224C50.7495 44.1355 50.4879 44.1747 50.2656 44.0439C50.4356 44.2793 50.8149 44.3447 51.3903 44.2793C51.9657 44.2139 52.4364 43.9655 52.5672 43.8608C52.3318 43.887 52.0049 43.9001 51.861 43.8608C52.2574 43.7553 52.6364 43.5923 52.9857 43.3771C52.8544 43.3763 52.7267 43.3351 52.6195 43.2593C52.9715 43.2769 53.3241 43.2416 53.6657 43.1547C53.4809 43.1149 53.3177 43.0077 53.208 42.854C53.9316 43.0626 54.6964 43.0851 55.4311 42.9194C55.5357 42.8932 55.5357 42.7493 55.3396 42.7754C54.9734 42.8016 54.2542 42.697 54.058 42.6054C54.2141 42.7166 54.3927 42.7925 54.5811 42.8277C54.2542 42.9324 53.7703 42.9977 53.0641 42.6054V42.6185Z" fill="#00D860"/>
<path d="M51.4701 43.47C51.5355 43.4177 51.7316 43.3392 51.797 43.2477C51.6532 43.2869 51.3001 43.2084 51.2085 43.1169C51.3393 43.1169 51.5485 43.0646 51.8101 42.9469C51.3393 42.9338 51.0255 42.9338 50.8293 42.8292C50.6462 42.7246 50.3454 42.7769 50.2147 42.803C50.0839 42.8161 50.1362 43.0253 50.6462 42.973C50.3348 43.1125 49.9893 43.158 49.6523 43.1038C49.7047 43.2869 49.7439 43.4569 49.6916 43.5615C49.9662 43.7184 50.6985 43.9146 51.0647 43.8884C50.7378 43.7707 50.5677 43.64 50.8293 43.6007C51.0908 43.5746 51.2478 43.5223 51.4832 43.47H51.4701Z" fill="#00D860"/>
<path d="M50.6465 44.333C51.2742 44.2807 52.1373 44.2676 52.8173 43.6792C52.9873 43.5484 53.105 43.6007 52.935 43.7445C52.333 44.2118 51.6034 44.4853 50.8427 44.5292C50.4896 44.5292 50.3326 44.3592 50.6465 44.3199V44.333Z" fill="black"/>
<path d="M55.4096 43.2863C55.172 43.3575 54.9252 43.3928 54.6773 43.3909C54.5337 43.359 54.3842 43.3681 54.2457 43.417C54.1411 43.4824 54.128 43.5478 54.2719 43.5478L54.7034 43.574C54.6116 43.6214 54.5311 43.6883 54.468 43.7701C54.7034 43.7178 55.0827 43.8094 55.2004 43.8747C55.1555 43.8841 55.1091 43.8843 55.0642 43.8753C55.0193 43.8663 54.9766 43.8483 54.9388 43.8224C55.2919 44.2148 56.3642 44.2148 56.5342 44.1363C56.4558 44.2017 56.3773 44.2671 56.3119 44.2671C56.5996 44.3324 56.9396 44.3194 57.2927 44.1363L56.7435 44.1101C56.8167 44.0375 56.9065 43.9837 57.005 43.9532C56.8742 43.9271 56.4558 43.9401 56.3511 43.9924C56.3901 43.8986 56.459 43.8204 56.5473 43.7701C56.0242 43.7701 55.3834 43.7701 55.1611 43.6394C55.5142 43.6917 55.9327 43.4694 56.1027 43.4694C55.815 43.4694 55.5011 43.404 55.4227 43.2732L55.4096 43.2863ZM54.0888 43.5478C53.8272 43.6132 53.4349 43.7309 53.3172 43.7832C53.2126 43.8486 53.108 43.8747 53.3303 43.8747C53.3565 43.8702 53.3826 43.866 53.4088 43.8617C53.3172 43.8617 53.2126 43.8617 53.3957 43.7963C53.5657 43.744 53.788 43.6263 54.0757 43.574L54.0888 43.5478ZM53.5657 44.1886C53.6572 44.1886 54.0496 44.1886 54.2196 44.0578C54.3765 44.1624 54.7034 44.3455 54.8996 44.3455C55.1088 44.3455 55.0827 44.3978 54.8996 44.424C54.6483 44.4159 54.404 44.339 54.1934 44.2017C53.958 44.2932 53.7619 44.2148 53.5395 44.1886H53.5657ZM50.4795 45.9802C50.9026 46.167 51.3734 46.2173 51.8264 46.124C52.0618 46.3202 52.5195 46.3333 52.768 46.281C53.0295 46.2286 53.2518 46.2025 53.5395 46.281C53.8011 46.3856 54.3765 46.3986 54.5465 46.5294L54.0103 46.5425C53.9319 46.5686 53.9711 46.6079 54.1149 46.6733C53.5959 46.6683 53.0854 46.8039 52.6372 47.0656C52.7043 46.9145 52.8146 46.7867 52.9542 46.6983C53.0939 46.6099 53.2566 46.5648 53.4219 46.5687C53.1865 46.4902 52.4149 46.4771 52.1534 46.634C52.0839 46.5584 52.0304 46.4694 51.9964 46.3725C51.591 46.5948 50.7933 46.2548 50.4664 45.9802H50.4795ZM49.4333 45.2217C49.7798 45.1927 50.1109 45.0657 50.3879 44.8555C50.4795 44.934 50.8456 45.0125 51.238 44.8948C51.1595 44.9471 51.1464 45.0648 51.1726 45.1171C50.8568 45.1464 50.5478 45.2258 50.2572 45.3525C50.1002 45.4309 49.6033 45.4963 49.4464 45.4048C49.2895 45.3263 49.2895 45.2479 49.4202 45.2217H49.4333Z" fill="#00D860"/>
<path d="M51.1722 45.1287C50.8565 45.1579 50.5475 45.2375 50.2568 45.364L50.3222 45.5864C50.9719 45.4008 51.649 45.3299 52.323 45.3771C52.1138 45.3902 51.7346 45.6125 51.5253 45.6256C52.0484 45.5864 52.5453 45.691 52.6761 45.7302C52.8069 45.7564 52.8461 45.861 52.7415 45.9656C52.6369 46.0833 52.5977 46.0571 52.8069 46.0833C53.0161 46.0833 53.4608 46.0441 53.6569 45.8479C53.5654 45.7694 53.3692 45.8087 53.3038 45.7302C53.4359 45.6881 53.5566 45.6166 53.6569 45.521C53.4556 45.5262 53.2542 45.5131 53.0554 45.4817C52.9507 45.4556 52.8592 45.4164 53.003 45.3379C53.1019 45.2898 53.1906 45.2232 53.2646 45.1417C53.003 45.2071 52.5977 45.2725 52.2446 45.011C52.3753 45.0371 52.6761 45.011 52.7807 44.9717C52.694 44.9154 52.5956 44.8797 52.493 44.8671C52.7546 44.7363 53.2777 44.6186 53.9708 44.8802C54.2812 44.8566 54.5933 44.8742 54.8992 44.9325C55.03 44.8279 55.2393 44.5663 55.3569 44.514C54.5723 44.5663 53.16 44.4356 53.1992 44.0171C52.9377 44.3571 52.3492 44.5402 52.1007 44.4879C52.0746 44.5925 52.1792 44.7494 52.2707 44.8279C52.0092 44.8802 51.5515 44.9325 51.3422 44.8802C51.473 44.9979 51.6823 45.1025 51.813 45.1025C51.5515 45.1025 51.3946 45.1548 51.1722 45.1287Z" fill="#00D860"/>
<path d="M52.791 46.0727C53.0264 46.0727 53.4449 46.0465 53.6541 45.8504C53.5626 45.7719 53.3664 45.8111 53.301 45.7327C53.4331 45.6905 53.5538 45.619 53.6541 45.5234C54.2295 45.4711 54.7134 45.4973 54.9618 45.4319C55.1972 45.3665 55.8119 45.3927 55.9295 45.3665C55.3934 45.4581 55.2888 45.4973 55.2757 45.5888C55.2495 45.6804 55.4326 45.7327 55.5634 45.7327C55.3411 45.7327 55.0272 45.9811 54.988 46.0858C54.6741 45.9027 54.5434 46.1119 54.4911 46.1904C54.3603 46.1381 53.9157 46.1511 53.6933 46.3473C53.4056 46.2558 53.2095 46.2165 52.9087 46.2558C53.1049 46.2165 53.0656 46.0858 52.8041 46.0727H52.791ZM55.3411 44.5034C55.5242 44.5034 55.9165 44.5296 56.0603 44.5034C55.9728 44.5461 55.8931 44.6036 55.8249 44.6734C56.2826 44.6211 56.8973 44.5819 57.0803 44.6211C56.8449 44.5819 56.6226 44.7388 56.5049 44.8042C56.4003 44.8696 56.4657 44.9219 56.6226 44.935C56.7796 44.9611 56.9757 45.0657 56.7011 45.0396C56.4396 45.0134 55.8642 45.0004 55.7334 45.0134C55.6026 45.0396 55.5242 44.9742 55.7334 44.935C55.8748 44.9138 56.0118 44.8696 56.1388 44.8042C55.9819 44.8434 55.6811 44.8434 55.5765 44.8042C55.4718 44.765 55.4326 44.7388 55.5372 44.6996C55.6549 44.6603 55.5765 44.6473 55.4588 44.6603C55.3411 44.6603 55.0665 44.7911 54.8964 44.935C55.0665 44.7519 55.2365 44.595 55.3411 44.5165V44.5034Z" fill="#00D860"/>
<path d="M53.3302 44.8176C53.4403 44.9446 53.5771 45.0456 53.7308 45.1134C53.8846 45.1812 54.0514 45.2142 54.2194 45.2099C54.2979 45.2099 54.481 45.3276 54.2587 45.3406C53.6964 45.3668 53.4217 45.223 53.1733 44.8699C53.121 44.7914 53.2125 44.6868 53.3302 44.8176ZM56.6649 40.1621C56.9526 40.2928 57.5411 40.4236 57.9988 40.4105C58.0903 40.4105 58.2341 40.489 58.038 40.5021C57.5515 40.5615 57.0586 40.4703 56.6257 40.2405C56.508 40.1751 56.5472 40.1098 56.6649 40.1621Z" fill="black"/>
<path d="M56.9493 40.1601C57.407 40.1601 57.747 40.1601 57.8647 40.2778C58.1262 40.2124 58.6101 40.1601 58.7016 40.1863C58.8063 40.2124 58.937 40.147 58.6886 40.0947C58.427 40.0424 57.8778 40.0163 57.6947 40.0555C57.5116 40.0817 56.9493 40.1078 56.7793 40.0817C56.8447 40.0817 56.897 40.1078 56.9493 40.1601ZM58.7016 40.3301C58.9109 40.2255 59.5255 40.3301 59.7086 40.2517C59.5778 40.4086 60.1401 40.4217 60.624 40.304C60.4409 40.4086 60.0355 40.4347 59.8655 40.5132C59.6955 40.5917 59.604 40.5263 59.4732 40.474C59.2331 40.3599 58.966 40.3146 58.7016 40.3432V40.3301Z" fill="#00D860"/>
<path d="M60.6225 40.304C60.1387 40.4086 59.5764 40.4086 59.7071 40.2517C59.5241 40.3301 58.9225 40.2255 58.7002 40.3301C58.9356 40.1994 59.0925 40.317 59.2494 40.0424C59.3541 40.0555 59.5894 40.0686 59.6679 39.964C59.7987 40.0032 60.0602 40.0555 60.1256 40.134C60.191 40.2124 60.2956 40.1078 60.2172 40.0032C60.4395 39.9247 60.2956 40.0947 60.8056 39.964C60.9233 39.9378 61.1718 39.8855 61.2633 39.8855C61.0635 40.0515 60.8439 40.192 60.6095 40.304H60.6225Z" fill="#00D860"/>
<path d="M51.2066 38.0661L51.1151 26.7151C51.1151 26.2051 50.8535 26.3228 50.8535 26.7151V37.9615L51.2066 38.0661ZM54.8944 26.1135L55.2998 38.0661L55.2475 38.1707H54.9859L54.7374 26.1135H54.8944ZM58.3729 36.2353L58.1637 26.5189C58.1637 26.2051 57.9021 26.2574 57.9021 26.5712L58.1114 36.2353H58.3729Z" fill="#FFFF00" stroke="black" stroke-width="0.0523088"/>
<path d="M52.8569 28.102L49.2738 28.0497C49.1168 28.7689 49.993 28.7036 50.2938 28.5728C50.6992 28.8213 51.013 28.8213 51.2092 28.5728C51.523 28.8213 51.9284 28.7689 52.0854 28.5728C52.4908 28.9259 52.9485 28.5728 52.8569 28.0497V28.102ZM53.1185 29.8413H49.5222C48.8684 30.4559 49.6792 30.7567 50.3984 30.3513C50.503 30.5605 50.9084 30.6521 51.2092 30.5082C51.523 30.7044 51.9284 30.5605 52.1246 30.3513C52.4908 30.5082 52.9485 30.5605 53.1577 29.8282L53.1185 29.8413ZM53.0008 32.1429H49.5222C49.483 32.7052 50.1892 32.6529 50.4376 32.496C50.6992 32.9144 51.3138 32.8098 51.523 32.5483C51.8761 32.8098 52.1769 32.7575 52.3338 32.5483C52.7 32.8621 53.0531 32.4436 53.0008 32.1429ZM53.2231 34.3921L49.2868 34.3398C49.0776 34.9937 49.6922 35.1114 49.9407 34.9545C50.0584 35.3076 50.5684 35.216 50.7253 34.9545C50.9215 35.1114 51.183 35.0068 51.2746 34.8498C51.3269 35.2029 51.7977 35.2552 52.1508 34.9545C52.87 35.4645 53.5239 34.8498 53.1708 34.3921H53.2231ZM56.6493 33.4767H53.4323C53.5762 34.0783 53.89 34.2352 54.4 33.8691C54.8054 34.2875 55.4201 34.1306 55.577 33.9344C56.2962 34.4968 56.6493 33.8298 56.6493 33.4114V33.4767ZM56.3355 31.2275L53.1708 31.1228C53.2231 31.9336 53.9946 31.8813 54.4 31.5805C54.6616 31.9336 55.1716 31.8421 55.4201 31.5805C55.7731 31.9859 56.4401 31.7375 56.3355 31.2275ZM56.7539 28.7166H53.3539C53.3539 29.279 54.1123 29.5797 54.6747 29.0697C54.8316 29.7367 55.4462 29.5274 55.7078 29.279C56.1001 29.789 56.9762 29.1743 56.7278 28.7559L56.7539 28.7166ZM56.5447 27.0166L53.4716 27.082C53.4716 27.592 54.1908 27.8012 54.4523 27.3828C54.6093 27.6443 55.1062 27.592 55.2631 27.3828C55.4724 27.7489 55.7862 27.4874 55.8778 27.3828C56.2439 27.6443 56.597 27.4874 56.5447 27.0297V27.0166ZM60.0755 28.1543L56.3878 28.102C56.3878 28.4551 56.7539 28.6251 57.0024 28.4551C57.0024 28.8736 57.5255 28.9782 57.8786 28.6643C58.0747 29.0174 58.7417 29.0697 59.0032 28.6643C59.5132 29.122 60.1278 28.7689 60.0232 28.1412L60.0755 28.1543ZM60.0232 31.1621H56.4401C56.4401 31.6852 57.0024 31.829 57.3555 31.5805C57.4209 31.9859 57.8786 32.0382 58.1401 31.7898C58.4932 32.1429 59.0032 32.1821 59.3171 31.7898C59.7094 31.9336 60.0755 31.5805 60.0232 31.1752V31.1621ZM59.814 33.8821H56.9501C56.9501 34.3921 57.5647 34.3921 57.8263 34.1437C58.127 34.4968 58.5455 34.4968 58.794 34.2352C59.1471 34.5491 59.7617 34.4445 59.814 33.8821Z" fill="white" stroke="black" stroke-width="0.0523088"/>
<path d="M55.2517 38.1861C53.7217 38.1861 52.1393 38.1861 51.067 38.0684C49.9947 37.9769 49.6808 37.7676 48.9223 37.3099L46.0323 35.5707C45.7838 35.466 45.5353 35.623 45.8884 35.8322L48.7523 37.7153C49.4046 38.1364 49.9907 38.6521 50.4916 39.2453C51.1062 39.9123 51.5116 39.9123 51.8124 39.8077C52.1262 39.7161 52.5316 39.5461 52.9893 39.6638C53.4078 39.7554 54.0094 39.8077 54.3232 39.7554C54.5848 40.0169 55.2386 39.9646 55.6048 39.86C55.9579 39.7554 56.2194 39.7554 56.4679 39.8077H57.344C57.6056 39.8077 58.2595 39.6638 58.7172 39.7161C59.2402 39.8077 59.6849 39.7161 59.9987 39.7161C60.3317 39.6297 60.6787 39.6119 61.0187 39.6638C61.3326 39.4546 61.4241 39.193 61.5418 38.9446C61.8426 38.8923 61.9341 38.84 61.9865 38.683L62.3003 37.8722H62.4049V37.5584L62.1957 37.2576L62.3003 36.7345L62.5618 36.643L62.4572 36.1199L57.9587 36.2376C57.7961 36.3863 57.6859 36.5835 57.6448 36.7999L56.3109 36.9961C56.1671 37.0484 56.0102 37.0484 55.8532 37.2576L55.2517 38.1861Z" fill="black" stroke="black" stroke-width="0.0523088"/>
<path d="M60.6244 36.1834L61.2783 33.6726C61.3829 33.411 61.1345 33.3718 61.0298 33.6726L60.376 36.1834H60.6244Z" fill="black" stroke="black" stroke-width="0.0523088"/>
<path d="M63.2296 33.3713C62.6673 33.6329 62.3665 33.7767 62.105 33.6721C61.8434 33.5675 61.5427 33.5152 61.3465 33.6198C61.3482 33.6373 61.3482 33.6547 61.3465 33.6721C61.1616 34.3224 60.9742 34.9719 60.7842 35.6206C61.1765 35.7775 61.9088 35.7775 62.0527 35.6206C62.2619 35.4114 62.7196 35.4637 62.9681 35.4637C63.125 35.2545 63.1773 35.006 63.125 34.9014C63.0727 34.7968 63.125 34.5483 63.125 34.3783C63.125 34.2475 63.3342 33.6721 63.2296 33.3713Z" fill="white" stroke="black" stroke-width="0.0523088"/>
<path d="M50.3451 28.5591C49.3532 31.1422 47.9729 33.5587 46.252 35.7254M47.272 36.34C49.5413 34.5096 51.5095 32.3341 53.1044 29.8929M49.5213 32.0899C49.3774 33.4761 48.9589 35.9215 48.7628 37.2031M50.0836 35.163C49.5736 35.6731 48.9066 36.4838 48.3574 36.9415M54.8437 32.3907C54.4383 32.8091 53.9806 33.3061 53.5098 33.4238M55.1052 32.5084C55.4799 32.9352 55.9504 33.2669 56.4783 33.4761M54.8437 30.2983C54.3989 30.692 53.8783 30.9902 53.3136 31.1745M55.0529 30.3376C55.3537 30.6383 55.7068 30.9914 56.1776 31.2137M53.4183 28.7029C53.9275 28.5508 54.3965 28.2873 54.7914 27.9313M54.9483 27.9313C55.3445 28.2975 55.8119 28.578 56.3214 28.7552M53.5098 27.0552C53.9908 26.9743 54.427 26.7238 54.7391 26.349M54.896 26.2444C55.2491 26.5582 55.916 26.9636 56.2822 27.0159M57.9168 27.4213C57.7076 27.6829 57.1453 28.0883 56.7922 28.0883M58.1653 27.4344C58.3222 27.6829 58.7276 28.0883 58.9892 28.0883M56.5306 31.1614C57.0814 30.9547 57.5747 30.6183 57.9691 30.1806M58.2307 30.2329C58.4732 30.6084 58.8001 30.9219 59.1853 31.1483M57.093 33.8161C57.3022 33.8161 57.8645 33.5022 58.0084 33.1622M58.3222 32.9922C58.6039 33.346 58.95 33.6434 59.3422 33.8684M49.7828 34.3261C50.4367 34.1169 51.7313 33.3061 52.3982 32.5345M51.169 33.5022C51.679 33.8684 52.3459 34.2869 52.8036 34.3784M49.6259 32.0768C50.0783 31.895 50.4946 31.6337 50.8551 31.3053M51.1167 31.253C51.2605 31.4622 52.3329 32.1291 52.8036 32.1291M50.8551 29.1214C50.4648 29.4183 50.033 29.6562 49.5736 29.8275M51.1167 29.1083C51.4698 29.3698 52.2413 29.8275 52.6859 29.8275M50.8682 27.0682C50.5674 27.369 50.0574 27.879 49.6389 28.036M51.1298 27.1206C51.3259 27.4736 51.9405 27.9837 52.3459 28.036M56.4391 29.3698C57.4199 31.0568 59.1461 33.1622 60.8853 34.2738M53.6929 27.4736C55.1183 29.5137 57.8776 33.973 60.5323 35.6077M61.0553 33.8684C60.3702 34.8006 59.519 35.5987 58.5445 36.2223M60.833 34.4307C59.9699 32.9922 59.5122 31.2137 58.793 28.8075M51.6398 35.15L52.6598 38.21M51.4305 35.0977L52.3982 38.1577M51.1821 34.9407L52.0975 38.1054M51.0774 34.993L51.7836 38.1054M51.7836 38.0139H52.6598M52.5552 37.7H51.7444M52.4505 37.4385H51.6398M52.3459 37.19H51.5221M52.1759 36.8892H51.5221M51.4698 36.6277H52.1236M51.4174 36.4185H52.0713M51.3651 36.1569H51.9798M51.3259 35.9608H51.8752M51.2605 35.6992H51.7836M51.2082 35.503H51.7313M51.169 35.3461H51.679M51.1559 35.15H51.6267M50.2928 35.15L49.6782 37.7M50.4497 35.15L49.9266 37.8046M50.6067 35.0453L50.1882 37.8569M50.8028 34.98L50.502 37.9616M50.8551 37.7523H49.8351M50.8551 37.4908H49.6782M50.8551 37.19H49.7828M50.8028 36.9285H49.8351M50.8551 36.6669H49.8874M50.8551 36.3661H49.992M50.8551 36.1046H49.992M50.8028 35.8561H50.0443M50.8028 35.5946H50.149M50.8028 35.3461H50.1882M50.8028 35.1892H50.2405M50.7636 38.0139V34.993M54.0721 33.973L52.0452 38.1185M54.2421 33.9338L52.5029 38.1708M54.3467 33.8815L52.9606 38.1708M54.5037 33.9861L53.379 38.1708M53.4313 38.0269H52.1498M53.5229 37.6085H52.3067M53.5752 37.3077H52.5552M53.7844 36.9939H52.7644M53.8367 36.6931H52.869M53.9414 36.3792H53.0259M54.0329 36.0261H53.2221M54.0852 35.7646H53.3267M54.1898 35.4638H53.4706M54.2552 35.2546H53.5752M54.2944 35.0584H53.5752M54.2421 34.8492H53.7321M54.2552 34.6923H53.7844M54.2944 34.4961H53.876M54.386 34.2869H53.9806M54.3729 34.1299H54.0198M55.7591 34.0776L56.6353 36.9546M55.916 34.1299L56.9883 36.9023L57.8122 34.1953M56.0729 34.1299L57.3545 36.85L57.9691 34.2869M57.6553 36.5885L56.2168 34.0776M57.6553 36.6408H56.6353M57.5507 36.2354H56.5306M57.4068 35.9215H56.426M57.1976 35.5684H56.3214M56.9883 35.2546H56.2299M56.7922 34.9015H56.1252M56.6353 34.5484H56.0206M56.426 34.2346H55.916M57.5507 34.2869L56.6353 36.9415M58.113 34.3915L57.603 36.7977M56.7399 36.6408H57.603M56.8445 36.34H57.7076M56.936 35.9738H57.7599M57.106 35.6731H57.8645M57.1976 35.3069H57.9168M57.3022 35.0061H57.9561M57.446 34.64H58.0607M57.5507 34.3392H58.0737M58.5315 34.3915L58.9238 36.2223M58.6753 34.2869L59.2376 36.1831M58.8845 34.2869L59.4992 36.1831M59.133 34.3915L59.7999 36.1831M59.7476 36.0261H58.8845M59.6561 35.7646H58.8322M59.5515 35.5161H58.7799M59.4338 35.2023H58.6753M59.2899 34.9407H58.5838M59.1984 34.6923H58.5445M59.1068 34.4307H58.4922" stroke="black" stroke-width="0.0523088"/>
<path d="M50.6904 39.1261C51.0958 38.8645 51.802 38.9038 52.1682 39.1784C52.5997 38.943 53.3713 39.0083 53.7243 39.3352C54.2736 38.9429 54.7313 38.8907 55.2544 39.2568C55.486 39.1032 55.7587 39.0234 56.0366 39.028C56.3145 39.0328 56.5843 39.1216 56.8106 39.283C57.2944 39.0606 57.8175 38.8776 58.2752 39.3615C58.0532 39.212 57.788 39.1399 57.5208 39.1564C57.2536 39.1729 56.9994 39.2772 56.7975 39.453C56.3398 38.9953 55.529 39.1653 55.2544 39.4922C55.1581 39.3877 55.0409 39.3049 54.9102 39.249C54.7796 39.1931 54.6386 39.1655 54.4966 39.1679C54.3546 39.1704 54.2147 39.203 54.0861 39.2633C53.9574 39.3237 53.8431 39.4106 53.7505 39.5184C53.2666 39.1261 52.5605 39.0999 52.1812 39.3876C51.9698 39.2318 51.7252 39.1271 51.4666 39.0817C51.2079 39.0363 50.9422 39.0515 50.6904 39.1261Z" fill="#00B800"/>
<path d="M57.9475 38.5525C55.842 38.9186 51.2258 38.6833 50.2319 38.4086C49.8788 38.3302 49.9704 38.1994 50.2711 38.2779C51.435 38.5394 53.9197 38.5394 55.2797 38.4609L56.0905 37.3494C56.2213 37.1794 56.2736 37.1663 56.5482 37.1271L57.6859 36.9309V37.0878C57.6598 37.1271 57.6336 37.1663 57.5944 37.1794C57.5944 37.4409 57.6467 38.1079 57.7121 38.3563L57.8559 38.3171C57.9475 38.2909 58.039 38.5394 57.9475 38.5525Z" fill="#CF6200"/>
<path d="M61.4144 38.6554H61.7022C61.7807 38.6554 61.9115 38.59 61.9507 38.4592L62.2384 37.6353L62.0161 37.3084L62.1338 36.6153L62.3953 36.4976C62.4215 36.4584 62.3953 36.2884 62.343 36.2361L58.2106 36.3669C58.0798 36.3669 58.0275 36.3669 57.9883 36.5369C57.8662 37.0899 57.8993 37.6659 58.0838 38.2012C58.2685 38.7367 58.5975 39.2106 59.0345 39.5708C59.0999 39.6231 59.1914 39.5708 59.0737 39.4792C58.8529 39.2579 58.6636 39.007 58.5114 38.7338H59.1913C59.2436 38.9561 59.4136 39.4138 59.4528 39.5054C59.479 39.5969 59.5576 39.5969 59.5053 39.4662C59.4268 39.2046 59.3745 38.8777 59.3353 38.7208H60.0283L60.0806 39.4008C60.0806 39.4923 60.1591 39.4923 60.1591 39.3877V38.7077L60.7868 38.6815L60.7345 39.3615C60.7214 39.4792 60.7737 39.5185 60.7999 39.3615L60.8913 38.6815L61.323 38.6554C61.323 38.8123 61.1791 39.2308 61.1399 39.3354C61.1007 39.4662 61.1661 39.4662 61.2053 39.3485C61.2951 39.1284 61.3651 38.9009 61.4144 38.6684V38.6554Z" fill="#CF6200"/>
<path d="M58.3896 38.55C58.3243 38.4062 58.0889 37.8831 58.0758 37.5038H58.9912C59.0173 37.7785 59.0958 38.3931 59.1481 38.5369L58.3896 38.55ZM59.1481 37.4777C59.1612 37.7131 59.2789 38.4585 59.305 38.5239H60.0374L59.9851 37.4646L59.1481 37.4777ZM58.115 36.5623C58.0826 36.8226 58.0738 37.0852 58.0889 37.3469L58.965 37.3077L58.8866 36.5361L58.115 36.5623ZM59.0697 36.5361L59.122 37.3208L59.9851 37.2946L59.9458 36.51L59.0697 36.5361ZM60.1158 36.4969L60.142 37.2815L60.8874 37.2684C60.8874 37.0984 60.9266 36.5884 60.9135 36.4707L60.1158 36.4969ZM61.0574 36.4707L61.0312 37.2554L61.842 37.2292C61.8813 37.0592 61.9597 36.6146 61.9597 36.4446L61.0574 36.4707ZM61.8813 37.4123L61.0182 37.4384L60.9397 38.4846L61.7636 38.4585C61.8794 38.2032 61.9798 37.9412 62.0643 37.6738C61.9989 37.5431 61.9466 37.5038 61.8813 37.4123ZM60.142 37.4646L60.1681 38.5108L60.7958 38.4846L60.8743 37.4384L60.142 37.4646ZM56.6111 37.2554L56.2711 37.3077C56.0072 37.6988 55.7325 38.0826 55.4473 38.4585L56.6634 38.4323L56.6242 37.2554H56.6111ZM56.7681 37.2161L56.8204 38.4192L57.5527 38.3669L57.4219 37.1115L56.7681 37.2161Z" fill="black"/>
<path d="M53.2126 34.3923H49.2764V34.2877L53.1995 34.34L53.2126 34.3923ZM56.2857 31.2276C56.325 31.2276 56.325 31.2276 56.2857 31.2276L53.2126 31.1753C53.1603 31.1753 53.1603 31.1753 53.2126 31.1753H56.2857V31.2276ZM53.0164 32.0907C53.0557 32.0907 53.0557 32.143 53.0164 32.143H49.5248C49.4856 32.143 49.5248 32.0907 49.5248 32.0907H53.0164ZM53.108 29.8414C53.1603 29.8414 53.1603 29.8938 53.108 29.8938H49.4856C49.4333 29.8938 49.4333 29.8414 49.4856 29.8414H53.108ZM52.8464 28.0499C52.8988 28.0499 52.8988 28.1022 52.8464 28.1022H49.3156C49.2764 28.1022 49.3156 27.9976 49.3156 27.9976L52.8988 28.0499H52.8464Z" fill="black"/>
<path d="M56.2857 31.2276C56.325 31.2276 56.325 31.2276 56.2857 31.2276ZM56.2857 31.2276L53.2126 31.1753M56.2857 31.2276V31.1753H53.2126M53.2126 31.1753C53.1603 31.1753 53.1603 31.1753 53.2126 31.1753ZM53.2126 34.3923H49.2764V34.2877L53.1995 34.34L53.2126 34.3923ZM53.0164 32.0907C53.0557 32.0907 53.0557 32.143 53.0164 32.143H49.5248C49.4856 32.143 49.5248 32.0907 49.5248 32.0907H53.0164ZM53.108 29.8414C53.1603 29.8414 53.1603 29.8938 53.108 29.8938H49.4856C49.4333 29.8938 49.4333 29.8414 49.4856 29.8414H53.108ZM52.8464 28.0499C52.8988 28.0499 52.8988 28.1022 52.8464 28.1022H49.3156C49.2764 28.1022 49.3156 27.9976 49.3156 27.9976L52.8988 28.0499H52.8464Z" stroke="black" stroke-width="0.0523088"/>
<path d="M56.5341 27.0288L53.4609 27.0811" stroke="black" stroke-width="0.0523088"/>
<path d="M56.6874 28.7707C56.7397 28.7707 56.7397 28.7707 56.6874 28.7707H53.3527C53.3004 28.7707 53.3004 28.7707 53.3527 28.7707H56.6874ZM60.009 31.1246V31.1769H56.4259C56.3212 31.1769 56.3212 31.1769 56.4259 31.1769H60.0221L60.009 31.1246ZM60.009 28.1038C60.1136 28.1038 60.1136 28.1561 60.009 28.1561H56.3605C56.3082 28.1561 56.3082 28.1038 56.3605 28.1038H60.0482H60.009ZM56.622 33.4262C56.6743 33.4262 56.6743 33.4785 56.622 33.4785H53.3527V33.4262H56.622ZM59.7867 33.8839C59.839 33.8839 59.839 33.8839 59.7867 33.8839V33.8839Z" fill="black"/>
<path d="M56.6874 28.7707C56.7397 28.7707 56.7397 28.7707 56.6874 28.7707ZM56.6874 28.7707H53.3527M53.3527 28.7707C53.3004 28.7707 53.3004 28.7707 53.3527 28.7707ZM56.4259 31.1769H60.009V31.1246L60.0221 31.1769H56.4259ZM56.4259 31.1769C56.3212 31.1769 56.3212 31.1769 56.4259 31.1769ZM59.7867 33.8839C59.839 33.8839 59.839 33.8839 59.7867 33.8839ZM59.7867 33.8839H56.9228M60.009 28.1038C60.1136 28.1038 60.1136 28.1561 60.009 28.1561H56.3605C56.3082 28.1561 56.3082 28.1038 56.3605 28.1038H60.0482H60.009ZM56.622 33.4262C56.6743 33.4262 56.6743 33.4785 56.622 33.4785H53.3527V33.4262H56.622Z" stroke="black" stroke-width="0.0523088"/>
<path d="M62.4137 34.3915C62.4708 34.1552 62.4708 33.9086 62.4137 33.6722C62.3111 33.7021 62.2022 33.7021 62.0998 33.6722C62.0497 33.6342 61.9973 33.5993 61.9429 33.5676C61.9281 33.9027 61.862 34.2335 61.7467 34.5484C61.5898 34.5484 61.2236 34.5484 61.0798 34.4438L60.9229 34.9538C61.177 35.0099 61.4403 35.0099 61.6944 34.9538C61.6944 35.2546 61.6421 35.5161 61.4852 35.7254C61.7467 35.7254 62.0083 35.7254 62.0475 35.5684C62.2044 35.3592 62.2044 35.0454 62.2567 34.9015L62.5183 34.8492L62.7667 34.7446L63.1198 34.6923V34.3915L63.2244 34.1823L62.4137 34.4438V34.3915Z" fill="#EF072D" stroke="black" stroke-width="0.0523088"/>
<path d="M49.73 17.1061C49.3246 17.1061 48.3961 17.1061 48.2 17.2108C48.0431 17.3154 47.9907 17.3677 48.3046 17.42C48.6054 17.4723 49.1677 17.6815 49.4815 17.8254C49.7823 18.0346 49.9916 18.3485 49.9916 18.8454C49.8779 19.476 49.9644 20.1266 50.2388 20.7057C50.5131 21.2849 50.9616 21.7638 51.5216 22.0755C51.5739 22.1278 51.6262 22.167 51.5739 22.3763L51.417 22.9386C51.417 23.0432 51.3647 23.1478 51.5216 23.0955C51.3601 23.3738 51.1856 23.6443 50.9985 23.9063C50.1877 23.8147 49.4815 23.9063 49.4815 24.8217C49.4815 24.9394 49.4815 25.0309 49.5731 24.8217C49.73 24.6255 49.8869 24.4294 50.24 24.3248C50.0439 24.6778 49.9392 24.9786 49.9785 25.1879C49.9785 25.3448 50.0831 25.4494 50.1877 25.1879C50.24 24.9786 50.4493 24.7825 50.6062 24.6255C50.6977 24.5732 50.6977 24.5732 50.6454 24.7301C50.6234 24.9308 50.6796 25.1322 50.8023 25.2925C50.907 25.3971 50.9593 25.3448 50.907 25.1879C50.907 24.9786 50.907 24.6255 51.1685 24.534C51.4693 24.3248 51.7701 24.4163 51.8747 24.6255C52.0316 24.8871 52.1362 24.6255 51.9793 24.4163C51.8224 24.2201 51.6785 23.9586 51.4693 23.9586L51.9924 23.0955C51.9924 22.9909 52.0839 22.9386 52.1885 22.9909C52.1885 23.0432 52.2931 23.0432 52.3324 22.8863L52.6985 22.167L52.9993 22.0755L53.5224 22.834V23.1478C53.5224 23.344 53.3132 23.8017 53.2609 23.9586C52.6462 23.9586 52.3455 23.9586 52.1362 24.3248C52.0316 24.4686 52.1885 24.5209 52.3324 24.4686C52.4906 24.3742 52.6713 24.3245 52.8555 24.3248C52.947 24.3248 52.9993 24.4163 52.8555 24.4686C52.4893 24.6255 52.2408 24.8871 52.2408 25.2402C52.2408 25.3448 52.3324 25.3971 52.3847 25.2402C52.5343 24.989 52.7721 24.8025 53.0516 24.7171C53.0516 24.9786 53.1039 25.3971 53.3132 25.5017C53.457 25.5932 53.457 25.5017 53.4178 25.3448C53.3132 25.0832 53.4178 24.8217 53.5616 24.6778C53.8232 24.3771 54.4378 24.7825 54.5947 24.8871C54.6863 24.9786 54.7909 25.0309 54.6863 24.7301C54.634 24.3771 54.124 24.2071 53.6663 24.1155L54.2809 21.9709C54.5424 22.1278 54.804 21.7093 55.1963 21.8662C55.8828 22.1729 56.5358 22.5498 57.1448 22.9909C57.354 23.1478 57.4063 23.0955 57.4979 22.9909C57.6025 22.9386 57.7594 22.9909 57.9163 22.9909C58.0079 23.0432 58.1125 23.0955 57.9686 22.7816C57.6744 22.2458 57.252 21.792 56.7394 21.4608C57.1448 21.4608 57.6548 21.4608 57.6548 21.3562C57.6548 21.2516 57.0402 21.0424 56.7917 21.0424C57.0925 20.9875 57.3727 20.8519 57.6025 20.6501C57.7071 20.5324 57.6025 20.4801 57.1971 20.4801C56.1248 20.4801 55.5624 20.4801 55.0001 20.1793C54.0847 19.6562 53.5093 19.0546 53.0516 18.8454C52.8555 18.7016 52.6985 18.3877 52.5416 18.1392C52.2801 17.3546 52.2801 16.9623 51.6262 16.7007C50.9593 16.4392 50.0831 16.7531 49.73 17.1061Z" fill="black" stroke="black" stroke-width="0.0523088"/>
<path d="M49.7859 17.3138H48.9229L49.6813 17.523C49.8383 17.523 49.7859 17.6669 49.6813 17.6146C49.5767 17.5754 49.4852 17.6146 49.5767 17.7192C50.0998 18.0854 50.1913 18.2423 50.0998 19.6154L50.3483 19.8246C50.4529 19.8246 50.4006 19.9162 50.3483 19.8639C50.296 19.8246 50.0867 19.8639 50.2437 19.9685C50.4006 20.0731 50.5052 20.0731 50.3483 20.0731C50.1913 20.0731 50.0475 20.1777 50.3483 20.1254C50.6098 20.1254 50.7537 20.23 50.3483 20.2823C50.0475 20.2823 50.139 20.387 50.3483 20.387C50.7014 20.387 50.6098 20.4785 50.5052 20.4785C50.4006 20.4785 50.3483 20.5831 50.6098 20.5831H50.9629C51.0152 20.5831 51.0675 20.5831 50.9629 20.6354C50.8583 20.6354 50.8583 20.74 51.0152 20.74C51.1721 20.74 51.2768 20.74 51.1198 20.7923C51.0675 20.7923 50.9629 20.8447 51.1198 20.897C51.4729 20.897 51.5121 20.9885 51.4206 21.0408C51.316 21.0931 51.2637 21.0931 51.4206 21.0931C51.5775 21.0931 51.7345 21.1454 51.5775 21.1977C51.4729 21.1977 51.4206 21.3024 51.5775 21.3024C51.7345 21.3024 51.8391 21.407 51.7345 21.4593C51.6298 21.5116 51.5775 21.5639 51.7345 21.5639C51.8783 21.5639 51.9306 21.6031 51.826 21.6554C51.7345 21.7601 51.6821 21.7601 51.5644 21.6554C51.5644 21.5639 51.4729 21.5639 51.4729 21.6554L51.3683 21.5116C51.316 21.3547 51.2114 21.3547 51.2114 21.5116C51.2114 21.6554 51.1198 21.5639 51.0152 21.5116C51.2627 21.7953 51.598 21.988 51.9676 22.0591C52.3374 22.1302 52.7202 22.0756 53.0552 21.9039C53.1076 21.9039 53.1599 21.9039 53.2122 22.0739L53.513 22.6362C53.5653 22.7278 53.6699 22.6362 53.6699 22.5316L53.9837 21.6554C53.9837 21.5116 54.1799 21.3939 54.1276 21.8124C54.2845 21.7078 54.8991 21.6554 55.4091 21.8124C55.9022 22.0096 56.368 22.2688 56.7953 22.5839C56.8319 22.6122 56.8746 22.6316 56.9199 22.6407C56.9653 22.6497 57.0122 22.6483 57.0569 22.6362C57.1876 22.6362 57.253 22.6362 56.9915 22.3747C56.7299 22.1131 56.8476 22.0216 56.9915 22.1131C57.1484 22.2178 57.253 22.1655 57.0961 22.0216L56.5861 21.5639C56.5338 21.5639 56.5338 21.4593 56.2853 21.4593H55.5007C55.4091 21.4593 55.3045 21.4593 55.6184 21.5639C55.9192 21.6554 56.4815 22.0739 56.6384 22.1655C56.7953 22.2701 56.8476 22.4793 56.5861 22.2701C56.0035 21.8826 55.3914 21.5415 54.7553 21.2501C53.3691 21.407 52.2445 21.5639 51.4206 20.6877C51.0152 20.23 51.0152 19.2492 51.6821 18.8569C51.5775 18.7392 51.5775 18.6477 51.6298 18.6477V18.3338C51.5252 18.2815 51.4206 18.1769 51.4206 18.0723C51.2637 18.0723 51.1591 17.8238 50.9106 17.9284C50.649 18.0331 50.6098 17.9284 50.5052 17.8761C50.4529 17.7715 50.4006 17.7715 50.2437 17.7715C50.0867 17.7715 49.9821 17.7715 49.9821 17.6669C49.9821 17.5754 50.0867 17.5754 50.296 17.6669C50.649 17.8238 50.9498 17.9284 51.2114 17.5754C51.4206 17.2615 51.1198 17.013 50.7014 16.9084C50.2437 16.8038 49.9429 17.17 49.7336 17.3138H49.7859Z" fill="white" stroke="black" stroke-width="0.0523088"/>
<path d="M52.0337 17.1582C51.8826 17.0221 51.7043 16.9196 51.5106 16.8574C51.3798 16.8574 51.3798 16.962 51.4191 17.0143V17.3151C51.5237 17.3674 51.576 17.4721 51.4191 17.4721C51.3144 17.5767 51.4191 17.9298 51.576 17.8251H51.6806C51.6806 17.8251 51.6806 17.9821 51.7721 17.9821C51.8768 17.9821 51.7721 18.0867 51.7721 18.139H51.8768C51.9814 18.139 51.9291 18.3351 51.8245 18.4005C51.9814 18.4005 52.0337 18.4005 52.0337 18.4921C52.086 18.5967 52.2429 18.649 52.2429 18.7928C52.2429 18.9498 52.2429 18.9498 52.0337 18.8975C51.8245 18.8452 51.8245 18.8975 51.7721 19.0021C51.7329 19.1067 51.6806 19.159 51.7721 19.159C51.8768 19.159 51.9814 19.2113 51.8245 19.2636C51.6806 19.3029 51.5237 19.2636 51.4714 19.4075C51.4714 19.5644 51.4714 19.6167 51.576 19.5644L51.9291 19.3552L52.1906 19.4075C52.2952 19.4598 52.1906 19.669 52.086 19.5644C51.9814 19.4598 51.8768 19.5644 51.8245 19.6167L51.5629 19.7213C51.4714 19.7213 51.3668 19.7213 51.4321 19.9829C51.4321 20.689 51.9814 21.1991 53.0014 21.1991H54.7014C54.3876 20.9898 54.1784 20.8983 54.0214 20.8983H53.8776C53.9299 20.846 53.8776 20.7414 53.8253 20.7414C53.773 20.7414 53.6683 20.6367 53.5637 20.7414L53.0537 21.0029C52.9491 21.0029 52.7922 21.0029 52.9491 20.8983L53.4199 20.689C53.5114 20.689 53.4591 20.5844 53.4591 20.5844C53.4591 20.5844 53.4591 20.4275 53.616 20.4798C53.9299 20.689 54.3876 20.9506 54.5314 20.9506C54.6884 20.9506 54.7407 20.846 54.6361 20.7937C54.5445 20.7414 54.4922 20.6367 54.4922 20.5844C54.4922 20.5321 54.5445 20.4798 54.7538 20.5844C54.9499 20.7414 55.2507 20.846 55.4076 20.8983C55.5645 20.9506 55.6692 20.9506 55.4076 20.7937L54.2307 19.9175C54.0737 19.7736 54.0737 19.9175 54.126 20.0221C54.1784 20.1267 53.9822 20.179 53.8645 20.0744C53.773 19.9698 53.7207 19.9175 53.8645 19.8652C54.0214 19.8259 53.9822 19.7736 53.8253 19.6036C53.616 19.4729 53.5637 19.4729 53.616 19.6036C53.6683 19.7736 53.6683 19.8652 53.5114 19.8259C53.3676 19.7736 53.2106 19.669 53.3676 19.6167C53.4591 19.5121 53.6291 19.4598 53.3676 19.3029C53.106 19.159 53.2629 19.3029 53.2106 19.4075C53.1583 19.5121 53.0014 19.5121 52.9491 19.4075C52.8968 19.3029 52.8052 19.2636 52.8576 19.2113C52.8968 19.159 52.8968 19.1067 53.0014 19.2113C53.106 19.3029 53.2106 19.2113 53.0537 19.0544C52.8968 18.8975 52.8576 18.9498 52.8968 19.0544C52.9491 19.159 52.8052 19.2636 52.596 19.0544C52.4914 19.0021 52.4914 18.8975 52.596 18.8452C52.7006 18.8452 52.7006 18.7928 52.596 18.7013C52.2429 18.0867 52.3868 17.6159 51.9814 17.1582H52.0337Z" fill="white" stroke="black" stroke-width="0.0523088"/>
<path d="M52.0487 17.2629C52.0225 17.3152 52.0095 17.3021 51.9441 17.3544C51.8787 17.4067 51.8525 17.5506 51.9833 17.5375C52.0194 17.5337 52.0543 17.5224 52.0858 17.5044C52.1174 17.4864 52.1448 17.4621 52.1664 17.4329C52.1366 17.3732 52.1015 17.3163 52.0618 17.2629H52.0487ZM51.6564 16.9229C51.5387 17.0275 51.5256 17.0798 51.5779 17.0798C51.6433 17.0798 51.6171 17.0798 51.5779 17.1582C51.5256 17.2236 51.6564 17.2629 51.7087 17.1975C51.7741 17.1452 51.7741 17.1321 51.8002 17.1975C51.8133 17.2629 51.931 17.1975 51.9702 17.1582C51.8787 17.0667 51.7479 16.9882 51.6433 16.9229H51.6564ZM51.4602 17.4982C51.3294 17.5636 51.3687 17.9167 51.5779 17.8121C51.6433 17.7859 51.6956 17.8121 51.6956 17.8513V17.9429C51.7805 17.9078 51.8565 17.8542 51.9179 17.7859C52.0356 17.629 51.9179 17.6552 51.7348 17.6552C51.5518 17.6552 51.5125 17.6159 51.6825 17.5113C51.8394 17.4067 51.7218 17.3544 51.5125 17.3806C51.5387 17.4198 51.5256 17.459 51.4602 17.4982ZM52.2318 18.2829C52.1271 18.1652 52.1925 18.126 52.2972 18.0606C52.3177 18.0521 52.3357 18.0386 52.3495 18.0213L52.2579 17.6813C52.2187 17.7075 52.1533 17.8252 52.1271 17.8775C52.101 17.969 52.0748 18.0213 51.9964 18.0083C51.9048 17.969 51.8264 18.0606 51.8133 18.1521H51.8787C51.9048 18.1652 51.9179 18.2306 51.9048 18.2829C52.1533 18.2829 52.1925 18.4267 52.2318 18.5444C52.2841 18.6752 52.3233 18.6621 52.3625 18.5837C52.4018 18.5052 52.3233 18.3875 52.2318 18.2829Z" fill="#CF6200"/>
<path d="M52.2941 19.6665C52.2418 19.7712 52.2418 19.7581 52.098 19.7581C51.9672 19.7712 51.7841 19.7973 51.7057 19.8758C51.6664 19.915 51.418 19.9412 51.418 20.0458C51.418 20.1635 51.418 20.2419 51.5226 20.255C51.6272 20.255 51.6534 20.2812 51.6141 20.3596C51.5618 20.4381 51.5357 20.5558 51.7187 20.5819C51.9018 20.5819 52.0457 20.5427 52.0849 20.6342C52.1372 20.765 52.0849 20.9089 52.1241 20.9873C52.1503 21.0527 52.2811 21.0789 52.4772 21.1443C52.608 21.1704 53.1049 21.2096 53.2619 21.1835C53.3926 21.1573 53.3403 21.0789 53.1965 21.0789C53.0395 21.0527 52.9349 21.0266 52.8957 20.9219C52.8565 20.8043 52.8303 20.7519 52.9218 20.6604C53.0003 20.5558 53.0788 20.4904 53.0265 20.3335C52.9872 20.1896 52.8957 20.0065 52.7257 19.9542C52.5557 19.9019 52.608 19.6535 52.4249 19.6404C52.3595 19.6404 52.3203 19.6404 52.2941 19.6665Z" fill="#FFFF00"/>
<path d="M51.4308 21.1056C51.5877 21.1317 51.7054 21.1709 51.5877 21.2102C51.47 21.2494 51.3916 21.3148 51.5485 21.3279C51.7054 21.3279 51.8493 21.4063 51.7185 21.4325C51.5877 21.4717 51.5877 21.5633 51.7316 21.5633C51.8754 21.5633 51.9539 21.6156 51.8493 21.694C51.7316 21.7463 51.6662 21.7856 51.5877 21.681C51.5223 21.5633 51.4831 21.5502 51.47 21.6156C51.4439 21.694 51.4046 21.6417 51.3523 21.524C51.3131 21.4194 51.1954 21.3671 51.2215 21.4586C51.2608 21.5502 51.1431 21.5763 51.0254 21.524C51.1328 21.6496 51.2612 21.7558 51.4046 21.8379C51.5616 21.7856 51.7446 21.8379 51.7969 21.8379C51.8754 21.8379 52.0716 21.8902 52.1893 21.9556C52.307 22.0079 52.3854 21.9033 52.3331 21.7856C52.2808 21.6548 52.2808 21.694 52.2285 21.7856C52.15 21.8379 52.15 21.7463 52.15 21.6025C52.15 21.4979 52.0716 21.511 52.0585 21.5894C52.0323 21.6548 51.9669 21.5371 51.9931 21.4717C52.0323 21.4063 51.9931 21.3671 51.9408 21.3933C51.8754 21.4194 51.8754 21.3933 51.8623 21.2625C51.8493 21.1186 51.7969 21.1317 51.7839 21.1971C51.7708 21.2494 51.7054 21.1709 51.6139 21.0663C51.5485 20.9879 51.4831 21.0402 51.3392 21.0794L51.4308 21.1056Z" fill="#CF6200"/>
<path d="M53.0443 21.9427C52.3251 22.2304 51.802 22.0997 51.4097 21.8381C51.5666 21.7858 51.7497 21.8381 51.8151 21.8381C51.8805 21.8381 52.0897 21.8904 52.1943 21.9558C52.2989 22.0081 52.3905 21.9035 52.3382 21.7858C52.4297 21.9166 52.5082 21.995 52.6259 21.982L53.0443 21.9427ZM51.5012 18.5688C51.4489 18.4119 51.4097 18.3857 51.3312 18.3988C51.2528 18.3988 51.2135 18.3857 51.122 18.3465C51.0435 18.3073 50.9258 18.3465 50.9127 18.5165C50.8866 18.6865 50.782 18.7519 50.6512 18.8565C50.5204 18.9481 50.455 19.0265 50.455 19.1965C50.455 19.3534 50.4158 19.3796 50.3243 19.5104L50.1804 19.6804L50.3373 19.7719C50.442 19.8242 50.4027 19.8896 50.3112 19.8635C50.2196 19.8373 50.115 19.8896 50.285 19.9158C50.442 19.955 50.5073 20.0465 50.3635 20.0465C50.1935 20.0073 50.0235 20.1512 50.3243 20.1119C50.625 20.0858 50.7297 20.2296 50.3897 20.2296C50.0366 20.2296 50.1673 20.3473 50.3635 20.3473C50.6904 20.3473 50.5858 20.4389 50.4943 20.4389C50.4158 20.4389 50.3766 20.5696 50.5989 20.5304L50.6774 20.3996C50.7166 20.295 50.7427 19.9942 50.8735 19.9027C50.9912 19.8242 51.0566 19.6804 51.0566 19.6019C51.0566 19.5234 51.2527 19.1181 51.3574 19.0265C51.4881 18.935 51.5404 18.7257 51.4881 18.5819L51.5012 18.5688Z" fill="#FFFF00"/>
<path d="M51.2396 18.5951C51.122 18.5035 50.9912 18.5689 50.9912 18.7258C50.9912 18.8566 50.9127 18.922 50.8081 18.9874C50.7495 19.0176 50.6981 19.0601 50.6576 19.112C50.6169 19.1639 50.588 19.224 50.5727 19.2882C50.5727 19.4189 50.5989 19.4843 50.5204 19.5889C50.4289 19.6805 50.4158 19.7589 50.4681 19.8243C50.5466 19.8766 50.5466 19.8766 50.5596 19.9551C50.5989 20.0336 50.7427 19.9551 50.7427 19.8636C50.7427 19.772 50.7819 19.772 50.8735 19.7197C50.9781 19.6674 51.135 19.4058 51.0958 19.3405C51.0696 19.2751 50.965 19.2097 51.0958 19.1182C51.2266 19.0135 51.3312 18.9874 51.3312 18.9089C51.3312 18.8043 51.3573 18.7781 51.3966 18.7389C51.4358 18.6997 51.3181 18.6474 51.2396 18.6081V18.5951Z" fill="#CF6200"/>
<path d="M51.2358 18.4661C51.1574 18.44 51.1051 18.61 51.2228 18.6361C51.3405 18.6623 51.3535 18.5184 51.2228 18.4792L51.2358 18.4661ZM51.2228 18.6884C51.1312 18.7015 51.0266 18.8192 51.1705 18.8192C51.3274 18.793 51.3797 18.6884 51.2097 18.6884H51.2228ZM51.0397 18.9107C50.9481 18.95 50.9743 19.0807 51.1051 18.9892C51.2358 18.8977 51.262 18.793 51.0397 18.9107ZM50.9089 19.0938C50.8174 19.133 50.8174 19.2638 50.9612 19.1723C51.092 19.0938 51.1312 18.9761 50.9089 19.0938Z" fill="black"/>
<path d="M50.7287 19.1833C50.6371 19.2226 50.6895 19.3403 50.8202 19.2618C50.951 19.1833 50.951 19.0656 50.7287 19.1833ZM50.8333 19.301C50.7287 19.3403 50.7941 19.458 50.9248 19.3795C51.0556 19.301 51.0556 19.1833 50.8202 19.301H50.8333Z" fill="black"/>
<path d="M50.6614 19.3428C50.583 19.3951 50.6353 19.4997 50.7791 19.4212C50.9099 19.3428 50.8968 19.2251 50.6614 19.3428ZM50.7791 19.4735C50.6745 19.5128 50.7268 19.6305 50.8707 19.552C51.0015 19.4605 51.0015 19.3558 50.7661 19.4735H50.7791Z" fill="black"/>
<path d="M50.6126 19.5513C50.5342 19.5905 50.5865 19.7082 50.7303 19.6297C50.8611 19.5513 50.8349 19.4336 50.6257 19.5513H50.6126Z" fill="black"/>
<path d="M50.6118 19.6552C50.5464 19.7076 50.5987 19.8383 50.7426 19.7468C50.8734 19.6552 50.8472 19.5506 50.6118 19.6552Z" fill="black"/>
<path d="M50.5558 20.7805C50.4643 20.7805 50.3989 20.9244 50.5166 20.9505C50.6343 20.9767 50.6605 20.9898 50.6605 21.0682C50.6605 21.1467 50.6997 21.2905 50.8174 21.2905C50.9482 21.2905 51.0528 21.1598 50.9482 21.1205C50.8305 21.0813 50.7389 21.0421 50.7258 20.9374C50.7258 20.8459 50.6212 20.7805 50.5558 20.7805Z" fill="#CF6200"/>
<path d="M53.8125 20.01L53.8779 20.0884C53.9694 20.1538 54.1394 20.0884 54.1002 20.0231C54.0871 19.9707 53.9956 19.7615 54.231 19.9184L55.4341 20.7685C55.6825 20.9515 55.5125 20.9777 55.4079 20.9123L54.7541 20.6115C54.5579 20.4938 54.5317 20.5461 54.4925 20.5723C54.4925 20.6115 54.4925 20.69 54.571 20.7554C54.4533 20.7685 54.2702 20.7554 54.2048 20.6246C54.1394 20.4677 53.9825 20.2846 53.8648 20.1407C53.8256 20.0884 53.8125 20.0492 53.8256 20.0231L53.8125 20.01Z" fill="#FFFF00"/>
<path d="M60.4168 41.7834C60.2468 41.9011 60.0245 42.0972 60.1683 42.3719L60.2206 42.3588C60.8585 41.5844 61.4232 40.7527 61.9076 39.8741V39.7957C61.7298 39.9416 61.5315 40.0605 61.3191 40.1487C61.3976 40.371 61.0183 40.6457 60.8353 40.7241C60.9137 40.8549 60.8876 41.0641 60.7045 41.1034C60.7437 41.208 60.6129 41.208 60.4429 41.2865C60.2991 41.3518 60.2206 41.3911 60.1683 41.4826C60.2468 41.4303 60.3776 41.3911 60.4299 41.4172C60.4822 41.4434 60.5083 41.5349 60.3906 41.5611C60.286 41.6003 60.2076 41.6526 60.1553 41.6918C60.3253 41.6526 60.5737 41.6657 60.4168 41.7834Z" fill="#00D860"/>
<path d="M52.5421 19.7721C52.3329 19.6152 52.2806 19.7198 52.3329 19.7721C52.3852 19.8244 52.3329 19.9682 52.189 20.0336H51.6659C51.5744 20.0336 51.4175 20.2298 51.6659 20.1644L52.4898 20.0336C52.5944 20.0336 52.699 19.9159 52.4898 19.7721H52.5421ZM52.8952 20.0729C52.7513 19.9159 52.699 19.9682 52.7513 20.0729C52.8036 20.1775 52.699 20.2298 52.5944 20.2298L51.8752 20.426C51.679 20.426 51.679 20.5829 51.9275 20.5829C52.189 20.5829 52.699 20.3213 52.7513 20.3213C52.8036 20.3213 52.856 20.1775 52.8952 20.2298C52.9475 20.2821 53.0521 20.2298 52.8952 20.0729ZM53.0521 20.4783L52.5421 20.7398C52.3852 20.7398 52.2806 20.8967 52.5421 20.8967C52.8036 20.8967 53.0652 20.6352 53.1567 20.5829L53.366 20.4783C53.366 20.4783 53.5621 20.4259 53.366 20.2821C53.1567 20.1252 52.9475 20.2821 53.0521 20.3344C53.1567 20.3867 53.0521 20.4783 53.0521 20.4783Z" fill="black" stroke="black" stroke-width="0.0523088"/>
<path d="M50.9602 17.1588C50.6332 16.9365 50.2802 17.3811 50.6332 17.6296C50.9471 17.8519 51.2871 17.368 50.9733 17.1588H50.9602Z" fill="black"/>
<path d="M50.5601 17.3518H50.6517C50.6517 17.4564 50.7432 17.6134 50.8871 17.5741C50.7694 17.6657 50.547 17.548 50.5601 17.3518ZM51.8155 22.1904C51.9202 22.2296 52.2602 22.2558 52.3909 22.2558L52.234 22.5435C52.1948 22.635 52.1817 22.6481 52.1686 22.5042C52.1686 22.3735 52.0902 22.2819 52.0248 22.4258L51.894 22.6873C51.8548 22.7396 51.8025 22.7527 51.8155 22.6088C51.8417 22.465 51.8286 22.3081 51.8155 22.1904Z" fill="white"/>
<path d="M64.6638 26.114C64.6638 34.4442 63.3299 43.4413 52.502 47.7306C41.7003 43.4413 40.3795 34.4442 40.3271 26.114H64.6638ZM64.6638 26.114C64.6638 22.9363 64.5069 19.8631 64.5592 17.2215C60.7124 15.7257 56.6161 14.9756 52.4889 15.0115C49.782 15.0115 44.4595 15.4169 40.4318 17.2085C40.5233 19.8631 40.3271 22.9363 40.3271 26.101L64.6638 26.114Z" stroke="black" stroke-width="0.156926"/>
<path d="M-10.4619 0H31.3851V31.3853H-10.4619V0Z" fill="#012169"/>
<path d="M-5.55796 0L10.3962 11.8349L26.285 0H31.3851V4.05393L15.6925 15.758L31.3851 27.3967V31.3853H26.1543L10.4616 19.6812L-5.16565 31.3853H-10.4619V27.4621L5.16535 15.8234L-10.4619 4.18471V0H-5.55796Z" fill="white"/>
<path d="M17.2618 18.3735L31.3851 28.7699V31.3853L13.6655 18.3735H17.2618ZM5.23073 19.6812L5.62305 21.9697L-6.93107 31.3853H-10.4619L5.23073 19.6812ZM31.3851 0V0.196158L15.104 12.4887L15.2348 9.61175L28.1158 0H31.3851ZM-10.4619 0L5.16535 11.5079H1.24218L-10.4619 2.74621V0Z" fill="#C8102E"/>
<path d="M5.29612 0V31.3853H15.7579V0H5.29612ZM-10.4619 10.4618V20.9235H31.3851V10.4618H-10.4619Z" fill="white"/>
<path d="M-10.4619 12.6195V18.8966H31.3851V12.6195H-10.4619ZM7.38847 0V31.3853H13.6655V0H7.38847Z" fill="#C8102E"/>
</g>
</g>
</g>
<defs>
<clipPath id="clip0_12589_5229">
<rect width="62.7706" height="62.7706" rx="31.3853" fill="white"/>
</clipPath>
<clipPath id="clip1_12589_5229">
<rect width="83.6941" height="62.7706" fill="white" transform="translate(-10.4619)"/>
</clipPath>
</defs>
</svg>
