<svg width="63" height="63" viewBox="0 0 63 63" fill="none" xmlns="http://www.w3.org/2000/svg">
<g clip-path="url(#clip0_12589_5233)">
<g clip-path="url(#clip1_12589_5233)">
<mask id="mask0_12589_5233" style="mask-type:luminance" maskUnits="userSpaceOnUse" x="-11" y="0" width="85" height="63">
<path d="M73.2322 0H-10.4619V62.7706H73.2322V0Z" fill="white"/>
</mask>
<g mask="url(#mask0_12589_5233)">
<path d="M73.2322 62.7706V0H-10.4619V62.7706H73.2322Z" fill="#002868"/>
<path d="M66.6936 22.832V34.6015C66.6936 42.4478 62.7704 50.8957 52.9625 55.4727C43.1546 50.8957 39.2314 42.4478 39.2314 34.6015V22.832H66.6936Z" fill="#FCD116" stroke="black" stroke-width="1.04618"/>
<path d="M66.6936 22.832V34.6015C66.6936 42.4478 62.7704 50.8957 52.9625 55.4727C43.1546 50.8957 39.2314 42.4478 39.2314 34.6015V22.832H66.6936Z" stroke="white" stroke-width="0.915404"/>
<path d="M48.005 35.7928C47.6519 36.4074 47.0373 36.5382 46.5665 36.342C46.0827 36.1459 45.638 34.9951 45.1411 34.3804C44.6703 33.7658 44.5396 34.0274 44.2257 33.6743C43.7683 33.2557 43.2359 32.9273 42.6564 32.7066C42.2249 32.5104 41.7803 32.3273 41.4795 31.5819C41.6121 31.2805 41.8556 31.0417 42.1595 30.915C42.408 30.8234 42.6041 30.4704 42.6303 30.1565C42.6695 29.8688 42.9311 29.5419 43.2841 29.2934C43.1141 29.3196 42.7741 29.2542 42.6172 29.1496C42.4734 29.0188 42.2249 29.0449 42.081 29.1496C41.9241 29.2542 41.741 29.2803 41.4795 29.2542C41.5841 29.1757 41.7672 28.9926 41.7803 28.8357C41.7933 28.6788 41.9895 28.5872 42.3687 28.5872C42.7349 28.5872 42.9703 28.1688 43.2711 28.1688C43.0618 28.1688 43.1011 27.8026 43.2188 27.7765C42.6957 27.6849 42.7611 27.2534 42.9703 27.2534C42.9572 27.2011 42.8918 27.1226 42.6434 27.0572C42.4211 26.9657 42.5257 26.7564 42.7087 26.6257C42.5518 26.2987 42.6957 26.0503 42.9572 25.841C42.5911 25.828 42.9965 25.3179 43.088 25.0433C43.1926 24.7818 43.2318 24.7425 43.3495 24.9125C43.4803 25.0564 43.7811 25.3964 44.1211 25.501C44.448 25.5926 44.6442 25.7756 44.7096 26.0503C44.7749 26.351 44.9057 26.4949 45.2588 26.6257C45.638 26.7434 46.1481 27.0572 46.0827 27.7503C46.3299 27.7596 46.5678 27.8466 46.7627 27.9988" fill="#FCAD56"/>
<path d="M48.005 35.7928C47.6519 36.4074 47.0373 36.5382 46.5665 36.342C46.0827 36.1459 45.638 34.9951 45.1411 34.3804C44.6703 33.7658 44.5396 34.0274 44.2257 33.6743C43.7683 33.2557 43.2359 32.9273 42.6564 32.7066C42.2249 32.5104 41.7803 32.3273 41.4795 31.5819C41.6121 31.2805 41.8556 31.0417 42.1595 30.915C42.408 30.8234 42.6041 30.4704 42.6303 30.1565C42.6695 29.8688 42.9311 29.5419 43.2841 29.2934C43.1141 29.3196 42.7741 29.2542 42.6172 29.1496C42.4734 29.0188 42.2249 29.0449 42.081 29.1496C41.9241 29.2542 41.741 29.2803 41.4795 29.2542C41.5841 29.1757 41.7672 28.9926 41.7803 28.8357C41.7933 28.6788 41.9895 28.5872 42.3687 28.5872C42.7349 28.5872 42.9703 28.1688 43.2711 28.1688C43.0618 28.1688 43.1011 27.8026 43.2188 27.7765C42.6957 27.6849 42.7611 27.2534 42.9703 27.2534C42.9572 27.2011 42.8918 27.1226 42.6434 27.0572C42.4211 26.9657 42.5257 26.7564 42.7087 26.6257C42.5518 26.2987 42.6957 26.0503 42.9572 25.841C42.5911 25.828 42.9965 25.3179 43.088 25.0433C43.1926 24.7818 43.2318 24.7425 43.3495 24.9125C43.4803 25.0564 43.7811 25.3964 44.1211 25.501C44.448 25.5926 44.6442 25.7756 44.7096 26.0503C44.7749 26.351 44.9057 26.4949 45.2588 26.6257C45.638 26.7434 46.1481 27.0572 46.0827 27.7503C46.3299 27.7596 46.5678 27.8466 46.7627 27.9988" stroke="black" stroke-width="0.0392316" stroke-linecap="round" stroke-linejoin="round"/>
<path d="M48.9059 26.9389C48.9043 27.1003 48.9401 27.2597 49.0104 27.4049C49.0808 27.5501 49.1838 27.6771 49.3113 27.7759C49.5598 27.972 49.769 28.129 49.7167 28.3774C49.6775 28.639 49.769 28.7959 49.9782 28.9659C50.2136 29.1228 50.3705 29.319 50.3182 29.6459C50.2659 29.9728 50.2921 30.169 50.4229 30.4175C50.5536 30.6659 50.789 30.8621 50.6844 31.2544C50.5798 31.6467 50.6321 32.1698 50.7629 32.4314C50.8936 32.6798 50.7629 32.876 50.5405 33.3075C50.3052 33.7391 50.1744 33.896 49.7036 34.066C49.2197 34.2099 49.1805 34.5106 49.1805 35.0076C49.1805 35.5307 48.8405 35.7922 48.1997 35.7007C47.5459 36.2368 47.1405 35.596 46.9705 34.7983C46.8005 34.0006 46.7874 33.1245 45.8197 32.4314C44.865 31.7121 45.2443 30.4959 46.042 30.0121C46.8397 29.5413 46.7482 28.129 46.6435 27.2659C46.5651 26.4028 47.1405 25.9058 47.5851 25.4351C48.1736 25.6574 48.9059 26.5597 48.9059 26.9389Z" fill="#FFA1A1" stroke="black" stroke-width="0.0392316" stroke-linecap="round" stroke-linejoin="round"/>
<path d="M47.5242 32.5093C47.3411 32.0908 47.145 31.6593 47.6157 30.7439C48.1127 29.8154 47.7988 29.1092 47.655 28.6385C47.5111 28.1808 47.4719 27.7492 47.655 27.5531C47.8511 27.383 47.9296 27.2654 47.9427 26.9515C47.9557 26.6638 48.2042 26.7553 48.2434 26.8992C48.2827 27.043 48.3088 27.2915 48.0473 27.7361C47.7857 28.1938 48.7796 29.3054 48.3219 30.4954C48.0081 31.3324 48.4265 32.3916 48.5835 33.137C48.7404 33.8824 48.845 35.6217 47.7596 35.8832C48.505 35.5301 47.8119 33.2024 47.5242 32.5093Z" fill="#F1B2DC" stroke="black" stroke-width="0.0392316" stroke-linecap="round" stroke-linejoin="round"/>
<path d="M42.6729 32.3775C42.8429 32.4167 42.9344 32.3121 42.9867 32.1944C43.039 32.0767 43.0782 32.0244 43.2482 31.9983C43.4052 31.9983 43.6667 31.959 43.7321 31.8282C43.7844 31.6975 43.9806 31.8021 44.1506 31.4752C44.3206 31.1352 44.4252 30.7428 44.8698 30.599M46.086 27.7482C45.916 27.7482 45.4452 27.7743 45.2491 28.1928M43.889 25.7212C44.2813 25.8389 44.1244 26.1004 44.3206 26.2443C44.6737 26.532 44.3467 26.8197 44.6475 26.8981C44.9483 26.9766 44.9221 27.0289 44.8567 27.3558C44.7521 27.7351 45.1183 27.7482 44.9875 27.9966M43.2875 29.2913C43.5229 29.082 44.0852 28.912 44.216 28.6897M43.2744 28.1666C43.6144 28.1405 44.0721 28.2712 44.1375 28.1405M43.2221 27.7874C43.3921 27.7874 43.7321 27.6697 43.7975 27.4474M42.9736 27.2643C43.1698 27.2643 43.4183 27.2512 43.6667 27.0681M42.7121 26.6235C42.8559 26.5058 43.1175 26.6366 43.3659 26.4797M42.9605 25.8389C43.0782 25.8389 43.3267 25.8127 43.3267 25.9566" stroke="black" stroke-width="0.0392316" stroke-linecap="round" stroke-linejoin="round"/>
<path d="M58.6023 28.8312C58.6023 28.8312 57.4581 27.8668 56.5099 27.2129C55.5619 26.5591 54.4175 25.7581 54.4175 25.5946C54.5974 25.4638 55.5619 26.085 56.8859 26.886C58.2263 27.7034 58.9783 28.5043 58.9783 28.5043L58.6023 28.8312ZM58.5206 29.4851C58.5206 29.4851 57.409 28.8149 56.3137 28.3408C55.1695 27.8668 53.4532 27.8668 53.2734 27.7034C53.2734 27.5398 55.2676 27.4418 56.6897 28.0139C58.1446 28.6841 58.8965 29.1582 58.8965 29.1582L58.5206 29.4851ZM58.5042 30.5967C58.5042 30.5967 57.2945 30.0408 56.1176 29.7793C54.9734 29.5177 53.3387 29.6159 53.1426 29.4688C53.1426 29.3053 55.1695 28.9783 56.6897 29.4688C58.2263 29.9428 58.8801 30.2697 58.8801 30.2697L58.5042 30.5967ZM58.4388 31.7245C58.4388 31.7245 57.5234 31.1034 56.3137 30.9727C55.1695 30.8582 53.6492 31.7245 53.4532 31.5611C53.4532 31.3976 54.7772 30.4331 56.4282 30.5967C58.0465 30.7601 58.8148 31.3976 58.8148 31.3976L58.4388 31.7245ZM58.8148 28.1611C58.8148 28.1611 57.6542 27.0985 57.6542 26.3792C57.6542 25.7418 58.357 24.761 58.6676 24.761C58.5042 25.0879 57.9647 25.7418 57.9647 26.3792C57.9647 27.0331 59.1907 27.8341 59.1907 27.8341L58.8148 28.1611Z" fill="#9E540A" stroke="black" stroke-width="0.0359623" stroke-linecap="round" stroke-linejoin="round"/>
<path d="M58.8108 28.1611C58.8108 28.1611 59.0397 27.0985 59.0397 26.3792C59.0397 25.4149 58.3531 24.5321 58.4185 24.2869C58.6637 24.5321 59.3503 25.2513 59.3503 26.3792C59.3503 27.36 59.1868 27.8341 59.1868 27.8341L58.8108 28.1611Z" fill="#9E540A" stroke="black" stroke-width="0.0359623" stroke-linecap="round" stroke-linejoin="round"/>
<path d="M59.0925 27.8177C59.0925 27.5072 58.978 27.2293 58.7819 27.0168C58.5203 26.7062 58.128 26.6081 57.7194 26.6735C57.2289 26.7552 56.8366 27.0495 56.5915 27.5072C56.2645 28.112 56.2318 28.7659 56.2155 29.4034C56.2155 31.6101 56.2972 32.5092 56.3626 34.6833C56.3789 35.3208 56.4934 36.6285 56.1992 37.6584C56.0847 38.0998 55.954 38.5084 55.7578 38.9334C55.8886 38.394 55.954 38.1161 56.0194 37.7074C56.1992 36.6448 56.1501 35.6477 56.1174 34.6669C56.052 32.6563 55.9376 31.6265 55.8722 29.1908C55.8558 28.4553 55.9212 27.8995 56.2645 27.3111C56.6241 26.7062 57.2454 26.2649 57.9482 26.2649C58.2425 26.2649 58.4876 26.3139 58.7328 26.4611C59.2233 26.7226 59.4521 27.262 59.4521 27.8014L59.0925 27.8177Z" fill="#9E540A" stroke="#FCD116" stroke-width="0.196158" stroke-linecap="round" stroke-linejoin="round"/>
<path d="M59.0925 27.8177C59.0925 27.5072 58.978 27.2293 58.7819 27.0168C58.5203 26.7062 58.128 26.6081 57.7194 26.6735C57.2289 26.7552 56.8366 27.0495 56.5915 27.5072C56.2645 28.112 56.2318 28.7659 56.2155 29.4034C56.2155 31.6101 56.2972 32.5092 56.3626 34.6833C56.3789 35.3208 56.4934 36.6285 56.1992 37.6584C56.0847 38.0998 55.954 38.5084 55.7578 38.9334C55.8886 38.394 55.954 38.1161 56.0194 37.7074C56.1992 36.6448 56.1501 35.6477 56.1174 34.6669C56.052 32.6563 55.9376 31.6265 55.8722 29.1908C55.8558 28.4553 55.9212 27.8995 56.2645 27.3111C56.6241 26.7062 57.2454 26.2649 57.9482 26.2649C58.2425 26.2649 58.4876 26.3139 58.7328 26.4611C59.2233 26.7226 59.4521 27.262 59.4521 27.8014L59.0925 27.8177Z" fill="#9E540A"/>
<path d="M59.1944 35.6967C59.1944 35.6967 58.7367 36.5139 58.3934 37.1024C58.0502 37.6909 57.7722 37.8217 57.5107 37.6419C57.2655 37.4621 57.478 36.9881 57.6742 36.7592C57.8703 36.5304 58.9656 35.4678 58.9656 35.4678L59.1944 35.6967Z" fill="#9E540A" stroke="black" stroke-width="0.0359623" stroke-linecap="round" stroke-linejoin="round"/>
<path d="M59.3047 35.7621C59.3047 35.7621 59.125 36.6938 58.9778 37.364C58.847 38.0343 58.6182 38.2631 58.3403 38.1814C58.0461 38.116 58.0951 37.5766 58.2096 37.2986C58.3239 37.0207 59.0105 35.615 59.0105 35.615L59.3047 35.7621Z" fill="#9E540A" stroke="black" stroke-width="0.0359623" stroke-linecap="round" stroke-linejoin="round"/>
<path d="M59.4995 35.7946V37.4292C59.4995 38.1159 59.3361 38.3937 59.0255 38.3774C58.7312 38.3611 58.6658 37.838 58.7312 37.5274C58.7802 37.2331 59.1889 35.7129 59.1889 35.7129L59.4995 35.7946Z" fill="#9E540A" stroke="black" stroke-width="0.0359623" stroke-linecap="round" stroke-linejoin="round"/>
<path d="M60.4 28.8312C60.4 28.8312 61.5442 27.8668 62.4924 27.2129C63.4404 26.5591 64.5847 25.7581 64.5847 25.5946C64.4049 25.4638 63.4404 26.085 62.1164 26.886C60.776 27.7034 60.024 28.5043 60.024 28.5043L60.4 28.8312ZM60.4817 29.4851C60.4817 29.4851 61.5933 28.8149 62.6885 28.3408C63.8327 27.8668 65.5491 27.8668 65.7289 27.7034C65.7289 27.5398 63.7347 27.4418 62.3125 28.0139C60.8577 28.6841 60.1057 29.1582 60.1057 29.1582L60.4817 29.4851ZM60.498 30.5967C60.498 30.5967 61.7077 30.0408 62.8847 29.7793C64.0289 29.5177 65.6635 29.6159 65.8597 29.4688C65.8597 29.3053 63.8327 28.9783 62.3125 29.4688C60.776 29.9428 60.1221 30.2697 60.1221 30.2697L60.498 30.5967ZM60.5634 31.7245C60.5634 31.7245 61.4788 31.1034 62.6885 30.9727C63.8327 30.8582 65.353 31.7245 65.5491 31.5611C65.5491 31.3976 64.225 30.4331 62.5741 30.5967C60.9557 30.7601 60.1874 31.3976 60.1874 31.3976L60.5634 31.7245ZM60.1874 28.1611C60.1874 28.1611 61.348 27.0985 61.348 26.3792C61.348 25.7418 60.6452 24.761 60.3346 24.761C60.498 25.0879 61.0375 25.7418 61.0375 26.3792C61.0375 27.0331 59.8115 27.8341 59.8115 27.8341L60.1874 28.1611Z" fill="#9E540A" stroke="black" stroke-width="0.0359623" stroke-linecap="round" stroke-linejoin="round"/>
<path d="M60.1919 28.1611C60.1919 28.1611 59.963 27.0985 59.963 26.3792C59.963 25.4149 60.6496 24.5321 60.5842 24.2869C60.3389 24.5321 59.6523 25.2513 59.6523 26.3792C59.6523 27.36 59.8159 27.8341 59.8159 27.8341L60.1919 28.1611Z" fill="#9E540A" stroke="black" stroke-width="0.0359623" stroke-linecap="round" stroke-linejoin="round"/>
<path d="M59.9094 27.8177C59.9094 27.5072 60.0238 27.2293 60.22 27.0168C60.4815 26.7062 60.8738 26.6081 61.2825 26.6735C61.7729 26.7552 62.1652 27.0495 62.4104 27.5072C62.7374 28.112 62.77 28.7659 62.7864 29.4034C62.7864 31.6101 62.7047 32.5092 62.6393 34.6833C62.623 35.3208 62.5085 36.6285 62.8027 37.6584C62.9171 38.0998 63.0479 38.5084 63.2441 38.9334C63.1133 38.394 63.0479 38.1161 62.9825 37.7074C62.8027 36.6448 62.8517 35.6477 62.8845 34.6669C62.9499 32.6563 63.0642 31.6265 63.1297 29.1908C63.146 28.4553 63.0807 27.8995 62.7374 27.3111C62.3777 26.7062 61.7565 26.2649 61.0537 26.2649C60.7594 26.2649 60.5143 26.3139 60.2691 26.4611C59.7786 26.7226 59.5498 27.262 59.5498 27.8014L59.9094 27.8177Z" fill="#9E540A" stroke="#FCD116" stroke-width="0.196158" stroke-linecap="round" stroke-linejoin="round"/>
<path d="M59.9094 27.8177C59.9094 27.5072 60.0238 27.2293 60.22 27.0168C60.4815 26.7062 60.8738 26.6081 61.2825 26.6735C61.7729 26.7552 62.1652 27.0495 62.4104 27.5072C62.7374 28.112 62.77 28.7659 62.7864 29.4034C62.7864 31.6101 62.7047 32.5092 62.6393 34.6833C62.623 35.3208 62.5085 36.6285 62.8027 37.6584C62.9171 38.0998 63.0479 38.5084 63.2441 38.9334C63.1133 38.394 63.0479 38.1161 62.9825 37.7074C62.8027 36.6448 62.8517 35.6477 62.8845 34.6669C62.9499 32.6563 63.0642 31.6265 63.1297 29.1908C63.146 28.4553 63.0807 27.8995 62.7374 27.3111C62.3777 26.7062 61.7565 26.2649 61.0537 26.2649C60.7594 26.2649 60.5143 26.3139 60.2691 26.4611C59.7786 26.7226 59.5498 27.262 59.5498 27.8014L59.9094 27.8177Z" fill="#9E540A"/>
<path d="M59.8076 35.6967C59.8076 35.6967 60.2653 36.5139 60.6086 37.1024C60.9518 37.6909 61.2298 37.8217 61.4913 37.6419C61.7365 37.4621 61.524 36.9881 61.3278 36.7592C61.1317 36.5304 60.0364 35.4678 60.0364 35.4678L59.8076 35.6967Z" fill="#9E540A" stroke="black" stroke-width="0.0359623" stroke-linecap="round" stroke-linejoin="round"/>
<path d="M59.6982 35.7621C59.6982 35.7621 59.878 36.6938 60.0252 37.364C60.1559 38.0343 60.3847 38.2631 60.6626 38.1814C60.9569 38.116 60.9078 37.5766 60.7934 37.2986C60.679 37.0207 59.9924 35.615 59.9924 35.615L59.6982 35.7621Z" fill="#9E540A" stroke="black" stroke-width="0.0359623" stroke-linecap="round" stroke-linejoin="round"/>
<path d="M59.5029 35.7946V37.4292C59.5029 38.1159 59.6663 38.3937 59.977 38.3774C60.2712 38.3611 60.3366 37.838 60.2712 37.5274C60.2222 37.2331 59.8135 35.7129 59.8135 35.7129L59.5029 35.7946Z" fill="#9E540A" stroke="black" stroke-width="0.0359623" stroke-linecap="round" stroke-linejoin="round"/>
<path d="M59.5014 35.7784C58.635 35.762 58.5533 35.4514 58.5533 35.4514C58.5533 35.4514 58.4389 35.0591 58.4226 34.8139C58.4061 34.7812 58.1773 34.2908 58.2427 34.0783C58.161 33.8822 57.9648 33.4081 58.1446 33.3264C58.0629 33.0975 57.9321 32.836 57.9158 32.5908C57.8504 32.411 57.6869 32.0187 57.8177 31.8879C57.8177 31.8879 57.5071 31.2341 57.6542 31.0706C57.6542 31.0706 57.5071 30.433 57.6542 30.2696C57.6542 30.2696 57.6542 29.6158 57.8177 29.4522C57.8177 29.4522 57.8177 28.8148 57.9647 28.6513C57.9647 28.684 58.4226 27.7522 59.5014 27.7522L59.4851 29.1417H59.5014V35.7784Z" fill="#9E540A" stroke="black" stroke-width="0.0359623" stroke-linecap="round" stroke-linejoin="round"/>
<path d="M59.5014 32.215C58.112 32.1986 57.8177 31.8881 57.8177 31.8881M59.5014 31.3976C58.112 31.3976 57.6543 31.0707 57.6543 31.0707M59.5014 30.5967C58.112 30.5803 57.6543 30.2697 57.6543 30.2697M59.5014 29.7793C58.112 29.763 57.8177 29.4524 57.8177 29.4524M59.4851 29.1419C59.5014 29.1419 58.4389 29.1419 58.2754 28.9783L57.9648 28.6677M59.5014 35.1246C59.0928 35.1246 58.6351 35.0592 58.4226 34.814M59.5014 34.4708C58.7331 34.4708 58.2754 34.1602 58.2754 34.1602C58.2754 34.1602 58.2591 34.1275 58.2428 34.0784M59.5014 33.6698C58.4879 33.6535 58.21 33.4409 58.1446 33.3266M59.5014 33.0159C58.112 33.0159 57.9648 32.689 57.9648 32.689L57.9158 32.5909" stroke="black" stroke-width="0.0359623" stroke-linecap="round" stroke-linejoin="round"/>
<path d="M59.501 35.7784C60.3673 35.762 60.449 35.4514 60.449 35.4514C60.449 35.4514 60.5635 35.0591 60.5798 34.8139C60.5962 34.7812 60.825 34.2908 60.7596 34.0783C60.8413 33.8822 61.0376 33.4081 60.8578 33.3264C60.9395 33.0975 61.0702 32.836 61.0866 32.5908C61.1519 32.411 61.3155 32.0187 61.1847 31.8879C61.1847 31.8879 61.4952 31.2341 61.3481 31.0706C61.3481 31.0706 61.4952 30.433 61.3481 30.2696C61.3481 30.2696 61.3481 29.6158 61.1847 29.4522C61.1847 29.4522 61.1847 28.8148 61.0376 28.6513C61.0376 28.684 60.5798 27.7522 59.501 27.7522L59.5173 29.1417H59.501V35.7784Z" fill="#9E540A" stroke="black" stroke-width="0.0359623" stroke-linecap="round" stroke-linejoin="round"/>
<path d="M59.501 32.215C60.8904 32.1986 61.1847 31.8881 61.1847 31.8881M59.501 31.3976C60.8904 31.3976 61.3481 31.0707 61.3481 31.0707M59.501 30.5967C60.8904 30.5803 61.3481 30.2697 61.3481 30.2697M59.501 29.7793C60.8904 29.763 61.1847 29.4524 61.1847 29.4524M59.5173 29.1419C59.501 29.1419 60.5635 29.1419 60.727 28.9783L61.0376 28.6677M59.501 35.1246C59.9096 35.1246 60.3673 35.0592 60.5798 34.814M59.501 34.4708C60.2693 34.4708 60.727 34.1602 60.727 34.1602C60.727 34.1602 60.7433 34.1275 60.7596 34.0784M59.501 33.6698C60.5145 33.6535 60.7924 33.4409 60.8578 33.3266M59.501 33.0159C60.8904 33.0159 61.0376 32.689 61.0376 32.689L61.0866 32.5909" stroke="black" stroke-width="0.0359623" stroke-linecap="round" stroke-linejoin="round"/>
<path d="M52.9577 50.8171C52.2548 51.4709 50.8981 51.046 50.473 50.7517C50.0317 50.8988 48.8547 50.4411 48.5442 49.9344C47.6942 50.0488 47.3999 48.8392 47.547 48.5286C47.7759 48.0709 47.3673 47.7767 47.6614 47.4661C48.0701 47.0737 47.4326 46.6977 47.825 46.4362C48.2173 46.1583 47.7268 45.7006 48.1191 45.4063C48.5278 45.0958 47.9067 44.6708 48.3316 44.4583C48.7567 44.2458 48.2827 43.69 48.6422 43.4775C49.0019 43.265 48.4298 42.7255 48.9201 42.4804C49.3942 42.2352 48.9692 41.8101 49.3452 41.6304C49.7538 41.4178 49.3778 40.9765 49.7538 40.8293C50.1789 40.6496 49.8683 40.1755 50.2278 40.0447C50.5384 39.9303 50.3423 39.6361 50.5384 39.3745H52.9577" fill="#009E49"/>
<path d="M52.9577 50.8171C52.2548 51.4709 50.8981 51.046 50.473 50.7517C50.0317 50.8988 48.8547 50.4411 48.5442 49.9344C47.6942 50.0488 47.3999 48.8392 47.547 48.5286C47.7759 48.0709 47.3673 47.7767 47.6614 47.4661C48.0701 47.0737 47.4326 46.6977 47.825 46.4362C48.2173 46.1583 47.7268 45.7006 48.1191 45.4063C48.5278 45.0958 47.9067 44.6708 48.3316 44.4583C48.7567 44.2458 48.2827 43.69 48.6422 43.4775C49.0019 43.265 48.4298 42.7255 48.9201 42.4804C49.3942 42.2352 48.9692 41.8101 49.3452 41.6304C49.7538 41.4178 49.3778 40.9765 49.7538 40.8293C50.1789 40.6496 49.8683 40.1755 50.2278 40.0447C50.5384 39.9303 50.3423 39.6361 50.5384 39.3745H52.9577" stroke="black" stroke-width="0.0359623" stroke-linecap="round" stroke-linejoin="round"/>
<path d="M51.3364 39.4727C51.0095 39.7996 51.4018 40.0447 51.0749 40.437C50.7316 40.8458 51.0423 41.0582 50.7643 41.4178C50.4864 41.7775 50.8951 41.9573 50.5845 42.366C50.2739 42.7583 50.6499 43.0035 50.3066 43.3304C49.9796 43.6737 50.372 43.9679 50.0287 44.3275C49.7018 44.7035 50.0941 44.9487 49.7672 45.2756C49.4239 45.6189 49.8162 45.9785 49.4893 46.3054C49.1624 46.6487 49.5547 47.0738 49.1787 47.4661C48.8191 47.8584 49.2441 48.169 48.9499 48.4632C48.6393 48.7738 48.9172 49.0844 48.7047 49.2969C48.4922 49.5094 48.4595 49.8036 48.5412 49.9344M51.974 39.587C51.6797 39.9957 52.1374 40.1755 51.8595 40.5024C51.5817 40.8458 51.974 40.9601 51.7615 41.3524C51.5489 41.7447 51.9249 41.8429 51.647 42.2352C51.3692 42.6275 51.7941 42.9381 51.5 43.3304C51.1893 43.7227 51.647 43.9352 51.3692 44.3275C51.1076 44.7362 51.5 44.9487 51.2547 45.2429C51.0095 45.5536 51.4346 45.8477 51.124 46.2237C50.8297 46.5833 51.2547 46.8613 51.0095 47.1882C50.7643 47.5315 51.1076 47.891 50.8951 48.169C50.6826 48.4305 51.0423 48.8392 50.7316 49.1988C50.4374 49.5584 50.797 49.8037 50.6172 50.0488C50.4373 50.294 50.2903 50.6537 50.4701 50.7517" stroke="black" stroke-width="0.0359623" stroke-linecap="round" stroke-linejoin="round"/>
<path d="M52.959 50.8171C53.6619 51.4709 55.0186 51.046 55.4437 50.7517C55.885 50.8988 57.062 50.4411 57.3725 49.9344C58.2225 50.0488 58.5168 48.8392 58.3697 48.5286C58.1408 48.0709 58.5494 47.7767 58.2552 47.4661C57.8466 47.0737 58.4841 46.6977 58.0917 46.4362C57.6994 46.1583 58.1899 45.7006 57.7975 45.4063C57.3889 45.0958 58.01 44.6708 57.5851 44.4583C57.16 44.2458 57.634 43.69 57.2745 43.4775C56.9148 43.265 57.4869 42.7255 56.9966 42.4804C56.5225 42.2352 56.9475 41.8101 56.5715 41.6304C56.1629 41.4178 56.5389 40.9765 56.1629 40.8293C55.7378 40.6496 56.0484 40.1755 55.6889 40.0447C55.3783 39.9303 55.5744 39.6361 55.3783 39.3745H52.959" fill="#009E49"/>
<path d="M52.959 50.8171C53.6619 51.4709 55.0186 51.046 55.4437 50.7517C55.885 50.8988 57.062 50.4411 57.3725 49.9344C58.2225 50.0488 58.5168 48.8392 58.3697 48.5286C58.1408 48.0709 58.5494 47.7767 58.2552 47.4661C57.8466 47.0737 58.4841 46.6977 58.0917 46.4362C57.6994 46.1583 58.1899 45.7006 57.7975 45.4063C57.3889 45.0958 58.01 44.6708 57.5851 44.4583C57.16 44.2458 57.634 43.69 57.2745 43.4775C56.9148 43.265 57.4869 42.7255 56.9966 42.4804C56.5225 42.2352 56.9475 41.8101 56.5715 41.6304C56.1629 41.4178 56.5389 40.9765 56.1629 40.8293C55.7378 40.6496 56.0484 40.1755 55.6889 40.0447C55.3783 39.9303 55.5744 39.6361 55.3783 39.3745H52.959" stroke="black" stroke-width="0.0359623" stroke-linecap="round" stroke-linejoin="round"/>
<path d="M54.5809 39.4727C54.9078 39.7996 54.5155 40.0447 54.8424 40.437C55.1857 40.8458 54.8751 41.0582 55.1529 41.4178C55.4309 41.7775 55.0222 41.9573 55.3328 42.366C55.6434 42.7583 55.2674 43.0035 55.6107 43.3304C55.9376 43.6737 55.5453 43.9679 55.8886 44.3275C56.2156 44.7035 55.8232 44.9487 56.1502 45.2756C56.4934 45.6189 56.1011 45.9785 56.428 46.3054C56.755 46.6487 56.3626 47.0738 56.7386 47.4661C57.0982 47.8584 56.6733 48.169 56.9674 48.4632C57.278 48.7738 57.0002 49.0844 57.2127 49.2969C57.4251 49.5094 57.4579 49.8036 57.3761 49.9344M53.9434 39.587C54.2375 39.9957 53.7798 40.1755 54.0578 40.5024C54.3357 40.8458 53.9434 40.9601 54.1558 41.3524C54.3683 41.7447 53.9924 41.8429 54.2703 42.2352C54.5482 42.6275 54.1232 42.9381 54.4174 43.3304C54.728 43.7227 54.2703 43.9352 54.5482 44.3275C54.8097 44.7362 54.4174 44.9487 54.6626 45.2429C54.9078 45.5536 54.4828 45.8477 54.7934 46.2237C55.0876 46.5833 54.6626 46.8613 54.9078 47.1882C55.153 47.5315 54.8097 47.891 55.0222 48.169C55.2348 48.4305 54.8751 48.8392 55.1857 49.1988C55.4799 49.5584 55.1203 49.8037 55.3001 50.0488C55.4799 50.294 55.6271 50.6537 55.4472 50.7517" stroke="black" stroke-width="0.0359623" stroke-linecap="round" stroke-linejoin="round"/>
<path d="M52.9541 50.8171V39.3745" stroke="#009E49" stroke-width="0.0359623" stroke-linecap="round" stroke-linejoin="round"/>
<path d="M52.9571 39.9631C52.81 40.6007 53.1697 41.1564 52.9571 41.6959C52.7446 42.219 53.1043 42.4315 52.9899 42.8564C52.8591 43.2815 53.1369 43.5921 52.9571 44.0498C52.7774 44.5075 53.2023 44.8671 52.9571 45.4719C52.712 46.0604 53.1206 46.2076 52.9571 46.8123C52.7774 47.4989 53.2677 47.8585 52.9571 48.3489C52.6466 48.8393 53.2351 48.9538 52.9899 49.5095C52.7446 50.0489 53.1369 50.2615 52.9571 50.8172" stroke="black" stroke-width="0.0359623" stroke-linecap="round" stroke-linejoin="round"/>
<path d="M53.1994 42.023C53.1176 42.2027 53.4445 42.6278 53.2648 42.9547C53.0686 43.2653 53.3628 43.7557 53.1667 44.148C52.9705 44.5403 53.4773 45.0307 53.2811 45.4884C53.0686 45.9462 53.3792 46.5182 53.2811 46.9433C53.1994 47.3682 53.4936 48.1856 53.2811 48.4798C53.0686 48.7904 53.4936 48.8721 53.2484 49.6241C53.0033 50.376 52.8397 49.7385 52.9868 49.5096C53.2974 49.0029 52.6436 48.8395 52.9542 48.349C53.2648 47.8587 52.7744 47.499 52.9542 46.8125C53.1176 46.2077 52.709 46.0605 52.9542 45.472C53.1994 44.8672 52.7744 44.5077 52.9542 44.05C53.134 43.5923 52.8561 43.2816 52.9868 42.8566C53.1013 42.4316 52.7417 42.2191 52.9542 41.6961C53.1176 41.173 53.2811 41.8432 53.1994 42.023ZM51.8263 42.5461C51.7119 42.7422 52.0225 43.1181 51.7445 43.4941C51.5483 43.7557 51.8753 44.0663 51.5974 44.4423C51.4176 44.7038 51.7772 45.0307 51.532 45.4066C51.3686 45.6192 51.6465 46.0279 51.4503 46.3385C51.2542 46.6654 51.5483 46.9269 51.2051 47.3519C51.0089 47.5808 51.3522 48.1529 51.1397 48.3327C50.9272 48.5125 51.1234 49.2155 50.9763 49.3135C50.8455 49.4279 50.9763 49.9347 50.6166 50.049C50.7965 49.8039 50.4368 49.5587 50.7311 49.199C51.0417 48.8395 50.682 48.4308 50.8945 48.1693C51.1071 47.8913 50.7637 47.5317 51.0089 47.1885C51.2542 46.8616 50.8291 46.5836 51.1234 46.224C51.434 45.848 51.0089 45.5538 51.2542 45.2432C51.4994 44.9489 51.1071 44.7365 51.3686 44.3278C51.6465 43.9355 51.1888 43.723 51.4994 43.3307C51.7936 42.9384 51.3686 42.6278 51.6465 42.2355C51.9243 41.8431 51.5483 41.745 51.7609 41.3527C52.1532 41.4999 51.9571 42.3499 51.8263 42.5461ZM51.0089 41.4835C50.8455 41.745 51.0743 42.0556 50.8291 42.3826C50.584 42.7258 50.8291 43.1509 50.584 43.4287C50.3388 43.6903 50.6494 44.2134 50.3388 44.4258C50.0281 44.6384 50.2243 45.2759 49.9791 45.4884C49.734 45.7009 49.9791 46.3057 49.7012 46.6163C49.4234 46.9269 49.5541 47.5644 49.3906 47.7116C49.2435 47.8587 49.6032 48.1693 49.3416 48.3818C49.0637 48.5942 49.0637 49.0193 48.7041 49.2972C48.9166 49.0847 48.6387 48.7741 48.9493 48.4635C49.2435 48.1693 48.8186 47.8587 49.1781 47.4663C49.5541 47.074 49.1618 46.649 49.4887 46.3057C49.8157 45.9788 49.4234 45.6192 49.7666 45.2759C50.0935 44.9489 49.7012 44.7038 50.0281 44.3278C50.3714 43.9681 49.9791 43.674 50.306 43.3307C50.6494 43.0038 50.2734 42.7586 50.584 42.3662C50.8945 41.9576 50.4858 41.7778 50.7637 41.4181C50.8945 41.2547 50.8945 41.1076 50.8945 40.9768C51.0906 40.47 51.0906 41.3527 51.0089 41.4835Z" fill="#FCD116" stroke="black" stroke-width="0.0359623" stroke-linecap="round" stroke-linejoin="round"/>
<path d="M50.6826 39.7506C50.6826 36.3178 51.1566 35.1245 52.9548 35.1245C54.7529 35.1245 55.227 36.3178 55.227 39.7506H50.6826Z" fill="#CE1126" stroke="black" stroke-width="0.0359623" stroke-linecap="round" stroke-linejoin="round"/>
<path d="M50.6826 39.7506C50.6826 36.3178 51.1566 35.1245 52.9548 35.1245C52.1374 35.1245 51.6308 35.7621 51.5 36.187C51.3528 36.6121 51.4346 36.5793 51.6143 36.4159C51.7942 36.2524 51.7125 36.6121 51.549 36.8082C51.4019 37.0044 51.2548 37.5765 51.4672 37.3967C51.6797 37.2005 51.8432 37.413 51.6143 37.74C51.3855 38.0506 51.1894 38.8025 51.4182 38.5409C51.6471 38.2794 51.6962 38.7044 51.549 38.9169C51.4182 39.1294 51.4346 39.3255 51.549 39.2275C51.6797 39.1294 51.6634 39.5708 51.549 39.7506H50.6826ZM53.8048 39.6852C53.8048 39.1784 53.8211 37.9852 53.5433 37.5929C53.3471 37.2823 53.3471 36.9553 53.5759 37.315C53.8048 37.6746 53.9193 37.4947 53.7558 37.1352C53.5596 36.6775 53.2981 36.1707 53.3634 36.0727C53.4452 35.9582 53.4942 36.0073 53.6577 36.2524C53.8211 36.4976 53.8539 36.138 53.6741 35.8928C53.4942 35.6639 53.5105 35.615 53.8865 35.7784C54.5567 36.0562 54.8836 36.8573 54.8836 39.5544L53.8048 39.6852Z" fill="black" stroke="black" stroke-width="0.0359623" stroke-linecap="round" stroke-linejoin="round"/>
<path d="M52.9587 40.24C52.2395 40.24 51.4548 40.1256 50.9317 39.9131C50.3105 39.6679 50.2779 39.4554 50.4904 39.1939C50.6539 38.9977 50.9808 39.1122 51.3077 39.2592C51.6183 39.39 52.501 39.488 52.9587 39.488C53.4164 39.488 54.2991 39.39 54.6097 39.2429C54.9366 39.1122 55.2635 38.9977 55.4271 39.1939C55.6395 39.4554 55.6068 39.6679 54.9857 39.9131C54.4626 40.1256 53.678 40.24 52.9587 40.24Z" fill="#CE1126" stroke="black" stroke-width="0.0359623" stroke-linecap="round" stroke-linejoin="round"/>
<path d="M-10.4619 0H31.3851V31.3853H-10.4619V0Z" fill="#012169"/>
<path d="M-5.55796 0L10.3962 11.8349L26.285 0H31.3851V4.05393L15.6925 15.758L31.3851 27.3967V31.3853H26.1543L10.4616 19.6812L-5.16565 31.3853H-10.4619V27.4621L5.16535 15.8234L-10.4619 4.18471V0H-5.55796Z" fill="white"/>
<path d="M17.2618 18.3735L31.3851 28.7699V31.3853L13.6655 18.3735H17.2618ZM5.23073 19.6812L5.62305 21.9697L-6.93107 31.3853H-10.4619L5.23073 19.6812ZM31.3851 0V0.196158L15.104 12.4887L15.2348 9.61175L28.1158 0H31.3851ZM-10.4619 0L5.16535 11.5079H1.24218L-10.4619 2.74621V0Z" fill="#C8102E"/>
<path d="M5.29612 0V31.3853H15.7579V0H5.29612ZM-10.4619 10.4618V20.9235H31.3851V10.4618H-10.4619Z" fill="white"/>
<path d="M-10.4619 12.6195V18.8966H31.3851V12.6195H-10.4619ZM7.38847 0V31.3853H13.6655V0H7.38847Z" fill="#C8102E"/>
</g>
</g>
</g>
<defs>
<clipPath id="clip0_12589_5233">
<rect width="62.7706" height="62.7706" rx="31.3853" fill="white"/>
</clipPath>
<clipPath id="clip1_12589_5233">
<rect width="83.6941" height="62.7706" fill="white" transform="translate(-10.4619)"/>
</clipPath>
</defs>
</svg>
