<svg width="63" height="63" viewBox="0 0 63 63" fill="none" xmlns="http://www.w3.org/2000/svg">
<g clip-path="url(#clip0_12589_5232)">
<g clip-path="url(#clip1_12589_5232)">
<mask id="mask0_12589_5232" style="mask-type:luminance" maskUnits="userSpaceOnUse" x="-11" y="0" width="85" height="63">
<path d="M73.2322 0H-10.4619V62.7706H73.2322V0Z" fill="white"/>
</mask>
<g mask="url(#mask0_12589_5232)">
<path d="M-10.4619 0H73.2322V62.7706H-10.4619V0Z" fill="#00843D"/>
<path d="M36.3041 6.93248C37.3026 7.40051 38.1906 8.07474 38.9096 8.91078C39.6287 9.74682 40.1624 10.7258 40.4757 11.783C40.7892 12.8402 40.875 13.9518 40.7277 15.0447C40.5803 16.1375 40.2031 17.1867 39.6209 18.1233C39.0387 19.0598 38.2648 19.8623 37.35 20.4781C36.4352 21.0939 35.4003 21.5088 34.3136 21.6956C33.2268 21.8826 32.1127 21.8371 31.0448 21.5623C29.9769 21.2874 28.9793 20.7894 28.1178 20.1013C29.8294 20.8214 31.7417 20.9078 33.5114 20.3449C35.2812 19.7821 36.7923 18.6069 37.7735 17.0303C38.7547 15.4537 39.1419 13.579 38.8654 11.7426C38.5889 9.90633 37.6669 8.22871 36.2649 7.01095L36.3041 6.93248ZM28.9024 12.6865L29.7394 9.96639L27.4247 11.6534H30.2886L27.9609 9.96639L28.9024 12.6865ZM28.9024 8.68483L29.7394 5.96477L27.4247 7.65173H30.2886L27.9609 5.92554L28.9024 8.68483ZM32.8517 10.7249L33.6887 8.00481L31.3609 9.69177H34.2379L31.9102 8.00481L32.8517 10.7249ZM24.8746 14.6873L25.777 11.9672L23.4492 13.6411H26.3262L23.9985 11.9672L24.8746 14.6873ZM28.837 16.7012L29.7263 13.9942L27.4116 15.6681H30.2755L27.9478 13.9942L28.837 16.7012Z" fill="white"/>
<path d="M0.866211 0H17.8143V62.7706H0.866211V0Z" fill="#D22630"/>
<path d="M4.96893 0H4.41969L3.33428 0.993868L2.94196 0.549243H3.33428L3.22966 0.156926H2.58888L1.255 1.33388V1.83081H1.90886V1.43849L2.19656 1.72619L1.50347 2.32774L1.8304 2.61544L0.849609 3.50469V4.15855L2.48426 2.65467L2.19656 2.31467L2.83734 1.71311L2.2881 1.17695L2.64119 0.784632L3.37351 1.46465L4.96893 0ZM0.914995 0V1.13772L1.24193 0.784632V0.300776H1.63424L2.0004 0H0.914995ZM3.87044 0H3.47813L3.53044 0.300776L3.87044 0Z" fill="#383739"/>
<path d="M4.92015 0H4.42321L3.37703 0.993868L2.89318 0.496934H3.3378L3.23319 0.143849H2.64471L1.35007 1.38618V1.7785H1.847V1.28157L2.29163 1.72619L1.59853 2.32774L1.89931 2.61544L0.905442 3.60931V4.10624L2.39624 2.61544L2.09547 2.32774L2.78856 1.72619L2.20009 1.19003L2.69702 0.745401L3.37703 1.43849L4.86784 0H4.92015ZM0.866211 0V1.08541L1.15391 0.745401V0.248467H1.59853L1.89931 0H0.866211ZM3.82166 0H3.58627V0.196158L3.82166 0Z" fill="#FFC72C"/>
<path d="M0.862686 7.27002V7.9108L1.80425 8.80005L1.45116 9.08775L2.14425 9.74161L1.84348 9.977V9.58469H1.255V10.0816L2.58888 11.3239H3.24274L3.33428 10.827H2.87658L3.26889 10.4739L4.3543 11.4678L3.26889 12.357L2.87658 12.0039H3.26889L3.16427 11.5201H2.52349L1.24193 12.854V13.3378H1.89579V12.854L2.18348 13.1417L1.49039 13.7432L1.8304 14.0832L0.849609 14.9725V15.574L2.48426 14.0832L2.19656 13.7432L2.83734 13.1417L2.2881 12.6055L2.64119 12.2524L3.37351 12.854L5.00816 11.3632L3.37351 9.88546L2.64119 10.5785L2.2881 10.2255L2.83734 9.6893L2.18348 9.03544L2.48426 8.76082L0.914995 7.27002H0.862686ZM0.862686 10.2255V12.6055L1.20269 12.2132V11.7162H1.59501L1.94809 11.4155L1.59501 11.1147H1.20269V10.6308L0.862686 10.2255ZM3.58275 11.0755V11.7162L3.92275 11.4155L3.58275 11.0755Z" fill="#383739"/>
<path d="M0.866211 7.36011V7.85704L1.847 8.7986L1.5593 9.0863L2.25239 9.74016L1.80777 10.0802V9.63554H1.31084V10.0279L2.5924 11.2702H3.18088L3.28549 10.9171H2.78856L3.3378 10.4202L4.47552 11.4141L3.3378 12.408L2.84087 11.911H3.28549L3.18088 11.6102H2.5924L1.31084 12.7872V13.1926H1.80777V12.6956L2.25239 13.1403L1.5593 13.7418L1.847 14.0818L0.866211 15.0234V15.5203L2.34393 14.0295L2.04316 13.7418L2.73625 13.1403L2.14778 12.6041L2.64471 12.1595L3.37703 12.8526L4.92015 11.4141L3.3378 9.97555L2.5924 10.6687L2.14778 10.2763L2.73625 9.74016L2.04316 9.0863L2.39624 8.7986L0.866211 7.36011ZM0.866211 10.3286V12.4995L1.15391 12.2118V11.7149H1.59853L1.89931 11.4141L1.59853 11.1656H1.15391V10.6687L0.866211 10.3286ZM3.6255 11.1656V11.6102L3.88705 11.4141L3.6255 11.1656Z" fill="#FFC72C"/>
<path d="M0.862686 19.0806V19.7737L1.80425 20.6629L1.45116 20.9637L2.14425 21.5522L1.84348 21.8529V21.4606H1.255V21.9445L2.58888 23.1214H3.24274L3.33428 22.7291H2.87658L3.26889 22.3368L4.3543 23.2783L3.26889 24.2722L2.87658 23.8276H3.26889L3.16427 23.383H2.52349L1.18962 24.6122V25.1092H1.88271V24.7168L2.18348 24.9653L1.49039 25.6061L1.8304 25.8938L0.849609 26.7961V27.4369L2.48426 25.9461L2.19656 25.6061L2.83734 24.9522L2.2881 24.4684L2.64119 24.0761L3.37351 24.7168L5.00816 23.226L3.37351 21.7483L2.64119 22.4414L2.2881 22.0491L2.83734 21.5522L2.18348 20.8983L2.48426 20.6106L0.914995 19.1329L0.862686 19.0806ZM0.862686 22.0491V24.3638L1.20269 24.0238V23.5268H1.59501L1.94809 23.226L1.59501 22.886H1.20269V22.4414L0.862686 22.0491ZM3.58275 22.886V23.5399L3.92275 23.1868L3.58275 22.886Z" fill="#383739"/>
<path d="M0.866211 19.1335V19.6174L1.847 20.6113L1.57238 20.9251L2.26547 21.5136L1.82085 21.9059V21.4221H1.31084V21.9059L2.5924 23.0436H3.18088L3.28549 22.7036H2.78856L3.3378 22.2067L4.47552 23.2006L3.3378 24.2337L2.84087 23.7367H3.28549L3.18088 23.3967H2.5924L1.31084 24.626V25.0183H1.80777V24.5344L2.25239 24.9267L1.5593 25.5675L1.847 25.8683L0.866211 26.8491V27.346L2.34393 25.8683L2.04316 25.5675L2.73625 24.9137L2.14778 24.4298L2.64471 23.9329L3.37703 24.7175L4.92015 23.2398L3.3378 21.8667L2.5924 22.5467L2.14778 22.1021L2.73625 21.6182L2.04316 20.9644L2.39624 20.6767L0.866211 19.1335ZM0.866211 22.089V24.3121L1.15391 23.9721V23.4752H1.59853L1.89931 23.2267L1.59853 22.939H1.15391V22.4421L0.866211 22.1413V22.089ZM3.6255 22.9782V23.4229L3.88705 23.1875L3.6255 22.9782Z" fill="#FFC72C"/>
<path d="M0.862686 30.8876V31.4891L1.80425 32.3784L1.45116 32.6661L2.14425 33.3199L1.84348 33.6076V33.2153H1.255V33.7123L2.58888 34.8892H3.24274L3.33428 34.4446H2.87658L3.26889 34.1046L4.3543 35.0461L3.26889 35.9746L2.87658 35.5823H3.26889L3.16427 35.1377H2.52349L1.18962 36.38V36.8769H1.88271V36.4846L2.18348 36.72L1.49039 37.3739L1.8304 37.6616L0.849609 38.5508V39.2047L2.48426 37.7008L2.19656 37.3477L2.83734 36.7069L2.2881 36.21L2.64119 35.8177L3.37351 36.5108L5.00816 35.0331L3.37351 33.5423L2.64119 34.1961L2.2881 33.843L2.83734 33.3461L2.18348 32.653L2.48426 32.3653L0.914995 30.8745L0.862686 30.8876ZM0.862686 33.8561V36.1839L1.20269 35.7915V35.3338H1.59501L1.96117 35.0461L1.60809 34.6931H1.21577V34.2615L0.862686 33.8561ZM3.58275 34.6931V35.3469L3.92275 34.9938L3.58275 34.6931Z" fill="#383739"/>
<path d="M0.862686 30.9399V31.4369L1.84348 32.4177L1.55578 32.6792L2.24887 33.3069L1.80425 33.6992V33.2154H1.30731V33.66L2.58888 34.8369H3.17735L3.28197 34.4969H2.78504L3.33428 34L4.47199 34.9939L3.33428 36.0401L2.83734 35.53H3.28197L3.17735 35.19H2.58888L1.30731 36.367V36.8247H1.80425V36.3278L2.24887 36.7201L1.55578 37.3739L1.8304 37.6616L0.849609 38.6555V39.1393L2.34041 37.6616L2.03963 37.3608L2.73273 36.7201L2.14425 36.2231L2.64119 35.7393L3.37351 36.4716L4.91662 34.9939L3.33428 33.6077L2.58888 34.3008L2.14425 33.8562L2.73273 33.3592L2.03963 32.6661L2.39272 32.3784L0.862686 30.9399ZM0.862686 33.9085V36.1316L1.15039 35.7785V35.3077H1.59501L1.89579 35.0462L1.59501 34.7585H1.15039V34.2616L0.862686 33.9739V33.9085ZM3.62198 34.7977V35.2423L3.88352 34.9808L3.62198 34.7977Z" fill="#FFC72C"/>
<path d="M0.862686 42.7092V43.2977L1.80425 44.187L1.45116 44.4877L2.14425 45.1285L1.84348 45.377V44.9847H1.255V45.4685L2.58888 46.7109H3.24274L3.33428 46.2662H2.87658L3.26889 45.8739L4.3543 46.8547L3.26889 47.7963L2.87658 47.4039H3.26889L3.16427 46.9593H2.52349L1.18962 48.1886V48.6855H1.88271V48.2409L2.18348 48.5286L1.49039 49.1824L1.8304 49.4701L0.849609 50.3594V50.9609L2.48426 49.4701L2.19656 49.1824L2.83734 48.5286L2.2881 47.9924L2.64119 47.6393L3.37351 48.3324L5.00816 46.8547L3.37351 45.377L2.64119 46.0178L2.2881 45.6647L2.83734 45.1285L2.18348 44.4747L2.48426 44.2L0.862686 42.7092ZM0.862686 45.6647V47.9924L1.20269 47.6001V47.1555H1.59501L1.94809 46.8024L1.59501 46.5147H1.20269V46.0178L0.862686 45.6647ZM3.58275 46.5147V47.1032L3.92275 46.8024L3.58275 46.5147Z" fill="#383739"/>
<path d="M0.866211 42.7625V43.2463L1.83392 44.2009L1.54623 44.5017L2.23932 45.1425L1.79469 45.5348V45.0379H1.31084V45.4825L2.5924 46.6595H3.18088L3.28549 46.3195H2.78856L3.3378 45.8356L4.47552 46.8164L3.3378 47.8626L2.84087 47.3656H3.28549L3.18088 47.0125H2.5924L1.31084 48.2026V48.6472H1.80777V48.1503L2.25239 48.5426L1.5593 49.1964L1.847 49.4841L0.866211 50.478V50.9226L2.34393 49.4318L2.04316 49.1703L2.73625 48.5295L2.14778 47.9933L2.64471 47.5487L3.37703 48.2418L4.92015 46.8033L3.3378 45.3648L2.5924 46.071L2.14778 45.6787L2.73625 45.1294L2.04316 44.4756L2.39624 44.1879L0.866211 42.7625ZM0.866211 45.7179V47.941L1.15391 47.6402V47.1564H1.59853L1.89931 46.8556L1.59853 46.6071H1.15391V46.1102L0.866211 45.7702V45.7179ZM3.6255 46.5548V47.0518L3.88705 46.8033L3.6255 46.5548Z" fill="#FFC72C"/>
<path d="M13.665 0H14.2535L15.2474 0.993868L15.7443 0.496934H15.352L15.4435 0.104618H16.0843L17.4182 1.28157V1.7785H16.7382V1.38618L16.4374 1.68696L17.1305 2.27543L16.7905 2.57621L17.7844 3.46546V4.10624L16.1366 2.61544L16.4243 2.27543L15.7835 1.68696L16.3328 1.13772L15.9797 0.745401L15.2474 1.47772L13.665 0ZM17.8105 0V1.13772L17.4182 0.784632V0.300776H17.0259L16.6728 0H17.8105ZM14.6981 0H15.0905L15.0512 0.300776L14.6981 0Z" fill="#383739"/>
<path d="M13.7566 0H14.1489L15.2997 0.993868L15.7836 0.496934H15.339L15.4436 0.143849H16.0321L17.3267 1.38618V1.7785H16.8298V1.28157L16.4374 1.72619L17.0782 2.32774L16.7775 2.66775L17.7713 3.60931V4.10624L16.2805 2.61544L16.5813 2.32774L15.8882 1.72619L16.4767 1.19003L15.9797 0.745401L15.339 1.47772L13.7305 0H13.7566ZM17.8106 0V1.08541L17.4706 0.745401V0.248467H17.0259L16.7644 0H17.8106ZM14.7505 0H15.0513V0.196158L14.7505 0Z" fill="#FFC72C"/>
<path d="M17.8114 7.27002V7.9108L16.8307 8.80005L17.1707 9.08775L16.4776 9.74161L16.7783 9.977V9.58469H17.3668V10.0816L16.0329 11.3239H15.3922L15.3006 10.827H15.6929L15.3006 10.4739L14.2544 11.4678L15.2483 12.357L15.6929 12.0039H15.3006L15.3922 11.5201H16.046L17.3668 12.8017V13.2986H16.7391V12.854L16.4383 13.1417L17.1314 13.7432L16.7914 14.0832L17.7853 14.9725V15.574L16.1506 14.0832L16.4383 13.7432L15.7976 13.1417L16.3468 12.6055L15.9937 12.2524L15.2614 12.854L13.6006 11.3632L15.2352 9.88546L15.9676 10.5785L16.3206 10.2255L15.7714 9.6893L16.4253 9.03544L16.1245 8.74774L17.7591 7.27002H17.8114ZM17.8114 10.2255V12.6055L17.4191 12.2132V11.7162H17.0268L16.6737 11.4155L17.0268 11.1147H17.4191V10.6308L17.8114 10.2255ZM15.0522 11.0755L15.0914 11.4155L15.0522 11.7162L14.6991 11.4155L15.0522 11.0755Z" fill="#383739"/>
<path d="M17.808 7.36401V7.86095L16.7226 8.7502L17.0233 9.05097L16.3695 9.69176L16.7618 10.0318V9.58714H17.2718V9.97945L15.9772 11.2218H15.3887L15.2971 10.8687H15.781L15.2448 10.3848L14.1071 11.3657L15.2448 12.3595L15.7418 11.8626H15.2971L15.3887 11.5618H15.9772L17.2718 12.7519V13.1442H16.7749V12.6603L16.3826 13.1049L17.0233 13.6934L16.7226 14.0334L17.7164 14.975V15.4719L16.2125 13.9942L16.5133 13.6934L15.8202 13.1049L16.4087 12.5557L15.9248 12.1111L15.2318 12.8042L13.6494 11.3657L15.2187 9.92715L15.9641 10.6334L16.4087 10.241L15.8202 9.69176L16.5133 9.0379L16.1733 8.7502L17.808 7.36401ZM17.808 10.3325V12.5034L17.468 12.2157V11.7188H17.0233L16.7618 11.418L17.0233 11.1695H17.468V10.6726L17.808 10.3325ZM14.9964 11.1695L15.0487 11.4311V11.6141L14.7479 11.418L14.9964 11.1695Z" fill="#FFC72C"/>
<path d="M17.814 19.0806V19.7737L16.8332 20.6629L17.1732 20.9637L16.4801 21.5522L16.7809 21.8529V21.4606H17.3694V21.9445L16.0355 23.1214H15.3947L15.2509 22.7291H15.6432L15.2509 22.3368L14.257 23.226L15.2509 24.2199L15.6955 23.7753H15.3032L15.3947 23.3307H16.0486L17.3694 24.5599V25.0568H16.7417V24.6645L16.4409 24.913L17.134 25.5538L16.794 25.8546L17.7878 26.7438V27.3846L16.1401 25.8938L16.4278 25.5538L15.787 24.8999L16.3363 24.4161L15.9832 24.0238L15.2509 24.7168L13.6162 23.226L15.2509 21.7483L15.9832 22.4414L16.3363 22.0491L15.787 21.5522L16.4409 20.8983L16.1401 20.6106L17.7748 19.1329L17.814 19.0806ZM17.814 22.0491V24.3638L17.4217 24.0238V23.5268H17.0294L16.6763 23.226L17.0294 22.886H17.4217V22.4414L17.814 22.0491ZM15.0547 22.886L15.0939 23.1868L15.0547 23.5268L14.7016 23.1868L15.0547 22.886Z" fill="#383739"/>
<path d="M17.808 19.1335V19.6174L16.7618 20.6113L17.0756 20.912L16.4218 21.5005L16.8141 21.8928V21.409H17.3241V21.8928L16.0295 23.0306H15.441L15.3364 22.6905H15.8333L15.2448 22.2459L14.1071 23.2267L15.2448 24.2729L15.7418 23.776H15.2971L15.3887 23.4229H15.9772L17.2718 24.6652V25.0575H16.7749V24.5606L16.3826 24.9529L17.0233 25.6068L16.7226 25.8945L17.7164 26.8883V27.3853L16.2125 25.8945L16.5133 25.6068L15.8202 24.9529L16.4087 24.469L15.9248 23.9721L15.2318 24.7175L13.6494 23.2267L15.2187 21.8536L15.9641 22.5336L16.4087 22.089L15.8202 21.6051L16.5133 20.9513L16.1733 20.6636L17.808 19.1335ZM17.808 22.089V24.3121L17.468 23.9721V23.4752H17.0233L16.7618 23.2267L17.0233 22.939H17.468V22.4421L17.808 22.1413V22.089ZM14.9964 22.9782L15.0487 23.1875V23.4229L14.7479 23.1875L14.9964 22.9782Z" fill="#FFC72C"/>
<path d="M17.8114 30.8867V31.4883L16.8307 32.3775L17.1707 32.6652L16.4776 33.3191L16.7783 33.6068V33.2145H17.3668V33.7114L16.0329 34.8883H15.3922L15.3006 34.4437H15.6929L15.3006 34.1037L14.2544 35.0453L15.2483 35.9738L15.6929 35.5814H15.3006L15.3922 35.1368H16.046L17.3668 36.3791V36.8761H16.7391V36.4838L16.4383 36.7192L17.1314 37.373L16.7914 37.6607L17.7853 38.55V39.2038L16.1506 37.713L16.4383 37.3599L15.7976 36.7192L16.3468 36.2222L15.9937 35.8299L15.2614 36.523L13.6006 35.0453L15.2352 33.5545L15.9676 34.2083L16.3206 33.8552L15.7714 33.3583L16.4253 32.6652L16.1245 32.3775L17.7591 30.8867H17.8114ZM17.8114 33.8552V36.183L17.4191 35.7907V35.333H17.0268L16.6737 35.0453L17.0268 34.6922H17.4191V34.2606L17.8114 33.8552ZM15.0522 34.6922L15.0914 34.993L15.0522 35.333L14.6991 34.993L15.0522 34.6922Z" fill="#383739"/>
<path d="M17.808 30.9399V31.4369L16.7618 32.4177L17.0757 32.6792L16.4218 33.3069L16.8141 33.6992V33.2154H17.3242V33.66L16.0295 34.8369H15.441L15.3364 34.4969H15.8334L15.2972 34L14.1595 34.9939L15.2972 36.0401L15.781 35.53H15.3364L15.441 35.19H16.0295L17.3242 36.367V36.8247H16.8272V36.3278L16.4349 36.7201L17.0757 37.3739L16.7749 37.6616L17.7688 38.6555V39.1393L16.278 37.6616L16.5788 37.3608L15.8857 36.7201L16.4741 36.2231L15.9772 35.7393L15.2972 36.4716L13.7148 34.9939L15.2841 33.6077L16.0295 34.3008L16.4741 33.8562L15.8857 33.3592L16.5788 32.6661L16.2257 32.3784L17.808 30.9399ZM17.808 33.9085V36.1316L17.468 35.7785V35.3077H17.0234L16.7618 35.0462L17.0234 34.7585H17.468V34.2616L17.808 33.9739V33.9085ZM14.9964 34.7977L15.0487 34.9939V35.2423L14.7479 34.9808L14.9964 34.7977Z" fill="#FFC72C"/>
<path d="M17.8097 42.7092V43.2977L16.8289 44.187L17.1689 44.4877L16.4758 45.1285L16.7766 45.377V44.9847H17.3651V45.4685L16.0312 46.7109H15.3904L15.2989 46.2662H15.6912L15.2989 45.8739L14.2527 46.8547L15.2466 47.7963L15.6912 47.4039H15.2989L15.3904 46.9593H16.0443L17.3651 48.1886V48.6855H16.7374V48.2409L16.4366 48.5286L17.1297 49.1824L16.7897 49.4701L17.7836 50.3594V50.9609L16.1489 49.4701L16.4366 49.1824L15.7958 48.5286L16.3451 47.9924L15.992 47.6393L15.2597 48.3324L13.625 46.8547L15.2597 45.377L15.992 46.0178L16.3451 45.6647L15.7958 45.1285L16.4497 44.4747L16.1489 44.187L17.8097 42.7092ZM17.8097 45.6647V47.9924L17.4174 47.6001V47.1555H17.0251L16.672 46.8024L17.0251 46.5147H17.4174V46.0178L17.8097 45.6647ZM15.0504 46.5147L15.0896 46.8024L15.0504 47.1032L14.6973 46.8024L15.0504 46.5147Z" fill="#383739"/>
<path d="M17.808 42.7625V43.2463L16.7356 44.2009L17.0364 44.5017L16.3826 45.1425L16.7749 45.5348V45.0379H17.2849V45.4825L15.9902 46.6595H15.4018L15.3102 46.3195H15.7941L15.2579 45.8356L14.1202 46.8164L15.2579 47.8626L15.7548 47.3656H15.2971L15.3887 47.0125H15.9772L17.2718 48.2026V48.6472H16.7749V48.1503L16.3826 48.5426L17.0233 49.1964L16.7226 49.4841L17.7164 50.478V50.9226L16.2125 49.4318L16.5133 49.1703L15.8202 48.5295L16.4087 47.9933L15.9248 47.5487L15.2318 48.2418L13.6494 46.8033L15.2187 45.3648L15.9641 46.071L16.4087 45.6787L15.8202 45.1294L16.5133 44.4756L16.1733 44.1879L17.808 42.7625ZM17.808 45.7179V47.941L17.468 47.6402V47.1564H17.0233L16.7618 46.8556L17.0233 46.6071H17.468V46.1102L17.808 45.7702V45.7179ZM14.9964 46.5548L15.0487 46.8164V47.0518L14.7479 46.8033L14.9964 46.5548Z" fill="#FFC72C"/>
<path d="M2.19896 55.5535C2.2905 55.9066 2.59127 56.1551 2.69589 56.5474C2.78743 56.1551 2.89205 55.802 2.82666 55.4097C2.73512 55.1089 2.48666 54.9128 2.48666 54.5728C2.19896 54.8081 2.14665 55.1612 2.19896 55.5535ZM2.14665 57.0443C2.39156 57.366 2.71608 57.6185 3.08821 57.7767C2.98359 57.489 3.08821 57.2797 3.28437 57.0443C3.42821 56.7828 3.53283 56.5474 3.37591 56.1943C3.31763 56.3524 3.23844 56.5019 3.14052 56.639C2.97417 56.8353 2.86956 57.0765 2.83974 57.332C2.64358 57.1882 2.59127 56.992 2.48666 56.7959C2.33276 56.5032 2.09633 56.2621 1.80664 56.1028C1.89818 56.4428 1.93741 56.7436 2.14665 57.0443ZM3.48052 58.0251L3.37591 58.5221L2.83974 58.1298C2.59127 57.8682 2.2905 57.7767 2.09434 57.4759C2.09727 57.6609 2.14393 57.8425 2.23024 58.006C2.31655 58.1696 2.44021 58.3105 2.59127 58.4175L3.63745 59.0713C3.58514 58.7182 3.72899 58.4175 3.82053 58.0774C3.85212 57.9404 3.85087 57.7979 3.81676 57.6615C3.78266 57.5251 3.71675 57.3988 3.62437 57.2928C3.62437 57.5282 3.53283 57.7767 3.48052 57.9728V58.0251ZM4.17362 59.1629L4.56593 59.8559C4.22592 59.7513 3.92515 59.5552 3.58514 59.359C3.23206 59.1629 2.83974 59.0713 2.48666 58.7705C2.56658 59.0527 2.71828 59.3093 2.92678 59.5155C3.13529 59.7218 3.39359 59.8706 3.67668 59.9475C4.12131 60.0521 4.46131 59.9998 4.95825 60.209C4.896 59.8623 4.78134 59.5272 4.61824 59.2152L4.31746 58.5221C4.24413 58.6122 4.19297 58.7183 4.16797 58.8319C4.14296 58.9455 4.14495 59.0633 4.17362 59.1759V59.1629ZM5.45518 60.1044C5.58093 60.305 5.75083 60.4749 5.95212 60.6013C5.45518 60.6013 5.06287 60.3398 4.56593 60.3006C4.27823 60.3006 3.97746 60.4052 3.67668 60.3529C4.069 60.6013 4.42208 60.8498 4.85363 60.8498C5.40287 60.9414 5.95211 60.8498 6.5929 60.8498C6.32696 60.6516 6.1081 60.397 5.95212 60.1044C5.70365 59.7121 5.45518 59.4506 5.01056 59.4113L5.50749 60.1044H5.45518ZM7.19445 60.889C6.34443 61.046 5.50749 61.2421 4.61824 61.2421C5.54829 61.6296 6.59101 61.6484 7.53446 61.2944C8.03139 61.1375 8.47602 60.9937 8.86833 61.0329C9.45681 61.0329 10.1499 61.3337 10.9476 62.1314L11.2484 61.8829C10.693 61.4192 10.0391 61.0888 9.3365 60.9165C8.63388 60.7443 7.90125 60.7348 7.19445 60.889Z" fill="#FFC72C"/>
<path d="M2.97993 7.36072L1.59375 6.53686V4.54912L2.97993 3.6991V2.61369L4.22227 1.88137H5.26844L7.23003 0.743652H11.3886L13.3632 1.88137H14.3571L15.7433 2.61369V3.6991L17.0772 4.54912V6.5107L15.7433 7.36072V8.4069L14.4486 9.19153H13.4025L11.4409 10.2769H7.28233L5.30768 9.19153H4.31381L2.92762 8.4069L2.97993 7.36072Z" fill="#383739"/>
<path d="M7.23436 0.784668L5.27278 1.92238H4.27891L2.98427 2.66779V3.71396L1.65039 4.5509V6.51248L2.98427 7.31019V8.40868L4.27891 9.141H5.2597L7.23436 10.2264H11.3929L13.3676 9.141H14.3614L15.643 8.40868V7.31019L16.9769 6.52556V4.5509L15.643 3.70088V2.66779L14.3614 1.92238H13.3676L11.3929 0.784668H7.23436ZM7.33898 1.22929H11.2883L13.276 2.32778H14.2568L15.2507 2.86394V3.94935L16.5846 4.79937V6.27709L15.1984 7.11404V8.16021L14.2568 8.74869H13.276L11.2883 9.83409H7.33898L5.36432 8.76176H4.37045L3.37658 8.17329V7.12711L2.04271 6.27709V4.79937L3.42889 3.94935V2.87702L4.42276 2.34086H5.40355L7.33898 1.22929Z" fill="#00843D"/>
<path d="M9.31041 5.53238V1.22998H7.33576L5.40033 2.3677H4.41954L3.42567 2.86463V3.95004L2.0918 4.80006V5.49315H9.31041V9.78247H11.2851L13.2728 8.69706H14.2536L15.1428 8.1609V7.06241L16.529 6.22547V5.53238H9.31041Z" fill="#FFC72C"/>
<path d="M2.0918 5.53325V6.22634L3.47798 7.06328V8.16177L4.36723 8.64563H5.41341L7.37499 9.78334H9.31041V5.49402H16.529V4.80093L15.1428 3.95091V2.97012L14.2536 2.35549H13.2728L11.2851 1.21777H9.32349V5.53325H2.0918Z" fill="white"/>
<path d="M5.05905 2.77227L4.71904 2.41919L4.41826 2.61535L4.75827 2.96843L4.27441 3.2169H5.2552L6.03984 4.00153L6.30138 3.70076L5.50367 2.96843V2.4715L5.05905 2.77227Z" fill="#383739"/>
<path d="M6.63956 2.61704L6.29955 2.32935L5.99878 2.5255L6.33879 2.8132L5.84185 3.07475H6.83572L7.62035 3.85938L7.8819 3.5586L7.13649 2.8132V2.32935L6.63956 2.61704ZM4.9526 3.61091L4.61259 3.31014L4.27259 3.57168L4.61259 3.85938L4.16797 4.10785H5.16184L5.94647 4.89248L6.19494 4.5917L5.4103 3.85938V3.36244L4.9526 3.61091Z" fill="#383739"/>
<path d="M9.31045 1.22998H8.47351L8.02889 1.6223H7.13964L6.53809 1.97538L6.69501 2.32847L7.23118 2.02769H7.49272L8.36889 3.02156L9.31045 2.47231V1.22998Z" fill="#383739"/>
<path d="M4.70609 2.47083L5.00687 2.7716L4.7584 2.91545L4.4707 2.66699L4.70609 2.47083ZM5.5038 2.57545V2.96776L6.2492 3.70009L6.05304 3.90932L5.26841 3.16392H4.4707L5.45149 2.51006L5.5038 2.57545ZM6.28843 2.36621L6.58921 2.62776L6.34074 2.81084L6.05304 2.52314L6.28843 2.36621ZM7.08614 2.36621V2.87622L7.83155 3.56931L7.63539 3.81778L6.85076 2.98084H6.05304L7.03384 2.37929L7.08614 2.36621Z" fill="#D22630"/>
<path d="M4.61272 3.4008L4.9135 3.66234L4.65196 3.80619L4.36426 3.55772L4.61272 3.4008ZM5.35813 3.4008V3.92388L6.14276 4.6039L5.9466 4.81313L5.16197 4.06773H4.37733L5.35813 3.4008ZM9.30744 1.22998H8.4705L8.02588 1.72691H7.18894L6.58738 1.98846L6.692 2.27616L7.18894 1.9623H7.52894L8.31357 2.95617L9.30744 2.45924V1.22998Z" fill="#D22630"/>
<path d="M5.05905 8.3041L4.71904 8.60488L4.41826 8.40872L4.75827 8.10794L4.27441 7.80717H5.2552L6.03984 7.06177L6.30138 7.36254L5.49059 8.10794V8.60488L5.05905 8.3041Z" fill="#383739"/>
<path d="M6.63956 8.41101L6.29955 8.75101L5.99878 8.55486L6.33879 8.25408L5.84185 7.96638H6.83572L7.62035 7.22098L7.8819 7.46945L7.13649 8.20177V8.69871L6.63956 8.41101ZM4.9526 7.41714L4.61259 7.71791L4.27259 7.50868L4.61259 7.22098L4.16797 6.92021H5.16184L5.94647 6.1748L6.19494 6.43635L5.4103 7.16867V7.66561L4.9526 7.41714Z" fill="#383739"/>
<path d="M9.31045 9.83642H8.47351L8.02889 9.3918H7.13964L6.53809 9.09102L6.69501 8.69871L7.23118 8.99948H7.49272L8.36889 8.00562L9.36276 8.60717L9.31045 9.83642Z" fill="#383739"/>
<path d="M4.70609 8.55324L5.00687 8.25246L4.7584 8.10861L4.4707 8.40939L4.70609 8.55324ZM5.5038 8.50093V8.0563L6.2492 7.3109L6.05304 7.11475L5.26841 7.86015H4.4707L5.45149 8.51401L5.5038 8.50093ZM6.28843 8.69709L6.58921 8.40939L6.34074 8.25246L6.05304 8.55324L6.28843 8.69709ZM7.08614 8.64478V8.16092L7.83155 7.46783L7.63539 7.27167L6.85076 8.004H6.05304L7.03384 8.65786L7.08614 8.64478Z" fill="#D22630"/>
<path d="M4.61272 7.66237L4.9135 7.36159L4.65196 7.21774L4.36426 7.50544L4.61272 7.66237ZM5.35813 7.61006V7.16544L6.14276 6.42004L5.9466 6.22388L5.16197 6.96928H4.37733L5.35813 7.61006ZM9.30744 9.78088H8.4705L8.02588 9.33625H7.18894L6.58738 9.04855L6.692 8.78701L7.18894 9.04855H7.52894L8.36588 8.05469L9.30744 8.60393V9.78088Z" fill="#D22630"/>
<path d="M4.50799 4.14786L4.11568 4.01709L3.57951 4.3571V4.44864L2.72949 5.53405L3.57951 6.58022V6.67176L4.06337 7.06408L4.50799 6.93331L4.2726 6.72407V6.4233L4.36414 6.33176H4.80877V4.74941H4.31183L4.2726 4.6448V4.31787L4.50799 4.14786Z" fill="#383739"/>
<path d="M3.61526 4.39396L4.11219 4.05396L4.41307 4.1455L4.21681 4.30242V4.64243L4.30835 4.79936H4.75298V6.27708H4.30835L4.21681 6.42093V6.77401L4.41307 6.86555L4.11219 7.02248L3.61526 6.6694V6.57786L2.77832 5.53168L3.61526 4.44627V4.39396Z" fill="#D22630"/>
<path d="M13.5597 2.77227L13.9128 2.41919L14.2005 2.61535L13.9128 2.96843L14.3051 3.2169H13.3636L12.5789 4.00153L12.3174 3.70076L13.1151 2.96843V2.4715L13.5597 2.77227Z" fill="#383739"/>
<path d="M11.979 2.61704L12.3321 2.32935L12.6198 2.5255L12.3321 2.8132L12.7244 3.07475H11.7698L10.9852 3.85938L10.7236 3.5586L11.5213 2.8132V2.32935L11.979 2.61704ZM13.666 3.61091L14.006 3.31014L14.3591 3.57168L14.006 3.85938L14.4506 4.10785H13.4698L12.7244 4.94479L12.476 4.64401L13.2606 3.91169V3.40168L13.666 3.61091Z" fill="#383739"/>
<path d="M9.30957 1.22998H10.1465L10.6434 1.6223H11.4804L12.1342 1.97538L11.9773 2.32847L11.3888 2.02769H11.1404L10.2511 3.02156L9.30957 2.47231V1.22998Z" fill="#383739"/>
<path d="M13.9093 2.47083L13.6085 2.7716L13.8569 2.91545L14.1577 2.66699L13.9093 2.47083ZM13.1639 2.57545V2.96776L12.3792 3.70009L12.5754 3.90932L13.36 3.16392H14.1446L13.1639 2.51006V2.57545ZM12.2746 2.36621L11.9738 2.62776L12.2354 2.81084L12.5231 2.52314L12.2746 2.36621ZM11.5292 2.36621V2.87622L10.7969 3.56931L10.993 3.81778L11.7777 2.98084H12.5623L11.5815 2.37929L11.5292 2.36621Z" fill="#D22630"/>
<path d="M14.0043 3.40017L13.7166 3.66171L13.952 3.80556L14.2528 3.5571L14.0043 3.40017ZM13.272 3.40017V3.92326L12.4743 4.60327L12.6704 4.81251L13.455 4.06711H14.2528L13.272 3.40017ZM9.30957 1.24243H10.1465L10.5911 1.73937H11.4412L12.0296 2.00091L11.925 2.28861L11.4412 1.98783H11.1404L10.2511 2.9817L9.30957 2.48477V1.24243Z" fill="#D22630"/>
<path d="M13.5597 8.3041L13.9128 8.60488L14.2005 8.40872L13.9128 8.10794L14.3051 7.80717H13.3636L12.5789 7.06177L12.3174 7.36254L13.1151 8.10794V8.60488L13.5597 8.3041Z" fill="#383739"/>
<path d="M11.979 8.41101L12.3321 8.75101L12.6198 8.55486L12.3321 8.25408L12.7244 7.96638H11.7698L10.9852 7.22098L10.7236 7.46945L11.5213 8.20177V8.69871L11.979 8.41101ZM13.666 7.41714L13.9929 7.71791L14.346 7.50868L13.9929 7.22098L14.4376 6.92021H13.4698L12.6852 6.1748L12.4237 6.43635L13.2083 7.16867V7.66561L13.666 7.41714Z" fill="#383739"/>
<path d="M9.30957 9.83642H10.1465L10.6434 9.3918H11.4804L12.1342 9.09102L11.9773 8.69871L11.3888 8.99948H11.1404L10.2511 8.00562L9.30957 8.60717V9.83642Z" fill="#383739"/>
<path d="M13.9093 8.55324L13.5954 8.23939L13.8569 8.10861L14.1577 8.40939L13.9093 8.55324ZM13.1639 8.50093V8.0563L12.3792 7.3109L12.5754 7.11475L13.36 7.86015H14.1446L13.1639 8.50093ZM12.3269 8.69709L12.0261 8.40939L12.2746 8.25246L12.5754 8.55324L12.3269 8.69709ZM11.5815 8.64478V8.16092L10.7969 7.50706L10.98 7.32398L11.7646 8.06938H12.5492L11.5684 8.72324L11.5815 8.64478Z" fill="#D22630"/>
<path d="M14.0043 7.66237L13.7166 7.36159L13.952 7.21774L14.2528 7.50544L14.0043 7.66237ZM13.272 7.61006V7.16544L12.4743 6.42004L12.6704 6.22388L13.455 6.96928H14.2528L13.272 7.61006ZM9.30957 9.78088H10.1465L10.5911 9.33625H11.4412L12.0296 9.04855L11.925 8.78701L11.4412 9.04855H11.1404L10.2511 8.05469L9.30957 8.60393V9.78088Z" fill="#D22630"/>
<path d="M14.1055 4.14786L14.4978 4.01709L15.047 4.3571V4.44864L15.884 5.53405L15.047 6.58022V6.67176L14.5501 7.06408L14.1055 6.93331L14.3539 6.72407V6.4233L14.2493 6.33176H13.8047V4.74941H14.3016L14.3539 4.6448V4.31787L14.1055 4.14786Z" fill="#383739"/>
<path d="M14.999 4.39396L14.5021 4.05396L14.2013 4.1455L14.3975 4.30242V4.64243L14.306 4.79936H13.8613V6.27708H14.306L14.3975 6.42093V6.77401L14.2013 6.86555L14.5021 7.02248L14.999 6.6694V6.57786L15.836 5.53168L14.999 4.44627V4.39396Z" fill="#D22630"/>
<path d="M3.78196 6.42254L3.5858 6.22639V6.14792L3.08887 5.54637L3.5858 4.9579V4.8402L3.78196 4.64405L4.22658 4.99713H3.96504L4.31812 5.33714H5.10276L5.75662 4.8402V3.55864H7.28665L9.11746 2.42092V2.13322L8.81668 1.9763L8.47668 2.23784V2.36861L8.21513 2.0286L8.72514 1.63629L9.26131 1.2832H9.45747L9.9544 1.63629H10.059L10.556 2.0286L10.2944 2.36861L10.2552 2.23784L9.90209 1.9763H9.81055L9.50977 2.17245V2.48631L11.3406 3.62402H12.9229V4.90559L13.5114 5.40252H14.296L14.6491 5.06252H14.453L14.8453 4.70943L15.0545 4.90559V5.01021L15.5384 5.59868L15.0545 6.18716V6.29177L14.8453 6.48793L14.453 6.14792H14.6491L14.3091 5.79484H13.5245L12.9229 6.29177V7.57334H11.2883L9.45747 8.65875V8.95952L9.75824 9.15568H9.81055L10.1506 8.95952V8.81567L10.4121 9.15568L9.9544 9.50877H9.90209L9.36593 9.90108H9.15669L8.65976 9.50877H8.55514L8.07128 9.11645L8.35898 8.81567V8.95952L8.71207 9.15568H8.76437L9.05207 8.95952V8.65875L7.22126 7.57334H5.69123V6.2787L5.05045 5.78176H4.26582L3.92581 6.14792H4.17427L3.78196 6.42254Z" fill="#383739"/>
<path d="M9.31111 9.15414L9.55958 9.28491L9.31111 9.44184V9.15414ZM8.72264 9.38953L9.21957 9.78185H9.31111V9.49415L9.02341 9.28491L9.32419 9.07568V8.50028L7.34953 7.32333H5.91104V6.13331L5.17872 5.53175H4.041L3.77946 5.88484L3.49176 5.53175H3.13867L3.62253 6.081V6.17254L3.77946 6.38177L4.06715 6.12023H3.93638V6.081L4.27639 5.68868H5.11333L5.80642 6.17254V7.46718H7.28415L9.16726 8.6049V8.94491L8.86649 9.14106H8.72264L8.42186 8.94491V8.85336L8.2257 9.04952L8.61802 9.38953H8.72264ZM3.77946 5.24406L3.97561 5.49252H3.53099L3.77946 5.24406ZM9.31111 1.63475L9.11495 1.7786L9.31111 1.92245V1.63475ZM14.6466 5.58406L14.8428 5.78022L15.1043 5.53175L14.6466 5.58406ZM9.89959 1.63475L9.41573 1.24243H9.31111V1.53013L9.61189 1.79167L9.31111 1.97476V2.48477L11.2858 3.66171H12.7243V4.95636L13.4697 5.49252H14.6074L14.8428 5.19175L15.1435 5.49252H15.4966L14.9997 4.99559V4.83866L14.8428 4.70789L14.5551 4.94328H14.6989L14.3589 5.38791H13.5089L12.8681 4.89097V3.5571H11.2988L9.46804 2.47169V2.13168L9.75574 1.92245H9.89959L10.2004 2.13168V2.22322L10.3965 1.97476L10.0042 1.63475H9.89959Z" fill="#FFC72C"/>
<path d="M9.31111 9.44184L9.11495 9.29799L9.31111 9.14106V9.44184ZM3.97561 5.53175L3.77946 5.7933L3.51791 5.53175H3.97561ZM9.89959 9.38953L9.41573 9.78185H9.31111V9.49415L9.61189 9.29799L9.31111 9.08875V8.50028L11.2858 7.32333H12.7243V6.13331L13.4697 5.53175H14.6074L14.8428 5.88484L15.1435 5.53175H15.4966L14.9997 6.081V6.17254L14.8428 6.38177L14.5551 6.12023H14.6989V6.081L14.3589 5.68868H13.5089L12.8681 6.17254V7.46718H11.2988L9.41573 8.6049V8.94491L9.70343 9.14106H9.86035L10.1481 8.94491V8.85336L10.3442 9.04952L9.9519 9.38953H9.89959ZM14.8428 5.24406L14.6466 5.49252H15.0912L14.8428 5.24406ZM8.72264 1.63475L9.21957 1.24243H9.31111V1.53013L9.01034 1.79167L9.31111 1.97476V2.48477L7.33646 3.66171H5.89796V4.95636L5.16564 5.45329H4.02792L3.76638 5.15252L3.47868 5.45329H3.13867L3.62253 4.95636V4.81251L3.77946 4.65558L4.06715 4.91713H3.93638L4.27639 5.34867H5.11333L5.80642 4.85174V3.57017H7.28415L9.21957 2.48477V2.14476L8.9188 1.93552H8.76187L8.46109 2.14476V2.2363L8.26494 1.98783L8.65725 1.64783H8.76187L8.72264 1.63475ZM9.31111 1.97476L9.55958 1.83091L9.31111 1.68706V1.97476Z" fill="white"/>
<path d="M9.30882 5.52991V2.57446L7.33416 3.75141H5.94797V4.94144L5.25488 5.49068H9.30882V8.44613L11.2835 7.26918H12.6827V6.13146L13.3758 5.52991H9.30882Z" fill="#00843D"/>
<path d="M5.25488 5.52991L5.94797 6.13146V7.26918H7.33416L9.30882 8.44613V5.49068H13.3627L12.6697 4.94144V3.76449H11.2835L9.32189 2.57446V5.52991H5.25488Z" fill="#D22630"/>
<path d="M7.22939 4.10455L6.88939 3.75146L6.58861 4.01301L6.88939 4.30071L6.49707 4.54917H7.42555L8.21019 5.33381L8.47173 5.04611L7.6871 4.30071V3.7907L7.22939 4.10455ZM11.3879 6.96846L11.728 7.26923L12.081 7.06L11.728 6.7723L12.1203 6.47152H11.2833L10.4464 5.72612L10.1979 5.98767L10.9826 6.71999V7.21692L11.3879 6.96846ZM7.22939 6.96846L6.88939 7.26923L6.58861 7.06L6.88939 6.7723L6.49707 6.47152H7.42555L8.21019 5.72612L8.47173 5.98767L7.6871 6.71999V7.21692L7.22939 6.96846ZM11.3879 4.09147L11.728 3.75146L12.081 4.01301L11.728 4.30071L12.1203 4.54917H11.2833L10.4464 5.33381L10.1979 5.04611L10.9826 4.30071V3.7907L11.3879 4.09147Z" fill="#383739"/>
<path d="M11.7272 7.21851L11.4395 6.91773L11.688 6.77388L11.9757 7.06158L11.7272 7.21851ZM10.9949 7.1662V6.72157L10.2103 5.97617L10.3934 5.78002L11.178 6.52542H11.9757L10.9949 7.1662ZM6.83636 3.85767L7.13713 4.10613L6.87559 4.24998L6.58789 4.00152L6.83636 3.85767ZM7.58176 3.85767V4.3546L8.36639 5.04769L8.17023 5.24385L7.3856 4.49845H6.60097L7.58176 3.90997V3.85767Z" fill="#D22630"/>
<path d="M11.7272 3.85767L11.4395 4.10613L11.688 4.24998L11.9757 4.00152L11.7272 3.85767ZM10.9949 3.85767V4.3546L10.2103 5.04769L10.3934 5.24385L11.178 4.49845H11.9757L10.9949 3.85767ZM6.83636 7.25774L7.13713 6.97004L6.87559 6.82619L6.58789 7.11389L6.83636 7.25774ZM7.58176 7.21851V6.77388L8.36639 6.02848L8.17023 5.83232L7.3856 6.57772H6.60097L7.58176 7.21851Z" fill="#00843D"/>
<path d="M11.3736 5.53326L9.32049 6.93252L7.24121 5.54634L9.33356 4.16016L11.3736 5.53326Z" fill="#383739"/>
<path d="M9.3145 4.19702L7.33984 5.49166H11.2892L9.32758 4.19702V6.81246L11.2892 5.5309H7.33984L9.3145 6.82554V4.19702Z" fill="white"/>
<path d="M9.86151 5.97558V6.3679H8.81533V5.97558H8.08301V5.0471H8.81533V4.65479H9.8092V5.0471H10.5546V6.01481L9.86151 5.97558Z" fill="#383739"/>
<path d="M8.81533 4.70776V5.10008H8.08301V5.4924H9.31226V4.70776H8.81533ZM9.31226 5.4924H10.5546V5.10008H9.8092V4.70776H9.31226V5.4924ZM8.08301 5.53163V5.97625H8.81533V6.32934H9.31226V5.54471L8.08301 5.53163ZM9.31226 6.31626H9.8092V5.97625H10.5546V5.53163H9.31226V6.31626Z" fill="#D22630"/>
<path d="M12.8659 21.3027V20.7143H14.5529V20.0604H16.1875V14.5811H14.5529V13.9272H12.8659V13.3387H11.192V12.7502H7.42577V13.3387H5.75189V13.9403H4.05186V14.5811H2.44336V20.0735H4.05186V20.7535H5.75189V21.2504H7.42577V21.852H11.192V21.2504L12.8659 21.3027Z" fill="#383739"/>
<path d="M7.47639 12.8035V13.3396H5.84174V13.9412H4.18093V14.582H2.5332V20.0221H4.18093V20.6106H5.85481V21.2644H7.54177V21.8529H11.2034V21.2513H12.8773V20.6629H14.5642V20.009H16.212V14.582H14.5381V13.9935H12.7596V13.3919H11.0726V12.8165L7.47639 12.8035ZM7.97332 13.2481H10.6934V13.8366H12.3673V14.4381H14.0542V15.0789H15.7412V19.5775H14.0542V20.2705H12.3673V20.7544H10.6934V21.356H7.92101V20.7544H6.24713V20.2705H4.56017V19.6167H2.92552V15.1312H4.57325V14.4773H6.26021V13.8366H7.93409L7.97332 13.2481Z" fill="#FFC72C"/>
<path d="M6.33893 20.7519V20.1634H4.61274V19.5749H2.92578V15.1287H4.61274V14.4748H6.33893V13.8863H8.02589V13.2979H10.6936V13.834H12.3675V14.4356H14.0545V15.0764H15.7414V19.5226H14.0545V20.1111H12.276V20.7649H10.589V21.4057H7.92127V20.7519H6.33893Z" fill="#D22630"/>
<path d="M6.69341 14.3327L6.24878 13.9927V14.6335L5.85647 14.882V14.4897L5.46415 14.882L5.05876 14.4897V14.882L4.56182 14.6204V15.1697L4.22182 15.4705V15.1304L3.72488 15.4181L3.33257 15.1304V15.4705L2.87486 15.1697V16.9089H2.37793V17.7982H2.87486V19.5244L3.31949 19.2236V19.6159L3.76411 19.2759L4.20874 19.6159V19.2236L4.54875 19.5244V20.1129L5.04568 19.8252V20.2175L5.43799 19.8252L5.83031 20.2175V19.7729L6.22263 20.0213V20.6621L6.68033 20.309V20.7536L7.12495 20.3613L7.51727 20.7536V20.2698L7.90959 20.5575V21.2506L8.51114 20.7144V21.3029L9.29577 20.806L10.0804 21.3029V20.7536L10.682 21.2506V20.6098L11.0743 20.309V20.7536L11.4666 20.3613L11.9635 20.7536V20.2698L12.3558 20.6098V19.9559L12.7482 19.7205V20.1129L13.1535 19.7205L13.5459 20.1129V19.7729L14.0428 20.0606V19.4852L14.3828 19.1844V19.5767L14.8797 19.2367L15.2721 19.5898V19.1975L15.7298 19.4852V17.8113H16.2136V16.9613H15.7298V15.2351L15.2851 15.5358V15.1697L14.8274 15.4705L14.3828 15.1697V15.5228L14.0428 15.222V14.6858L13.5459 14.9212V14.5289L13.1535 14.9212L12.7612 14.5289V14.9212L12.3689 14.6858V14.032L11.9112 14.385V13.9404L11.5189 14.3327L11.022 13.9404V14.385L10.682 14.0843V13.4435L10.0935 13.9404V13.3389L9.30885 13.8358L8.51114 13.3389V13.8358L7.90959 13.3389V13.9927L7.51727 14.2804V13.8358L7.12495 14.2281L6.68033 13.8358L6.69341 14.3327Z" fill="#383739"/>
<path d="M3.37184 15.5619V15.1696L3.76416 15.4704L4.16955 15.1696V15.5619L4.56187 15.2219V19.4197L4.16955 19.132V19.472L3.77723 19.1712L3.38492 19.472V19.132L2.92722 19.4197V17.6935H2.44336V16.9481H2.92722V15.2219L3.37184 15.5619ZM6.74576 13.9927L7.13808 14.3327L7.47808 13.9927V14.4373L7.92271 14.0842V20.5313L7.47808 20.2305V20.6751L7.13808 20.322L6.74576 20.6751V20.2305L6.30113 20.5705V14.1496L6.74576 14.4504V13.9927ZM11.8851 13.9927L11.532 14.3327L11.1397 13.9927V14.4373L10.6951 14.0842V20.5313L11.1397 20.2305V20.6751L11.532 20.322L11.8851 20.6751V20.2305L12.3297 20.5705V14.1496L11.8851 14.4504V13.9927ZM15.2459 15.5619V15.1696L14.8536 15.4704L14.4613 15.1696V15.5619L14.0559 15.2219V19.4197L14.4482 19.132V19.472L14.8405 19.1712L15.2329 19.472V19.132L15.6906 19.4197V17.6935H16.1875V16.9481H15.6906V15.2219L15.2459 15.5619Z" fill="#00843D"/>
<path d="M5.10202 14.6335L5.45511 14.9212L5.80819 14.6335V14.9735L6.30512 14.6858V19.969L5.80819 19.6682V20.0606L5.45511 19.7205L5.1151 20.0606V19.6682L4.61816 19.969V14.6858L5.1151 14.9735L5.10202 14.6335ZM8.56748 13.9797L7.97901 13.4958V21.2113L8.56748 20.6621V21.2506L9.31288 20.7536L10.0583 21.2506V20.6098L10.6468 21.1067V13.5481L10.0583 14.032V13.3389L9.31288 13.8358L8.56748 13.3389V13.9797ZM13.5107 14.6335L13.1707 14.9212L12.8306 14.6335V14.9735L12.3337 14.6858V19.969L12.8306 19.6682V20.0606L13.1707 19.7205L13.563 20.0606V19.6682L14.0076 19.969V14.6858L13.5107 14.9735V14.6335Z" fill="#FFC72C"/>
<path d="M3.58173 16.5566L3.77789 16.6612C3.81712 16.6612 3.92174 16.6612 3.97405 16.5566C4.1179 16.4128 4.1179 16.112 4.1179 15.9158L3.86943 16.1643L3.77789 15.9158L3.62096 16.1643L3.4248 15.9158C3.4248 16.112 3.4248 16.4128 3.58173 16.5697V16.5566ZM5.36023 16.112L5.2033 15.9682V15.7066L4.91561 16.0205L5.39946 16.5043L6.00101 16.0205L5.70024 15.7197V15.9682L5.55639 16.112V15.6151L5.80486 15.4189L5.45177 15.1312L5.11176 15.4189L5.36023 15.6805V16.112ZM6.98181 15.6151L6.89026 15.4712V15.1704L6.53718 15.4712L7.13873 16.0205L7.63567 15.5235L7.33489 15.1704V15.4712L7.23027 15.5758V15.0789L7.49182 14.922L7.13873 14.6343L6.78565 14.922L6.98181 15.1312V15.6151Z" fill="#383739"/>
<path d="M3.77441 16.0229L3.86595 16.2191L4.06211 16.0229C4.06211 16.2583 4.02288 16.4675 3.93134 16.5068C3.91303 16.5311 3.88938 16.5509 3.86218 16.5645C3.83488 16.5781 3.80485 16.5852 3.77441 16.5852C3.74396 16.5852 3.71394 16.5781 3.68674 16.5645C3.65943 16.5509 3.63579 16.5311 3.61748 16.5068C3.52594 16.4675 3.47363 16.2583 3.47363 16.0229L3.66979 16.2191L3.77441 16.0229ZM7.17448 15.0814V15.7221L7.38372 15.4737V15.3298L7.57988 15.526L7.08294 16.0229L6.58601 15.526L6.84755 15.3298V15.526L7.03063 15.7744V15.1206L6.83448 14.9898L7.13525 14.7283L7.38372 14.9898L7.17448 15.0814Z" fill="white"/>
<path d="M5.50237 15.615V16.2165L5.75083 16.0204V15.8111L5.94699 16.0204L5.45006 16.5042L4.95312 16.0204L5.16236 15.8111V16.0204L5.35852 16.2165V15.615L5.16236 15.4188L5.45006 15.2227L5.7116 15.4188L5.50237 15.615Z" fill="#D22630"/>
<path d="M15.0365 16.5566L14.8404 16.6612C14.8011 16.6612 14.7488 16.6612 14.7096 16.5566C14.5004 16.4128 14.5004 16.112 14.5004 15.9158L14.7488 16.1643L14.8404 15.9158L14.9973 16.1643L15.1935 15.9158C15.1935 16.112 15.1935 16.4128 15.0496 16.5697L15.0365 16.5566ZM13.3103 16.112L13.415 15.9682V15.7066L13.7157 16.0205L13.2188 16.5043L12.6172 16.0205L12.918 15.7197V15.9682L13.0619 16.112V15.6151L12.8265 15.4189L13.1665 15.1312L13.5065 15.4189L13.3103 15.6805V16.112ZM11.6365 15.6151L11.728 15.4712V15.1704L12.0811 15.4712L11.5318 16.0205L10.9434 15.5235L11.2834 15.1704V15.4712L11.388 15.5758V15.0789L11.1918 14.922L11.5318 14.6343L11.8849 14.922L11.6234 15.1312L11.6365 15.6151Z" fill="#383739"/>
<path d="M14.8396 16.0229L14.7481 16.2191L14.5519 16.0229C14.5519 16.2583 14.6043 16.4675 14.6958 16.5068C14.7142 16.5287 14.7372 16.5464 14.7632 16.5586C14.7891 16.5707 14.8175 16.577 14.8461 16.577C14.8748 16.577 14.9031 16.5707 14.9291 16.5586C14.9551 16.5464 14.9782 16.5287 14.9966 16.5068C15.0881 16.4675 15.1404 16.2583 15.1404 16.0229L14.9966 16.2191L14.8396 16.0229ZM11.4396 15.0814V15.7221L11.2434 15.4737V15.3298L11.0342 15.526L11.5311 16.0229L12.028 15.526L11.7796 15.3298V15.526L11.5834 15.7744V15.1206L11.7796 14.9898L11.5311 14.7283L11.2434 14.9898L11.4396 15.0814Z" fill="white"/>
<path d="M13.1179 15.615V16.2165L12.9217 16.0204V15.8111L12.7256 16.0204L13.2225 16.5042L13.7195 16.0204L13.4579 15.8111V16.0204L13.2748 16.2165V15.615L13.471 15.4188L13.1702 15.2227L12.9217 15.4188L13.1179 15.615Z" fill="#D22630"/>
<path d="M9.95148 15.8251L9.80763 15.5244L10.2523 15.132L9.80763 14.779V15.0274L9.66378 15.1713V14.6874L10.0561 14.4259L9.3107 13.8374L8.5653 14.3343L8.95761 14.6874V15.132L8.82684 14.9751V14.7267L8.36914 15.0797L8.86607 15.4721L8.66992 15.7205L9.95148 15.8251Z" fill="#383739"/>
<path d="M8.75798 15.7744L8.9149 15.5129L8.41797 15.1206L8.77105 14.8852V15.029L9.00644 15.2775V14.689L8.66644 14.4275L9.3203 13.9436L9.948 14.4405L9.608 14.689V15.3298L9.85646 15.0682V14.9375L10.1965 15.1729L9.69954 15.5652L9.89569 15.8267L8.75798 15.7744Z" fill="#D22630"/>
<path d="M8.96582 14.4372L9.30583 14.6857L9.65891 14.4241L9.30583 14.1887L8.96582 14.4372Z" fill="#383739"/>
<path d="M9.31292 14.2419L9.56139 14.4381L9.31292 14.582L9.06445 14.4381L9.31292 14.2419Z" fill="#00843D"/>
<path d="M3.58173 18.085C3.60548 18.056 3.6354 18.0327 3.6694 18.0168C3.7033 18.0009 3.74044 17.9929 3.77789 17.9934C3.81712 17.9934 3.92174 17.9934 3.97405 18.085C4.1179 18.2419 4.1179 18.5296 4.1179 18.7388L3.86943 18.5296L3.77789 18.7258L3.62096 18.5296L3.4248 18.7258C3.4248 18.5296 3.4248 18.2419 3.58173 18.085ZM5.36023 18.5296L5.2033 18.6865V18.935L4.91561 18.6342L5.39946 18.1373L6.00101 18.6342L5.70024 18.935V18.6734L5.55639 18.5427V19.0265L5.80486 19.2227L5.45177 19.5235L5.11176 19.2227L5.36023 18.9742V18.5296ZM6.98181 19.0265L6.89026 19.1704V19.4712L6.53718 19.1704L7.13873 18.6342L7.63567 19.1704L7.33489 19.4712V19.1704L7.23027 19.0788V19.5758L7.49182 19.7196L7.13873 20.0204L6.78565 19.7196L6.98181 19.5235V19.0265Z" fill="#383739"/>
<path d="M3.77441 18.6342L3.86595 18.4381L4.06211 18.6342C4.06211 18.3858 4.02288 18.1896 3.93134 18.1373C3.91303 18.1129 3.88938 18.0932 3.86218 18.0796C3.83488 18.066 3.80485 18.0588 3.77441 18.0588C3.74396 18.0588 3.71394 18.066 3.68674 18.0796C3.65943 18.0932 3.63579 18.1129 3.61748 18.1373C3.52594 18.1896 3.47363 18.3858 3.47363 18.6342L3.66979 18.4381L3.77441 18.6342ZM7.17448 19.5758V18.9219L7.38372 19.1835V19.3796L7.57988 19.1704L7.08294 18.6865L6.58601 19.1704L6.84755 19.3796V19.1704L7.03063 18.935V19.5758L6.83448 19.7196L7.13525 19.9681L7.38372 19.7196L7.17448 19.5758Z" fill="white"/>
<path d="M5.50237 19.0257V18.4373L5.75083 18.6334V18.8296L5.94699 18.6334L5.45006 18.1365L4.95312 18.6334L5.16236 18.8296V18.6334L5.35852 18.4373V19.0257L5.16236 19.2219L5.45006 19.418L5.7116 19.2219L5.50237 19.0257Z" fill="#D22630"/>
<path d="M15.0365 18.085C15.0129 18.056 14.983 18.0327 14.949 18.0168C14.915 18.0009 14.8779 17.9929 14.8404 17.9934C14.8011 17.9934 14.7488 17.9934 14.7096 18.085C14.5004 18.2419 14.5004 18.5296 14.5004 18.7388L14.7488 18.5296L14.8404 18.7258L14.9973 18.5296L15.1935 18.7258C15.1935 18.5296 15.1935 18.2419 15.0496 18.085H15.0365ZM13.3103 18.5296L13.415 18.6865V18.935L13.7157 18.6342L13.2188 18.1373L12.6172 18.6342L12.918 18.935V18.6734L13.0619 18.5427V19.0265L12.8265 19.2227L13.1665 19.5235L13.5065 19.2227L13.3103 18.9742V18.5296ZM11.6365 19.0265L11.728 19.1704V19.4712L12.0811 19.1704L11.5318 18.6342L10.9434 19.1704L11.2834 19.4712V19.1704L11.388 19.0788V19.5758L11.1918 19.7196L11.5318 20.0204L11.8849 19.7196L11.6234 19.5235L11.6365 19.0265Z" fill="#383739"/>
<path d="M14.8396 18.634L14.7481 18.4379L14.5519 18.634C14.5519 18.3856 14.6043 18.1894 14.6958 18.1371C14.7142 18.1151 14.7372 18.0974 14.7632 18.0853C14.7891 18.0732 14.8175 18.0669 14.8461 18.0669C14.8748 18.0669 14.9031 18.0732 14.9291 18.0853C14.9551 18.0974 14.9782 18.1151 14.9966 18.1371C15.0881 18.1894 15.1404 18.3856 15.1404 18.634L14.9966 18.4379L14.8396 18.634ZM11.4396 19.5756V18.9217L11.2434 19.1833V19.3794L11.0342 19.1702L11.5311 18.6863L12.028 19.1702L11.7796 19.3794V19.1702L11.5834 18.9348V19.5756L11.7796 19.7194L11.5311 19.9679L11.2434 19.7194L11.4396 19.5756Z" fill="white"/>
<path d="M13.1179 19.0257V18.4373L12.9217 18.6334V18.8296L12.7256 18.6334L13.2225 18.1365L13.7195 18.6334L13.4579 18.8296V18.6334L13.2748 18.4373V19.0257L13.471 19.2219L13.1702 19.418L12.9217 19.2219L13.1179 19.0257Z" fill="#D22630"/>
<path d="M9.95148 18.8843L9.80763 19.1327L10.2523 19.5251L9.80763 19.8651V19.6166L9.66378 19.4858V19.9697L10.0561 20.2182L9.3107 20.7543L8.5653 20.2705L8.95761 19.9174V19.4858L8.82684 19.6297V19.8912L8.36914 19.5381L8.86607 19.1458L8.66992 18.8843H9.95148Z" fill="#383739"/>
<path d="M8.75798 18.9333L8.9149 19.1295L8.41797 19.5218L8.77105 19.7703V19.6134L9.00644 19.378V19.9664L8.66644 20.2149L9.3203 20.7119L9.948 20.2149L9.608 19.9534V19.378L9.85646 19.6134V19.7703L10.1965 19.5087L9.69954 19.1164L9.89569 18.9333H8.75798Z" fill="#D22630"/>
<path d="M8.96582 20.2681L9.30583 19.9673L9.65891 20.2158L9.30583 20.4642L8.96582 20.2681Z" fill="#383739"/>
<path d="M9.31292 20.4013L9.56139 20.2182L9.31292 20.0613L9.06445 20.2182L9.31292 20.4013Z" fill="#00843D"/>
<path d="M15.2466 17.0536H14.5535V16.8051H12.278L10.6957 15.8113H7.92332L6.35406 16.8051H4.05247V17.1059H3.35938V17.6029H4.05247V17.9429H6.3279L7.91024 18.9367H10.6826L12.2519 17.9429H14.5404V17.6421H15.2335L15.2466 17.0536Z" fill="#383739"/>
<path d="M7.92336 15.8244L6.3541 16.8051H4.13097V17.1059H3.4248V17.5505H4.1179V17.8382H6.34102L7.92336 18.8321H10.6957L12.265 17.8382H14.5143V17.5505H15.2597V17.1059H14.5143V16.8051H12.2911L10.7088 15.8113L7.92336 15.8244ZM7.92336 15.9551H10.6434L12.1342 16.9098V17.0405H13.7035V17.6421H12.0819V17.799L10.6434 18.6883H7.97567L6.49795 17.799V17.6421H4.91561V17.0536H6.53718V16.9098L7.92336 15.9551Z" fill="#D22630"/>
<path d="M10.6443 15.9541L12.0304 16.948V17.0526H13.6651V17.5495H12.0304V17.7457L10.6443 18.6872H7.97651L6.59032 17.7457V17.6018H4.96875V17.1049H6.6034V16.9087L7.97651 15.9541H10.6443Z" fill="#D22630"/>
<path d="M7.28544 17.8356L7.87392 18.3325L8.26623 17.9925L8.08315 17.8356L7.87392 17.9402L7.74315 17.8356L10.0055 16.1094H9.56088L7.28544 17.8356ZM8.61932 18.5287H9.06395L11.3394 16.8025L10.7509 16.3055L10.3586 16.6586L10.594 16.8025L10.7509 16.6978L10.8948 16.8025L8.61932 18.5287ZM9.61319 18.5287H10.0055L7.73007 16.8025L7.87392 16.6978L8.08315 16.8025L8.27931 16.6586L7.887 16.3578L7.28544 16.8025L9.61319 18.5287ZM10.8948 17.8356L10.7509 17.9402L10.594 17.8356L10.3455 17.9925L10.7378 18.2802L11.3394 17.8356L9.06395 16.1094H8.56701L10.8948 17.8356ZM6.84082 17.3517L7.23314 17.6002L7.62545 17.3386L7.23314 17.0509L6.84082 17.3517ZM8.9201 17.2994L9.31241 17.6002L9.70473 17.3386L9.31241 17.0509L8.9201 17.2994ZM11.7971 17.2994L11.3917 17.6002L10.9994 17.3386L11.3917 17.0509L11.7971 17.2994Z" fill="#383739"/>
<path d="M11.2892 17.8365L10.753 18.2288L10.3999 17.9934L10.5961 17.8888L10.753 17.9934L10.9492 17.8365L8.72603 16.1626H9.06603L11.2892 17.8365ZM9.90297 18.4903H9.56297L7.33984 16.8034L7.87601 16.4111L8.22909 16.6595L8.08524 16.7511L7.87601 16.6595L7.67985 16.8034L9.90297 18.4903ZM9.06603 18.4903H8.72603L10.9492 16.8034L10.753 16.6595L10.5961 16.7511L10.3999 16.6595L10.753 16.398L11.2499 16.8034L9.06603 18.4903ZM9.56297 16.1626H9.90297L7.67985 17.8365L7.87601 17.9934L8.08524 17.8888L8.21602 17.9934L7.87601 18.2419L7.39215 17.8496L9.56297 16.1626Z" fill="#FFC72C"/>
<path d="M7.22966 17.1025L7.53043 17.351L7.22966 17.5472L6.88965 17.351L7.22966 17.1025ZM9.32201 17.1025L9.66202 17.351L9.30893 17.5472L8.96893 17.351L9.32201 17.1025ZM11.3882 17.1025L11.0874 17.351L11.3882 17.5472L11.7282 17.351L11.3882 17.1025Z" fill="#00843D"/>
<path d="M2.1458 28.6669L2.00195 28.9154L2.28965 29.1115L2.00195 29.36L2.1458 29.5562L2.48581 29.6085L2.78659 29.36L3.62353 29.8569V29.4646L3.13967 29.1115L3.62353 28.8108V28.3792L2.78659 28.8761L2.48581 28.68L2.1458 28.6669ZM2.1458 27.1892L2.00195 27.4376L2.28965 27.6338L2.00195 27.8823L2.1458 28.0784L2.48581 28.1307L2.78659 27.8692L3.62353 28.3661V27.9738L3.13967 27.6338L3.62353 27.333V26.8884L2.78659 27.3853L2.48581 27.1892H2.1458ZM2.1458 31.047L2.00195 30.8377L2.28965 30.6023L2.00195 30.3931L2.1458 30.1577H2.48581L2.78659 30.3539L3.62353 29.8569V30.3016L3.13967 30.6023L3.62353 30.9423V31.3347L2.78659 30.8377L2.48581 31.0993L2.1458 31.047ZM16.4784 28.6669L16.6353 28.9154L16.3346 29.1115L16.6353 29.36L16.4784 29.5562L16.1384 29.6085L15.8376 29.36L15.0007 29.8569V29.4646L15.4976 29.1115L15.0007 28.8108V28.3792L15.8376 28.8761L16.1384 28.68L16.4784 28.6669ZM16.4784 27.1892L16.6353 27.4376L16.3346 27.6338L16.6353 27.8823L16.4784 28.0784L16.1384 28.1307L15.8376 27.8692L15.0007 28.3661V27.9738L15.4976 27.6338L15.0007 27.333V26.8884L15.8376 27.3853L16.1384 27.1892H16.4784ZM16.4784 31.047L16.6353 30.8377L16.3346 30.6023L16.6353 30.3931L16.4784 30.1577H16.1384L15.8246 30.3408L14.9876 29.8439V30.2885L15.4846 30.5893L14.9876 30.9293V31.3216L15.8246 30.8246L16.1253 31.0862L16.4784 31.047ZM13.2745 24.7176V25.3061H13.7191V25.6068H14.1638V25.1099H13.7714V24.7176H13.2745ZM14.5561 25.6984V26.1953H15.053V26.4438H15.4453V25.9468H15.053V25.6984H14.5561ZM5.3628 24.7176V25.3061H4.91817V25.6068H4.47355V25.1099H4.86586V24.7176H5.3628ZM13.2745 33.6101V33.0216H13.7191V32.7601H14.1638V33.2701H13.7714V33.6624L13.2745 33.6101ZM5.3628 33.6101V33.0216H4.91817V32.7601H4.47355V33.2701H4.86586V33.6624L5.3628 33.6101ZM14.5561 32.6162V32.0408H15.053V31.74H15.4453V32.237H15.053V32.6293L14.5561 32.6162ZM4.05507 25.6984V26.1953H3.57122V26.4438H3.1789V25.9468H3.57122V25.6984H4.05507ZM4.05507 32.6685V32.0801H3.57122V31.7793H3.1789V32.2762H3.57122V32.6685H4.05507ZM10.986 24.7176L10.6329 24.3645L10.2929 24.6653L10.5806 24.9661L10.1883 25.3061H10.7375L10.9337 25.1099L11.1298 25.3061H11.7837L11.3783 24.9791L11.6791 24.6784L11.326 24.3776L10.986 24.7176ZM9.29903 24.7176L8.95903 24.3645L8.60594 24.6653L8.90672 24.9661L8.55363 25.3061H9.10288L9.29903 25.1099L9.49519 25.3061H10.0444L9.69135 24.9661L9.99213 24.6653L9.65212 24.3645L9.29903 24.7176ZM7.66438 24.7176L8.01747 24.3645L8.31824 24.6653L8.01747 24.9661L8.40978 25.3061H7.86054L7.66438 25.1099L7.46822 25.3061H6.82744L7.21976 24.9661L6.93206 24.6653L7.27207 24.3645L7.62515 24.7176H7.66438ZM10.9337 33.6101L10.6329 34.0024L10.2929 33.6624L10.5806 33.4139L10.1883 33.0216H10.7375L10.9337 33.2178L11.1298 33.0216H11.7837L11.3783 33.4139L11.6791 33.6624L11.326 34.0024L10.9337 33.6101ZM9.29903 33.6101L8.95903 34.0024L8.60594 33.6624L8.90672 33.4139L8.55363 33.0216H9.10288L9.29903 33.2178L9.49519 33.0216H10.0444L9.69135 33.4139L9.99213 33.6624L9.65212 34.0024L9.29903 33.6101ZM7.66438 33.6101L8.01747 34.0024L8.31824 33.6624L8.01747 33.4139L8.40978 33.0216H7.86054L7.66438 33.2178L7.46822 33.0216H6.82744L7.21976 33.4139L6.93206 33.6624L7.27207 34.0024L7.62515 33.6624L7.66438 33.6101Z" fill="#383739"/>
<path d="M3.58608 29.4614V29.8014L2.80145 29.3045L2.48759 29.566H2.19989L2.04297 29.3568L2.34374 29.1083L2.04297 28.9121L2.19989 28.716H2.48759L2.78837 28.9644L3.573 28.4675V28.7683L3.03684 29.1083L3.58608 29.4614ZM3.58608 27.9706V28.3237L2.80145 27.8267L2.48759 28.0752H2.19989L2.04297 27.879L2.34374 27.6175L2.04297 27.4344L2.19989 27.2383H2.48759L2.78837 27.4736L3.573 26.9898V27.2775L3.03684 27.6306L3.58608 27.9706ZM3.58608 30.246V29.9452L2.80145 30.4422L2.48759 30.1545H2.19989L2.04297 30.3506L2.35682 30.5991L2.05605 30.8345L2.21297 30.9914H2.48759L2.78837 30.7953L3.573 31.2791V30.9391L3.03684 30.5991L3.58608 30.246ZM15.0548 29.4614V29.8014L15.8394 29.3045L16.1925 29.566H16.4279L16.5848 29.3568L16.284 29.1083L16.5848 28.9121L16.4279 28.716H16.2317L15.8917 28.9644L15.1071 28.4675V28.7683L15.6433 29.1083L15.0548 29.4614ZM15.0548 27.9706V28.3237L15.8394 27.8267L16.1925 28.0752H16.4279L16.5848 27.879L16.284 27.6175L16.5848 27.4344L16.4279 27.2383H16.2317L15.8917 27.4736L15.1071 26.9898V27.2775L15.6433 27.6306L15.0548 27.9706ZM15.0548 30.246V29.9452L15.8394 30.4422L16.1925 30.1545H16.4279L16.5848 30.3506L16.284 30.5991L16.5848 30.8345L16.4279 30.9914H16.2317L15.8917 30.7953L15.1071 31.2791V30.9391L15.6433 30.5991L15.0548 30.246ZM13.7601 24.7144V25.1067H14.1525V25.499H13.7601V25.2113H13.2763V24.7144H13.7601ZM15.094 25.6951V26.0482H15.4471V26.4405H15.094V26.1921H14.6494V25.6951H15.094ZM4.86765 24.7144V25.1067H4.47533V25.499H4.81534V25.2113H5.31227V24.7144H4.86765ZM13.7601 33.5545V33.1099H14.1525V32.7176H13.7601V32.9661H13.2763V33.463L13.7601 33.5545ZM4.95918 33.5545V33.1099H4.56687V32.7176H4.91995V32.9661H5.40381V33.463L4.95918 33.5545ZM15.094 32.5738V32.1814H15.4471V31.7891H15.094V32.0768H14.6494V32.5738H15.094ZM3.62531 25.6951V26.0875H3.23299V26.4798H3.58608V26.1921H4.0307V25.6951H3.62531ZM3.62531 32.6261V32.2337H3.23299V31.8284H3.58608V32.1291H4.0307V32.613L3.62531 32.6261ZM10.6478 24.4136L10.9485 24.7667L11.2886 24.4136L11.5893 24.662L11.2886 24.9628L11.6416 25.2505H11.1447L10.9485 25.0544L10.7524 25.2505H10.3078L10.6478 24.9628L10.347 24.662L10.6478 24.4136ZM8.97389 24.4136L9.31389 24.7667L9.66698 24.4136L9.90237 24.662L9.61467 24.9628L9.95468 25.2505H9.51005L9.31389 25.0544L9.11774 25.2505H8.6208L9.01312 24.9628L8.72542 24.662L8.97389 24.4136ZM7.98002 24.4136L7.67924 24.7667L7.33924 24.4136L7.03846 24.662L7.33924 24.9628L7.03846 25.2505H7.43078L7.69232 25.0544L7.8754 25.2505H8.3331L7.98002 24.9759L8.2808 24.6751L7.98002 24.4136ZM10.6478 33.9076L10.9485 33.6069L11.2886 33.9076L11.5893 33.6461L11.2886 33.4107L11.6416 33.0707H11.1447L10.9485 33.2668L10.7524 33.0707H10.3078L10.6478 33.4107L10.347 33.6592L10.6478 33.9076ZM8.97389 33.9076L9.31389 33.6069L9.66698 33.9076L9.90237 33.6461L9.61467 33.4107L9.95468 33.0707H9.51005L9.31389 33.2668L9.11774 33.0707H8.6208L9.01312 33.4107L8.72542 33.6592L8.97389 33.9076ZM7.98002 33.9076L7.67924 33.6069L7.33924 33.9076L7.03846 33.6461L7.33924 33.4107L7.03846 33.0707H7.43078L7.69232 33.2668L7.8754 33.0707H8.3331L7.98002 33.4107L8.2808 33.6592L7.98002 33.9076Z" fill="#00843D"/>
<path d="M4.86164 32.0801V33.074H13.7541V32.0801H15.0488V26.1954H13.7541V25.2146H4.86164V26.1954H3.58008V32.0801H4.86164Z" fill="#383739"/>
<path d="M4.91476 25.2538V26.2477H3.62012V32.0278H4.86245V33.0217H13.755V32.0278H15.0496V26.1954H13.755V25.2146H4.86245L4.91476 25.2538ZM5.50323 25.6461H13.1142V26.5877L13.4673 26.7969H14.6442V31.4393H13.4673L13.1142 31.6878V32.6163H5.50323V31.6486L5.16323 31.4524H3.9732V26.81H5.15015L5.50323 26.6008V25.62V25.6461Z" fill="#FFC72C"/>
<path d="M5.5558 25.6968V26.5468L6.69352 25.6968H5.5558ZM11.9767 25.6968L13.0621 26.5468V25.6968H11.9767ZM4.065 26.8345V27.6845L5.11118 26.8999L4.065 26.8345ZM13.5067 26.8345L14.6052 27.6845V26.8345H13.5067ZM14.6052 30.6007L13.5067 31.3854H14.6052V30.6007ZM4.0127 30.6007V31.3854H5.11118L4.0127 30.6007ZM5.5035 31.7254V32.5754H6.68045L5.5035 31.7254ZM13.0621 31.7254L11.9244 32.5754H13.0621V31.7254Z" fill="#D22630"/>
<path d="M11.8887 25.695L14.6088 27.6827V30.5466L11.8887 32.5082H6.74936L4.0293 30.5466V27.6697L6.74936 25.6558L11.8887 25.695Z" fill="#00843D"/>
<path d="M4.66503 30.8377L4.36426 30.4977L4.66503 30.1577L4.36426 29.8046L4.66503 29.4646L4.36426 29.1115L4.66503 28.7715L4.36426 28.4184L4.66503 28.0784L4.36426 27.7776L4.66503 27.3853H13.9499L14.2506 27.7776L13.9499 28.0784L14.2506 28.4184L13.9499 28.7715L14.2506 29.1115L13.9499 29.4646L14.2506 29.8046L13.9499 30.1577L14.2506 30.4977L13.9499 30.8377H4.66503ZM11.0859 26.143L10.6936 25.803L10.3405 26.1038L10.0005 25.803L9.66053 26.1038L9.30744 25.803L8.96743 26.1038L8.61435 25.803L8.27434 26.1038L7.92126 25.803L7.58125 26.143V32.08L7.92126 32.42L8.27434 32.1323L8.61435 32.42L8.96743 32.1323L9.30744 32.42L9.66053 32.1323L10.0005 32.42L10.3405 32.1323L10.6936 32.42L11.0336 32.1323L11.0859 26.143Z" fill="#383739"/>
<path d="M10.3028 26.1936L10.002 25.8928L9.662 26.1544V32.0783L10.002 32.3791L10.3028 32.0783V26.1936ZM8.96891 26.1936L8.61583 25.8928L8.32812 26.1544V32.0783L8.61583 32.3791L8.96891 32.0783V26.1936Z" fill="#FFC72C"/>
<path d="M4.70605 30.8378L4.41835 30.4978L4.71913 30.197H13.9124L14.2001 30.4978L13.9124 30.8378H4.70605ZM13.9124 28.8109L14.2001 29.1116L13.9124 29.4647H4.70605L4.40527 29.1116L4.70605 28.8109H13.9124ZM13.9124 28.0785L14.2001 27.7778L13.9124 27.4377H4.70605L4.40527 27.7778L4.70605 28.0785H13.9124Z" fill="#FFC72C"/>
<path d="M10.9833 26.1936L10.6956 25.8928L10.3426 26.1544V32.0783L10.6956 32.3791L10.9964 32.0783L10.9833 26.1936ZM8.32866 26.1936L7.97558 25.8928L7.6748 26.1544V32.0783L7.97558 32.3791L8.32866 32.0783V26.1936Z" fill="#D22630"/>
<path d="M4.70957 30.1551L4.42188 29.8021L4.72265 29.5013H13.9159L14.2036 29.8021L13.9159 30.1551H4.70957ZM4.70957 28.769L4.42188 28.4159L4.72265 28.1282H13.9159L14.2036 28.4159L13.9159 28.769H4.70957Z" fill="#D22630"/>
<path d="M9.66851 32.1316L9.31542 32.38L9.01465 32.0793V26.1945L9.31542 25.946L9.66851 26.2076V32.1316Z" fill="#D22630"/>
<path d="M12.423 26.2444H6.19827V26.7413H5.36133V31.4883H6.14596V31.9722H12.3707V31.4883H13.273V26.7413H12.4753V26.2444H12.423Z" fill="#383739"/>
<path d="M6.25241 26.2836V26.7936H5.46777V31.436H6.25241V31.933H6.84088L5.55931 30.8345V27.3821L6.84088 26.2967H6.2001L6.25241 26.2836ZM11.7448 26.2836L13.0264 27.4344V30.8868L11.7841 31.8807H12.4379V31.3837H13.2226V26.7413H12.4379V26.2444H11.7841L11.7448 26.2836Z" fill="#D22630"/>
<path d="M6.92903 26.2852L5.64746 27.436V30.836L6.9421 31.9345H11.6891L12.9707 30.836V27.3836L11.6891 26.2982L6.92903 26.2852ZM7.03364 26.4944H11.5845L12.8268 27.4752V30.7445L11.5845 31.7253H7.03364L5.80439 30.7445V27.5275L7.03364 26.4944Z" fill="#00843D"/>
<path d="M8.22733 30.7985L8.42348 30.89L8.47579 31.1515L8.21425 31.3346L8.61964 31.6877H8.22733L7.97886 31.4262L7.73039 31.6877H7.33808L7.67808 31.3346L7.42962 31.1385V30.89L7.69116 30.7985L7.92655 30.9946L8.22733 30.7985ZM9.5612 30.7985L9.75736 30.89L9.80967 31.1515L9.5612 31.3346L9.95352 31.6877H9.5612L9.31273 31.4262L9.06427 31.6877H8.72426L9.06427 31.3346L8.8158 31.1385V30.89L9.07734 30.7985L9.31273 30.9946L9.5612 30.7985ZM10.3981 30.7985L10.202 30.89L10.1497 31.1515L10.4112 31.3346L10.0581 31.6877H10.3981L10.6597 31.4262L10.8951 31.6877H11.2874L10.8951 31.3346L11.1435 31.1385V30.89L10.8951 30.7985L10.6466 30.9946L10.3981 30.7985ZM8.2404 27.4638L8.43656 27.3722L8.48887 27.1238L8.22733 26.8753L8.63272 26.5353H8.2404L7.99194 26.7838L7.74347 26.5222H7.35115L7.69116 26.8753L7.44269 27.1238V27.3722L7.70424 27.4638L7.93963 27.2284L8.2404 27.4638ZM9.57428 27.4638L9.77044 27.3722L9.82274 27.1238L9.57428 26.8753L9.96659 26.5353H9.57428L9.32581 26.7838L9.07734 26.5222H8.73734L9.07734 26.8753L8.82888 27.1238V27.3722L9.09042 27.4638L9.32581 27.2284L9.57428 27.4638ZM10.4112 27.4638L10.2151 27.3722L10.1628 27.1238L10.4243 26.8753L10.0712 26.5353H10.4112L10.6728 26.7838L10.9082 26.5222H11.3005L10.9082 26.8753L11.1566 27.1238V27.3722L10.9082 27.4638L10.6597 27.2284L10.4112 27.4638ZM12.7913 27.8169L12.5951 28.013L12.7913 28.1569V28.4576L12.4382 28.2092L12.242 28.4053H11.9936L11.902 28.2092L12.0982 28.013L11.902 27.8169L11.9936 27.6207H12.2551L12.4382 27.8169L12.7913 27.5684V27.8169ZM12.7913 28.9546L12.5951 29.0984L12.7913 29.2946V29.5561L12.4382 29.2946L12.242 29.4907H11.9936L11.902 29.2946L12.0982 29.0984L11.902 28.9023L11.9936 28.7584H12.2551L12.4382 28.9023L12.7913 28.6538V28.9546ZM12.7913 30.4323L12.5951 30.2361L12.7913 30.04V29.7915L12.4382 30.04L12.242 29.8438H11.9936L11.902 30.04L12.0982 30.2361L11.902 30.4323L11.9936 30.5892H12.2551L12.4382 30.4323L12.7913 30.6938V30.4323ZM5.86035 27.8169L6.1219 28.013L5.86035 28.1569V28.4576L6.21344 28.2092L6.40959 28.4053H6.65806L6.76268 28.2092L6.55344 28.013L6.76268 27.8169L6.65806 27.6207H6.40959L6.21344 27.8169L5.86035 27.5684V27.8169ZM5.86035 28.9546L6.1219 29.0984L5.86035 29.2946V29.5561L6.21344 29.2946L6.40959 29.4907H6.65806L6.76268 29.2946L6.55344 29.0984L6.76268 28.9023L6.65806 28.7584H6.40959L6.21344 28.9023L5.86035 28.6538V28.9546ZM5.86035 30.4323L6.1219 30.2361L5.86035 30.04V29.7915L6.21344 30.04L6.40959 29.8438H6.65806L6.76268 30.04L6.55344 30.2361L6.76268 30.4323L6.65806 30.5892H6.40959L6.21344 30.4323L5.86035 30.6938V30.4323Z" fill="#00843D"/>
<path d="M7.03199 26.5466L5.89428 27.5274L6.19505 27.789L6.39121 27.5797H6.69198L6.78352 27.8282L6.58737 28.0244L6.78352 28.2205L6.69198 28.4167H6.3389L6.14274 28.2728L5.80273 28.5213V28.6128L6.14274 28.8744L6.3389 28.6651L6.63968 28.7174L6.74429 28.9136L6.53506 29.1098L6.74429 29.3059L6.63968 29.5675H6.3389L6.14274 29.3582L5.80273 29.659V29.6982L6.14274 29.999L6.3389 29.8029H6.63968L6.74429 30.0513L6.53506 30.2475L6.74429 30.4436L6.63968 30.6398H6.3389L6.14274 30.4959L5.84197 30.7444L6.97968 31.7252H7.24123L7.63354 31.3329L7.372 31.1367V30.836L7.67277 30.7444L7.93432 30.9406L8.16971 30.7444L8.43125 30.836L8.47049 31.1367L8.20894 31.3329L8.61433 31.686L8.96742 31.3329L8.70587 31.1367V30.836L9.00665 30.7444L9.26819 30.9406L9.50358 30.7444L9.76513 30.836L9.80436 31.1367L9.55589 31.3329L9.8959 31.686L10.2882 31.3329L10.0528 31.1367V30.836L10.3405 30.7444L10.6021 30.9406L10.8375 30.7444L11.099 30.836L11.1382 31.1367L10.8898 31.3329L11.2821 31.686H11.5436L12.6683 30.6921L12.3675 30.4959L12.1713 30.6921L11.8836 30.6398L11.779 30.4436L11.9752 30.2475L11.779 30.0513L11.8836 29.8552L12.1713 29.8029L12.3675 29.999L12.7206 29.6982V29.659L12.3675 29.3582L12.1713 29.5544H11.8967L11.7921 29.3059L11.9883 29.1098L11.7921 28.9136L11.8967 28.7174H12.1844L12.3806 28.8613L12.7337 28.6128V28.5213L12.3806 28.2597L12.1844 28.469L11.8967 28.4167L11.7921 28.2205L11.9883 28.0244L11.7921 27.8282L11.8967 27.632L12.1844 27.5797L12.3806 27.7759L12.6813 27.5274L11.5436 26.5466H11.2952L10.9028 26.8866L11.1513 27.1351V27.4359L10.8505 27.5274L10.6021 27.3313L10.3536 27.5274L10.1182 27.4359L10.0659 27.1351L10.3144 26.8866L9.96129 26.5466L9.56897 26.8866L9.81744 27.1351V27.4359L9.51666 27.5274L9.26819 27.3313L9.01973 27.5274L8.78434 27.4359L8.73203 27.1351L8.9805 26.8866L8.62741 26.5466L8.2351 26.8866L8.48356 27.1351V27.4359L8.18279 27.5274L7.93432 27.3313L7.68585 27.5274L7.43738 27.4359L7.39815 27.1351L7.64662 26.8866L7.2543 26.5466H7.03199ZM5.85504 29.0182V29.2536L5.98582 29.1228L5.85504 29.0182Z" fill="#D22630"/>
<path d="M7.97533 31.529L7.77918 31.686H8.17149L7.97533 31.529ZM9.30921 31.529L9.11305 31.686H9.50537L9.30921 31.529ZM10.6431 31.529L10.4469 31.686H10.8392L10.6431 31.529ZM7.7661 26.5859L7.97533 26.7428L8.17149 26.5466L7.7661 26.5859ZM9.11305 26.5859L9.30921 26.7428L9.50537 26.5466L9.11305 26.5859ZM10.4469 26.5859L10.6431 26.7428L10.8392 26.5466L10.4469 26.5859ZM12.7747 27.9197L12.6177 28.0244L12.7747 28.129V27.9197ZM12.7747 29.0182L12.6177 29.1098L12.7747 29.2536V29.0182ZM12.7747 30.1559L12.6177 30.2475L12.7747 30.3521V30.1559ZM5.84375 27.8805V28.129L6.00068 28.0244L5.84375 27.8805ZM5.84375 29.0182V29.2536L6.00068 29.1228L5.84375 29.0182ZM5.84375 30.1036V30.3521L6.00068 30.2475L5.84375 30.1036Z" fill="white"/>
<path d="M10.4585 28.7699V28.3776H10.0531V27.9199H8.56227V28.3645H8.16996V28.7569H7.63379V29.5023H8.16996V29.8946H8.56227V30.3523H10.0661V29.8553H10.4585V29.5023H11.0077V28.7699H10.4585Z" fill="#383739"/>
<path d="M9.30946 27.9853V28.4169L8.66867 28.7699V29.1099H7.6748V28.8092H8.17174V28.4169H8.61637V27.9199L9.30946 27.9853ZM9.30946 30.3V29.803L9.96332 29.463V29.1623H10.9441V29.463H10.4472V29.8553H10.0025V30.3H9.30946Z" fill="#FFC72C"/>
<path d="M9.95024 29.1099V28.7699L9.30946 28.4169V27.9199H10.0025V28.4169H10.3949V28.8092H10.9441V29.1099H9.95024ZM7.6748 29.1099H8.66867V29.463L9.32253 29.8553V30.3H8.61637V29.803H8.22405V29.463H7.6748V29.1099Z" fill="white"/>
<path d="M8.7207 29.163V29.4638L9.30918 29.8038V29.1499L8.7207 29.163Z" fill="#D22630"/>
<path d="M9.30918 28.4673L8.7207 28.8073V29.1081H9.30918V28.4673Z" fill="#00843D"/>
<path d="M9.89804 29.1081V28.8073L9.30957 28.4673V29.1211L9.89804 29.1081Z" fill="#D22630"/>
<path d="M9.30957 29.816L9.89804 29.4629V29.1621H9.30957V29.816Z" fill="#00843D"/>
<path d="M3.92502 37.0094V38.2518H2.7873V39.3503H1.61035V42.5019H2.7873V43.6396H3.87271V44.8296H8.1228L8.8682 45.3266L8.52819 45.5227H7.03739L6.89354 45.3789H8.33204L7.93972 44.9865H5.95198L6.84123 45.915H8.67204L9.3259 45.4704L9.95361 45.8627H11.7844L12.6737 44.9342H10.699L10.3067 45.3266H11.6929L11.5883 45.4704H10.0582L9.70514 45.2219L10.4505 44.7773H14.7006V43.6004H15.8384V42.5019H17.0153V39.3633H15.8384V38.2649H14.7529V37.0356H10.5029L9.75745 36.5387L10.1105 36.3425H11.5883L11.7321 36.4864H10.2936L10.699 36.8787H12.6737L11.7844 35.9502H9.95361L9.31283 36.3425L8.67204 35.9502H6.84123L5.95198 36.931H7.92664L8.31896 36.4864H6.94585L7.03739 36.3425H8.56743L8.92051 36.591L8.17511 37.0356L3.92502 37.0094Z" fill="#D22630"/>
<path d="M10.4619 44.7764H14.6466V43.5995H15.7451V42.4618H16.9221V39.3886H15.7451V38.2509H14.6074V37.074H10.3965L8.63111 35.9624H6.85261L6.06798 36.8124H7.89879L8.18649 36.5116H6.85261L7.04877 36.2632H8.57881L10.5665 37.5055H14.2543V38.6825H15.4313V39.8202H16.6344V42.0041H15.4313V43.1418H14.2543V44.371H10.6319L8.65727 45.548H7.07493L6.87877 45.3126H8.21264L7.91187 45.0118H6.08106L6.86569 45.8488H8.6965L10.4619 44.7764ZM8.02956 44.3841H4.42025V43.1549H3.26946V42.0171H2.09251V39.8333H3.26946V38.7086H4.35487V37.5709H7.97725L9.95191 36.3416H11.5343L11.7304 36.5901H10.3965L10.6973 36.8909H12.5281L11.7696 35.9624H9.93884L8.21264 37.0609H3.96255V38.2378H2.87714V39.3756H1.7002V42.4487H2.87714V43.5864H4.02794V44.7634H8.27803L10.0042 45.8488H11.7827L12.5674 45.0118H10.7365L10.4488 45.3126H11.7827L11.5866 45.5611H10.0565L8.02956 44.3841Z" fill="#FFC72C"/>
<path d="M13.8632 42.8001V43.977H10.5024L9.32545 44.7224L8.12235 43.9901H4.76151V42.8132H3.62379V41.6624H2.39453V40.1847H3.57148V39.0469H4.72227V37.87H8.08312L9.26007 37.1638L10.4501 37.8569H13.8109V39.0339H14.9486V40.1847H16.2302V41.6624H15.0533V42.8001H13.8632Z" fill="#00843D"/>
<path d="M5.20605 42.3701V43.4947H7.08917L5.20605 42.2524V42.3701ZM5.20605 39.4931V38.3162H7.08917L5.20605 39.5454V39.4931ZM13.4185 42.3701V43.4947H11.5354L13.4185 42.2524V42.3701ZM13.4185 39.4931V38.3162H11.5354L13.4185 39.5454V39.4931Z" fill="#383739"/>
<path d="M5.25488 42.4111L6.94184 43.4965H5.25488V42.4111ZM5.25488 39.4426L6.94184 38.3572H5.25488V39.4426ZM13.3627 42.4111L11.6889 43.4965H13.3627V42.4111ZM13.3627 39.4426L11.6889 38.3572H13.3627V39.4426Z" fill="#D22630"/>
<path d="M7.58754 40.5777V40.0284H7.39138L6.39752 39.4399L5.40365 40.0284H5.20749V40.63H4.72363V41.3231H5.20749V41.9115H5.40365L6.39752 42.5L7.39138 41.9115H7.58754V41.3231H8.28063V40.5384L7.58754 40.5777Z" fill="#383739"/>
<path d="M6.34921 39.4399L7.34308 39.9892H5.45996L6.34921 39.4399ZM7.34308 41.8592L6.34921 42.4085L5.45996 41.8592H7.34308ZM7.09451 40.63V41.2184H5.9569V40.63H7.09451Z" fill="#D22630"/>
<path d="M7.53702 41.2709V41.8071H6.3993V41.2709H7.53702ZM6.36007 41.2709V41.8071H5.20927V41.2709H6.36007ZM8.23011 40.617V41.2186H7.1447V40.6301L8.23011 40.617ZM5.90237 40.617V41.2186H4.76465V40.6301L5.90237 40.617ZM7.53702 40.0286V40.5778H6.3993V40.0809L7.53702 40.0286ZM6.36007 40.0286V40.5778H5.20927V40.0809L6.36007 40.0286Z" fill="#FFC72C"/>
<path d="M5.60962 40.7723V41.0731H5.09961V40.7723H5.60962ZM6.05425 40.1838V40.4715H5.55731V40.1838H6.05425ZM7.23119 40.1838V40.4715H6.74734V40.1838H7.23119ZM6.74734 40.7723V41.0731H6.2504V40.7723H6.74734ZM7.92429 40.7723V41.0731H7.42735V40.7723H7.92429ZM7.23119 41.3608V41.6616H6.74734V41.3608H7.23119ZM6.05425 41.3608V41.6616H5.55731V41.3608H6.05425Z" fill="#383739"/>
<path d="M5.55731 40.8253H5.09961V41.0214H5.54423L5.55731 40.8253ZM6.05425 40.2368H5.55731V40.433H6.05425V40.2368ZM7.19196 40.2368H6.74734V40.433H7.19196V40.2368ZM6.69503 40.8253H6.34194V41.0214H6.73426L6.69503 40.8253ZM7.87198 40.8253H7.47966V41.0214H7.87198V40.8253ZM7.19196 41.4138H6.74734V41.6099H7.19196V41.4138ZM6.00194 41.4138H5.60962V41.6099H6.00194V41.4138Z" fill="white"/>
<path d="M11.0373 40.5777V40.0284H11.2465L12.2273 39.4399L13.2212 40.0284H13.4696V40.63H13.9143V41.3231H13.4173V41.9115H13.2735L12.2796 42.5L11.2857 41.9115H11.0896V41.3231H10.3965V40.5384L11.0373 40.5777Z" fill="#383739"/>
<path d="M12.281 39.4399L11.2871 39.9892H13.1179L12.281 39.4399ZM11.2871 41.8592L12.1764 42.4085L13.1179 41.8592H11.2871ZM11.4833 40.63V41.2184H12.621V40.63H11.4833Z" fill="#D22630"/>
<path d="M11.0896 41.2709V41.8071H12.2273V41.2709H11.0896ZM12.2665 41.2709V41.8071H13.4173V41.2709H12.2665ZM10.3965 40.617V41.2186H11.5342V40.6301L10.3965 40.617ZM12.7242 40.617V41.2186H13.8619V40.6301L12.7242 40.617ZM11.0896 40.0286V40.5778H12.2273V40.0809L11.0896 40.0286ZM12.2665 40.0286V40.5778H13.4173V40.0809L12.2665 40.0286Z" fill="#FFC72C"/>
<path d="M13.0783 40.7723V41.0731H13.5621V40.7723H13.0783ZM12.5814 40.1838V40.4715H13.0652V40.1838H12.5814ZM11.3913 40.1838V40.4715H11.8883V40.1838H11.3913ZM11.8883 40.7723V41.0731H12.3721V40.7723H11.8883ZM10.6982 40.7723V41.0731H11.1952V40.7723H10.6982ZM11.3913 41.3608V41.6616H11.8883V41.3608H11.3913ZM12.5683 41.3608V41.6616H13.0652V41.3608H12.5683Z" fill="#383739"/>
<path d="M13.0758 40.8253H13.5073V41.0214H13.0758V40.8253ZM12.6181 40.2368H13.0104V40.433H12.6181V40.2368ZM11.4411 40.2368H11.8858V40.433H11.4411V40.2368ZM11.925 40.8253H12.3173V41.0214H11.925V40.8253ZM10.748 40.8253H11.1404V41.0214H10.8004L10.748 40.8253ZM11.4411 41.4138H11.8858V41.6099H11.4411V41.4138ZM12.6181 41.4138H13.0104V41.6099H12.6181V41.4138Z" fill="white"/>
<path d="M10.5011 39.5865V40.188H10.305L9.31111 40.8288L8.33032 40.175H8.10801V39.5865H7.51953V38.9457H8.10801V38.3572H8.31724L9.29803 37.7034L10.2919 38.3572H10.4881V38.9457H11.0765V39.5473L10.5011 39.5865Z" fill="#383739"/>
<path d="M9.30722 40.7772L10.1965 40.1887H8.41797L9.30722 40.7772ZM10.1965 38.3187L9.30722 37.8218L8.41797 38.3187H10.1965Z" fill="#FFC72C"/>
<path d="M10.4619 38.9457V38.3572H9.36346V38.9457H10.4619ZM9.31115 38.9457V38.3572H8.17344V38.9457H9.31115ZM11.0373 39.5472V39.0503H9.89963V39.5472H11.0373ZM9.86039 39.5472V39.0503H8.81422V39.5472H9.86039ZM8.72268 39.5472V39.0503H7.58496V39.5472H8.72268ZM10.4489 40.1357V39.5864H9.36346V40.1357H10.4489ZM9.31115 40.1357V39.5864H8.17344V40.1357H9.31115Z" fill="#D22630"/>
<path d="M8.96958 38.5002V38.801H8.47265V38.5526L8.96958 38.5002ZM10.1465 38.5002V38.801H9.67575V38.5526L10.1465 38.5002ZM8.36803 39.1018V39.4418H7.87109V39.0495L8.36803 39.1018ZM9.55805 39.1018V39.4418H9.06112V39.0495L9.55805 39.1018ZM10.735 39.1018V39.4418H10.2511V39.0495L10.735 39.1018ZM8.96958 39.7426V40.0303H8.47265V39.7557L8.96958 39.7426ZM10.1465 39.7426V40.0303H9.67575V39.7557L10.1465 39.7426Z" fill="#383739"/>
<path d="M8.91731 38.5532H8.525V38.7494H8.91731V38.5532ZM10.0943 38.5532H9.70195V38.7494H10.0943V38.5532ZM8.32884 39.1417H7.93652V39.4032H8.32884V39.1417ZM9.50579 39.1417H9.11347V39.4032H9.50579V39.1417ZM10.6958 39.1417H10.3035V39.4032H10.6958V39.1417ZM8.91731 39.7432H8.525V39.9917H8.91731V39.7432ZM10.0943 39.7432H9.70195V39.9917H10.0943V39.7432Z" fill="white"/>
<path d="M10.5011 42.8915V43.5454H10.305L9.31111 44.1339L8.33032 43.5454H8.10801V42.8915H7.51953V42.2507H8.10801V41.6623H8.31724L9.29803 41.0215L10.2919 41.6753H10.4881V42.2507H11.0765V42.9046L10.5011 42.8915Z" fill="#383739"/>
<path d="M9.30722 44.0834L10.1965 43.5472H8.41797L9.30722 44.0834ZM10.1965 41.6118L9.30722 41.1279L8.41797 41.6118H10.1965Z" fill="#FFC72C"/>
<path d="M10.4619 42.2525V41.7163H9.36346V42.2525H10.4619ZM9.31115 42.2525V41.7163H8.17344V42.2525H9.31115ZM11.0373 42.854V42.3048H9.89963V42.854H11.0373ZM9.86039 42.854V42.3048H8.81422V42.854H9.86039ZM8.72268 42.854V42.3048H7.58496V42.854H8.72268ZM10.4489 43.4948V42.9063H9.36346V43.4948H10.4489ZM9.31115 43.4948V42.9063H8.17344V43.4948H9.31115Z" fill="#D22630"/>
<path d="M8.96958 41.8062V42.1592H8.47265V41.8062H8.96958ZM10.1465 41.8062V42.1592H9.67575V41.8062H10.1465ZM8.36803 42.4992V42.8H7.87109V42.4992H8.36803ZM9.55805 42.4992V42.8H9.06112V42.4992H9.55805ZM10.735 42.4992V42.8H10.2511V42.4992H10.735ZM8.96958 42.9962V43.297H8.47265V42.9962H8.96958ZM10.1465 42.9962V43.297H9.67575V42.9962H10.1465Z" fill="#383739"/>
<path d="M8.91731 41.8594H8.525V42.1209H8.91731V41.8594ZM10.0943 41.8594H9.70195V42.1209H10.0943V41.8594ZM8.32884 42.5132H7.93652V42.7094H8.32884V42.5132ZM9.50579 42.5132H9.11347V42.7094H9.50579V42.5132ZM10.6958 42.5132H10.3035V42.7094H10.6958V42.5132ZM8.91731 43.1017H8.525V43.2979H8.91731V43.1017ZM10.0943 43.1017H9.70195V43.2979H10.0943V43.1017Z" fill="white"/>
<path d="M2.87695 50.1641L7.3232 47.7971H11.2856L15.7318 50.1641V54.0742L11.2856 56.3888H7.33628L2.89003 54.0742L2.87695 50.1641Z" fill="#383739"/>
<path d="M7.31972 47.8503L2.92578 50.165V54.0228L7.3328 56.3898H11.2821L15.6891 54.0228V50.165L11.3344 47.8634L7.31972 47.8503ZM7.38511 48.138H11.2821L15.4407 50.3612V53.8266L11.2821 56.0498H7.42434L3.27887 53.8266V50.3481L7.38511 48.138Z" fill="#00843D"/>
<path d="M9.30942 52.0995V56.0489H11.2841L15.3903 53.8257V52.1388H9.30942V48.1895H7.33476L3.22852 50.3603V52.0995H9.30942Z" fill="#FFC72C"/>
<path d="M9.30942 52.0995V56.0489H7.33476L3.22852 53.8257V52.1388H9.30942V48.1895H11.2841L15.3903 50.3603V52.0995H9.30942Z" fill="white"/>
<path d="M9.66358 55.8005V54.6628L9.3105 54.9243L8.97049 54.6628V55.8005H7.78046L8.5651 55.212V54.4274L7.38815 53.682H6.60352V50.5173H7.33584L8.51279 49.7719V48.9873L7.84585 48.3857H9.0228V49.5235L9.37588 49.3273L9.71589 49.5235V48.4381H10.9059L10.1213 49.0265V49.8112L11.2982 50.5566H12.1483V53.7212H11.2982L10.1213 54.4666V55.2513L10.9059 55.8528L9.66358 55.8005Z" fill="#383739"/>
<path d="M9.7046 48.4387V49.6157L9.31228 49.3803V49.7203L11.1431 50.858H11.7316V52.1003H12.0323V50.6095H11.2477L10.0054 49.8249V48.9357L10.6985 48.4387H9.7046ZM6.64453 52.1396V53.6304H7.33762L8.56688 54.415V55.265L7.87379 55.7489H8.86766V54.5719L9.25997 54.8073V54.4673L7.42916 53.3296H6.84069V52.1526L6.64453 52.1396Z" fill="#FFC72C"/>
<path d="M7.9261 48.4387L8.61919 48.9357V49.8249L7.38993 50.5572H6.64453V52.048H6.893V50.9103H7.48147L9.31228 49.7726V49.4326L8.91996 49.668V48.4387H7.9261ZM11.7316 52.1396V53.3296H11.1431L9.31228 54.4673V54.8073L9.7046 54.5719V55.7489H10.6985L10.0054 55.265V54.3627L11.2477 53.5781H12.0323V52.1003L11.7316 52.1396Z" fill="white"/>
<path d="M6.93066 53.2757H7.47991L9.31071 54.4657L11.1415 53.2888H11.6908V50.9087H11.1415L9.31071 49.771L7.47991 50.9087H6.98297L6.93066 53.2757Z" fill="#D22630"/>
<path d="M10.5568 52.6882H10.9492V52.492H10.6484V52.1389H11.3022V52.9889H10.7007V53.5774H9.45835V52.7405H10.0076V53.0805H9.81143V53.2374H10.3084V52.9366L8.03294 51.5504H7.64062V51.6943H7.92832V52.0474H7.33984V51.2104H7.92832V50.6089H9.17065V51.4458H8.67372V51.1058H8.81757V50.962H8.33371V51.2497L10.5568 52.6882ZM10.3476 51.2497V50.962H9.81143V51.1058H10.0076V51.4458H9.45835V50.6089H10.7007V51.2104H11.2892V52.0474H10.6484V51.6943H10.9492V51.5504H10.5568L8.33371 52.8843V53.1851H8.81757V53.0282H8.63449V52.7012H9.18373V53.5382H7.94139V52.9497H7.35292V52.1128H7.9937V52.4528H7.69293V52.6489H8.08524L10.3476 51.2497Z" fill="#383739"/>
<path d="M10.3982 52.8859V53.2782H9.80974V53.0297H10.0059V52.7943H9.56127V53.5266H10.699V52.9382H11.2875V52.1797H10.8036V52.4412H11.039V52.7289H10.5944L8.27971 51.2381V50.8981H8.92049V51.1466H8.72433V51.3951H9.22126V50.6497H8.03124V51.2381H7.42969V51.9835H7.92662V51.7351H7.67815V51.4866H8.12278L10.3982 52.8859ZM10.5551 51.4997H11.039V51.7612H10.699V51.9966H11.2875V51.2643H10.699V50.6758H9.56127V51.4212H10.0059V51.1597H9.80974V50.9243H10.4636V51.3166L8.12278 52.7551H7.67815V52.4412H7.97893V52.1928H7.482V52.9382H8.03124V53.5266H9.16895V52.7943H8.72433V53.0297H8.92049V53.2913H8.26663V52.8989L10.5551 51.4997Z" fill="white"/>
<path d="M14.4518 52.2966V53.5259H13.9549V53.0944H13.4187V53.539H12.8695V52.3097H13.3664V52.7543H13.9157V52.3097L14.4518 52.2966ZM12.5818 53.9182V55.1606H12.0849V54.7159H11.5356V55.1606H11.0387V53.9182H11.5356V54.3628H12.0325V53.9182H12.5818ZM14.4518 51.9566V50.662H13.9549V51.1066H13.4187V50.662H12.8695V51.9043H13.3664V51.4466H13.9157V51.9436L14.4518 51.9566ZM4.17315 52.2966V53.5259H4.67008V53.0944H5.20625V53.539H5.75549V52.3097H5.25855V52.7543H4.72239V52.3097L4.17315 52.2966ZM4.17315 51.9043V50.662H4.67008V51.1066H5.20625V50.662H5.75549V51.9043H5.25855V51.4466H4.72239V51.9436L4.17315 51.9043ZM12.5818 50.2697V49.0273H12.0849V49.472H11.5356V49.0404H11.0387V50.2828H11.5356V49.8251H12.0325V50.322L12.5818 50.2697ZM6.04319 53.9313V55.1606H6.54012V54.7159H7.08936V55.1606H7.63861V53.9182H7.14167V54.3628H6.59243V53.9182L6.04319 53.9313ZM6.04319 50.2697V49.0273H6.54012V49.472H7.08936V49.0404H7.63861V50.2828H7.14167V49.8251H6.59243V50.322L6.04319 50.2697ZM12.8695 49.4327V50.3612H14.6088L12.8695 49.4327ZM5.75549 54.7944V53.8136H4.0293L5.75549 54.7944ZM5.75549 49.3674V50.3481H4.0293L5.75549 49.3674ZM12.8695 54.7944V53.8136H14.6088L12.8695 54.7944Z" fill="#383739"/>
<path d="M13.955 53.0296V53.5266H14.3997V52.3496H13.955V52.7942H13.3666V52.3496H12.8696V53.4743H13.3666V53.0296H13.955ZM12.085 54.6643V55.1612H12.5296V53.9843H12.085V54.4158H11.4834V53.9712H11.0388V55.1089H11.4834V54.6643H12.085ZM13.955 51.1596V50.715H14.3997V51.8527H13.955V51.395H13.3666V51.8919H12.8696V50.7019H13.3666V51.1465L13.955 51.1596ZM4.67021 53.0296V53.5266H4.22559V52.3496H4.67021V52.7942H5.25869V52.3496H5.75562V53.4743H5.25869V53.0296H4.67021ZM4.67021 51.1596V50.715H4.22559V51.8527H4.67021V51.395H5.25869V51.8919H5.75562V50.7019H5.25869V51.1465L4.67021 51.1596ZM12.085 49.5249V49.0803H12.5296V50.218H12.085V49.7734H11.4834V50.2703H11.0388V49.0934H11.4834V49.5249H12.085ZM6.54025 54.6643V55.1612H6.09563V53.9843H6.54025V54.4158H7.1418V53.9712H7.63874V55.1089H7.1418V54.6643H6.54025ZM6.54025 49.5249V49.0803H6.09563V50.218H6.54025V49.7734H7.1418V50.2703H7.63874V49.0934H7.1418V49.5249H6.54025Z" fill="#D22630"/>
<path d="M12.9166 49.4727V50.3227H14.3943L12.9166 49.4727ZM4.16797 53.9189L5.64569 54.7035V53.9189H4.16797Z" fill="#FFC72C"/>
<path d="M5.70331 49.4727L4.22559 50.3227H5.70331V49.4727ZM12.9219 53.9189V54.7035L14.3997 53.9189H12.9219Z" fill="white"/>
<path d="M16.425 55.5535C16.3335 55.9066 16.0327 56.1551 15.9804 56.5474C15.8496 56.1551 15.745 55.802 15.8496 55.4097C15.8496 55.1089 16.1373 54.9128 16.1896 54.5728C16.425 54.8081 16.4773 55.1612 16.425 55.5535ZM16.4773 57.0443C16.247 57.359 15.9412 57.6109 15.5881 57.7767C15.6404 57.489 15.4965 57.2797 15.3396 57.0443C15.1958 56.7828 15.0911 56.5474 15.2481 56.1943C15.3104 56.353 15.394 56.5026 15.4965 56.639C15.6404 56.8351 15.7842 57.0313 15.7842 57.332C15.9804 57.1882 16.0458 56.992 16.1373 56.7959C16.2947 56.5013 16.5359 56.2601 16.8304 56.1028C16.7258 56.4428 16.6735 56.7436 16.4773 57.0443ZM15.1958 58.0251L15.2481 58.5221L15.7842 58.1298C16.0458 57.8682 16.3335 57.7767 16.5296 57.4759C16.5233 57.6596 16.4752 57.8395 16.3892 58.0025C16.3032 58.1654 16.1814 58.3072 16.0327 58.4175L15.0519 59.0713C15.0519 58.7182 14.9473 58.4175 14.7904 58.0774C14.7671 57.9353 14.7789 57.7895 14.8244 57.6528C14.8699 57.5162 14.948 57.3926 15.0519 57.2928C15.0519 57.5282 15.0911 57.7767 15.1958 57.9728V58.0251ZM14.4504 59.1629L14.058 59.8559C14.3981 59.7513 14.7119 59.5552 15.0519 59.359C15.3919 59.1629 15.7842 59.0713 16.1373 58.7705C15.9804 59.4113 15.5358 59.7513 14.9604 59.9475C14.555 60.0521 14.1627 59.9998 13.6527 60.209C13.719 59.8616 13.838 59.5265 14.0057 59.2152L14.3588 58.5221C14.4504 58.7182 14.5027 58.9144 14.4504 59.1759V59.1629ZM13.1688 60.1044C13.0429 60.305 12.8731 60.4749 12.6719 60.6013C13.1688 60.6013 13.5611 60.3398 14.058 60.3006C14.3588 60.3006 14.6465 60.4052 14.9473 60.3529C14.6073 60.6013 14.2019 60.8498 13.7703 60.8498C13.2211 60.9414 12.6719 60.8498 12.0703 60.8498C12.3711 60.6406 12.528 60.3529 12.6719 60.1044C12.9334 59.7121 13.1688 59.4506 13.6134 59.4113C13.4173 59.6075 13.3126 59.9083 13.1688 60.1044ZM11.4426 60.889C12.2795 61.046 13.1165 61.2421 14.0057 61.2421C13.0757 61.6296 12.0329 61.6484 11.0895 61.2944C10.5926 61.1375 10.148 60.9937 9.75565 61.0329C9.21948 61.0329 8.47408 61.3337 7.67637 62.1314L7.38867 61.8829C8.52639 60.889 10.0041 60.6406 11.4426 60.889Z" fill="#FFC72C"/>
</g>
</g>
</g>
<defs>
<clipPath id="clip0_12589_5232">
<rect width="62.7706" height="62.7706" rx="31.3853" fill="white"/>
</clipPath>
<clipPath id="clip1_12589_5232">
<rect width="83.6941" height="62.7706" fill="white" transform="translate(-10.4619)"/>
</clipPath>
</defs>
</svg>
