<svg width="63" height="63" viewBox="0 0 63 63" fill="none" xmlns="http://www.w3.org/2000/svg">
<g clip-path="url(#clip0_12589_5230)">
<g clip-path="url(#clip1_12589_5230)">
<mask id="mask0_12589_5230" style="mask-type:luminance" maskUnits="userSpaceOnUse" x="-11" y="0" width="85" height="63">
<path d="M73.2322 0H-10.4619V62.7706H73.2322V0Z" fill="white"/>
</mask>
<g mask="url(#mask0_12589_5230)">
<path d="M-10.4619 0H73.2322V62.7706H-10.4619V0Z" fill="#E70013"/>
<path d="M31.3882 15.5866C27.221 15.5692 23.2177 17.2079 20.2588 20.1423C17.2999 23.0767 15.6279 27.0663 15.6105 31.2334C15.5931 35.4005 17.232 39.4039 20.1663 42.3628C23.1006 45.3217 27.0902 46.9937 31.2574 47.0111C35.4245 47.0283 39.4278 45.3896 42.3867 42.4553C45.3456 39.5209 47.0176 35.5313 47.035 31.3642C47.0524 27.197 45.4135 23.1936 42.4792 20.2348C39.5449 17.2759 35.5553 15.6038 31.3882 15.5866ZM40.8038 38.3147C39.3312 40.3067 37.2677 41.7832 34.907 42.5342C32.5464 43.285 30.009 43.2719 27.6563 42.4967C25.3035 41.7215 23.2554 40.2237 21.8034 38.2167C20.3516 36.2096 19.57 33.7956 19.57 31.3184C19.57 28.8412 20.3516 26.4273 21.8034 24.4202C23.2554 22.4131 25.3035 20.9153 27.6563 20.14C30.009 19.3648 32.5464 19.3518 34.907 20.1027C37.2677 20.8535 39.3312 22.3301 40.8038 24.3221C39.4511 23.1039 37.7744 22.3039 35.9764 22.0189C34.1784 21.7339 32.3364 21.9763 30.6734 22.7166C29.0104 23.4568 27.5976 24.6634 26.6061 26.1901C25.6147 27.7167 25.087 29.498 25.087 31.3184C25.087 33.1388 25.6147 34.9201 26.6061 36.4468C27.5976 37.9734 29.0104 39.1799 30.6734 39.9202C32.3364 40.6605 34.1784 40.9029 35.9764 40.6179C37.7744 40.3329 39.4511 39.5329 40.8038 38.3147ZM40.1891 35.477L35.2983 33.8947L32.2774 38.0532V32.9139L27.3866 31.3184L32.2774 29.723V24.5837L35.2983 28.7422L40.1891 27.1599L37.1683 31.3184L40.1891 35.477Z" fill="white"/>
</g>
</g>
</g>
<defs>
<clipPath id="clip0_12589_5230">
<rect width="62.7706" height="62.7706" rx="31.3853" fill="white"/>
</clipPath>
<clipPath id="clip1_12589_5230">
<rect width="83.6941" height="62.7706" fill="white" transform="translate(-10.4619)"/>
</clipPath>
</defs>
</svg>
