<svg width="63" height="63" viewBox="0 0 63 63" fill="none" xmlns="http://www.w3.org/2000/svg">
<g clip-path="url(#clip0_12589_5231)">
<path fill-rule="evenodd" clip-rule="evenodd" d="M0 -5.23096H62.7706V69.0476H0V-5.23096Z" fill="#E30A17"/>
<path fill-rule="evenodd" clip-rule="evenodd" d="M39.9186 32.6432C39.9186 39.1361 34.5635 44.4029 27.9529 44.4029C21.3424 44.4029 15.9873 39.1361 15.9873 32.6334C15.9873 26.1308 21.3424 20.8835 27.9529 20.8835C34.5635 20.8835 39.9186 26.1504 39.9186 32.6432Z" fill="white"/>
<path fill-rule="evenodd" clip-rule="evenodd" d="M40.5044 32.6433C40.5044 37.8415 36.2281 42.0491 30.9417 42.0491C25.6552 42.0491 21.3691 37.8317 21.3691 32.6335C21.3691 27.4353 25.6552 23.2375 30.9417 23.2375C36.2281 23.2375 40.5142 27.4451 40.5142 32.6433H40.5044Z" fill="#E30A17"/>
<path fill-rule="evenodd" clip-rule="evenodd" d="M42.2405 27.1521L42.1425 31.497L38.0918 32.5955L42.0934 34.0177L41.9953 38.0095L44.5944 34.8906L48.5372 36.2637L46.2618 32.9192L49.0374 29.5943L44.771 30.7713L42.2405 27.1423V27.1521Z" fill="white"/>
</g>
<defs>
<clipPath id="clip0_12589_5231">
<rect width="62.7706" height="62.7706" rx="31.3853" fill="white"/>
</clipPath>
</defs>
</svg>
