<svg width="63" height="63" viewBox="0 0 63 63" fill="none" xmlns="http://www.w3.org/2000/svg">
<g clip-path="url(#clip0_12589_5234)">
<g clip-path="url(#clip1_12589_5234)">
<mask id="mask0_12589_5234" style="mask-type:luminance" maskUnits="userSpaceOnUse" x="-11" y="0" width="85" height="63">
<path d="M73.2322 0H-10.4619V62.7706H73.2322V0Z" fill="white"/>
</mask>
<g mask="url(#mask0_12589_5234)">
<path d="M-10.4619 0H73.2322V62.7706H-10.4619V0Z" fill="#009FCA"/>
<path fill-rule="evenodd" clip-rule="evenodd" d="M67.1238 16.0457H70.7462L67.83 18.0335L68.9416 21.2635L66.0254 19.2627L63.1222 21.2635L64.2338 18.0335L61.3176 16.0457H64.9138L66.0254 12.8157L67.1238 16.0457ZM58.0744 41.7817H61.6837L58.7675 43.7694L59.8791 46.9995L56.9629 44.9987L54.0466 46.9995L55.1713 43.7694L52.2551 41.7817H55.8382L56.9498 38.5516L58.0744 41.7817ZM67.1238 35.9492H70.7462L67.83 37.937L68.9416 41.1671L66.0254 39.1662L63.1222 41.1671L64.2338 37.937L61.3176 35.9492H64.9138L66.0254 32.7192L67.1238 35.9492ZM28.2192 54.6235H31.8285L28.8992 56.5982L30.0238 59.8152L27.1076 57.8274L24.1914 59.8152L25.316 56.5982L22.3867 54.5973H25.996L27.1076 51.3804L28.2192 54.6235ZM36.4055 44.6194H32.7962L35.7124 42.6186L34.6008 39.4016L37.517 41.3894L40.4333 39.4016L39.3086 42.6186L42.2248 44.6194H38.6286L37.517 47.8364L36.4055 44.6194ZM47.0373 29.9076H43.4149L46.3311 27.9198L45.2195 24.6898L48.1357 26.6906L51.052 24.6898L49.9273 27.9198L52.8435 29.9076H49.2473L48.1357 33.1376L47.0373 29.9076ZM55.969 26.8606H52.3597L55.289 24.8598L54.1643 21.6428L57.0805 23.6305L59.9968 21.6428L58.8721 24.8598L61.8014 26.8606H58.1921L57.0805 30.0776L55.969 26.8606ZM47.0373 52.3088H43.4149L46.3311 50.3211L45.2457 47.078L48.1619 49.0657L51.0781 47.078L49.9535 50.308L52.8697 52.2958H49.2735L48.1619 55.5258L47.0373 52.3088ZM36.4055 54.9112H32.7962L35.7124 52.9235L34.6008 49.6934L37.517 51.6811L40.4333 49.6934L39.3086 52.9104L42.2379 54.9243H38.6417L37.5301 58.1543L36.4055 54.9112Z" fill="#FFF40D"/>
<path d="M-10.4619 0H31.3851V31.3853H-10.4619V0Z" fill="#012169"/>
<path d="M-5.55796 0L10.3962 11.8349L26.285 0H31.3851V4.05393L15.6925 15.758L31.3851 27.3967V31.3853H26.1543L10.4616 19.6812L-5.16565 31.3853H-10.4619V27.4621L5.16535 15.8234L-10.4619 4.18471V0H-5.55796Z" fill="white"/>
<path d="M17.2618 18.3735L31.3851 28.7699V31.3853L13.6655 18.3735H17.2618ZM5.23073 19.6812L5.62305 21.9697L-6.93107 31.3853H-10.4619L5.23073 19.6812ZM31.3851 0V0.196158L15.104 12.4887L15.2348 9.61175L28.1158 0H31.3851ZM-10.4619 0L5.16535 11.5079H1.24218L-10.4619 2.74621V0Z" fill="#C8102E"/>
<path d="M5.29612 0V31.3853H15.7579V0H5.29612ZM-10.4619 10.4618V20.9235H31.3851V10.4618H-10.4619Z" fill="white"/>
<path d="M-10.4619 12.6195V18.8966H31.3851V12.6195H-10.4619ZM7.38847 0V31.3853H13.6655V0H7.38847Z" fill="#C8102E"/>
</g>
</g>
</g>
<defs>
<clipPath id="clip0_12589_5234">
<rect width="62.7706" height="62.7706" rx="31.3853" fill="white"/>
</clipPath>
<clipPath id="clip1_12589_5234">
<rect width="83.6941" height="62.7706" fill="white" transform="translate(-10.4619)"/>
</clipPath>
</defs>
</svg>
