<svg width="63" height="63" viewBox="0 0 63 63" fill="none" xmlns="http://www.w3.org/2000/svg">
<g clip-path="url(#clip0_12589_5235)">
<g clip-path="url(#clip1_12589_5235)">
<mask id="mask0_12589_5235" style="mask-type:luminance" maskUnits="userSpaceOnUse" x="-11" y="0" width="85" height="63">
<path d="M73.2322 0H-10.4619V62.7706H73.2322V0Z" fill="white"/>
</mask>
<g mask="url(#mask0_12589_5235)">
<mask id="mask1_12589_5235" style="mask-type:luminance" maskUnits="userSpaceOnUse" x="-11" y="0" width="85" height="63">
<path d="M-10.4619 0H73.224V62.7706H-10.4619V0Z" fill="white"/>
</mask>
<g mask="url(#mask1_12589_5235)">
<path fill-rule="evenodd" clip-rule="evenodd" d="M-15.6924 41.8552H78.4635V52.3129H-15.6924V41.8552Z" fill="#FFE700"/>
<path fill-rule="evenodd" clip-rule="evenodd" d="M-15.6924 31.3853H78.4635V41.8429H-15.6924V31.3853Z" fill="black"/>
<path fill-rule="evenodd" clip-rule="evenodd" d="M-15.6924 20.9275H78.4635V31.3852H-15.6924V20.9275Z" fill="#DE3908"/>
<path fill-rule="evenodd" clip-rule="evenodd" d="M-15.6924 10.47H78.4635V20.9277H-15.6924V10.47Z" fill="#FFE700"/>
<path fill-rule="evenodd" clip-rule="evenodd" d="M-15.6924 0H78.4635V10.4577H-15.6924V0Z" fill="black"/>
<path fill-rule="evenodd" clip-rule="evenodd" d="M41.1526 31.3853C41.1526 33.9768 40.1232 36.4621 38.2908 38.2946C36.4583 40.127 33.973 41.1564 31.3815 41.1564C28.7901 41.1564 26.3048 40.127 24.4723 38.2946C22.6399 36.4621 21.6105 33.9768 21.6104 31.3853C21.6104 28.7939 22.6399 26.3086 24.4723 24.4761C26.3048 22.6437 28.7901 21.6143 31.3815 21.6143C33.973 21.6143 36.4583 22.6437 38.2908 24.4761C40.1232 26.3086 41.1526 28.7939 41.1526 31.3853Z" fill="#FFFDFF" stroke="black" stroke-width="0.122599"/>
<path fill-rule="evenodd" clip-rule="evenodd" d="M29.6688 23.8946L29.0312 22.73C29.2765 22.4847 29.681 22.2886 30.343 22.2886L30.2695 23.5759L29.6565 23.8946H29.6688Z" fill="#DE3108" stroke="black" stroke-width="0.122599"/>
<path fill-rule="evenodd" clip-rule="evenodd" d="M30.2867 23.5775L30.3725 22.2901C30.3725 22.2901 31.6843 22.2166 32.3953 23.0748L31.6966 24.0801L30.2744 23.5897L30.2867 23.5775Z" fill="#FFE700" stroke="black" stroke-width="0.122599"/>
<path fill-rule="evenodd" clip-rule="evenodd" d="M31.7041 24.0661L32.3539 23.0608C32.7829 23.5144 32.9668 23.8331 33.0281 24.3235C33.0404 24.3358 32.0106 24.581 32.0106 24.5688L31.7041 24.0661Z" fill="#DE3108" stroke="black" stroke-width="0.122599"/>
<path fill-rule="evenodd" clip-rule="evenodd" d="M29.9894 40.5913C29.9894 40.5913 31.2031 39.2059 33.557 39.5001C33.2014 38.9239 32.0491 38.9975 32.0491 38.9975C32.0491 38.9975 31.7058 36.3003 31.9755 36.1532C32.2452 36.006 33.4467 36.1655 33.4467 36.1655C33.5938 36.1655 33.8636 35.7487 33.6428 35.4788C33.4344 35.2091 32.8091 34.1916 33.0666 33.9832C33.3241 33.7871 34.7095 34.1057 34.7095 34.1057L30.7863 29.0793C30.7863 29.0793 30.3817 27.1789 31.1909 26.2594C32.1595 25.4625 32.0491 24.5921 32.0245 24.6044C31.8896 23.7217 30.5534 23.0964 29.6461 23.9055C29.1189 24.5431 29.4744 25.0335 29.4744 25.0335C29.4744 25.0335 28.0646 25.4136 28.0155 25.6587C27.9542 25.9039 29.597 25.622 29.597 25.622L29.4377 26.7376C29.4377 26.7376 26.2501 29.6309 28.7021 32.1319L28.7757 32.0339C28.7757 32.0339 29.6339 33.0882 30.5289 33.3211C31.3871 34.1794 31.3012 34.0568 31.3012 34.0568C31.3012 34.0568 31.4606 35.4177 31.3012 35.6874C31.0928 35.626 28.935 35.5402 28.6163 35.6628C28.3221 35.7609 27.2187 35.6996 27.4884 37.5141L27.8929 36.5945C27.8929 36.5945 27.8562 37.2443 28.1259 37.4773C28.0768 36.7908 28.3834 36.3248 28.3834 36.3248C28.3834 36.3248 28.4324 37.0849 28.604 37.183C28.7757 37.3056 28.7757 35.9571 29.7074 36.0797C30.6147 36.1899 31.2889 36.1532 31.2889 36.1532C31.2889 36.1532 31.5955 38.7768 31.4973 39.022C30.8353 38.8626 29.2416 39.0833 29.1434 39.4879C30.0753 39.4266 30.5043 39.5369 30.5043 39.5369C30.5043 39.5369 29.7565 40.2112 29.9894 40.5913Z" fill="black" stroke="black" stroke-width="0.110339" stroke-linecap="round" stroke-linejoin="round"/>
<path fill-rule="evenodd" clip-rule="evenodd" d="M30.3595 26.3343C30.3595 26.3343 28.0425 28.8843 29.0477 30.8337C29.0968 30.5638 29.0723 30.3923 29.1091 30.4045C29.0477 30.3677 29.391 30.6375 29.3665 30.5884C29.3665 30.4413 29.2685 30.1348 29.2685 30.1348L29.5749 30.2206L29.391 29.8773L29.8446 29.9264C29.8446 29.9264 29.6853 29.5095 29.7344 29.5095L30.1021 29.5341C29.4401 28.3571 30.0654 27.3764 30.3595 26.322V26.3343Z" fill="#9CA69C" stroke="#9CA69C" stroke-width="0.110339" stroke-linecap="round" stroke-linejoin="round"/>
<path fill-rule="evenodd" clip-rule="evenodd" d="M31.1615 24.1396C31.1615 24.1396 31.2841 25.0224 30.7937 25.2675C30.7324 25.3288 30.426 25.427 30.475 25.6109C30.524 25.856 30.6588 25.807 30.8428 25.758C31.3454 25.6722 31.9339 24.6055 31.1615 24.1396Z" fill="#9CA69C" stroke="#9CA69C" stroke-width="0.122599"/>
<path fill-rule="evenodd" clip-rule="evenodd" d="M30.3063 24.8875C30.3063 24.9363 30.2869 24.983 30.2524 25.0176C30.2179 25.052 30.1711 25.0713 30.1224 25.0713C30.0735 25.0713 30.0268 25.052 29.9924 25.0176C29.9578 24.983 29.9385 24.9363 29.9385 24.8875C29.9385 24.8387 29.9578 24.7919 29.9924 24.7575C30.0268 24.723 30.0735 24.7036 30.1224 24.7036C30.1711 24.7036 30.2179 24.723 30.2524 24.7575C30.2869 24.7919 30.3063 24.8387 30.3063 24.8875Z" fill="white"/>
<path fill-rule="evenodd" clip-rule="evenodd" d="M29.5559 25.623C29.4333 25.7334 28.7958 26.3954 29.4333 26.6406C30.0831 26.469 29.8992 26.3464 30.0463 26.1993C30.0463 25.8927 29.7275 25.8192 29.5559 25.6353V25.623Z" fill="#DE3108" stroke="black" stroke-width="0.122599"/>
<path fill-rule="evenodd" clip-rule="evenodd" d="M30.9665 31.937C30.9297 32.0842 30.7825 32.6236 30.9787 33.0404C31.5427 32.7953 31.8001 32.8688 31.9841 32.9915C31.5304 32.6236 31.3465 32.4643 30.9665 31.937Z" fill="#9CA69C" stroke="#9CA69C" stroke-width="0.110339" stroke-linecap="round" stroke-linejoin="round"/>
<path fill-rule="evenodd" clip-rule="evenodd" d="M31.9248 34.4624L31.9494 35.7129C31.9494 35.7129 32.3907 35.7864 32.5868 35.7129C32.783 35.6394 32.5868 34.8547 31.9248 34.4624Z" fill="white" stroke="white" stroke-width="0.110339" stroke-linecap="round" stroke-linejoin="round"/>
<path fill-rule="evenodd" clip-rule="evenodd" d="M35.0655 34.6202C35.0655 34.6202 34.2685 32.6831 32.2212 32.1926C30.1738 31.7023 30.4435 29.5201 30.6028 29.3852C30.701 29.2013 30.7623 28.907 31.3507 29.189C31.9392 29.471 34.6608 30.8319 35.0532 30.9054C35.4455 30.979 35.1022 34.6691 35.0778 34.6202H35.0655Z" fill="#9CA69C" stroke="black" stroke-width="0.122599"/>
<path fill-rule="evenodd" clip-rule="evenodd" d="M33.1305 32.1822C33.0937 32.2068 35.8645 33.825 35.0308 35.2105C35.8154 34.6832 35.5702 33.776 35.5702 33.776C35.5702 33.776 36.2077 35.4556 34.6385 36.277C34.81 36.4241 34.9204 36.3996 34.9204 36.3996L34.6507 36.6571C34.6507 36.6571 34.5281 36.8655 35.5824 36.3506C35.3005 36.5835 35.276 36.7551 35.276 36.7551C35.276 36.7551 35.3496 36.9759 36.0361 36.3751C35.4844 36.9759 35.3618 37.2823 35.3618 37.2701C36.8698 37.1474 40.1431 32.2435 34.3319 30.8091L34.5894 31.0788L33.1182 32.1822H33.1305Z" fill="#DE3108" stroke="black" stroke-width="0.110339" stroke-linejoin="round"/>
<path fill-rule="evenodd" clip-rule="evenodd" d="M33.2481 31.705C33.6159 31.9747 33.7508 32.0729 33.7997 32.1955C33.4565 32.1219 33.1499 32.1464 33.1499 32.1464C33.1499 32.1464 32.4021 31.4353 32.2673 31.374C32.1691 31.374 31.5807 31.0063 31.5807 31.0063C31.2987 30.8591 31.029 29.8661 32.0956 30.148C32.5048 30.3614 32.9265 30.5497 33.3584 30.712L34.6702 31.1288L35.4303 31.9747C35.4303 31.9747 34.0818 31.3127 33.9101 31.3005C34.2779 31.5948 34.4863 32.0116 34.4863 32.0116C34.0572 31.889 33.6894 31.7663 33.2481 31.705Z" fill="white" stroke="black" stroke-width="0.110339" stroke-linecap="round" stroke-linejoin="round"/>
<path d="M28.002 25.7346C28.002 25.7346 29.2893 25.4159 29.4486 25.4648" stroke="white" stroke-width="0.110339" stroke-linecap="round"/>
<path fill-rule="evenodd" clip-rule="evenodd" d="M-15.6924 52.313H78.4635V62.7707H-15.6924V52.313Z" fill="#DE3908"/>
</g>
</g>
</g>
</g>
<defs>
<clipPath id="clip0_12589_5235">
<rect width="62.7706" height="62.7706" rx="31.3853" fill="white"/>
</clipPath>
<clipPath id="clip1_12589_5235">
<rect width="83.6941" height="62.7706" fill="white" transform="translate(-10.4619)"/>
</clipPath>
</defs>
</svg>
