<svg width="63" height="63" viewBox="0 0 63 63" fill="none" xmlns="http://www.w3.org/2000/svg">
<g clip-path="url(#clip0_12589_5239)">
<path d="M0 -3.13867H62.7706V66.9551H0V-3.13867Z" fill="white"/>
<path d="M20.0385 39.2641C20.0385 39.2641 19.9895 38.911 20.6466 38.6658C21.2939 38.4108 21.3528 37.4692 21.2154 36.8415C21.2154 36.8415 20.882 37.43 20.4602 37.636C20.4602 37.636 19.7933 37.989 19.7541 38.656C19.7541 38.656 19.7541 38.9012 19.705 39.0973C19.6756 39.1954 19.3716 38.2539 19.9404 37.5477C20.5289 36.8317 20.6858 36.2432 20.2248 35.0957C20.2248 35.0957 20.1758 35.7823 19.7246 36.1844C19.2637 36.5767 19.2048 36.6159 19.2146 37.5575C19.2146 37.5575 19.2146 37.891 19.0479 37.9989C19.0479 37.9989 18.6948 37.479 18.5967 37.1358C18.4987 36.7925 18.4594 36.6454 18.8714 36.2531C18.8714 36.2531 20.166 35.3998 19.2342 33.5657C19.2342 33.5657 19.2048 34.1934 18.7439 34.5661C18.3025 34.9486 18.3319 35.1938 18.3123 35.8411C18.2927 36.4983 18.2535 36.4492 18.2044 36.5473C18.2044 36.5473 17.3707 35.0173 18.0083 34.213C18.6458 33.399 19.0087 33.2322 18.3025 31.7218C18.3025 31.7218 18.3319 32.5064 17.7631 32.8791C17.204 33.2714 17.3315 34.1542 17.3315 34.1542C17.3315 34.1542 17.3707 34.4974 17.253 34.7426C17.253 34.7426 16.4586 33.1832 17.2138 32.3495C17.8611 31.6335 17.9004 31.1333 17.5571 30.1329C17.5571 30.1329 17.5179 30.5939 17.1648 30.8489C16.8019 31.1039 16.5175 31.3491 16.5861 32.3201C16.5861 32.3201 16.6155 33.0066 16.5273 33.2028C16.5273 33.2028 16.1938 32.5751 16.0957 32.173C15.9976 31.761 15.9682 31.5256 16.2134 31.1235C16.4586 30.7214 17.4394 29.5543 16.2723 27.8869C16.2723 27.8869 16.2428 28.4263 15.9388 28.9167C15.6446 29.4071 15.7819 29.9858 15.8407 30.4272C15.9094 30.8685 15.6936 31.3001 15.6936 31.3001C15.6936 31.3001 15.1836 30.3683 15.3013 29.2992C15.3994 28.2204 14.9678 27.3377 13.9772 26.71C13.9772 26.71 13.2612 28.3773 14.242 29.2306C14.242 29.2306 15.0757 30.0545 15.2915 31.0549C15.2915 31.0549 14.654 30.996 14.0851 29.8779C13.5064 28.7598 12.3197 28.9364 12.2412 28.9265C12.2412 28.9265 12.4374 30.6527 14.2616 31.1431C14.2616 31.1431 15.4386 31.3393 15.6544 32.2024C15.6544 32.2024 15.8505 32.7909 15.929 33.1047C15.929 33.1047 15.5563 32.9576 15.213 32.4476C14.8697 31.9572 14.9188 31.8885 13.7614 31.7708C13.7614 31.7708 13.3005 31.7218 13.0553 31.3883C13.0553 31.3883 13.5457 33.2126 14.7913 33.2028C14.7913 33.2028 15.929 33.0753 16.5567 34.5759L16.2723 34.3797C16.1055 34.2719 15.6838 34.0561 14.8501 34.1542C14.0164 34.2522 13.7811 34.1149 13.5751 34.0561C13.5751 34.0561 14.4186 35.5959 15.6053 35.1349C16.8019 34.674 17.3707 36.3511 17.3904 36.3806C17.3904 36.3806 17.2236 36.2629 17.0177 36.0569C16.8019 35.8509 16.3703 35.5959 15.5465 35.8607C15.5465 35.8607 14.9482 36.0863 14.3401 35.9C14.3401 35.9 14.9286 37.0279 16.2821 36.8317C16.6383 36.7614 17.008 36.8245 17.3208 37.009C17.6337 37.1934 17.8678 37.4863 17.9788 37.8321C17.9788 37.8321 17.8023 37.734 17.6846 37.636C17.5571 37.5379 17.0961 37.2731 16.1153 37.5575C15.1345 37.8517 14.7815 37.5183 14.7815 37.5183C14.7815 37.5183 15.3209 38.4991 16.3703 38.6266C16.3703 38.6266 16.9588 38.6168 17.1942 38.5285C17.4394 38.4304 18.0965 38.2833 18.5477 38.9404C18.5477 38.9404 18.4202 38.96 18.2338 38.8718C18.2338 38.8718 17.5473 38.6266 17.0079 39.0679C17.0079 39.0679 16.5371 39.5485 15.8701 39.4602C15.8701 39.4602 16.7332 40.2939 18.1063 39.5877C18.1063 39.5877 18.5673 39.2543 18.9106 39.5093C19.2539 39.7741 20.0385 39.2543 20.0385 39.2543V39.2641Z" fill="#369443" stroke="#010002" stroke-width="0.196158" stroke-miterlimit="10"/>
<path d="M27.6782 18.5393C27.6782 18.5393 27.5213 17.1171 28.659 16.97C29.2484 16.867 29.8539 16.9073 30.4244 17.0877L30.9639 18.1273L30.7677 18.8335L30.0419 19.167C30.0419 19.167 30.1694 18.0881 29.1788 18.0685C28.9238 18.0685 28.7865 18.1666 28.3844 18.0979C27.9823 18.0292 27.7665 18.4706 27.6782 18.5393Z" fill="#F4C53D" stroke="#010002" stroke-width="0.196158" stroke-miterlimit="10"/>
<path d="M35.6832 22.0617C35.5066 22.2775 34.8299 22.3559 34.8299 22.3559C34.8299 22.3559 35.5263 22.8954 35.8303 23.6604C36.1245 24.4156 27.7486 23.6604 27.7486 23.6604C27.7486 23.6604 28.1213 23.4054 28.3665 22.915C28.3665 22.915 27.9938 23.0523 27.6211 22.6796C27.6211 22.6796 27.8957 22.7777 28.2586 22.2284C28.2586 22.2284 28.798 21.5419 29.1806 21.3457C29.1806 21.3457 29.004 21.4634 28.5823 21.228C28.5823 21.228 29.3081 21.1299 29.5631 19.904C29.5631 19.904 29.6121 19.6293 29.8867 19.2174C30.1613 18.8251 30.1025 19.3057 30.6125 18.6878C30.6125 18.6878 30.8479 18.2562 30.6419 18.0012C30.4458 17.7266 30.2202 17.8247 29.7984 17.5697C29.3669 17.3147 29.1806 17.1774 29.3277 16.785C29.4748 16.3927 29.8475 16.4516 29.9063 16.4516C29.9652 16.4516 29.9848 16.1083 30.4458 15.8729C30.9067 15.6375 32.1523 15.7454 32.3289 15.8434C32.525 15.9415 33.2606 16.1671 33.702 17.2656C34.1335 18.3641 33.5843 18.776 34.7612 20.4434C34.7612 20.4434 34.2905 20.5415 33.9864 20.4434C33.9864 20.4434 34.6043 21.5419 35.6832 22.0617Z" fill="#F4C53D" stroke="#010002" stroke-width="0.196158" stroke-miterlimit="10"/>
<path d="M30.5057 17.4128C29.5249 17.3638 29.9074 16.4517 29.9074 16.4517" stroke="#010002" stroke-width="0.196158" stroke-miterlimit="10"/>
<path d="M32.1732 17.5414C32.1732 17.5414 32.0065 17.4629 31.8594 17.2667C31.6632 17.0019 31.2023 16.8744 30.9669 17.1294C30.9669 17.1294 30.7217 17.404 30.4961 17.4237C30.4961 17.4237 30.7511 17.4923 30.9178 17.6492C31.0846 17.8062 31.2611 17.9239 31.5161 17.8846C31.7711 17.8552 31.8104 17.7179 31.928 17.6394C32.0556 17.561 32.1732 17.5414 32.1732 17.5414Z" fill="#F4C53D" stroke="#010002" stroke-width="0.196158" stroke-miterlimit="10"/>
<path d="M19.8916 41.3715C19.8916 41.3715 19.872 40.7438 20.6567 40.7046L22.9615 43.9118C22.9615 43.9118 22.8732 44.1177 21.8336 44.0981C21.8336 44.0981 21.7159 44.0981 21.6571 44.2158C21.5688 44.412 19.8916 41.3715 19.8916 41.3715Z" fill="#369443" stroke="#010002" stroke-width="0.196158" stroke-miterlimit="10"/>
<path d="M22.4263 37.6353C22.4263 37.6353 21.6895 38.8993 20.7991 38.9199C20.7991 38.9199 19.2679 38.7339 18.8353 39.134C18.5326 39.4131 18.224 39.6434 18.097 40.3566C17.973 41.0698 18.3406 41.2233 18.4277 41.2544C18.4277 41.2544 18.4957 41.7638 18.9992 41.6309C18.9992 41.6309 19.0287 42.1625 19.9176 41.9071C20.808 41.6516 21.1772 41.7328 21.3499 40.8469C21.5256 39.9595 21.6866 39.9742 21.8446 39.8679C22.0572 39.7246 22.4574 39.5903 22.7541 39.419C23.02 39.2654 24.0417 38.7457 24.3902 38.7058C24.7387 38.6645 24.6619 37.4921 24.6619 37.4921H23.7612L23.3256 36.8497L22.4249 37.6353H22.4263ZM25.2613 31.2948C25.2613 31.2948 24.3607 32.0287 23.6047 31.2948C23.6047 31.2948 23.3005 31.661 22.6892 31.5547C22.0808 31.447 21.9789 31.1265 21.9213 30.9434C21.9213 30.9434 21.3927 31.2506 20.9468 31.007C20.5038 30.7647 20.5038 30.3971 20.5038 30.3971C20.5038 30.3971 19.7287 30.5507 19.3314 30.025C18.9342 29.5008 19.1764 28.981 19.3905 28.919C19.3905 28.919 18.5533 29.1391 18.3244 28.4199C18.2634 28.2594 18.254 28.0838 18.2974 27.9176C18.3408 27.7514 18.4349 27.6029 18.5665 27.4927C18.5665 27.4927 16.8036 27.4838 16.08 26.9316C16.08 26.9316 15.479 26.5535 15.8378 26.1564C15.8378 26.1564 14.2505 25.9024 13.8533 25.2704C13.8533 25.2704 13.6791 25.0962 13.7367 24.7905C13.7367 24.7905 13.747 24.6178 13.9212 24.6074C13.9212 24.6074 12.111 24.3269 11.5883 23.7304C11.5883 23.7304 11.3373 23.4557 11.4627 23.0881C11.4627 23.0881 11.4893 22.992 11.5322 22.9256C11.5322 22.9256 9.88427 22.5786 9.07218 21.8447C9.07218 21.8447 8.60257 21.4269 8.84479 20.8657C8.84479 20.8657 6.09093 20.1127 6.72882 18.899C6.72882 18.899 5.44124 18.4811 5.84877 17.319C5.84877 17.319 4.78416 16.7786 5.24781 15.9222C5.69226 15.1027 7.0581 16.0654 8.6735 16.5128C8.6735 16.5128 13.05 17.889 15.2044 18.2552L21.3263 27.3701L24.8981 28.7463L25.2599 31.2948H25.2613Z" fill="#F4C53D" stroke="#010002" stroke-width="0.196878"/>
<path d="M25.3053 24.5815C25.3053 24.5815 24.7309 24.1503 23.7076 24.6568C23.7076 24.6568 23.3636 24.8945 23.0919 24.6347C23.033 24.5784 22.9873 24.5098 22.9581 24.4339C22.9288 24.3578 22.9168 24.2763 22.9229 24.1951C22.929 24.1139 22.953 24.035 22.9931 23.9643C23.0334 23.8934 23.0888 23.8324 23.1554 23.7856C23.9188 23.22 24.2008 21.5235 23.0402 20.8191C23.0402 20.8191 21.3569 19.821 15.1804 18.2499C15.1804 18.2499 14.6636 18.1052 14.386 18.1746C14.2517 18.2088 14.1291 18.2788 14.0314 18.3771C13.9337 18.4754 13.8643 18.5982 13.8308 18.7327C13.8308 18.7327 13.5532 19.5198 14.4834 19.9701C14.4834 19.9701 14.9028 20.1621 15.3354 20.2861C15.3354 20.2861 14.86 20.1827 14.6562 20.6523C14.4643 21.1011 14.7448 21.5604 15.6159 21.8557C15.6159 21.8557 15.8522 21.9473 16.1874 22.0285C16.1874 22.0285 15.4418 22.2425 15.8006 22.845C15.8006 22.845 16.1195 23.477 17.2476 23.5892C17.2476 23.5892 16.4059 23.6808 16.9996 24.481C16.9996 24.481 17.2609 24.9196 18.0833 25.0821C18.0833 25.0821 17.4602 25.1027 17.7733 25.6623C18.0893 26.2235 18.829 26.5394 19.5584 26.5911C19.5584 26.5911 19.9527 26.6118 20.2288 26.5498C20.2288 26.5498 19.5348 26.8967 19.9423 27.4771C19.9423 27.4771 20.2421 27.8905 20.9922 27.8699C20.9922 27.8699 20.7988 28.5195 21.3481 28.7646C21.7763 28.9566 22.1322 28.6495 22.1322 28.6495C22.1322 28.6495 21.9874 29.3449 22.612 29.59C22.612 29.59 22.9235 29.751 23.3887 29.59C23.3887 29.59 23.7431 30.3859 25.0071 29.8263C26.2709 29.2696 25.3053 24.5829 25.3053 24.5829V24.5815ZM25.3791 31.8078C25.3791 31.8078 25.1946 32.8031 23.7254 34.0552C23.7254 34.0552 22.5913 35.0549 22.6194 36.2066C22.6489 37.3805 22.4171 37.5119 21.9712 37.9091C21.9712 37.9091 22.8911 37.9814 23.3356 37.3687C23.3356 37.3687 23.3163 38.3875 23.1805 38.4805C23.1805 38.4805 23.4699 38.4982 23.8878 38.042C23.8878 38.042 24.1388 37.7762 24.3721 37.6743C24.3721 37.6743 24.1004 38.3787 24.313 39.0312C24.313 39.0312 24.3809 38.7758 24.7397 38.6636C24.7397 38.6636 25.3895 38.5307 25.6405 37.5931C25.6405 37.5931 25.8044 36.9729 26.8218 36.4207C26.8218 36.4207 27.9734 35.9866 27.9439 35.4196C27.9144 34.8511 25.3806 31.8078 25.3806 31.8078H25.3791Z" fill="#F4C53D" stroke="#010002" stroke-width="0.196878"/>
<path d="M30.716 44.6403C30.716 44.6403 30.4516 45.8038 29.5347 45.7108C29.5347 45.7108 28.8864 45.6488 28.9352 44.5679C28.9352 44.5679 27.9769 45.0788 27.8219 43.8149C27.8219 43.8149 26.9507 44.0172 26.961 42.8359C26.961 42.8359 26.1489 42.9777 26.2449 41.9278C26.2449 41.9278 25.3634 42.1641 25.3634 41.1747C25.3634 41.1747 23.3021 40.8322 27.5989 36.9133L31.4321 39.1961L30.716 44.6403Z" fill="#F4C53D" stroke="#010002" stroke-width="0.196878" stroke-miterlimit="10"/>
<path d="M31.1446 39.414C31.1446 39.414 30.5052 39.981 30.0504 39.1334C30.0504 39.1334 29.4303 39.1039 29.3343 38.6344C29.3343 38.6344 28.8308 38.5842 28.7334 38.1043C28.7334 38.1043 28.0467 38.0334 28.0659 37.4532C28.0659 37.4532 26.8167 37.3557 28.0659 35.9411C29.3152 34.5266 31.434 38.2889 31.434 38.2889L31.1446 39.414ZM31.8563 39.0626C32.4764 39.0626 33.1778 42.9312 32.9963 45.2628C32.9298 46.1088 32.4764 46.7999 31.8563 46.7999C31.2362 46.7999 30.7843 46.1088 30.7193 45.2628C30.5363 42.9312 31.2377 39.0626 31.8563 39.0626Z" fill="#F4C53D" stroke="#010002" stroke-width="0.196878"/>
<path d="M31.8554 40.302C32.3284 40.302 32.7119 39.7334 32.7119 39.0321C32.7119 38.3308 32.3284 37.7622 31.8554 37.7622C31.3825 37.7622 30.999 38.3308 30.999 39.0321C30.999 39.7334 31.3825 40.302 31.8554 40.302Z" fill="#F4C53D" stroke="#010002" stroke-width="0.196878"/>
<path d="M28.9356 44.5654C28.9356 44.5654 29.0331 42.5173 30.8079 39.5805M27.8223 43.8123C27.8223 43.8123 27.5462 42.6296 30.0489 39.1316C30.0489 39.1316 29.7581 38.2973 30.6485 37.7613M26.9614 42.8334C26.9614 42.8334 26.8832 41.5532 29.3328 38.6325C29.3328 38.6325 29.1158 37.8795 30.0032 37.277M26.2453 41.9253C26.2453 41.9253 26.3368 40.6318 28.7319 38.1024C28.7319 38.1024 28.6137 37.3286 29.4701 36.8488M25.3652 41.1722C25.3652 41.1722 25.538 39.6942 28.0644 37.4512C28.0644 37.4512 27.9774 36.8695 28.819 36.2788" stroke="#010002" stroke-width="0.196878" stroke-miterlimit="10"/>
<path d="M5.84766 17.3188C5.84766 17.3188 7.8307 18.4676 14.0117 19.6164M6.7277 18.8989C6.7277 18.8989 12.098 20.6501 14.5994 20.8656M8.84219 20.8656C8.84219 20.8656 11.9932 21.855 15.6832 22.4795M11.531 22.9269C11.531 22.9269 15.0896 23.7819 16.7906 23.9236M13.9201 24.6073C13.9201 24.6073 16.9309 25.2348 17.6928 25.3102M15.8367 26.1562C15.8367 26.1562 18.0338 26.4899 18.908 26.4722M18.5654 27.4911C18.5654 27.4911 19.4543 27.4497 19.8811 27.3789M19.3879 28.9189C19.3879 28.9189 20.1439 28.7152 20.5884 28.4302M20.5013 30.3969C20.5013 30.3969 21.083 30.1725 21.3636 29.5612M21.9202 30.9433C21.9202 30.9433 22.3691 30.5402 22.3987 30.0913M23.6036 31.2947C23.6036 31.2947 23.4352 31.1485 23.5504 30.5165M23.3864 29.5892C23.3864 29.5892 23.2979 29.4091 23.3274 29.1227M20.2118 20.5393C20.2118 20.5393 21.2277 20.9468 21.5659 21.5079C21.9055 22.069 21.6825 22.6139 21.5659 22.9254C21.5083 23.0835 20.7921 24.464 21.6338 25.4637M20.2251 26.5475C20.2251 26.5475 20.2311 26.5431 20.5884 26.4294M18.0812 25.0798C18.0812 25.0798 18.6865 25.2009 19.2816 25.2068M17.2439 23.5855C17.2439 23.5855 17.9556 23.6578 18.6245 23.6475M16.1852 22.0262C16.1852 22.0262 17.2114 22.23 17.7622 22.2403M15.3332 20.2868C15.3332 20.2868 16.5987 20.6471 17.5392 20.7755M19.63 21.5198C19.63 21.5198 18.7205 22.3658 19.8146 23.1514C19.8146 23.1514 19.3599 23.8646 20.2694 24.6088M20.0273 24.9602C20.0273 24.9602 19.8914 26.3216 21.557 26.3216C21.557 26.3216 21.2366 27.5339 22.8446 27.494C22.8446 27.494 23.0276 28.4627 24.1883 28.2678M21.6323 38.9213C21.6323 38.9213 21.368 38.9803 20.7965 38.9213M19.19 39.6344C19.19 39.6344 18.3868 39.5119 18.4251 41.2557M19.6744 40.0316C19.6744 40.0316 18.9479 39.9401 18.9951 41.6322M26.6837 35.9548C26.6837 35.9548 26.3352 36.0257 26.093 36.3018C25.8524 36.5765 25.3873 36.5248 25.3873 36.5248C25.3873 36.5248 25.6383 36.321 25.7268 35.8116C25.8125 35.3021 26.0945 35.1486 26.0945 35.1486M25.2632 34.6672C25.2632 34.6672 24.9148 34.7381 24.6725 35.0128C24.4304 35.2889 23.9653 35.2372 23.9653 35.2372C23.9653 35.2372 24.2163 35.0334 24.3049 34.524C24.392 34.0146 24.6725 33.861 24.6725 33.861M25.0226 36.6443C25.0226 36.6443 24.7184 36.7079 24.5072 36.9471C24.2961 37.1878 23.89 37.1434 23.89 37.1434C23.89 37.1434 24.1114 36.9663 24.1853 36.5204C24.2621 36.0759 24.5072 35.9415 24.5072 35.9415" stroke="#010002" stroke-width="0.196878"/>
<path d="M41.0489 37.6353C41.0489 37.6353 41.7857 38.8993 42.6761 38.9199C42.6761 38.9199 44.2073 38.7339 44.6399 39.134C44.9426 39.4131 45.2512 39.6434 45.3783 40.3566C45.5022 41.0698 45.1346 41.2233 45.0475 41.2544C45.0475 41.2544 44.9795 41.7638 44.476 41.6309C44.476 41.6309 44.4465 42.1625 43.5576 41.9071C42.6672 41.6516 42.2981 41.7328 42.1253 40.8469C41.9496 39.9595 41.7887 39.9742 41.6307 39.8679C41.4181 39.7246 41.0179 39.5903 40.7211 39.419C40.4553 39.2654 39.4335 38.7457 39.085 38.7058C38.7366 38.6645 38.8133 37.4921 38.8133 37.4921H39.7141L40.1496 36.8497L41.0504 37.6353H41.0489ZM38.2139 31.2948C38.2139 31.2948 39.1145 32.0287 39.8706 31.2948C39.8706 31.2948 40.1747 31.661 40.7861 31.5547C41.3945 31.447 41.4963 31.1265 41.5539 30.9434C41.5539 30.9434 42.0825 31.2506 42.5284 31.007C42.9714 30.7647 42.9714 30.3971 42.9714 30.3971C42.9714 30.3971 43.7466 30.5507 44.1438 30.025C44.541 29.5008 44.2988 28.981 44.0847 28.919C44.0847 28.919 44.922 29.1391 45.1508 28.4199C45.2118 28.2594 45.2212 28.0838 45.1778 27.9176C45.1344 27.7514 45.0403 27.6029 44.9087 27.4927C44.9087 27.4927 46.6717 27.4838 47.3952 26.9316C47.3952 26.9316 47.9962 26.5535 47.6374 26.1564C47.6374 26.1564 49.2247 25.9024 49.622 25.2704C49.622 25.2704 49.7961 25.0962 49.7385 24.7905C49.7385 24.7905 49.7283 24.6178 49.554 24.6074C49.554 24.6074 51.3643 24.3269 51.887 23.7304C51.887 23.7304 52.138 23.4557 52.0125 23.0881C52.0125 23.0881 51.9859 22.992 51.9431 22.9256C51.9431 22.9256 53.5909 22.5786 54.4031 21.8447C54.4031 21.8447 54.8726 21.4269 54.6305 20.8657C54.6305 20.8657 57.3843 20.1127 56.7464 18.899C56.7464 18.899 58.034 18.4811 57.6265 17.319C57.6265 17.319 58.691 16.7786 58.2274 15.9222C57.783 15.1027 56.4171 16.0654 54.8018 16.5128C54.8018 16.5128 50.4252 17.889 48.2708 18.2552L42.149 27.3701L38.5771 28.7463L38.2154 31.2948H38.2139Z" fill="#F4C53D" stroke="#010002" stroke-width="0.196878"/>
<path d="M38.1695 24.5815C38.1695 24.5815 38.7439 24.1503 39.7671 24.6568C39.7671 24.6568 40.1112 24.8945 40.3829 24.6347C40.4418 24.5784 40.4875 24.5098 40.5168 24.4339C40.546 24.3578 40.558 24.2763 40.5519 24.1951C40.5458 24.1139 40.5218 24.035 40.4816 23.9643C40.4415 23.8934 40.386 23.8324 40.3194 23.7856C39.556 23.22 39.274 21.5235 40.4345 20.8191C40.4345 20.8191 42.1179 19.821 48.2944 18.2499C48.2944 18.2499 48.8112 18.1052 49.0888 18.1746C49.2231 18.2088 49.3456 18.2788 49.4434 18.3771C49.5411 18.4754 49.6104 18.5982 49.644 18.7327C49.644 18.7327 49.9216 19.5198 48.9914 19.9701C48.9914 19.9701 48.572 20.1621 48.1394 20.2861C48.1394 20.2861 48.6148 20.1827 48.8186 20.6523C49.0106 21.1011 48.73 21.5604 47.8588 21.8557C47.8588 21.8557 47.6226 21.9473 47.2874 22.0285C47.2874 22.0285 48.0331 22.2425 47.6743 22.845C47.6743 22.845 47.3553 23.477 46.2272 23.5892C46.2272 23.5892 47.0688 23.6808 46.4753 24.481C46.4753 24.481 46.2139 24.9196 45.3915 25.0821C45.3915 25.0821 46.0145 25.1027 45.7015 25.6623C45.3856 26.2235 44.6457 26.5394 43.9164 26.5911C43.9164 26.5911 43.5221 26.6118 43.246 26.5498C43.246 26.5498 43.94 26.8967 43.5324 27.4771C43.5324 27.4771 43.2327 27.8905 42.4826 27.8699C42.4826 27.8699 42.676 28.5195 42.1268 28.7646C41.6985 28.9566 41.3427 28.6495 41.3427 28.6495C41.3427 28.6495 41.4874 29.3449 40.8628 29.59C40.8628 29.59 40.5512 29.751 40.0861 29.59C40.0861 29.59 39.7318 30.3859 38.4678 29.8263C37.2038 29.2696 38.1695 24.5829 38.1695 24.5829V24.5815ZM38.0956 31.8078C38.0956 31.8078 38.2803 32.8031 39.7494 34.0552C39.7494 34.0552 40.8834 35.0549 40.8554 36.2066C40.8258 37.3805 41.0577 37.5119 41.5036 37.9091C41.5036 37.9091 40.5837 37.9814 40.1393 37.3687C40.1393 37.3687 40.1584 38.3875 40.2943 38.4805C40.2943 38.4805 40.0049 38.4982 39.587 38.042C39.587 38.042 39.336 37.7762 39.1027 37.6743C39.1027 37.6743 39.3744 38.3787 39.1618 39.0312C39.1618 39.0312 39.0938 38.7758 38.735 38.6636C38.735 38.6636 38.0854 38.5307 37.8344 37.5931C37.8344 37.5931 37.6704 36.9729 36.6531 36.4207C36.6531 36.4207 35.5013 35.9866 35.5308 35.4196C35.5604 34.8511 38.0942 31.8078 38.0942 31.8078H38.0956Z" fill="#F4C53D" stroke="#010002" stroke-width="0.196878"/>
<path d="M32.7592 44.6403C32.7592 44.6403 33.0234 45.8038 33.9404 45.7108C33.9404 45.7108 34.5886 45.6488 34.5399 44.5679C34.5399 44.5679 35.4982 45.0788 35.6532 43.8149C35.6532 43.8149 36.5244 44.0172 36.5141 42.8359C36.5141 42.8359 37.3262 42.9777 37.2303 41.9278C37.2303 41.9278 38.1118 42.1641 38.1118 41.1747C38.1118 41.1747 40.173 40.8322 35.8762 36.9133L32.043 39.1961L32.7592 44.6403Z" fill="#F4C53D" stroke="#010002" stroke-width="0.196878" stroke-miterlimit="10"/>
<path d="M32.3309 39.414C32.3309 39.414 32.9703 39.981 33.4251 39.1334C33.4251 39.1334 34.0453 39.1039 34.1412 38.6344C34.1412 38.6344 34.6447 38.5842 34.7422 38.1043C34.7422 38.1043 35.4288 38.0334 35.4097 37.4532C35.4097 37.4532 36.6588 37.3557 35.4097 35.9411C34.1605 34.5266 32.0416 38.2889 32.0416 38.2889L32.3309 39.414ZM31.6193 39.0626C30.9991 39.0626 30.2977 42.9312 30.4794 45.2628C30.5458 46.1088 30.9991 46.7999 31.6193 46.7999C32.2395 46.7999 32.6912 46.1088 32.7562 45.2628C32.9393 42.9312 32.238 39.0626 31.6193 39.0626Z" fill="#F4C53D" stroke="#010002" stroke-width="0.196878"/>
<path d="M31.6201 40.302C31.1471 40.302 30.7637 39.7334 30.7637 39.0321C30.7637 38.3308 31.1471 37.7622 31.6201 37.7622C32.0931 37.7622 32.4765 38.3308 32.4765 39.0321C32.4765 39.7334 32.0931 40.302 31.6201 40.302Z" fill="#F4C53D" stroke="#010002" stroke-width="0.196878"/>
<path d="M34.5393 44.5654C34.5393 44.5654 34.4418 42.5173 32.667 39.5805M35.6527 43.8123C35.6527 43.8123 35.9288 42.6296 33.426 39.1316C33.426 39.1316 33.7168 38.2973 32.8265 37.7613M36.5135 42.8334C36.5135 42.8334 36.5917 41.5532 34.1421 38.6325C34.1421 38.6325 34.3592 37.8795 33.4717 37.277M37.2296 41.9253C37.2296 41.9253 37.1381 40.6318 34.743 38.1024C34.743 38.1024 34.8612 37.3286 34.0048 36.8488M38.1097 41.1722C38.1097 41.1722 37.9369 39.6942 35.4105 37.4512C35.4105 37.4512 35.4976 36.8695 34.656 36.2788" stroke="#010002" stroke-width="0.196878" stroke-miterlimit="10"/>
<path d="M57.628 17.3188C57.628 17.3188 55.645 18.4676 49.464 19.6164M56.7479 18.8989C56.7479 18.8989 51.3776 20.6501 48.8763 20.8656M54.6335 20.8656C54.6335 20.8656 51.4824 21.855 47.7925 22.4795M51.9447 22.9269C51.9447 22.9269 48.3861 23.7819 46.685 23.9236M49.5555 24.6073C49.5555 24.6073 46.5448 25.2348 45.7829 25.3102M47.6389 26.1562C47.6389 26.1562 45.4418 26.4899 44.5676 26.4722M44.9102 27.4911C44.9102 27.4911 44.0213 27.4497 43.5946 27.3789M44.0877 28.9189C44.0877 28.9189 43.3317 28.7152 42.8873 28.4302M42.9744 30.3969C42.9744 30.3969 42.3926 30.1725 42.1121 29.5612M41.5554 30.9433C41.5554 30.9433 41.1065 30.5402 41.077 30.0913M39.8721 31.2947C39.8721 31.2947 40.0404 31.1485 39.9253 30.5165M40.0892 29.5892C40.0892 29.5892 40.1778 29.4091 40.1483 29.1227M43.2638 20.5393C43.2638 20.5393 42.2479 20.9468 41.9098 21.5079C41.5702 22.069 41.7932 22.6139 41.9098 22.9254C41.9673 23.0835 42.6836 24.464 41.8419 25.4637M43.2505 26.5475C43.2505 26.5475 43.2446 26.5431 42.8873 26.4294M45.3945 25.0798C45.3945 25.0798 44.7891 25.2009 44.1941 25.2068M46.2317 23.5855C46.2317 23.5855 45.52 23.6578 44.8511 23.6475M47.2905 22.0262C47.2905 22.0262 46.2642 22.23 45.7135 22.2403M48.1424 20.2868C48.1424 20.2868 46.877 20.6471 45.9364 20.7755M43.8456 21.5198C43.8456 21.5198 44.7551 22.3658 43.6611 23.1514C43.6611 23.1514 44.1158 23.8646 43.2062 24.6088M43.4484 24.9602C43.4484 24.9602 43.5842 26.3216 41.9186 26.3216C41.9186 26.3216 42.2391 27.5339 40.631 27.494C40.631 27.494 40.448 28.4627 39.2874 28.2678M41.8434 38.9213C41.8434 38.9213 42.1076 38.9803 42.6791 38.9213M44.2856 39.6344C44.2856 39.6344 45.0888 39.5119 45.0505 41.2557M43.8013 40.0316C43.8013 40.0316 44.5278 39.9401 44.4805 41.6322M36.792 35.9548C36.792 35.9548 37.1404 36.0257 37.3826 36.3018C37.6233 36.5765 38.0884 36.5248 38.0884 36.5248C38.0884 36.5248 37.8374 36.321 37.7488 35.8116C37.6632 35.3021 37.3811 35.1486 37.3811 35.1486M38.2124 34.6672C38.2124 34.6672 38.5609 34.7381 38.8031 35.0128C39.0452 35.2889 39.5103 35.2372 39.5103 35.2372C39.5103 35.2372 39.2593 35.0334 39.1708 34.524C39.0836 34.0146 38.8031 33.861 38.8031 33.861M38.4531 36.6443C38.4531 36.6443 38.7573 36.7079 38.9685 36.9471C39.1796 37.1878 39.5857 37.1434 39.5857 37.1434C39.5857 37.1434 39.3642 36.9663 39.2903 36.5204C39.2136 36.0759 38.9685 35.9415 38.9685 35.9415" stroke="#010002" stroke-width="0.196878"/>
<path d="M45.7058 33.4763L44.3033 39.5278L43.7246 39.1158L45.0977 33.3095L44.1365 33.3292L46.4022 29.1804L46.5493 33.9569L45.7058 33.4763ZM49.3347 34.7513L45.1173 39.7337L44.6662 39.2237L48.864 34.3001L48.0107 33.849L51.8554 31.2989L49.8644 35.5948L49.3347 34.7513Z" fill="#0081C6" stroke="#010002" stroke-width="0.196158" stroke-miterlimit="10"/>
<path d="M48.3116 32.1032L44.5355 39.3611L43.9569 39.0178L47.7525 31.7796L46.8306 31.5442L50.0378 28.1506L49.008 32.8094L48.3116 32.1032ZM43.6038 41.5777L43.3194 42.7252L44.104 43.5098L43.0055 48.1195L42.0247 46.8151L40.5928 47.482L41.6814 42.8723L42.7015 42.5781L42.9565 41.4305C42.9565 41.4305 43.2703 41.3128 43.6038 41.5777Z" fill="#0081C6" stroke="#010002" stroke-width="0.196158" stroke-miterlimit="10"/>
<path d="M43.8694 40.8131L43.3104 41.8528L43.8694 42.8041L41.6725 46.9725L41.0546 45.4425L39.4951 45.6975L41.6921 41.5389H42.7415L43.281 40.4993C43.281 40.4993 43.6733 40.4993 43.8694 40.8131Z" fill="#0081C6" stroke="#010002" stroke-width="0.196158" stroke-miterlimit="10"/>
<path d="M43.9561 41.118L42.485 43.0011L42.8184 44.0603L39.7878 47.5912L39.5132 45.9631L37.9439 45.8454L40.9647 42.3145L41.9847 42.5597L43.554 40.5589C43.554 40.5589 43.9856 40.7747 43.9561 41.118ZM6.42126 36.7044C6.77435 36.5573 7.02935 36.42 7.02935 36.0473C7.02935 35.9492 6.98031 35.753 6.88224 35.449L4.50872 28.1813C4.42929 27.9164 4.33096 27.6574 4.21449 27.4065C4.1066 27.2104 3.90064 27.1221 3.61621 27.0142H6.62723C6.30357 27.1613 5.99952 27.279 6.00933 27.6321C6.00933 27.7596 6.04857 27.946 6.11723 28.1912L7.94151 33.8797L9.75597 28.1912C9.8189 28.0111 9.85523 27.8227 9.86386 27.6321C9.86386 27.2692 9.55001 27.1417 9.24596 27.0044H12.1687C11.9039 27.1123 11.6783 27.2006 11.5802 27.4065C11.4611 27.6608 11.3596 27.923 11.2762 28.1912L8.90269 35.4392C8.83717 35.6342 8.78797 35.8343 8.75557 36.0375C8.75557 36.0375 8.64768 36.4984 9.36366 36.6946H6.42126V36.7044ZM56.9614 35.959V27.7498C56.9614 27.6125 56.932 27.5046 56.883 27.4261C56.8339 27.3477 56.6378 27.1319 56.3435 27.0142H59.0603C58.8424 27.0929 58.6541 27.2367 58.5209 27.4261C58.4718 27.5046 58.4522 27.6125 58.4522 27.7498V35.959C58.4522 36.1061 58.4718 36.214 58.5209 36.2925C58.5699 36.3709 58.7661 36.5671 59.0603 36.7044H56.3435C56.6378 36.5671 56.8339 36.3709 56.883 36.2925C56.932 36.214 56.9614 36.1061 56.9614 35.959Z" fill="#0081C6" stroke="#010002" stroke-width="0.196158" stroke-miterlimit="10"/>
<path d="M31.8556 38.7543C31.8556 38.7543 39.1331 35.5275 39.1429 28.0833H24.5684C24.588 35.5373 31.8556 38.7543 31.8556 38.7543Z" fill="white" stroke="#010002" stroke-width="0.196158"/>
<path d="M25.6963 28.0838V32.8406C25.6963 32.8406 26.2455 33.9489 26.8144 34.6355V28.0838H25.6963ZM27.9325 28.0838V35.9301C27.9325 35.9301 28.6387 36.6167 29.0506 36.9501V28.0838H27.9325ZM30.1785 28.0838V37.7838C30.1785 37.7838 30.9729 38.2938 31.2966 38.4704V28.074H30.1785V28.0838ZM38.0248 28.0838V32.8406C38.0248 32.8406 37.4658 33.9489 36.8969 34.6355V28.0838H38.0248ZM35.7788 28.0838V35.9301C35.7788 35.9301 35.0825 36.6167 34.6607 36.9501V28.0838H35.7788ZM33.5426 28.0838V37.7838C33.5426 37.7838 32.7384 38.2938 32.4147 38.4704V28.074H33.5426V28.0838Z" fill="#A60032" stroke="#010002" stroke-width="0.196158"/>
<path d="M39.1429 22.6679C39.1429 22.6679 35.5728 24.5314 31.8556 22.511C28.1384 24.5314 24.5684 22.6679 24.5684 22.6679V28.0819H39.1429V22.6679Z" fill="#162667" stroke="#010002" stroke-width="0.196158" stroke-miterlimit="10"/>
</g>
<defs>
<clipPath id="clip0_12589_5239">
<rect width="62.7706" height="62.7706" rx="31.3853" fill="white"/>
</clipPath>
</defs>
</svg>
