<svg width="63" height="63" viewBox="0 0 63 63" fill="none" xmlns="http://www.w3.org/2000/svg">
<g clip-path="url(#clip0_12589_5210)">
<path fill-rule="evenodd" clip-rule="evenodd" d="M0 0H62.7706V62.7706H0V0Z" fill="#CE1126"/>
<path fill-rule="evenodd" clip-rule="evenodd" d="M0 0H33.4776V31.3853H0V0Z" fill="#002B7F"/>
<path fill-rule="evenodd" clip-rule="evenodd" d="M18.842 29.2829L16.6601 27.8778L14.5624 29.2929L15.2476 26.7939L13.2448 25.2683L15.8273 25.1178L16.6812 22.7492L17.6087 25.1579L20.1385 25.2282L18.1358 26.8641L18.842 29.2829ZM18.4625 12.6626L16.7128 11.5887L15.0262 12.6325L15.49 10.6252L13.9511 9.3506L15.996 9.19001L16.7549 7.32324L17.535 9.20005L19.5482 9.37067L17.9988 10.7155L18.4625 12.6626ZM10.7678 18.6343L9.08123 17.5303L7.32088 18.6343L7.86901 16.6872L6.27734 15.4026L8.30121 15.3022L9.03907 13.3953L9.75584 15.2922L11.8218 15.4026L10.2407 16.6571L10.7678 18.6343ZM26.2206 17.3095L24.5973 16.3058L23.0162 17.3095L23.48 15.4728L22.0043 14.2885L23.9332 14.138L24.5973 12.4117L25.3351 14.158L27.2009 14.2584L25.7568 15.4929L26.2206 17.3095ZM21.6775 21.6653L20.5918 21.0229L19.5061 21.6853L19.7907 20.4509L18.8209 19.6178L20.0858 19.5175L20.5707 18.3533L21.0872 19.5175L22.3416 19.6178L21.3823 20.4509L21.6775 21.6653Z" fill="white"/>
</g>
<defs>
<clipPath id="clip0_12589_5210">
<rect width="62.7706" height="62.7706" rx="31.3853" fill="white"/>
</clipPath>
</defs>
</svg>
