<svg width="63" height="63" viewBox="0 0 63 63" fill="none" xmlns="http://www.w3.org/2000/svg">
<g clip-path="url(#clip0_12589_5245)">
<path d="M0 -5.23096H96.2482V69.0476H0V-5.23096Z" fill="#006400"/>
<path d="M-0.226562 15.0815H96.3468V48.7011H-0.226562V15.0815Z" fill="#FFD200"/>
<path d="M-0.226562 21.8062H96.3468V41.9779H-0.226562V21.8062Z" fill="#D40000"/>
<path d="M-0.226562 28.5276H96.3468V35.2515H-0.226562V28.5276Z" fill="black"/>
<path d="M-0.226562 8.35718V55.4245L31.9645 31.8908L-0.226562 8.35718Z" fill="black" stroke="black" stroke-width="3.02686"/>
<path d="M-0.226562 8.35718V55.4245L31.9645 31.8908L-0.226562 8.35718Z" fill="white"/>
<path d="M12.0168 20.0562L18.3975 39.1857L1.7041 27.3628H22.3409L5.63601 39.1857L12.0168 20.0562Z" fill="#D40000"/>
<path d="M9.29118 36.7892L10.4178 36.5876L12.4988 36.5091L13.269 36.5764L14.9936 36.8565L15.1201 36.6884V35.4781L15.327 34.4359L15.6719 33.3825L16.0513 32.542L16.5341 31.6679L17.3159 31.8584H17.5228L17.5459 31.7127L15.8903 30.3343L14.1658 29.0455L11.671 27.2301L11.4411 27.1741L11.1767 25.269L10.9812 24.6974L10.7168 24.4733L10.2224 24.3164L9.67055 24.3388L9.41759 24.4733L8.88875 24.5854L8.61287 24.6302L8.42887 24.8431L8.40588 25.1121L9.17616 25.1345L9.37161 25.2129L9.34862 25.2914L8.91174 25.3474L8.70483 25.4147L8.94626 25.5939L9.19915 25.6836L9.52108 25.7957L9.59005 26.0198L9.61304 28.9111L9.44058 29.3593L9.38314 30.1998L9.63603 31.2085L8.99224 31.9256L8.62432 32.5644L8.55536 32.9566L8.3599 33.3489L8.33691 33.5954L8.4634 33.8644L8.95771 35.4557L9.21068 36.7669L9.29118 36.7892Z" fill="#FFCC00"/>
<path d="M9.89057 24.2691C9.68366 24.2691 9.5917 24.2915 9.39625 24.3924C9.2343 24.4828 9.05352 24.5363 8.86741 24.5493C8.57992 24.5493 8.35002 24.751 8.35002 25.0088V25.1768L8.76391 25.1656C9.98261 25.1993 8.87886 25.3113 8.7869 25.3225C8.48796 25.3786 8.85587 25.6139 9.21225 25.7371C9.5917 25.8492 9.56871 25.7819 9.56871 27.4181C9.56871 28.7517 9.56871 28.9422 9.45368 29.2448C9.30429 29.693 9.30429 30.3655 9.45368 30.8137C9.52273 30.993 9.56871 31.1499 9.56871 31.1835C9.56871 31.206 9.38472 31.4188 9.16627 31.6654C8.76391 32.1137 8.52248 32.5731 8.52248 32.8981C8.50812 33.0027 8.46874 33.1025 8.40753 33.1895C8.25806 33.38 8.25806 33.705 8.396 33.8283C8.54547 33.9628 9.15482 36.2713 9.16627 36.7083C9.16627 36.8652 9.18926 36.8652 10.1205 36.6859C10.8793 36.5402 12.6613 36.5066 13.5696 36.6187C13.9834 36.6747 14.4663 36.7644 14.6388 36.798C15.1906 36.9437 15.1676 36.9661 15.1676 36.3161C15.1718 35.292 15.3707 34.2775 15.754 33.324C15.9737 32.7806 16.239 32.2559 16.5472 31.755C16.5472 31.755 16.7542 31.7775 17.0071 31.8447C17.4785 31.9568 17.6165 31.9455 17.6165 31.7327C17.6165 31.6206 17.1221 31.2172 14.6963 29.3793C13.7178 28.5987 12.7092 27.8548 11.6726 27.1492C11.6037 27.1492 11.5346 27.1156 11.5232 27.0707L11.3507 26.0061C11.2702 25.457 11.1552 24.9191 11.1093 24.807C10.9483 24.4708 10.6379 24.3028 10.1205 24.2691C10.0439 24.2667 9.96723 24.2667 9.89057 24.2691ZM9.9021 24.3811H10.132C10.8908 24.426 11.0288 24.6277 11.2357 25.9501C11.2916 26.3 11.3376 26.6512 11.3737 27.0035C11.3737 27.0931 11.2702 27.2052 11.0058 27.3733C10.5707 27.6709 10.1833 28.0297 9.85612 28.4379L9.70665 28.6397L9.67213 28.169V26.8466C9.70665 25.8716 9.67213 25.7819 9.35027 25.6699C9.08585 25.5803 8.74093 25.4906 8.83288 25.4346C8.94783 25.3673 9.06286 25.4122 9.33874 25.3337C9.45369 25.3113 9.44223 25.3225 9.41924 25.2329C9.39625 25.0872 9.23524 25.0088 8.80989 25.0311C8.46497 25.0536 8.43052 25.0424 8.45351 24.9527C8.49949 24.7734 8.68341 24.6613 8.97082 24.6277C9.14681 24.6078 9.31794 24.5586 9.47667 24.482C9.60504 24.4068 9.75239 24.368 9.9021 24.3699V24.3811ZM11.6151 27.2724H11.6611C11.8565 27.3061 17.5015 31.6093 17.5015 31.7327C17.5015 31.7775 17.4555 31.8111 17.3866 31.8111C17.3406 31.8111 15.9034 31.4188 14.2019 30.937C11.4886 30.1525 11.0977 30.0405 10.9828 29.8948C10.9028 29.7963 10.8583 29.6748 10.8563 29.5493C10.8542 29.4237 10.8946 29.3009 10.9713 29.2C11.0265 29.1347 11.0658 29.058 11.0863 28.9759C11.0863 28.8414 10.7989 29.1775 10.7413 29.368C10.6839 29.5922 10.7989 29.9732 10.9713 30.0965C11.0403 30.1525 11.5576 30.3207 12.121 30.4887C13.0867 30.7577 13.1557 30.7913 13.2017 30.9482C13.3167 31.318 12.9142 31.755 12.3394 31.8783C12.1239 31.9286 11.9207 32.02 11.7416 32.1473C11.1451 32.6288 10.4787 33.0216 9.76416 33.3128C9.71811 33.3464 9.66067 33.5257 9.62615 33.6938C9.55718 34.0636 9.53419 34.1196 9.41924 34.1196C9.36173 34.1196 9.35027 34.086 9.39625 33.9628C9.47667 33.7386 9.46522 33.4696 9.38472 33.4696C9.32728 33.4696 9.30429 33.5481 9.30429 33.6713C9.30429 33.7834 9.26977 33.9179 9.22379 33.9515C9.16627 34.0188 9.15482 33.974 9.17781 33.6938C9.2008 33.5033 9.18926 33.3576 9.16627 33.3576C9.10884 33.3576 9.00535 33.6378 8.97082 33.8843C8.94783 34.03 8.94783 34.03 8.90185 33.8506C8.86741 33.7162 8.87886 33.6265 8.98236 33.4585C9.04764 33.3367 9.08679 33.2032 9.0973 33.0662C9.0973 32.9205 9.21225 32.7748 9.75263 32.2481C10.0976 31.9007 10.5229 31.4637 10.6724 31.2732C10.9368 30.9594 10.9483 30.937 10.9368 30.612C10.9368 30.4327 10.9138 30.2646 10.8908 30.2422C10.8218 30.1749 10.7299 30.5335 10.7759 30.724C10.7989 30.9033 10.7759 30.9594 10.3964 31.3965C10.1235 31.7011 9.83572 31.9928 9.53419 32.2705C9.08585 32.674 8.92484 32.8981 8.92484 33.0998C8.92484 33.1671 8.87886 33.324 8.80989 33.4696C8.74092 33.6153 8.71794 33.761 8.74093 33.7946C8.76391 33.8283 8.74092 33.8283 8.7064 33.7946C8.64897 33.7386 8.64897 33.649 8.69495 33.4585C8.72123 33.3636 8.72908 33.2648 8.71793 33.1671C8.66042 33.055 8.57992 33.1895 8.54547 33.4696C8.52248 33.6265 8.48796 33.7498 8.45351 33.7274C8.37301 33.6826 8.396 33.3912 8.49949 33.2343C8.55693 33.1558 8.61444 32.9766 8.64897 32.8308C8.72939 32.4163 8.91339 32.08 9.31575 31.6318C9.44466 31.4951 9.56738 31.353 9.68366 31.206L9.56871 30.8362C9.41445 30.3364 9.40653 29.8047 9.54572 29.3008C9.69512 28.875 9.99406 28.4491 10.4655 27.9897C10.9253 27.5526 11.3737 27.2837 11.6151 27.2724ZM13.3397 30.881C13.3542 30.8799 13.3688 30.8809 13.3828 30.8838C13.3967 30.8867 13.4095 30.8915 13.4204 30.8978C13.4312 30.9041 13.4399 30.912 13.4458 30.9206C13.4517 30.9293 13.4547 30.9387 13.4546 30.9482C13.4475 30.9614 13.4344 30.9728 13.4169 30.9809C13.3993 30.989 13.3783 30.9933 13.3569 30.9933C13.3354 30.9933 13.3145 30.989 13.297 30.9809C13.2794 30.9728 13.2662 30.9614 13.2592 30.9482C13.2586 30.9327 13.2663 30.9175 13.281 30.9052C13.2956 30.893 13.3164 30.8844 13.3397 30.881ZM13.6271 30.9145C13.6416 30.9135 13.6563 30.9145 13.6702 30.9174C13.6841 30.9203 13.6969 30.9251 13.7078 30.9314C13.7186 30.9378 13.7273 30.9455 13.7332 30.9542C13.7391 30.9629 13.7421 30.9723 13.742 30.9818C13.735 30.995 13.7218 31.0064 13.7043 31.0145C13.6868 31.0226 13.6658 31.027 13.6443 31.027C13.6228 31.027 13.6019 31.0226 13.5844 31.0145C13.5669 31.0064 13.5536 30.995 13.5466 30.9818C13.546 30.9662 13.5537 30.9511 13.5684 30.9389C13.583 30.9266 13.6038 30.918 13.6271 30.9145ZM13.926 30.9706C13.9405 30.9695 13.9552 30.9705 13.9691 30.9734C13.9831 30.9763 13.9958 30.9811 14.0067 30.9874C14.0176 30.9938 14.0262 31.0016 14.0321 31.0103C14.0381 31.019 14.041 31.0283 14.041 31.0378C14.0339 31.051 14.0207 31.0624 14.0031 31.0705C13.9856 31.0786 13.9647 31.083 13.9432 31.083C13.9218 31.083 13.9008 31.0786 13.8832 31.0705C13.8658 31.0624 13.8526 31.051 13.8455 31.0378C13.8449 31.0224 13.8526 31.0071 13.8672 30.9949C13.8819 30.9826 13.9027 30.974 13.926 30.9706ZM14.2019 31.0267C14.2164 31.0256 14.2312 31.0265 14.245 31.0294C14.2589 31.0323 14.2718 31.0371 14.2826 31.0435C14.2935 31.0498 14.3022 31.0576 14.308 31.0663C14.3139 31.075 14.317 31.0843 14.3168 31.0938C14.3098 31.1071 14.2966 31.1185 14.2791 31.1266C14.2616 31.1346 14.2406 31.139 14.2191 31.139C14.1977 31.139 14.1767 31.1346 14.1592 31.1266C14.1417 31.1185 14.1285 31.1071 14.1215 31.0938C14.1208 31.0784 14.1285 31.0632 14.1432 31.0509C14.1579 31.0387 14.1786 31.03 14.2019 31.0267ZM13.4776 31.0938C13.4921 31.0928 13.5069 31.0938 13.5207 31.0967C13.5346 31.0996 13.5474 31.1043 13.5583 31.1107C13.5692 31.1171 13.5779 31.1248 13.5838 31.1335C13.5896 31.1422 13.5927 31.1516 13.5925 31.1611C13.5855 31.1743 13.5723 31.1857 13.5548 31.1938C13.5373 31.2019 13.5164 31.2063 13.4949 31.2063C13.4734 31.2063 13.4524 31.2019 13.4349 31.1938C13.4174 31.1857 13.4042 31.1743 13.3971 31.1611C13.3965 31.1456 13.4042 31.1304 13.4189 31.1182C13.4336 31.1059 13.4543 31.0973 13.4776 31.0938ZM13.7535 31.1387C13.7681 31.1376 13.7827 31.1386 13.7966 31.1415C13.8106 31.1444 13.8234 31.1492 13.8342 31.1555C13.8451 31.1619 13.8537 31.1697 13.8597 31.1783C13.8656 31.187 13.8686 31.1965 13.8685 31.206C13.8614 31.2191 13.8483 31.2305 13.8308 31.2387C13.8132 31.2468 13.7922 31.2511 13.7708 31.2511C13.7493 31.2511 13.7284 31.2468 13.7108 31.2387C13.6933 31.2305 13.6801 31.2191 13.673 31.206C13.6724 31.1904 13.6801 31.1752 13.6948 31.163C13.7095 31.1507 13.7302 31.1422 13.7535 31.1387ZM14.3514 31.1611C14.3659 31.1601 14.3805 31.161 14.3945 31.1639C14.4084 31.1668 14.4212 31.1716 14.4321 31.1779C14.4429 31.1843 14.4516 31.1921 14.4575 31.2008C14.4634 31.2095 14.4664 31.2188 14.4663 31.2283C14.4592 31.2415 14.4461 31.253 14.4286 31.261C14.4111 31.2691 14.3901 31.2735 14.3686 31.2735C14.3471 31.2735 14.3262 31.2691 14.3087 31.261C14.2912 31.253 14.2779 31.2415 14.2709 31.2283C14.2703 31.2129 14.278 31.1976 14.2927 31.1854C14.3073 31.1732 14.3281 31.1645 14.3514 31.1611ZM14.041 31.1611C14.0555 31.1601 14.0701 31.161 14.0841 31.1639C14.098 31.1668 14.1108 31.1716 14.1217 31.1779C14.1325 31.1843 14.1412 31.1921 14.1471 31.2008C14.153 31.2095 14.156 31.2188 14.1559 31.2283C14.1488 31.2415 14.1357 31.253 14.1182 31.261C14.1006 31.2691 14.0796 31.2735 14.0582 31.2735C14.0367 31.2735 14.0158 31.2691 13.9983 31.261C13.9807 31.253 13.9675 31.2415 13.9605 31.2283C13.9599 31.2129 13.9676 31.1976 13.9823 31.1854C13.9969 31.1732 14.0177 31.1645 14.041 31.1611ZM14.6158 31.2283C14.6273 31.2283 15.0412 31.318 15.5355 31.4525L16.4438 31.7102L16.2714 32.0128C16.175 32.1748 16.083 32.3392 15.9954 32.5059C15.8805 32.73 15.8575 32.73 15.3056 32.6068C14.7077 32.4723 13.765 32.349 12.7993 32.2705L11.8795 32.1921L12.2245 32.0688C12.4327 31.9907 12.6362 31.9009 12.8338 31.7998C13.0637 31.6766 13.1557 31.6542 13.5121 31.6878C14.0294 31.7215 14.3744 31.6206 14.5123 31.4188L14.6273 31.2283H14.6158ZM13.6041 31.2956C13.6186 31.2945 13.6333 31.2955 13.6472 31.2984C13.6611 31.3013 13.6739 31.3061 13.6848 31.3124C13.6956 31.3188 13.7044 31.3266 13.7102 31.3353C13.7161 31.3439 13.7191 31.3533 13.719 31.3628C13.712 31.376 13.6988 31.3874 13.6813 31.3955C13.6638 31.4036 13.6428 31.408 13.6213 31.408C13.5998 31.408 13.5789 31.4036 13.5614 31.3955C13.5438 31.3874 13.5306 31.376 13.5236 31.3628C13.523 31.3473 13.5307 31.3321 13.5454 31.3199C13.5601 31.3076 13.5808 31.299 13.6041 31.2956ZM14.2479 31.2956C14.2624 31.2945 14.2771 31.2955 14.291 31.2984C14.3049 31.3013 14.3178 31.3061 14.3286 31.3124C14.3394 31.3188 14.3481 31.3266 14.354 31.3353C14.3599 31.3439 14.363 31.3533 14.3629 31.3628C14.3542 31.3738 14.341 31.383 14.3248 31.3894C14.3085 31.3958 14.2899 31.3993 14.2709 31.3993C14.2519 31.3993 14.2333 31.3958 14.217 31.3894C14.2008 31.383 14.1876 31.3738 14.1789 31.3628C14.1783 31.3473 14.186 31.3321 14.2007 31.3199C14.2153 31.3076 14.2361 31.299 14.2594 31.2956H14.2479ZM13.3281 31.2956C13.3426 31.2945 13.3574 31.2955 13.3713 31.2984C13.3852 31.3013 13.398 31.3061 13.4089 31.3124C13.4197 31.3188 13.4284 31.3266 13.4343 31.3353C13.4402 31.3439 13.4432 31.3533 13.4431 31.3628C13.4361 31.376 13.4228 31.3874 13.4053 31.3955C13.3878 31.4036 13.3669 31.408 13.3454 31.408C13.3239 31.408 13.3029 31.4036 13.2854 31.3955C13.2679 31.3874 13.2548 31.376 13.2477 31.3628C13.2507 31.3493 13.26 31.3367 13.2745 31.3266C13.2888 31.3166 13.3076 31.3097 13.3281 31.3068V31.2956ZM13.9375 31.318C13.9641 31.3159 13.9909 31.3205 14.0124 31.3309C14.0338 31.3414 14.0482 31.3568 14.0524 31.374C14.0454 31.3872 14.0322 31.3987 14.0147 31.4067C13.9972 31.4148 13.9762 31.4191 13.9547 31.4191C13.9332 31.4191 13.9123 31.4148 13.8948 31.4067C13.8773 31.3987 13.864 31.3872 13.857 31.374C13.86 31.3604 13.8694 31.3478 13.8837 31.3379C13.8982 31.3278 13.9169 31.3209 13.9375 31.318ZM13.1786 31.4413C13.1932 31.4402 13.2079 31.4412 13.2218 31.4441C13.2358 31.447 13.2486 31.4518 13.2594 31.4581C13.2703 31.4645 13.2789 31.4723 13.2848 31.481C13.2908 31.4896 13.2938 31.499 13.2937 31.5085C13.2866 31.5217 13.2734 31.5331 13.2559 31.5412C13.2384 31.5493 13.2174 31.5536 13.1959 31.5536C13.1744 31.5536 13.1535 31.5493 13.136 31.5412C13.1185 31.5331 13.1053 31.5217 13.0982 31.5085C13.0976 31.493 13.1053 31.4778 13.12 31.4656C13.1346 31.4533 13.1554 31.4447 13.1786 31.4413ZM13.4661 31.4413C13.4822 31.4399 13.4985 31.4411 13.5138 31.4446C13.5291 31.4482 13.543 31.454 13.5541 31.4616C13.5653 31.4692 13.5736 31.4785 13.5783 31.4886C13.583 31.4987 13.5839 31.5094 13.5811 31.5197C13.574 31.5329 13.5608 31.5444 13.5433 31.5524C13.5258 31.5605 13.5048 31.5648 13.4833 31.5648C13.4619 31.5648 13.441 31.5605 13.4234 31.5524C13.4059 31.5444 13.3927 31.5329 13.3856 31.5197C13.385 31.5042 13.3927 31.4891 13.4074 31.4767C13.422 31.4645 13.4428 31.4559 13.4661 31.4525V31.4413ZM13.765 31.4637C13.7916 31.4615 13.8184 31.4661 13.8399 31.4767C13.8614 31.4871 13.8757 31.5025 13.88 31.5197C13.873 31.5329 13.8597 31.5444 13.8422 31.5524C13.8247 31.5605 13.8038 31.5648 13.7823 31.5648C13.7608 31.5648 13.7398 31.5605 13.7223 31.5524C13.7048 31.5444 13.6916 31.5329 13.6846 31.5197C13.6876 31.5062 13.6969 31.4935 13.7113 31.4836C13.7257 31.4735 13.7444 31.4666 13.765 31.4637ZM14.0869 31.4637C14.1015 31.4626 14.1161 31.4635 14.1301 31.4665C14.144 31.4694 14.1568 31.4741 14.1677 31.4805C14.1785 31.4869 14.1872 31.4946 14.1931 31.5033C14.199 31.512 14.202 31.5215 14.2019 31.5309C14.1948 31.5441 14.1816 31.5555 14.1641 31.5637C14.1466 31.5718 14.1257 31.5761 14.1042 31.5761C14.0827 31.5761 14.0618 31.5718 14.0443 31.5637C14.0268 31.5555 14.0135 31.5441 14.0064 31.5309C14.0059 31.5154 14.0136 31.5002 14.0282 31.488C14.0429 31.4757 14.0636 31.4672 14.0869 31.4637ZM11.753 32.3714C13.1102 32.4065 14.4611 32.5641 15.7885 32.8421C15.7999 32.8533 15.7195 33.1223 15.593 33.4473L15.3631 34.1196C15.3516 34.1756 15.2711 34.1756 15.0757 34.1533C14.1215 34.0076 11.3622 34.0188 10.3045 34.1756C9.69512 34.2653 9.61469 34.2541 9.66067 34.1308L9.77562 33.7386L9.84459 33.436L10.4655 33.1223C10.8793 32.9165 11.2719 32.6725 11.6381 32.3938H11.7416L11.753 32.3714ZM8.64897 33.9628C8.68341 33.9628 8.75238 33.9963 8.83288 34.0524C8.94783 34.1196 9.08585 34.1756 9.14328 34.1756C9.44223 34.1756 9.60316 34.5903 9.85612 35.9687L9.94808 36.4618C9.97107 36.5739 9.94808 36.5963 9.68366 36.6523C9.36173 36.7196 9.2813 36.7307 9.2813 36.6859C9.2813 36.5739 8.95937 35.1506 8.82143 34.6463C8.75269 34.4242 8.69134 34.2 8.63743 33.974C8.63916 33.973 8.6412 33.9724 8.64316 33.9724C8.6452 33.9724 8.64716 33.973 8.64897 33.974V33.9628ZM11.937 34.1869H12.2704L12.1555 34.2989C11.96 34.5231 11.8681 34.5343 11.7301 34.3886C11.6816 34.3398 11.6427 34.2828 11.6151 34.2205C11.6151 34.1981 11.7646 34.1756 11.937 34.1756V34.1869ZM12.6384 34.1869H13.2592L13.1212 34.3213C12.9603 34.5006 12.9488 34.5006 12.7763 34.3213L12.6384 34.1756V34.1869ZM13.5811 34.1869H13.7306C13.811 34.1869 13.9605 34.1868 14.0524 34.2093L14.2249 34.2429L14.0639 34.3886C13.972 34.467 13.8915 34.5343 13.88 34.5231L13.719 34.3438L13.5811 34.1756V34.1869ZM14.5583 34.2205L14.6963 34.2541C14.7767 34.2765 14.9492 34.2878 15.0757 34.2989H15.3056L15.1332 34.4446C15.0707 34.5014 15.0012 34.5504 14.9262 34.5903C14.9147 34.5903 14.8112 34.5006 14.7307 34.3998L14.5583 34.2205ZM11.0863 34.2317H11.1093C11.1208 34.2541 11.0747 34.3438 10.9943 34.4222L10.8793 34.5791L10.7069 34.4446L10.5344 34.2989L10.8103 34.2653L11.0863 34.2317ZM11.3507 34.2541L11.5346 34.411L11.7186 34.5791L11.3737 34.6015L11.0288 34.6128L11.1898 34.4446L11.3507 34.2541ZM13.4202 34.2541C13.4546 34.2541 13.4776 34.2653 13.5121 34.2878C13.5722 34.3429 13.6227 34.4073 13.6616 34.4783C13.7076 34.5679 13.696 34.5903 13.5466 34.5903L13.2592 34.5343L13.1212 34.5006L13.2707 34.355C13.3397 34.2878 13.3856 34.2429 13.4316 34.2429L13.4202 34.2541ZM12.4659 34.2541C12.5234 34.2541 12.5808 34.2878 12.6498 34.3998C12.7303 34.5231 12.7303 34.5231 12.4199 34.5231H12.1095L12.2704 34.3774C12.3509 34.2989 12.4199 34.2653 12.4659 34.2653V34.2541ZM14.4203 34.2765L14.5583 34.411C14.7193 34.5566 14.7423 34.6463 14.6273 34.6351L14.3054 34.6015L14.0524 34.5791L14.2364 34.4334L14.4203 34.2765ZM10.3734 34.355C10.3964 34.355 10.4885 34.411 10.5574 34.4894L10.6954 34.6351L10.408 34.6799L10.0056 34.736C9.92509 34.7584 9.94808 34.7024 10.1205 34.5566C10.2355 34.4446 10.3504 34.355 10.3734 34.355ZM9.94808 34.355H9.99406C10.086 34.3774 10.086 34.3998 9.92509 34.5566L9.75263 34.7248L9.69512 34.5791C9.64914 34.467 9.66067 34.4334 9.76416 34.3886C9.82301 34.3672 9.88523 34.3559 9.94808 34.355ZM15.2366 34.5566C15.2597 34.5566 15.2597 34.5791 15.2366 34.6239C15.2136 34.7136 15.1102 34.736 15.1102 34.6463C15.1102 34.6239 15.1446 34.5903 15.1906 34.5679H15.2251L15.2366 34.5566ZM12.7763 34.736C13.6616 34.736 14.5583 34.7584 14.7767 34.7808C15.1332 34.8256 15.1676 34.8368 15.1676 34.9713C15.1676 35.1282 15.1216 35.1394 14.6388 35.061C14.5008 35.0273 13.9145 34.9825 13.3511 34.9377C12.2578 34.8732 11.1606 34.9108 10.0746 35.0498C9.85612 35.0722 9.79861 35.0498 9.79861 34.9825C9.79861 34.8368 10.9713 34.736 12.7763 34.736ZM11.5921 35.061H12.2129L12.075 35.2066C11.9025 35.3859 11.8911 35.3859 11.7301 35.2066L11.5921 35.061ZM12.3969 35.061L12.5578 35.2179L12.7188 35.3971L12.3854 35.4084H12.052L12.2245 35.2291L12.3854 35.061H12.3969ZM12.6384 35.061H13.2592L13.1212 35.2066C12.9603 35.3859 12.9488 35.3859 12.7763 35.2066L12.6384 35.061ZM11.1668 35.061C11.1898 35.061 11.1668 35.117 11.0863 35.2291C11.0058 35.3299 10.9253 35.4084 10.9138 35.4084C10.8908 35.4084 10.8103 35.3411 10.7413 35.2627L10.6034 35.117H10.8103C10.9155 35.1175 11.0202 35.1024 11.1208 35.0722C11.1359 35.0692 11.1516 35.0692 11.1668 35.0722V35.061ZM11.3967 35.117L11.5461 35.2515L11.7186 35.3971L11.4197 35.4196L11.0863 35.442L11.2472 35.2739L11.3967 35.117ZM13.3971 35.117L13.5581 35.2963C13.742 35.4868 13.7306 35.4981 13.3167 35.4196L13.1212 35.3859L13.2592 35.2515L13.3971 35.117ZM13.6271 35.117H13.903C14.2019 35.117 14.2364 35.1618 14.0639 35.3188C13.926 35.4308 13.926 35.4308 13.765 35.2627L13.6271 35.117ZM10.109 35.1731C10.247 35.1731 10.2355 35.1843 10.063 35.3523C9.93655 35.4756 9.92509 35.4756 9.87911 35.3859C9.84459 35.2739 9.94808 35.1843 10.109 35.1731ZM14.5698 35.1954C14.6158 35.1954 14.7077 35.1954 14.7998 35.2179L15.0642 35.2627L14.9147 35.3971L14.7767 35.5316L14.6503 35.3748L14.5353 35.1954H14.5698ZM10.4309 35.2515C10.4655 35.2515 10.4999 35.2739 10.5574 35.3299C10.6724 35.442 10.6724 35.442 10.5804 35.4868C10.4913 35.5154 10.3982 35.5305 10.3045 35.5316H10.1205L10.27 35.3748C10.3504 35.2963 10.385 35.2627 10.4194 35.2515H10.4309ZM14.3514 35.2851C14.3973 35.2851 14.4319 35.3075 14.4893 35.3971L14.5928 35.5316H14.3514C14.1904 35.5316 14.1215 35.5093 14.1215 35.4644C14.1445 35.4196 14.2019 35.3523 14.2709 35.3188L14.3514 35.2851ZM15.0872 35.4308C15.1102 35.4308 15.1102 35.4532 15.1102 35.4868C15.1102 35.5989 15.0067 35.6773 14.9607 35.5989C14.9492 35.5653 14.9722 35.5093 15.0181 35.4756L15.0872 35.4308ZM12.1095 35.5653C13.1097 35.5653 14.2134 35.6325 14.8687 35.7446L15.0527 35.7782V36.2713C15.0527 36.6411 15.0297 36.7644 14.9722 36.7644L14.3973 36.6523C13.0679 36.4325 11.7136 36.3949 10.3734 36.5402L10.109 36.5739L10.04 36.1592C10.0115 36.0189 9.9961 35.8764 9.99406 35.7334C9.99406 35.7334 10.2585 35.6773 10.5689 35.6437C10.9483 35.5877 11.5116 35.5653 12.1095 35.5653Z" fill="black"/>
<path d="M14.1215 32.7634C13.7766 32.7634 13.5352 32.9988 13.5352 33.3462C13.5352 33.8841 14.156 34.1531 14.5239 33.7721C14.8918 33.3911 14.6388 32.7634 14.1215 32.7634ZM14.1215 32.8979C14.1818 32.8979 14.2417 32.9095 14.2975 32.932C14.3533 32.9546 14.404 32.9876 14.4467 33.0293C14.4893 33.0708 14.5232 33.1203 14.5464 33.1747C14.5695 33.229 14.5814 33.2873 14.5814 33.3462C14.5814 33.6824 14.2019 33.9066 13.8915 33.7609C13.5811 33.5927 13.6041 33.0773 13.9375 32.9428C13.9917 32.9178 14.0502 32.9025 14.11 32.8979H14.1215Z" fill="black"/>
<path d="M11.811 32.699C11.466 32.699 11.2246 32.9343 11.2246 33.2817C11.2246 33.8197 11.8454 34.0886 12.2133 33.7075C12.5812 33.3265 12.3283 32.699 11.811 32.699ZM11.811 32.8335C11.8713 32.8335 11.9311 32.8451 11.987 32.8676C12.0427 32.8901 12.0934 32.9231 12.1361 32.9647C12.1788 33.0064 12.2127 33.0558 12.2358 33.1102C12.2589 33.1646 12.2708 33.2229 12.2708 33.2817C12.2708 33.6179 11.8914 33.842 11.581 33.6964C11.2706 33.5283 11.2936 33.0127 11.627 32.8783C11.6812 32.8532 11.7396 32.8381 11.7994 32.8335H11.811Z" fill="black"/>
<path d="M9.88802 24.6396C9.84008 24.6424 9.79473 24.6635 9.76083 24.6986C9.72686 24.7338 9.70669 24.7806 9.7041 24.8301C9.7041 24.8852 9.72529 24.938 9.76303 24.9769C9.80077 25.0159 9.85193 25.0377 9.90528 25.0377C9.95864 25.0377 10.0098 25.0159 10.0475 24.9769C10.0853 24.938 10.1065 24.8852 10.1065 24.8301C10.1052 24.8025 10.0984 24.7754 10.0865 24.7506C10.0746 24.7258 10.0579 24.7037 10.0374 24.6858C10.0169 24.6679 9.99308 24.6546 9.96742 24.6467C9.94169 24.6387 9.9147 24.6363 9.88802 24.6396ZM9.89955 24.7069C9.93612 24.7069 9.97119 24.7198 9.99708 24.7429C10.023 24.7661 10.0375 24.7974 10.0375 24.8301C10.0375 24.8628 10.023 24.8941 9.99708 24.9173C9.97119 24.9404 9.93612 24.9534 9.89955 24.9534C9.86291 24.9534 9.82784 24.9404 9.80195 24.9173C9.77613 24.8941 9.76162 24.8628 9.76162 24.8301C9.76162 24.814 9.76515 24.7979 9.77205 24.783C9.77903 24.768 9.78916 24.7544 9.80195 24.7429C9.81481 24.7315 9.83003 24.7224 9.84675 24.7163C9.86346 24.7101 9.88143 24.7069 9.89955 24.7069Z" fill="black"/>
</g>
<defs>
<clipPath id="clip0_12589_5245">
<rect width="62.7706" height="62.7706" rx="31.3853" fill="white"/>
</clipPath>
</defs>
</svg>
