<svg width="63" height="63" viewBox="0 0 63 63" fill="none" xmlns="http://www.w3.org/2000/svg">
<g clip-path="url(#clip0_12589_5244)">
<path fill-rule="evenodd" clip-rule="evenodd" d="M-7.32324 -2.09229H62.7706V64.863H-7.32324V-2.09229Z" fill="#198A00"/>
<path fill-rule="evenodd" clip-rule="evenodd" d="M48.124 27.2007H56.4934V66.9554H48.124V27.2007Z" fill="#EF7D00"/>
<path fill-rule="evenodd" clip-rule="evenodd" d="M39.7549 27.2007H48.1243V66.9554H39.7549V27.2007Z" fill="black"/>
<path fill-rule="evenodd" clip-rule="evenodd" d="M31.3948 27.2007H39.7552V66.9554H31.3857L31.3948 27.2007Z" fill="#DE2010"/>
<path fill-rule="evenodd" clip-rule="evenodd" d="M50.9425 15.5816C50.9425 15.5816 54.0688 14.2187 54.363 13.9368C54.501 14.106 53.1125 15.8166 50.4184 16.4464C52.8642 15.8636 54.9515 14.0026 55.3837 14.059C55.5032 14.0872 55.4756 15.873 49.8667 17.4239C53.747 16.39 55.9997 14.4725 55.9721 14.6793C55.9997 14.7263 55.586 16.1832 52.193 17.3205C53.1401 17.0949 55.7147 15.497 55.6871 15.8072C55.7698 15.9294 53.2045 19.3037 48.5518 18.204C52.2666 19.1909 54.6665 16.8129 55.0067 16.8599C55.0802 16.8693 54.3262 18.9278 49.6553 19.0593C51.8896 18.8244 51.2459 19.0499 51.2459 19.0499C51.2459 19.0499 49.9311 20.1027 48.3312 19.3883C49.5817 19.7361 49.7196 19.7549 49.7472 19.8583C49.6644 20.0087 48.6438 20.2154 47.6416 19.6703C48.4415 20.0087 49.1587 20.065 49.1679 20.1873C49.1587 20.2249 48.653 20.5257 48.1932 20.3094C47.7427 20.1027 43.5682 17.4803 43.5682 17.4803L50.6851 15.4782L50.9425 15.5722V15.5816ZM42.5751 22.6875C41.9499 22.6875 41.9315 23.2514 41.9315 23.2514C41.9315 23.2514 41.8855 23.2984 41.9131 23.571L42.0694 23.3266C42.143 23.336 42.428 23.4206 42.8786 23.0634C42.4648 23.5052 42.7131 23.665 42.7131 23.665C42.7131 23.665 42.6211 24.0127 42.9338 24.0786C42.8418 23.9376 42.897 23.8153 42.897 23.8153C42.897 23.8153 43.3383 23.7683 43.3107 23.2232C43.32 23.7213 43.5866 23.8436 43.5866 23.8436C43.5866 23.8436 43.5866 24.1161 43.8717 24.1444C43.7245 24.0034 43.7521 23.7872 43.7521 23.7872C43.7521 23.7872 44.1199 23.5052 43.8165 23.0353C44.0003 22.9224 44.1567 22.6122 44.1567 22.6122C44.1567 22.6122 43.8992 22.4995 43.7797 22.4055C43.7245 22.2833 43.7797 21.6065 43.7797 21.6065L43.6142 20.7324L43.1729 22.0953C43.1912 21.9073 43.2004 22.6875 42.5751 22.6875Z" fill="#EF7D00" stroke="black" stroke-width="0.122599" stroke-linejoin="round"/>
<path fill-rule="evenodd" clip-rule="evenodd" d="M45.6618 20.7231C45.6803 20.7324 46.1308 21.2494 46.5722 21.2211C46.7376 21.0802 46.2319 20.7794 46.2319 20.7042C46.4158 20.8734 47.1606 21.5314 47.648 21.2964C47.8318 21.0144 47.2986 21.0614 46.7101 20.3C47.1238 20.5821 48.1537 21.193 48.641 20.958C48.8341 20.7324 47.5652 20.0275 47.133 19.4823L46.0297 18.9089L44.54 20.159L45.671 20.7231H45.6618Z" fill="#EF7D00" stroke="black" stroke-width="0.122599" stroke-linejoin="round"/>
<path fill-rule="evenodd" clip-rule="evenodd" d="M43.9824 16.4452C43.9824 16.4452 44.4881 16.1444 46.5202 16.2948C46.7409 16.323 47.8995 15.8906 48.2764 15.759C48.8649 15.6462 50.7591 15.2327 51.2556 14.8379C51.6234 14.7909 51.1636 15.5053 50.7039 15.6838C50.2257 15.9 48.4879 16.5204 47.8627 16.4358C48.6074 16.4452 48.1937 17.0655 46.9616 16.7742C47.5501 17.1125 47.3293 17.1689 47.3293 17.1689C47.3293 17.1689 46.2903 17.2253 46.0145 16.9809C46.7133 17.2535 46.4191 17.3569 46.4191 17.3569C46.4191 17.3569 45.711 17.4227 45.38 17.2629C45.8858 17.4227 45.6283 17.5167 45.6283 17.5167C45.6283 17.5167 45.2145 17.5919 44.8743 17.4603C44.5249 17.3381 44.01 16.4546 43.9824 16.4546V16.4452Z" fill="#EF7D00" stroke="black" stroke-width="0.122599" stroke-linecap="round" stroke-linejoin="round"/>
<path fill-rule="evenodd" clip-rule="evenodd" d="M44.7904 21.0143L44.8639 22.3866L44.7904 22.4994C44.7628 22.537 43.8433 22.349 43.9629 23.0633C43.9629 23.3641 43.9629 23.4393 44.1652 23.5991C44.1192 23.4111 44.1283 23.2701 44.1283 23.2701C44.1283 23.2701 44.395 23.43 44.6433 22.9882C44.4686 23.4205 44.5881 23.5803 44.634 23.5897C44.6708 23.6649 44.5605 24.0127 44.9099 24.0033C44.772 23.8717 44.8364 23.6837 44.8364 23.6837C44.8364 23.6837 45.2042 23.6273 45.0754 22.9599C45.2042 22.8284 45.2593 22.9599 45.2593 22.9599C45.2593 22.9599 45.2961 23.3547 45.618 23.2701C45.7558 23.3547 45.5904 23.5709 45.5904 23.5709C45.5904 23.5709 45.8203 23.5709 45.8938 23.383C45.9581 23.1762 46.0409 22.8189 45.6639 22.6686C45.618 22.5276 45.811 22.5182 45.811 22.5182C45.811 22.5182 46.0501 22.6028 46.1237 22.725C46.1972 22.8472 46.1697 22.4054 45.8662 22.349C45.4984 22.349 45.48 22.2644 45.48 22.255L45.3881 20.9673L44.7904 21.0143Z" fill="#EF7D00" stroke="black" stroke-width="0.122599" stroke-linejoin="round"/>
<path fill-rule="evenodd" clip-rule="evenodd" d="M46.0678 22.179C46.0678 22.1133 45.4425 21.2486 45.6081 21.1452C45.7644 21.1733 46.0218 21.5681 46.2425 21.4366C46.1781 21.2862 45.985 21.3707 45.7735 20.9759C45.5529 20.5248 45.5253 19.8575 44.7621 19.1337C45.2587 19.9045 46.362 20.3556 46.4172 20.13C46.4723 19.9045 45.4333 19.0585 45.4885 18.8517C45.6908 19.2653 46.7206 20.2052 47.4746 20.13C47.5298 19.9421 46.8585 19.5849 46.6839 19.2465C46.1965 18.9081 44.9 17.7708 44.8817 17.5076C44.6535 17.1112 44.3427 16.771 43.9713 16.5113C43.9372 16.4633 43.9122 16.4091 43.8978 16.3515C43.6036 15.6466 43.9898 15.4116 44.2196 15.3834C44.4035 15.3552 44.4587 15.3834 44.5874 15.3176L44.1184 15.1296C44.33 15.2894 44.854 15.1484 44.7437 15.5996C44.9736 15.5056 45.4701 14.9041 44.1829 14.7725C43.7599 14.2837 42.0404 14.0017 41.6083 16.1448C41.6451 16.173 41.6634 16.2012 41.7738 16.2763C41.2221 16.0132 39.76 15.8064 39.236 15.7124C37.8016 15.2988 36.3212 14.2837 36.1833 14.4059C35.9994 14.4999 37.0476 15.4962 36.9924 15.515C36.1746 15.039 35.3303 14.6122 34.4638 14.2367C33.9121 14.0299 33.3696 13.5412 33.3145 13.6352C33.1122 14.0581 34.188 15.1296 34.3903 15.2518C34.5925 15.374 36.1649 16.126 36.1373 16.1354C33.765 15.0357 33.3788 14.8289 33.2501 14.7067C33.0386 14.6597 32.5329 13.9547 32.3949 14.0017C32.3122 14.0769 32.4685 15.186 33.5995 15.6936C33.7834 15.8252 36.0269 16.6429 36.0086 16.7087C36.0086 16.7275 33.434 15.6278 33.3421 15.5808C32.8455 15.3928 32.2386 14.6973 32.1283 14.7725C32.018 14.8477 32.4041 15.5996 32.9007 15.8346C33.1673 15.9474 34.1695 16.4549 35.0707 16.7745C35.1259 16.8027 33.4432 16.126 32.634 15.7876C32.2663 15.5808 32.1007 15.3176 32.0455 15.374C31.9536 15.4304 32.1743 16.5395 34.7765 17.1599C34.8408 17.1975 35.696 16.9625 35.65 16.9907C35.1724 17.1134 34.6869 17.2013 34.1972 17.2539C34.1695 17.3291 34.3626 17.7238 35.7051 17.6486C35.8706 17.6393 36.8085 17.3009 36.7258 17.3667C36.2791 17.5409 35.825 17.6946 35.3649 17.8273C35.2822 17.8273 34.85 17.8836 34.8316 17.9212C34.8133 17.9964 35.1535 18.2784 35.8706 18.316C36.5143 18.3536 37.728 17.9212 37.7096 17.9494C37.6728 17.9776 36.5327 18.3818 36.5051 18.4006C36.4591 18.4288 36.0454 18.4476 36.0269 18.4852C35.9902 18.5697 36.6338 19.1808 38.5188 18.5227C38.3348 18.786 37.4154 18.9645 37.4154 19.0115C37.4154 19.0491 37.6177 19.2465 37.9395 19.3217C38.0958 19.3593 38.3165 19.3499 38.5188 19.3217C38.8866 19.2465 39.2544 19.1055 39.7417 18.645C39.7968 18.786 38.5372 19.4439 38.5924 19.5003C38.8682 19.7635 39.7785 19.4721 39.8336 19.4345C39.898 19.4063 41.5807 18.4288 41.5807 18.3066C41.6083 18.457 39.4015 19.6883 39.4291 19.7353C39.567 19.9608 40.321 19.7258 40.3485 19.6977L41.3416 19.1525C41.3692 19.1431 40.2566 19.8105 40.3485 19.9232C40.3026 20.365 42.0956 19.6224 42.2335 19.5284C42.2979 19.4815 41.3692 19.9421 41.3692 20.1582C41.6726 20.6752 42.6289 20.5154 42.776 20.4026C42.8495 20.3462 42.6841 20.7786 42.7392 20.741C42.8523 20.6227 42.9455 20.4861 43.0151 20.3369C42.9967 20.4872 42.8863 20.7128 42.8312 20.9759C42.7668 21.2297 42.7484 21.5305 42.6657 21.8407C42.6473 21.9723 43.2542 21.5681 43.1622 20.6C43.2174 21.1076 42.9783 22.0475 43.0426 22.1039C43.1622 22.1979 43.5208 21.634 43.5576 21.2486C43.6587 21.4366 43.8794 21.8407 44.0725 21.9347C44.0541 21.6433 44.0725 21.6527 43.9806 21.3707C44.0357 20.9854 44.0449 20.459 44.0541 19.8575C44.5691 20.8632 44.7805 21.2956 44.6334 22.0663C44.7897 22.132 45.0288 21.5211 45.0104 21.2203C45.0679 21.4724 45.2005 21.7 45.3899 21.8717C45.5793 22.0434 45.8162 22.1508 46.0678 22.179Z" fill="#EF7D00" stroke="black" stroke-width="0.134858" stroke-linecap="round" stroke-linejoin="round"/>
<path fill-rule="evenodd" clip-rule="evenodd" d="M37.4969 15.7791C37.4969 15.7791 37.1382 16.0516 36.7061 16.0328C36.8165 16.484 37.7175 16.1362 37.7175 16.1362C37.7175 16.1362 37.2853 16.6344 36.9728 16.7096C37.1567 16.8694 37.9474 16.813 38.0761 16.7378C38.2049 16.6532 38.4439 16.343 38.4439 16.343C38.4439 16.343 37.6347 17.3017 37.5244 17.2923C37.4969 17.4051 38.3612 17.3675 38.5359 17.1983C38.7198 17.0292 39.1795 16.7848 39.1795 16.7848C39.1795 16.7848 37.9842 17.6307 37.9382 17.6307C38.3796 17.7435 39.2715 17.4803 39.8415 17.1232C38.9956 17.6965 38.9221 17.7999 38.4899 17.9973C38.8761 18.0819 39.0692 18.345 40.3565 17.7717C41.0921 17.4145 41.5151 16.7566 41.5151 16.7566C40.9536 17.4336 40.2816 18.0061 39.5289 18.4484C39.4829 18.5424 40.3933 18.9372 41.5426 17.7059" fill="#EF7D00"/>
<path d="M37.4969 15.7791C37.4969 15.7791 37.1382 16.0516 36.7061 16.0328C36.8165 16.484 37.7175 16.1362 37.7175 16.1362C37.7175 16.1362 37.2853 16.6344 36.9728 16.7096C37.1567 16.8694 37.9474 16.813 38.0761 16.7378C38.2049 16.6532 38.4439 16.343 38.4439 16.343C38.4439 16.343 37.6347 17.3017 37.5244 17.2923C37.4969 17.4051 38.3612 17.3675 38.5359 17.1983C38.7198 17.0292 39.1795 16.7848 39.1795 16.7848C39.1795 16.7848 37.9842 17.6307 37.9382 17.6307C38.3796 17.7435 39.2715 17.4803 39.8415 17.1232C38.9956 17.6965 38.9221 17.7999 38.4899 17.9973C38.8761 18.0819 39.0692 18.345 40.3565 17.7717C41.0921 17.4145 41.5151 16.7566 41.5151 16.7566C40.9536 17.4336 40.2816 18.0061 39.5289 18.4484C39.4829 18.5424 40.3933 18.9372 41.5426 17.7059" stroke="black" stroke-width="0.134858" stroke-linecap="round" stroke-linejoin="round"/>
<path fill-rule="evenodd" clip-rule="evenodd" d="M43.7497 18.4389C43.7497 18.4389 43.8325 18.8149 44.1451 19.0969C44.4578 19.3789 44.4761 19.6608 44.4761 19.6608M43.6026 15.9951C43.6026 15.9951 43.7037 16.3429 44.0256 16.5591C44.3566 16.7659 44.8532 17.4426 44.8807 17.5648C44.9175 17.7058 45.1106 18.7491 45.0922 18.8619M41.6165 16.5121C41.6349 16.6531 41.1568 17.2922 41.8188 18.0535C41.2119 18.8055 41.2119 18.8995 41.2119 18.8995C41.2119 18.8995 41.5521 19.0875 42.1499 18.5611C43.1429 19.8018 42.8119 20.3657 42.8119 20.3657" fill="#EF7D00"/>
<path d="M43.7497 18.4389C43.7497 18.4389 43.8325 18.8149 44.1451 19.0969C44.4578 19.3789 44.4761 19.6608 44.4761 19.6608M43.6026 15.9951C43.6026 15.9951 43.7037 16.3429 44.0256 16.5591C44.3566 16.7659 44.8532 17.4426 44.8807 17.5648C44.9175 17.7058 45.1106 18.7491 45.0922 18.8619M41.6165 16.5121C41.6349 16.6531 41.1568 17.2922 41.8188 18.0535C41.2119 18.8055 41.2119 18.8995 41.2119 18.8995C41.2119 18.8995 41.5521 19.0875 42.1499 18.5611C43.1429 19.8018 42.8119 20.3657 42.8119 20.3657" stroke="black" stroke-width="0.134858" stroke-linecap="round"/>
<path fill-rule="evenodd" clip-rule="evenodd" d="M42.7266 19.4916C42.7266 19.4916 42.6347 19.36 42.8002 18.8618C42.9473 19.0498 43.1128 19.0781 43.1772 19.1438C43.2507 19.2284 44.0047 19.3318 44.0415 19.8488" fill="#EF7D00"/>
<path d="M42.7266 19.4916C42.7266 19.4916 42.6347 19.36 42.8002 18.8618C42.9473 19.0498 43.1128 19.0781 43.1772 19.1438C43.2507 19.2284 44.0047 19.3318 44.0415 19.8488" stroke="black" stroke-width="0.134858" stroke-linecap="round" stroke-linejoin="round"/>
<path fill-rule="evenodd" clip-rule="evenodd" d="M43.6146 14.8203C43.6146 14.7827 43.4583 14.4443 42.8975 14.8579C43.2009 14.8767 43.4951 15.0552 43.6146 14.8203Z" fill="#EF7D00" stroke="black" stroke-width="0.134858"/>
<path fill-rule="evenodd" clip-rule="evenodd" d="M48.9629 16.3242C48.9905 16.343 50.6364 16.7002 51.188 16.5216C50.4893 17.4803 49.0824 16.8318 49.0824 16.8318C49.772 17.0386 49.7996 17.0198 50.0203 17.2265C50.0939 17.4145 48.7514 17.3205 48.3193 17.0668C49.5421 17.4616 49.5697 17.4427 49.6065 17.5837C49.6617 17.7999 47.602 17.5273 47.4273 17.2547C47.9791 17.6871 48.2733 17.7717 48.5767 17.9691C48.2089 18.1383 47.5193 18.3074 46.2596 17.3957C47.9146 18.9372 49.4135 18.8432 49.6525 19.1158C49.0732 19.9899 46.8297 18.5988 45.7998 17.8939C44.77 17.189 48.0526 19.5952 48.356 19.5575C48.2089 19.7925 47.1239 19.5858 47.0504 19.4635" fill="#EF7D00"/>
<path d="M48.9629 16.3242C48.9905 16.343 50.6364 16.7002 51.188 16.5216C50.4893 17.4803 49.0824 16.8318 49.0824 16.8318C49.772 17.0386 49.7996 17.0198 50.0203 17.2265C50.0939 17.4145 48.7514 17.3205 48.3193 17.0668C49.5421 17.4616 49.5697 17.4427 49.6065 17.5837C49.6617 17.7999 47.602 17.5273 47.4273 17.2547C47.9791 17.6871 48.2733 17.7717 48.5767 17.9691C48.2089 18.1383 47.5193 18.3074 46.2596 17.3957C47.9146 18.9372 49.4135 18.8432 49.6525 19.1158C49.0732 19.9899 46.8297 18.5988 45.7998 17.8939C44.77 17.189 48.0526 19.5952 48.356 19.5575C48.2089 19.7925 47.1239 19.5858 47.0504 19.4635" stroke="black" stroke-width="0.134858" stroke-linejoin="round"/>
<path fill-rule="evenodd" clip-rule="evenodd" d="M49.3889 17.9409C49.205 17.9692 48.6257 17.9692 48.543 17.9503L49.3889 17.9409Z" fill="#EF7D00"/>
<path d="M49.3889 17.9409C49.205 17.9692 48.6257 17.9692 48.543 17.9503" stroke="black" stroke-width="0.134858" stroke-linecap="round"/>
<path fill-rule="evenodd" clip-rule="evenodd" d="M37.0127 15.5251C37.0127 15.5251 38.2632 16.2019 38.7965 16.1549C38.6947 16.2427 38.5755 16.3068 38.4471 16.3429C38.5758 16.3993 38.9436 16.5967 39.4953 16.4745L39.1919 16.7564C39.1919 16.7564 39.67 16.9444 40.2033 16.6625C40.1118 16.7739 40.0259 16.89 39.9459 17.0102L40.3228 17.0384" fill="#EF7D00"/>
<path d="M37.0127 15.5251C37.0127 15.5251 38.2632 16.2019 38.7965 16.1549C38.6947 16.2427 38.5755 16.3068 38.4471 16.3429C38.5758 16.3993 38.9436 16.5967 39.4953 16.4745L39.1919 16.7564C39.1919 16.7564 39.67 16.9444 40.2033 16.6625C40.1118 16.7739 40.0259 16.89 39.9459 17.0102L40.3228 17.0384" stroke="black" stroke-width="0.134858" stroke-linecap="round" stroke-linejoin="round"/>
</g>
<defs>
<clipPath id="clip0_12589_5244">
<rect width="62.7706" height="62.7706" rx="31.3853" fill="white"/>
</clipPath>
</defs>
</svg>
